<?xml version="1.0" encoding="UTF-8" standalone="no"?>
<svg
   xmlns:dc="http://purl.org/dc/elements/1.1/"
   xmlns:cc="http://creativecommons.org/ns#"
   xmlns:rdf="http://www.w3.org/1999/02/22-rdf-syntax-ns#"
   xmlns:svg="http://www.w3.org/2000/svg"
   xmlns="http://www.w3.org/2000/svg"
   xmlns:sodipodi="http://sodipodi.sourceforge.net/DTD/sodipodi-0.dtd"
   xmlns:inkscape="http://www.inkscape.org/namespaces/inkscape"
   id="Capa_1"
   viewBox="0 0 637.58 637.58"
   version="1.1"
   sodipodi:docname="wheel.svg"
   inkscape:version="0.92.5 (2060ec1f9f, 2020-04-08)">
  <metadata
     id="metadata3890">
    <rdf:RDF>
      <cc:Work
         rdf:about="">
        <dc:format>image/svg+xml</dc:format>
        <dc:type
           rdf:resource="http://purl.org/dc/dcmitype/StillImage" />
        <dc:title></dc:title>
      </cc:Work>
    </rdf:RDF>
  </metadata>
  <sodipodi:namedview
     pagecolor="#ffffff"
     bordercolor="#666666"
     borderopacity="1"
     objecttolerance="10"
     gridtolerance="10"
     guidetolerance="10"
     inkscape:pageopacity="0"
     inkscape:pageshadow="2"
     inkscape:window-width="1848"
     inkscape:window-height="1016"
     id="namedview3888"
     showgrid="false"
     inkscape:zoom="1.3143448"
     inkscape:cx="188.30675"
     inkscape:cy="257.92318"
     inkscape:window-x="72"
     inkscape:window-y="27"
     inkscape:window-maximized="1"
     inkscape:current-layer="Capa_1" />
  <defs
     id="defs3017">
    <style
       id="style3004">.cls-1,.cls-2,.cls-3,.cls-4{font-family:Mukta-SemiBold, Mukta;font-size:30.39px;}.cls-1,.cls-5,.cls-6,.cls-7{fill:#c67981;}.cls-2,.cls-8,.cls-9,.cls-10{fill:#799929;}.cls-3,.cls-11,.cls-12,.cls-13{fill:#637784;}.cls-4,.cls-14,.cls-15,.cls-16{fill:#2a889e;}.cls-5,.cls-8,.cls-14,.cls-11{font-size:12px;}.cls-5,.cls-8,.cls-14,.cls-11,.cls-17{font-family:Mukta-Bold, Mukta;}.cls-18{letter-spacing:-.01em;}.cls-19{letter-spacing:-.01em;}.cls-20{letter-spacing:-.04em;}.cls-21{letter-spacing:-.04em;}.cls-22{letter-spacing:.02em;}.cls-23{letter-spacing:-.02em;}.cls-24{letter-spacing:-.02em;}.cls-25{letter-spacing:-.02em;}.cls-26{letter-spacing:-.02em;}.cls-27{letter-spacing:-.03em;}.cls-28{letter-spacing:-.03em;}.cls-29{letter-spacing:-.03em;}.cls-30{letter-spacing:-.01em;}.cls-31{fill:#feffff;}.cls-32{fill:#fba6ab;}.cls-33{fill:#c0e771;}.cls-34{fill:#9bafbf;}.cls-35{fill:#73dbf8;}.cls-36{letter-spacing:-.01em;}.cls-37{letter-spacing:-.06em;}.cls-38{letter-spacing:-.06em;}.cls-39{letter-spacing:-.02em;}.cls-40,.cls-41,.cls-13,.cls-16,.cls-10,.cls-7{font-family:Mukta-Regular, Mukta;}.cls-40,.cls-17{font-size:15px;}.cls-42{letter-spacing:-.03em;}.cls-43{letter-spacing:-.02em;}.cls-44{letter-spacing:-.02em;}.cls-41{font-size:10px;}.cls-45{letter-spacing:-.02em;}.cls-46{filter:url(#drop-shadow-1);}.cls-13,.cls-16,.cls-10,.cls-7{font-size:15.22px;}.cls-17{fill:#b3b3b3;}.cls-47{letter-spacing:-.03em;}.cls-48{letter-spacing:0em;}.cls-49{letter-spacing:0em;}.cls-50{letter-spacing:0em;}.cls-51{letter-spacing:.03em;}.cls-52{letter-spacing:.03em;}.cls-53{letter-spacing:0em;}.cls-54{letter-spacing:-.02em;}.cls-55{letter-spacing:-.02em;}.cls-56{letter-spacing:0em;}.cls-57{letter-spacing:0em;}.cls-58{letter-spacing:-.07em;}.cls-59{letter-spacing:0em;}.cls-60{letter-spacing:0em;}.cls-61{letter-spacing:0em;}.cls-62{letter-spacing:-.07em;}.cls-63{letter-spacing:-.07em;}.cls-64{letter-spacing:0em;}.cls-65{letter-spacing:0em;}</style>
    <filter
       id="drop-shadow-1"
       filterUnits="userSpaceOnUse">
      <feOffset
         dx="2.16"
         dy="2.16"
         id="feOffset3006" />
      <feGaussianBlur
         result="blur"
         stdDeviation="5.39"
         id="feGaussianBlur3008" />
      <feFlood
         flood-color="#010b26"
         flood-opacity=".25"
         id="feFlood3010" />
      <feComposite
         in2="blur"
         operator="in"
         id="feComposite3012"
         result="result1" />
      <feComposite
         in="SourceGraphic"
         in2="result1"
         id="feComposite3014" />
    </filter>
  </defs>
  <path
     class="cls-33"
     d="M121.99,234.57c10.48-24.46,25.39-46.57,43.72-65.33L91.6,95.14c-27.98,28.42-50.67,62.04-66.47,99.31l96.86,40.12Z"
     id="am02"
     inkscape:label="_am02" />
  <path
     class="cls-33"
     d="M169.24,165.71c18.76-18.33,40.87-33.24,65.33-43.72L194.45,25.13c-37.27,15.8-70.89,38.5-99.31,66.47l74.1,74.1Z"
     id="am03"
     inkscape:label="_am03" />
  <path
     class="cls-33"
     d="M104.8,316.29c.31-27.23,5.7-53.23,15.28-77.11L23.23,199.07C8.54,235.31,.32,274.86,0,316.29H104.8Z"
     id="am01"
     inkscape:label="_am01" />
  <path
     class="cls-35"
     d="M403.02,121.99c24.46,10.48,46.57,25.39,65.33,43.72l74.1-74.1c-28.42-27.98-62.04-50.67-99.31-66.47l-40.12,96.86Z"
     id="iga02"
     inkscape:label="_iga02" />
  <path
     class="cls-35"
     d="M545.98,95.14l-74.1,74.1c18.33,18.76,33.24,40.87,43.72,65.33l96.86-40.12c-15.8-37.27-38.5-70.89-66.47-99.31Z"
     id="iga03"
     inkscape:label="_iga03" />
  <path
     class="cls-33"
     d="M239.19,120.07c23.88-9.57,49.88-14.96,77.11-15.28V0c-41.43,.32-80.98,8.54-117.22,23.23l40.11,96.84Z"
     id="am04"
     inkscape:label="_am04" />
  <path
     class="cls-35"
     d="M321.29,104.8c27.23,.31,53.23,5.7,77.11,15.28l40.11-96.84C402.27,8.54,362.73,.32,321.29,0V104.8Z"
     id="iga01"
     inkscape:label="_iga01" />
  <path
     class="cls-32"
     d="M120.07,398.4c-9.57-23.88-14.96-49.88-15.28-77.11H0c.32,41.43,8.54,80.98,23.23,117.22l96.84-40.11Z"
     id="pam04"
     inkscape:label="_pam04"
     onmouseover="evt.target.setAttribute('fill', 'blue');"
	 onmouseout="evt.target.setAttribute('fill','red');" />
  <path
     class="cls-34"
     d="M515.6,403.02c-10.48,24.46-25.39,46.57-43.72,65.33l74.1,74.1c27.98-28.42,50.67-62.04,66.47-99.31l-96.86-40.12Z"
     id="irc02"
     inkscape:label="_irc02" />
  <path
     class="cls-34"
     d="M532.79,321.29c-.31,27.23-5.7,53.23-15.28,77.11l96.84,40.11c14.69-36.24,22.91-75.78,23.23-117.22h-104.8Z"
     id="irc01"
     inkscape:label="_irc01" />
  <path
     class="cls-35"
     d="M517.51,239.19c9.57,23.88,14.96,49.88,15.27,77.11h104.8c-.32-41.43-8.54-80.98-23.23-117.22l-96.84,40.11Z"
     id="iga04"
     inkscape:label="_iga04" />
  <path
     class="cls-34"
     d="M468.34,471.88c-18.76,18.33-40.86,33.24-65.33,43.72l40.12,96.86c37.27-15.8,70.89-38.5,99.31-66.47l-74.1-74.1Z"
     id="irc03"
     inkscape:label="_irc03" />
  <path
     class="cls-32"
     d="M316.29,532.79c-27.23-.31-53.23-5.7-77.11-15.28l-40.11,96.84c36.24,14.69,75.78,22.91,117.22,23.23v-104.8Z"
     id="pam01"
     inkscape:label="_pam01" />
  <path
     class="cls-32"
     d="M234.57,515.6c-24.46-10.48-46.57-25.39-65.33-43.72l-74.1,74.1c28.42,27.98,62.04,50.67,99.31,66.47l40.12-96.86Z"
     id="pam02"
     inkscape:label="_pam02" />
  <path
     class="cls-32"
     d="M165.71,468.34c-18.33-18.76-33.24-40.86-43.72-65.33l-96.86,40.12c15.8,37.27,38.5,70.89,66.47,99.31l74.1-74.1Z"
     id="pam03"
     inkscape:label="_pam03" />
  <path
     class="cls-34"
     d="M398.4,517.51c-23.88,9.57-49.88,14.96-77.11,15.28v104.8c41.43-.32,80.98-8.54,117.22-23.23l-40.11-96.84Z"
     id="irc04"
     inkscape:label="_irc04" />
  <g
     class="cls-46"
     id="g3059">
    <path
       class="cls-31"
       d="M321.15,316.29h211.5c-1.33-116.22-95.28-210.16-211.5-211.5v211.5Z"
       id="path3051" />
    <path
       class="cls-31"
       d="M316.15,316.29V104.8c-116.22,1.33-210.16,95.28-211.5,211.5h211.5Z"
       id="path3053" />
    <path
       class="cls-31"
       d="M321.15,321.29v211.5c116.22-1.33,210.16-95.28,211.5-211.5h-211.5Z"
       id="path3055" />
    <path
       class="cls-31"
       d="M316.15,321.29H104.66c1.33,116.22,95.28,210.16,211.5,211.5v-211.5Z"
       id="path3057" />
  </g>
  <text
     class="cls-2"
     transform="translate(212.62 176.43)"
     id="text3063">
    <tspan
       x="0"
       y="0"
       id="tspan3061">AM</tspan>
  </text>
  <path
     class="cls-9"
     d="M249.51,204.57h-18.01c-1.24-3.3-4.4-5.66-8.13-5.66-4.81,0-8.71,3.9-8.71,8.71s3.9,8.71,8.71,8.71c3.69,0,6.82-2.3,8.1-5.54h7.05v4.57h4.98v-4.57h6.02v4.57h4.98v-10.79h-4.98Zm-25.94,6.19c-1.73,0-3.14-1.4-3.14-3.14s1.4-3.14,3.14-3.14,3.14,1.4,3.14,3.14-1.4,3.14-3.14,3.14Z"
     id="path3065" />
  <text
     class="cls-10"
     transform="translate(161.35 251.69)"
     id="text3089">
    <tspan
       class="cls-24"
       x="0"
       y="0"
       id="tspan3067">A</tspan>
    <tspan
       class="cls-45"
       x="8.67"
       y="0"
       id="tspan3069">C</tspan>
    <tspan
       class="cls-57"
       x="16.8"
       y="0"
       id="tspan3071">C</tspan>
    <tspan
       x="25.15"
       y="0"
       id="tspan3073">E</tspan>
    <tspan
       class="cls-55"
       x="32.78"
       y="0"
       id="tspan3075">S</tspan>
    <tspan
       x="40.23"
       y="0"
       id="tspan3077">S MAN</tspan>
    <tspan
       class="cls-36"
       x="82.84"
       y="0"
       id="tspan3079">A</tspan>
    <tspan
       x="91.59"
       y="0"
       id="tspan3081">GEMENT</tspan>
    <tspan
       x="53.73"
       y="18.26"
       id="tspan3083">&amp; </tspan>
    <tspan
       class="cls-36"
       x="67.12"
       y="18.26"
       id="tspan3085">S</tspan>
    <tspan
       x="74.58"
       y="18.26"
       id="tspan3087">SO</tspan>
  </text>
  <path
     class="cls-15"
     d="M409.41,192.51h3.95v-3.95h-3.95v3.95Zm12.32-.81h-6.09v3.1h-8.52v-3.1h-6.09c-2.04,0-3.7,1.66-3.7,3.7v27.57c0,2.04,1.66,3.7,3.7,3.7h20.69c2.04,0,3.7-1.66,3.7-3.7v-27.57c0-2.04-1.66-3.7-3.7-3.7Zm-10.34,7.17c1.69,0,3.06,1.37,3.06,3.06s-1.37,3.06-3.06,3.06-3.06-1.37-3.06-3.06,1.37-3.06,3.06-3.06Zm0,7.47c2.92,0,5.38,2.42,6.07,5.7h-12.13c.69-3.28,3.14-5.7,6.06-5.7Zm5.42,11.34v2.29h-10.83v-2.29h10.83Zm4.07,5.67h-18.97v-2.29h18.97v2.29Z"
     id="path3091" />
  <text
     class="cls-4"
     transform="translate(388.4 176.43)"
     id="text3095">
    <tspan
       x="0"
       y="0"
       id="tspan3093">IGA</tspan>
  </text>
  <text
     class="cls-16"
     transform="translate(335.5 251.27)"
     id="text3121">
    <tspan
       x="0"
       y="0"
       id="tspan3097">IDENTI</tspan>
    <tspan
       class="cls-22"
       x="42.88"
       y="0"
       id="tspan3099">T</tspan>
    <tspan
       x="50.88"
       y="0"
       id="tspan3101">Y G</tspan>
    <tspan
       class="cls-30"
       x="71.62"
       y="0"
       id="tspan3103">O</tspan>
    <tspan
       x="81.83"
       y="0"
       id="tspan3105">VERNAN</tspan>
    <tspan
       class="cls-19"
       x="135.79"
       y="0"
       id="tspan3107">C</tspan>
    <tspan
       x="144.14"
       y="0"
       id="tspan3109">E</tspan>
    <tspan
       x="19.77"
       y="18.26"
       id="tspan3111">ADMINI</tspan>
    <tspan
       class="cls-55"
       x="68.73"
       y="18.26"
       id="tspan3113">S</tspan>
    <tspan
       x="76.18"
       y="18.26"
       id="tspan3115">TR</tspan>
    <tspan
       class="cls-58"
       x="91.98"
       y="18.26"
       id="tspan3117">A</tspan>
    <tspan
       x="99.89"
       y="18.26"
       id="tspan3119">TION</tspan>
  </text>
  <text
     class="cls-1"
     transform="translate(205.21 374.28)"
     id="text3127">
    <tspan
       class="cls-38"
       x="0"
       y="0"
       id="tspan3123">P</tspan>
    <tspan
       x="14.83"
       y="0"
       id="tspan3125">AM</tspan>
  </text>
  <path
     class="cls-6"
     d="M249.32,416.72h-28.59v-4.32h28.59v4.32Zm5.32-21.06c0-1.33-1.08-2.41-2.41-2.41s-2.41,1.08-2.41,2.41c0,.74,.34,1.4,.87,1.84-.58,1.14-3.07,5.52-6.69,5.52s-7.75-6.74-8.54-8.13c1.12-.21,1.96-1.19,1.96-2.37,0-1.33-1.08-2.41-2.41-2.41s-2.41,1.08-2.41,2.41c0,1.13,.78,2.07,1.83,2.33-.74,1.32-4.8,8.16-8.56,8.16-3.52,0-6.37-4.44-7.16-5.79,.36-.42,.59-.97,.59-1.57,0-1.33-1.08-2.41-2.41-2.41s-2.41,1.08-2.41,2.41,1.08,2.41,2.41,2.41l3.82,12.55h28.59l3.7-12.69c.94-.33,1.62-1.21,1.62-2.27Z"
     id="path3129" />
  <text
     class="cls-7"
     transform="translate(172.03 446.52)"
     id="text3155">
    <tspan
       x="0"
       y="0"
       id="tspan3131">PRIVIL</tspan>
    <tspan
       class="cls-64"
       x="39.44"
       y="0"
       id="tspan3133">E</tspan>
    <tspan
       x="46.99"
       y="0"
       id="tspan3135">GED </tspan>
    <tspan
       class="cls-24"
       x="77.16"
       y="0"
       id="tspan3137">A</tspan>
    <tspan
       class="cls-45"
       x="85.84"
       y="0"
       id="tspan3139">C</tspan>
    <tspan
       class="cls-19"
       x="93.96"
       y="0"
       id="tspan3141">C</tspan>
    <tspan
       x="102.32"
       y="0"
       id="tspan3143">E</tspan>
    <tspan
       class="cls-36"
       x="109.94"
       y="0"
       id="tspan3145">S</tspan>
    <tspan
       x="117.4"
       y="0"
       id="tspan3147">S</tspan>
    <tspan
       x="14.97"
       y="18.26"
       id="tspan3149">MAN</tspan>
    <tspan
       class="cls-36"
       x="46.52"
       y="18.26"
       id="tspan3151">A</tspan>
    <tspan
       x="55.27"
       y="18.26"
       id="tspan3153">GEMENT</tspan>
  </text>
  <path
     class="cls-12"
     d="M413.54,388.26l17.19,28.09c.87,1.42-.15,3.24-1.82,3.24h-35.06c-1.68,0-2.7-1.86-1.8-3.27l17.87-28.09c.85-1.33,2.79-1.31,3.61,.03Zm.33,25.1c0-1.38-1.11-2.49-2.49-2.49s-2.49,1.11-2.49,2.49,1.11,2.49,2.49,2.49,2.49-1.11,2.49-2.49Zm-.21-15.06c0-1.26-1.02-2.28-2.28-2.28s-2.28,1.02-2.28,2.28,1.02,9.89,2.28,9.89,2.28-8.64,2.28-9.89Z"
     id="path3157" />
  <text
     class="cls-3"
     transform="translate(390.21 374.16)"
     id="text3161">
    <tspan
       x="0"
       y="0"
       id="tspan3159">IRC</tspan>
  </text>
  <text
     class="cls-13"
     transform="translate(366.05 446.52)"
     id="text3183">
    <tspan
       x="0"
       y="0"
       id="tspan3163">IDENTI</tspan>
    <tspan
       class="cls-22"
       x="42.88"
       y="0"
       id="tspan3165">T</tspan>
    <tspan
       x="50.88"
       y="0"
       id="tspan3167">Y RISK</tspan>
    <tspan
       x="-3.84"
       y="18.26"
       id="tspan3169">&amp; </tspan>
    <tspan
       class="cls-44"
       x="9.55"
       y="18.26"
       id="tspan3171">C</tspan>
    <tspan
       x="17.67"
       y="18.26"
       id="tspan3173">OMPI</tspan>
    <tspan
       class="cls-48"
       x="52.23"
       y="18.26"
       id="tspan3175">L</tspan>
    <tspan
       x="59.32"
       y="18.26"
       id="tspan3177">AN</tspan>
    <tspan
       class="cls-53"
       x="78.52"
       y="18.26"
       id="tspan3179">C</tspan>
    <tspan
       x="86.88"
       y="18.26"
       id="tspan3181">E</tspan>
  </text>
  <text
     transform="translate(256.43 32.06)"
     id="text3227">
    <tspan
       class="cls-8"
       id="tspan3191">
      <tspan
         x="0"
         y="0"
         id="tspan3185">0</tspan>
      <tspan
         class="cls-18"
         x="7.08"
         y="0"
         id="tspan3187">4</tspan>
      <tspan
         x="13.66"
         y="0"
         id="tspan3189">.</tspan>
    </tspan>
    <tspan
       class="cls-40"
       id="tspan3207">
      <tspan
         x="-41.33"
         y="18"
         id="tspan3193">C</tspan>
      <tspan
         class="cls-39"
         x="-32.94"
         y="18"
         id="tspan3195">r</tspan>
      <tspan
         x="-27.72"
         y="18"
         id="tspan3197">e</tspan>
      <tspan
         class="cls-65"
         x="-20.16"
         y="18"
         id="tspan3199">a</tspan>
      <tspan
         x="-12.75"
         y="18"
         id="tspan3201">te adapti</tspan>
      <tspan
         class="cls-56"
         x="43.42"
         y="18"
         id="tspan3203">v</tspan>
      <tspan
         x="50.22"
         y="18"
         id="tspan3205">e </tspan>
    </tspan>
    <tspan
       class="cls-40"
       id="tspan3221">
      <tspan
         x="-38.18"
         y="36"
         id="tspan3209">authe</tspan>
      <tspan
         class="cls-61"
         x="-1.64"
         y="36"
         id="tspan3211">n</tspan>
      <tspan
         x="6.29"
         y="36"
         id="tspan3213">ti</tspan>
      <tspan
         class="cls-59"
         x="15.44"
         y="36"
         id="tspan3215">c</tspan>
      <tspan
         class="cls-60"
         x="22"
         y="36"
         id="tspan3217">a</tspan>
      <tspan
         x="29.41"
         y="36"
         id="tspan3219">tion </tspan>
    </tspan>
    <tspan
       class="cls-40"
       id="tspan3225">
      <tspan
         x="-7.16"
         y="54"
         id="tspan3223">rules</tspan>
    </tspan>
  </text>
  <text
     transform="translate(161.75 75.93)"
     id="text3259">
    <tspan
       class="cls-8"
       id="tspan3235">
      <tspan
         x="0"
         y="0"
         id="tspan3229">0</tspan>
      <tspan
         class="cls-25"
         x="7.08"
         y="0"
         id="tspan3231">3</tspan>
      <tspan
         x="12.84"
         y="0"
         id="tspan3233">.</tspan>
    </tspan>
    <tspan
       class="cls-40"
       id="tspan3253">
      <tspan
         x="-28.34"
         y="18"
         id="tspan3237">C</tspan>
      <tspan
         class="cls-39"
         x="-19.95"
         y="18"
         id="tspan3239">r</tspan>
      <tspan
         x="-14.73"
         y="18"
         id="tspan3241">e</tspan>
      <tspan
         class="cls-65"
         x="-7.17"
         y="18"
         id="tspan3243">a</tspan>
      <tspan
         x=".24"
         y="18"
         id="tspan3245">te </tspan>
      <tspan
         class="cls-23"
         x="16.58"
         y="18"
         id="tspan3247">M</tspan>
      <tspan
         class="cls-21"
         x="28.45"
         y="18"
         id="tspan3249">F</tspan>
      <tspan
         x="35.13"
         y="18"
         id="tspan3251">A </tspan>
    </tspan>
    <tspan
       class="cls-40"
       id="tspan3257">
      <tspan
         x="-15.76"
         y="36"
         id="tspan3255">policies</tspan>
    </tspan>
  </text>
  <text
     transform="translate(87.26 151.99)"
     id="text3281">
    <tspan
       class="cls-8"
       id="tspan3263">
      <tspan
         x="0"
         y="0"
         id="tspan3261">02.</tspan>
    </tspan>
    <tspan
       class="cls-40"
       id="tspan3269">
      <tspan
         class="cls-61"
         x="-4.55"
         y="18"
         id="tspan3265">A</tspan>
      <tspan
         x="4.23"
         y="18"
         id="tspan3267">dd </tspan>
    </tspan>
    <tspan
       class="cls-40"
       id="tspan3279">
      <tspan
         x="-29.97"
         y="36"
         id="tspan3271">appli</tspan>
      <tspan
         class="cls-61"
         x=".43"
         y="36"
         id="tspan3273">c</tspan>
      <tspan
         class="cls-65"
         x="6.99"
         y="36"
         id="tspan3275">a</tspan>
      <tspan
         x="14.4"
         y="36"
         id="tspan3277">tions</tspan>
    </tspan>
  </text>
  <text
     transform="translate(47.72 235.82)"
     id="text3353">
    <tspan
       class="cls-8"
       id="tspan3285">
      <tspan
         x="0"
         y="0"
         id="tspan3283">01.</tspan>
    </tspan>
    <tspan
       class="cls-40"
       id="tspan3297">
      <tspan
         x="-13.41"
         y="18"
         id="tspan3287">C</tspan>
      <tspan
         class="cls-39"
         x="-5.02"
         y="18"
         id="tspan3289">r</tspan>
      <tspan
         x=".2"
         y="18"
         id="tspan3291">e</tspan>
      <tspan
         class="cls-65"
         x="7.76"
         y="18"
         id="tspan3293">a</tspan>
      <tspan
         x="15.17"
         y="18"
         id="tspan3295">te </tspan>
    </tspan>
    <tspan
       class="cls-40"
       id="tspan3305">
      <tspan
         x="-22.2"
         y="36"
         id="tspan3299">ide</tspan>
      <tspan
         class="cls-61"
         x="-2.91"
         y="36"
         id="tspan3301">n</tspan>
      <tspan
         x="5.02"
         y="36"
         id="tspan3303">tities </tspan>
    </tspan>
    <tspan
       class="cls-41"
       id="tspan3327">
      <tspan
         class="cls-26"
         x="-36.6"
         y="48"
         id="tspan3307">(</tspan>
      <tspan
         x="-33.79"
         y="48"
         id="tspan3309">manuall</tspan>
      <tspan
         class="cls-63"
         x="-.44"
         y="48"
         id="tspan3311">y</tspan>
      <tspan
         class="cls-20"
         x="3.47"
         y="48"
         id="tspan3313">,</tspan>
      <tspan
         x="5.21"
         y="48"
         xml:space="preserve"
         id="tspan3315"> C</tspan>      <tspan
         class="cls-26"
         x="13.02"
         y="48"
         id="tspan3317">S</tspan>
      <tspan
         x="17.87"
         y="48"
         id="tspan3319">V fil</tspan>
      <tspan
         class="cls-18"
         x="33.38"
         y="48"
         id="tspan3321">e</tspan>
      <tspan
         class="cls-20"
         x="38.32"
         y="48"
         id="tspan3323">,</tspan>
      <tspan
         x="40.06"
         y="48"
         xml:space="preserve"
         id="tspan3325"> or </tspan>    </tspan>
    <tspan
       class="cls-41"
       id="tspan3351">
      <tspan
         x="-36.34"
         y="60"
         id="tspan3329">autho</tspan>
      <tspan
         class="cls-61"
         x="-11.64"
         y="60"
         id="tspan3331">r</tspan>
      <tspan
         x="-7.97"
         y="60"
         id="tspan3333">it</tspan>
      <tspan
         class="cls-65"
         x="-1.87"
         y="60"
         id="tspan3335">a</tspan>
      <tspan
         x="3.07"
         y="60"
         id="tspan3337">ti</tspan>
      <tspan
         class="cls-18"
         x="9.17"
         y="60"
         id="tspan3339">v</tspan>
      <tspan
         x="13.7"
         y="60"
         id="tspan3341">e sou</tspan>
      <tspan
         class="cls-28"
         x="35.8"
         y="60"
         id="tspan3343">r</tspan>
      <tspan
         class="cls-47"
         x="39.22"
         y="60"
         id="tspan3345">c</tspan>
      <tspan
         class="cls-29"
         x="43.38"
         y="60"
         id="tspan3347">e</tspan>
      <tspan
         x="48.12"
         y="60"
         id="tspan3349">)</tspan>
    </tspan>
  </text>
  <text
     transform="translate(47.28 355.23)"
     id="text3385">
    <tspan
       class="cls-5"
       id="tspan3361">
      <tspan
         x="0"
         y="0"
         id="tspan3355">0</tspan>
      <tspan
         class="cls-18"
         x="7.08"
         y="0"
         id="tspan3357">4</tspan>
      <tspan
         x="13.66"
         y="0"
         id="tspan3359">.</tspan>
    </tspan>
    <tspan
       class="cls-40"
       id="tspan3379">
      <tspan
         x="-27.93"
         y="18"
         id="tspan3363">C</tspan>
      <tspan
         class="cls-39"
         x="-19.55"
         y="18"
         id="tspan3365">r</tspan>
      <tspan
         x="-14.33"
         y="18"
         id="tspan3367">e</tspan>
      <tspan
         class="cls-65"
         x="-6.77"
         y="18"
         id="tspan3369">a</tspan>
      <tspan
         x=".64"
         y="18"
         id="tspan3371">te </tspan>
      <tspan
         class="cls-23"
         x="16.99"
         y="18"
         id="tspan3373">M</tspan>
      <tspan
         class="cls-21"
         x="28.86"
         y="18"
         id="tspan3375">F</tspan>
      <tspan
         x="35.53"
         y="18"
         id="tspan3377">A </tspan>
    </tspan>
    <tspan
       class="cls-40"
       id="tspan3383">
      <tspan
         x="-15.35"
         y="36"
         id="tspan3381">policies</tspan>
    </tspan>
  </text>
  <text
     transform="translate(87.32 431.28)"
     id="text3447">
    <tspan
       class="cls-5"
       id="tspan3393">
      <tspan
         x="0"
         y="0"
         id="tspan3387">0</tspan>
      <tspan
         class="cls-25"
         x="7.08"
         y="0"
         id="tspan3389">3</tspan>
      <tspan
         x="12.84"
         y="0"
         id="tspan3391">.</tspan>
    </tspan>
    <tspan
       class="cls-40"
       id="tspan3405">
      <tspan
         x="-12.98"
         y="18"
         id="tspan3395">C</tspan>
      <tspan
         class="cls-39"
         x="-4.59"
         y="18"
         id="tspan3397">r</tspan>
      <tspan
         x=".63"
         y="18"
         id="tspan3399">e</tspan>
      <tspan
         class="cls-65"
         x="8.19"
         y="18"
         id="tspan3401">a</tspan>
      <tspan
         x="15.6"
         y="18"
         id="tspan3403">te </tspan>
    </tspan>
    <tspan
       class="cls-40"
       id="tspan3421">
      <tspan
         x="-27.6"
         y="36"
         id="tspan3407">moni</tspan>
      <tspan
         class="cls-50"
         x="4.53"
         y="36"
         id="tspan3409">t</tspan>
      <tspan
         x="9.93"
         y="36"
         id="tspan3411">o</tspan>
      <tspan
         class="cls-61"
         x="18"
         y="36"
         id="tspan3413">r</tspan>
      <tspan
         x="23.5"
         y="36"
         id="tspan3415">i</tspan>
      <tspan
         class="cls-61"
         x="27.19"
         y="36"
         id="tspan3417">n</tspan>
      <tspan
         x="35.13"
         y="36"
         id="tspan3419">g </tspan>
    </tspan>
    <tspan
       class="cls-40"
       id="tspan3441">
      <tspan
         x="-35.51"
         y="54"
         id="tspan3423">and </tspan>
      <tspan
         class="cls-39"
         x="-8.79"
         y="54"
         id="tspan3425">r</tspan>
      <tspan
         x="-3.57"
         y="54"
         id="tspan3427">e</tspan>
      <tspan
         class="cls-28"
         x="3.99"
         y="54"
         id="tspan3429">c</tspan>
      <tspan
         x="10.17"
         y="54"
         id="tspan3431">o</tspan>
      <tspan
         class="cls-27"
         x="18.24"
         y="54"
         id="tspan3433">r</tspan>
      <tspan
         x="23.37"
         y="54"
         id="tspan3435">di</tspan>
      <tspan
         class="cls-61"
         x="35.1"
         y="54"
         id="tspan3437">n</tspan>
      <tspan
         x="43.03"
         y="54"
         id="tspan3439">g </tspan>
    </tspan>
    <tspan
       class="cls-40"
       id="tspan3445">
      <tspan
         x="-15.76"
         y="72"
         id="tspan3443">policies</tspan>
    </tspan>
  </text>
  <text
     transform="translate(160.98 508.51)"
     id="text3487">
    <tspan
       class="cls-5"
       id="tspan3451">
      <tspan
         x="0"
         y="0"
         id="tspan3449">02.</tspan>
    </tspan>
    <tspan
       class="cls-40"
       id="tspan3455">
      <tspan
         x="-14.81"
         y="18"
         id="tspan3453">Publish </tspan>
    </tspan>
    <tspan
       class="cls-40"
       id="tspan3467">
      <tspan
         x="-27.31"
         y="36"
         id="tspan3457">a</tspan>
      <tspan
         class="cls-27"
         x="-19.98"
         y="36"
         id="tspan3459">cc</tspan>
      <tspan
         x="-7.62"
         y="36"
         id="tspan3461">ou</tspan>
      <tspan
         class="cls-61"
         x="8.54"
         y="36"
         id="tspan3463">n</tspan>
      <tspan
         x="16.47"
         y="36"
         id="tspan3465">ts in </tspan>
    </tspan>
    <tspan
       class="cls-40"
       id="tspan3479">
      <tspan
         x="-34.02"
         y="54"
         id="tspan3469">the pass</tspan>
      <tspan
         class="cls-61"
         x="17.94"
         y="54"
         id="tspan3471">w</tspan>
      <tspan
         x="28.54"
         y="54"
         id="tspan3473">o</tspan>
      <tspan
         class="cls-27"
         x="36.61"
         y="54"
         id="tspan3475">r</tspan>
      <tspan
         x="41.74"
         y="54"
         id="tspan3477">d </tspan>
    </tspan>
    <tspan
       class="cls-40"
       id="tspan3485">
      <tspan
         class="cls-56"
         x="-7.68"
         y="72"
         id="tspan3481">v</tspan>
      <tspan
         x="-.89"
         y="72"
         id="tspan3483">ault</tspan>
    </tspan>
  </text>
  <text
     transform="translate(260.26 558.28)"
     id="text3511">
    <tspan
       class="cls-5"
       id="tspan3491">
      <tspan
         x="0"
         y="0"
         id="tspan3489">01.</tspan>
    </tspan>
    <tspan
       class="cls-40"
       id="tspan3501">
      <tspan
         x="-35.33"
         y="18"
         id="tspan3493">Dis</tspan>
      <tspan
         class="cls-27"
         x="-15.9"
         y="18"
         id="tspan3495">c</tspan>
      <tspan
         class="cls-56"
         x="-9.72"
         y="18"
         id="tspan3497">ov</tspan>
      <tspan
         x="4.99"
         y="18"
         id="tspan3499">er your </tspan>
    </tspan>
    <tspan
       class="cls-40"
       id="tspan3509">
      <tspan
         x="-11.91"
         y="36"
         id="tspan3503">as</tspan>
      <tspan
         class="cls-61"
         x="1.53"
         y="36"
         id="tspan3505">s</tspan>
      <tspan
         x="7.56"
         y="36"
         id="tspan3507">ets</tspan>
    </tspan>
  </text>
  <text
     transform="translate(362.5 551.09)"
     id="text3563">
    <tspan
       class="cls-11"
       id="tspan3519">
      <tspan
         x="0"
         y="0"
         id="tspan3513">0</tspan>
      <tspan
         class="cls-18"
         x="7.08"
         y="0"
         id="tspan3515">4</tspan>
      <tspan
         x="13.66"
         y="0"
         id="tspan3517">.</tspan>
    </tspan>
    <tspan
       class="cls-40"
       id="tspan3531">
      <tspan
         x="-12.57"
         y="18"
         id="tspan3521">C</tspan>
      <tspan
         class="cls-39"
         x="-4.19"
         y="18"
         id="tspan3523">r</tspan>
      <tspan
         x="1.03"
         y="18"
         id="tspan3525">e</tspan>
      <tspan
         class="cls-65"
         x="8.59"
         y="18"
         id="tspan3527">a</tspan>
      <tspan
         x="16"
         y="18"
         id="tspan3529">te </tspan>
    </tspan>
    <tspan
       class="cls-40"
       id="tspan3545">
      <tspan
         x="-21.49"
         y="36"
         id="tspan3533">ad</tspan>
      <tspan
         class="cls-56"
         x="-6.11"
         y="36"
         id="tspan3535">v</tspan>
      <tspan
         x=".68"
         y="36"
         id="tspan3537">an</tspan>
      <tspan
         class="cls-47"
         x="16.03"
         y="36"
         id="tspan3539">c</tspan>
      <tspan
         class="cls-65"
         x="22.27"
         y="36"
         id="tspan3541">e</tspan>
      <tspan
         x="29.9"
         y="36"
         id="tspan3543">d </tspan>
    </tspan>
    <tspan
       class="cls-40"
       id="tspan3557">
      <tspan
         x="-34.3"
         y="54"
         id="tspan3547">autho</tspan>
      <tspan
         class="cls-61"
         x="2.75"
         y="54"
         id="tspan3549">r</tspan>
      <tspan
         x="8.26"
         y="54"
         id="tspan3551">iz</tspan>
      <tspan
         class="cls-65"
         x="18.11"
         y="54"
         id="tspan3553">a</tspan>
      <tspan
         x="25.52"
         y="54"
         id="tspan3555">tion </tspan>
    </tspan>
    <tspan
       class="cls-40"
       id="tspan3561">
      <tspan
         x="-7.16"
         y="72"
         id="tspan3559">rules</tspan>
    </tspan>
  </text>
  <text
     transform="translate(460.98 514.51)"
     id="text3603">
    <tspan
       class="cls-11"
       id="tspan3571">
      <tspan
         x="0"
         y="0"
         id="tspan3565">0</tspan>
      <tspan
         class="cls-25"
         x="7.08"
         y="0"
         id="tspan3567">3</tspan>
      <tspan
         x="12.84"
         y="0"
         id="tspan3569">.</tspan>
    </tspan>
    <tspan
       class="cls-40"
       id="tspan3575">
      <tspan
         x="-19.07"
         y="18"
         id="tspan3573">Design a </tspan>
    </tspan>
    <tspan
       class="cls-40"
       id="tspan3595">
      <tspan
         class="cls-39"
         x="-36.6"
         y="36"
         id="tspan3577">r</tspan>
      <tspan
         x="-31.38"
         y="36"
         id="tspan3579">e</tspan>
      <tspan
         class="cls-47"
         x="-23.82"
         y="36"
         id="tspan3581">c</tspan>
      <tspan
         x="-17.58"
         y="36"
         id="tspan3583">e</tspan>
      <tspan
         class="cls-52"
         x="-10.02"
         y="36"
         id="tspan3585">r</tspan>
      <tspan
         x="-3.99"
         y="36"
         id="tspan3587">tifi</tspan>
      <tspan
         class="cls-61"
         x="13.04"
         y="36"
         id="tspan3589">c</tspan>
      <tspan
         class="cls-65"
         x="19.59"
         y="36"
         id="tspan3591">a</tspan>
      <tspan
         x="27"
         y="36"
         id="tspan3593">tion </tspan>
    </tspan>
    <tspan
       class="cls-40"
       id="tspan3601">
      <tspan
         class="cls-61"
         x="-22.86"
         y="54"
         id="tspan3597">c</tspan>
      <tspan
         x="-16.31"
         y="54"
         id="tspan3599">ampaign</tspan>
    </tspan>
  </text>
  <text
     transform="translate(532.05 442.45)"
     id="text3637">
    <tspan
       class="cls-11"
       id="tspan3607">
      <tspan
         x="0"
         y="0"
         id="tspan3605">02.</tspan>
    </tspan>
    <tspan
       class="cls-40"
       id="tspan3615">
      <tspan
         x="-20.66"
         y="18"
         id="tspan3609">Sch</tspan>
      <tspan
         class="cls-65"
         x="1.65"
         y="18"
         id="tspan3611">e</tspan>
      <tspan
         x="9.28"
         y="18"
         id="tspan3613">dule </tspan>
    </tspan>
    <tspan
       class="cls-40"
       id="tspan3625">
      <tspan
         class="cls-61"
         x="-26.49"
         y="36"
         id="tspan3617">w</tspan>
      <tspan
         x="-15.88"
         y="36"
         id="tspan3619">eekly </tspan>
      <tspan
         class="cls-59"
         x="19.94"
         y="36"
         id="tspan3621">r</tspan>
      <tspan
         x="25.44"
         y="36"
         id="tspan3623">isk </tspan>
    </tspan>
    <tspan
       class="cls-40"
       id="tspan3635">
      <tspan
         class="cls-39"
         x="-12.27"
         y="54"
         id="tspan3627">r</tspan>
      <tspan
         x="-7.05"
         y="54"
         id="tspan3629">epo</tspan>
      <tspan
         class="cls-51"
         x="16.54"
         y="54"
         id="tspan3631">r</tspan>
      <tspan
         x="22.57"
         y="54"
         id="tspan3633">t</tspan>
    </tspan>
  </text>
  <text
     transform="translate(574.41 352.7)"
     id="text3667">
    <tspan
       class="cls-11"
       id="tspan3641">
      <tspan
         x="0"
         y="0"
         id="tspan3639">01.</tspan>
    </tspan>
    <tspan
       class="cls-40"
       id="tspan3653">
      <tspan
         x="-27.71"
         y="18"
         id="tspan3643">C</tspan>
      <tspan
         class="cls-39"
         x="-19.32"
         y="18"
         id="tspan3645">r</tspan>
      <tspan
         x="-14.1"
         y="18"
         id="tspan3647">e</tspan>
      <tspan
         class="cls-65"
         x="-6.54"
         y="18"
         id="tspan3649">a</tspan>
      <tspan
         x=".87"
         y="18"
         id="tspan3651">te SoD </tspan>
    </tspan>
    <tspan
       class="cls-40"
       id="tspan3665">
      <tspan
         x="-13.18"
         y="36"
         id="tspan3655">m</tspan>
      <tspan
         class="cls-65"
         x="-.82"
         y="36"
         id="tspan3657">a</tspan>
      <tspan
         x="6.59"
         y="36"
         id="tspan3659">t</tspan>
      <tspan
         class="cls-61"
         x="12.05"
         y="36"
         id="tspan3661">r</tspan>
      <tspan
         x="17.55"
         y="36"
         id="tspan3663">ix</tspan>
    </tspan>
  </text>
  <text
     transform="translate(573.58 240.42)"
     id="text3707">
    <tspan
       class="cls-14"
       id="tspan3675">
      <tspan
         x="0"
         y="0"
         id="tspan3669">0</tspan>
      <tspan
         class="cls-18"
         x="7.08"
         y="0"
         id="tspan3671">4</tspan>
      <tspan
         x="13.66"
         y="0"
         id="tspan3673">.</tspan>
    </tspan>
    <tspan
       class="cls-40"
       id="tspan3683">
      <tspan
         x="-28.62"
         y="18"
         id="tspan3677">Design u</tspan>
      <tspan
         class="cls-61"
         x="25.9"
         y="18"
         id="tspan3679">s</tspan>
      <tspan
         x="31.93"
         y="18"
         id="tspan3681">er </tspan>
    </tspan>
    <tspan
       class="cls-40"
       id="tspan3695">
      <tspan
         x="-19.01"
         y="36"
         id="tspan3685">li</tspan>
      <tspan
         class="cls-54"
         x="-11.87"
         y="36"
         id="tspan3687">f</tspan>
      <tspan
         x="-7.11"
         y="36"
         id="tspan3689">e-c</tspan>
      <tspan
         class="cls-42"
         x="11.28"
         y="36"
         id="tspan3691">y</tspan>
      <tspan
         x="17.82"
         y="36"
         id="tspan3693">cle </tspan>
    </tspan>
    <tspan
       class="cls-40"
       id="tspan3705">
      <tspan
         class="cls-61"
         x="-23.77"
         y="54"
         id="tspan3697">w</tspan>
      <tspan
         x="-13.16"
         y="54"
         id="tspan3699">orkfl</tspan>
      <tspan
         class="cls-59"
         x="15.44"
         y="54"
         id="tspan3701">o</tspan>
      <tspan
         x="23.44"
         y="54"
         id="tspan3703">ws</tspan>
    </tspan>
  </text>
  <text
     transform="translate(534.63 148.6)"
     id="text3733">
    <tspan
       class="cls-14"
       id="tspan3715">
      <tspan
         x="0"
         y="0"
         id="tspan3709">0</tspan>
      <tspan
         class="cls-25"
         x="7.08"
         y="0"
         id="tspan3711">3</tspan>
      <tspan
         x="12.84"
         y="0"
         id="tspan3713">.</tspan>
    </tspan>
    <tspan
       class="cls-40"
       id="tspan3721">
      <tspan
         class="cls-61"
         x="-4.61"
         y="18"
         id="tspan3717">A</tspan>
      <tspan
         x="4.17"
         y="18"
         id="tspan3719">dd </tspan>
    </tspan>
    <tspan
       class="cls-40"
       id="tspan3731">
      <tspan
         x="-30.03"
         y="36"
         id="tspan3723">appli</tspan>
      <tspan
         class="cls-61"
         x=".37"
         y="36"
         id="tspan3725">c</tspan>
      <tspan
         class="cls-65"
         x="6.93"
         y="36"
         id="tspan3727">a</tspan>
      <tspan
         x="14.33"
         y="36"
         id="tspan3729">tions</tspan>
    </tspan>
  </text>
  <text
     transform="translate(453.27 61.68)"
     id="text3805">
    <tspan
       class="cls-14"
       id="tspan3737">
      <tspan
         x="0"
         y="0"
         id="tspan3735">02.</tspan>
    </tspan>
    <tspan
       class="cls-40"
       id="tspan3749">
      <tspan
         x="-12.92"
         y="18"
         id="tspan3739">C</tspan>
      <tspan
         class="cls-39"
         x="-4.53"
         y="18"
         id="tspan3741">r</tspan>
      <tspan
         x=".69"
         y="18"
         id="tspan3743">e</tspan>
      <tspan
         class="cls-65"
         x="8.25"
         y="18"
         id="tspan3745">a</tspan>
      <tspan
         x="15.66"
         y="18"
         id="tspan3747">te </tspan>
    </tspan>
    <tspan
       class="cls-40"
       id="tspan3757">
      <tspan
         x="-21.72"
         y="36"
         id="tspan3751">ide</tspan>
      <tspan
         class="cls-61"
         x="-2.43"
         y="36"
         id="tspan3753">n</tspan>
      <tspan
         x="5.51"
         y="36"
         id="tspan3755">tities </tspan>
    </tspan>
    <tspan
       class="cls-41"
       id="tspan3779">
      <tspan
         class="cls-26"
         x="-36.11"
         y="48"
         id="tspan3759">(</tspan>
      <tspan
         x="-33.3"
         y="48"
         id="tspan3761">manuall</tspan>
      <tspan
         class="cls-63"
         x=".05"
         y="48"
         id="tspan3763">y</tspan>
      <tspan
         class="cls-20"
         x="3.96"
         y="48"
         id="tspan3765">,</tspan>
      <tspan
         x="5.7"
         y="48"
         xml:space="preserve"
         id="tspan3767"> C</tspan>      <tspan
         class="cls-26"
         x="13.51"
         y="48"
         id="tspan3769">S</tspan>
      <tspan
         x="18.36"
         y="48"
         id="tspan3771">V fil</tspan>
      <tspan
         class="cls-18"
         x="33.87"
         y="48"
         id="tspan3773">e</tspan>
      <tspan
         class="cls-20"
         x="38.81"
         y="48"
         id="tspan3775">,</tspan>
      <tspan
         x="40.55"
         y="48"
         xml:space="preserve"
         id="tspan3777"> or </tspan>    </tspan>
    <tspan
       class="cls-41"
       id="tspan3803">
      <tspan
         x="-35.86"
         y="60"
         id="tspan3781">autho</tspan>
      <tspan
         class="cls-61"
         x="-11.16"
         y="60"
         id="tspan3783">r</tspan>
      <tspan
         x="-7.49"
         y="60"
         id="tspan3785">it</tspan>
      <tspan
         class="cls-65"
         x="-1.39"
         y="60"
         id="tspan3787">a</tspan>
      <tspan
         x="3.55"
         y="60"
         id="tspan3789">ti</tspan>
      <tspan
         class="cls-18"
         x="9.65"
         y="60"
         id="tspan3791">v</tspan>
      <tspan
         x="14.18"
         y="60"
         id="tspan3793">e sou</tspan>
      <tspan
         class="cls-28"
         x="36.28"
         y="60"
         id="tspan3795">r</tspan>
      <tspan
         class="cls-47"
         x="39.7"
         y="60"
         id="tspan3797">c</tspan>
      <tspan
         class="cls-29"
         x="43.86"
         y="60"
         id="tspan3799">e</tspan>
      <tspan
         x="48.6"
         y="60"
         id="tspan3801">)</tspan>
    </tspan>
  </text>
  <text
     transform="translate(365.52 26.14)"
     id="text3853">
    <tspan
       class="cls-14"
       id="tspan3813">
      <tspan
         class="cls-43"
         x="0"
         y="0"
         id="tspan3807">0</tspan>
      <tspan
         class="cls-62"
         x="6.78"
         y="0"
         id="tspan3809">.</tspan>
      <tspan
         x="8.74"
         y="0"
         id="tspan3811">1</tspan>
    </tspan>
    <tspan
       class="cls-40"
       id="tspan3821">
      <tspan
         x="-38.91"
         y="18"
         id="tspan3815">Conne</tspan>
      <tspan
         class="cls-65"
         x="1.13"
         y="18"
         id="tspan3817">c</tspan>
      <tspan
         x="7.83"
         y="18"
         id="tspan3819">t Soffid </tspan>
    </tspan>
    <tspan
       class="cls-40"
       id="tspan3829">
      <tspan
         x="-34.59"
         y="36"
         id="tspan3823">IdaaS </tspan>
      <tspan
         class="cls-50"
         x="2.79"
         y="36"
         id="tspan3825">t</tspan>
      <tspan
         x="8.19"
         y="36"
         id="tspan3827">o your </tspan>
    </tspan>
    <tspan
       class="cls-40"
       id="tspan3841">
      <tspan
         x="-28.51"
         y="54"
         id="tspan3831">on-p</tspan>
      <tspan
         class="cls-39"
         x="-.27"
         y="54"
         id="tspan3833">r</tspan>
      <tspan
         x="4.95"
         y="54"
         id="tspan3835">emi</tspan>
      <tspan
         class="cls-61"
         x="28.56"
         y="54"
         id="tspan3837">s</tspan>
      <tspan
         x="34.59"
         y="54"
         id="tspan3839">e </tspan>
    </tspan>
    <tspan
       class="cls-40"
       id="tspan3851">
      <tspan
         x="-19.4"
         y="72"
         id="tspan3843">ne</tspan>
      <tspan
         class="cls-49"
         x="-3.83"
         y="72"
         id="tspan3845">t</tspan>
      <tspan
         class="cls-61"
         x="1.78"
         y="72"
         id="tspan3847">w</tspan>
      <tspan
         x="12.39"
         y="72"
         id="tspan3849">ork</tspan>
    </tspan>
  </text>
  <text
     class="cls-17"
     transform="translate(283.56 303.55)"
     id="text3861">
    <tspan
       x="0"
       y="0"
       id="tspan3855">0</tspan>
    <tspan
       class="cls-37"
       x="8.85"
       y="0"
       id="tspan3857">/</tspan>
    <tspan
       x="13.45"
       y="0"
       id="tspan3859">4</tspan>
  </text>
  <text
     class="cls-17"
     transform="translate(330.09 303.55)"
     id="text3869">
    <tspan
       x="0"
       y="0"
       id="tspan3863">0</tspan>
    <tspan
       class="cls-37"
       x="8.85"
       y="0"
       id="tspan3865">/</tspan>
    <tspan
       x="13.45"
       y="0"
       id="tspan3867">4</tspan>
  </text>
  <text
     class="cls-17"
     transform="translate(330.09 338.47)"
     id="text3877">
    <tspan
       x="0"
       y="0"
       id="tspan3871">0</tspan>
    <tspan
       class="cls-37"
       x="8.85"
       y="0"
       id="tspan3873">/</tspan>
    <tspan
       x="13.45"
       y="0"
       id="tspan3875">4</tspan>
  </text>
  <text
     class="cls-17"
     transform="translate(283.03 338.64)"
     id="text3885">
    <tspan
       x="0"
       y="0"
       id="tspan3879">0</tspan>
    <tspan
       class="cls-37"
       x="8.85"
       y="0"
       id="tspan3881">/</tspan>
    <tspan
       x="13.45"
       y="0"
       id="tspan3883">4</tspan>
  </text>
</svg>
