<?xml version="1.0" encoding="UTF-8" standalone="no"?>
<!-- Created with Inkscape (http://www.inkscape.org/) -->

<svg
   xmlns:dc="http://purl.org/dc/elements/1.1/"
   xmlns:cc="http://creativecommons.org/ns#"
   xmlns:rdf="http://www.w3.org/1999/02/22-rdf-syntax-ns#"
   xmlns:svg="http://www.w3.org/2000/svg"
   xmlns="http://www.w3.org/2000/svg"
   xmlns:sodipodi="http://sodipodi.sourceforge.net/DTD/sodipodi-0.dtd"
   xmlns:inkscape="http://www.inkscape.org/namespaces/inkscape"
   id="svg7384"
   width="16"
   height="16"
   version="1.1"
   sodipodi:docname="business.svg"
   inkscape:version="0.92.3 (2405546, 2018-03-11)">
  <defs
     id="defs2197" />
  <sodipodi:namedview
     pagecolor="#ffffff"
     bordercolor="#666666"
     borderopacity="1"
     objecttolerance="10"
     gridtolerance="10"
     guidetolerance="10"
     inkscape:pageopacity="0"
     inkscape:pageshadow="2"
     inkscape:window-width="1920"
     inkscape:window-height="1016"
     id="namedview2195"
     showgrid="false"
     inkscape:pagecheckerboard="true"
     inkscape:zoom="20.85965"
     inkscape:cx="8.9703277"
     inkscape:cy="8.5711564"
     inkscape:window-x="0"
     inkscape:window-y="27"
     inkscape:window-maximized="1"
     inkscape:current-layer="svg7384"
     showguides="true"
     inkscape:guide-bbox="true"
     inkscape:snap-grids="false">
    <sodipodi:guide
       position="2.2771235,7.9579475"
       orientation="0,1"
       id="guide2898"
       inkscape:locked="false" />
    <sodipodi:guide
       position="1.5100924,4.0269132"
       orientation="0,1"
       id="guide2900"
       inkscape:locked="false" />
    <sodipodi:guide
       position="3.2838518,12.00883"
       orientation="0,1"
       id="guide2902"
       inkscape:locked="false" />
    <sodipodi:guide
       position="8.0298567,17.425987"
       orientation="1,0"
       id="guide2904"
       inkscape:locked="false" />
    <sodipodi:guide
       position="4.0029435,15.532379"
       orientation="1,0"
       id="guide2906"
       inkscape:locked="false" />
    <sodipodi:guide
       position="11.984861,15.628258"
       orientation="1,0"
       id="guide2908"
       inkscape:locked="false" />
  </sodipodi:namedview>
  <metadata
     id="metadata90">
    <rdf:RDF>
      <cc:Work
         rdf:about="">
        <dc:format>image/svg+xml</dc:format>
        <dc:type
           rdf:resource="http://purl.org/dc/dcmitype/StillImage" />
        <dc:title>Gnome Symbolic Icon Theme</dc:title>
      </cc:Work>
    </rdf:RDF>
  </metadata>
  <title
     id="title9167">Gnome Symbolic Icon Theme</title>
  <circle
     style="opacity:1;fill:#ffffff;fill-opacity:1;fill-rule:nonzero;stroke:none;stroke-width:1.23893988;stroke-linecap:round;stroke-linejoin:round;stroke-miterlimit:4;stroke-dasharray:none;stroke-dashoffset:0;stroke-opacity:1"
     id="path981-9"
     cx="8.0594788"
     cy="8.0476799"
     r="7.64363" />
  <circle
     style="opacity:1;fill:#22b9d8;fill-opacity:1;fill-rule:nonzero;stroke:#22b9d8;stroke-width:1;stroke-linecap:round;stroke-linejoin:round;stroke-miterlimit:4;stroke-dasharray:none;stroke-dashoffset:0;stroke-opacity:1"
     id="path981"
     cx="8.0338974"
     cy="8.0338984"
     r="6.1694918" />
  <g
     aria-label="$"
     style="font-style:normal;font-weight:normal;font-size:16px;line-height:1.25;font-family:sans-serif;letter-spacing:0px;word-spacing:0px;fill:#000000;fill-opacity:1;stroke:none"
     id="text1743">
    <path
       d="M 8.2721638,13.381691 H 7.6942809 l -0.00578,-1.739413 Q 7.081725,11.63072 6.474948,11.503587 5.8681709,11.370675 5.255615,11.110628 v -1.040186 q 0.5894406,0.369842 1.1904388,0.560543 0.6067771,0.184923 1.2482271,0.190702 V 8.1865442 Q 6.4171597,7.9785063 5.8334979,7.481527 5.255615,6.9845481 5.255615,6.1177244 q 0,-0.9419489 0.6298924,-1.4851589 0.6298924,-0.5432104 1.8087735,-0.624114 V 2.6504259 H 8.2721638 V 3.991115 q 0.5374317,0.023115 1.0401941,0.1155767 0.5027585,0.086682 0.9824041,0.242711 V 5.360698 Q 9.8151164,5.1179872 9.3065787,4.9850741 8.803817,4.852161 8.2721638,4.8290457 v 2.4675589 q 1.3117987,0.2022589 1.9301362,0.7223535 0.618335,0.5200945 0.618335,1.4215915 0,0.9766194 -0.658787,1.5429444 -0.65301,0.560544 -1.8896842,0.647226 z M 7.6942809,7.1925857 V 4.8232669 q -0.6703442,0.075125 -1.0228527,0.3814027 -0.3525086,0.306278 -0.3525086,0.8148148 0,0.4969789 0.3236144,0.7743625 0.3293933,0.2773835 1.0517469,0.3987388 z m 0.5778829,1.109535 V 10.80435 q 0.7339137,-0.09824 1.1037608,-0.416076 0.375625,-0.317832 0.375625,-0.8379264 0,-0.508537 -0.3582881,-0.809036 Q 9.0407507,8.4408126 8.2721638,8.3021207 Z"
       style="fill:#ffffff;stroke-width:0.73969012"
       id="path1745"
       inkscape:connector-curvature="0" />
  </g>
  <path
     style="fill:#ffffff;stroke:#ffffff;stroke-width:1px;stroke-linecap:butt;stroke-linejoin:miter;stroke-opacity:1"
     d="M 8.0298567,2.6504259 V 13.381691"
     id="path1748"
     inkscape:connector-curvature="0" />
</svg>
