<?xml version="1.0" encoding="UTF-8" standalone="no"?>
<svg 
   xmlns:dc="http://purl.org/dc/elements/1.1/"
   xmlns:cc="http://creativecommons.org/ns#"
   xmlns:rdf="http://www.w3.org/1999/02/22-rdf-syntax-ns#"
   xmlns:svg="http://www.w3.org/2000/svg"
   xmlns="http://www.w3.org/2000/svg"
   xmlns:sodipodi="http://sodipodi.sourceforge.net/DTD/sodipodi-0.dtd"
   xmlns:inkscape="http://www.inkscape.org/namespaces/inkscape"
   height="32"
   id="Layer_1"
   version="1.1"
   viewBox="0 0 32 51.2"
   width="32"
   xml:space="preserve"
   sodipodi:docname="Hamburger_icon.svg"
   inkscape:version="0.92.3 (2405546, 2018-03-11)"><metadata
   id="metadata9"><rdf:RDF><cc:Work
       rdf:about=""><dc:format>image/svg+xml</dc:format><dc:type
         rdf:resource="http://purl.org/dc/dcmitype/StillImage" /><dc:title></dc:title></cc:Work></rdf:RDF></metadata><defs
   id="defs7" /><sodipodi:namedview
   pagecolor="#ffffff"
   bordercolor="#666666"
   borderopacity="1"
   objecttolerance="10"
   gridtolerance="10"
   guidetolerance="10"
   inkscape:pageopacity="0"
   inkscape:pageshadow="2"
   inkscape:window-width="1160"
   inkscape:window-height="706"
   id="namedview5"
   showgrid="false"
   inkscape:zoom="9.8125"
   inkscape:cx="16"
   inkscape:cy="10"
   inkscape:window-x="0"
   inkscape:window-y="27"
   inkscape:window-maximized="0"
   inkscape:current-layer="Layer_1" />
  <path
   style="fill:currentColor"
   d="M 4.3261146,19.579618 H 28.326115 c 1.104,0 2,-0.896 2,-2 0,-1.104 -0.896,-2 -2,-2 H 4.3261146 c -1.104,0 -2,0.896 -2,2 0,1.104 0.896,2 2,2 z m 24.0000004,4 H 4.3261146 c -1.104,0 -2,0.896 -2,2 0,1.104 0.896,2 2,2 H 28.326115 c 1.104,0 2,-0.896 2,-2 0,-1.104 -0.896,-2 -2,-2 z m 0,8 H 4.3261146 c -1.104,0 -2,0.896 -2,2 0,1.104 0.896,2 2,2 H 28.326115 c 1.104,0 2,-0.896 2,-2 0,-1.104 -0.896,-2 -2,-2 z"
   id="path2"
   inkscape:connector-curvature="0" />
</svg>