<?xml version="1.0" encoding="UTF-8" standalone="no"?>
<!-- Created with Inkscape (http://www.inkscape.org/) -->

<svg
   xmlns:dc="http://purl.org/dc/elements/1.1/"
   xmlns:cc="http://creativecommons.org/ns#"
   xmlns:rdf="http://www.w3.org/1999/02/22-rdf-syntax-ns#"
   xmlns:svg="http://www.w3.org/2000/svg"
   xmlns="http://www.w3.org/2000/svg"
   xmlns:sodipodi="http://sodipodi.sourceforge.net/DTD/sodipodi-0.dtd"
   xmlns:inkscape="http://www.inkscape.org/namespaces/inkscape"
   id="svg7384"
   height="16"
   width="16"
   version="1.1"
   sodipodi:docname="next.svg"
   inkscape:version="0.92.3 (2405546, 2018-03-11)">
  <defs
     id="defs10" />
  <sodipodi:namedview
     pagecolor="#ffffff"
     bordercolor="#666666"
     borderopacity="1"
     objecttolerance="10"
     gridtolerance="10"
     guidetolerance="10"
     inkscape:pageopacity="0"
     inkscape:pageshadow="2"
     inkscape:window-width="1920"
     inkscape:window-height="1043"
     id="namedview8"
     showgrid="false"
     inkscape:pagecheckerboard="true"
     inkscape:zoom="29.5"
     inkscape:cx="7.2372881"
     inkscape:cy="7.5762712"
     inkscape:window-x="0"
     inkscape:window-y="1080"
     inkscape:window-maximized="1"
     inkscape:current-layer="svg7384" />
  <metadata
     id="metadata90">
    <rdf:RDF>
      <cc:Work
         rdf:about="">
        <dc:format>image/svg+xml</dc:format>
        <dc:type
           rdf:resource="http://purl.org/dc/dcmitype/StillImage" />
        <dc:title>Gnome Symbolic Icon Theme</dc:title>
      </cc:Work>
    </rdf:RDF>
  </metadata>
  <title
     id="title9167">Gnome Symbolic Icon Theme</title>
  <g
     id="layer12-3"
     transform="matrix(-1.322035,0,0,1.2649313,177.05638,-845.66178)"
     style="fill:#ffffff">
    <path
       inkscape:connector-curvature="0"
       id="path35770-4-9-6"
       style="color:currentColor;text-indent:0;text-transform:none;fill:#ffffff"
       d="m 126.41026,672.46403 0.0128,3.44712 h 4.5 l 1.1859,-0.0141 0.0705,-3.41961 z"
       sodipodi:nodetypes="cccccc" />
    <path
       inkscape:connector-curvature="0"
       id="rect3217-6-2-2-4-85-2-7"
       style="color:currentColor;text-indent:0;text-transform:none;fill:#ffffff"
       d="m 129.19231,670.46218 0.0513,1.73696 c 0.008,0.25676 -0.0786,0.44806 -0.26122,0.63835 l -0.2171,2.87077 0.2812,0.4053 c 0.18267,0.19029 0.26366,0.22069 0.26122,0.47756 l -0.0128,1.34838 -1.33333,0.0536 c -0.30922,0.0124 -0.62925,-0.1037 -0.82693,-0.29465 l -3.38696,-3.57141 3.13055,-3.38381 c 0.19768,-0.19095 0.6585,-0.32145 0.96795,-0.32145 z"
       sodipodi:nodetypes="cscccscsccccc" />
  </g>
  <g
     id="layer12"
     transform="matrix(-1,0,0,1,134.8698,-666.9322)">
    <path
       id="path35770-4-9"
       style="color:currentColor;text-indent:0;text-transform:none;fill:#22b9d8"
       d="m 125,673 v 2 h 6.5 v -2 z"
       inkscape:connector-curvature="0"
       sodipodi:nodetypes="ccccc" />
    <path
       id="rect3217-6-2-2-4-85-2"
       style="color:currentColor;text-indent:0;text-transform:none;fill:#22b9d8"
       d="m 128,670.02 v 1 c 0,0.25689 -0.12983,0.52846 -0.3125,0.71875 l -2.2812,2.2812 2.2812,2.2812 c 0.18267,0.19029 0.3125,0.46186 0.3125,0.71875 v 1 h -1 c -0.30945,0 -0.55232,-0.0903 -0.75,-0.28125 l -3.6562,-3.7188 3.6562,-3.7188 c 0.19768,-0.19095 0.44055,-0.28125 0.75,-0.28125 z"
       inkscape:connector-curvature="0" />
  </g>
</svg>
