<?xml version="1.0" encoding="UTF-8" standalone="no"?>
<svg
   xmlns:dc="http://purl.org/dc/elements/1.1/"
   xmlns:cc="http://creativecommons.org/ns#"
   xmlns:rdf="http://www.w3.org/1999/02/22-rdf-syntax-ns#"
   xmlns:svg="http://www.w3.org/2000/svg"
   xmlns="http://www.w3.org/2000/svg"
   xmlns:sodipodi="http://sodipodi.sourceforge.net/DTD/sodipodi-0.dtd"
   xmlns:inkscape="http://www.inkscape.org/namespaces/inkscape"
   height="32"
   id="Layer_1"
   version="1.1"
   viewBox="0 0 32 51.2"
   width="32"
   xml:space="preserve"
   sodipodi:docname="role.svg"
   inkscape:version="0.92.3 (2405546, 2018-03-11)"><metadata
   id="metadata9"><rdf:RDF><cc:Work
       rdf:about=""><dc:format>image/svg+xml</dc:format><dc:type
         rdf:resource="http://purl.org/dc/dcmitype/StillImage" /><dc:title></dc:title></cc:Work></rdf:RDF></metadata><defs
   id="defs7"><marker
     inkscape:stockid="Arrow1Lend"
     orient="auto"
     refY="0.0"
     refX="0.0"
     id="marker1991"
     style="overflow:visible;"
     inkscape:isstock="true"><path
       id="path1989"
       d="M 0.0,0.0 L 5.0,-5.0 L -12.5,0.0 L 5.0,5.0 L 0.0,0.0 z "
       style="fill-rule:evenodd;stroke:#22b9d8;stroke-width:1pt;stroke-opacity:1;fill:#22b9d8;fill-opacity:1"
       transform="scale(0.8) rotate(180) translate(12.5,0)" /></marker><marker
     inkscape:stockid="Arrow1Lend"
     orient="auto"
     refY="0.0"
     refX="0.0"
     id="Arrow1Lend"
     style="overflow:visible;"
     inkscape:isstock="true"><path
       id="path1728"
       d="M 0.0,0.0 L 5.0,-5.0 L -12.5,0.0 L 5.0,5.0 L 0.0,0.0 z "
       style="fill-rule:evenodd;stroke:#22b9d8;stroke-width:1pt;stroke-opacity:1;fill:#22b9d8;fill-opacity:1"
       transform="scale(0.8) rotate(180) translate(12.5,0)" /></marker></defs><sodipodi:namedview
   pagecolor="#ffffff"
   bordercolor="#666666"
   borderopacity="1"
   objecttolerance="10"
   gridtolerance="10"
   guidetolerance="10"
   inkscape:pageopacity="0"
   inkscape:pageshadow="2"
   inkscape:window-width="1920"
   inkscape:window-height="1016"
   id="namedview5"
   showgrid="false"
   inkscape:zoom="9.8125"
   inkscape:cx="-18.379358"
   inkscape:cy="-5.6942675"
   inkscape:window-x="0"
   inkscape:window-y="27"
   inkscape:window-maximized="1"
   inkscape:current-layer="Layer_1"
   showguides="true"
   inkscape:guide-bbox="true"
   inkscape:pagecheckerboard="true"><sodipodi:guide
     position="-21.808917,56.580892"
     orientation="1,0"
     id="guide910"
     inkscape:locked="false" /></sodipodi:namedview>
  
<path
   style="fill:#22b9d8;stroke:#ffffff;stroke-width:1.6;stroke-linecap:butt;stroke-linejoin:miter;stroke-opacity:1;stroke-miterlimit:4;stroke-dasharray:none"
   d="m 2.5487906,28.566836 c -3.6001021,1.062274 -6.0628661,2.7449 -4.6485057,6.542329 1.5668092,3.602529 5.828134,6.8628 11.0186825,7.747515 3.8157086,0.123937 5.8536786,-2.410337 5.8536786,-2.410337 C 22.022652,39.949247 36.643124,36.830038 37.067741,30.313711 30.27318,23.384745 36.066842,21.245587 30.439838,20.819304 27.398221,18.671166 16.698081,19.349554 14.256143,20.47498 9.4896525,22.524234 3.8370816,23.908928 2.5487906,28.566836 Z"
   id="path3415-0"
   inkscape:connector-curvature="0"
   sodipodi:nodetypes="cccccccc" /><path
   style="fill:#22b9d8;stroke:#ffffff;stroke-width:1.6;stroke-linecap:butt;stroke-linejoin:miter;stroke-opacity:1;stroke-miterlimit:4;stroke-dasharray:none"
   d="m 2.5487911,27.685335 c -3.6001021,1.062275 -6.0628659,2.7449 -4.6485057,6.54233 1.5668092,3.602529 5.828134,6.8628 11.0186832,7.747515 3.8157074,0.123937 5.8536774,-2.410337 5.8536774,-2.410337 C 22.022652,39.067746 36.643124,35.948537 37.067741,29.432211 30.27318,22.503245 36.066842,20.364086 30.439838,19.937804 27.398221,17.789666 16.698081,18.468053 14.256143,19.593479 9.4896525,21.642734 3.8370823,23.027428 2.5487911,27.685335 Z"
   id="path3415"
   inkscape:connector-curvature="0"
   sodipodi:nodetypes="cccccccc" /><path
   style="fill:#22b9d8;stroke:#ffffff;stroke-width:1.6;stroke-linecap:butt;stroke-linejoin:miter;stroke-opacity:1;stroke-miterlimit:4;stroke-dasharray:none"
   d="m 2.7209616,27.340994 c 0.5720244,5.050274 4.6881193,7.62641 10.1578474,9.124846 9.146598,2.160348 22.854188,-1.046716 24.188932,-7.033629 0.138729,-3.306264 0.01249,-6.798999 -1.850794,-9.899601 -1.86325,-3.100602 -7.526904,-8.526917 -15.623626,-8.03097 -8.93742,-0.151589 -16.6269296,8.390903 -16.8723594,15.839354 z"
   id="path3417"
   inkscape:connector-curvature="0"
   sodipodi:nodetypes="ccczcc" /><path
   style="fill:#22b9d8;stroke:#ffffff;stroke-width:1.6;stroke-linecap:butt;stroke-linejoin:round;stroke-opacity:1;stroke-miterlimit:4;stroke-dasharray:none"
   d="m 4.1069463,32.488702 c 0.4370538,1.239668 1.856155,1.744843 3.2607285,2.500741 C 10.092228,25.555605 16.194681,15.852154 28.109464,11.753745 L 23.987903,10.802513 C 12.878809,13.382764 5.5968497,23.517361 4.1069463,32.488702 Z"
   id="path3419"
   inkscape:connector-curvature="0"
   sodipodi:nodetypes="ccccc" /></svg>