<svg id="Capa_1" data-name="Capa 1" xmlns="http://www.w3.org/2000/svg" viewBox="0 0 125.93 24.01"><defs><style>.cls-1{fill:#17b5c8;}.cls-2{fill:#02809d;}.cls-3{fill:none;}</style></defs><path class="cls-1" d="M9.58,1.82H117.25l6.75,10-2,7.36-6.87,2.49H9.11s-5.77-4.91-5.86-5.29S1.76,7.87,1.76,7.87Z"/><path class="cls-2" d="M8.1,11.77A8.73,8.73,0,0,1,14.69,3.3,8.53,8.53,0,0,0,12.53,3a8.75,8.75,0,0,0,0,17.5,8.53,8.53,0,0,0,2.16-.28A8.73,8.73,0,0,1,8.1,11.77Z"/><path class="cls-2" d="M117.48,11.77a8.74,8.74,0,0,1-6.6,8.47,8.53,8.53,0,0,0,2.16.28A8.75,8.75,0,0,0,113,3a8.53,8.53,0,0,0-2.16.28A8.74,8.74,0,0,1,117.48,11.77Z"/><path class="cls-3" d="M28.24,4H12a8,8,0,0,0,0,16.09H113.93a8,8,0,1,0,0-16.09H97.69a2,2,0,0,1-.35,0H28.6A2.2,2.2,0,0,1,28.24,4Z"/><path d="M103.17,24H24.59L12,24A12,12,0,0,1,12,0H113.93a12,12,0,0,1,0,24Zm10.76-4.47a7.49,7.49,0,0,0,0-15H97.69l-.41,0H28.65a2.83,2.83,0,0,1-.41,0H12a7.49,7.49,0,0,0,0,15H113.93Z"/></svg>