<svg id="Capa_1" data-name="Capa 1" xmlns="http://www.w3.org/2000/svg" viewBox="0 0 65.98 106.62"><defs><style>.cls-1{fill:#17b5c8;}.cls-2{fill:#02809d;}</style></defs><polygon class="cls-1" points="6.57 2.78 18.04 3.91 61.02 47.99 62.81 57.22 17.59 103.11 8.59 103.11 1.4 90.74 34.91 56.99 37.84 52.94 6.72 20.93 1.4 10.63 6.57 2.78"/><path class="cls-2" d="M10.51,10.63A10.88,10.88,0,0,1,23.77,9a10.88,10.88,0,1,0-17,13.25,11.13,11.13,0,0,0,2.14,1.65A10.89,10.89,0,0,1,10.51,10.63Z"/><path class="cls-2" d="M10.51,96.09A10.89,10.89,0,0,1,8.86,82.84a10.75,10.75,0,0,0-2.14,1.65A10.88,10.88,0,1,0,23.77,97.74,10.89,10.89,0,0,1,10.51,96.09Z"/><path d="M12.77,106.62a12.78,12.78,0,0,1-9-21.81L35.27,53.28,13.57,31.57,3.73,21.81A12.78,12.78,0,0,1,21.81,3.74L62.25,44.18a13.05,13.05,0,0,1,0,18.27l-8.41,8.33L31.57,93.05l-9.76,9.83A12.7,12.7,0,0,1,12.77,106.62Zm21.68-46.7-.29.24-.06,0L19.52,74.79l0,0a1.5,1.5,0,0,1-.2.24L6.65,87.72A8.66,8.66,0,1,0,18.9,100l9.35-9.35.44-.45,23-23,.26-.25,7.35-7.35a8.92,8.92,0,0,0,0-12.45L46.7,34.45a2.76,2.76,0,0,1-.21-.25l0-.05L31.71,19.39l-.1,0-.08-.08L18.9,6.65A8.66,8.66,0,1,0,6.65,18.9L16,28.25l.45.44,23,23,.28.29,1.32,1.32Z"/></svg>