<svg id="Capa_1" data-name="Capa 1" xmlns="http://www.w3.org/2000/svg" viewBox="0 0 113.13 69.74"><defs><style>.cls-1{fill:#a6d100;}.cls-2{fill:#6cab00;}</style></defs><path class="cls-1" d="M32.82,2.52,2,30.82,30,60l9.4-.63V51.23L26.14,37.31l64.93.19L98.68,42v7.63S96,55.15,93.3,56.79s0,11.07,0,11.07,15.59-2.35,18-22.38-27.46-20-27.46-20l-58.08-.56L40.42,10.51S41.91,1.12,32.82,2.52Z"/><path class="cls-2" d="M78.89,25.8s24.39,2.85,22.47,19.61c-1.25,10.85-7,10.57-7,10.57l-1,11.88,13.82-7.14L112,47.59l-3-12.47L98.84,27Z"/><path class="cls-2" d="M35.64,56.23a5.56,5.56,0,0,1-6.65.93,5.64,5.64,0,0,0,.92,1.23A5.58,5.58,0,0,0,37.8,50.5a5.64,5.64,0,0,0-1.23-.92A5.58,5.58,0,0,1,35.64,56.23Z"/><path class="cls-2" d="M35.64,6.3A5.6,5.6,0,0,1,36.57,13,5.69,5.69,0,0,0,37.8,12a5.58,5.58,0,0,0-7.89-7.88A5.41,5.41,0,0,0,29,5.38,5.58,5.58,0,0,1,35.64,6.3Z"/><path d="M94.19,69.74h0a23.22,23.22,0,0,0-4.29-46l-.51,0-.25,0H29.29L39.44,13.54a7.94,7.94,0,0,0,0-11.22,7.93,7.93,0,0,0-11.21,0L.51,30a1.74,1.74,0,0,0,0,2.46L28,60a8.29,8.29,0,0,0,5.31,2.5A7.93,7.93,0,0,0,39.44,49L29.29,38.85H89.9c.25,0,.49,0,.74,0a8.07,8.07,0,0,1,2,15.64,2.86,2.86,0,0,0-2,2.68v9.43h0a3.11,3.11,0,0,0,3.11,3.11h.44m0-3.58V57.63A11.55,11.55,0,0,0,89.9,35.36c-.29,0-.57,0-.86,0l.1,0H25.08a1.74,1.74,0,0,0-1.6,1.08,1.67,1.67,0,0,0-.14.67,1.79,1.79,0,0,0,.51,1.23L37,51.46a4.56,4.56,0,0,1,0,6.29,4.45,4.45,0,0,1-6.29,0L4.21,31.27,30.69,4.78a4.45,4.45,0,0,1,6.29,0,4.56,4.56,0,0,1,0,6.29L23.85,24.2a1.75,1.75,0,0,0,1.23,3H89.14l.25,0,.51,0a19.72,19.72,0,0,1,4.29,39Z"/></svg>