<svg id="Capa_1" data-name="Capa 1" xmlns="http://www.w3.org/2000/svg" viewBox="0 0 125.43 112.89"><defs><style>.cls-1{fill:#a6d100;}.cls-2{fill:#6cab00;}.cls-3{fill:#17b5c8;}.cls-4{fill:#02809d;}</style></defs><polygon class="cls-1" points="57.12 41.06 67.52 41.06 64.91 69.29 58.95 69.29 57.12 41.06"/><path class="cls-2" d="M66.67,43.24s-6-1-5.83,2.53,1.31,22.12,1.31,22.12H59.44L58,41.39l8.27-.8Z"/><path class="cls-3" d="M72.31,5.7l-9.6-3.78L52.93,6.37,15.07,69.85,2.38,91.23,3.49,104l8.24,6.84h99.56L122,104l1.11-11.2Zm41.2,94.44-9.13,2.22H15.74L12,99.69V94.12L57.39,15.28l5.34-4.23h2.74l48,84.63Z"/><path class="cls-4" d="M10.76,80.11s-15.9,27.52,17.12,29.81H12L1.28,99.83,7.09,82.4Z"/><path class="cls-4" d="M47.45,15.6S63-4,78.75,17.59L71.29,5.21,60.9,2.61,51.27,6.73Z"/><path class="cls-4" d="M115.32,81.73s11.62,22.53-9.94,29l9.94-.76,7.77-11.62-1.35-9Z"/><circle class="cls-2" cx="62.71" cy="81.73" r="3.53"/><circle class="cls-1" cx="64.54" cy="81.73" r="3.53"/><path d="M16,112.89a16,16,0,0,1-13.83-24L21.75,55a2.1,2.1,0,0,1,1.83-1.06,2.11,2.11,0,0,1,1.83,3.17L5.8,91.05A11.74,11.74,0,0,0,16,108.67h93.47a11.74,11.74,0,0,0,10.17-17.62L72.88,10.1a11.73,11.73,0,0,0-20.34,0l-23.11,40a2.11,2.11,0,0,1-1.83,1.06,2.11,2.11,0,0,1-2-1.57,2.09,2.09,0,0,1,.22-1.6L48.88,8A16,16,0,0,1,76.54,8l46.74,81a16,16,0,0,1-13.83,24Z"/><path d="M74.93,104a2.12,2.12,0,0,1,0-4.23h34.52a2.84,2.84,0,0,0,2.46-4.26L65.17,14.55a2.84,2.84,0,0,0-4.92,0l-46.73,81A2.84,2.84,0,0,0,16,99.76H67.11a2.12,2.12,0,0,1,0,4.23H16a7.07,7.07,0,0,1-6.12-10.6L56.6,12.44a7.05,7.05,0,0,1,12.23,0l46.74,81a7.07,7.07,0,0,1-6.12,10.6Z"/><path d="M60.5,71.16a3.66,3.66,0,0,1-3.65-3.42L55.25,42a3.64,3.64,0,0,1,3.64-3.88h7.19A3.64,3.64,0,0,1,69.72,42l-1.6,25.75a3.66,3.66,0,0,1-3.65,3.42Zm3.43-4.22,1.54-24.6h-6L61,66.94Z"/><path d="M62.48,88.38a6.65,6.65,0,1,1,6.65-6.65A6.65,6.65,0,0,1,62.48,88.38Zm0-9.07a2.42,2.42,0,1,0,2.43,2.42A2.42,2.42,0,0,0,62.48,79.31Z"/></svg>