<svg id="Capa_1" data-name="Capa 1" xmlns="http://www.w3.org/2000/svg" viewBox="0 0 125.13 102.19"><defs><style>.cls-1{fill:#a6d100;}.cls-2{fill:#6cab00;}.cls-3{fill:#17b5c8;}.cls-4{fill:#02809d;}.cls-5{fill:#5f7993;}.cls-6{fill:#3a5368;}</style></defs><path class="cls-1" d="M46.69,62.3l9.5-5.62,13.07.87L81.92,64v7.49L75.39,75l-6.53-3.44s-4.75-3.64-13.26,0l-5.35,4.23L42.93,73l-1.58-6.77Z"/><path class="cls-2" d="M50.41,73.13S47,63.64,67.75,57.45H54.89L42.12,66.22,42.93,73S46.07,77.33,50.41,73.13Z"/><path class="cls-3" d="M21.56,49.63,37,36.13l17.62-6.49H71.43L93,38.55,103.5,51.09l-2.77,6.66H93.6L79,46.3,56.59,41.91l-24,13.73-5.15,3.58S22.35,58,21.56,49.63Z"/><path class="cls-4" d="M33.3,54.44s8.35-24.37,42-22.82l-21-1L29.78,41.57l-7.23,9.52,3,8.13Z"/><path class="cls-5" d="M2,32.81,21,15.59,42.34,4.7l26.32-2L93.4,9.46a170.37,170.37,0,0,1,16.23,10.48C115.77,24.7,122.5,34,122.5,34l-1.19,7.87H113L102.11,30.43,79,16.78l-28.19-1L24.4,29.05,10.27,41.91,2,39Z"/><path class="cls-6" d="M12.15,41.57s13-36.84,63.12-36.68L49,2.73,22.55,14.94,2,34l2.6,7.53Z"/><path d="M8.47,45.5a8,8,0,0,1-5.09-1.84A9.54,9.54,0,0,1,2,30.53C17.23,11.24,39.25.11,62.4,0h.35A73.66,73.66,0,0,1,96.09,8a2.38,2.38,0,0,1,1.06,3.2A2.36,2.36,0,0,1,95,12.47,2.3,2.3,0,0,1,94,12.22,68.91,68.91,0,0,0,62.75,4.77h-.33c-21.69.1-42.35,10.57-56.68,28.72A4.75,4.75,0,0,0,6.37,40a3.33,3.33,0,0,0,2.1.78,3.44,3.44,0,0,0,2.68-1.37C24.09,23,42.79,13.52,62.46,13.42h.3C82.31,13.42,101,22.7,114,38.88a3.46,3.46,0,0,0,2.66,1.34,3.3,3.3,0,0,0,2.12-.79,4.77,4.77,0,0,0,.58-6.48,78.78,78.78,0,0,0-18.3-16.64,2.39,2.39,0,0,1,2.6-4A83.62,83.62,0,0,1,123.08,30a9.54,9.54,0,0,1-1.25,13.14A8,8,0,0,1,116.68,45a8.19,8.19,0,0,1-6.38-3.12c-12.11-15-29.44-23.68-47.54-23.68h-.28c-18.21.09-35.56,8.88-47.59,24.13A8.19,8.19,0,0,1,8.47,45.5Z"/><path d="M28.07,61.45A8,8,0,0,1,23,59.63a9.33,9.33,0,0,1-3.33-6.4,9.53,9.53,0,0,1,2.21-7C32.56,33.79,47,26.92,62.45,26.85h.23c15.4,0,29.78,6.73,40.51,18.95a9.52,9.52,0,0,1,2.27,7,9.26,9.26,0,0,1-3.26,6.42,8,8,0,0,1-5.13,1.88,8.33,8.33,0,0,1-6.23-2.91C83.35,49.72,73.36,45,62.71,45h-.18c-10.72.05-20.73,4.83-28.18,13.45A8.33,8.33,0,0,1,28.07,61.45ZM26.16,56a3.2,3.2,0,0,0,1.91.64,3.56,3.56,0,0,0,2.68-1.31c8.36-9.68,19.64-15,31.76-15.1h.2c12,0,23.3,5.26,31.71,14.8a3.51,3.51,0,0,0,2.65,1.28h0a3.26,3.26,0,0,0,2.09-.77,4.55,4.55,0,0,0,1.55-3.13,4.73,4.73,0,0,0-1.11-3.51C89.8,37.77,76.69,31.62,62.69,31.62h-.22c-14.08.06-27.21,6.34-37,17.67a4.79,4.79,0,0,0-1.08,3.52,4.55,4.55,0,0,0,1.44,3h0l.15.15Z"/><path d="M47.92,77.59a8,8,0,0,1-5.06-1.82,9.51,9.51,0,0,1-.38-14.21,30.35,30.35,0,0,1,20-7.86h.14a30.26,30.26,0,0,1,19.94,7.68,9.5,9.5,0,0,1-.24,14.2,8,8,0,0,1-5.11,1.87,8.3,8.3,0,0,1-5.4-2,14.4,14.4,0,0,0-5.25-2.93,2.32,2.32,0,0,1-1.41-1.16A2.38,2.38,0,0,1,65,69.5a2.4,2.4,0,0,1,2.28-1.69,2.26,2.26,0,0,1,.69.1,19.17,19.17,0,0,1,7,3.88,3.47,3.47,0,0,0,2.28.89,3.25,3.25,0,0,0,2.08-.77,4.56,4.56,0,0,0,1.58-3.47A4.49,4.49,0,0,0,79.44,65a25.21,25.21,0,0,0-16.8-6.5h-.12a25.21,25.21,0,0,0-16.86,6.66,4.48,4.48,0,0,0-1.41,3.47,4.57,4.57,0,0,0,1.61,3.48,3.27,3.27,0,0,0,2.06.75,3.49,3.49,0,0,0,2.3-.91,19.27,19.27,0,0,1,8.12-4.28,2.6,2.6,0,0,1,.56-.06,2.38,2.38,0,0,1,.56,4.7,14.36,14.36,0,0,0-6.09,3.21A8.26,8.26,0,0,1,47.92,77.59Z"/><path d="M62.57,102.19a10,10,0,1,1,9.95-10A10,10,0,0,1,62.57,102.19Zm0-15.21a5.22,5.22,0,1,0,5.18,5.22A5.22,5.22,0,0,0,62.57,87Z"/></svg>