<svg id="Capa_1" data-name="Capa 1" xmlns="http://www.w3.org/2000/svg" viewBox="0 0 121.44 121.44"><defs><style>.cls-1{fill:#3a5368;}.cls-2{fill:#5f7993;}.cls-3{fill:#a6d100;}.cls-4{fill:#6cab00;}.cls-5{fill:#02809d;}.cls-6{fill:#17b5c8;}</style></defs><polygon class="cls-1" points="30.1 80.46 25.23 82.75 2.73 106.41 1.79 113.16 7.98 119.71 13.79 119.71 39.48 95.53 40.91 89.91 30.1 80.46"/><path class="cls-2" d="M7.85,101.17a9,9,0,0,0-.09,10.75A9,9,0,0,0,20,113.35L41.75,91.63,29.64,79.52Z"/><polygon class="cls-3" points="32.74 81.58 42.85 72.2 49.62 78.6 38.77 87.78 32.74 81.58"/><polygon class="cls-4" points="35.96 78.6 42.59 85.23 39.1 88.72 32.89 82.51 35.96 78.6"/><path class="cls-5" d="M83.7,3.07a43,43,0,0,1-11.65,84.1,41.28,41.28,0,0,0,4.47.24A42.48,42.48,0,0,0,83.7,3.07Z"/><path class="cls-6" d="M114,44.17A43.06,43.06,0,0,0,83.7,3.07a43.57,43.57,0,0,0-7.18-.61,42.47,42.47,0,0,0-4.47,84.71A43,43,0,0,0,114,44.17ZM76.52,78.6a33.67,33.67,0,1,1,33.66-33.67A33.67,33.67,0,0,1,76.52,78.6Z"/><path d="M76.45,80.33A35.39,35.39,0,0,1,44.76,29.25c.24-.5.5-1,.64-1.25a2,2,0,0,1,1.73-1,1.93,1.93,0,0,1,.94.24A2,2,0,0,1,49,28.39a1.92,1.92,0,0,1-.17,1.5,31.54,31.54,0,0,0,5.4,37.31A31.48,31.48,0,0,0,99.32,23.25a31.84,31.84,0,0,0-22.89-9.84,31,31,0,0,0-15,3.87,1.88,1.88,0,0,1-1,.25,2,2,0,0,1-1-3.68A34.85,34.85,0,0,1,76.42,9.54a35.4,35.4,0,1,1,0,70.79Z"/><path d="M11.52,121.44a11.52,11.52,0,0,1-8.14-19.67L24.44,80.71a6.69,6.69,0,0,1,4.76-2,6.76,6.76,0,0,1,2.91.65l.27.13,7.91-7.91-.21-.29a44.93,44.93,0,1,1,10,10l-.29-.22-7.92,7.92.13.27A6.74,6.74,0,0,1,40.73,97L19.67,118.06A11.44,11.44,0,0,1,11.52,121.44ZM29.2,82.67a2.8,2.8,0,0,0-2,.82l-21,21.06a7.59,7.59,0,1,0,10.73,10.73L38,94.22a2.81,2.81,0,0,0,0-4l-6.76-6.76A2.8,2.8,0,0,0,29.2,82.67Zm6.16-.57,4,4,7.41-7.42-.33-.3c-.59-.53-1.16-1.07-1.72-1.63S43.6,75.6,43.08,75l-.3-.33ZM76.5,3.92a41,41,0,0,0-29,70,41,41,0,0,0,58-58A40.77,40.77,0,0,0,76.5,3.92Z"/><path d="M52.85,23.25a2,2,0,0,1-1.34-.52,2,2,0,0,1,0-2.83,2,2,0,0,1,2.78,0,2,2,0,0,1,0,2.78A2,2,0,0,1,52.85,23.25Z"/></svg>