<svg id="Capa_1" data-name="Capa 1" xmlns="http://www.w3.org/2000/svg" viewBox="0 0 128 128"><defs><style>.cls-1{fill:#17b5c8;}.cls-2{fill:#02809d;}.cls-3{fill:#a6d100;}.cls-4{fill:#6cab00;}.cls-5{fill:#5f7993;}.cls-6{fill:none;}.cls-7{fill:#1d1d1b;}</style></defs><polygon class="cls-1" points="51.89 21.87 43.14 31 42.01 49.13 38.17 56.59 38.98 67.84 45.03 73.31 49.5 85.65 62.97 91.83 78.64 84.38 84.71 69.56 88.75 65.7 87.14 52 84.14 27 68.14 21 51.89 21.87"/><path class="cls-2" d="M51.89,24.4S79.14,25,85.14,49l.91-17s-7.71-7.45-8.81-8.73S68.14,20,68.14,20Z"/><polygon class="cls-3" points="24.65 110.37 48.14 98 50.58 85.76 62.97 91.22 75.54 87.16 78.51 98.07 104.27 111.34 79.14 124 59.14 125 38.14 119 24.65 110.37"/><path class="cls-4" d="M48.14,86l1,8.45s4.76,6.37,14.9,6.37,13.24-7.41,13.24-7.41l-1-7.76L67.14,91l-5,1L50.58,85.76Z"/><path class="cls-5" d="M128,64A64,64,0,1,0,20.77,111.15l-.06,0L22.79,113c.13.11.28.21.42.32,1.1.91,2.24,1.78,3.4,2.62l1.14.81q1.88,1.29,3.82,2.44l.86.49c1.43.82,2.88,1.58,4.38,2.28.11.06.22.1.33.15A63.44,63.44,0,0,0,52.61,127L53,127c1.69.29,3.39.52,5.12.68l.63,0c1.71.14,3.45.23,5.21.23s3.46-.09,5.17-.23l.65,0c1.71-.15,3.4-.38,5.07-.66l.43-.08a62.93,62.93,0,0,0,15.26-4.79c.18-.08.36-.15.54-.24,1.43-.67,2.84-1.4,4.21-2.18l1-.59q1.89-1.09,3.68-2.32l1.28-.91c1-.74,2-1.5,3-2.29.22-.18.45-.33.66-.51l2.13-1.77-.06-.06A63.83,63.83,0,0,0,128,64ZM4.65,64a59.35,59.35,0,1,1,98.71,44.36,18.08,18.08,0,0,0-2.08-1.24L81.57,97.26a5.14,5.14,0,0,1-2.86-4.63V85.74c.45-.56.93-1.2,1.43-1.9a47.37,47.37,0,0,0,6.09-11.92,8.44,8.44,0,0,0,4.85-7.65V56A8.5,8.5,0,0,0,89,50.5V39.64A18.79,18.79,0,0,0,84.64,26C80.35,21.1,73.4,18.62,64,18.62S47.65,21.1,43.36,26A18.78,18.78,0,0,0,39,39.64V50.5A8.5,8.5,0,0,0,36.92,56v8.25A8.46,8.46,0,0,0,40,70.83,43.84,43.84,0,0,0,47.23,85.7v6.73A5.19,5.19,0,0,1,44.53,97l-18.4,10a17.48,17.48,0,0,0-1.75,1.1A59.19,59.19,0,0,1,4.65,64Zm94.16,48c-.81.59-1.64,1.16-2.48,1.71l-1.16.74c-1.1.68-2.22,1.33-3.36,1.94l-.76.38a58.49,58.49,0,0,1-8.12,3.44l-.29.1c-1.46.48-2.94.91-4.43,1.28h0c-1.5.37-3,.68-4.57.93l-.12,0c-1.45.23-2.9.4-4.37.53l-.77.06c-1.45.11-2.9.18-4.36.18s-3-.08-4.41-.19l-.76,0c-1.47-.13-2.94-.31-4.4-.55l-.19,0a59.71,59.71,0,0,1-9.06-2.26l-.27-.09c-1.46-.5-2.91-1.05-4.33-1.66l0,0c-1.35-.58-2.67-1.22-4-1.9l-.51-.26c-1.19-.63-2.35-1.32-3.5-2l-1-.65c-1.06-.69-2.1-1.41-3.12-2.17l-.31-.24.23-.13,18.4-10a9.86,9.86,0,0,0,5.13-8.65V84.05l-.54-.65a38.92,38.92,0,0,1-7-14.46L44.16,68l-.8-.51a3.85,3.85,0,0,1-1.79-3.24V56a3.81,3.81,0,0,1,1.3-2.85l.77-.69v-13l0-.31a14,14,0,0,1,3.24-10.14C50.23,25.22,56,23.27,64,23.27S77.72,25.2,81.1,29a14.24,14.24,0,0,1,3.28,10.2l0,13.27.77.69A3.78,3.78,0,0,1,86.43,56v8.25a3.89,3.89,0,0,1-2.75,3.66l-1.16.36-.37,1.15a43.15,43.15,0,0,1-5.81,11.71c-.61.86-1.2,1.62-1.71,2.21l-.58.66v8.61a9.8,9.8,0,0,0,5.44,8.8l19.71,9.85.37.19Z"/><path class="cls-6" d="M79.49,101.43a9.8,9.8,0,0,1-5.44-8.8V84l.58-.66c.51-.59,1.1-1.35,1.71-2.21a43.15,43.15,0,0,0,5.81-11.71l.37-1.15,1.16-.36a3.89,3.89,0,0,0,2.75-3.66V56a3.78,3.78,0,0,0-1.3-2.85l-.77-.69,0-13.27A14.24,14.24,0,0,0,81.1,29C77.72,25.2,72,23.27,64,23.27s-13.77,1.95-17.14,5.79A14,14,0,0,0,43.62,39.2l0,.31v13l-.77.69A3.81,3.81,0,0,0,41.57,56v8.25a3.85,3.85,0,0,0,1.79,3.24l.8.51.21.93a38.92,38.92,0,0,0,7,14.46l.54.65v8.38a9.86,9.86,0,0,1-5.13,8.65l-18.33,10a59,59,0,0,0,70.83.24l-.06,0Z"/><path class="cls-6" d="M123,64a59,59,0,1,0-98.35,44,15.65,15.65,0,0,1,1.48-.92l18.4-10a5.19,5.19,0,0,0,2.7-4.56V85.7A43.84,43.84,0,0,1,40,70.83a8.46,8.46,0,0,1-3.12-6.57V56A8.5,8.5,0,0,1,39,50.5V39.64A18.78,18.78,0,0,1,43.36,26C47.65,21.1,54.6,18.62,64,18.62S80.35,21.1,84.64,26A18.79,18.79,0,0,1,89,39.64V50.5A8.5,8.5,0,0,1,91.08,56v8.25a8.44,8.44,0,0,1-4.85,7.65,47.37,47.37,0,0,1-6.09,11.92c-.5.7-1,1.34-1.43,1.9v6.89a5.14,5.14,0,0,0,2.86,4.63l19.71,9.86a16.6,16.6,0,0,1,1.8,1.06A58.83,58.83,0,0,0,123,64Z"/><path class="cls-5" d="M123.67,87.14l-.09.23Z"/><path class="cls-5" d="M124.81,84c0,.14-.1.29-.14.43C124.71,84.24,124.76,84.09,124.81,84Z"/><path class="cls-5" d="M122.35,90.29h0Z"/><path class="cls-5" d="M127.64,70.78c0,.33-.09.66-.13,1C127.55,71.44,127.6,71.11,127.64,70.78Z"/><path class="cls-5" d="M126.57,77.44c0,.26-.11.51-.17.77C126.46,78,126.52,77.7,126.57,77.44Z"/><path class="cls-5" d="M125.78,80.71c0,.21-.12.41-.17.62C125.66,81.12,125.73,80.92,125.78,80.71Z"/><path class="cls-5" d="M127.19,74.13c0,.3-.1.6-.16.9C127.09,74.73,127.15,74.43,127.19,74.13Z"/><path class="cls-7" d="M81.57,97.26a5.14,5.14,0,0,1-2.86-4.63V85.74c.45-.56.93-1.2,1.43-1.9a47.37,47.37,0,0,0,6.09-11.92,8.44,8.44,0,0,0,4.85-7.65V56A8.5,8.5,0,0,0,89,50.5V39.64A18.79,18.79,0,0,0,84.64,26C80.35,21.1,73.4,18.62,64,18.62S47.65,21.1,43.36,26A18.78,18.78,0,0,0,39,39.64V50.5A8.5,8.5,0,0,0,36.92,56v8.25A8.46,8.46,0,0,0,40,70.83,43.84,43.84,0,0,0,47.23,85.7v6.73A5.19,5.19,0,0,1,44.53,97l-18.4,10a15.65,15.65,0,0,0-1.48.92q1.83,1.64,3.78,3.12l18.33-10a9.86,9.86,0,0,0,5.13-8.65V84.05l-.54-.65a38.92,38.92,0,0,1-7-14.46L44.16,68l-.8-.51a3.85,3.85,0,0,1-1.79-3.24V56a3.81,3.81,0,0,1,1.3-2.85l.77-.69v-13l0-.31a14,14,0,0,1,3.24-10.14C50.23,25.22,56,23.27,64,23.27S77.72,25.2,81.1,29a14.24,14.24,0,0,1,3.28,10.2l0,13.27.77.69A3.78,3.78,0,0,1,86.43,56v8.25a3.89,3.89,0,0,1-2.75,3.66l-1.16.36-.37,1.15a43.15,43.15,0,0,1-5.81,11.71c-.61.86-1.2,1.62-1.71,2.21l-.58.66v8.61a9.8,9.8,0,0,0,5.44,8.8l19.71,9.85.06,0q2-1.49,3.82-3.13a16.6,16.6,0,0,0-1.8-1.06Z"/><path class="cls-5" d="M127.91,67.4c0,.32,0,.63-.07.94C127.86,68,127.89,67.72,127.91,67.4Z"/><path class="cls-5" d="M128,64A64,64,0,0,0,64,0,64.07,64.07,0,0,1,128,64Z"/><path class="cls-5" d="M122.34,90.3a64.3,64.3,0,0,1-15.3,21l0,0A63.93,63.93,0,0,0,122.34,90.3Z"/><path class="cls-5" d="M64,4.65A59.31,59.31,0,0,0,24.38,108.13l.27-.18a59,59,0,1,1,78.43.23,2.68,2.68,0,0,0,.28.18A59.31,59.31,0,0,0,64,4.65Z"/><path class="cls-5" d="M125.61,81.33c-.25.88-.51,1.75-.8,2.62C125.1,83.08,125.36,82.21,125.61,81.33Z"/><path class="cls-5" d="M127.84,68.34c-.06.82-.12,1.63-.2,2.44C127.72,70,127.78,69.16,127.84,68.34Z"/><path class="cls-5" d="M127,75c-.14.81-.28,1.61-.46,2.41C126.75,76.64,126.89,75.84,127,75Z"/><path class="cls-5" d="M127.51,71.76c-.09.8-.19,1.59-.32,2.37C127.32,73.35,127.42,72.56,127.51,71.76Z"/><path class="cls-5" d="M128,64c0,1.14,0,2.28-.09,3.4C128,66.28,128,65.14,128,64Z"/><path class="cls-5" d="M126.4,78.21c-.19.84-.4,1.68-.62,2.5C126,79.89,126.21,79.05,126.4,78.21Z"/><path class="cls-5" d="M124.67,84.38c-.32.93-.65,1.85-1,2.76C124,86.23,124.35,85.31,124.67,84.38Z"/><path class="cls-5" d="M123.58,87.37c-.39,1-.8,2-1.23,2.92C122.78,89.33,123.19,88.36,123.58,87.37Z"/><path class="cls-7" d="M122.34,90.3h0c.43-1,.84-1.93,1.23-2.92l.09-.23c.35-.91.68-1.83,1-2.76,0-.14.1-.29.14-.43.29-.87.55-1.74.8-2.62,0-.21.12-.41.17-.62.22-.82.43-1.66.62-2.5.06-.26.12-.51.17-.77.18-.8.32-1.6.46-2.41.06-.3.12-.6.16-.9.13-.78.23-1.57.32-2.37,0-.32.09-.65.13-1,.08-.81.14-1.62.2-2.44,0-.31,0-.62.07-.94.06-1.12.09-2.26.09-3.4A64,64,0,0,0,0,64c0,1.14,0,2.27.09,3.4,0,.29.05.59.07.88,0,.84.11,1.67.2,2.49,0,.3.08.6.11.91.1.81.2,1.63.33,2.43,0,.27.1.53.14.8.15.84.3,1.68.48,2.51l.15.64c.2.88.41,1.76.64,2.63,0,.16.09.31.13.46.26.94.54,1.86.84,2.78l.09.26c.33,1,.68,2,1.05,2.93l0,0a64.23,64.23,0,0,0,16.43,24l0,0c.64.59,1.3,1.16,2,1.72l.07.06c.13.11.28.21.42.32,1.1.91,2.24,1.78,3.4,2.62l1.14.81q1.88,1.29,3.82,2.44l.86.49c1.43.82,2.88,1.58,4.38,2.28.11.06.22.1.33.15A63.44,63.44,0,0,0,52.61,127L53,127c1.69.29,3.39.52,5.12.68l.63,0c.83.07,1.67.12,2.51.16s1.79.07,2.7.07,1.79,0,2.68-.07,1.66-.09,2.49-.16l.65,0c.84-.07,1.68-.17,2.52-.28h0c.84-.11,1.67-.23,2.5-.37l.43-.08a62.93,62.93,0,0,0,15.26-4.79c.18-.08.36-.15.54-.24,1.43-.67,2.84-1.4,4.21-2.18l1-.59q1.89-1.09,3.68-2.32l1.28-.91c1-.74,2-1.5,3-2.29.22-.18.45-.33.66-.51l.15-.12c.65-.55,1.31-1.11,1.94-1.69l0,0A64.3,64.3,0,0,0,122.34,90.3Zm-19,18.06a2.68,2.68,0,0,1-.28-.18q-1.85,1.65-3.82,3.13l.31.16-.76.55c-.81.59-1.64,1.16-2.48,1.71l-1.16.74c-1.1.68-2.22,1.33-3.36,1.94l-.76.38a58.49,58.49,0,0,1-8.12,3.44l-.29.1c-1.46.48-2.94.91-4.43,1.28h0c-1.5.37-3,.68-4.57.93l-.12,0c-1.45.23-2.9.4-4.37.53l-.77.06c-1.45.11-2.9.18-4.36.18s-3-.08-4.41-.19l-.76,0c-1.47-.13-2.94-.31-4.4-.55l-.19,0a59.71,59.71,0,0,1-9.06-2.26l-.27-.09c-1.46-.5-2.91-1.05-4.33-1.66l0,0c-1.35-.58-2.67-1.22-4-1.9l-.51-.26c-1.19-.63-2.35-1.32-3.5-2l-1-.65c-1.06-.69-2.1-1.41-3.12-2.17l-.31-.24.23-.13.07,0q-2-1.48-3.78-3.12l-.27.18a59.35,59.35,0,1,1,79,.23Z"/><path class="cls-7" d="M74.05,84a14.84,14.84,0,0,1-22.16,0v5a16.2,16.2,0,0,0,11.25,4c6.41-.08,10.3-3.29,10.91-4Z"/></svg>