<svg id="Capa_1" data-name="Capa 1" xmlns="http://www.w3.org/2000/svg" viewBox="0 0 128 128"><defs><style>.cls-1{fill:#a6d100;}.cls-2{fill:#6cab00;}.cls-3{fill:#17b5c8;}.cls-4{fill:#02809d;}.cls-5{fill:#1d1d1b;}</style></defs><polygon class="cls-1" points="91.37 39.46 83.5 36.05 77.66 38.41 35.77 78.91 36.36 90.78 44.46 95.13 52.95 92.2 93.66 50.52 91.37 39.46"/><rect class="cls-1" x="39.94" y="70.49" width="18.19" height="21.42" transform="translate(71.78 -10.89) rotate(45)"/><path class="cls-2" d="M87.14,42.33a9.24,9.24,0,0,1,1.4,11.26,9.42,9.42,0,0,0,1.83-1.41A9.25,9.25,0,0,0,77.28,39.1a9.61,9.61,0,0,0-1.4,1.82A9.24,9.24,0,0,1,87.14,42.33Z"/><path class="cls-2" d="M41.23,88.24A9.24,9.24,0,0,1,39.82,77,9.71,9.71,0,0,0,38,78.38,9.25,9.25,0,0,0,51.08,91.47a9.67,9.67,0,0,0,1.41-1.82A9.24,9.24,0,0,1,41.23,88.24Z"/><path class="cls-3" d="M50.52,36.74,93.66,79.89,91.19,92.45l-7,4-7-3.27L35.29,51.27s-.64-8-.43-8.33,5.29-7.52,5.29-7.52Z"/><path class="cls-4" d="M41.23,42.33a9.24,9.24,0,0,1,11.26-1.41,9.67,9.67,0,0,0-1.41-1.82A9.25,9.25,0,0,0,38,52.18a9.36,9.36,0,0,0,1.82,1.41A9.24,9.24,0,0,1,41.23,42.33Z"/><path class="cls-4" d="M87.14,88.24a9.24,9.24,0,0,1-11.26,1.41,9.61,9.61,0,0,0,1.4,1.82A9.26,9.26,0,0,0,90.37,78.38,9.77,9.77,0,0,0,88.54,77,9.24,9.24,0,0,1,87.14,88.24Z"/><path d="M36.17,93.57a12.1,12.1,0,0,1,0-17.1L47,65.59,36.17,54.72a12.09,12.09,0,0,1,17.1-17.1L64.14,48.49,75,37.62a12.09,12.09,0,0,1,17.1,17.1L81.24,65.6,92.12,76.47A12.09,12.09,0,0,1,75,93.57L64.14,82.7,53.27,93.57A12.11,12.11,0,0,1,36.17,93.57ZM50.74,40.16a8.51,8.51,0,1,0-12,12L50.84,64.33a1.79,1.79,0,0,1,0,2.53L38.7,79a8.51,8.51,0,1,0,12,12L62.88,78.9a1.79,1.79,0,0,1,2.53,0L77.55,91a8.51,8.51,0,1,0,12-12L77.44,66.86a1.79,1.79,0,0,1,0-2.53L89.58,52.19a8.51,8.51,0,0,0-12-12L65.41,52.29a1.79,1.79,0,0,1-2.53,0Z"/><rect x="56.99" y="57.21" width="30.26" height="3.54" transform="translate(62.83 -33.72) rotate(45)"/><rect x="42.43" y="71.77" width="30.26" height="3.54" transform="translate(68.86 -19.16) rotate(45)"/><path class="cls-5" d="M122.34,90.3h0c.43-1,.84-1.93,1.23-2.92l.09-.23c.35-.91.68-1.83,1-2.76,0-.14.1-.29.14-.43.29-.87.55-1.74.8-2.62,0-.21.12-.41.17-.62.22-.82.43-1.66.62-2.5.06-.26.12-.51.17-.77.18-.8.32-1.6.46-2.41.06-.3.12-.6.16-.9.13-.78.23-1.57.32-2.37,0-.32.09-.65.13-1,.08-.81.14-1.62.2-2.44,0-.31,0-.62.07-.94.06-1.12.09-2.26.09-3.4A64,64,0,0,0,0,64c0,1.14,0,2.27.09,3.4,0,.29.05.59.07.88,0,.84.11,1.67.2,2.49,0,.3.08.6.11.91.1.81.2,1.63.33,2.43,0,.27.1.53.14.8.15.84.3,1.68.48,2.51l.15.64c.2.88.41,1.76.64,2.63,0,.16.09.31.13.46.26.94.54,1.86.84,2.78l.09.26c.33,1,.68,2,1.05,2.93l0,0a64.23,64.23,0,0,0,16.43,24l0,0c.64.59,1.3,1.16,2,1.72l.07.06c.13.11.28.21.42.32,1.1.91,2.24,1.78,3.4,2.62l1.14.81q1.88,1.29,3.82,2.44l.86.49c1.43.82,2.88,1.58,4.38,2.28.11.06.22.1.33.15A63.44,63.44,0,0,0,52.61,127L53,127c1.69.29,3.39.52,5.12.68l.63,0c.83.07,1.67.12,2.51.16s1.79.07,2.7.07,1.79,0,2.68-.07,1.66-.09,2.49-.16l.65,0c.84-.07,1.68-.17,2.52-.28h0c.84-.11,1.67-.23,2.5-.37l.43-.08a62.93,62.93,0,0,0,15.26-4.79c.18-.08.36-.15.54-.24,1.43-.67,2.84-1.4,4.21-2.18l1-.59q1.89-1.09,3.68-2.32l1.28-.91c1-.74,2-1.5,3-2.29.22-.18.45-.33.66-.51l.15-.12c.65-.55,1.31-1.11,1.94-1.69l0,0A64.3,64.3,0,0,0,122.34,90.3Zm-19,18.06a2.68,2.68,0,0,1-.28-.18q-1.85,1.65-3.82,3.13l.31.16-.76.55c-.81.59-1.64,1.16-2.48,1.71l-1.16.74c-1.1.68-2.22,1.33-3.36,1.94l-.76.38a58.49,58.49,0,0,1-8.12,3.44l-.29.1c-1.46.48-2.94.91-4.43,1.28h0c-1.5.37-3,.68-4.57.93l-.12,0c-1.45.23-2.9.4-4.37.53l-.77.06c-1.45.11-2.9.18-4.36.18s-3-.08-4.41-.19l-.76,0c-1.47-.13-2.94-.31-4.4-.55l-.19,0a59.71,59.71,0,0,1-9.06-2.26l-.27-.09c-1.46-.5-2.91-1.05-4.33-1.66l0,0c-1.35-.58-2.67-1.22-4-1.9l-.51-.26c-1.19-.63-2.35-1.32-3.5-2l-1-.65c-1.06-.69-2.1-1.41-3.12-2.17l-.31-.24.23-.13.07,0q-2-1.48-3.78-3.12l-.27.18a59.35,59.35,0,1,1,79,.23Z"/></svg>