<svg id="Capa_1" data-name="Capa 1" xmlns="http://www.w3.org/2000/svg" viewBox="0 0 114.51 124.55"><defs><style>.cls-1{fill:#17b5c8;}.cls-2{fill:#02809d;}.cls-3{fill:#3a5368;}.cls-4{fill:#5f7993;}.cls-5{fill:#6cab00;}.cls-6{fill:#a6d100;}</style></defs><rect class="cls-1" x="63.34" y="0.61" width="22.68" height="43.4" transform="translate(97 -52.37) rotate(90)"/><path class="cls-2" d="M55.82,34.09S58.94,11,72.32,11H53V33.65Z"/><rect class="cls-1" x="63.34" y="40.36" width="22.68" height="43.4" transform="translate(136.74 -12.63) rotate(90)"/><path class="cls-2" d="M55.82,73.84s3.12-23.12,16.5-23.12H53V73.4Z"/><rect class="cls-1" x="63.34" y="80.54" width="22.68" height="43.4" transform="translate(176.92 27.55) rotate(90)"/><path class="cls-2" d="M55.82,114S58.94,90.9,72.32,90.9H53v22.68Z"/><path class="cls-3" d="M26.94,18.08a8.7,8.7,0,0,1,3.35.66A8.86,8.86,0,1,0,18.74,30.29a8.7,8.7,0,0,1-.66-3.35A8.85,8.85,0,0,1,26.94,18.08Z"/><path class="cls-4" d="M31,22.1a8.76,8.76,0,0,0-.67-3.36,8.7,8.7,0,0,0-3.35-.66,8.85,8.85,0,0,0-8.86,8.86,8.7,8.7,0,0,0,.66,3.35A8.76,8.76,0,0,0,22.1,31,8.86,8.86,0,0,0,31,22.1Z"/><path class="cls-5" d="M26.94,57.73a8.7,8.7,0,0,1,3.35.66A8.86,8.86,0,1,0,18.74,69.94a8.7,8.7,0,0,1-.66-3.35A8.85,8.85,0,0,1,26.94,57.73Z"/><path class="cls-6" d="M31,61.75a8.76,8.76,0,0,0-.67-3.36,8.7,8.7,0,0,0-3.35-.66,8.85,8.85,0,0,0-8.86,8.86,8.7,8.7,0,0,0,.66,3.35,8.76,8.76,0,0,0,3.36.67A8.86,8.86,0,0,0,31,61.75Z"/><path class="cls-3" d="M26.94,97.43a8.71,8.71,0,0,1,3.35.67,8.86,8.86,0,1,0-11.55,11.55,8.71,8.71,0,0,1-.66-3.36A8.86,8.86,0,0,1,26.94,97.43Z"/><path class="cls-4" d="M31,101.46a8.72,8.72,0,0,0-.67-3.36,8.71,8.71,0,0,0-3.35-.67,8.86,8.86,0,0,0-8.86,8.86,8.71,8.71,0,0,0,.66,3.36,8.76,8.76,0,0,0,3.36.67A8.86,8.86,0,0,0,31,101.46Z"/><path d="M98.44,42.19a2,2,0,0,0-2-2h-4a2,2,0,1,0,0,4h4A2,2,0,0,0,98.44,42.19Z"/><path d="M98.44,82.37a2,2,0,0,0-2-2h-4a2,2,0,0,0,0,4h4A2,2,0,0,0,98.44,82.37Z"/><path d="M114.51,118.53V86.38a6,6,0,0,0-1.54-4,6,6,0,0,0,1.54-4V46.21a6,6,0,0,0-1.54-4,6,6,0,0,0,1.54-4V6a6,6,0,0,0-6-6H6A6,6,0,0,0,0,6V38.17a6,6,0,0,0,1.54,4,6,6,0,0,0-1.54,4V78.35a6,6,0,0,0,1.54,4,6,6,0,0,0-1.54,4v32.15a6,6,0,0,0,6,6H108.48A6,6,0,0,0,114.51,118.53ZM6,120.54a2,2,0,0,1-2-2V86.38a2,2,0,0,1,2-2H84.37a2,2,0,0,0,0-4H6a2,2,0,0,1-2-2V46.21a2,2,0,0,1,2-2H84.37a2,2,0,0,0,0-4H6a2,2,0,0,1-2-2V6A2,2,0,0,1,6,4H108.48a2,2,0,0,1,2,2V38.17a2,2,0,0,1-2,2h-4a2,2,0,0,0,0,4h4a2,2,0,0,1,2,2V78.35a2,2,0,0,1-2,2h-4a2,2,0,0,0,0,4h4a2,2,0,0,1,2,2v32.15a2,2,0,0,1-2,2Z"/><path d="M26.05,69.56a2,2,0,0,0-2.44-1.45,5.9,5.9,0,0,1-1.51.19,6,6,0,1,1,6-6,5.91,5.91,0,0,1-.2,1.51,2,2,0,1,0,3.89,1,9.6,9.6,0,0,0,.32-2.51A10,10,0,1,0,24.61,72,2,2,0,0,0,26.05,69.56Z"/><path d="M26.05,29.38a2,2,0,0,0-2.44-1.44,6.37,6.37,0,0,1-1.51.19,6,6,0,1,1,6-6,5.91,5.91,0,0,1-.2,1.51,2,2,0,1,0,3.89,1,9.6,9.6,0,0,0,.32-2.51,10,10,0,1,0-7.53,9.73A2,2,0,0,0,26.05,29.38Z"/><path d="M26.05,109.74a2,2,0,0,0-2.44-1.45,5.9,5.9,0,0,1-1.51.19,6,6,0,1,1,6-6,5.91,5.91,0,0,1-.2,1.51,2,2,0,1,0,3.89,1,9.65,9.65,0,0,0,.32-2.51,10,10,0,1,0-7.53,9.72A2,2,0,0,0,26.05,109.74Z"/><path d="M98.44,72.32V52.23a4,4,0,0,0-4-4H54.24a4,4,0,0,0-4,4V72.32a4,4,0,0,0,4,4H94.42A4,4,0,0,0,98.44,72.32Zm-44.2,0V52.23H94.42V72.32Z"/><path d="M84.38,58.26v8a2,2,0,1,0,4,0v-8a2,2,0,1,0-4,0Z"/><path d="M76.34,58.26v8a2,2,0,0,0,4,0v-8a2,2,0,0,0-4,0Z"/><path d="M68.3,58.26v8a2,2,0,1,0,4,0v-8a2,2,0,1,0-4,0Z"/><path d="M60.27,58.26v8a2,2,0,1,0,4,0v-8a2,2,0,0,0-4,0Z"/><path d="M98.44,32.14V12.05a4,4,0,0,0-4-4H54.24a4,4,0,0,0-4,4V32.14a4,4,0,0,0,4,4H94.42A4,4,0,0,0,98.44,32.14Zm-44.2,0V12.05H94.42V32.14Z"/><path d="M84.38,18.08v8a2,2,0,1,0,4,0v-8a2,2,0,1,0-4,0Z"/><path d="M76.34,18.08v8a2,2,0,0,0,4,0v-8a2,2,0,0,0-4,0Z"/><path d="M68.3,18.08v8a2,2,0,1,0,4,0v-8a2,2,0,1,0-4,0Z"/><path d="M98.44,112.5V92.41a4,4,0,0,0-4-4H54.24a4,4,0,0,0-4,4V112.5a4,4,0,0,0,4,4H94.42A4,4,0,0,0,98.44,112.5Zm-44.2,0V92.41H94.42V112.5Z"/><path d="M84.38,98.44v8a2,2,0,1,0,4,0v-8a2,2,0,1,0-4,0Z"/><path d="M76.34,98.44v8a2,2,0,0,0,4,0v-8a2,2,0,0,0-4,0Z"/></svg>