<svg id="Capa_1" data-name="Capa 1" xmlns="http://www.w3.org/2000/svg" viewBox="0 0 127.91 127.91"><defs><style>.cls-1{fill:#02809d;}.cls-2{fill:#17b5c8;}.cls-3{fill:#5f7993;}.cls-4{fill:#a6d100;}</style></defs><path class="cls-1" d="M22.51,76.46A17.05,17.05,0,0,0,11,81a16,16,0,1,1,10.93,29.67c.2,0,.4,0,.6,0a17.1,17.1,0,0,0,0-34.2Z"/><path class="cls-2" d="M34.79,94.93A16,16,0,0,0,11,81a17.07,17.07,0,0,0,10.93,29.67A16,16,0,0,0,34.79,94.93Z"/><polygon class="cls-3" points="39.05 3.6 34.38 7.3 35.04 21.61 39.05 24.44 43.74 19.83 43.74 5 39.05 3.6"/><polygon class="cls-3" points="96.01 3.6 91.33 7.3 91.99 21.61 96.01 24.44 100.7 19.83 100.7 5 96.01 3.6"/><circle class="cls-4" cx="33.2" cy="59.82" r="6.04"/><circle class="cls-4" cx="56.52" cy="59.82" r="6.04"/><circle class="cls-4" cx="79.84" cy="59.82" r="6.04"/><circle class="cls-4" cx="103.15" cy="59.82" r="6.04"/><circle class="cls-4" cx="103.15" cy="85.44" r="6.04"/><circle class="cls-4" cx="56.52" cy="85.44" r="6.04"/><circle class="cls-4" cx="79.84" cy="85.44" r="6.04"/><path d="M115.42,11H103.51V7.49a7.5,7.5,0,0,0-15,0V11h-42V7.49a7.5,7.5,0,0,0-15,0v3.59a2.85,2.85,0,0,0-.67-.09H20.94A12.51,12.51,0,0,0,8.45,23.48V66a2.5,2.5,0,0,0,5,0V36.72h90.06a2.5,2.5,0,1,0,0-5H13.45V23.48A7.5,7.5,0,0,1,20.94,16h10a2.85,2.85,0,0,0,.67-.09v3.21a7.5,7.5,0,1,0,15,0V16h42v3.12a7.5,7.5,0,1,0,15,0V16h11.91a7.5,7.5,0,0,1,7.49,7.49v94.93a4.5,4.5,0,1,1-9,0V112a2.5,2.5,0,0,0-2.5-2.5H82.36a2.5,2.5,0,0,0,0,5h26.56v4a9.47,9.47,0,0,0,1.13,4.5H9.49A4.5,4.5,0,0,1,5,118.42v-4H60.91a2.5,2.5,0,1,0,0-5H36a20.49,20.49,0,1,0-26.69,0H2.5A2.5,2.5,0,0,0,0,112v6.47a9.5,9.5,0,0,0,9.49,9.49H118.41a9.51,9.51,0,0,0,9.5-9.5V23.48A12.51,12.51,0,0,0,115.42,11ZM41.55,19.11a2.5,2.5,0,1,1-5,0V7.49a2.5,2.5,0,0,1,5,0Zm57,0a2.5,2.5,0,1,1-5,0V7.49a2.5,2.5,0,0,1,5,0ZM7.11,93.93A15.49,15.49,0,1,1,22.6,109.42,15.51,15.51,0,0,1,7.11,93.93Z"/><path d="M117,32.46a2.5,2.5,0,0,0-3.53,0,2.5,2.5,0,0,0,1.77,4.26A2.49,2.49,0,0,0,117,32.46Z"/><path d="M74.61,110.18a2.5,2.5,0,0,0-3.53,0,2.5,2.5,0,0,0,1.76,4.27,2.5,2.5,0,0,0,1.77-4.27Z"/><path d="M56.52,76A9.49,9.49,0,1,0,66,85.44,9.5,9.5,0,0,0,56.52,76Zm0,14a4.5,4.5,0,1,1,4.5-4.5A4.51,4.51,0,0,1,56.52,89.94Z"/><path d="M79.84,76a9.49,9.49,0,1,0,9.49,9.49A9.5,9.5,0,0,0,79.84,76Zm0,14a4.5,4.5,0,1,1,4.49-4.5A4.51,4.51,0,0,1,79.84,89.94Z"/><path d="M103.15,76a9.49,9.49,0,1,0,9.5,9.49A9.5,9.5,0,0,0,103.15,76Zm0,14a4.5,4.5,0,1,1,4.5-4.5A4.5,4.5,0,0,1,103.15,89.94Z"/><path d="M33.2,50a9.5,9.5,0,1,0,9.5,9.5A9.51,9.51,0,0,0,33.2,50Zm0,14a4.5,4.5,0,1,1,4.5-4.49A4.49,4.49,0,0,1,33.2,64Z"/><path d="M79.84,50a9.5,9.5,0,1,0,9.49,9.5A9.51,9.51,0,0,0,79.84,50Zm0,14a4.5,4.5,0,1,1,4.49-4.49A4.5,4.5,0,0,1,79.84,64Z"/><path d="M103.15,50a9.5,9.5,0,1,0,9.5,9.5A9.51,9.51,0,0,0,103.15,50Zm0,14a4.5,4.5,0,1,1,4.5-4.49A4.49,4.49,0,0,1,103.15,64Z"/><path d="M56.52,50A9.5,9.5,0,1,0,66,59.46,9.51,9.51,0,0,0,56.52,50Zm0,14A4.5,4.5,0,1,1,61,59.46,4.5,4.5,0,0,1,56.52,64Z"/><path d="M31.5,87.84a2.5,2.5,0,0,0-3.53,0L19.83,96,17.05,93.2a2.5,2.5,0,0,0-3.53,3.53l4.55,4.55a2.5,2.5,0,0,0,3.53,0l9.9-9.9A2.5,2.5,0,0,0,31.5,87.84Z"/></svg>