<svg id="Capa_1" data-name="Capa 1" xmlns="http://www.w3.org/2000/svg" viewBox="0 0 119.53 123.46"><defs><style>.cls-1{fill:#a6d100;}.cls-2{fill:#6cab00;}.cls-3{fill:#1d1d1b;}</style></defs><path class="cls-1" d="M105.51,32.11h2.25L91.48,3.68,88.54,8.82A66.74,66.74,0,0,1,105.51,32.11Z"/><path class="cls-2" d="M110.09,70a66.66,66.66,0,0,1-33.93,47.36L88,114.66l20.63-19.49,9-25.22Z"/><path class="cls-1" d="M110.09,70h-4.17l-2.52,7.79-11.69,19L67.17,108.93l-20.41-1.15L28.19,95.86,15.35,77.06v-14C19.71,0,79.1,23.1,79.1,23.1l-4.82,9h31.23a66.74,66.74,0,0,0-17-23.29l-1.65,2.89S75.53,6,66,6.53,53.27,5,31.25,13.69s-28,35.62-28,35.62V83l15.92,20.68,21.22,14.21c.69.46,22,2.52,22,2.52l13.8-3.08A66.66,66.66,0,0,0,110.09,70Z"/><path class="cls-3" d="M17.41,22.39h0A2.41,2.41,0,1,0,20.82,19a2.44,2.44,0,0,0-.4-.32A2.4,2.4,0,0,0,17,21.88,2.05,2.05,0,0,0,17.41,22.39Z"/><path class="cls-3" d="M119.15,71c.17-1.38.31-2.78.38-4.19H103.08A43.39,43.39,0,1,1,59.76,20.25h0a43.8,43.8,0,0,1,16.38,3.2l-4.71,8.16a2.41,2.41,0,0,0,2.09,3.62h35.11a2.41,2.41,0,0,0,2.09-3.62L93.17,1.21A2.42,2.42,0,0,0,91.08,0,2.4,2.4,0,0,0,89,1.21L84.4,9.15A60.16,60.16,0,0,0,59.76,3.84c-1,0-1.94,0-2.91.08l-.43,0q-1.37.08-2.7.21h-.11A59.19,59.19,0,0,0,25.15,14.84a2.46,2.46,0,0,0-.41.38A2.4,2.4,0,0,0,27.47,19a2.23,2.23,0,0,0,.48-.26A54.59,54.59,0,0,1,59.76,8.67,55.28,55.28,0,0,1,84.3,14.44a2.42,2.42,0,0,0,3.17-.95l3.61-6.25,13.37,23.17H77.7l4-6.87a2.43,2.43,0,0,0-1-3.39,48.7,48.7,0,0,0-20.86-4.73h0a48.23,48.23,0,1,0,47.68,55.71h7a55.09,55.09,0,0,1-93.09,31.94q-1.72-1.69-3.3-3.52l0,0A54.68,54.68,0,0,1,5.34,72.11s0-.08,0-.11c-.13-.85-.24-1.7-.32-2.56l0-.22c-.09-.86-.15-1.72-.2-2.59,0-.06,0-.12,0-.18,0-.91-.07-1.83-.07-2.76,0-.1,0-.21,0-.31,0-.72,0-1.44,0-2.15,0-.37,0-.75.07-1.12s.06-.88.1-1.32S5,58,5,57.52s.09-.73.14-1.09c.12-.91.26-1.8.42-2.7l.12-.7.33-1.55.18-.75c.13-.53.26-1.06.4-1.58l.15-.53c.22-.75.45-1.5.69-2.23a54.23,54.23,0,0,1,7.38-14.55,3,3,0,0,0,.18-.3,2.4,2.4,0,0,0-3.65-3A59.8,59.8,0,1,0,119.13,71.14h0Z"/></svg>