<svg id="Capa_1" data-name="Capa 1" xmlns="http://www.w3.org/2000/svg" viewBox="0 0 124.13 118.73"><defs><style>.cls-1{fill:#a6d100;}.cls-2{fill:#6cab00;}.cls-3{fill:#5f7993;}.cls-4{fill:#3a5368;}.cls-5{fill:#17b5c8;}.cls-6{fill:#02809d;}</style></defs><polygon class="cls-1" points="62.06 95.89 63.35 116.41 123.26 90.69 121.34 71.27 62.06 95.89"/><path class="cls-2" d="M123.26,88.92l-10,4.92a19.56,19.56,0,0,0,3.28-13.68,18.56,18.56,0,0,0-3.28-8L122,68.4Z"/><polygon class="cls-3" points="3.17 71.27 3.17 90.42 62.06 116.41 62.06 95.89 3.17 71.27"/><path class="cls-4" d="M10.55,74.28a15.24,15.24,0,0,0,0,19.56l-9-4.51L1,72.1Z"/><polygon class="cls-5" points="49.73 38.63 75.5 38.63 62.28 60.6 49.73 38.63"/><path class="cls-6" d="M52,41.12s18.65-.67,15.25,10.2l6.17-11.08L71,37.14,50.45,38.63Z"/><path d="M62.07,62.09A4.65,4.65,0,0,1,58,59.74L48.43,43.17a4.7,4.7,0,0,1,4.07-7H71.64a4.7,4.7,0,0,1,4.06,7L66.13,59.74A4.63,4.63,0,0,1,62.07,62.09ZM52.5,39.82a1,1,0,0,0-.87.5,1,1,0,0,0,0,1L61.2,57.89a1,1,0,0,0,1.73,0L72.5,41.32a1,1,0,0,0,0-1,1,1,0,0,0-.86-.5Z"/><path d="M62.07,37.22a2.16,2.16,0,0,1-2.16-2.16V2.16a2.16,2.16,0,0,1,4.32,0v32.9A2.16,2.16,0,0,1,62.07,37.22Z"/><path d="M62.07,97.85a2,2,0,0,1-.81-.17l-60-26.1a2,2,0,0,1,0-3.74L35.15,53.07A2,2,0,0,1,36,52.9a2,2,0,0,1,1.87,1.23,2,2,0,0,1,0,1.56,2,2,0,0,1-1.09,1.13L7.16,69.71,62.07,93.58,117,69.71,87.35,56.81a2,2,0,0,1,.81-3.92,2.15,2.15,0,0,1,.82.17L122.9,67.84a2,2,0,0,1,0,3.74l-60,26.09A1.91,1.91,0,0,1,62.07,97.85Z"/><path d="M62.07,118.73a2,2,0,0,1-.81-.17l-60-26.1A2,2,0,0,1,0,90.59V69.71a2,2,0,0,1,4.08,0V89.25l58,25.21,58-25.21V69.71a2,2,0,0,1,4.08,0V90.59a2,2,0,0,1-1.22,1.87l-60,26.1A2,2,0,0,1,62.07,118.73Z"/><path d="M62.07,118.73a2,2,0,0,1-2-2V95.81a2,2,0,1,1,4.08,0v20.88A2,2,0,0,1,62.07,118.73Z"/></svg>