<svg id="Capa_1" data-name="Capa 1" xmlns="http://www.w3.org/2000/svg" viewBox="0 0 125.93 80.19"><defs><style>.cls-1{fill:#5f7993;}.cls-2{fill:#3a5368;}.cls-3{fill:none;}.cls-4{fill:#a6d100;}.cls-5{fill:#6cab00;}.cls-6{fill:#17b5c8;}.cls-7{fill:#02809d;}</style></defs><path class="cls-1" d="M9.58,58H117.25L124,68.06l-2,7.35-6.87,2.5H9.11S3.34,73,3.25,72.62s-1.49-8.57-1.49-8.57Z"/><path class="cls-2" d="M8.1,68a8.75,8.75,0,0,1,6.59-8.47,9,9,0,0,0-2.16-.28,8.75,8.75,0,0,0,0,17.5,9,9,0,0,0,2.16-.27A8.75,8.75,0,0,1,8.1,68Z"/><path class="cls-2" d="M117.48,68a8.76,8.76,0,0,1-6.6,8.48,9,9,0,0,0,2.16.27,8.75,8.75,0,0,0,0-17.5,9,9,0,0,0-2.16.28A8.76,8.76,0,0,1,117.48,68Z"/><path class="cls-3" d="M28.24,60.14H12a8.05,8.05,0,0,0,0,16.1H113.93a8,8,0,0,0,0-16.1H97.69a1.34,1.34,0,0,1-.35,0H28.6A1.47,1.47,0,0,1,28.24,60.14Z"/><path d="M103.17,80.15H24.59L12,80.19a12,12,0,0,1,0-24H113.93a12,12,0,0,1,0,24Zm10.76-4.48a7.48,7.48,0,0,0,0-15H97.69a3,3,0,0,1-.41,0H28.65a2.85,2.85,0,0,1-.41,0H12a7.48,7.48,0,0,0,0,15H113.93Z"/><path class="cls-4" d="M9.58,29.91H117.25L124,40l-2,7.35-6.87,2.49H9.11S3.34,44.9,3.25,44.53,1.76,36,1.76,36Z"/><path class="cls-5" d="M8.1,39.86a8.74,8.74,0,0,1,6.59-8.47,9,9,0,0,0-2.16-.28,8.75,8.75,0,0,0,0,17.5,8.53,8.53,0,0,0,2.16-.28A8.73,8.73,0,0,1,8.1,39.86Z"/><path class="cls-5" d="M117.48,39.86a8.74,8.74,0,0,1-6.6,8.47,8.53,8.53,0,0,0,2.16.28,8.75,8.75,0,0,0,0-17.5,9,9,0,0,0-2.16.28A8.75,8.75,0,0,1,117.48,39.86Z"/><path class="cls-3" d="M28.24,32.05H12a8.05,8.05,0,0,0,0,16.1H113.93a8.05,8.05,0,0,0,0-16.1H97.69a2,2,0,0,1-.35,0H28.6A2.2,2.2,0,0,1,28.24,32.05Z"/><path d="M103.17,52.06H24.59L12,52.1a12,12,0,0,1,0-24H113.93a12,12,0,0,1,0,24Zm10.76-4.48a7.48,7.48,0,0,0,0-15H97.69a3,3,0,0,1-.41,0H28.65a2.85,2.85,0,0,1-.41,0H12a7.48,7.48,0,0,0,0,15H113.93Z"/><path class="cls-6" d="M9.58,1.82H117.25l6.75,10-2,7.36-6.87,2.49H9.11s-5.77-4.91-5.86-5.29S1.76,7.87,1.76,7.87Z"/><path class="cls-7" d="M8.1,11.77A8.73,8.73,0,0,1,14.69,3.3,8.53,8.53,0,0,0,12.53,3a8.75,8.75,0,0,0,0,17.5,8.53,8.53,0,0,0,2.16-.28A8.73,8.73,0,0,1,8.1,11.77Z"/><path class="cls-7" d="M117.48,11.77a8.74,8.74,0,0,1-6.6,8.47,8.53,8.53,0,0,0,2.16.28A8.75,8.75,0,0,0,113,3a8.53,8.53,0,0,0-2.16.28A8.74,8.74,0,0,1,117.48,11.77Z"/><path class="cls-3" d="M28.24,4H12a8,8,0,0,0,0,16.09H113.93a8,8,0,1,0,0-16.09H97.69a2,2,0,0,1-.35,0H28.6A2.2,2.2,0,0,1,28.24,4Z"/><path d="M103.17,24H24.59L12,24A12,12,0,0,1,12,0H113.93a12,12,0,0,1,0,24Zm10.76-4.47a7.49,7.49,0,0,0,0-15H97.69l-.41,0H28.65a2.83,2.83,0,0,1-.41,0H12a7.49,7.49,0,0,0,0,15H113.93Z"/></svg>