<svg id="Capa_1" data-name="Capa 1" xmlns="http://www.w3.org/2000/svg" viewBox="0 0 104.32 125.19"><defs><style>.cls-1{fill:#17b5c8;}.cls-2{fill:#02809d;}.cls-3{fill:#5f7993;}.cls-4{fill:#3a5368;}.cls-5{fill:#a6d100;}.cls-6{fill:#6cab00;}</style></defs><polygon class="cls-1" points="81.57 2.68 81.57 17.61 85.52 22.84 101.64 22.84 101.64 101.62 95.34 106.99 85.52 106.99 85.52 39.96 64.11 18.79 18.73 18.23 20.86 6.21 25.94 1.26 81.57 2.68"/><path class="cls-2" d="M95.36,23.82l1,72.37a5,5,0,0,1-5,5H85.52V107l11.68-1.58,4.44-3.79,1-77.8Z"/><polygon class="cls-3" points="81.57 3.47 101.64 22.84 86.63 22.84 80.51 15.69 81.57 3.47"/><path class="cls-4" d="M81.57,3.47S81,21.62,101.64,22.84h-15l-5.06-5.23Z"/><polygon class="cls-5" points="64.45 20.59 84.52 39.96 69.51 39.96 63.39 32.8 64.45 20.59"/><path class="cls-6" d="M65.45,20.59S64.93,38.74,85.52,40h-15l-5.06-5.24Z"/><path d="M81.37,0H27.12A10.45,10.45,0,0,0,16.69,10.43v6.26H10.43A10.45,10.45,0,0,0,0,27.12v87.64a10.45,10.45,0,0,0,10.43,10.43H77.2a10.45,10.45,0,0,0,10.43-10.43V108.5h6.26a10.45,10.45,0,0,0,10.43-10.44V23a2.08,2.08,0,0,0-.61-1.47L82.85.61A2.09,2.09,0,0,0,81.37,0Zm2.09,114.76A6.27,6.27,0,0,1,77.2,121H10.43a6.27,6.27,0,0,1-6.26-6.25V27.12a6.28,6.28,0,0,1,6.26-6.26H62.59V31.3A10.45,10.45,0,0,0,73,41.73H83.46ZM66.77,31.3V23.82L80.51,37.56H73A6.27,6.27,0,0,1,66.77,31.3Zm33.38,66.76a6.26,6.26,0,0,1-6.26,6.26H87.63V39.64A2.08,2.08,0,0,0,87,38.17L66.16,17.3a2.12,2.12,0,0,0-1.48-.61H20.86V10.43a6.28,6.28,0,0,1,6.26-6.26H79.29V14.61A10.44,10.44,0,0,0,89.72,25h10.43ZM83.46,7.12,97.2,20.86H89.72a6.25,6.25,0,0,1-6.26-6.25Z"/><path d="M35.47,50.08a2.09,2.09,0,1,0,0,4.17H73a2.09,2.09,0,0,0,0-4.17Z"/><path d="M14.61,66.77H48a2.09,2.09,0,0,0,0-4.18H14.61a2.09,2.09,0,0,0,0,4.18Z"/><path d="M73,75.11H48a2.09,2.09,0,1,0,0,4.18H73a2.09,2.09,0,0,0,0-4.18Z"/><path d="M14.61,91.8H52.16a2.09,2.09,0,1,0,0-4.17H14.61a2.09,2.09,0,1,0,0,4.17Z"/><path d="M14.61,54.25H27.12a2.09,2.09,0,1,0,0-4.17H14.61a2.09,2.09,0,1,0,0,4.17Z"/><path d="M73,62.59H56.33a2.09,2.09,0,0,0,0,4.18H73a2.09,2.09,0,0,0,0-4.18Z"/><path d="M14.61,79.29h25a2.09,2.09,0,0,0,0-4.18h-25a2.09,2.09,0,1,0,0,4.18Z"/><path d="M73,87.63H60.51a2.09,2.09,0,1,0,0,4.17H73a2.09,2.09,0,0,0,0-4.17Z"/><path d="M27.12,100.15H14.61a2.09,2.09,0,1,0,0,4.17H27.12a2.09,2.09,0,1,0,0-4.17Z"/><path d="M14.61,41.73h25a2.09,2.09,0,1,0,0-4.17h-25a2.09,2.09,0,1,0,0,4.17Z"/><path d="M56.33,100.15H35.47a2.09,2.09,0,1,0,0,4.17H56.33a2.09,2.09,0,1,0,0-4.17Z"/><path d="M73,100.15H64.68a2.09,2.09,0,1,0,0,4.17H73a2.09,2.09,0,0,0,0-4.17Z"/></svg>