<svg id="Capa_1" data-name="Capa 1" xmlns="http://www.w3.org/2000/svg" viewBox="0 0 116.66 116.67"><defs><style>.cls-1{fill:#5f7993;}.cls-2{fill:#3a5368;}.cls-3{fill:#17b5c8;}.cls-4{fill:#a6d100;}.cls-5{fill:#02809d;}.cls-6{fill:#6cab00;}</style></defs><path class="cls-1" d="M87,9.7s5.75-12.13,16.28-3.94l11.78,12.78v4.79L108.39,30Z"/><polygon class="cls-2" points="91.16 5.42 112.05 26.32 108.39 29.99 87.02 8.62 91.16 5.42"/><path class="cls-3" d="M71.3,23.33,7.2,86.52l3.87,8.75L18,98.64,77.7,38.91A38.18,38.18,0,0,0,71.3,23.33Z"/><polygon class="cls-3" points="89.31 27.3 89.39 27.21 78.45 16.28 71.35 23.28 78.37 16.36 89.31 27.3"/><path class="cls-4" d="M89.39,27.21l-.08.09L99.82,37.81,74.16,63.47A40,40,0,0,0,77.7,38.91L18,98.64l2.73,7.57,8.47,4.12,71.67-71.68Z"/><polygon class="cls-3" points="71.3 23.33 71.3 23.33 71.35 23.28 71.3 23.33"/><path class="cls-5" d="M89.31,27.3,78.37,16.36l-7,6.92,0,0a38.18,38.18,0,0,1,6.4,15.58Z"/><path class="cls-6" d="M74.16,63.47,99.82,37.81,89.31,27.3,77.7,38.91A40,40,0,0,1,74.16,63.47Z"/><path d="M3.32,116.67a3.33,3.33,0,0,1-3.26-4L4.79,88a3.06,3.06,0,0,1,.71-1.73l10-10a2.26,2.26,0,0,1,3.2,3.2L9.83,88.31l2.32,5.18a.33.33,0,0,0,.17.16L17.49,96,86.41,27.06l-7.66-7.67L24.27,73.87a2.23,2.23,0,0,1-1.6.66,2.21,2.21,0,0,1-1.59-.66,2.27,2.27,0,0,1,0-3.19L88.89,2.86a9.78,9.78,0,0,1,13.82,0L106,6.14a2.26,2.26,0,0,1-3.2,3.19L99.52,6.06a5.26,5.26,0,0,0-7.44,0L89.4,8.74l18.52,18.52,2.69-2.68a5.27,5.27,0,0,0,0-7.44l-2.24-2.23a2.26,2.26,0,1,1,3.19-3.2L113.8,14a9.78,9.78,0,0,1,0,13.82c-83.39,83.4-83.4,83.41-83.42,83.42a2.36,2.36,0,0,1-1.1.56L4,116.6A2.65,2.65,0,0,1,3.32,116.67Zm1.51-4.83,4.74-.91L5.74,107.1Zm10.1-1.94,6.46-1.24-.07,0a4.87,4.87,0,0,1-2.43-2.43l-2.61-5.82-5.81-2.61A4.82,4.82,0,0,1,8,95.34l0-.07-1.24,6.47ZM23,104.34a.29.29,0,0,0,.17.17l5.17,2.32L97.27,37.91l-7.66-7.66L20.69,99.17Zm77.45-69.62,4.27-4.26L86.21,11.94,81.94,16.2Z"/></svg>