<svg id="Capa_1" data-name="Capa 1" xmlns="http://www.w3.org/2000/svg" viewBox="0 0 235.86 125.67"><defs><style>.cls-1{fill:#1d1d1b;}.cls-2{fill:#17b5c8;}.cls-3{fill:#02809d;}.cls-4{fill:#a6d100;}.cls-5{fill:#6cab00;}.cls-6{fill:#5f7993;}.cls-7{fill:#3a5368;}</style></defs><rect class="cls-1" x="118.02" y="93.21" width="72.97" height="2.87"/><path class="cls-2" d="M118,99.61V90.36l-6-2.23-1.27-4.32L113,79.34l-7.79-7.07-3.73,2.89-4-1.87-1.93-5.43H86l-1.19,5.43L80,75.16l-4.18-2.89-4.47,2.89-2.68,4.92,2.38,4.62-.74,4-1.79,1-4.62.59-.75,8,4.77,1,2.54,5.1-2.54,4.88L75,117.75l5-4L84.33,116l2.53,6h8l2-6.11,3.62-1.79,6.15,2.69,6.3-7.16-3.47-5,2.46-4.21Zm-27.4,6.3a11.28,11.28,0,1,1,11.27-11.28A11.28,11.28,0,0,1,90.62,105.91Z"/><path class="cls-3" d="M82.83,114.12s15.79,3.43,22.76-9.63c9.53-17.89-6.23-28.84-6.23-28.84l6.86-3.38L113,79.34l-2.9,6.29,3.58,3.58,3.46.85.27,9.88L112,101l-1.89,4.33,2.9,4.28-5.88,7.79s-5.3-2.76-5.94-3-4.25,1.51-4.25,1.51l-1.4,5.41L88,122.45l-3.13-3.28Z"/><polygon class="cls-4" points="146.55 68.5 162.71 68.98 154.04 89.02 168.29 89.79 142.86 121.67 150.28 97.4 136.89 95.96 146.55 68.5"/><polygon class="cls-5" points="161.26 72.55 148.83 72.55 141.61 93.55 155.87 93.37 147.58 116.18 144.4 119.55 150.84 96.05 136.89 95.96 146.55 68.5 162.42 67.92 161.26 72.55"/><path d="M169.72,88.73a1.29,1.29,0,0,0-1.14-.71h-13.3l7.93-16.45a1.74,1.74,0,0,0,.11-.18l1.26-2.6a1.28,1.28,0,0,0-.07-1.23,1.27,1.27,0,0,0-1.08-.59H146.15a1.28,1.28,0,0,0-1.21.87l-9.3,28.07a1.25,1.25,0,0,0,.18,1.14,1.27,1.27,0,0,0,1,.53H149l-8.08,25.72a1.28,1.28,0,0,0,.63,1.51,1.18,1.18,0,0,0,.58.14,1.27,1.27,0,0,0,1-.49l26.44-34.39A1.3,1.3,0,0,0,169.72,88.73Zm-24.22,28.5L152,96.69a1.27,1.27,0,0,0-.19-1.13,1.25,1.25,0,0,0-1-.52H138.61l8.46-25.53h14.32l0,.06-9.24,19.17a1.28,1.28,0,0,0,.07,1.23,1.26,1.26,0,0,0,1.07.59H166Z"/><path d="M87.72,123.48a4.24,4.24,0,0,1-4.23-4.23v-1.59a1.53,1.53,0,0,0-1-1.45c-.49-.2-.94-.39-1.36-.58a1.58,1.58,0,0,0-.65-.14,1.54,1.54,0,0,0-1.09.45l-1.14,1.14a4.25,4.25,0,0,1-6,0L68.16,113a4.27,4.27,0,0,1,0-6l1.14-1.14a1.54,1.54,0,0,0,.31-1.74c-.2-.44-.39-.9-.57-1.36a1.55,1.55,0,0,0-1.44-1H66a4.24,4.24,0,0,1-4.23-4.23V91.74A4.24,4.24,0,0,1,66,87.51h1.6a1.53,1.53,0,0,0,1.45-1c.18-.47.37-.91.57-1.35a1.56,1.56,0,0,0-.31-1.75l-1.13-1.13a4.25,4.25,0,0,1,0-6l4.09-4.11a4.22,4.22,0,0,1,6,0l1.14,1.13a1.55,1.55,0,0,0,1.1.46,1.43,1.43,0,0,0,.64-.15c.44-.2.89-.38,1.36-.56a1.57,1.57,0,0,0,1-1.45V70a4.23,4.23,0,0,1,4.23-4.23h5.79A4.23,4.23,0,0,1,97.74,70v1.59a1.54,1.54,0,0,0,1,1.45c.45.18.91.37,1.35.57a1.52,1.52,0,0,0,1.75-.31L103,72.2a4.25,4.25,0,0,1,6,0l4.09,4.09a4.26,4.26,0,0,1,0,6l-1.14,1.13a1.56,1.56,0,0,0-.31,1.75c.2.45.39.89.57,1.35a1.53,1.53,0,0,0,1.44,1h1.6a4.24,4.24,0,0,1,4.23,4.23v5.79a4.24,4.24,0,0,1-4.23,4.23h-1.6a1.55,1.55,0,0,0-1.45,1c-.18.46-.37.91-.57,1.36a1.55,1.55,0,0,0,.31,1.74l1.13,1.13a4.25,4.25,0,0,1,0,6L109,117.08a4.22,4.22,0,0,1-6,0L101.85,116a1.54,1.54,0,0,0-1.1-.45,1.57,1.57,0,0,0-.64.14c-.44.2-.9.39-1.36.57a1.55,1.55,0,0,0-1,1.45v1.59a4.24,4.24,0,0,1-4.23,4.23Zm-7.24-10.65a4.28,4.28,0,0,1,1.75.38c.4.18.8.35,1.2.5a4.27,4.27,0,0,1,2.73,4v1.59a1.56,1.56,0,0,0,1.56,1.56h5.79a1.56,1.56,0,0,0,1.56-1.56v-1.59a4.27,4.27,0,0,1,2.73-4c.39-.15.8-.32,1.2-.5a4.22,4.22,0,0,1,4.73.85l1.13,1.13a1.55,1.55,0,0,0,1.11.46,1.51,1.51,0,0,0,1.1-.46l4.09-4.09a1.56,1.56,0,0,0,0-2.21L110,107.76a4.28,4.28,0,0,1-.84-4.73c.18-.41.35-.81.5-1.21a4.26,4.26,0,0,1,4-2.72h1.59a1.57,1.57,0,0,0,1.56-1.57V91.74a1.56,1.56,0,0,0-1.56-1.56h-1.6a4.27,4.27,0,0,1-3.94-2.72c-.15-.41-.32-.81-.5-1.21a4.26,4.26,0,0,1,.85-4.73l1.13-1.13a1.59,1.59,0,0,0,.46-1.11,1.57,1.57,0,0,0-.46-1.1l-4.09-4.09a1.56,1.56,0,0,0-2.21,0l-1.14,1.13a4.18,4.18,0,0,1-3,1.22A4.23,4.23,0,0,1,99,76.07q-.59-.27-1.2-.51a4.27,4.27,0,0,1-2.73-3.94V70a1.56,1.56,0,0,0-1.56-1.57H87.72A1.56,1.56,0,0,0,86.16,70v1.59a4.27,4.27,0,0,1-2.73,3.94c-.41.16-.81.32-1.2.5a4.28,4.28,0,0,1-1.75.38,4.22,4.22,0,0,1-3-1.22l-1.13-1.14a1.56,1.56,0,0,0-1.1-.45,1.58,1.58,0,0,0-1.11.45l-4.09,4.1a1.51,1.51,0,0,0-.46,1.1,1.55,1.55,0,0,0,.46,1.11l1.14,1.13A4.27,4.27,0,0,1,72,86.25c-.17.39-.34.8-.5,1.2a4.26,4.26,0,0,1-3.94,2.73H66a1.56,1.56,0,0,0-1.56,1.56v5.79A1.57,1.57,0,0,0,66,99.1h1.6a4.26,4.26,0,0,1,3.94,2.72c.15.41.32.81.5,1.21a4.26,4.26,0,0,1-.85,4.73l-1.13,1.13a1.56,1.56,0,0,0,0,2.21l4.09,4.09a1.59,1.59,0,0,0,1.11.46,1.57,1.57,0,0,0,1.1-.46l1.14-1.13A4.21,4.21,0,0,1,80.48,112.83Z"/><path d="M90.64,107.56l-.39,0-.27,0H89.8a7.72,7.72,0,0,1-.83-.06,12.81,12.81,0,0,1-1.5-.29H87.4a12.93,12.93,0,0,1,0-25,13.52,13.52,0,0,1,1.39-.25l.49-.06.92-.06h.17l.27,0a12.92,12.92,0,0,1,7.69,2.56l.24.18c.18.14.35.28.53.44l.43.39,0,0c.12.11.21.19.3.29s.41.44.61.67l.13.15a12.53,12.53,0,0,1,1.29,1.88l0,.06a14.44,14.44,0,0,1,.66,1.39c.07.2.14.39.22.59s.19.58.27.88l0,.11.15.59c.06.31.12.65.17,1.08a10.28,10.28,0,0,1,.08,1v.2c0,.13,0,.26,0,.39s0,.22,0,.24c0,.26,0,.52,0,.77s-.06.56-.1.84a15.3,15.3,0,0,1-2.17,5.91,4.14,4.14,0,0,1-.75.92A16.67,16.67,0,0,1,96.8,106l-.08,0a6.39,6.39,0,0,1-.65.31l-.18.09-.4.18-.61.22-.09,0-.5.17c-.26.08-.51.14-.76.2l-.14,0-.28.06c-.34.07-.69.12-1.06.16l-.13,0A12.28,12.28,0,0,1,90.64,107.56Zm0-23.17a10.64,10.64,0,0,0-2.57.32,10.26,10.26,0,0,0,0,19.86c.4.09.8.17,1.2.22l.17,0c.35,0,.7.06,1,.07h.31l.71,0,.54-.06.16,0a10.76,10.76,0,0,0,2.71-.81l.12-.06q.27-.12.54-.27a10.22,10.22,0,0,0,5.15-7.17c.06-.38.1-.73.13-1.07v-.09c0-.11,0-.19,0-.27,0-.32,0-.66,0-1h0s0-.27,0-.33a12,12,0,0,0-.19-1.2,1.6,1.6,0,0,1,0-.21l-.06-.21a8.36,8.36,0,0,0-.25-.81l0-.13-.12-.31a9.4,9.4,0,0,0-.5-1.07l-.22-.37c-.13-.22-.28-.44-.43-.65l-.31-.42c-.16-.2-.32-.38-.49-.57l-.11-.12-.19-.21a9.43,9.43,0,0,0-.83-.73,3.15,3.15,0,0,0-.29-.22,8.81,8.81,0,0,0-.73-.5l-.34-.21a10.43,10.43,0,0,0-2.23-.94l-.3-.07a9.19,9.19,0,0,0-.94-.2h0l-.33,0a10.36,10.36,0,0,0-1.25-.08Z"/><ellipse class="cls-6" cx="212.62" cy="70.83" rx="21.81" ry="5.01"/><ellipse class="cls-7" cx="212.52" cy="73.14" rx="15.93" ry="3.24"/><path class="cls-6" d="M191.17,71.74l-.36,45.11s.59,2.81,1.76,3.65a10,10,0,0,0,5.26,1.89H229s5.43-1.5,5.41-5.54,0-44.83,0-44.83-5.08,4.48-19.76,3.82S193.63,75.15,191.17,71.74Z"/><path class="cls-7" d="M219.71,75.84s9.26,1.75,9.86,9.39,0,28.18,0,28.18-1.6,7-11.67,8.55l8.25.43s6.29,1.52,8.28-5.54,0-44.83,0-44.83A33,33,0,0,1,219.71,75.84Z"/><path d="M227.41,123.82H197.83c-4.66,0-8.45-3.13-8.45-7v-45a1.6,1.6,0,0,1,1.08-1.5,1.65,1.65,0,0,1,1.83.52c1.16,1.44,8.44,3.57,20.42,3.57,10.62,0,18.68-1.78,20.33-3.49a1.63,1.63,0,0,1,1.81-.38,1.59,1.59,0,0,1,1,1.47v44.83C235.86,120.69,232.07,123.82,227.41,123.82ZM192.25,74.24v42.61c0,2.26,2.5,4.1,5.58,4.1h29.58c3.08,0,5.58-1.84,5.58-4.1V74.32c-4.33,2-12.78,3-20.28,3C205,77.29,196.52,76.34,192.25,74.24Zm-2.2-1.6h0Z"/><path d="M212.62,77.27c-8.63,0-23.24-1.36-23.24-6.44s14.61-6.45,23.24-6.45,23.24,1.36,23.24,6.45a2.7,2.7,0,0,1-.35,1.3C233.59,75.68,222.63,77.27,212.62,77.27Zm-20.35-6.44c.75,1.32,8,3.57,20.35,3.57,11.79,0,19.48-2.12,20.36-3.61-.64-1.24-7.89-3.54-20.36-3.54S193,69.51,192.27,70.83Z"/><rect class="cls-2" x="23.22" y="104.05" width="10.04" height="18.4"/><path class="cls-3" d="M26.13,104.19v12.24s-.22,4.53,7.57,2.84v3.54H23.59V104.05Z"/><rect class="cls-6" x="3.11" y="10.49" width="4.71" height="21.94"/><rect class="cls-6" x="49.33" y="10.49" width="4.71" height="21.94"/><rect class="cls-6" x="3.11" y="40.88" width="4.71" height="21.94"/><rect class="cls-6" x="49.33" y="40.88" width="4.71" height="21.94"/><rect class="cls-6" x="3.11" y="71.27" width="4.71" height="21.94"/><rect class="cls-6" x="49.33" y="71.27" width="4.71" height="21.94"/><path class="cls-5" d="M20.45,79.19A11.69,11.69,0,0,1,22.21,73,11.81,11.81,0,1,0,38.45,89.26a11.81,11.81,0,0,1-18-10.07Z"/><path class="cls-4" d="M28.38,71.27A11.66,11.66,0,0,0,22.21,73a11.69,11.69,0,0,0-1.76,6.17,11.81,11.81,0,0,0,18,10.07,11.8,11.8,0,0,0-10.07-18Z"/><path class="cls-7" d="M20.45,48.8a11.72,11.72,0,0,1,1.76-6.17A11.81,11.81,0,1,0,38.45,58.87a11.8,11.8,0,0,1-18-10.07Z"/><path class="cls-6" d="M28.38,40.88a11.75,11.75,0,0,0-6.17,1.75A11.8,11.8,0,0,0,38.45,58.87a11.8,11.8,0,0,0-10.07-18Z"/><path class="cls-7" d="M20.45,18.42a11.73,11.73,0,0,1,1.76-6.18A11.82,11.82,0,1,0,38.45,28.49a11.81,11.81,0,0,1-18-10.07Z"/><path class="cls-6" d="M28.38,10.49a11.75,11.75,0,0,0-6.17,1.75A11.81,11.81,0,0,0,38.45,28.49a11.81,11.81,0,0,0-10.07-18Z"/><g id="Traffic_light" data-name="Traffic light"><path d="M28.38,38.51A14.19,14.19,0,1,0,42.57,52.7,14.19,14.19,0,0,0,28.38,38.51Zm0,24.33A10.14,10.14,0,1,1,38.51,52.7,10.14,10.14,0,0,1,28.38,62.84Z"/><path d="M28.38,8.11A14.19,14.19,0,1,0,42.57,22.3,14.19,14.19,0,0,0,28.38,8.11Zm0,24.32A10.14,10.14,0,1,1,38.51,22.3,10.14,10.14,0,0,1,28.38,32.43Z"/><path d="M28.38,68.92A14.19,14.19,0,1,0,42.57,83.11,14.19,14.19,0,0,0,28.38,68.92Zm0,24.32A10.14,10.14,0,1,1,38.51,83.11,10.14,10.14,0,0,1,28.38,93.24Z"/><path d="M28.38,14.19a2,2,0,1,0,0,4,4.06,4.06,0,0,1,4.05,4.06,2,2,0,0,0,4.06,0A8.12,8.12,0,0,0,28.38,14.19Z"/><path d="M28.38,44.59a2,2,0,1,0,0,4.06,4,4,0,0,1,4.05,4.05,2,2,0,1,0,4.06,0A8.13,8.13,0,0,0,28.38,44.59Z"/><path d="M28.38,75a2,2,0,1,0,0,4,4.05,4.05,0,0,1,4.05,4.06,2,2,0,0,0,4.06,0A8.12,8.12,0,0,0,28.38,75Z"/><path d="M56.76,30.4V10.13a2,2,0,0,0-2-2H50.47A10.16,10.16,0,0,0,40.54,0H16.22A10.16,10.16,0,0,0,6.28,8.11H2a2,2,0,0,0-2,2V30.4a6.09,6.09,0,0,0,6.08,6.09v2H2a2,2,0,0,0-2,2V60.81a6.08,6.08,0,0,0,6.08,6.08v2H2a2,2,0,0,0-2,2V91.21A6.09,6.09,0,0,0,6.08,97.3h.2a10.15,10.15,0,0,0,9.94,8.1h4.05v18.25a2,2,0,0,0,2,2H34.46a2,2,0,0,0,2-2V105.4h4a10.15,10.15,0,0,0,9.93-8.1h.2a6.11,6.11,0,0,0,6.09-6.09V70.94a2,2,0,0,0-2-2H50.67v-2a6.09,6.09,0,0,0,6.09-6.08V40.54a2,2,0,0,0-2-2H50.67v-2A6.11,6.11,0,0,0,56.76,30.4Zm-4.06,0a2,2,0,0,1-2,2V12.16h2Zm-48.65,0V12.16h2V32.43A2,2,0,0,1,4.05,30.4Zm0,30.41V42.57h2V62.84A2,2,0,0,1,4.05,60.81Zm0,30.4V73h2V93.24A2,2,0,0,1,4.05,91.21Zm28.38,30.41H24.32V105.4h8.11Zm8.11-20.27H16.22a6.09,6.09,0,0,1-6.09-6.08V10.13a6.11,6.11,0,0,1,6.09-6.08H40.54a6.09,6.09,0,0,1,6.08,6.08V95.27A6.08,6.08,0,0,1,40.54,101.35ZM52.7,73V91.21a2,2,0,0,1-2,2V73Zm0-30.4V60.81a2,2,0,0,1-2,2V42.57Z"/></g></svg>