<svg id="Capa_1" data-name="Capa 1" xmlns="http://www.w3.org/2000/svg" viewBox="0 0 103.73 129.44"><defs><style>.cls-1{fill:#5f7993;}.cls-2{fill:#3a5368;}.cls-3{fill:#17b5c8;}.cls-4{fill:#02809d;}.cls-5{fill:#6cab00;}.cls-6{fill:#a6d100;}</style></defs><polygon class="cls-1" points="11.73 29.13 25.51 23.15 41.31 27.95 50.05 39.55 50.05 70.81 3.66 70.81 3.66 60.73 3.79 57.49 5.7 46.37 7.17 38.67 10.89 32.19 11.73 29.13"/><path class="cls-2" d="M39.32,46.22C41.08,52,41.83,60,40.72,70.81H51.05l-.84-28.4L43.49,28.79,27.86,23.15,17.1,24.42l-6.51,8.75,2.62-.77A21,21,0,0,1,39.32,46.22Z"/><polygon class="cls-3" points="46.68 79.55 61.14 79.55 61.14 113.16 61.14 118.54 66.68 126.1 41.31 126.1 47.02 120.39 46.68 79.55"/><path class="cls-4" d="M42,122.91s19.15.84,19.15-9.75l2,8.17,2.66,6.45-24.53-.84Z"/><rect class="cls-4" x="2.79" y="70.81" width="47.25" height="8.91"/><path class="cls-3" d="M2,70.81H40.72a4.45,4.45,0,0,1,4.45,4.45v0a4.45,4.45,0,0,1-4.45,4.45H2a0,0,0,0,1,0,0V70.81a0,0,0,0,1,0,0Z"/><rect class="cls-5" x="54.08" y="2.91" width="15.97" height="11.81"/><path class="cls-6" d="M58.75,2.91h7.9a0,0,0,0,1,0,0V14.72a0,0,0,0,1,0,0h-7.9a5.9,5.9,0,0,1-5.9-5.9v0a5.9,5.9,0,0,1,5.9-5.9Z" transform="translate(119.5 17.63) rotate(180)"/><path d="M15.89,23.94A21.66,21.66,0,0,0,5.21,36.7c-1.64,5-3.37,12.87-3.55,25.42v7.23l1.75-1A3.41,3.41,0,0,0,0,71.76v6.13A3.41,3.41,0,0,0,3.41,81.3H44.85v33.08a8.51,8.51,0,0,1-2,5.48l-3.57,4.28a3.33,3.33,0,0,0-.64,3.25,3.14,3.14,0,0,0,3,2h24.1a3.3,3.3,0,0,0,2.9-1.59,3.14,3.14,0,0,0-.32-3.59l-3.67-4.4a8.56,8.56,0,0,1-2-5.48V112.5a2,2,0,0,0-1.57-2,1.9,1.9,0,0,0-2.22,1.87v2a12.36,12.36,0,0,0,2.87,7.91l2.81,3.36H43l2.8-3.36a12.36,12.36,0,0,0,2.87-7.91V81.3h10.2v21.86a2,2,0,0,0,1.58,2,1.9,1.9,0,0,0,2.21-1.87v-22H99.31a4.42,4.42,0,0,0,4.42-4.42V46.74A25.14,25.14,0,0,0,96,28.54h0a1.89,1.89,0,0,0-2.88.29,2,2,0,0,0,.34,2.52,21.41,21.41,0,0,1,6.45,15.39V76.88a.63.63,0,0,1-.63.63H52.42V46.74A25.38,25.38,0,0,0,40.37,25.15h38a21.55,21.55,0,0,1,8.29,1.65,1.81,1.81,0,0,0,.72.14,1.89,1.89,0,0,0,1.86-1.51A1.93,1.93,0,0,0,88,23.28a25.3,25.3,0,0,0-9.69-1.92H54.94V17H69.08a3.15,3.15,0,0,0,3.16-3.15V4.93a3.15,3.15,0,0,0-3.16-3.16H54.93A1.9,1.9,0,0,0,52.68,0a2,2,0,0,0-1.53,2V21.36H27A24.66,24.66,0,0,0,15.89,23.94ZM68.45,13.22H54.94V5.56H68.45ZM27,25.15c11.89.62,21.59,9.69,21.59,21.59V68.35H39.57a1.9,1.9,0,0,0,0,3.79h9.06v5.37H3.79V72.14H30.57a1.9,1.9,0,1,0,0-3.79H5.45V62.12S3.72,23.94,27,25.15Z"/></svg>