<svg id="Capa_1" data-name="Capa 1" xmlns="http://www.w3.org/2000/svg" viewBox="0 0 97.89 97.89"><defs><style>.cls-1{fill:#a6d100;}.cls-2{fill:#5f7993;}.cls-3{fill:#6cab00;}.cls-4{fill:#3a5368;}.cls-5{fill:#17b5c8;}.cls-6{fill:#02809d;}</style></defs><polygon class="cls-1" points="91.23 8.35 79.02 3.04 69.94 6.72 4.86 69.63 5.79 88.07 18.38 94.81 31.56 90.28 94.8 25.53 91.23 8.35"/><rect class="cls-2" x="11.35" y="56.55" width="28.26" height="33.27" transform="translate(59.21 3.42) rotate(45)"/><path class="cls-3" d="M84.67,12.8a14.37,14.37,0,0,1,2.18,17.49,14.18,14.18,0,0,0,2.83-2.18A14.37,14.37,0,0,0,69.35,7.79a14.65,14.65,0,0,0-2.18,2.83A14.38,14.38,0,0,1,84.67,12.8Z"/><path class="cls-4" d="M13.35,84.12a14.35,14.35,0,0,1-2.18-17.49,14,14,0,0,0-2.83,2.18A14.37,14.37,0,0,0,28.66,89.13a14.65,14.65,0,0,0,2.18-2.83A14.35,14.35,0,0,1,13.35,84.12Z"/><path class="cls-5" d="M27.78,4.13l67,67L91,90.65l-10.89,6.2L69.2,91.77,4.13,26.69s-1-12.4-.67-12.94S11.68,2.08,11.68,2.08Z"/><path class="cls-6" d="M13.35,12.8a14.37,14.37,0,0,1,17.49-2.18,14.65,14.65,0,0,0-2.18-2.83A14.37,14.37,0,0,0,8.34,28.11a13.63,13.63,0,0,0,2.83,2.18A14.35,14.35,0,0,1,13.35,12.8Z"/><path class="cls-6" d="M84.67,84.12a14.37,14.37,0,0,1-17.5,2.18,14.65,14.65,0,0,0,2.18,2.83A14.37,14.37,0,0,0,89.68,68.81a14.56,14.56,0,0,0-2.83-2.18A14.37,14.37,0,0,1,84.67,84.12Z"/><path d="M5.49,92.39a18.81,18.81,0,0,1,0-26.56L22.38,48.94,5.49,32.05A18.78,18.78,0,0,1,32.06,5.49L48.94,22.38,65.83,5.49A18.79,18.79,0,0,1,92.4,32.06L75.51,48.94,92.39,65.83A18.78,18.78,0,0,1,65.83,92.39L48.94,75.51,32.05,92.39A18.79,18.79,0,0,1,5.49,92.39Zm22.63-83A13.22,13.22,0,0,0,9.43,28.12L28.28,47a2.77,2.77,0,0,1,0,3.93L9.43,69.77A13.22,13.22,0,0,0,28.12,88.46L47,69.6a2.79,2.79,0,0,1,3.93,0L69.77,88.46A13.22,13.22,0,0,0,88.46,69.77L69.6,50.91a2.79,2.79,0,0,1,0-3.93L88.46,28.12A13.22,13.22,0,0,0,69.77,9.43L50.91,28.28a2.77,2.77,0,0,1-3.93,0Z"/><rect x="37.84" y="35.92" width="47" height="5.5" transform="translate(45.31 -32.05) rotate(45)"/><rect x="15.22" y="58.54" width="47" height="5.5" transform="translate(54.68 -9.43) rotate(45)"/></svg>