<svg id="Capa_1" data-name="Capa 1" xmlns="http://www.w3.org/2000/svg" viewBox="0 0 117.84 121.05"><defs><style>.cls-1{fill:#a6d100;}.cls-2{fill:#6cab00;}</style></defs><path class="cls-1" d="M46.18,62.75s-4.5-33.14,21.33-40.87l15.77-3V5.75L110.57,30,84.16,58.74,83.1,41.2S58.92,41.31,46.18,62.75Z"/><path class="cls-2" d="M97.39,45.92A23,23,0,0,0,76,34c-15.59.45-28.45,16.57-29.77,26l1,5.3s8.73-19.48,21.31-21.78,14.53.7,14.53.7l-.18,15.6Z"/><path d="M85.24.8a2.76,2.76,0,0,0-4.71,2V17.47c-14.89.59-22.35,6.77-23.49,7.79a41.87,41.87,0,0,0-14.51,24.3,43.07,43.07,0,0,0-.49,14h0a.51.51,0,0,1,0,.13l.59,3.36a2.76,2.76,0,0,0,5.08,1l1.75-2.93c5.4-9,12.12-14.91,20-17.67A29.09,29.09,0,0,1,80.53,45.8V61A2.76,2.76,0,0,0,85.25,63L114.38,33.7a2.76,2.76,0,0,0,0-3.9Zm.81,53.56v-11a2.75,2.75,0,0,0-2.32-2.72,33.69,33.69,0,0,0-16.09,1.62C59.71,45,52.85,50.47,47.2,58.5a39.29,39.29,0,0,1,.74-7.87A35.9,35.9,0,0,1,60.6,29.48l.17-.15c.19-.18,7.19-6.5,22.5-6.39h0a2.76,2.76,0,0,0,2.76-2.76V9.39l22.48,22.37Z"/><path d="M115.08,61.79a2.75,2.75,0,0,0-2.75,2.75v42.72a8.28,8.28,0,0,1-8.28,8.27H13.79a8.28,8.28,0,0,1-8.28-8.27V23.19a8.28,8.28,0,0,1,8.28-8.27H32.86a2.76,2.76,0,0,0,0-5.52H13.79A13.81,13.81,0,0,0,0,23.19v84.07a13.81,13.81,0,0,0,13.79,13.79h90.26a13.81,13.81,0,0,0,13.79-13.79V64.54A2.75,2.75,0,0,0,115.08,61.79Z"/></svg>