<svg id="Capa_1" data-name="Capa 1" xmlns="http://www.w3.org/2000/svg" viewBox="0 0 111.74 96.85"><defs><style>.cls-1{fill:#a6d100;}.cls-2{fill:#6cab00;}.cls-3{fill:#17b5c8;}.cls-4{fill:#02809d;}</style></defs><path class="cls-1" d="M103.25,18.33,8,19.33,2.14,10.94,3.72,4.68,9.49,2.45l93.8-1s5,4.05,5.06,4.37,1.4,7.22,1.4,7.22Z"/><path class="cls-2" d="M105.17,9.86a7.41,7.41,0,0,1-5.43,7.29,7.9,7.9,0,0,0,1.83.2,7.41,7.41,0,0,0-.31-14.82,7.85,7.85,0,0,0-1.82.28A7.39,7.39,0,0,1,105.17,9.86Z"/><path class="cls-2" d="M6.81,10.93a7.4,7.4,0,0,1,5.44-7.28,7.4,7.4,0,1,0-1.53,14.61A7.28,7.28,0,0,0,12.54,18,7.42,7.42,0,0,1,6.81,10.93Z"/><path d="M0,10.4A10.42,10.42,0,0,1,10.4,0h90.94a10.41,10.41,0,0,1,0,20.81H10.4A10.42,10.42,0,0,1,0,10.4Zm107.24,0a5.9,5.9,0,0,0-5.9-5.9H10.4a5.91,5.91,0,0,0,0,11.81h90.94A5.91,5.91,0,0,0,107.24,10.4Z"/><polygon class="cls-3" points="38.92 64.63 74.33 64.63 56.16 94.8 38.92 64.63"/><path class="cls-4" d="M42,68s25.62-.91,20.94,14l8.49-15.23-3.32-4.25-28.22,2Z"/><path d="M55.87,96.85a6.36,6.36,0,0,1-5.58-3.22L37.15,70.87a6.45,6.45,0,0,1,5.58-9.68H69a6.45,6.45,0,0,1,5.58,9.67L61.46,93.63A6.39,6.39,0,0,1,55.87,96.85ZM42.73,66.27a1.33,1.33,0,0,0-1.19.68,1.36,1.36,0,0,0,0,1.38L54.68,91.09a1.37,1.37,0,0,0,2.38,0L70.2,68.33A1.37,1.37,0,0,0,69,66.27Z"/><path d="M55.87,65.6a2.54,2.54,0,0,1-2.54-2.54V36.89a2.54,2.54,0,0,1,5.08,0V63.06A2.54,2.54,0,0,1,55.87,65.6Z"/></svg>