<svg id="Capa_1" data-name="Capa 1" xmlns="http://www.w3.org/2000/svg" viewBox="0 0 124.88 112.39"><defs><style>.cls-1{fill:#02809d;}.cls-2{fill:#6cab00;}.cls-3{fill:#a6d100;}.cls-4{fill:#17b5c8;}</style></defs><rect class="cls-1" x="63.64" y="15.12" width="58.62" height="47.36"/><rect class="cls-2" x="2.69" y="62.69" width="119.57" height="47.36"/><path class="cls-3" d="M21.83,62.69H122.26a0,0,0,0,1,0,0v47.36a0,0,0,0,1,0,0H21.83a7.52,7.52,0,0,1-7.52-7.52V70.22A7.52,7.52,0,0,1,21.83,62.69Z"/><path class="cls-4" d="M80.37,13.9h41.89a0,0,0,0,1,0,0V61.26a0,0,0,0,1,0,0H80.37a7.52,7.52,0,0,1-7.52-7.52V21.42A7.52,7.52,0,0,1,80.37,13.9Z"/><g id="Page-1"><g id="_028---Lego" data-name="028---Lego"><path id="Shape" d="M118.63,12.49h-2.08V6.24A6.24,6.24,0,0,0,110.31,0H102a6.25,6.25,0,0,0-6.24,6.24v6.25H89.5V6.24A6.25,6.25,0,0,0,83.25,0H74.93a6.25,6.25,0,0,0-6.25,6.24v6.25H66.6a6.24,6.24,0,0,0-6.24,6.24V58.28a5.94,5.94,0,0,0,.38,2.08H56.2V54.11A6.25,6.25,0,0,0,50,47.87H41.63a6.25,6.25,0,0,0-6.25,6.24v6.25H29.14V54.11a6.25,6.25,0,0,0-6.25-6.24H14.57a6.24,6.24,0,0,0-6.24,6.24v6.25H6.24A6.24,6.24,0,0,0,0,66.6v39.55a6.25,6.25,0,0,0,6.24,6.24H118.63a6.25,6.25,0,0,0,6.25-6.24V66.6a6.23,6.23,0,0,0-1.63-4.16,6.23,6.23,0,0,0,1.63-4.16V18.73A6.24,6.24,0,0,0,118.63,12.49ZM99.9,6.24A2.08,2.08,0,0,1,102,4.16h8.33a2.08,2.08,0,0,1,2.08,2.08v6.25H99.9Zm-27.05,0a2.08,2.08,0,0,1,2.08-2.08h8.32a2.08,2.08,0,0,1,2.08,2.08v6.25H72.85Zm-8.33,52V18.73a2.08,2.08,0,0,1,2.08-2.08h52a2.09,2.09,0,0,1,2.09,2.08V58.28a2.09,2.09,0,0,1-2.09,2.08h-52A2.08,2.08,0,0,1,64.52,58.28Zm-25-4.17A2.09,2.09,0,0,1,41.63,52H50A2.08,2.08,0,0,1,52,54.11v6.25H39.54Zm-27,0A2.08,2.08,0,0,1,14.57,52h8.32A2.09,2.09,0,0,1,25,54.11v6.25H12.49Zm108.23,52a2.09,2.09,0,0,1-2.09,2.08H6.24a2.08,2.08,0,0,1-2.08-2.08V66.6a2.08,2.08,0,0,1,2.08-2.08H118.63a2.09,2.09,0,0,1,2.09,2.08Z"/><path id="Shape-2" data-name="Shape" d="M114.47,20.81a2.08,2.08,0,0,0-2.08,2.08v6.25a2.08,2.08,0,1,0,4.16,0V22.89A2.08,2.08,0,0,0,114.47,20.81Z"/><path id="Shape-3" data-name="Shape" d="M114.47,35.38a2.08,2.08,0,0,0-2.08,2.08V54.11a2.08,2.08,0,1,0,4.16,0V37.46A2.08,2.08,0,0,0,114.47,35.38Z"/><path id="Shape-4" data-name="Shape" d="M16.65,68.68H10.41a2.09,2.09,0,0,0,0,4.17h6.24a2.09,2.09,0,0,0,0-4.17Z"/><path id="Shape-5" data-name="Shape" d="M62.44,68.68H25a2.09,2.09,0,1,0,0,4.17H62.44a2.09,2.09,0,0,0,0-4.17Z"/></g></g></svg>