<svg id="Capa_1" data-name="Capa 1" xmlns="http://www.w3.org/2000/svg" viewBox="0 0 126.05 103.06"><defs><style>.cls-1{fill:#02809d;}.cls-2{fill:#17b5c8;}</style></defs><path class="cls-1" d="M63.14,7.91A22.28,22.28,0,0,0,60,8.14a22.21,22.21,0,0,1,0,44,22.21,22.21,0,1,0,3.19-44.2Z"/><ellipse class="cls-2" cx="59.95" cy="30.12" rx="19.03" ry="21.98"/><path class="cls-2" d="M48.79,54.8,44,47.25s-15,5.18-23.63-3.51c0,0-12,9.24-16,17.06A21.8,21.8,0,0,0,2.74,76.24L25.88,86.6l4.5-15.4,9.43-11.37Z"/><path class="cls-1" d="M23.16,46.44S1.57,65.36,9.25,78.72c0,0-7.84-4.8-8-5.29s4.42-16.2,4.42-16.2L18.43,43.74Z"/><path class="cls-2" d="M78,54.8l4.83-7.55s15,5.18,23.63-3.51c0,0,12,9.24,16,17.06a16.47,16.47,0,0,1,.58,14.44L100.92,86.6l-4.5-15.4L87,59.83Z"/><path class="cls-1" d="M102.73,46.44s20.59,18.92,12.9,32.28c0,0,7.85-4.8,8-5.29s-4.42-16.2-4.42-16.2L106.46,43.74Z"/><path class="cls-2" d="M47.17,55s6.09,6.7,17.36,6.7S78,54.8,78,54.8A31.92,31.92,0,0,1,96.42,71.2c6.07,12.91,3.91,18.69,3.91,18.69L74.76,100.64H49.85L25.39,89.05S26.21,64.23,47.17,55Z"/><path class="cls-1" d="M48.14,52.22l-9,6.37s8.72,7.76,25.22,7.76,23.51-8.53,23.51-8.53l-9.09-5.6S63.75,66.61,48.14,52.22Z"/><path d="M80.1,50.56a2,2,0,0,0-2.26.38C73.4,55.38,68.27,57.72,63,57.72s-10.37-2.34-14.81-6.78A2,2,0,0,0,46,50.56,39.76,39.76,0,0,0,23.26,86.47v0A2,2,0,0,0,23.92,88a58.24,58.24,0,0,0,78.21,0,2,2,0,0,0,.65-1.47v0A39.73,39.73,0,0,0,80.1,50.56ZM63,99.09A54.13,54.13,0,0,1,27.25,85.62a35.79,35.79,0,0,1,19.2-30.87c5,4.55,10.67,6.94,16.57,6.94s11.62-2.39,16.59-6.94A35.8,35.8,0,0,1,98.8,85.62,54.14,54.14,0,0,1,63,99.09Z"/><path d="M120.55,54.29a34.73,34.73,0,0,0-14.27-12.56,2,2,0,0,0-2.26.39c-3.79,3.78-8.15,5.78-12.62,5.78a15.84,15.84,0,0,1-7.12-1.74,2,2,0,0,0-1.78,3.56,19.78,19.78,0,0,0,8.9,2.15,21.37,21.37,0,0,0,14.38-5.94,30.67,30.67,0,0,1,16.29,26.25,46.86,46.86,0,0,1-16.93,9.44,2,2,0,0,0,.58,3.89,2,2,0,0,0,.59-.09A50.91,50.91,0,0,0,125.4,74.53a2,2,0,0,0,.65-1.47v0A34.53,34.53,0,0,0,120.55,54.29Z"/><path d="M16.17,79.79A46.52,46.52,0,0,1,4,72.1,30.57,30.57,0,0,1,20.22,45.93a21.36,21.36,0,0,0,14.35,5.93,19.69,19.69,0,0,0,9-2.2,2,2,0,0,0-1.8-3.54,15.74,15.74,0,0,1-7.16,1.76c-4.46,0-8.81-2-12.59-5.76a2,2,0,0,0-2.26-.39A34.59,34.59,0,0,0,0,73v0a2,2,0,0,0,.65,1.48,50.44,50.44,0,0,0,13.94,9,1.88,1.88,0,0,0,.79.17,2,2,0,0,0,.79-3.81Z"/><path d="M18.5,82.66a2,2,0,1,0,3.67,0A2,2,0,0,0,18.5,82.66Z"/><path d="M22.17,82.66Z"/><path class="cls-1" d="M46,9.55v.56a26.18,26.18,0,0,1,3.69-2.66V4.71a1,1,0,0,0-1-1H43.31A7.67,7.67,0,0,1,46,9.55Z"/><path class="cls-2" d="M46,10.11V9.55a7.67,7.67,0,0,0-2.66-5.8H16.93a1,1,0,0,0-1,1V36.48a1,1,0,0,0,1,1H37.77A26.36,26.36,0,0,1,46,10.11Z"/><path class="cls-2" d="M89.54,30.15a26.33,26.33,0,0,1-.31,4l1.55,2.69c3.27-5.24,12.06-19.42,15.1-25.15,2.57-4.86-.66-8.78-9.44-7.94H73.34a1,1,0,0,0-.83,1.44l.21.36A26.41,26.41,0,0,1,89.54,30.15Z"/><path class="cls-1" d="M105.88,11.69c-3,5.73-11.83,19.91-15.1,25.15l.88,1.51a1,1,0,0,0,.83.48,1,1,0,0,0,.83-.48L112.46,5.19a.93.93,0,0,0,0-1,.94.94,0,0,0-.83-.48H96.44C105.22,4.15,108.45,6.83,105.88,11.69Z"/><path d="M52.44,1.88A4.69,4.69,0,0,0,48.7,0H16.93A4.65,4.65,0,0,0,13.2,1.88a4.6,4.6,0,0,0-1,2.83V36.48a4.72,4.72,0,0,0,4.71,4.71H39.16c-.28-.62-.55-1.24-.79-1.88h0c-.22-.62-.42-1.24-.6-1.87H16.93a1,1,0,0,1-1-1V4.71a1,1,0,0,1,1-1H48.7a1,1,0,0,1,1,1V7.45c.61-.36,1.23-.7,1.87-1s1.24-.57,1.88-.82v-.9A4.65,4.65,0,0,0,52.44,1.88Z"/><path d="M63.14,6.05A24.08,24.08,0,1,0,87.21,30.12,24.1,24.1,0,0,0,63.14,6.05Zm0,44.4A20.33,20.33,0,1,1,83.46,30.12,20.35,20.35,0,0,1,63.14,50.45Z"/><path d="M115.71,2.35c-.1-.16-.21-.32-.32-.47A4.63,4.63,0,0,0,111.63,0H73.34a4.64,4.64,0,0,0-3.76,1.88c-.11.15-.22.31-.32.47a4.8,4.8,0,0,0-.61,2c.55.12,1.1.26,1.64.41a24.72,24.72,0,0,1,2.43.81l-.21-.36a1,1,0,0,1,.83-1.44h38.29a.94.94,0,0,1,.83.48.93.93,0,0,1,0,1L93.32,38.35a1,1,0,0,1-.83.48,1,1,0,0,1-.83-.48l-.88-1.51-1.55-2.69c-.06.42-.13.83-.22,1.24a26.14,26.14,0,0,1-1.12,3.94l.52.89a4.71,4.71,0,0,0,8.16,0L115.71,7.06A4.67,4.67,0,0,0,115.71,2.35Z"/></svg>