<svg id="Capa_1" data-name="Capa 1" xmlns="http://www.w3.org/2000/svg" viewBox="0 0 121.55 111.05"><defs><style>.cls-1{fill:#17b5c8;}.cls-2{fill:#02809d;}.cls-3{fill:#5f7993;}.cls-4{fill:#3a5368;}.cls-5{fill:#6cab00;}.cls-6{fill:#a6d100;}</style></defs><polygon class="cls-1" points="62.88 15.86 48.47 15.86 33.95 1.34 8.21 1.34 2 7.17 2 33.65 7.48 28.9 118.5 30.18 118.5 17.92 112.3 15.08 102.76 16.2 62.88 15.86"/><path class="cls-2" d="M36.81,5.3s-26-4-34.44,19.58V5.3L7.25,2.24,34,1.34l3.84,4Z"/><polygon class="cls-3" points="37.79 27.91 96.41 2.24 108.09 27.91 37.79 27.91"/><path class="cls-4" d="M71.57,14.29S98.39.76,105.71,26.43L96.41,2.24,71.57,13.12Z"/><path class="cls-5" d="M94,51.23H81.28a7.28,7.28,0,0,1,7.28,7.28V78.78a7.27,7.27,0,0,1-7.28,7.27H33.75a7.27,7.27,0,0,1-7.28-7.27V58.51a7.28,7.28,0,0,1,7.28-7.28H28.3l-2.38,4.3L25,82.22l5,4.38H92.57l2.93-2.92.91-25.38Z"/><rect class="cls-6" x="26.47" y="51.23" width="62.09" height="34.82" rx="7.28"/><path d="M39.19,65.26a2.11,2.11,0,0,1,0-4.21H82.36a2.11,2.11,0,0,1,0,4.21Z"/><path d="M39.19,76.71a2.11,2.11,0,0,1,0-4.21H72.58a2.11,2.11,0,0,1,0,4.21Z"/><path d="M82.22,76.71a2.11,2.11,0,1,1,2.13-2.1,2.11,2.11,0,0,1-2.13,2.1Z"/><path d="M60.46,53.33a2.1,2.1,0,1,1,2.14-2.1,2.11,2.11,0,0,1-2.14,2.1Z"/><path d="M31.2,88.63a7.83,7.83,0,0,1-7.83-7.82V57a7.84,7.84,0,0,1,7.83-7.83H52.27a2.1,2.1,0,0,1,0,4.2H31.2A3.63,3.63,0,0,0,27.58,57V80.81a3.63,3.63,0,0,0,3.62,3.62H90.35A3.63,3.63,0,0,0,94,80.81V57a3.63,3.63,0,0,0-3.62-3.63H68.45a2.1,2.1,0,0,1,0-4.2h21.9A7.84,7.84,0,0,1,98.18,57V80.81a7.83,7.83,0,0,1-7.83,7.82Z"/><path d="M9.73,111.05A9.74,9.74,0,0,1,0,101.32V9.73A9.75,9.75,0,0,1,9.73,0H35.1a2.11,2.11,0,0,1,1.59.73l11,12.7H65.31a2.23,2.23,0,0,1,.5.07l.1,0L95,.23A2.1,2.1,0,0,1,96.6.17a2,2,0,0,1,1.18,1.09l5.6,12.25.21,0a2.33,2.33,0,0,1,.38,0h7.85a9.75,9.75,0,0,1,9.73,9.74v78.15a9.74,9.74,0,0,1-9.73,9.73Zm0-80.14A5.54,5.54,0,0,0,4.2,36.44v64.88a5.54,5.54,0,0,0,5.53,5.53H111.82a5.54,5.54,0,0,0,5.53-5.53V36.44a5.54,5.54,0,0,0-5.53-5.53H9.73Zm99.68-4.2h2.41a9.7,9.7,0,0,1,5.1,1.45l.43.26V23.17a5.54,5.54,0,0,0-5.53-5.53h-6.56ZM9.73,4.2A5.54,5.54,0,0,0,4.2,9.73V28.42l.44-.26a9.64,9.64,0,0,1,5.09-1.45H37.06l18.66-8.53-.12-.54H46.7a2.11,2.11,0,0,1-1.59-.73L34.13,4.2Zm38.62,22,.12.54h56.32l-10-21.79Z"/></svg>