<svg id="Capa_1" data-name="Capa 1" xmlns="http://www.w3.org/2000/svg" viewBox="0 0 122.65 122.65"><defs><style>.cls-1{fill:#5f7993;}.cls-2{fill:#3a5368;}.cls-3{fill:#a6d100;}.cls-4{fill:#6cab00;}.cls-5{fill:#17b5c8;}.cls-6{fill:#02809d;}</style></defs><path class="cls-1" d="M73.49,8v49.4H115.1S114.2,18.87,73.49,8ZM96.06,35.44a2.85,2.85,0,1,1-5.69,0V16.77a52.64,52.64,0,0,1,5.69,4.51Z"/><path class="cls-1" d="M7.78,57.39H49.4V8C8.68,18.87,7.78,57.39,7.78,57.39Zm19-36.11a51.8,51.8,0,0,1,5.7-4.51V35.44a2.85,2.85,0,0,1-5.7,0Z"/><path class="cls-2" d="M35,20.89a24,24,0,0,1,14.12-7.31V8s-15.62,4.39-15.62,5.59S35,20.89,35,20.89Z"/><path class="cls-2" d="M87.61,20.89a24,24,0,0,0-14.12-7.31V8s15.62,4.39,15.62,5.59S87.61,20.89,87.61,20.89Z"/><rect class="cls-3" x="51.5" y="111.64" width="19.62" height="9.2"/><rect class="cls-4" x="50.15" y="110.9" width="22.35" height="5.36"/><path class="cls-5" d="M54.19,2.66h14.5a4.79,4.79,0,0,1,4.79,4.79V57.39a0,0,0,0,1,0,0H49.4a0,0,0,0,1,0,0V7.46A4.79,4.79,0,0,1,54.19,2.66Z"/><rect class="cls-6" x="49.16" y="51.44" width="24.32" height="5.95"/><path class="cls-2" d="M99.24,32.49s7.55,11.24,7.55,24.27h8.26S112.48,35,100.62,23.18l-3.07-3.06Z"/><path class="cls-2" d="M23.6,32.49S16,43.73,16,56.76H7.78S10.35,35,22.22,23.18l3.06-3.06Z"/><rect class="cls-5" x="1.61" y="57.39" width="118.29" height="9.41"/><path d="M103.49,42.78A45.41,45.41,0,0,1,105.65,50a1.82,1.82,0,0,0,1.77,1.44,1.5,1.5,0,0,0,.37,0,1.81,1.81,0,0,0,1.41-2.14h0a49.37,49.37,0,0,0-2.33-7.81,1.82,1.82,0,0,0-3.38,1.33Z"/><path d="M120.84,55.19h-4.57A55.11,55.11,0,0,0,75.28,6a8,8,0,0,0-7.74-6H55.11a8,8,0,0,0-7.74,6,55.28,55.28,0,0,0-41,49.22H1.81A1.81,1.81,0,0,0,0,57H0v9.32a1.81,1.81,0,0,0,1.81,1.81h4.4v4.58a48.61,48.61,0,0,0,42.95,48.08v0A1.81,1.81,0,0,0,51,122.65H71.68a1.81,1.81,0,0,0,1.81-1.81v0a48.61,48.61,0,0,0,43-48.08V68.13h4.4a1.81,1.81,0,0,0,1.81-1.81V57a1.81,1.81,0,0,0-1.81-1.81Zm-8.2,0H75.56V9.79A51.16,51.16,0,0,1,86.75,14.5V35.44a6.47,6.47,0,1,0,12.93,0V25A51.16,51.16,0,0,1,112.64,55.19ZM90.37,16.77a52.64,52.64,0,0,1,5.69,4.51V35.44a2.85,2.85,0,1,1-5.69,0ZM55.11,3.62h4.4V34.93a1.82,1.82,0,0,0,3.63,0V3.62h4.4A4.4,4.4,0,0,1,71.93,8V55.19H50.72V8A4.4,4.4,0,0,1,55.11,3.62ZM26.59,21.32a52.91,52.91,0,0,1,5.69-4.54V35.44a2.85,2.85,0,1,1-5.69,0ZM23,25V35.43a6.47,6.47,0,1,0,12.93,0V14.51A51.19,51.19,0,0,1,47.09,9.79v45.4H10A51.49,51.49,0,0,1,23,25ZM9.83,72.71V68.13h2.59v4.58a42.47,42.47,0,0,0,36.74,41.82v2.62A45,45,0,0,1,9.83,72.71Zm96.78-4.58v4.58a38.82,38.82,0,0,1-33.24,38.18s0,0,0,0a2.13,2.13,0,0,0-.23-.42l-.07-.08a1.77,1.77,0,0,0-.31-.3l0,0a1.94,1.94,0,0,0-.43-.22l-.1,0a1.74,1.74,0,0,0-.5-.08H51a1.67,1.67,0,0,0-.49.08l-.11,0A2.1,2.1,0,0,0,50,110l-.05,0a1.42,1.42,0,0,0-.31.29l-.07.08a2.13,2.13,0,0,0-.23.42s0,0,0,0A38.84,38.84,0,0,1,16,72.71V68.13ZM69.86,119H52.79v-5.69H69.86Zm43-46.32a45,45,0,0,1-39.33,44.44v-2.62a42.47,42.47,0,0,0,36.74-41.82V68.13h2.59ZM119,64.5H3.62V58.81H119Z"/></svg>