<?xml version="1.0" encoding="UTF-8" standalone="no"?>
<!-- Created with Inkscape (http://www.inkscape.org/) -->

<svg
   version="1.1"
   id="svg2979"
   width="241.4325"
   height="125.11441"
   viewBox="0 0 241.4325 125.11441"
   sodipodi:docname="logo - pb.svg"
   inkscape:version="1.1.2 (0a00cf5339, 2022-02-04)"
   xmlns:inkscape="http://www.inkscape.org/namespaces/inkscape"
   xmlns:sodipodi="http://sodipodi.sourceforge.net/DTD/sodipodi-0.dtd"
   xmlns="http://www.w3.org/2000/svg"
   xmlns:svg="http://www.w3.org/2000/svg"
   xmlns:rdf="http://www.w3.org/1999/02/22-rdf-syntax-ns#"
   xmlns:cc="http://creativecommons.org/ns#"
   xmlns:dc="http://purl.org/dc/elements/1.1/">
  <metadata
     id="metadata2985">
    <rdf:RDF>
      <cc:Work
         rdf:about="">
        <dc:format>image/svg+xml</dc:format>
        <dc:type
           rdf:resource="http://purl.org/dc/dcmitype/StillImage" />
      </cc:Work>
    </rdf:RDF>
  </metadata>
  <defs
     id="defs2983" />
  <sodipodi:namedview
     pagecolor="#7190ff"
     bordercolor="#666666"
     borderopacity="1"
     objecttolerance="10"
     gridtolerance="10"
     guidetolerance="10"
     inkscape:pageopacity="0.53333333"
     inkscape:pageshadow="2"
     inkscape:window-width="1920"
     inkscape:window-height="1011"
     id="namedview2981"
     showgrid="true"
     showguides="true"
     inkscape:guide-bbox="true"
     inkscape:snap-global="false"
     inkscape:zoom="4.2119998"
     inkscape:cx="129.39222"
     inkscape:cy="72.056034"
     inkscape:window-x="0"
     inkscape:window-y="32"
     inkscape:window-maximized="1"
     inkscape:current-layer="svg2979"
     fit-margin-top="0"
     fit-margin-left="0"
     fit-margin-right="0"
     fit-margin-bottom="0"
     inkscape:pagecheckerboard="0">
    <inkscape:grid
       type="xygrid"
       id="grid7263"
       originx="0.49958599"
       originy="-23.774382" />
    <sodipodi:guide
       position="10.499586,53.623533"
       orientation="0,1"
       id="guide7265"
       inkscape:locked="false" />
  </sodipodi:namedview>
  <text
     xml:space="preserve"
     style="font-style:normal;font-variant:normal;font-weight:bold;font-stretch:normal;font-size:64px;line-height:1.25;font-family:'Liberation Sans';-inkscape-font-specification:'Liberation Sans Bold';letter-spacing:0px;word-spacing:0px;fill:#000000;fill-opacity:1;stroke:none"
     x="13.794933"
     y="34.691254"
     id="text7241" />
  <path
     inkscape:connector-curvature="0"
     id="path7247"
     style="font-style:normal;font-variant:normal;font-weight:normal;font-stretch:normal;font-size:96px;line-height:1.25;font-family:'Avenir LT Std';-inkscape-font-specification:'Avenir LT Std';letter-spacing:0px;word-spacing:0px;fill:#ffffff;fill-opacity:1;stroke:none"
     d="m 19.094018,89.052425 c 4.416,6.336004 9.888,8.352004 17.472,8.352004 8.928,0 17.952,-3.936 17.952,-14.112004 0,-9.024 -6.72,-11.904 -14.688,-13.44 -5.952,-1.152 -11.328,-2.784 -11.328,-6.528004 0,-4.224003 4.704,-6.240003 8.832,-6.240003 4.416,0 7.584,2.208 9.504,5.376003 l 6.24,-4.128003 c -3.072,-5.76 -8.928,-8.16 -15.264,-8.16 -8.352,0 -16.8,4.512 -16.8,13.248003 0,9.312004 7.296,11.136004 15.84,13.056004 4.8,1.056 9.6,2.304 9.6,7.104 0,4.896 -5.184,6.912004 -9.888,6.912004 -5.28,0 -8.544,-2.400004 -11.52,-6.048004 z" />
  <path
     inkscape:connector-curvature="0"
     id="path7249"
     style="font-style:normal;font-variant:normal;font-weight:normal;font-stretch:normal;font-size:96px;line-height:1.25;font-family:'Avenir LT Std';-inkscape-font-specification:'Avenir LT Std';letter-spacing:0px;word-spacing:0px;fill:#ffffff;fill-opacity:1;stroke:none"
     d="m 58.591221,74.025845 c 0,14.016 10.176,23.616004 24,23.616004 13.823998,0 23.999999,-9.600004 23.999999,-23.616004 0,-14.016007 -10.176001,-23.616007 -23.999999,-23.616007 -13.824,0 -24,9.6 -24,23.616007 z m 8.064,0 c 0,-9.408004 6.24,-16.704007 15.936,-16.704007 9.695998,0 15.935998,7.296003 15.935998,16.704007 0,9.408 -6.24,16.704004 -15.935998,16.704004 -9.696,0 -15.936,-7.296004 -15.936,-16.704004 z" />
  <path
     inkscape:connector-curvature="0"
     id="path7251"
     style="font-style:normal;font-variant:normal;font-weight:normal;font-stretch:normal;font-size:96px;line-height:1.25;font-family:'Avenir LT Std';-inkscape-font-specification:'Avenir LT Std';letter-spacing:0px;word-spacing:0px;fill:#ffffff;fill-opacity:1;stroke:none"
     d="m 116.80158,97.676929 c 0.20464,6.406821 -1.83409,10.114171 -4.46523,10.268281 l -7.07683,0.11871 0.1644,7.24121 7.52432,0.0593 c 4.69488,0.12705 11.4326,-3.71221 11.34135,-17.687551 V 59.084868 h 13.31817 v -6.336 h -13.31817 v -8.448 c 0,-6.23279 4.4428,-7.26716 8.77625,-7.26716 1.728,0 3.456,0.384 5.088,0.96 l 1.056,-6.72 c -1.44,-0.768 -3.84014,-1.17516 -5.76,-1.152 -9.84054,0.11871 -16.64826,1.60316 -16.64826,12.54716 v 10.08 h -9.792 v 6.336 h 9.792 z"
     sodipodi:nodetypes="ccccccccccssccssccccc" />
  <path
     inkscape:connector-curvature="0"
     id="path7253"
     style="font-style:normal;font-variant:normal;font-weight:normal;font-stretch:normal;font-size:96px;line-height:1.25;font-family:'Avenir LT Std';-inkscape-font-specification:'Avenir LT Std';letter-spacing:0px;word-spacing:0px;fill:#17b5c8;fill-opacity:1;stroke:none"
     d="m 162.98393,52.748928 h -17.99492 v -8.448 c 0,-7.776 0.288,-13.44 8.064,-13.44 1.728,0 2.53601,-0.0315 4.18285,-0.005 l 0.047,-6.912907 c -2.07806,0.0036 -1.92583,0.0054 -3.84583,0.0054 -12.096,0 -15.936,7.776007 -15.936,18.720007 v 10.08 6.336 38.592011 h 7.488 V 59.084428 h 17.65916 z"
     sodipodi:nodetypes="ccssccssccccccc" />
  <path
     inkscape:connector-curvature="0"
     id="path7255"
     style="font-style:normal;font-variant:normal;font-weight:normal;font-stretch:normal;font-size:96px;line-height:1.25;font-family:'Avenir LT Std';-inkscape-font-specification:'Avenir LT Std';letter-spacing:0px;word-spacing:0px;fill:#a6d100;fill-opacity:1;stroke:none"
     d="m 224.9896,76.090061 -0.16788,-50.751723 h -7.488 v 34.176 h -0.192 c -4.128,-4.8 -9.6,-7.68 -16.128,-7.68 -14.112,0 -23.616,9.984 -23.616,23.616007 0,13.44 9.888,23.616004 22.464,23.616004 8.064,0 14.83176,-2.52109 19.12667,-6.43394 4.09079,-4.351207 5.96904,-11.119324 6.00121,-16.542348 z m -7.65588,-0.639716 c 0,9.408 -6.24,16.704004 -15.936,16.704004 -9.696,0 -15.936,-7.296004 -15.936,-16.704004 0,-9.408004 6.24,-16.704007 15.936,-16.704007 9.696,0 15.936,7.296003 15.936,16.704007 z"
     sodipodi:nodetypes="cccccsssccsssss" />
  <rect
     style="opacity:1;fill:#a6d100;fill-opacity:1;fill-rule:nonzero;stroke:none;stroke-width:1.88976;stroke-linecap:round;stroke-linejoin:round;stroke-miterlimit:4;stroke-dasharray:none;stroke-dashoffset:0;stroke-opacity:0.984252"
     id="rect7267"
     width="8.3095932"
     height="8.3095932"
     x="162.28119"
     y="24.077677" />
  <rect
     style="opacity:1;fill:#ffffff;fill-opacity:1;fill-rule:nonzero;stroke:none;stroke-width:1.88976;stroke-linecap:round;stroke-linejoin:round;stroke-miterlimit:4;stroke-dasharray:none;stroke-dashoffset:0;stroke-opacity:0.984252"
     id="rect7267-8"
     width="8.3095932"
     height="8.3095932"
     x="92.124481"
     y="107.41101" />
  <path
     inkscape:connector-curvature="0"
     id="path7253-7"
     style="font-style:normal;font-variant:normal;font-weight:normal;font-stretch:normal;font-size:96px;line-height:1.25;font-family:'Avenir LT Std';-inkscape-font-specification:'Avenir LT Std';letter-spacing:0px;word-spacing:0px;fill:#a6d100;fill-opacity:1;stroke:none"
     d="m 162.78296,97.615869 h 7.488 V 52.687858 h -7.488 z"
     sodipodi:nodetypes="ccccc" />
  <g
     aria-label="identity and access management"
     style="font-style:normal;font-variant:normal;font-weight:bold;font-stretch:normal;font-size:14px;line-height:1.25;font-family:'Avenir LT Std';-inkscape-font-specification:'Avenir LT Std, Bold';font-variant-ligatures:normal;font-variant-caps:normal;font-variant-numeric:normal;font-feature-settings:normal;text-align:start;letter-spacing:0px;word-spacing:0px;writing-mode:lr-tb;text-anchor:start;fill:#000000;fill-opacity:1;stroke:none"
     id="text844" />
  <path
     d="M 0.52208136,18.281103 H 2.8260814 v -7.488 h 3.672 c 4.3439996,0 5.4479996,-2.6159999 5.4479996,-4.7519999 0,-2.136 -1.104,-4.752 -5.4479996,-4.752 H 0.52208136 Z M 2.8260814,3.3051031 h 3.024 c 1.824,0 3.648,0.432 3.648,2.736 0,2.304 -1.824,2.736 -3.648,2.736 h -3.024 z"
     id="path7683"
     style="font-weight:600;font-size:24px;line-height:1.25;font-family:'Avenir LT Std';-inkscape-font-specification:'Avenir LT Std, Semi-Bold';letter-spacing:0px;word-spacing:0px;fill:#ffffff" />
  <path
     d="m 15.954045,12.593103 c 0,-2.304 1.44,-3.9599999 3.744,-3.9599999 2.304,0 3.744,1.6559999 3.744,3.9599999 0,2.304 -1.44,3.96 -3.744,3.96 -2.304,0 -3.744,-1.656 -3.744,-3.96 z m -2.304,0 c 0,3.312 2.664,5.976 6.048,5.976 3.384,0 6.048,-2.664 6.048,-5.976 0,-3.3119999 -2.664,-5.9759999 -6.048,-5.9759999 -3.384,0 -6.048,2.664 -6.048,5.9759999 z"
     id="path7680"
     style="font-weight:600;font-size:24px;line-height:1.25;font-family:'Avenir LT Std';-inkscape-font-specification:'Avenir LT Std, Semi-Bold';letter-spacing:0px;word-spacing:0px;fill:#ffffff" />
  <path
     d="m 30.834042,18.281103 h 2.328 l 2.712,-8.4959999 h 0.048 l 3,8.4959999 h 2.184 l 3.672,-11.3759999 h -2.28 l -2.448,8.4959999 h -0.048 l -2.88,-8.4959999 h -2.28 l -2.712,8.4959999 h -0.048 l -2.568,-8.4959999 h -2.424 z"
     id="path7677"
     style="font-weight:600;font-size:24px;line-height:1.25;font-family:'Avenir LT Std';-inkscape-font-specification:'Avenir LT Std, Semi-Bold';letter-spacing:0px;word-spacing:0px;fill:#ffffff" />
  <path
     d="m 57.426015,13.385103 v -0.768 c 0,-2.9279999 -1.536,-5.9999999 -5.544,-5.9999999 -3.408,0 -5.88,2.568 -5.88,5.9759999 0,3.384 2.256,5.976 5.856,5.976 2.184,0 3.84,-0.768 5.04,-2.328 l -1.632,-1.248 c -0.84,1.032 -1.8,1.704 -3.12,1.704 -1.992,0 -3.84,-1.32 -3.84,-3.312 z m -9.12,-1.728 c 0,-1.512 1.392,-3.3119999 3.528,-3.3119999 2.184,0 3.24,1.416 3.288,3.3119999 z"
     id="path7674"
     style="font-weight:600;font-size:24px;line-height:1.25;font-family:'Avenir LT Std';-inkscape-font-specification:'Avenir LT Std, Semi-Bold';letter-spacing:0px;word-spacing:0px;fill:#ffffff" />
  <path
     d="m 60.018009,18.281103 h 2.16 v -5.712 c 0,-2.496 1.152,-3.6479999 3.264,-3.6479999 0.336,0 0.696,0.072 1.056,0.168 l 0.096,-2.328 c -0.288,-0.096 -0.624,-0.144 -0.96,-0.144 -1.416,0 -2.856,0.84 -3.408,2.04 h -0.048 v -1.752 h -2.16 z"
     id="path7671"
     style="font-weight:600;font-size:24px;line-height:1.25;font-family:'Avenir LT Std';-inkscape-font-specification:'Avenir LT Std, Semi-Bold';letter-spacing:0px;word-spacing:0px;fill:#ffffff" />
  <path
     d="m 79.217946,13.385103 v -0.768 c 0,-2.9279999 -1.536,-5.9999999 -5.544,-5.9999999 -3.408,0 -5.88,2.568 -5.88,5.9759999 0,3.384 2.256,5.976 5.856,5.976 2.184,0 3.84,-0.768 5.04,-2.328 l -1.632,-1.248 c -0.84,1.032 -1.8,1.704 -3.12,1.704 -1.992,0 -3.84,-1.32 -3.84,-3.312 z m -9.12,-1.728 c 0,-1.512 1.392,-3.3119999 3.528,-3.3119999 2.184,0 3.24,1.416 3.288,3.3119999 z"
     id="path7668"
     style="font-weight:600;font-size:24px;line-height:1.25;font-family:'Avenir LT Std';-inkscape-font-specification:'Avenir LT Std, Semi-Bold';letter-spacing:0px;word-spacing:0px;fill:#ffffff" />
  <path
     d="m 93.20994,0.13710313 h -2.16 V 8.5371031 h -0.048 c -0.768,-1.176 -2.328,-1.92 -3.96,-1.92 -3.504,0 -5.784,2.568 -5.784,5.9759999 0,3.36 2.256,5.976 5.784,5.976 1.536,0 3.12,-0.696 3.96,-1.92 h 0.048 v 1.632 h 2.16 z m -5.904,16.41599987 c -2.304,0 -3.744,-1.656 -3.744,-3.96 0,-2.304 1.44,-3.9599999 3.744,-3.9599999 2.304,0 3.744,1.6559999 3.744,3.9599999 0,2.304 -1.44,3.96 -3.744,3.96 z"
     id="path7665"
     style="font-weight:600;font-size:24px;line-height:1.25;font-family:'Avenir LT Std';-inkscape-font-specification:'Avenir LT Std, Semi-Bold';letter-spacing:0px;word-spacing:0px;fill:#ffffff" />
  <path
     d="m 103.14589,18.281103 h 2.16 v -1.632 h 0.048 c 0.84,1.224 2.424,1.92 3.96,1.92 3.528,0 5.784,-2.616 5.784,-5.976 0,-3.4079999 -2.28,-5.9759999 -5.784,-5.9759999 -1.632,0 -3.192,0.744 -3.96,1.92 h -0.048 V 0.13710313 h -2.16 z m 5.904,-1.728 c -2.304,0 -3.744,-1.656 -3.744,-3.96 0,-2.304 1.44,-3.9599999 3.744,-3.9599999 2.304,0 3.744,1.6559999 3.744,3.9599999 0,2.304 -1.44,3.96 -3.744,3.96 z"
     id="path7662"
     style="font-weight:600;font-size:24px;line-height:1.25;font-family:'Avenir LT Std';-inkscape-font-specification:'Avenir LT Std, Semi-Bold';letter-spacing:0px;word-spacing:0px;fill:#ffffff" />
  <path
     d="m 121.16985,18.353103 -0.696,1.8 c -0.432,1.128 -0.84,1.872 -2.208,1.872 -0.432,0 -0.888,-0.096 -1.296,-0.264 l -0.264,1.968 c 0.6,0.24 1.272,0.312 1.92,0.312 2.376,0 3.12,-1.344 3.888,-3.312 l 5.4,-13.8239999 h -2.328 l -3.216,8.8799999 h -0.048 l -3.384,-8.8799999 h -2.496 z"
     id="path7659"
     style="font-weight:600;font-size:24px;line-height:1.25;font-family:'Avenir LT Std';-inkscape-font-specification:'Avenir LT Std, Semi-Bold';letter-spacing:0px;word-spacing:0px;fill:#ffffff" />
</svg>
