<?xml version="1.0" encoding="utf-8"?>
<!-- Generator: Adobe Illustrator 24.3.0, SVG Export Plug-In . SVG Version: 6.00 Build 0)  -->
<svg version="1.1" id="Capa_1" xmlns="http://www.w3.org/2000/svg" xmlns:xlink="http://www.w3.org/1999/xlink" x="0px" y="0px"
	 viewBox="0 0 32 32" style="enable-background:new 0 0 32 32;" xml:space="preserve">
<style type="text/css">
	.st0{fill:#17B5C8;}
	.st1{fill:#11828F;}
	.st2{fill:none;}
	.st3{fill:#A6D100;}
	.st4{fill:#89AB00;}
	.st5{fill:#5F7993;}
	.st6{fill:#405162;}
	.st7{fill:#FFFFFF;}
	.st8{fill:#3A5368;}
</style>
<g>
	<rect x="11.7" class="st0" width="8.6" height="8.6"/>
	<rect x="11.7" y="23.4" class="st3" width="8.6" height="8.6"/>
	<rect y="11.7" class="st5" width="8.6" height="8.6"/>
	<rect x="11.7" y="11.7" class="st5" width="8.6" height="8.6"/>
	<rect x="23.4" y="11.7" class="st5" width="8.6" height="8.6"/>
	<g>
		<path class="st1" d="M8.6,0H0v8.6C0,3.8,3.8,0,8.6,0z"/>
		<path class="st0" d="M8.6,0C3.8,0,0,3.8,0,8.6h8.6V0z"/>
	</g>
	<g>
		<path class="st1" d="M32,8.6V0h-8.6C28.2,0,32,3.8,32,8.6z"/>
		<path class="st0" d="M32,8.6C32,3.8,28.2,0,23.4,0v8.6H32z"/>
	</g>
	<path class="st4" d="M23.4,32H32v-8.6C32,28.2,28.2,32,23.4,32z"/>
	<path class="st3" d="M23.4,32c4.7,0,8.6-3.8,8.6-8.6h-8.6V32z"/>
	<path class="st4" d="M0,23.4V32h8.6C3.8,32,0,28.2,0,23.4z"/>
	<path class="st3" d="M0,23.4C0,28.2,3.8,32,8.6,32v-8.6H0z"/>
</g>
</svg>
