<?xml version="1.0" encoding="utf-8"?>
<!-- Generator: Adobe Illustrator 24.3.0, SVG Export Plug-In . SVG Version: 6.00 Build 0)  -->
<svg version="1.1" id="Capa_1" xmlns="http://www.w3.org/2000/svg" xmlns:xlink="http://www.w3.org/1999/xlink" x="0px" y="0px"
	 viewBox="0 0 32 32" style="enable-background:new 0 0 32 32;" xml:space="preserve">
<style type="text/css">
	.st0{fill:#17B5C8;}
	.st1{fill:#11828F;}
	.st2{fill:none;}
	.st3{fill:#A6D100;}
	.st4{fill:#89AB00;}
	.st5{fill:#5F7993;}
	.st6{fill:#405162;}
	.st7{fill:#FFFFFF;}
	.st8{fill:#3A5368;}
</style>
<g>
	<path class="st3" d="M16,14.1c-2.2,0-4.1-1.8-4.1-4.1C11.9,7.8,13.8,6,16,6s4.1,1.8,4.1,4.1c0,0.8,0.6,1.4,1.4,1.4
		c0.8,0,1.4-0.6,1.4-1.4c0-3.3-2.3-6.1-5.5-6.8c-2-0.2-2.9,0-2.9,0c-3.7,0.8-6.1,4.5-5.3,8.2C9.9,14.7,12.7,17,16,17
		c2.2,0,4.1,1.8,4.1,4.1c0,2.2-1.8,4.1-4.1,4.1s-4.1-1.8-4.1-4.1c0-0.8-0.6-1.4-1.4-1.4c-0.8,0-1.4,0.6-1.4,1.4
		c0,3.3,2.3,6.1,5.5,6.8c0,0,1.1,0.2,2.9,0c3.7-0.8,6.1-4.5,5.3-8.2C22.1,16.4,19.3,14.1,16,14.1z"/>
	<path class="st4" d="M17.4,3.3V1.4C17.4,0.6,16.8,0,16,0c-0.8,0-1.4,0.6-1.4,1.4v1.8C14.6,3.3,15.4,3,17.4,3.3z"/>
	<path class="st4" d="M14.6,27.8v2.7c0,0.8,0.6,1.4,1.4,1.4c0.8,0,1.4-0.6,1.4-1.4v-2.7C15.7,28,14.6,27.8,14.6,27.8z"/>
</g>
</svg>
