<?xml version="1.0" encoding="utf-8"?>
<!-- Generator: Adobe Illustrator 24.3.0, SVG Export Plug-In . SVG Version: 6.00 Build 0)  -->
<svg version="1.1" id="Capa_1" xmlns="http://www.w3.org/2000/svg" xmlns:xlink="http://www.w3.org/1999/xlink" x="0px" y="0px"
	 viewBox="0 0 32 32" style="enable-background:new 0 0 32 32;" xml:space="preserve">
<style type="text/css">
	.st0{fill:#17B5C8;}
	.st1{fill:#11828F;}
	.st2{fill:none;}
	.st3{fill:#A6D100;}
	.st4{fill:#89AB00;}
	.st5{fill:#5F7993;}
	.st6{fill:#405162;}
	.st7{fill:#FFFFFF;}
	.st8{fill:#3A5368;}
</style>
<g>
	<path class="st5" d="M26.5,3.5h-1V2.4c0-1.3-1.1-2.4-2.3-2.4c-1.3,0-2.3,1.1-2.3,2.4v1.1h-2.4V2.4c0-1.3-1.1-2.4-2.3-2.4
		s-2.3,1.1-2.3,2.4v1.1h-2.4V2.4C11.4,1.1,10.3,0,9,0S6.7,1.1,6.7,2.4v1.1H5.5c-2.1,0-3.7,1.7-3.7,3.7v21.1c0,2.1,1.7,3.7,3.7,3.7
		h21.1c2.1,0,3.7-1.7,3.7-3.7V7.2C30.3,5.1,28.6,3.5,26.5,3.5z M22.2,2.4c0-0.6,0.5-1.1,1-1.1c0.6,0,1,0.5,1,1.1v4.3
		c0,0.6-0.5,1.1-1,1.1c-0.6,0-1-0.5-1-1.1V2.4z M15.1,2.4c0-0.6,0.5-1.1,1-1.1c0.6,0,1,0.5,1,1.1v4.3c0,0.6-0.5,1.1-1,1.1
		c-0.6,0-1-0.5-1-1.1V2.4z M8,2.4c0-0.6,0.5-1.1,1-1.1s1,0.5,1,1.1v4.3c0,0.6-0.5,1.1-1,1.1S8,7.3,8,6.7V2.4z M28.1,28.3
		c0,0.8-0.7,1.5-1.5,1.5H5.5c-0.8,0-1.5-0.7-1.5-1.5V9h24.1V28.3z"/>
	<rect x="5.9" y="12.8" class="st3" width="4" height="3.6"/>
	<rect x="11.3" y="12.8" class="st0" width="4" height="3.6"/>
	<rect x="16.7" y="12.8" class="st3" width="4" height="3.6"/>
	<rect x="22.1" y="12.8" class="st0" width="4" height="3.6"/>
	<rect x="5.9" y="17.6" class="st3" width="4" height="3.6"/>
	<rect x="11.3" y="17.6" class="st0" width="4" height="3.6"/>
	<rect x="16.7" y="17.6" class="st3" width="4" height="3.6"/>
	<rect x="22.1" y="17.6" class="st0" width="4" height="3.6"/>
	<rect x="5.9" y="22.4" class="st3" width="4" height="3.6"/>
	<rect x="11.3" y="22.4" class="st0" width="4" height="3.6"/>
	<rect x="16.7" y="22.4" class="st3" width="4" height="3.6"/>
	<rect x="22.1" y="22.4" class="st0" width="4" height="3.6"/>
	<path class="st1" d="M22.1,26c0,0,4-0.5,4-3.6V26H22.1z"/>
	<path class="st1" d="M22.1,21.2c0,0,4-0.5,4-3.6v3.6H22.1z"/>
	<path class="st1" d="M22.1,16.4c0,0,4-0.5,4-3.6v3.6H22.1z"/>
	<path class="st4" d="M16.7,26c0,0,4-0.5,4-3.6V26H16.7z"/>
	<path class="st4" d="M16.7,21.2c0,0,4-0.5,4-3.6v3.6H16.7z"/>
	<path class="st4" d="M16.7,16.4c0,0,4-0.5,4-3.6v3.6H16.7z"/>
	<path class="st1" d="M11.3,26c0,0,4-0.5,4-3.6V26H11.3z"/>
	<path class="st1" d="M11.3,21.2c0,0,4-0.5,4-3.6v3.6H11.3z"/>
	<path class="st1" d="M11.3,16.4c0,0,4-0.5,4-3.6v3.6H11.3z"/>
	<path class="st4" d="M5.9,26c0,0,4-0.5,4-3.6V26H5.9z"/>
	<path class="st4" d="M5.9,21.2c0,0,4-0.5,4-3.6v3.6H5.9z"/>
	<path class="st4" d="M5.9,16.4c0,0,4-0.5,4-3.6v3.6H5.9z"/>
</g>
</svg>
