<?xml version="1.0" encoding="utf-8"?>
<!-- Generator: Adobe Illustrator 24.3.0, SVG Export Plug-In . SVG Version: 6.00 Build 0)  -->
<svg version="1.1" id="Capa_1" xmlns="http://www.w3.org/2000/svg" xmlns:xlink="http://www.w3.org/1999/xlink" x="0px" y="0px"
	 viewBox="0 0 32 32" style="enable-background:new 0 0 32 32;" xml:space="preserve">
<style type="text/css">
	.st0{fill:#17B5C8;}
	.st1{fill:#11828F;}
	.st2{fill:none;}
	.st3{fill:#A6D100;}
	.st4{fill:#89AB00;}
	.st5{fill:#5F7993;}
	.st6{fill:#405162;}
	.st7{fill:#FFFFFF;}
	.st8{fill:#3A5368;}
</style>
<g>
	<path class="st3" d="M30.6,9.1c0.2-0.2,0.4-0.5,0.6-0.7c0,0,0,0,0,0c0,0,0,0,0,0C31,8.6,30.8,8.8,30.6,9.1z"/>
	<path class="st5" d="M8.3,16l-6.7,6.7c-0.1,0.1-0.1,0.1-0.2,0.2c-0.1,2,0.6,4,2.2,5.5c1.5,1.5,3.5,2.2,5.5,2.2
		c0.1-0.1,0.1-0.1,0.2-0.2l6.7-6.7l-7.5-7.5L8.3,16z"/>
	<path class="st3" d="M23.7,16l3.4-3.4l3.3-3.3c0.1-0.1,0.1-0.1,0.2-0.2c0.1-2-0.6-4-2.2-5.5c-1.5-1.5-3.5-2.2-5.5-2.2
		c0.2-0.2,0.5-0.4,0.8-0.6c0,0,0,0,0,0c0,0,0,0,0,0c0.4-0.3,0.9-0.4,1.3-0.6c0.1,0,0.3-0.1,0.4-0.1c0.2,0,0.3-0.1,0.5-0.1
		c0.2,0,0.3,0,0.5,0c0.2,0,0.3,0,0.5,0c0.2,0,0.3,0,0.5,0c0.1,0,0.3,0,0.4,0.1c0.2,0,0.4,0.1,0.5,0.2c0.1,0,0.3,0.1,0.4,0.1
		c0.2,0.1,0.4,0.2,0.6,0.3c0.1,0.1,0.2,0.1,0.3,0.2c0.3,0.2,0.5,0.4,0.8,0.7c0,0,0,0,0,0c-1.8-1.8-4.6-2.1-6.7-0.7
		c-0.3,0.2-0.6,0.4-0.9,0.7l-3.3,3.3L16,8.3l0.2,0.2L23.7,16z"/>
	<path class="st6" d="M1.4,22.9c-0.2,0.2-0.4,0.5-0.6,0.8c0,0,0,0,0,0c0,0,0,0.1,0,0.1c-0.1,0.1-0.1,0.2-0.2,0.3
		c-0.1,0.1-0.1,0.2-0.2,0.3c-0.1,0.2-0.2,0.4-0.2,0.6c0,0.1-0.1,0.3-0.1,0.4c0,0.2-0.1,0.3-0.1,0.5c0,0.2,0,0.3,0,0.5
		c0,0.2,0,0.3,0,0.5c0,0.2,0,0.3,0,0.5c0,0.1,0,0.3,0.1,0.4c0,0.2,0.1,0.4,0.2,0.5c0,0.1,0.1,0.3,0.1,0.4c0.1,0.2,0.2,0.4,0.3,0.6
		c0.1,0.1,0.1,0.2,0.2,0.3c0.2,0.3,0.4,0.5,0.7,0.8c0,0,0,0,0,0l0,0l0,0c0.2,0.2,0.5,0.5,0.8,0.7c0.1,0.1,0.2,0.1,0.3,0.2
		c0.2,0.1,0.4,0.2,0.6,0.3c0.1,0.1,0.3,0.1,0.4,0.1c0.2,0.1,0.4,0.1,0.5,0.2c0.1,0,0.3,0.1,0.4,0.1c0.2,0,0.3,0,0.5,0
		c0.2,0,0.3,0,0.5,0c0.2,0,0.3,0,0.5,0c0.2,0,0.3,0,0.5-0.1c0.1,0,0.3-0.1,0.4-0.1c0.5-0.1,0.9-0.3,1.3-0.6c0,0,0,0,0,0c0,0,0,0,0,0
		c0.3-0.2,0.5-0.4,0.8-0.6c-2,0.1-4-0.6-5.5-2.2C2.1,26.9,1.3,24.9,1.4,22.9z"/>
	<polygon class="st4" points="30.6,9.1 30.6,9.1 30.6,9.1 	"/>
	<polygon class="st4" points="30.4,1.6 30.4,1.6 30.4,1.6 30.4,1.6 30.4,1.6 30.4,1.6 	"/>
	<path class="st4" d="M31.8,7C31.8,6.9,31.8,6.9,31.8,7C31.8,6.9,31.7,7,31.8,7C31.7,7,31.7,7,31.8,7z"/>
	<path class="st4" d="M31.2,8.3C31.2,8.3,31.2,8.3,31.2,8.3c0.1-0.2,0.2-0.3,0.2-0.4c0-0.1,0.1-0.1,0.1-0.2
		C31.4,7.9,31.3,8.1,31.2,8.3C31.2,8.3,31.2,8.3,31.2,8.3z"/>
	<path class="st4" d="M31.9,4.6c0-0.1,0-0.3-0.1-0.4c0,0,0,0,0,0C31.9,4.3,31.9,4.5,31.9,4.6C31.9,4.6,31.9,4.6,31.9,4.6z"/>
	<path class="st4" d="M31.2,2.7c-0.1-0.1-0.1-0.2-0.2-0.3c0,0,0,0,0,0C31.1,2.5,31.2,2.6,31.2,2.7C31.2,2.7,31.2,2.7,31.2,2.7z"/>
	<path class="st4" d="M32,5.6c0-0.2,0-0.3,0-0.5c0,0,0,0,0,0C32,5.3,32,5.5,32,5.6C32,5.6,32,5.6,32,5.6z"/>
	<path class="st4" d="M31.9,6.6c0-0.2,0.1-0.3,0.1-0.5c0,0,0,0,0,0C31.9,6.2,31.9,6.4,31.9,6.6C31.9,6.6,31.9,6.6,31.9,6.6z"/>
	<path class="st4" d="M31.7,3.6c0-0.1-0.1-0.3-0.1-0.4c0,0,0,0,0,0C31.6,3.4,31.6,3.5,31.7,3.6C31.7,3.6,31.7,3.6,31.7,3.6z"/>
	<path class="st4" d="M29.3,0.8c-0.2-0.1-0.4-0.2-0.6-0.3c-0.1-0.1-0.3-0.1-0.4-0.1c-0.2-0.1-0.4-0.1-0.5-0.2
		c-0.1,0-0.3-0.1-0.4-0.1c-0.2,0-0.3,0-0.5,0c-0.2,0-0.3,0-0.5,0c-0.2,0-0.3,0-0.5,0c-0.2,0-0.3,0-0.5,0.1c-0.1,0-0.3,0.1-0.4,0.1
		c-0.5,0.1-0.9,0.3-1.3,0.6c0,0,0,0,0,0c0,0,0,0,0,0c-0.3,0.2-0.5,0.4-0.8,0.6c2-0.1,4,0.6,5.5,2.2c1.5,1.5,2.2,3.5,2.2,5.5
		c0,0,0,0,0,0c0.2-0.2,0.4-0.5,0.6-0.8c0,0,0,0,0,0c0.1-0.2,0.2-0.4,0.3-0.6c0.1-0.2,0.2-0.5,0.3-0.7c0,0,0-0.1,0-0.1
		c0-0.1,0.1-0.2,0.1-0.3c0-0.2,0.1-0.4,0.1-0.6c0-0.1,0-0.3,0-0.4c0-0.2,0-0.3,0-0.5c0-0.2,0-0.3,0-0.5c0-0.2-0.1-0.3-0.1-0.5
		c0-0.2-0.1-0.3-0.2-0.5c0-0.1-0.1-0.3-0.1-0.4c-0.1-0.2-0.2-0.4-0.3-0.6c-0.1-0.1-0.1-0.2-0.2-0.3c-0.2-0.3-0.4-0.5-0.6-0.8
		c0,0,0,0,0,0c-0.2-0.2-0.5-0.5-0.8-0.7C29.5,0.9,29.4,0.8,29.3,0.8z"/>
	<path class="st4" d="M31.5,7.6c0.1-0.2,0.2-0.4,0.2-0.6c-0.1,0.3-0.2,0.5-0.3,0.7C31.5,7.7,31.5,7.7,31.5,7.6z"/>
	<path class="st0" d="M30.4,30.4c-0.2,0.2-0.5,0.5-0.8,0.6C29.9,30.9,30.2,30.7,30.4,30.4z"/>
	<path class="st0" d="M29.3,31.3c-0.2,0.1-0.4,0.2-0.6,0.3C28.9,31.5,29.1,31.4,29.3,31.3z"/>
	<path class="st0" d="M25.4,31.9c-0.1,0-0.2-0.1-0.3-0.1C25.2,31.8,25.3,31.8,25.4,31.9z"/>
	<path class="st0" d="M26.4,32c-0.1,0-0.3,0-0.4,0C26.1,32,26.2,32,26.4,32z"/>
	<path class="st0" d="M28.3,31.7c-0.2,0.1-0.3,0.1-0.5,0.2C28,31.8,28.2,31.8,28.3,31.7z"/>
	<path class="st0" d="M27.4,31.9c-0.2,0-0.3,0-0.5,0C27,32,27.2,32,27.4,31.9z"/>
	<path class="st0" d="M24.2,31.5c0.2,0.1,0.5,0.2,0.7,0.3c-0.2-0.1-0.4-0.1-0.6-0.2C24.3,31.5,24.3,31.5,24.2,31.5z"/>
	<path class="st0" d="M22.9,30.6c0.2,0.2,0.5,0.4,0.7,0.6c0,0,0,0,0,0c0,0,0,0,0,0C23.4,31,23.2,30.8,22.9,30.6z"/>
	<path class="st0" d="M31.2,23.7c-0.2-0.3-0.4-0.6-0.7-0.9l-3.3-3.3L23.7,16l-7.5-7.5L16,8.3L9.2,1.6C9.2,1.5,9.1,1.5,9.1,1.4
		c-2-0.1-4,0.6-5.5,2.2C2.1,5.1,1.3,7.1,1.4,9.1c0.1,0.1,0.1,0.1,0.2,0.2L8.3,16l0.2,0.2l7.5,7.5l3.4,3.4l3.3,3.3
		c0.1,0.1,0.1,0.1,0.2,0.2c2,0.1,4-0.6,5.5-2.2c1.5-1.5,2.2-3.5,2.2-5.5C30.8,23.2,31,23.4,31.2,23.7C31.2,23.7,31.2,23.7,31.2,23.7
		C31.2,23.7,31.2,23.7,31.2,23.7c0.3,0.5,0.5,0.9,0.6,1.3c0,0.1,0.1,0.3,0.1,0.4c0,0.2,0.1,0.3,0.1,0.5c0,0.2,0,0.3,0,0.5
		c0,0.2,0,0.3,0,0.5c0,0.2,0,0.3,0,0.5c0,0.1,0,0.3-0.1,0.4c0,0.2-0.1,0.4-0.2,0.5c0,0.1-0.1,0.3-0.1,0.4c-0.1,0.2-0.2,0.4-0.3,0.6
		c-0.1,0.1-0.1,0.2-0.2,0.3c-0.2,0.3-0.4,0.5-0.7,0.8c0,0,0,0,0,0C32.2,28.6,32.5,25.8,31.2,23.7z"/>
	<path class="st1" d="M9.1,1.4C8.8,1.2,8.6,1,8.3,0.8c0,0,0,0,0,0c0,0-0.1,0-0.1,0C8.1,0.7,8,0.7,7.9,0.6C7.8,0.6,7.7,0.5,7.6,0.5
		C7.4,0.4,7.2,0.3,7,0.2c-0.1,0-0.3-0.1-0.4-0.1c-0.2,0-0.3-0.1-0.5-0.1C5.9,0,5.8,0,5.6,0C5.4,0,5.3,0,5.1,0C5,0,4.8,0,4.6,0.1
		c-0.1,0-0.3,0-0.4,0.1C4,0.2,3.8,0.2,3.6,0.3c-0.1,0-0.3,0.1-0.4,0.1C3,0.5,2.9,0.6,2.7,0.8C2.6,0.8,2.5,0.9,2.4,0.9
		C2.1,1.1,1.8,1.3,1.6,1.6c0,0,0,0,0,0l0,0v0C1.3,1.8,1.1,2.1,0.9,2.4C0.9,2.5,0.8,2.6,0.8,2.7C0.6,2.9,0.5,3.1,0.4,3.3
		C0.4,3.4,0.3,3.5,0.3,3.6C0.2,3.8,0.2,4,0.1,4.2c0,0.1-0.1,0.3-0.1,0.4C0,4.8,0,5,0,5.1c0,0.2,0,0.3,0,0.5c0,0.2,0,0.3,0,0.5
		c0,0.2,0,0.3,0.1,0.5c0,0.1,0.1,0.3,0.1,0.4c0.1,0.5,0.3,0.9,0.6,1.3c0,0,0,0,0,0c0,0,0,0,0,0C1,8.6,1.2,8.8,1.4,9.1
		c-0.1-2,0.6-4,2.2-5.5C5.1,2.1,7.1,1.3,9.1,1.4z"/>
	<path class="st1" d="M29.3,31.2c0.1-0.1,0.2-0.1,0.3-0.2c0,0,0,0,0,0C29.5,31.1,29.4,31.2,29.3,31.2C29.3,31.3,29.3,31.2,29.3,31.2
		z"/>
	<polygon class="st1" points="30.4,30.4 30.4,30.4 30.4,30.4 30.4,30.4 30.4,30.4 30.4,30.4 	"/>
	<path class="st1" d="M28.4,31.7c0.1,0,0.3-0.1,0.4-0.1c0,0,0,0,0,0C28.6,31.6,28.5,31.7,28.4,31.7C28.3,31.7,28.3,31.7,28.4,31.7z"
		/>
	<path class="st1" d="M25.4,31.9c0.2,0,0.3,0.1,0.5,0.1c0,0,0,0,0,0C25.8,31.9,25.6,31.9,25.4,31.9C25.4,31.9,25.4,31.9,25.4,31.9z"
		/>
	<path class="st1" d="M27.4,31.9c0.1,0,0.3,0,0.4-0.1c0,0,0,0,0,0C27.7,31.9,27.5,31.9,27.4,31.9C27.4,31.9,27.4,31.9,27.4,31.9z"/>
	<polygon class="st1" points="22.9,30.6 22.9,30.6 22.9,30.6 	"/>
	<path class="st1" d="M23.7,31.2C23.7,31.2,23.7,31.2,23.7,31.2c0.2,0.1,0.3,0.2,0.4,0.2c0.1,0,0.1,0.1,0.2,0.1
		C24,31.4,23.9,31.3,23.7,31.2C23.7,31.2,23.7,31.2,23.7,31.2z"/>
	<path class="st1" d="M26.4,32c0.2,0,0.3,0,0.5,0c0,0,0,0,0,0C26.7,32,26.5,32,26.4,32C26.4,32,26.4,32,26.4,32z"/>
	<path class="st1" d="M25,31.8C25,31.8,25.1,31.8,25,31.8C25.1,31.8,25,31.8,25,31.8C25,31.7,25,31.8,25,31.8z"/>
	<path class="st1" d="M31.2,29.3c0.1-0.2,0.2-0.4,0.3-0.6c0.1-0.1,0.1-0.3,0.1-0.4c0.1-0.2,0.1-0.4,0.2-0.5c0-0.1,0.1-0.3,0.1-0.4
		c0-0.2,0-0.3,0-0.5c0-0.2,0-0.3,0-0.5c0-0.2,0-0.3,0-0.5c0-0.2,0-0.3-0.1-0.5c0-0.1-0.1-0.3-0.1-0.4c-0.1-0.5-0.3-0.9-0.6-1.3
		c0,0,0,0,0,0c0,0,0,0,0,0c-0.2-0.3-0.4-0.5-0.6-0.8c0.1,2-0.6,4-2.2,5.5c-1.5,1.5-3.5,2.2-5.5,2.2c0,0,0,0,0,0
		c0.2,0.2,0.5,0.4,0.8,0.6c0,0,0,0,0,0c0.2,0.1,0.4,0.2,0.6,0.3c0.1,0,0.1,0.1,0.2,0.1c0.2,0.1,0.4,0.2,0.6,0.2c0,0,0.1,0,0.1,0
		c0.1,0,0.2,0.1,0.3,0.1c0.2,0,0.4,0.1,0.6,0.1c0.1,0,0.3,0,0.4,0c0.2,0,0.3,0,0.5,0c0.2,0,0.3,0,0.5,0c0.2,0,0.3-0.1,0.5-0.1
		c0.2,0,0.3-0.1,0.5-0.2c0.1,0,0.3-0.1,0.4-0.1c0.2-0.1,0.4-0.2,0.6-0.3c0.1-0.1,0.2-0.1,0.3-0.2c0.3-0.2,0.5-0.4,0.8-0.6
		c0,0,0,0,0,0c0.2-0.2,0.5-0.5,0.7-0.8C31.1,29.5,31.2,29.4,31.2,29.3z"/>
</g>
</svg>
