<?xml version="1.0" encoding="utf-8"?>
<!-- Generator: Adobe Illustrator 24.3.0, SVG Export Plug-In . SVG Version: 6.00 Build 0)  -->
<svg version="1.1" id="Capa_1" xmlns="http://www.w3.org/2000/svg" xmlns:xlink="http://www.w3.org/1999/xlink" x="0px" y="0px"
	 viewBox="0 0 32 32" style="enable-background:new 0 0 32 32;" xml:space="preserve">
<style type="text/css">
	.st0{fill:#17B5C8;}
	.st1{fill:#11828F;}
	.st2{fill:none;}
	.st3{fill:#A6D100;}
	.st4{fill:#89AB00;}
	.st5{fill:#5F7993;}
	.st6{fill:#405162;}
	.st7{fill:#FFFFFF;}
	.st8{fill:#3A5368;}
</style>
<g>
	<g>
		<path class="st0" d="M4.7,30.1c0-0.2,0.1-0.3,0.1-0.5v-2.1v-6.8v-5.5c0,0,0-0.1,0-0.1c-0.6-0.6-1.4-1-2.4-1c-0.9,0-1.8,0.4-2.4,1
			c0,0,0,0.1,0,0.1v5.5v6.8v2.1c0,0.2,0,0.4,0.1,0.5C0.3,31.2,1.2,32,2.4,32C3.5,32,4.5,31.2,4.7,30.1z"/>
		<path class="st1" d="M2.4,14.1c0.9,0,1.8,0.4,2.4,1c0-0.1,0-0.3-0.1-0.4c0,0,0,0,0,0c0,0,0,0,0,0c0-0.1,0-0.1,0-0.1
			c0-0.1,0-0.1-0.1-0.2c0-0.1-0.1-0.2-0.1-0.3c0-0.1-0.1-0.1-0.1-0.2c0-0.1-0.1-0.1-0.1-0.2c0-0.1-0.1-0.1-0.1-0.2
			c0-0.1-0.1-0.1-0.2-0.1c-0.1,0-0.1-0.1-0.2-0.1c-0.1,0-0.1-0.1-0.2-0.1c-0.1,0-0.1-0.1-0.2-0.1c-0.1,0-0.1-0.1-0.2-0.1
			C3.2,13,3.1,13,3,12.9c0,0-0.1,0-0.1,0c-0.1,0-0.3,0-0.5,0c0,0,0,0,0,0h0h0c-0.2,0-0.3,0-0.5,0c0,0-0.1,0-0.1,0
			C1.7,13,1.6,13,1.5,13c-0.1,0-0.1,0-0.2,0.1c-0.1,0-0.1,0.1-0.2,0.1c-0.1,0-0.1,0.1-0.2,0.1c-0.1,0-0.1,0.1-0.2,0.1
			c-0.1,0-0.1,0.1-0.2,0.1c0,0.1-0.1,0.1-0.1,0.2c0,0.1-0.1,0.1-0.1,0.2c0,0.1-0.1,0.1-0.1,0.2c-0.1,0.2-0.2,0.4-0.2,0.6
			c0,0,0,0,0,0c0,0,0,0,0,0C0,14.9,0,15,0,15.1C0.6,14.5,1.4,14.1,2.4,14.1z"/>
		<path class="st1" d="M2.4,30.8c-0.9,0-1.8-0.4-2.4-1c0,0.1,0,0.3,0.1,0.4c0,0,0,0,0,0c0,0,0,0,0,0c0,0.1,0,0.1,0,0.1
			c0,0.1,0,0.1,0.1,0.2c0,0.1,0.1,0.2,0.1,0.3c0,0.1,0.1,0.1,0.1,0.2c0,0.1,0.1,0.1,0.1,0.2c0,0.1,0.1,0.1,0.1,0.2
			c0,0.1,0.1,0.1,0.2,0.1c0.1,0,0.1,0.1,0.2,0.1c0.1,0,0.1,0.1,0.2,0.1c0.1,0,0.1,0.1,0.2,0.1c0.1,0,0.1,0.1,0.2,0.1
			c0.1,0,0.2,0.1,0.3,0.1c0,0,0.1,0,0.1,0c0.1,0,0.3,0,0.5,0c0,0,0,0,0,0h0h0c0.2,0,0.3,0,0.5,0c0,0,0.1,0,0.1,0
			c0.1,0,0.2-0.1,0.3-0.1c0.1,0,0.1,0,0.2-0.1c0.1,0,0.1-0.1,0.2-0.1c0.1,0,0.1-0.1,0.2-0.1c0.1,0,0.1-0.1,0.2-0.1
			c0.1,0,0.1-0.1,0.2-0.1c0-0.1,0.1-0.1,0.1-0.2c0-0.1,0.1-0.1,0.1-0.2c0-0.1,0.1-0.1,0.1-0.2c0.1-0.2,0.2-0.4,0.2-0.6c0,0,0,0,0,0
			c0,0,0,0,0,0c0-0.1,0-0.3,0.1-0.4C4.2,30.4,3.3,30.8,2.4,30.8z"/>
	</g>
	<g>
		<path class="st3" d="M11.4,30.1c0-0.2,0.1-0.3,0.1-0.5v-2.1v-6.8v-5.5c0,0,0-0.1,0-0.1c-0.6-0.6-1.4-1-2.4-1c-0.9,0-1.8,0.4-2.4,1
			c0,0,0,0.1,0,0.1v5.5v6.8v2.1c0,0.2,0,0.4,0.1,0.5C7,31.2,7.9,32,9.1,32C10.2,32,11.1,31.2,11.4,30.1z"/>
		<path class="st4" d="M9.1,14.1c0.9,0,1.8,0.4,2.4,1c0-0.1,0-0.3-0.1-0.4c0,0,0,0,0,0c0,0,0,0,0,0c0-0.1,0-0.1,0-0.1
			c0-0.1,0-0.1-0.1-0.2c0-0.1-0.1-0.2-0.1-0.3c0-0.1-0.1-0.1-0.1-0.2c0-0.1-0.1-0.1-0.1-0.2c0-0.1-0.1-0.1-0.1-0.2
			c0-0.1-0.1-0.1-0.2-0.1c-0.1,0-0.1-0.1-0.2-0.1c-0.1,0-0.1-0.1-0.2-0.1c-0.1,0-0.1-0.1-0.2-0.1c-0.1,0-0.1-0.1-0.2-0.1
			c-0.1,0-0.2-0.1-0.3-0.1c0,0-0.1,0-0.1,0c-0.1,0-0.3,0-0.5,0c0,0,0,0,0,0h0h0c-0.2,0-0.3,0-0.5,0c0,0-0.1,0-0.1,0
			C8.4,13,8.3,13,8.2,13c-0.1,0-0.1,0-0.2,0.1c-0.1,0-0.1,0.1-0.2,0.1c-0.1,0-0.1,0.1-0.2,0.1c-0.1,0-0.1,0.1-0.2,0.1
			c-0.1,0-0.1,0.1-0.2,0.1c0,0.1-0.1,0.1-0.1,0.2c0,0.1-0.1,0.1-0.1,0.2C7,14,7,14.1,7,14.1c-0.1,0.2-0.2,0.4-0.2,0.6c0,0,0,0,0,0
			c0,0,0,0,0,0c0,0.1,0,0.3-0.1,0.4C7.3,14.5,8.1,14.1,9.1,14.1z"/>
		<path class="st4" d="M9.1,30.8c-0.9,0-1.8-0.4-2.4-1c0,0.1,0,0.3,0.1,0.4c0,0,0,0,0,0c0,0,0,0,0,0c0,0.1,0,0.1,0,0.1
			c0,0.1,0,0.1,0.1,0.2c0,0.1,0.1,0.2,0.1,0.3C7,30.8,7,30.8,7,30.9c0,0.1,0.1,0.1,0.1,0.2c0,0.1,0.1,0.1,0.1,0.2
			c0,0.1,0.1,0.1,0.2,0.1c0.1,0,0.1,0.1,0.2,0.1c0.1,0,0.1,0.1,0.2,0.1c0.1,0,0.1,0.1,0.2,0.1c0.1,0,0.1,0.1,0.2,0.1
			c0.1,0,0.2,0.1,0.3,0.1c0,0,0.1,0,0.1,0c0.1,0,0.3,0,0.5,0c0,0,0,0,0,0h0h0c0.2,0,0.3,0,0.5,0c0,0,0.1,0,0.1,0
			c0.1,0,0.2-0.1,0.3-0.1c0.1,0,0.1,0,0.2-0.1c0.1,0,0.1-0.1,0.2-0.1c0.1,0,0.1-0.1,0.2-0.1c0.1,0,0.1-0.1,0.2-0.1
			c0.1,0,0.1-0.1,0.2-0.1c0-0.1,0.1-0.1,0.1-0.2c0-0.1,0.1-0.1,0.1-0.2c0-0.1,0.1-0.1,0.1-0.2c0.1-0.2,0.2-0.4,0.2-0.6c0,0,0,0,0,0
			c0,0,0,0,0,0c0-0.1,0-0.3,0.1-0.4C10.8,30.4,10,30.8,9.1,30.8z"/>
	</g>
	<g>
		<path class="st3" d="M31.9,30.1c0-0.2,0.1-0.3,0.1-0.5v-2.1v-6.8v-5.5c0,0,0-0.1,0-0.1c-0.6-0.6-1.4-1-2.4-1c-0.9,0-1.8,0.4-2.4,1
			c0,0,0,0.1,0,0.1v5.5v6.8v2.1c0,0.2,0,0.4,0.1,0.5c0.2,1.1,1.2,1.9,2.3,1.9C30.7,32,31.7,31.2,31.9,30.1z"/>
		<path class="st4" d="M29.6,14.1c0.9,0,1.8,0.4,2.4,1c0-0.1,0-0.3-0.1-0.4c0,0,0,0,0,0c0,0,0,0,0,0c0-0.1,0-0.1,0-0.1
			c0-0.1,0-0.1-0.1-0.2c0-0.1-0.1-0.2-0.1-0.3c0-0.1-0.1-0.1-0.1-0.2c0-0.1-0.1-0.1-0.1-0.2c0-0.1-0.1-0.1-0.1-0.2
			c0-0.1-0.1-0.1-0.2-0.1c-0.1,0-0.1-0.1-0.2-0.1c-0.1,0-0.1-0.1-0.2-0.1c-0.1,0-0.1-0.1-0.2-0.1c-0.1,0-0.1-0.1-0.2-0.1
			c-0.1,0-0.2-0.1-0.3-0.1c0,0-0.1,0-0.1,0c-0.1,0-0.3,0-0.5,0c0,0,0,0,0,0h0h0c-0.2,0-0.3,0-0.5,0c0,0-0.1,0-0.1,0
			c-0.1,0-0.2,0.1-0.3,0.1c-0.1,0-0.1,0-0.2,0.1c-0.1,0-0.1,0.1-0.2,0.1c-0.1,0-0.1,0.1-0.2,0.1c-0.1,0-0.1,0.1-0.2,0.1
			c-0.1,0-0.1,0.1-0.2,0.1c0,0.1-0.1,0.1-0.1,0.2c0,0.1-0.1,0.1-0.1,0.2c0,0.1-0.1,0.1-0.1,0.2c-0.1,0.2-0.2,0.4-0.2,0.6
			c0,0,0,0,0,0c0,0,0,0,0,0c0,0.1,0,0.3-0.1,0.4C27.8,14.5,28.7,14.1,29.6,14.1z"/>
		<path class="st4" d="M29.6,30.8c-0.9,0-1.8-0.4-2.4-1c0,0.1,0,0.3,0.1,0.4c0,0,0,0,0,0c0,0,0,0,0,0c0,0.1,0,0.1,0,0.1
			c0,0.1,0,0.1,0.1,0.2c0,0.1,0.1,0.2,0.1,0.3c0,0.1,0.1,0.1,0.1,0.2c0,0.1,0.1,0.1,0.1,0.2c0,0.1,0.1,0.1,0.1,0.2
			c0,0.1,0.1,0.1,0.2,0.1c0.1,0,0.1,0.1,0.2,0.1c0.1,0,0.1,0.1,0.2,0.1c0.1,0,0.1,0.1,0.2,0.1c0.1,0,0.1,0.1,0.2,0.1
			c0.1,0,0.2,0.1,0.3,0.1c0,0,0.1,0,0.1,0c0.1,0,0.3,0,0.5,0c0,0,0,0,0,0h0h0c0.2,0,0.3,0,0.5,0c0,0,0.1,0,0.1,0
			c0.1,0,0.2-0.1,0.3-0.1c0.1,0,0.1,0,0.2-0.1c0.1,0,0.1-0.1,0.2-0.1c0.1,0,0.1-0.1,0.2-0.1c0.1,0,0.1-0.1,0.2-0.1
			c0.1,0,0.1-0.1,0.2-0.1c0-0.1,0.1-0.1,0.1-0.2c0-0.1,0.1-0.1,0.1-0.2c0-0.1,0.1-0.1,0.1-0.2c0.1-0.2,0.2-0.4,0.2-0.6c0,0,0,0,0,0
			c0,0,0,0,0,0c0-0.1,0-0.3,0.1-0.4C31.4,30.4,30.5,30.8,29.6,30.8z"/>
	</g>
	<g>
		<path class="st0" d="M18.1,30.1c0-0.2,0.1-0.3,0.1-0.5v-2.1v-6.8v-5.5c0,0,0-0.1,0-0.1c-0.6-0.6-1.4-1-2.4-1c-0.9,0-1.8,0.4-2.4,1
			c0,0,0,0.1,0,0.1v5.5v6.8v2.1c0,0.2,0,0.4,0.1,0.5c0.2,1.1,1.2,1.9,2.3,1.9C16.9,32,17.8,31.2,18.1,30.1z"/>
		<path class="st1" d="M15.7,14.1c0.9,0,1.8,0.4,2.4,1c0-0.1,0-0.3-0.1-0.4c0,0,0,0,0,0c0,0,0,0,0,0c0-0.1,0-0.1,0-0.1
			c0-0.1,0-0.1-0.1-0.2c0-0.1-0.1-0.2-0.1-0.3c0-0.1-0.1-0.1-0.1-0.2c0-0.1-0.1-0.1-0.1-0.2c0-0.1-0.1-0.1-0.1-0.2
			c0-0.1-0.1-0.1-0.2-0.1c-0.1,0-0.1-0.1-0.2-0.1c-0.1,0-0.1-0.1-0.2-0.1c-0.1,0-0.1-0.1-0.2-0.1c-0.1,0-0.1-0.1-0.2-0.1
			c-0.1,0-0.2-0.1-0.3-0.1c0,0-0.1,0-0.1,0c-0.1,0-0.3,0-0.5,0c0,0,0,0,0,0h0h0c-0.2,0-0.3,0-0.5,0c0,0-0.1,0-0.1,0
			C15,13,14.9,13,14.9,13c-0.1,0-0.1,0-0.2,0.1c-0.1,0-0.1,0.1-0.2,0.1c-0.1,0-0.1,0.1-0.2,0.1c-0.1,0-0.1,0.1-0.2,0.1
			c-0.1,0-0.1,0.1-0.2,0.1c0,0.1-0.1,0.1-0.1,0.2c0,0.1-0.1,0.1-0.1,0.2c0,0.1-0.1,0.1-0.1,0.2c-0.1,0.2-0.2,0.4-0.2,0.6
			c0,0,0,0,0,0c0,0,0,0,0,0c0,0.1,0,0.3-0.1,0.4C13.9,14.5,14.8,14.1,15.7,14.1z"/>
		<path class="st1" d="M15.7,30.8c-0.9,0-1.8-0.4-2.4-1c0,0.1,0,0.3,0.1,0.4c0,0,0,0,0,0c0,0,0,0,0,0c0,0.1,0,0.1,0,0.1
			c0,0.1,0,0.1,0.1,0.2c0,0.1,0.1,0.2,0.1,0.3c0,0.1,0.1,0.1,0.1,0.2c0,0.1,0.1,0.1,0.1,0.2c0,0.1,0.1,0.1,0.1,0.2
			c0,0.1,0.1,0.1,0.2,0.1c0.1,0,0.1,0.1,0.2,0.1c0.1,0,0.1,0.1,0.2,0.1c0.1,0,0.1,0.1,0.2,0.1c0.1,0,0.1,0.1,0.2,0.1
			c0.1,0,0.2,0.1,0.3,0.1c0,0,0.1,0,0.1,0c0.1,0,0.3,0,0.5,0c0,0,0,0,0,0h0h0c0.2,0,0.3,0,0.5,0c0,0,0.1,0,0.1,0
			c0.1,0,0.2-0.1,0.3-0.1c0.1,0,0.1,0,0.2-0.1c0.1,0,0.1-0.1,0.2-0.1c0.1,0,0.1-0.1,0.2-0.1c0.1,0,0.1-0.1,0.2-0.1
			c0.1,0,0.1-0.1,0.2-0.1c0-0.1,0.1-0.1,0.1-0.2c0-0.1,0.1-0.1,0.1-0.2c0-0.1,0.1-0.1,0.1-0.2c0.1-0.2,0.2-0.4,0.2-0.6c0,0,0,0,0,0
			c0,0,0,0,0,0c0-0.1,0-0.3,0.1-0.4C17.5,30.4,16.7,30.8,15.7,30.8z"/>
	</g>
	<path class="st5" d="M23.3,9.8h-1.8V0.9c0-0.5,0.4-0.9,0.9-0.9h0c0.5,0,0.9,0.4,0.9,0.9V9.8z"/>
	<path class="st5" d="M22.6,14.5l2.5-4.3c0.1-0.2,0-0.4-0.2-0.4h-5c-0.2,0-0.4,0.2-0.2,0.4l2.5,4.3C22.3,14.7,22.5,14.7,22.6,14.5z"
		/>
	<path class="st6" d="M21.5,9.4v0.4h1.8V9.4V7.1C23.3,7.1,22.9,9.4,21.5,9.4z"/>
</g>
</svg>
