<?xml version="1.0" encoding="UTF-8" standalone="no"?>
<!-- Generator: Adobe Illustrator 24.3.0, SVG Export Plug-In . SVG Version: 6.00 Build 0)  -->

<svg
   xmlns:dc="http://purl.org/dc/elements/1.1/"
   xmlns:cc="http://creativecommons.org/ns#"
   xmlns:rdf="http://www.w3.org/1999/02/22-rdf-syntax-ns#"
   xmlns:svg="http://www.w3.org/2000/svg"
   xmlns="http://www.w3.org/2000/svg"
   xmlns:sodipodi="http://sodipodi.sourceforge.net/DTD/sodipodi-0.dtd"
   xmlns:inkscape="http://www.inkscape.org/namespaces/inkscape"
   version="1.1"
   id="Capa_1"
   x="0px"
   y="0px"
   viewBox="0 0 32 32"
   style="enable-background:new 0 0 32 32;"
   xml:space="preserve"
   sodipodi:docname="close-on.svg"
   inkscape:version="0.92.5 (2060ec1f9f, 2020-04-08)"><metadata
   id="metadata1013"><rdf:RDF><cc:Work
       rdf:about=""><dc:format>image/svg+xml</dc:format><dc:type
         rdf:resource="http://purl.org/dc/dcmitype/StillImage" /><dc:title></dc:title></cc:Work></rdf:RDF></metadata><defs
   id="defs1011" /><sodipodi:namedview
   pagecolor="#ffffff"
   bordercolor="#666666"
   borderopacity="1"
   objecttolerance="10"
   gridtolerance="10"
   guidetolerance="10"
   inkscape:pageopacity="0"
   inkscape:pageshadow="2"
   inkscape:window-width="1920"
   inkscape:window-height="1027"
   id="namedview1009"
   showgrid="false"
   inkscape:zoom="27.4375"
   inkscape:cx="16"
   inkscape:cy="16"
   inkscape:window-x="0"
   inkscape:window-y="27"
   inkscape:window-maximized="1"
   inkscape:current-layer="Capa_1" />
<style
   type="text/css"
   id="style1002">
	.st0{fill:#17B5C8;}
	.st1{fill:#11828F;}
	.st2{fill:none;}
	.st3{fill:#A6D100;}
	.st4{fill:#89AB00;}
	.st5{fill:#5F7993;}
	.st6{fill:#405162;}
	.st7{fill:#FFFFFF;}
	.st8{fill:#3A5368;}
</style>
<path
   class="st1"
   d="M16,0c-0.5,0-1,0-1.5,0.1C22.6,0.8,29,7.7,29,16s-6.4,15.2-14.5,15.9c0.5,0,1,0.1,1.5,0.1c8.8,0,16-7.2,16-16  S24.8,0,16,0z"
   id="path1004" />
<path
   class="st0"
   d="M 14.5,0.1 C 6.4,0.8 0,7.7 0,16 0,24.3 6.4,31.2 14.5,31.9 22.6,31.2 29,24.3 29,16 29,7.7 22.6,0.8 14.5,0.1 Z"
   id="path1006"
   inkscape:connector-curvature="0"
   style="fill:#17b5c8"
   sodipodi:nodetypes="cscsc" />
<path
   transform="rotate(45.29144)"
   style="opacity:1;fill:#ffffff;fill-opacity:1;fill-rule:nonzero;stroke:none;stroke-width:1.00157475;stroke-linecap:round;stroke-linejoin:round;stroke-miterlimit:4;stroke-dasharray:none;stroke-dashoffset:0;stroke-opacity:1"
   d="m 20.404549,-6.1142759 c 0,-2.4235997 4.090522,-2.4084275 4.090522,0 V 5.6737528 c 0,2.1588835 -4.090522,2.6772543 -4.090522,0 z"
   id="rect1018"
   inkscape:connector-curvature="0"
   sodipodi:nodetypes="sssss" /><path
   style="opacity:1;fill:#ffffff;fill-opacity:1;fill-rule:nonzero;stroke:none;stroke-width:1.00157475;stroke-linecap:round;stroke-linejoin:round;stroke-miterlimit:4;stroke-dasharray:none;stroke-dashoffset:0;stroke-opacity:1"
   d="M 13.2,10.2 C 11.477562,8.4949959 8.610658,11.412781 10.322314,13.107111 L 18.7,21.400001 c 1.534307,1.518776 4.780396,-1.023661 2.877686,-2.907112 z"
   id="rect1018-3"
   inkscape:connector-curvature="0"
   sodipodi:nodetypes="sssss" /></svg>