<?xml version="1.0" encoding="utf-8"?>
<!-- Generator: Adobe Illustrator 24.3.0, SVG Export Plug-In . SVG Version: 6.00 Build 0)  -->
<svg version="1.1" id="Capa_1" xmlns="http://www.w3.org/2000/svg" xmlns:xlink="http://www.w3.org/1999/xlink" x="0px" y="0px"
	 viewBox="0 0 32 32" style="enable-background:new 0 0 32 32;" xml:space="preserve">
<style type="text/css">
	.st0{fill:#17B5C8;}
	.st1{fill:#11828F;}
	.st2{fill:none;}
	.st3{fill:#A6D100;}
	.st4{fill:#89AB00;}
	.st5{fill:#5F7993;}
	.st6{fill:#405162;}
	.st7{fill:#FFFFFF;}
	.st8{fill:#3A5368;}
</style>
<g>
	<path class="st0" d="M1.4,7.8c1.5,0,29.2,0,29.2,0s0.9,0.1,1.4,0.8c0,0,0-0.1,0-0.1c0-0.3,0-0.7,0-1c0-0.2,0-1.1-0.8-1.8
		c-0.7-0.7-1.6-0.7-1.8-0.7h-1.5H16.1h-2.9c-0.4,0-0.8-0.2-1.1-0.5L9.9,1.9C9.7,1.6,9.3,1.4,8.8,1.4H2.6c-0.2,0-1,0-1.7,0.7
		C0,2.8,0,3.8,0,3.9v4.4C0.3,8.1,0.7,7.8,1.4,7.8z"/>
	<path class="st1" d="M0,11.1h32c0-0.8,0-1.6,0-2.5c-0.5-0.7-1.4-0.8-1.4-0.8s-27.7,0-29.2,0C0.7,7.8,0.3,8.1,0,8.4v0.2V11.1z"/>
</g>
<g>
	<path class="st5" d="M28.5,7.8L28.5,7.8l-2.4-5.3c-0.3-0.7-1.2-1-1.9-0.7l-13.2,6c0,0,0,0,0,0H28.5z"/>
	<polygon class="st6" points="28.8,8.4 28.5,7.8 28.5,7.8 11.1,7.8 11.1,7.8 9.8,8.4 	"/>
</g>
<g>
	<path class="st3" d="M32,17.3v-7.2c0-1-0.8-1.8-1.8-1.8H1.8c-1,0-1.8,0.8-1.8,1.8v18.7c0,1,0.8,1.8,1.8,1.8h19.8
		C21.6,30.6,32,26.1,32,17.3z"/>
	<path class="st4" d="M32,28.8V17.3c0,8.8-10.4,13.3-10.4,13.3h8.6C31.2,30.6,32,29.8,32,28.8z"/>
</g>
<path class="st7" d="M24,14.7H8c-0.8,0-1.4,0.6-1.4,1.4v6.7c0,0.8,0.6,1.4,1.4,1.4h16c0.8,0,1.4-0.6,1.4-1.4v-6.7
	C25.4,15.3,24.8,14.7,24,14.7z"/>
<g>
	<path class="st5" d="M22.3,17.3H9.7c-0.3,0-0.6,0.3-0.6,0.6v0c0,0.3,0.3,0.6,0.6,0.6h12.6c0.3,0,0.6-0.3,0.6-0.6v0
		C22.9,17.6,22.6,17.3,22.3,17.3z"/>
	<path class="st5" d="M19.1,20.5H9.7c-0.3,0-0.6,0.3-0.6,0.6v0c0,0.3,0.3,0.6,0.6,0.6h9.4c0.3,0,0.6-0.3,0.6-0.6v0
		C19.7,20.8,19.4,20.5,19.1,20.5z"/>
	<path class="st5" d="M22.3,20.5h-0.6c-0.3,0-0.6,0.3-0.6,0.6v0c0,0.3,0.3,0.6,0.6,0.6h0.6c0.3,0,0.6-0.3,0.6-0.6v0
		C22.9,20.8,22.6,20.5,22.3,20.5z"/>
</g>
</svg>
