<?xml version="1.0" encoding="utf-8"?>
<!-- Generator: Adobe Illustrator 24.3.0, SVG Export Plug-In . SVG Version: 6.00 Build 0)  -->
<svg version="1.1" id="Capa_1" xmlns="http://www.w3.org/2000/svg" xmlns:xlink="http://www.w3.org/1999/xlink" x="0px" y="0px"
	 viewBox="0 0 32 32" style="enable-background:new 0 0 32 32;" xml:space="preserve">
<style type="text/css">
	.st0{fill:#17B5C8;}
	.st1{fill:#11828F;}
	.st2{fill:none;}
	.st3{fill:#A6D100;}
	.st4{fill:#89AB00;}
	.st5{fill:#5F7993;}
	.st6{fill:#405162;}
	.st7{fill:#FFFFFF;}
	.st8{fill:#3A5368;}
</style>
<g>
	<path class="st5" d="M29.8,5.4H27c-1.5,0-2.6-1.2-2.6-2.6V0.2L24.4,0l-0.1-0.1h-15c-1.5,0-2.6,1.2-2.6,2.6v1.2h13.1
		c0.5,0,1.1,0.2,1.4,0.6l4.3,4.3c0.4,0.4,0.6,0.9,0.6,1.4v17.5h1c1.5,0,2.6-1.2,2.6-2.6L29.8,5.4L29.8,5.4z"/>
	<polygon class="st6" points="29.9,5.4 24.5,-0.1 24.4,0 29.8,5.4 	"/>
	<path class="st6" d="M24.4,2.7c0,1.5,1.2,2.6,2.6,2.6h2.8L24.4,0l-0.1,0.2V2.7z"/>
	<path class="st6" d="M20,3.5H6.7V25c0,1.5,1.2,2.7,2.7,2.7h17V9.9c0-0.5-0.2-1-0.6-1.4l-4.5-4.5C21,3.7,20.5,3.5,20,3.5z"/>
</g>
<g>
	<path class="st0" d="M25.5,9.7l-5.4-5.4h-15c-1.5,0-2.6,1.2-2.6,2.6v22.4c0,1.5,1.2,2.6,2.6,2.6h17.9c1.5,0,2.6-1.2,2.6-2.6
		L25.5,9.7L25.5,9.7z"/>
	<path class="st1" d="M20.1,4.5V7c0,1.5,1.2,2.6,2.6,2.6h2.9l-5.4-5.4L20.1,4.5z"/>
</g>
<g>
	<path class="st7" d="M11.4,12.6c-0.3,0-0.5,0.2-0.5,0.5c0,0.3,0.2,0.5,0.5,0.5H21c0.3,0,0.5-0.2,0.5-0.5c0-0.3-0.2-0.5-0.5-0.5
		H11.4z"/>
	<path class="st7" d="M6.1,16.9h8.5c0.3,0,0.5-0.2,0.5-0.5c0-0.3-0.2-0.5-0.5-0.5H6.1c-0.3,0-0.5,0.2-0.5,0.5
		C5.6,16.7,5.8,16.9,6.1,16.9z"/>
	<path class="st7" d="M21,19h-6.4c-0.3,0-0.5,0.2-0.5,0.5s0.2,0.5,0.5,0.5H21c0.3,0,0.5-0.2,0.5-0.5S21.3,19,21,19z"/>
	<path class="st7" d="M6.1,23.3h9.6c0.3,0,0.5-0.2,0.5-0.5s-0.2-0.5-0.5-0.5H6.1c-0.3,0-0.5,0.2-0.5,0.5S5.8,23.3,6.1,23.3z"/>
	<path class="st7" d="M6.1,13.7h3.2c0.3,0,0.5-0.2,0.5-0.5c0-0.3-0.2-0.5-0.5-0.5H6.1c-0.3,0-0.5,0.2-0.5,0.5
		C5.6,13.5,5.8,13.7,6.1,13.7z"/>
	<path class="st7" d="M21,15.8h-4.3c-0.3,0-0.5,0.2-0.5,0.5c0,0.3,0.2,0.5,0.5,0.5H21c0.3,0,0.5-0.2,0.5-0.5
		C21.6,16.1,21.3,15.8,21,15.8z"/>
	<path class="st7" d="M6.1,20.1h6.4c0.3,0,0.5-0.2,0.5-0.5S12.8,19,12.5,19H6.1c-0.3,0-0.5,0.2-0.5,0.5S5.8,20.1,6.1,20.1z"/>
	<path class="st7" d="M21,22.2h-3.2c-0.3,0-0.5,0.2-0.5,0.5s0.2,0.5,0.5,0.5H21c0.3,0,0.5-0.2,0.5-0.5S21.3,22.2,21,22.2z"/>
	<path class="st7" d="M9.3,25.4H6.1c-0.3,0-0.5,0.2-0.5,0.5s0.2,0.5,0.5,0.5h3.2c0.3,0,0.5-0.2,0.5-0.5S9.6,25.4,9.3,25.4z"/>
	<path class="st7" d="M6.1,10.5h6.4c0.3,0,0.5-0.2,0.5-0.5c0-0.3-0.2-0.5-0.5-0.5H6.1c-0.3,0-0.5,0.2-0.5,0.5
		C5.6,10.3,5.8,10.5,6.1,10.5z"/>
	<path class="st7" d="M16.8,25.4h-5.3c-0.3,0-0.5,0.2-0.5,0.5s0.2,0.5,0.5,0.5h5.3c0.3,0,0.5-0.2,0.5-0.5S17.1,25.4,16.8,25.4z"/>
	<path class="st7" d="M21,25.4h-2.1c-0.3,0-0.5,0.2-0.5,0.5s0.2,0.5,0.5,0.5H21c0.3,0,0.5-0.2,0.5-0.5S21.3,25.4,21,25.4z"/>
</g>
</svg>
