<?xml version="1.0" encoding="UTF-8" standalone="no"?>
<!-- Generator: Adobe Illustrator 24.3.0, SVG Export Plug-In . SVG Version: 6.00 Build 0)  -->

<svg
   xmlns:dc="http://purl.org/dc/elements/1.1/"
   xmlns:cc="http://creativecommons.org/ns#"
   xmlns:rdf="http://www.w3.org/1999/02/22-rdf-syntax-ns#"
   xmlns:svg="http://www.w3.org/2000/svg"
   xmlns="http://www.w3.org/2000/svg"
   xmlns:sodipodi="http://sodipodi.sourceforge.net/DTD/sodipodi-0.dtd"
   xmlns:inkscape="http://www.inkscape.org/namespaces/inkscape"
   version="1.1"
   id="Capa_1"
   x="0px"
   y="0px"
   viewBox="0 0 32 32"
   style="enable-background:new 0 0 32 32;"
   xml:space="preserve"
   sodipodi:docname="download.svg"
   inkscape:version="0.92.5 (2060ec1f9f, 2020-04-08)"><metadata
   id="metadata25"><rdf:RDF><cc:Work
       rdf:about=""><dc:format>image/svg+xml</dc:format><dc:type
         rdf:resource="http://purl.org/dc/dcmitype/StillImage" /></cc:Work></rdf:RDF></metadata><defs
   id="defs23" /><sodipodi:namedview
   pagecolor="#ffffff"
   bordercolor="#666666"
   borderopacity="1"
   objecttolerance="10"
   gridtolerance="10"
   guidetolerance="10"
   inkscape:pageopacity="0"
   inkscape:pageshadow="2"
   inkscape:window-width="1920"
   inkscape:window-height="1043"
   id="namedview21"
   showgrid="false"
   inkscape:zoom="20.85965"
   inkscape:cx="16"
   inkscape:cy="16"
   inkscape:window-x="0"
   inkscape:window-y="1080"
   inkscape:window-maximized="1"
   inkscape:current-layer="g18" />
<style
   type="text/css"
   id="style2">
	.st0{fill:#17B5C8;}
	.st1{fill:#11828F;}
	.st2{fill:none;}
	.st3{fill:#A6D100;}
	.st4{fill:#89AB00;}
	.st5{fill:#5F7993;}
	.st6{fill:#405162;}
	.st7{fill:#FFFFFF;}
	.st8{fill:#3A5368;}
</style>
<g
   id="g18">
	<g
   id="g10"
   style="fill:#17b5c8">
		<path
   class="st3"
   d="M1.9,9.7c0.2,0,0.3,0.1,0.5,0.1h2.1l19.5,0h5.6c0,0,0.1,0,0.1,0c0.6-0.6,1-1.4,1-2.4c0-0.9-0.4-1.8-1.1-2.4    c0,0-0.1,0-0.1,0H24L4.5,5H2.4C2.2,5,2.1,5,1.9,5C0.8,5.3,0,6.2,0,7.4C0,8.5,0.8,9.5,1.9,9.7z"
   id="path4"
   style="fill:#17b5c8" />
		<path
   class="st4"
   d="m 30.7,7.4479394 c 0,0.9 -0.4,1.8 -1,2.4 0.1,0 0.3,0 0.4,-0.1 0,0 0,0 0,0 0,0 0,0 0,0 0.1,0 0.1,0 0.2,0 0.1,0 0.1,0 0.2,-0.1 0.1,0 0.2,-0.1 0.3,-0.1 0.1,0 0.1,-0.1 0.2,-0.1 0.1,0 0.1,-0.1 0.2,-0.1 0.1,0 0.1,-0.1 0.2,-0.1 0.1,0 0.1,-0.1 0.1,-0.2 0.1,-0.1 0.1,-0.1 0.1,-0.2 0,-0.1 0.1,-0.1 0.1,-0.2 0,-0.1 0.1,-0.1 0.1,-0.2 0,-0.1 0.1,-0.1 0.1,-0.2 0,-0.1 0.1,-0.2 0.1,-0.3 0,0 0,-0.1 0,-0.1 0,-0.1 0,-0.3 0,-0.5 0,0 0,0 0,0 v 0 0 c 0,-0.2000003 0,-0.3000003 0,-0.5000003 0,0 0,-0.1 0,-0.1 0,-0.1 -0.1,-0.2 -0.1,-0.3 0,-0.1 0,-0.1 -0.1,-0.2 0,-0.1 -0.1,-0.1 -0.1,-0.2 0,-0.1 -0.1,-0.1 -0.1,-0.2 0,-0.1 -0.1,-0.1 -0.1,-0.2 0,-0.1 -0.1,-0.1 -0.1,-0.2 -0.1,0 -0.1,-0.1 -0.2,-0.1 -0.1,0 -0.1,-0.1 -0.2,-0.1 -0.1,0 -0.1,-0.1 -0.2,-0.1 -0.2,-0.1 -0.4,-0.2 -0.6,-0.2 0,0 0,0 0,0 0,0 0,0 0,0 -0.2,0.1 -0.4,0.1 -0.5,0.1 0.6,0.6 1,1.4 1,2.4000003 z"
   id="path6"
   style="fill:#11778e"
   inkscape:connector-curvature="0" />
		<path
   class="st4"
   d="M1.3,7.4c0-0.9,0.4-1.8,1-2.4C2.2,5,2,5,1.9,5c0,0,0,0,0,0c0,0,0,0,0,0c-0.1,0-0.1,0-0.2,0    c-0.1,0-0.1,0-0.2,0.1c-0.1,0-0.2,0.1-0.3,0.1c-0.1,0-0.1,0.1-0.2,0.1C1,5.4,1,5.4,0.9,5.5c-0.1,0-0.1,0.1-0.2,0.1    c-0.1,0-0.1,0.1-0.1,0.2C0.6,5.8,0.5,5.9,0.5,5.9c0,0.1-0.1,0.1-0.1,0.2c0,0.1-0.1,0.1-0.1,0.2c0,0.1-0.1,0.1-0.1,0.2    c0,0.1-0.1,0.2-0.1,0.3c0,0,0,0.1,0,0.1c0,0.1,0,0.3,0,0.5c0,0,0,0,0,0l0,0v0c0,0.2,0,0.3,0,0.5c0,0,0,0.1,0,0.1    c0,0.1,0.1,0.2,0.1,0.3c0,0.1,0,0.1,0.1,0.2c0,0.1,0.1,0.1,0.1,0.2c0,0.1,0.1,0.1,0.1,0.2c0,0.1,0.1,0.1,0.1,0.2    c0,0.1,0.1,0.1,0.1,0.2c0.1,0,0.1,0.1,0.2,0.1C1,9.3,1,9.3,1.1,9.4c0.1,0,0.1,0.1,0.2,0.1c0.2,0.1,0.4,0.2,0.6,0.2c0,0,0,0,0,0    c0,0,0,0,0,0c0.1,0,0.3,0,0.4,0.1C1.7,9.2,1.3,8.3,1.3,7.4z"
   id="path8"
   style="fill:#11778e" />
	</g>
	<path
   class="st5"
   d="M16.9,22.1h-1.8v-8.8c0-0.5,0.4-0.9,0.9-0.9h0c0.5,0,0.9,0.4,0.9,0.9V22.1z"
   id="path12"
   style="fill:#a6d100" />
	<path
   class="st5"
   d="M16.2,26.9l2.5-4.3c0.1-0.2,0-0.4-0.2-0.4h-5c-0.2,0-0.4,0.2-0.2,0.4l2.5,4.3C15.9,27.1,16.1,27.1,16.2,26.9z"
   id="path14"
   style="fill:#89ab00" />
	<path
   class="st6"
   d="M15.1,21.7v0.4h1.8v-0.4v-2.3C16.9,19.4,16.5,21.7,15.1,21.7z"
   id="path16"
   style="fill:#89ab00" />
</g>
</svg>