<?xml version="1.0" encoding="UTF-8" standalone="no"?>
<!-- Generator: Adobe Illustrator 24.3.0, SVG Export Plug-In . SVG Version: 6.00 Build 0)  -->

<svg
   xmlns:dc="http://purl.org/dc/elements/1.1/"
   xmlns:cc="http://creativecommons.org/ns#"
   xmlns:rdf="http://www.w3.org/1999/02/22-rdf-syntax-ns#"
   xmlns:svg="http://www.w3.org/2000/svg"
   xmlns="http://www.w3.org/2000/svg"
   xmlns:sodipodi="http://sodipodi.sourceforge.net/DTD/sodipodi-0.dtd"
   xmlns:inkscape="http://www.inkscape.org/namespaces/inkscape"
   version="1.1"
   id="Capa_1"
   x="0px"
   y="0px"
   viewBox="0 0 32 32"
   style="enable-background:new 0 0 32 32;"
   xml:space="preserve"
   sodipodi:docname="engine.svg"
   inkscape:version="0.92.5 (2060ec1f9f, 2020-04-08)"><metadata
   id="metadata3567"><rdf:RDF><cc:Work
       rdf:about=""><dc:format>image/svg+xml</dc:format><dc:type
         rdf:resource="http://purl.org/dc/dcmitype/StillImage" /></cc:Work></rdf:RDF></metadata><defs
   id="defs3565">
	
	
</defs><sodipodi:namedview
   pagecolor="#ffffff"
   bordercolor="#666666"
   borderopacity="1"
   objecttolerance="10"
   gridtolerance="10"
   guidetolerance="10"
   inkscape:pageopacity="0"
   inkscape:pageshadow="2"
   inkscape:window-width="1920"
   inkscape:window-height="1043"
   id="namedview3563"
   showgrid="false"
   inkscape:zoom="20.85965"
   inkscape:cx="7.5386883"
   inkscape:cy="15.808242"
   inkscape:window-x="0"
   inkscape:window-y="1080"
   inkscape:window-maximized="1"
   inkscape:current-layer="Capa_1"
   inkscape:snap-global="false" />
<style
   type="text/css"
   id="style3554">
	.st0{fill:#17B5C8;}
	.st1{fill:#11828F;}
	.st2{fill:none;}
	.st3{fill:#A6D100;}
	.st4{fill:#89AB00;}
	.st5{fill:#5F7993;}
	.st6{fill:#405162;}
	.st7{fill:#FFFFFF;}
	.st8{fill:#3A5368;}
</style>
<path
   style="opacity:1;fill:#17b5c8;fill-opacity:1;fill-rule:nonzero;stroke:none;stroke-width:4.4031496;stroke-linecap:round;stroke-linejoin:miter;stroke-miterlimit:4;stroke-dasharray:none;stroke-dashoffset:0;stroke-opacity:1"
   d="M 31.864407,16.067797 A 15.932203,16.20339 0 0 1 15.932203,32.271187 15.932203,16.20339 0 0 1 0,16.067797 15.932203,16.20339 0 0 1 15.932203,-0.13559341 15.932203,16.20339 0 0 1 31.864407,16.067797 Z"
   id="path4126" /><path
   style="fill:#11778e"
   inkscape:connector-curvature="0"
   id="path3556"
   d="M 16,0 C 15.5,0 15,0 14.5,0.1 22.6,0.8 29,7.7 29,16 29,24.3 22.6,31.2 14.5,31.9 15,31.9 15.5,32 16,32 24.8,32 32,24.8 32,16 32,7.2 24.8,0 16,0 Z"
   class="st4" />
<path
   style="fill:#ffffff;stroke:#ffffff;stroke-width:0.96489936;stroke-linecap:butt;stroke-linejoin:round;stroke-miterlimit:4;stroke-dasharray:none;stroke-opacity:1"
   d="m 13.485783,5.4957858 6.747258,0.1059278 -4.005411,8.4558724 6.115737,-0.03918 -10.627358,13.825572 3.621528,-10.893604 -5.6329533,0.06285 z"
   id="path4131"
   inkscape:connector-curvature="0"
   sodipodi:nodetypes="cccccccc" /></svg>