<?xml version="1.0" encoding="utf-8"?>
<!-- Generator: Adobe Illustrator 24.3.0, SVG Export Plug-In . SVG Version: 6.00 Build 0)  -->
<svg version="1.1" id="Capa_1" xmlns="http://www.w3.org/2000/svg" xmlns:xlink="http://www.w3.org/1999/xlink" x="0px" y="0px"
	 viewBox="0 0 32 32" style="enable-background:new 0 0 32 32;" xml:space="preserve">
<style type="text/css">
	.st0{fill:#17B5C8;}
	.st1{fill:#11828F;}
	.st2{fill:none;}
	.st3{fill:#A6D100;}
	.st4{fill:#89AB00;}
	.st5{fill:#5F7993;}
	.st6{fill:#405162;}
	.st7{fill:#FFFFFF;}
	.st8{fill:#3A5368;}
</style>
<g>
	<g>
		<path class="st1" d="M16,0c-0.5,0-1,0-1.5,0.1C22.6,0.8,29,7.7,29,16s-6.4,15.2-14.5,15.9c0.5,0,1,0.1,1.5,0.1c8.8,0,16-7.2,16-16
			S24.8,0,16,0z"/>
		<path class="st0" d="M14.5,0.1C6.4,0.8,0,7.7,0,16s6.4,15.2,14.5,15.9C22.6,31.2,29,24.3,29,16S22.6,0.8,14.5,0.1z"/>
	</g>
	<path class="st7" d="M13.7,23.1c-0.4,0-0.7-0.1-1-0.4c-0.3-0.3-0.4-0.6-0.4-1s0.1-0.7,0.4-1l4.8-4.8l-3.4-3.4l-1.4-1.4
		c-0.5-0.5-0.5-1.4,0-1.9c0.3-0.3,0.6-0.4,1-0.4s0.7,0.1,1,0.4l5.7,5.7c0.3,0.3,0.4,0.6,0.4,1c0,0.4-0.1,0.7-0.4,1l-1.2,1.2
		l-3.1,3.1l-1.4,1.4C14.4,22.9,14.1,23.1,13.7,23.1z"/>
</g>
</svg>
