<?xml version="1.0" encoding="UTF-8" standalone="no"?>
<!-- Generator: Adobe Illustrator 24.3.0, SVG Export Plug-In . SVG Version: 6.00 Build 0)  -->

<svg
   xmlns:dc="http://purl.org/dc/elements/1.1/"
   xmlns:cc="http://creativecommons.org/ns#"
   xmlns:rdf="http://www.w3.org/1999/02/22-rdf-syntax-ns#"
   xmlns:svg="http://www.w3.org/2000/svg"
   xmlns="http://www.w3.org/2000/svg"
   xmlns:sodipodi="http://sodipodi.sourceforge.net/DTD/sodipodi-0.dtd"
   xmlns:inkscape="http://www.inkscape.org/namespaces/inkscape"
   version="1.1"
   id="Capa_1"
   x="0px"
   y="0px"
   viewBox="0 0 32 32"
   style="enable-background:new 0 0 32 32;"
   xml:space="preserve"
   sodipodi:docname="gear2.svg"
   inkscape:version="0.92.5 (2060ec1f9f, 2020-04-08)"><metadata
   id="metadata25"><rdf:RDF><cc:Work
       rdf:about=""><dc:format>image/svg+xml</dc:format><dc:type
         rdf:resource="http://purl.org/dc/dcmitype/StillImage" /><dc:title></dc:title></cc:Work></rdf:RDF></metadata><defs
   id="defs23">
	
	

		
		
		
	</defs><sodipodi:namedview
   pagecolor="#ffffff"
   bordercolor="#666666"
   borderopacity="1"
   objecttolerance="10"
   gridtolerance="10"
   guidetolerance="10"
   inkscape:pageopacity="0"
   inkscape:pageshadow="2"
   inkscape:window-width="1920"
   inkscape:window-height="1054"
   id="namedview21"
   showgrid="false"
   inkscape:zoom="20.85965"
   inkscape:cx="16"
   inkscape:cy="12.164845"
   inkscape:window-x="0"
   inkscape:window-y="1080"
   inkscape:window-maximized="1"
   inkscape:current-layer="Capa_1" />
<style
   type="text/css"
   id="style2">
	.st0{fill:#17B5C8;}
	.st1{fill:#11828F;}
	.st2{fill:none;}
	.st3{fill:#A6D100;}
	.st4{fill:#89AB00;}
	.st5{fill:#5F7993;}
	.st6{fill:#405162;}
	.st7{fill:#FFFFFF;}
	.st8{fill:#3A5368;}
</style>
<g
   id="g8"
   style="fill:#a6d100">
		<path
   style="fill:#a6d100"
   inkscape:connector-curvature="0"
   id="path4"
   d="m 27.5,15 c 1,-3.8 -0.1,-7.8 -3,-10.6 L 25.4,2 C 25.6,1.5 25.3,1 24.9,0.9 L 22.6,0 C 22.4,-0.1 22.1,-0.1 21.9,0 21.7,0.1 21.5,0.3 21.4,0.5 L 20.5,3 C 19.3,2.8 18,2.8 16.8,3.1 l -1,-2.3 C 15.7,0.6 15.5,0.4 15.3,0.3 15.1,0.2 14.8,0.2 14.6,0.3 l -2.3,1 C 11.9,1.5 11.7,2 11.9,2.5 l 1,2.3 C 11.9,5.5 11,6.4 10.4,7.5 L 8,6.6 C 7.8,6.5 7.5,6.5 7.3,6.6 7.1,6.7 7,6.9 6.9,7.1 L 6,9.5 c -0.2,0.5 0.1,1 0.5,1.1 l 2.3,0.9 C 9,11.4 9.3,11.3 9.5,11.3 l 1.9,0.1 c 0.9,0 1.5,0.8 1.5,1.6 l 0.5,-2 c 0.8,-2.4 3.1,-4 5.6,-4 0.7,0 1.4,0.1 2.1,0.4 1.5,0.6 2.7,1.7 3.3,3.1 0.7,1.5 0.7,3.1 0.1,4.6 -0.8,2.4 -3,3.9 -5.5,3.9 -0.4,0 -0.8,-0.1 -1.2,-0.1 0.1,0.3 0.2,0.6 0.3,0.9 h 1.2 c 0.4,0 0.8,0.2 1.1,0.5 0.3,0.3 0.4,0.7 0.4,1.1 v 0.5 0.2 C 21.1,22 26.1,20.2 27.5,15 Z"
   class="st0" />
		<path
   style="fill:#a6d100"
   inkscape:connector-curvature="0"
   id="path6"
   d="m 21.1,23 1,2.3 c 0.1,0.2 0.3,0.4 0.5,0.5 0.2,0.1 0.5,0.1 0.7,0 l 2.3,-1 C 26,24.6 26.2,24.1 26,23.6 l -1,-2.3 c 1,-0.7 1.9,-1.6 2.5,-2.7 l 2.4,0.9 c 0.5,0.2 1,-0.1 1.1,-0.5 l 0.9,-2.3 C 32,16.5 32,16.2 31.9,16 31.8,15.8 31.6,15.6 31.4,15.5 L 29,14.6 c 0.2,-1.2 0.2,-2.5 -0.1,-3.7 l 2.3,-1 c 0.2,-0.1 0.4,-0.3 0.5,-0.5 0.1,-0.2 0.1,-0.5 0,-0.7 l -1,-2.3 C 30.5,6 30,5.8 29.5,6 L 27.2,7 C 26.5,6 25.6,5.1 24.5,4.5 c 2.9,2.7 3.716484,7.658789 3,10.5 -1.356182,4.241211 -5.389151,6.328848 -6.7,7.1 l -0.1,1 C 20.8,23 21,23 21.1,23 Z"
   class="st1"
   sodipodi:nodetypes="ccsccccccccsccccsccccccccc" />
	</g><path
   class="st2"
   d="m 10.2,17.8 c -0.1,0 -0.1,0 -0.2,0 -1.2,0 -2.2,0.5 -3,1.3 -0.7,0.7 -1.1,1.6 -1.1,2.6 -0.1,2.3 1.7,4.2 3.9,4.3 1.2,0 2.2,-0.4 3,-1.1 0.8,-0.7 1.3,-1.7 1.3,-2.8 0.1,-2.2 -1.6,-4.2 -3.9,-4.3 z"
   id="path10"
   inkscape:connector-curvature="0"
   style="fill:#ffffff" /><path
   style="fill:#a6d100"
   d="M 9.6992188 11.900391 C 9.3992188 11.900391 9.2 11.999219 9 12.199219 C 8.9 12.299219 8.8007812 12.499219 8.8007812 12.699219 L 8.6992188 14.400391 C 7.8992188 14.600391 7.2 14.799219 6.5 15.199219 L 5.1992188 14 C 4.9992187 13.8 4.7996094 13.699219 4.5996094 13.699219 C 4.3996094 13.699219 4.1 13.800391 4 13.900391 L 2.6992188 15.099609 C 2.2992187 15.399609 2.2996094 16.000781 2.5996094 16.300781 L 3.6992188 17.5 C 3.2992188 18.2 2.8992188 18.899219 2.6992188 19.699219 L 1 19.800781 C 0.5 19.800781 0.099609375 20.199609 0.099609375 20.599609 L 0 22.400391 C 0 22.600391 0.09921875 22.9 0.19921875 23 C 0.39921875 23.2 0.60078125 23.300781 0.80078125 23.300781 L 2.5 23.400391 C 2.7 24.200391 2.9007813 24.899609 3.3007812 25.599609 L 2.0996094 26.699219 C 1.8996094 26.899219 1.8007813 27.100781 1.8007812 27.300781 C 1.8007812 27.500781 1.9 27.800391 2 27.900391 L 3.1992188 29.199219 C 3.3992188 29.399219 3.6007813 29.5 3.8007812 29.5 C 4.0007813 29.5 4.3003906 29.400781 4.4003906 29.300781 L 5.5996094 28.199219 C 6.2996094 28.599219 7.0007812 28.999219 7.8007812 29.199219 L 7.8007812 31 C 7.8007812 31.5 8.1992188 31.900391 8.6992188 31.900391 L 10.5 32 C 10.7 32 10.899609 31.900781 11.099609 31.800781 C 11.299609 31.600781 11.400391 31.399219 11.400391 31.199219 L 11.5 29.5 C 12.3 29.3 12.999219 29.099219 13.699219 28.699219 L 14.800781 29.900391 C 15.000781 30.100391 15.200391 30.199219 15.400391 30.199219 C 15.600391 30.199219 15.9 30.1 16 30 L 17.300781 28.800781 C 17.700781 28.500781 17.700391 27.899609 17.400391 27.599609 L 16.300781 26.400391 C 16.700781 25.700391 17.100781 24.999219 17.300781 24.199219 L 19 24.300781 C 19.5 24.300781 19.900391 23.9 19.900391 23.5 L 19.900391 23.400391 L 20 21.699219 C 20 21.499219 19.900781 21.199609 19.800781 21.099609 C 19.600781 20.899609 19.399219 20.800781 19.199219 20.800781 L 17.5 20.699219 C 17.4 20.099219 17.200391 19.500391 16.900391 18.900391 C 16.800391 18.800391 16.799219 18.6 16.699219 18.5 L 17.900391 17.400391 C 18.300391 17.100391 18.3 16.499219 18 16.199219 L 16.800781 14.900391 C 16.600781 14.700391 16.399219 14.599609 16.199219 14.599609 C 15.999219 14.599609 15.699609 14.700781 15.599609 14.800781 L 14.480469 15.828125 C 14.417222 15.754021 14.366929 15.67177 14.300781 15.599609 C 14.000781 15.399609 13.700391 15.199609 13.400391 15.099609 C 13.000391 14.899609 12.599219 14.699609 12.199219 14.599609 L 12.300781 12.900391 C 12.300781 12.400391 11.9 12 11.5 12 L 9.6992188 11.900391 z M 10 17.900391 L 10.199219 17.900391 C 12.499219 18.000391 14.199609 19.899219 14.099609 22.199219 C 14.099609 23.299219 13.600781 24.3 12.800781 25 C 12.000781 25.7 11.000781 26.099609 9.8007812 26.099609 C 7.5007813 25.999609 5.8003906 24.100781 5.9003906 21.800781 C 5.9003906 20.800781 6.4 19.799219 7 19.199219 C 7.8 18.399219 8.8 17.900391 10 17.900391 z M 15.121094 25.652344 C 14.992759 25.843944 14.855546 26.028755 14.710938 26.207031 C 14.853371 26.026852 14.994453 25.845369 15.121094 25.652344 z "
   id="path12" />
</svg>