<?xml version="1.0" encoding="UTF-8" standalone="no"?>
<!-- Generator: Adobe Illustrator 24.3.0, SVG Export Plug-In . SVG Version: 6.00 Build 0)  -->

<svg
   xmlns:dc="http://purl.org/dc/elements/1.1/"
   xmlns:cc="http://creativecommons.org/ns#"
   xmlns:rdf="http://www.w3.org/1999/02/22-rdf-syntax-ns#"
   xmlns:svg="http://www.w3.org/2000/svg"
   xmlns="http://www.w3.org/2000/svg"
   xmlns:sodipodi="http://sodipodi.sourceforge.net/DTD/sodipodi-0.dtd"
   xmlns:inkscape="http://www.inkscape.org/namespaces/inkscape"
   version="1.1"
   id="Capa_1"
   x="0px"
   y="0px"
   viewBox="0 0 32 32"
   style="enable-background:new 0 0 32 32;"
   xml:space="preserve"
   sodipodi:docname="gear.svg"
   inkscape:version="0.92.5 (2060ec1f9f, 2020-04-08)"><metadata
   id="metadata25"><rdf:RDF><cc:Work
       rdf:about=""><dc:format>image/svg+xml</dc:format><dc:type
         rdf:resource="http://purl.org/dc/dcmitype/StillImage" /></cc:Work></rdf:RDF></metadata><defs
   id="defs23">
	
	

		
		
		
	</defs><sodipodi:namedview
   pagecolor="#ffffff"
   bordercolor="#666666"
   borderopacity="1"
   objecttolerance="10"
   gridtolerance="10"
   guidetolerance="10"
   inkscape:pageopacity="0"
   inkscape:pageshadow="2"
   inkscape:window-width="1920"
   inkscape:window-height="1016"
   id="namedview21"
   showgrid="false"
   inkscape:zoom="7.375"
   inkscape:cx="16"
   inkscape:cy="16"
   inkscape:window-x="0"
   inkscape:window-y="27"
   inkscape:window-maximized="1"
   inkscape:current-layer="Capa_1" />
<style
   type="text/css"
   id="style2">
	.st0{fill:#17B5C8;}
	.st1{fill:#11828F;}
	.st2{fill:none;}
	.st3{fill:#A6D100;}
	.st4{fill:#89AB00;}
	.st5{fill:#5F7993;}
	.st6{fill:#405162;}
	.st7{fill:#FFFFFF;}
	.st8{fill:#3A5368;}
</style>
<g
   id="g8"
   style="fill:#000000">
		<path
   style="fill:#000000"
   inkscape:connector-curvature="0"
   id="path4"
   d="m 27.5,15 c 1,-3.8 -0.1,-7.8 -3,-10.6 L 25.4,2 C 25.6,1.5 25.3,1 24.9,0.9 L 22.6,0 C 22.4,-0.1 22.1,-0.1 21.9,0 21.7,0.1 21.5,0.3 21.4,0.5 L 20.5,3 C 19.3,2.8 18,2.8 16.8,3.1 l -1,-2.3 C 15.7,0.6 15.5,0.4 15.3,0.3 15.1,0.2 14.8,0.2 14.6,0.3 l -2.3,1 C 11.9,1.5 11.7,2 11.9,2.5 l 1,2.3 C 11.9,5.5 11,6.4 10.4,7.5 L 8,6.6 C 7.8,6.5 7.5,6.5 7.3,6.6 7.1,6.7 7,6.9 6.9,7.1 L 6,9.5 c -0.2,0.5 0.1,1 0.5,1.1 l 2.3,0.9 C 9,11.4 9.3,11.3 9.5,11.3 l 1.9,0.1 c 0.9,0 1.5,0.8 1.5,1.6 l 0.5,-2 c 0.8,-2.4 3.1,-4 5.6,-4 0.7,0 1.4,0.1 2.1,0.4 1.5,0.6 2.7,1.7 3.3,3.1 0.7,1.5 0.7,3.1 0.1,4.6 -0.8,2.4 -3,3.9 -5.5,3.9 -0.4,0 -0.8,-0.1 -1.2,-0.1 0.1,0.3 0.2,0.6 0.3,0.9 h 1.2 c 0.4,0 0.8,0.2 1.1,0.5 0.3,0.3 0.4,0.7 0.4,1.1 v 0.5 0.2 C 21.1,22 26.1,20.2 27.5,15 Z"
   class="st0" />
		<path
   style="fill:#000000"
   inkscape:connector-curvature="0"
   id="path6"
   d="m 21.1,23 1,2.3 c 0.1,0.2 0.3,0.4 0.5,0.5 0.2,0.1 0.5,0.1 0.7,0 l 2.3,-1 C 26,24.6 26.2,24.1 26,23.6 l -1,-2.3 c 1,-0.7 1.9,-1.6 2.5,-2.7 l 2.4,0.9 c 0.5,0.2 1,-0.1 1.1,-0.5 l 0.9,-2.3 C 32,16.5 32,16.2 31.9,16 31.8,15.8 31.6,15.6 31.4,15.5 L 29,14.6 c 0.2,-1.2 0.2,-2.5 -0.1,-3.7 l 2.3,-1 c 0.2,-0.1 0.4,-0.3 0.5,-0.5 0.1,-0.2 0.1,-0.5 0,-0.7 l -1,-2.3 C 30.5,6 30,5.8 29.5,6 L 27.2,7 C 26.5,6 25.6,5.1 24.5,4.5 c 2.9,2.7 4.1,6.8 3,10.6 -1.5,5.2 -6.4,7 -6.8,7.1 v 0.9 C 20.8,23 21,23 21.1,23 Z"
   class="st1" />
	</g><path
   class="st2"
   d="m 10.2,17.8 c -0.1,0 -0.1,0 -0.2,0 -1.2,0 -2.2,0.5 -3,1.3 -0.7,0.7 -1.1,1.6 -1.1,2.6 -0.1,2.3 1.7,4.2 3.9,4.3 1.2,0 2.2,-0.4 3,-1.1 0.8,-0.7 1.3,-1.7 1.3,-2.8 0.1,-2.2 -1.6,-4.2 -3.9,-4.3 z"
   id="path10"
   inkscape:connector-curvature="0"
   style="fill:none" /><path
   class="st3"
   d="m 15.8,24.4 c 1.3,-2.9 0.7,-6.4 -1.5,-8.8 v 0 0 C 14,15.4 13.7,15.2 13.4,15.1 13,14.9 12.6,14.7 12.2,14.6 l 0.1,-1.7 C 12.3,12.4 11.9,12 11.5,12 L 9.7,11.9 C 9.4,11.9 9.2,12 9,12.2 8.9,12.3 8.8,12.5 8.8,12.7 L 8.7,14.4 C 7.9,14.6 7.2,14.8 6.5,15.2 L 5.2,14 C 5,13.8 4.8,13.7 4.6,13.7 4.4,13.7 4.1,13.8 4,13.9 L 2.7,15.1 C 2.3,15.4 2.3,16 2.6,16.3 l 1.1,1.2 c -0.4,0.7 -0.8,1.4 -1,2.2 L 1,19.8 c -0.5,0 -0.9,0.4 -0.9,0.8 L 0,22.4 c 0,0.2 0.1,0.5 0.2,0.6 0.2,0.2 0.4,0.3 0.6,0.3 l 1.7,0.1 c 0.2,0.8 0.4,1.5 0.8,2.2 l -1.2,1.1 c -0.2,0.2 -0.3,0.4 -0.3,0.6 0,0.2 0.1,0.5 0.2,0.6 l 1.2,1.3 c 0.2,0.2 0.4,0.3 0.6,0.3 0.2,0 0.5,-0.1 0.6,-0.2 l 1.2,-1.1 c 0.7,0.4 1.4,0.8 2.2,1 3.5,0.3 6.7,-1.7 8,-4.8 z m -3,0.6 c -0.8,0.7 -1.8,1.1 -3,1.1 -2.3,-0.1 -4,-2 -3.9,-4.3 0,-1 0.5,-2 1.1,-2.6 0.8,-0.8 1.8,-1.3 3,-1.3 0.1,0 0.1,0 0.2,0 2.3,0.1 4,2 3.9,4.3 0,1.1 -0.5,2.1 -1.3,2.8 z"
   id="path12"
   inkscape:connector-curvature="0"
   style="fill:#000000" /><path
   class="st4"
   d="m 8.7,31.9 1.8,0.1 c 0,0 0,0 0,0 0.2,0 0.4,-0.1 0.6,-0.2 0.2,-0.2 0.3,-0.4 0.3,-0.6 l 0.1,-1.7 c 0.8,-0.2 1.5,-0.4 2.2,-0.8 l 1.1,1.2 c 0.2,0.2 0.4,0.3 0.6,0.3 0.2,0 0.5,-0.1 0.6,-0.2 l 1.3,-1.2 c 0.4,-0.3 0.4,-0.9 0.1,-1.2 l -1.1,-1.2 c 0.4,-0.7 0.8,-1.4 1,-2.2 l 1.7,0.1 c 0.5,0 0.9,-0.4 0.9,-0.8 V 23.4 L 20,21.7 c 0,-0.2 -0.1,-0.5 -0.2,-0.6 -0.2,-0.2 -0.4,-0.3 -0.6,-0.3 l -1.7,-0.1 c -0.1,-0.6 -0.3,-1.2 -0.6,-1.8 -0.1,-0.1 -0.1,-0.3 -0.2,-0.4 l 1.2,-1.1 c 0.4,-0.3 0.4,-0.9 0.1,-1.2 l -1.2,-1.3 c -0.2,-0.2 -0.4,-0.3 -0.6,-0.3 -0.2,0 -0.5,0.1 -0.6,0.2 l -1.2,1.1 v 0 c 2.2,2.4 2.8,5.8 1.5,8.8 -1.3,3.1 -4.5,5.1 -7.9,4.9 L 7.8,31 c 0,0.5 0.4,0.9 0.9,0.9 z"
   id="path14"
   inkscape:connector-curvature="0"
   style="fill:#000000" />
</svg>