<?xml version="1.0" encoding="UTF-8" standalone="no"?>
<!-- Generator: Adobe Illustrator 24.3.0, SVG Export Plug-In . SVG Version: 6.00 Build 0)  -->

<svg
   xmlns:dc="http://purl.org/dc/elements/1.1/"
   xmlns:cc="http://creativecommons.org/ns#"
   xmlns:rdf="http://www.w3.org/1999/02/22-rdf-syntax-ns#"
   xmlns:svg="http://www.w3.org/2000/svg"
   xmlns="http://www.w3.org/2000/svg"
   xmlns:sodipodi="http://sodipodi.sourceforge.net/DTD/sodipodi-0.dtd"
   xmlns:inkscape="http://www.inkscape.org/namespaces/inkscape"
   version="1.1"
   id="Capa_1"
   x="0px"
   y="0px"
   viewBox="0 0 32 32"
   style="enable-background:new 0 0 32 32;"
   xml:space="preserve"
   sodipodi:docname="graph.svg"
   inkscape:version="0.92.5 (2060ec1f9f, 2020-04-08)"><metadata
   id="metadata27"><rdf:RDF><cc:Work
       rdf:about=""><dc:format>image/svg+xml</dc:format><dc:type
         rdf:resource="http://purl.org/dc/dcmitype/StillImage" /></cc:Work></rdf:RDF></metadata><defs
   id="defs25">
	
	
	
	
</defs><sodipodi:namedview
   pagecolor="#ffffff"
   bordercolor="#666666"
   borderopacity="1"
   objecttolerance="10"
   gridtolerance="10"
   guidetolerance="10"
   inkscape:pageopacity="0"
   inkscape:pageshadow="2"
   inkscape:window-width="1920"
   inkscape:window-height="1043"
   id="namedview23"
   showgrid="false"
   inkscape:zoom="7.375"
   inkscape:cx="-7.9322034"
   inkscape:cy="15.457627"
   inkscape:window-x="0"
   inkscape:window-y="1080"
   inkscape:window-maximized="1"
   inkscape:current-layer="Capa_1" />
<style
   type="text/css"
   id="style2">
	.st0{fill:#17B5C8;}
	.st1{fill:#11828F;}
	.st2{fill:none;}
	.st3{fill:#A6D100;}
	.st4{fill:#89AB00;}
	.st5{fill:#5F7993;}
	.st6{fill:#405162;}
	.st7{fill:#FFFFFF;}
	.st8{fill:#3A5368;}
</style>
<g
   id="g6"
   transform="matrix(1,0,0,-1,0,32)"
   style="fill:#a6d100">
		<path
   style="fill:#a6d100"
   inkscape:connector-curvature="0"
   id="path4"
   d="m 1.5,3.8 c 0,-1.2 1,-2.2 2.2,-2.2 H 31.2 C 31.2,0.8 30.5,0.2 29.8,0.2 H 1.4 C 0.6,0.2 0,0.9 0,1.7 v 28.7 c 0,0.8 0.6,1.4 1.4,1.4 H 1.7 C 1.6,31.5 1.5,31.3 1.5,31 Z"
   class="st5" />
	</g><g
   id="g18"
   transform="translate(-0.81355932,-1.322034)"
   style="fill:#17b5c8">
		<path
   style="fill:#17b5c8"
   inkscape:connector-curvature="0"
   id="path12"
   d="m 29.6,23.7 -0.9,-0.8 c -1.8,-0.6 -5,3.7 -6.1,4.6 -1,1 -2.5,-1.6 -2.5,-1.6 C 20,25.8 19.9,25.6 19.8,25.4 L 17.6,20.6 16.3,18 v 0 L 14,13.2 c 0,0 -2.8,-4.1 -10.3,18.5 0,0 0.1,0 0.1,0 h 26.6 c 0.9,0 1.6,-0.8 1.6,-1.8 v -3.7 z"
   class="st3" />
		<path
   style="fill:#11778e"
   inkscape:connector-curvature="0"
   id="path14"
   d="m 14,13.2 c -0.5,-1.1 -1.6,-1.8 -2.7,-1.7 -0.9,0.1 -1.7,0.8 -2.1,1.7 L 2.3,26.8 V 30 c 0,0.9 0.6,1.7 1.4,1.8 C 11.2,9.1 14,13.2 14,13.2 Z"
   class="st4" />
		<path
   style="fill:#17b5c8"
   inkscape:connector-curvature="0"
   id="path16"
   d="m 22.6,27.6 c 1,-1 4.3,-5.2 6.1,-4.6 l -0.6,-0.5 c -0.9,-0.4 -2,-0.3 -2.8,0.5 l -3.2,3 c -0.4,0.3 -0.8,0.5 -1.3,0.4 -0.3,-0.1 -0.5,-0.2 -0.7,-0.4 0,-0.1 1.5,2.5 2.5,1.6 z"
   class="st4" />
	</g>
</svg>