<?xml version="1.0" encoding="utf-8"?>
<!-- Generator: Adobe Illustrator 24.3.0, SVG Export Plug-In . SVG Version: 6.00 Build 0)  -->
<svg version="1.1" id="Capa_1" xmlns="http://www.w3.org/2000/svg" xmlns:xlink="http://www.w3.org/1999/xlink" x="0px" y="0px"
	 viewBox="0 0 32 32" style="enable-background:new 0 0 32 32;" xml:space="preserve">
<style type="text/css">
	.st0{fill:#17B5C8;}
	.st1{fill:#11828F;}
	.st2{fill:none;}
	.st3{fill:#A6D100;}
	.st4{fill:#89AB00;}
	.st5{fill:#5F7993;}
	.st6{fill:#405162;}
	.st7{fill:#FFFFFF;}
	.st8{fill:#3A5368;}
</style>
<g>
	<g>
		<path class="st3" d="M9.3,2.5C9.3,2.5,9.3,2.5,9.3,2.5c0.1,0,0.1,0,0.2,0L9.3,2.5z"/>
		<path class="st3" d="M12.8,5.2c-1.2-1.8-3.2-2.6-3.4-2.6C6.5,2.7,4.2,5.2,4.2,8.1c0,1.5,0.6,3.3,1.6,4.7c1.1,1.6,2.6,2.5,4,2.5
			c0.5,0,0.9-0.1,1.3-0.3c-0.9-1.4-1.4-3.1-1.4-4.6C9.7,8.2,10.9,6.2,12.8,5.2z"/>
	</g>
	<path class="st4" d="M12.8,5.2c0.4-0.3,0.9-0.5,1.4-0.6c-0.4-0.5-1-1-1.6-1.3c-0.8-0.5-1.8-0.7-2.8-0.7c-0.1,0-0.2,0-0.3,0l-0.2,0
		C9.3,2.5,11.5,3.2,12.8,5.2z"/>
	<path class="st5" d="M20,16c0.1,0,0.2,0,0.4,0.1c1.7,0.8,3.2,2.1,4.3,3.8c0.7,1.2,1.2,2.4,1.5,3.8c1.7-4.5-1-8.7-1-8.7l0,0
		c-0.9,0.7-1.9,1.1-2.9,1.1c-0.6,0-1.2-0.1-1.8-0.4C20.2,15.7,20.1,15.9,20,16z"/>
	<path class="st6" d="M30.4,17.8c-1-1.5-2.4-2.8-4-3.6c-0.2-0.1-0.4-0.1-0.6,0.1c-0.2,0.2-0.5,0.4-0.7,0.6l0,0c0,0,2.7,4.1,1,8.7
		c0.1,0.6,0.2,1.2,0.2,1.8c0,0.3-0.1,0.6-0.3,0.8c-0.2,0.2-0.5,0.4-0.7,0.6c2.5-0.5,4.7-1.7,6.6-3.4c0.1-0.1,0.2-0.2,0.2-0.4v0
		C32,21.2,31.5,19.4,30.4,17.8z"/>
	<path class="st6" d="M26.2,12.8c1-1.4,1.6-3.2,1.6-4.7c0-2.1-1.2-3.9-2.9-4.9c-0.8-0.5-1.8-0.7-2.8-0.7c-0.1,0-0.2,0-0.3,0l-0.2,0
		c0,0,4.5,1.4,4.3,5.9c-0.2,4.4-1.8,6.3-1.9,6.4c0.2-0.1,0.4-0.2,0.5-0.3C25.2,14.1,25.7,13.5,26.2,12.8z"/>
	<g>
		<path class="st5" d="M21.7,2.5C21.7,2.5,21.7,2.5,21.7,2.5c0.1,0,0.1,0,0.2,0L21.7,2.5z"/>
		<path class="st5" d="M17.8,4.6c0.4,0.1,0.8,0.3,1.1,0.5c1.9,1.1,3.2,3.2,3.2,5.4c0,1.5-0.5,3.2-1.4,4.6c0.5,0.2,1,0.3,1.5,0.3
			c0.6,0,1.3-0.2,1.9-0.5c0.1-0.1,1.7-2,1.9-6.4c0.2-4.3-3.9-5.8-4.3-5.9C20.2,2.6,18.8,3.4,17.8,4.6z"/>
	</g>
	<path class="st0" d="M18.9,17.3L18.9,17.3c-0.9,0.7-1.9,1.1-3,1.1c-1.3,0-2.6-0.6-3.7-1.7c-0.1-0.1-0.4-0.2-0.6-0.1
		c-1.6,0.8-3,2-4,3.6c-1,1.6-1.6,3.4-1.6,5.3v0c0,0.1,0.1,0.3,0.2,0.4c2.6,2.4,6.1,3.7,9.6,3.7c0.6,0,1.2,0,1.7-0.1
		C23.1,23.8,18.9,17.3,18.9,17.3z"/>
	<path class="st1" d="M25.7,25.4L25.7,25.4c0-1.9-0.5-3.7-1.6-5.3c-1-1.5-2.4-2.8-4-3.6c-0.2-0.1-0.4-0.1-0.6,0.1
		c-0.2,0.2-0.5,0.4-0.7,0.6l0,0c0,0,4.2,6.5-1.2,12.1c2.9-0.4,5.7-1.6,7.9-3.6C25.7,25.7,25.7,25.6,25.7,25.4z"/>
	<path class="st0" d="M15.4,4.8l0.2,0c-3,0.2-5.3,2.6-5.3,5.6c0,1.5,0.6,3.3,1.6,4.7c1.1,1.6,2.6,2.5,4,2.5c0.6,0,1.3-0.2,1.9-0.5
		c0.1-0.1,1.7-2,1.9-6.4C19.9,6.2,15.4,4.8,15.4,4.8z"/>
	<path class="st1" d="M20,15.2c1-1.4,1.6-3.2,1.6-4.7c0-2.1-1.2-3.9-2.9-4.9c-0.8-0.5-1.8-0.7-2.8-0.7c-0.1,0-0.2,0-0.3,0l-0.2,0
		c0,0,4.5,1.4,4.3,5.9c-0.2,4.4-1.8,6.3-1.9,6.4c0.2-0.1,0.4-0.2,0.5-0.3C18.9,16.4,19.5,15.9,20,15.2z"/>
	<path class="st3" d="M4.9,26.3c-0.1,0-0.1,0-0.2-0.1C4.8,26.3,4.9,26.3,4.9,26.3z"/>
	<path class="st3" d="M3.2,25.6C3.2,25.6,3.2,25.5,3.2,25.6C3.2,25.5,3.2,25.6,3.2,25.6z"/>
	<path class="st3" d="M1.6,24.6C1.6,24.6,1.6,24.6,1.6,24.6C1.6,24.6,1.6,24.6,1.6,24.6z"/>
	<path class="st3" d="M6.6,26.8C6.6,26.8,6.6,26.8,6.6,26.8c-0.1,0-0.1,0-0.2-0.1C6.5,26.8,6.6,26.8,6.6,26.8z"/>
	<path class="st3" d="M0.1,23.3c0,0,0,0.1,0.1,0.1c0,0,0,0,0,0c0,0,0,0,0,0C0.1,23.4,0.1,23.4,0.1,23.3z"/>
	<path class="st4" d="M4.8,26.2c-0.5-0.2-1-0.4-1.5-0.7C3.7,25.8,4.2,26.1,4.8,26.2z"/>
	<path class="st4" d="M6.5,26.8c-0.5-0.1-1-0.3-1.5-0.4C5.4,26.5,5.9,26.6,6.5,26.8z"/>
	<path class="st4" d="M3.1,25.5c-0.5-0.3-1-0.6-1.5-0.9C2.1,25,2.6,25.3,3.1,25.5z"/>
	<path class="st4" d="M0.1,23.3C0,23.3,0,23.2,0,23.1C0,23.2,0,23.3,0.1,23.3z"/>
	<path class="st4" d="M1.6,24.6c-0.5-0.3-1-0.7-1.4-1.1C0.6,23.9,1.1,24.3,1.6,24.6z"/>
	<path class="st4" d="M5.6,14.2c0.1,0,0.2-0.1,0.3,0C5.8,14.2,5.7,14.2,5.6,14.2c-1.6,0.8-3,2-4,3.6c-0.8,1.2-1.3,2.5-1.5,3.9
		c0.2-1.4,0.7-2.7,1.5-3.9C2.6,16.3,4,15,5.6,14.2z"/>
	<g>
		<path class="st3" d="M10,16L10,16c0,0-0.1,0-0.1,0c-1.3,0-2.6-0.6-3.7-1.7c-0.1-0.1-0.2-0.1-0.3-0.1c-0.1,0-0.2,0-0.3,0
			c-1.6,0.8-3,2-4,3.6c-0.8,1.2-1.3,2.5-1.5,3.9C0,22.2,0,22.6,0,23.1v0c0,0.1,0,0.2,0.1,0.2c0,0,0,0.1,0.1,0.1c0,0,0,0,0,0
			c0.4,0.4,0.9,0.8,1.4,1.1c0,0,0,0,0,0c0.5,0.3,1,0.6,1.5,0.9c0,0,0.1,0,0.1,0.1c0.5,0.3,1,0.5,1.5,0.7c0.1,0,0.1,0,0.2,0.1
			c0.5,0.2,1,0.3,1.5,0.4c0.1,0,0.1,0,0.2,0c-0.2-0.2-0.5-0.4-0.7-0.6c-0.2-0.2-0.3-0.5-0.3-0.8c0-0.7,0.1-1.4,0.2-2.1
			c0.3-1.3,0.7-2.5,1.4-3.5c0.3-0.4,0.6-0.9,0.9-1.2l0,0C9.2,17.6,10,16,10,16z"/>
		<path class="st4" d="M11.5,16.1c0.1,0,0.2-0.1,0.3-0.1c-0.1-0.1-0.2-0.2-0.3-0.4C11,15.9,10.5,16,9.9,16l0,0c0,0-0.7,1.6-1.8,2.6
			l0,0C9.1,17.5,10.2,16.7,11.5,16.1z"/>
	</g>
</g>
</svg>
