<?xml version="1.0" encoding="UTF-8" standalone="no"?>
<!-- Generator: Adobe Illustrator 24.3.0, SVG Export Plug-In . SVG Version: 6.00 Build 0)  -->

<svg
   version="1.1"
   id="Capa_1"
   x="0px"
   y="0px"
   viewBox="0 0 32 32"
   style="enable-background:new 0 0 32 32;"
   xml:space="preserve"
   sodipodi:docname="Hamburguer_icon.svg"
   inkscape:version="1.1.2 (0a00cf5339, 2022-02-04)"
   xmlns:inkscape="http://www.inkscape.org/namespaces/inkscape"
   xmlns:sodipodi="http://sodipodi.sourceforge.net/DTD/sodipodi-0.dtd"
   xmlns="http://www.w3.org/2000/svg"
   xmlns:svg="http://www.w3.org/2000/svg"><defs
   id="defs33">
	
	
	
</defs><sodipodi:namedview
   id="namedview31"
   pagecolor="#ffffff"
   bordercolor="#666666"
   borderopacity="1.0"
   inkscape:pageshadow="2"
   inkscape:pageopacity="0.0"
   inkscape:pagecheckerboard="0"
   showgrid="false"
   inkscape:zoom="26.125"
   inkscape:cx="15.980861"
   inkscape:cy="15.980861"
   inkscape:window-width="1920"
   inkscape:window-height="1043"
   inkscape:window-x="0"
   inkscape:window-y="1080"
   inkscape:window-maximized="1"
   inkscape:current-layer="Capa_1" />
<style
   type="text/css"
   id="style2">
	.st0{fill:#17B5C8;}
	.st1{fill:#11828F;}
	.st2{fill:none;}
	.st3{fill:#A6D100;}
	.st4{fill:#89AB00;}
	.st5{fill:#5F7993;}
	.st6{fill:#405162;}
	.st7{fill:#FFFFFF;}
	.st8{fill:#3A5368;}
</style>
<g
   id="g10"
   transform="translate(0,4)">
		<path
   class="st5"
   d="m 1.9,25.5 c 0.2,0 0.3,0.1 0.5,0.1 H 4.5 24 29.6 c 0,0 0.1,0 0.1,0 0.6,-0.6 1,-1.4 1,-2.4 0,-0.9 -0.4,-1.8 -1.1,-2.4 0,0 -0.1,0 -0.1,0 H 24 4.5 2.4 C 2.2,20.8 2,20.8 1.9,20.9 0.8,21.1 0,22 0,23.1 c 0,1.2 0.8,2.1 1.9,2.4 z"
   id="path4" />
		<path
   class="st6"
   d="m 30.7,23.1 c 0,0.9 -0.4,1.8 -1,2.4 0.1,0 0.3,0 0.4,-0.1 0,0 0,0 0,0 0,0 0,0 0,0 0.1,0 0.1,0 0.2,0 0.1,0 0.1,0 0.2,-0.1 0.1,0 0.2,-0.1 0.3,-0.1 0.1,0 0.1,-0.1 0.2,-0.1 0.1,0 0.1,-0.1 0.2,-0.1 0.1,0 0.1,-0.1 0.2,-0.1 0.1,0 0.1,-0.1 0.1,-0.2 0.1,-0.1 0.1,-0.1 0.1,-0.2 0,-0.1 0.1,-0.1 0.1,-0.2 0,-0.1 0.1,-0.1 0.1,-0.2 0,-0.1 0.1,-0.1 0.1,-0.2 0,-0.1 0.1,-0.2 0.1,-0.3 0,0 0,-0.1 0,-0.1 0,-0.1 0,-0.3 0,-0.5 0,0 0,0 0,0 v 0 0 c 0,-0.2 0,-0.3 0,-0.5 0,0 0,-0.1 0,-0.1 0,-0.1 -0.1,-0.2 -0.1,-0.3 0,-0.1 0,-0.1 -0.1,-0.2 0,-0.1 -0.1,-0.1 -0.1,-0.2 0,-0.1 -0.1,-0.1 -0.1,-0.2 0,-0.1 -0.1,-0.1 -0.1,-0.2 0,-0.1 -0.1,-0.1 -0.1,-0.2 -0.1,0 -0.1,-0.1 -0.2,-0.1 -0.1,0 -0.1,-0.1 -0.2,-0.1 -0.1,0 -0.1,-0.1 -0.2,-0.1 -0.2,-0.1 -0.4,-0.2 -0.6,-0.2 0,0 0,0 0,0 0,0 0,0 0,0 -0.1,0 -0.3,0 -0.4,-0.1 0.5,0.9 0.9,1.7 0.9,2.6 z"
   id="path6" />
		<path
   class="st6"
   d="m 1.3,23.1 c 0,-0.9 0.4,-1.8 1,-2.4 -0.1,0 -0.3,0 -0.4,0.1 0,0 0,0 0,0 0,0 0,0 0,0 -0.1,0 -0.1,0 -0.2,0 -0.1,0 -0.1,0 -0.2,0.1 -0.1,0 -0.2,0.1 -0.3,0.1 -0.1,0 -0.1,0.1 -0.2,0.1 -0.1,0 -0.1,0.1 -0.2,0.1 -0.1,0 -0.1,0.1 -0.2,0.1 -0.1,0 -0.1,0.1 -0.1,0.2 -0.1,0.1 -0.1,0.1 -0.1,0.2 0,0.1 -0.1,0.1 -0.1,0.2 0,0.1 -0.1,0.1 -0.1,0.2 0,0.1 -0.1,0.1 -0.1,0.2 0,0.1 -0.1,0.2 -0.1,0.3 0,0 0,0.1 0,0.1 0,0.1 0,0.3 0,0.5 0,0 0,0 0,0 v 0 0 c 0,0.2 0,0.3 0,0.5 0,0 0,0.1 0,0.1 0,0.1 0.1,0.2 0.1,0.3 0,0.1 0,0.1 0.1,0.2 0,0.1 0.1,0.1 0.1,0.2 0,0.1 0.1,0.1 0.1,0.2 0,0.1 0.1,0.1 0.1,0.2 0,0.1 0.1,0.1 0.1,0.2 0.1,0 0.1,0.1 0.2,0.1 0.1,0 0.1,0.1 0.2,0.1 0.1,0 0.1,0.1 0.2,0.1 0.2,0.1 0.4,0.2 0.6,0.2 0,0 0,0 0,0 0,0 0,0 0,0 0.1,0 0.3,0 0.4,0.1 C 1.7,24.9 1.3,24.1 1.3,23.1 Z"
   id="path8" />
	</g><g
   id="g18">
		<path
   class="st3"
   d="m 1.9,18.3 c 0.2,0 0.3,0.1 0.5,0.1 H 4.5 24 29.6 c 0,0 0.1,0 0.1,0 0.6,-0.6 1,-1.4 1,-2.4 0,-0.9 -0.4,-1.8 -1.1,-2.4 0,0 -0.1,0 -0.1,0 H 24 4.5 2.4 C 2.2,13.6 2,13.6 1.9,13.7 0.8,13.9 0,14.9 0,16 c 0,1.1 0.8,2.1 1.9,2.3 z"
   id="path12" />
		<path
   class="st4"
   d="m 30.7,16 c 0,0.9 -0.4,1.8 -1,2.4 0.1,0 0.3,0 0.4,-0.1 0,0 0,0 0,0 0,0 0,0 0,0 0.1,0 0.1,0 0.2,0 0.1,0 0.1,0 0.2,-0.1 0.1,0 0.2,-0.1 0.3,-0.1 0.1,0 0.1,-0.1 0.2,-0.1 0.1,0 0.1,-0.1 0.2,-0.1 0.1,0 0.1,-0.1 0.2,-0.1 0.1,0 0.1,-0.1 0.1,-0.2 0.1,-0.1 0.1,-0.1 0.1,-0.2 0,-0.1 0.1,-0.1 0.1,-0.2 0,-0.1 0.1,-0.1 0.1,-0.2 0,-0.1 0.1,-0.1 0.1,-0.2 0,-0.1 0.1,-0.2 0.1,-0.3 0,0 0,-0.1 0,-0.1 0,-0.1 0,-0.3 0,-0.5 0,0 0,0 0,0 v 0 0 c 0,-0.2 0,-0.3 0,-0.5 0,0 0,-0.1 0,-0.1 0,-0.1 -0.1,-0.2 -0.1,-0.3 0,-0.1 0,-0.1 -0.1,-0.2 0,-0.1 -0.1,-0.1 -0.1,-0.2 0,-0.1 -0.1,-0.1 -0.1,-0.2 0,-0.1 -0.1,-0.1 -0.1,-0.2 0,-0.1 -0.1,-0.1 -0.1,-0.2 -0.1,0 -0.1,-0.1 -0.2,-0.1 C 31,14.1 31,14 30.9,14 c -0.1,0 -0.1,-0.1 -0.2,-0.1 -0.2,-0.1 -0.4,-0.2 -0.6,-0.2 0,0 0,0 0,0 0,0 0,0 0,0 -0.1,0 -0.3,0 -0.4,-0.1 0.6,0.6 1,1.5 1,2.4 z"
   id="path14" />
		<path
   class="st4"
   d="m 1.3,16 c 0,-0.9 0.4,-1.8 1,-2.4 -0.1,0 -0.3,0 -0.4,0.1 0,0 0,0 0,0 0,0 0,0 0,0 -0.1,0 -0.1,0 -0.2,0 -0.1,0 -0.1,0 -0.2,0.1 -0.1,0 -0.2,0.1 -0.3,0.1 -0.1,0 -0.1,0.1 -0.2,0.1 0,0 0,0.1 -0.1,0.1 -0.1,0 -0.1,0.1 -0.2,0.1 -0.1,0 -0.1,0.1 -0.1,0.2 -0.1,0.1 -0.1,0.1 -0.1,0.2 0,0.1 -0.1,0.1 -0.1,0.2 0,0.1 -0.1,0.1 -0.1,0.2 0,0.1 -0.1,0.1 -0.1,0.2 0,0.1 -0.1,0.2 -0.1,0.3 0,0 0,0.1 0,0.1 0,0.1 0,0.3 0,0.5 0,0 0,0 0,0 v 0 0 c 0,0.2 0,0.3 0,0.5 0,0 0,0.1 0,0.1 0,0.1 0.1,0.2 0.1,0.3 0,0.1 0,0.1 0.1,0.2 0,0.1 0.1,0.1 0.1,0.2 0,0.1 0.1,0.1 0.1,0.2 0,0.1 0.1,0.1 0.1,0.2 0,0.1 0.1,0.1 0.1,0.2 0.1,0 0.1,0.1 0.2,0.1 C 1,17.9 1,18 1.1,18 c 0.1,0 0.1,0.1 0.2,0.1 0.2,0.1 0.4,0.2 0.6,0.2 0,0 0,0 0,0 0,0 0,0 0,0 0.1,0 0.3,0 0.4,0.1 -0.6,-0.6 -1,-1.5 -1,-2.4 z"
   id="path16" />
	</g><g
   id="g26"
   transform="translate(0,-4)">
		<path
   class="st0"
   d="m 1.9,11.2 c 0.2,0 0.3,0.1 0.5,0.1 H 4.5 24 29.6 c 0,0 0.1,0 0.1,0 0.6,-0.6 1,-1.4 1,-2.4 0,-0.9 -0.4,-1.8 -1.1,-2.4 0,0 -0.1,0 -0.1,0 H 24 4.5 2.4 C 2.2,6.5 2,6.5 1.9,6.6 0.8,6.8 0,7.7 0,8.9 c 0,1.1 0.8,2 1.9,2.3 z"
   id="path20" />
		<path
   class="st1"
   d="m 30.7,8.9 c 0,0.9 -0.4,1.8 -1,2.4 0.1,0 0.3,0 0.4,-0.1 0,0 0,0 0,0 0,0 0,0 0,0 0.1,0 0.1,0 0.2,0 0.1,0 0.1,0 0.2,-0.1 0.1,0 0.2,-0.1 0.3,-0.1 0.1,0 0.1,-0.1 0.2,-0.1 0.1,0 0.1,-0.1 0.2,-0.1 0.1,0 0.1,-0.1 0.2,-0.1 0.1,0 0.1,-0.1 0.1,-0.2 0.1,-0.1 0.1,-0.1 0.1,-0.2 0,-0.1 0.1,-0.1 0.1,-0.2 0,-0.1 0.1,-0.1 0.1,-0.2 0,-0.1 0.1,-0.1 0.1,-0.2 0,-0.1 0.1,-0.2 0.1,-0.3 0,0 0,-0.1 0,-0.1 0,-0.1 0,-0.3 0,-0.5 0,0 0,0 0,0 v 0 0 c 0,-0.2 0,-0.3 0,-0.5 0,0 0,-0.1 0,-0.1 C 32,8.1 31.9,8 31.9,7.9 31.9,7.8 31.9,7.8 31.8,7.7 31.8,7.6 31.7,7.6 31.7,7.5 31.7,7.4 31.6,7.4 31.6,7.3 31.6,7.2 31.5,7.2 31.5,7.1 31.5,7 31.4,7 31.4,6.9 31.3,6.9 31.3,6.8 31.2,6.8 31.1,6.8 31.1,6.7 31,6.7 30.9,6.7 30.9,6.6 30.8,6.6 30.6,6.5 30.4,6.4 30.2,6.4 c 0,0 0,0 0,0 0,0 0,0 0,0 -0.1,0 -0.3,0 -0.4,-0.1 0.5,0.8 0.9,1.6 0.9,2.6 z"
   id="path22" />
		<path
   class="st1"
   d="m 1.3,8.9 c 0,-0.9 0.4,-1.8 1,-2.4 -0.1,0 -0.3,0 -0.4,0.1 0,0 0,0 0,0 0,0 0,0 0,0 -0.1,0 -0.1,0 -0.2,0 -0.1,0 -0.1,0 -0.2,0.1 C 1.4,6.7 1.3,6.8 1.2,6.8 1.1,6.8 1.1,6.9 1,6.9 1,6.9 1,6.9 0.9,7 0.9,7 0.8,7.1 0.8,7.1 0.7,7.1 0.7,7.2 0.7,7.3 0.6,7.3 0.5,7.4 0.5,7.4 0.5,7.5 0.4,7.5 0.4,7.6 0.4,7.7 0.3,7.7 0.3,7.8 0.3,7.9 0.2,7.9 0.2,8 c 0,0.1 -0.1,0.2 -0.1,0.3 0,0 0,0.1 0,0.1 0,0.1 0,0.3 0,0.5 0,0 0,0 0,0 v 0 0 C 0,9 0,9.2 0,9.3 c 0,0 0,0.1 0,0.1 0,0.1 0.1,0.2 0.1,0.3 0,0.1 0,0.1 0.1,0.2 0,0.1 0.1,0.1 0.1,0.2 0,0.1 0.1,0.1 0.1,0.2 0,0.1 0.1,0.1 0.1,0.2 0,0.1 0.1,0.1 0.1,0.2 0.1,0 0.1,0.1 0.2,0.1 0.1,0 0.1,0.1 0.2,0.1 0.1,0 0.1,0.1 0.2,0.1 0.2,0.1 0.4,0.2 0.6,0.2 0,0 0,0 0,0 0,0 0,0 0,0 0.1,0 0.3,0 0.4,0.1 C 1.7,10.6 1.3,9.8 1.3,8.9 Z"
   id="path24" />
	</g>
</svg>
