<?xml version="1.0" encoding="UTF-8" standalone="no"?>
<!-- Generator: Adobe Illustrator 24.3.0, SVG Export Plug-In . SVG Version: 6.00 Build 0)  -->

<svg
   xmlns:dc="http://purl.org/dc/elements/1.1/"
   xmlns:cc="http://creativecommons.org/ns#"
   xmlns:rdf="http://www.w3.org/1999/02/22-rdf-syntax-ns#"
   xmlns:svg="http://www.w3.org/2000/svg"
   xmlns="http://www.w3.org/2000/svg"
   xmlns:sodipodi="http://sodipodi.sourceforge.net/DTD/sodipodi-0.dtd"
   xmlns:inkscape="http://www.inkscape.org/namespaces/inkscape"
   version="1.1"
   id="Capa_1"
   x="0px"
   y="0px"
   viewBox="0 0 32 32"
   style="enable-background:new 0 0 32 32;"
   xml:space="preserve"
   sodipodi:docname="host.svg"
   inkscape:version="0.92.5 (2060ec1f9f, 2020-04-08)"><metadata
   id="metadata880"><rdf:RDF><cc:Work
       rdf:about=""><dc:format>image/svg+xml</dc:format><dc:type
         rdf:resource="http://purl.org/dc/dcmitype/StillImage" /><dc:title></dc:title></cc:Work></rdf:RDF></metadata><defs
   id="defs878">
	
	
	
	
	
	
	
	
	
	
	
	
	
	
	
	
	
	
	
	
</defs><sodipodi:namedview
   pagecolor="#ffffff"
   bordercolor="#666666"
   borderopacity="1"
   objecttolerance="10"
   gridtolerance="10"
   guidetolerance="10"
   inkscape:pageopacity="0"
   inkscape:pageshadow="2"
   inkscape:window-width="1920"
   inkscape:window-height="1016"
   id="namedview876"
   showgrid="false"
   inkscape:pagecheckerboard="true"
   inkscape:zoom="27.5"
   inkscape:cx="16"
   inkscape:cy="16"
   inkscape:window-x="0"
   inkscape:window-y="27"
   inkscape:window-maximized="1"
   inkscape:current-layer="Capa_1" />
<style
   type="text/css"
   id="style815">
	.st0{fill:#17B5C8;}
	.st1{fill:#11828F;}
	.st2{fill:none;}
	.st3{fill:#A6D100;}
	.st4{fill:#89AB00;}
	.st5{fill:#5F7993;}
	.st6{fill:#405162;}
	.st7{fill:#FFFFFF;}
	.st8{fill:#3A5368;}
</style>
<g
   id="g821">
		<path
   style="fill:#405162"
   inkscape:connector-curvature="0"
   id="path817"
   d="m 30,0 h -1.5 c 1.1,0 2,0.9 2,2 v 6.8 c 0,1.1 -0.9,2 -2,2 H 30 c 1.1,0 2,-0.9 2,-2 V 2 C 32,0.9 31.1,0 30,0 Z"
   class="st6" />
		<path
   style="fill:#5f7993"
   inkscape:connector-curvature="0"
   id="path819"
   d="M 28.5,0 H 2 C 0.9,0 0,0.9 0,2 v 6.8 c 0,1.1 0.9,2 2,2 h 26.6 c 1.1,0 2,-0.9 2,-2 V 2 C 30.5,0.9 29.6,0 28.5,0 Z M 5.8,6.9 C 4.7,6.9 3.9,6.1 3.9,5 3.9,3.9 4.8,3.1 5.8,3.1 6.8,3.1 7.7,4 7.7,5 7.7,6.1 6.8,6.9 5.8,6.9 Z M 26.6,7 c 0,0.5 -0.4,0.9 -0.9,0.9 H 17.4 C 16.9,7.9 16.5,7.5 16.5,7 V 3.7 c 0,-0.5 0.4,-0.9 0.9,-0.9 h 8.3 c 0.5,0 0.9,0.4 0.9,0.9 z"
   class="st5" />
	</g><g
   id="g839">
		<path
   style="fill:#405162"
   inkscape:connector-curvature="0"
   id="path827"
   d="M 25,6.3 C 24.7,6.3 24.5,6.1 24.5,5.8 V 6.5 C 24.4,6.8 24.7,7 25,7 25.3,7 25.5,6.8 25.5,6.5 V 5.8 c 0,0.3 -0.2,0.5 -0.5,0.5 z"
   class="st6" />
		<path
   style="fill:#405162"
   inkscape:connector-curvature="0"
   id="path829"
   d="m 22.8,6.3 c -0.3,0 -0.5,-0.2 -0.5,-0.5 v 0.7 c 0,0.3 0.2,0.5 0.5,0.5 0.3,0 0.5,-0.2 0.5,-0.5 V 5.8 c 0.1,0.3 -0.2,0.5 -0.5,0.5 z"
   class="st6" />
		<path
   style="fill:#405162"
   inkscape:connector-curvature="0"
   id="path831"
   d="M 20.7,6.3 C 20.4,6.3 20.2,6.1 20.2,5.8 V 6.5 C 20.2,6.8 20.4,7 20.7,7 21,7 21.2,6.8 21.2,6.5 V 5.8 c 0,0.3 -0.2,0.5 -0.5,0.5 z"
   class="st6" />
		<path
   style="fill:#5f7993"
   inkscape:connector-curvature="0"
   id="path833"
   d="m 25,3.8 c -0.3,0 -0.5,0.2 -0.5,0.5 v 1.5 c 0,0.3 0.2,0.5 0.5,0.5 0.3,0 0.5,-0.2 0.5,-0.5 V 4.3 C 25.5,4 25.3,3.8 25,3.8 Z"
   class="st5" />
		<path
   style="fill:#5f7993"
   inkscape:connector-curvature="0"
   id="path835"
   d="m 22.8,3.8 c -0.3,0 -0.5,0.2 -0.5,0.5 v 1.5 c 0,0.3 0.2,0.5 0.5,0.5 0.3,0 0.5,-0.2 0.5,-0.5 V 4.3 C 23.4,4 23.1,3.8 22.8,3.8 Z"
   class="st5" />
		<path
   style="fill:#5f7993"
   inkscape:connector-curvature="0"
   id="path837"
   d="m 20.7,3.8 c -0.3,0 -0.5,0.2 -0.5,0.5 v 1.5 c 0,0.3 0.2,0.5 0.5,0.5 0.3,0 0.5,-0.2 0.5,-0.5 V 4.3 C 21.2,4 21,3.8 20.7,3.8 Z"
   class="st5" />
	</g><path
   style="fill:#89ab00"
   inkscape:connector-curvature="0"
   id="path841"
   d="m 30,10.7 h -1.5 c 1.1,0 2,0.9 2,2 v 6.8 c 0,1.1 -0.9,2 -2,2 H 30 c 1.1,0 2,-0.9 2,-2 v -6.8 c 0,-1.2 -0.9,-2 -2,-2 z"
   class="st4" /><path
   style="fill:#a6d100"
   inkscape:connector-curvature="0"
   id="path843"
   d="M 28.5,10.7 H 2 c -1.1,0 -2,0.9 -2,2 v 6.8 c 0,1.1 0.9,2 2,2 h 26.6 c 1.1,0 2,-0.9 2,-2 v -6.8 c -0.1,-1.2 -1,-2 -2.1,-2 z M 5.8,17.6 c -1.1,0 -1.9,-0.9 -1.9,-1.9 0,-1.1 0.9,-1.9 1.9,-1.9 1.1,0 1.9,0.9 1.9,1.9 0,1.1 -0.9,1.9 -1.9,1.9 z m 20.8,0 c 0,0.5 -0.4,0.9 -0.9,0.9 h -8.3 c -0.5,0 -0.9,-0.4 -0.9,-0.9 v -3.3 c 0,-0.5 0.4,-0.9 0.9,-0.9 h 8.3 c 0.5,0 0.9,0.4 0.9,0.9 z"
   class="st3" /><path
   style="fill:#89ab00"
   inkscape:connector-curvature="0"
   id="path845"
   d="m 25,17 c -0.3,0 -0.5,-0.2 -0.5,-0.5 v 0.7 c 0,0.3 0.2,0.5 0.5,0.5 0.3,0 0.5,-0.2 0.5,-0.5 v -0.7 c 0,0.3 -0.2,0.5 -0.5,0.5 z"
   class="st4" /><path
   style="fill:#89ab00"
   inkscape:connector-curvature="0"
   id="path847"
   d="m 22.8,17 c -0.3,0 -0.5,-0.2 -0.5,-0.5 v 0.7 c 0,0.3 0.2,0.5 0.5,0.5 0.3,0 0.5,-0.2 0.5,-0.5 v -0.7 c 0.1,0.3 -0.2,0.5 -0.5,0.5 z"
   class="st4" /><path
   style="fill:#a6d100"
   inkscape:connector-curvature="0"
   id="path849"
   d="m 25,14.5 c -0.3,0 -0.5,0.2 -0.5,0.5 v 1.5 c 0,0.3 0.2,0.5 0.5,0.5 0.3,0 0.5,-0.2 0.5,-0.5 V 15 c 0,-0.3 -0.2,-0.5 -0.5,-0.5 z"
   class="st3" /><path
   style="fill:#a6d100"
   inkscape:connector-curvature="0"
   id="path851"
   d="m 22.8,14.5 c -0.3,0 -0.5,0.2 -0.5,0.5 v 1.5 c 0,0.3 0.2,0.5 0.5,0.5 0.3,0 0.5,-0.2 0.5,-0.5 V 15 c 0.1,-0.3 -0.2,-0.5 -0.5,-0.5 z"
   class="st3" /><path
   style="fill:#11828f"
   inkscape:connector-curvature="0"
   id="path853"
   d="m 30,21.3 h -1.5 c 1.1,0 2,0.9 2,2 V 30 c 0,1.1 -0.9,2 -2,2 H 30 c 1.1,0 2,-0.9 2,-2 v -6.8 c 0,-1 -0.9,-1.9 -2,-1.9 z"
   class="st1" /><path
   style="fill:#17b5c8"
   inkscape:connector-curvature="0"
   id="path855"
   d="M 28.5,21.3 H 2 c -1.1,0 -2,0.9 -2,2 V 30 c 0,1.1 0.9,2 2,2 h 26.6 c 1.1,0 2,-0.9 2,-2 v -6.8 c -0.1,-1 -1,-1.9 -2.1,-1.9 z m -22.7,7 c -1.1,0 -1.9,-0.9 -1.9,-1.9 0,-1.1 0.9,-1.9 1.9,-1.9 1.1,0 1.9,0.9 1.9,1.9 0,1 -0.9,1.9 -1.9,1.9 z m 20.8,0 c 0,0.5 -0.4,0.9 -0.9,0.9 h -8.3 c -0.5,0 -0.9,-0.4 -0.9,-0.9 V 25 c 0,-0.5 0.4,-0.9 0.9,-0.9 h 8.3 c 0.5,0 0.9,0.4 0.9,0.9 z"
   class="st0" /><path
   style="fill:#11828f"
   inkscape:connector-curvature="0"
   id="path857"
   d="m 24.7,27.7 c -0.3,0 -0.5,-0.2 -0.5,-0.5 v 0.7 c 0,0.3 0.2,0.5 0.5,0.5 0.3,0 0.5,-0.2 0.5,-0.5 v -0.7 c 0,0.2 -0.2,0.5 -0.5,0.5 z"
   class="st1" /><path
   style="fill:#11828f"
   inkscape:connector-curvature="0"
   id="path859"
   d="M 22.5,27.7 C 22.2,27.7 22,27.5 22,27.2 v 0.7 c 0,0.3 0.2,0.5 0.5,0.5 0.3,0 0.5,-0.2 0.5,-0.5 v -0.7 c 0.1,0.2 -0.2,0.5 -0.5,0.5 z"
   class="st1" /><path
   style="fill:#11828f"
   inkscape:connector-curvature="0"
   id="path861"
   d="m 20.4,27.7 c -0.3,0 -0.5,-0.2 -0.5,-0.5 v 0.7 c 0,0.3 0.2,0.5 0.5,0.5 0.3,0 0.5,-0.2 0.5,-0.5 v -0.7 c 0,0.2 -0.2,0.5 -0.5,0.5 z"
   class="st1" /><path
   style="fill:#17b5c8"
   inkscape:connector-curvature="0"
   id="path863"
   d="m 24.7,25.1 c -0.3,0 -0.5,0.2 -0.5,0.5 v 1.5 c 0,0.3 0.2,0.5 0.5,0.5 0.3,0 0.5,-0.2 0.5,-0.5 v -1.5 c 0,-0.2 -0.2,-0.5 -0.5,-0.5 z"
   class="st0" /><path
   style="fill:#17b5c8"
   inkscape:connector-curvature="0"
   id="path865"
   d="m 22.5,25.1 c -0.3,0 -0.5,0.2 -0.5,0.5 v 1.5 c 0,0.3 0.2,0.5 0.5,0.5 0.3,0 0.5,-0.2 0.5,-0.5 v -1.5 c 0.1,-0.2 -0.2,-0.5 -0.5,-0.5 z"
   class="st0" /><path
   style="fill:#17b5c8"
   inkscape:connector-curvature="0"
   id="path867"
   d="m 20.4,25.1 c -0.3,0 -0.5,0.2 -0.5,0.5 v 1.5 c 0,0.3 0.2,0.5 0.5,0.5 0.3,0 0.5,-0.2 0.5,-0.5 v -1.5 c 0,-0.2 -0.2,-0.5 -0.5,-0.5 z"
   class="st0" /><path
   style="fill:#11828f"
   inkscape:connector-curvature="0"
   id="path869"
   d="m 18.4,27.7 c -0.3,0 -0.5,-0.2 -0.5,-0.5 v 0.7 c 0,0.3 0.2,0.5 0.5,0.5 0.3,0 0.5,-0.2 0.5,-0.5 v -0.7 c 0.1,0.2 -0.2,0.5 -0.5,0.5 z"
   class="st1" /><path
   style="fill:#17b5c8"
   inkscape:connector-curvature="0"
   id="path871"
   d="m 18.4,25.1 c -0.3,0 -0.5,0.2 -0.5,0.5 v 1.5 c 0,0.3 0.2,0.5 0.5,0.5 0.3,0 0.5,-0.2 0.5,-0.5 V 25.6 C 19,25.4 18.7,25.1 18.4,25.1 Z"
   class="st0" />
</svg>