<?xml version="1.0" encoding="utf-8"?>
<!-- Generator: Adobe Illustrator 24.3.0, SVG Export Plug-In . SVG Version: 6.00 Build 0)  -->
<svg version="1.1" id="Capa_1" xmlns="http://www.w3.org/2000/svg" xmlns:xlink="http://www.w3.org/1999/xlink" x="0px" y="0px"
	 viewBox="0 0 32 32" style="enable-background:new 0 0 32 32;" xml:space="preserve">
<style type="text/css">
	.st0{fill:#17B5C8;}
	.st1{fill:#11828F;}
	.st2{fill:none;}
	.st3{fill:#A6D100;}
	.st4{fill:#89AB00;}
	.st5{fill:#5F7993;}
	.st6{fill:#405162;}
	.st7{fill:#FFFFFF;}
	.st8{fill:#3A5368;}
</style>
<path class="st0" d="M17.5,10.9v0.6h1c0.3,0,0.6,0.2,0.7,0.4c0.2,0.3,0.2,0.6,0,0.9L16.7,17c-0.2,0.3-0.4,0.4-0.7,0.4
	s-0.6-0.2-0.7-0.4l-2.5-4.3c-0.2-0.3-0.2-0.6,0-0.9c0.2-0.3,0.4-0.4,0.7-0.4h1v-0.6L0,16.2l16,7.6l16-7.6L17.5,10.9z"/>
<polygon class="st3" points="32,16.2 32,22.1 16,29.8 16,23.8 "/>
<g>
	<path class="st5" d="M16.9,12h-1.8V3.1c0-0.5,0.4-0.9,0.9-0.9h0c0.5,0,0.9,0.4,0.9,0.9V12z"/>
	<path class="st5" d="M16.2,16.7l2.5-4.3c0.1-0.2,0-0.4-0.2-0.4h-5c-0.2,0-0.4,0.2-0.2,0.4l2.5,4.3C15.9,16.9,16.1,16.9,16.2,16.7z"
		/>
	<path class="st6" d="M15.1,11.6V12h1.8v-0.4V9.3C16.9,9.3,16.5,11.6,15.1,11.6z"/>
</g>
<polygon class="st5" points="0,16.2 0,22.1 16,29.8 16,23.8 "/>
<path class="st6" d="M2.6,17.4c0,0-2.6,2.2,0,5.9L0,22.1v-5.9L2.6,17.4z"/>
<path class="st4" d="M29.4,17.4c0,0,2.6,2.2,0,5.9l2.6-1.2v-5.9L29.4,17.4z"/>
</svg>
