<?xml version="1.0" encoding="utf-8"?>
<!-- Generator: Adobe Illustrator 24.3.0, SVG Export Plug-In . SVG Version: 6.00 Build 0)  -->
<svg version="1.1" id="Capa_1" xmlns="http://www.w3.org/2000/svg" xmlns:xlink="http://www.w3.org/1999/xlink" x="0px" y="0px"
	 viewBox="0 0 32 32" style="enable-background:new 0 0 32 32;" xml:space="preserve">
<style type="text/css">
	.st0{fill:#17B5C8;}
	.st1{fill:#11828F;}
	.st2{fill:none;}
	.st3{fill:#A6D100;}
	.st4{fill:#89AB00;}
	.st5{fill:#5F7993;}
	.st6{fill:#405162;}
	.st7{fill:#FFFFFF;}
	.st8{fill:#3A5368;}
</style>
<g>
	<g>
		<path class="st0" d="M9,16.6L7,18.5H5.8c-0.3,0-0.5,0.2-0.5,0.5v1h-1c-0.3,0-0.5,0.2-0.5,0.5v1h-1c-0.3,0-0.5,0.2-0.5,0.5v1h-1
			c-0.1,0-0.3,0.1-0.4,0.2c-0.1,0.1-0.2,0.3-0.2,0.4v3.4c0,0.3,0.2,0.5,0.5,0.5h3.5c0.1,0,0.3-0.1,0.4-0.2l7.6-7.6
			C11.2,19.1,9.9,18,9,16.6z"/>
		<path class="st1" d="M10.4,15.2L9,16.6c1,1.4,2.2,2.5,3.7,3.3l1.8-1.8L10.4,15.2z"/>
	</g>
	<g>
		<path class="st2" d="M26.3,27.6h-5.1c-0.3,0-0.6,0.3-0.6,0.6c0,0.3,0.3,0.6,0.6,0.6h5.1c0.3,0,0.6-0.3,0.6-0.6
			C26.9,27.9,26.6,27.6,26.3,27.6z"/>
		<path class="st3" d="M29.3,12.7l-1-1.1l-0.1-0.1c-0.5,5.4-5.1,9.6-10.6,9.6c-0.1,0-0.1,0-0.2,0v8.2c0,1.5,1.2,2.7,2.7,2.7h7.2
			c1.5,0,2.7-1.2,2.7-2.7V14.6C30.1,13.9,29.8,13.2,29.3,12.7z M26.3,28.8h-5.1c-0.3,0-0.6-0.3-0.6-0.6c0-0.3,0.3-0.6,0.6-0.6h5.1
			c0.3,0,0.6,0.3,0.6,0.6C26.9,28.5,26.6,28.8,26.3,28.8z"/>
		<path class="st4" d="M28.3,11.6l-1.1-1.2L26.8,10l-1.2-0.1l-8.2,9.6v1.6c0.1,0,0.1,0,0.2,0C23.2,21.1,27.7,16.9,28.3,11.6z"/>
	</g>
	<g>
		<path class="st1" d="M26.7,10.5c0-4.4-3.1-8-7.2-8.9c3.6,1.4,6.1,4.8,6.1,8.9c0,4-2.5,7.5-6.1,8.9C23.6,18.5,26.7,14.8,26.7,10.5z
			"/>
		<path class="st0" d="M25.6,10.5c0-4-2.5-7.5-6.1-8.9c-0.6-0.1-1.2-0.2-1.8-0.2c-5,0-9,4-9,9c0,5,4,9,9,9c0.6,0,1.3-0.1,1.8-0.2
			C23.1,18,25.6,14.5,25.6,10.5z M13.3,13.5c0.2,0.2,0.2,0.6,0,0.8c-0.1,0.1-0.3,0.2-0.4,0.2c-0.2,0-0.3-0.1-0.4-0.2
			c-2.1-2.1-2.1-5.6,0-7.8c0.2-0.2,0.6-0.2,0.8,0c0.2,0.2,0.2,0.6,0,0.8C11.6,9.1,11.6,11.8,13.3,13.5z M15.6,15.4
			c-0.1,0.3-0.3,0.4-0.6,0.4c-0.1,0-0.1,0-0.2,0c-0.3-0.1-0.5-0.4-0.4-0.7c0.1-0.3,0.4-0.5,0.7-0.4c0,0,0,0,0,0
			C15.5,14.7,15.7,15,15.6,15.4z M19.8,10.2c-1.5,0-2.7-1.2-2.7-2.7c0-1.5,1.2-2.7,2.7-2.7s2.7,1.2,2.7,2.7
			C22.4,9,21.2,10.2,19.8,10.2z"/>
	</g>
	<g>
		<path class="st5" d="M28.3,4.6c0-2.5-2-4.6-4.6-4.6c-1,0-2,0.3-2.8,0.9l-0.9,0.9c-0.4,0.5-0.7,1.2-0.8,1.8l-0.1,1.3v1.3
			c0,0.3,0.3,0.6,0.6,0.6s0.6-0.3,0.6-0.6V4.9l0.1-1.2c0.1-0.5,0.4-0.9,0.7-1.3l1-0.8c0.5-0.3,1-0.4,1.6-0.4c1.9,0,3.4,1.5,3.4,3.4
			v4l1.2,0.9V4.6z"/>
		<polygon class="st6" points="28.3,11.6 28.3,9.5 27.1,8.6 27.1,10.3 		"/>
	</g>
</g>
</svg>
