<?xml version="1.0" encoding="utf-8"?>
<!-- Generator: Adobe Illustrator 24.3.0, SVG Export Plug-In . SVG Version: 6.00 Build 0)  -->
<svg version="1.1" id="Capa_1" xmlns="http://www.w3.org/2000/svg" xmlns:xlink="http://www.w3.org/1999/xlink" x="0px" y="0px"
	 viewBox="0 0 32 32" style="enable-background:new 0 0 32 32;" xml:space="preserve">
<style type="text/css">
	.st0{fill:#17B5C8;}
	.st1{fill:#11828F;}
	.st2{fill:none;}
	.st3{fill:#A6D100;}
	.st4{fill:#89AB00;}
	.st5{fill:#5F7993;}
	.st6{fill:#405162;}
	.st7{fill:#FFFFFF;}
	.st8{fill:#3A5368;}
</style>
<g>
	<path class="st5" d="M15.3,16.7h-0.2C15.2,16.7,15.3,16.7,15.3,16.7z"/>
	<path class="st0" d="M31.7,7.2l-7-6.9C24.6,0.1,24.3,0,24,0.1c-0.2,0.1-0.4,0.3-0.4,0.6v3.5c-3.6,0.1-5.3,1.6-5.6,1.9
		c-1.8,1.5-3,3.5-3.5,5.8c-0.2,1.1-0.3,2.2-0.1,3.3l0,0c0,0,0,0,0,0l0.1,0.8c0,0.3,0.3,0.5,0.5,0.5c0.6-6.7,8.5-8.3,8.5-8.3V11v3.6
		c0,0.3,0.2,0.5,0.4,0.6c0.2,0.1,0.5,0,0.7-0.1l7-7C32,7.9,32,7.5,31.7,7.2z"/>
	<path class="st1" d="M15.1,16.7h0.2c0.2,0,0.4-0.1,0.5-0.3l0.4-0.7c1.3-2.1,2.9-3.6,4.8-4.2c0.8-0.3,1.7-0.4,2.6-0.4V8.4
		C23.6,8.4,15.7,9.9,15.1,16.7z"/>
</g>
<g>
	<path class="st3" d="M25.6,15.9c-0.3,0.3-0.8,0.5-1.3,0.5c-0.2,0-0.5,0-0.7-0.1c-0.7-0.3-1.1-0.9-1.1-1.7v-2.5
		c-0.4,0.1-0.8,0.1-1.1,0.3c-1.6,0.6-3,1.8-4.2,3.7l-0.4,0.7c-0.3,0.5-0.7,0.8-1.3,0.8l-0.1,0H15l-0.1,0c-0.7-0.1-1.3-0.7-1.4-1.5
		l-0.2-0.9c-0.2-1.2-0.1-2.5,0.1-3.7c0.5-2.5,1.9-4.8,3.9-6.5c0.3-0.3,2-1.7,5.2-2V1.8H2.8C1.3,1.8,0,3.1,0,4.6v24.6
		C0,30.8,1.3,32,2.8,32h26.3c1.6,0,2.8-1.3,2.8-2.8V9.5L25.6,15.9z"/>
</g>
</svg>
