<?xml version="1.0" encoding="UTF-8" standalone="no"?>
<svg
   xmlns:dc="http://purl.org/dc/elements/1.1/"
   xmlns:cc="http://creativecommons.org/ns#"
   xmlns:rdf="http://www.w3.org/1999/02/22-rdf-syntax-ns#"
   xmlns:svg="http://www.w3.org/2000/svg"
   xmlns="http://www.w3.org/2000/svg"
   xmlns:sodipodi="http://sodipodi.sourceforge.net/DTD/sodipodi-0.dtd"
   xmlns:inkscape="http://www.inkscape.org/namespaces/inkscape"
   version="1.1"
   id="Capa_1"
   x="0px"
   y="0px"
   viewBox="0 0 32 32"
   style="enable-background:new 0 0 32 32;"
   xml:space="preserve"
   sodipodi:docname="linux.svg"
   inkscape:version="0.92.5 (2060ec1f9f, 2020-04-08)"><metadata
   id="metadata880"><rdf:RDF><cc:Work
       rdf:about=""><dc:format>image/svg+xml</dc:format><dc:type
         rdf:resource="http://purl.org/dc/dcmitype/StillImage" /><dc:title></dc:title></cc:Work></rdf:RDF></metadata><defs
   id="defs878">
	
</defs><sodipodi:namedview
   pagecolor="#ffffff"
   bordercolor="#666666"
   borderopacity="1"
   objecttolerance="10"
   gridtolerance="10"
   guidetolerance="10"
   inkscape:pageopacity="0"
   inkscape:pageshadow="0"
   inkscape:window-width="1920"
   inkscape:window-height="1025"
   id="namedview876"
   showgrid="false"
   inkscape:pagecheckerboard="false"
   inkscape:zoom="19.445436"
   inkscape:cx="1.0757705"
   inkscape:cy="16"
   inkscape:window-x="0"
   inkscape:window-y="29"
   inkscape:window-maximized="1"
   inkscape:current-layer="Capa_1" />

<path
   inkscape:connector-curvature="0"
   d="M 27.538831,25.544279 C 26.809842,24.953135 27.093485,23.647582 26.336661,23.003421 27.069627,18.543333 25.015203,14.612096 22.5658,12.092444 20.510051,9.9783761 21.172768,7.9213024 21.172768,6.1412439 c 0,-2.8443827 -1.167707,-5.84516665 -4.705292,-5.84516665 -3.781464,0 -4.817954,3.15453435 -4.855067,4.95447455 -0.09012,4.3235675 0.873462,5.4475352 -1.6567944,8.5941182 -2.9769273,3.701936 -3.4156457,7.394598 -2.7436501,9.35359 -0.3141286,0.36582 -0.7382674,0.771403 -1.5308772,1.106737 -2.1896179,0.954314 -0.5845167,2.551462 -1.1902403,3.684709 -0.1723065,0.32208 -0.2544834,0.658741 -0.2544834,0.980821 0,0.994076 0.789959,1.854284 2.2254046,1.725716 1.9364599,-0.172306 3.7231468,1.199519 4.8789268,1.199519 1.020585,0 1.858259,-0.580541 2.247938,-1.379778 1.825122,-0.449323 4.078361,-0.392329 5.90216,0.0782 0.327382,0.915876 1.215423,1.512321 2.202872,1.512321 2.161784,0 2.577969,-2.450728 5.057858,-3.28045 0.893343,-0.298223 1.342665,-1.165057 1.342665,-1.972246 0,-0.51692 -0.184235,-1.008657 -0.555357,-1.30953 z M 15.415081,11.673607 c -0.422814,0 -0.772729,-0.341962 -1.325435,-0.752847 -0.699829,-0.51957 -1.411587,-0.819118 -1.403634,-1.3651967 0,-0.375098 0.502339,-0.4904109 1.151802,-0.9026209 0.697179,-0.4413698 0.968893,-0.8893667 1.655468,-0.8893667 0.70248,0 0.914549,0.3552165 1.868862,0.7674267 0.938408,0.4069084 1.591847,0.5659605 1.591847,1.0245609 0,0.4705287 -0.982146,0.8071897 -1.534853,1.1504767 -0.812491,0.501014 -1.230004,0.967567 -2.004057,0.967567 z M 17.62193,4.7614665 c 1.169033,0.1868863 1.300251,2.2413098 0.740918,3.2526163 L 17.892318,7.8218949 C 18.136198,7.1021839 18.132221,5.9172454 17.315754,5.8416956 16.79751,5.79398 16.4635,6.4779042 16.391926,7.0637463 16.189134,6.9789185 15.967787,6.9179485 15.698724,6.8954161 15.780901,5.67204 16.57086,4.5931363 17.62193,4.7614665 Z m -4.510455,0.4387188 c 0.895995,-0.222673 1.424843,0.8191186 1.428819,1.9019986 L 14.12941,7.3540165 C 14.073741,6.8993924 13.870949,6.1651016 13.361983,6.321503 12.81723,6.4911586 12.906033,7.7569485 13.209558,8.0167337 L 12.803975,8.2420576 C 12.247292,7.3049754 12.248618,5.4149057 13.111475,5.2001853 Z M 10.308181,30.705521 C 7.7063518,29.521908 6.822286,29.790972 6.3252484,29.790972 c -1.0298626,0 -1.366523,-0.767427 -0.9794961,-1.493765 0.3287078,-0.616327 0.2266494,-1.261815 0.1457979,-1.780059 -0.124591,-0.793936 -0.1471234,-1.052395 0.6335577,-1.394357 1.0802293,-0.458601 1.5600362,-1.048419 1.917904,-1.489789 1.004679,-1.241932 2.0186371,0.711759 2.8496871,2.452055 0.539451,1.127944 1.601124,1.699207 1.928507,2.949091 0.300873,1.154453 -0.941058,2.387108 -2.513025,1.671373 z m 9.260812,-2.483864 c -1.834401,0.892017 -4.171142,1.301576 -5.919391,0.396305 -0.258459,-0.74622 -0.671995,-1.228678 -1.117341,-1.713788 0.714409,-0.188211 1.244582,-1.078903 0.6097,-1.973571 -0.677297,-0.955639 -2.06105,-1.622333 -3.4593868,-2.703886 -1.3082036,-1.011308 -1.7217395,-3.50445 0.059644,-6.290512 -0.8681595,2.467958 -0.3605186,4.742404 0.075548,5.393192 0.090134,-1.309529 0.1935138,-3.496496 1.9828518,-6.116879 0.902621,-1.322784 0.915876,-3.069707 0.935757,-4.161865 l 0.821769,0.561985 c 0.604398,0.446671 1.110714,0.938407 1.837052,0.938407 1.073603,0 1.667397,-0.617653 2.494468,-1.130596 0.323407,-0.198815 0.812492,-0.400281 1.223376,-0.679948 0.689227,3.281777 3.544212,7.228919 3.70459,9.476857 0.664043,-1.367849 -0.188212,-4.657576 -0.188212,-4.657576 1.116016,1.703184 1.20482,3.122722 1.253862,4.864343 0.780681,0.31943 1.618355,1.151803 1.69523,2.247937 l -0.324731,-0.03711 c -0.167004,-1.218074 -3.455408,-3.007411 -3.75098,-0.714409 -1.577268,0.239904 -1.003354,2.738348 -1.321458,4.358029 -0.145798,0.740918 -0.416186,1.32676 -0.612351,1.943087 z m 6.423056,-0.05434 c -1.305553,0.503665 -2.186967,1.573291 -2.79269,2.237333 -1.166383,1.28037 -2.709189,0.666694 -2.873543,-0.531499 -0.173632,-1.28037 0.477157,-1.978873 0.758149,-3.411669 0.255809,-1.308203 -0.03048,-3.321539 0.571262,-3.536259 0.391003,2.323487 2.738347,1.346642 3.273823,0.713084 0.87081,0 0.94371,0.294247 1.138549,1.109389 0.12194,0.510292 0.29027,0.939733 0.7661,1.444723 0.554032,0.59247 0.384376,1.501718 -0.84165,1.974898 z M 15.388573,10.928713 c -0.862858,0 -1.508346,-0.573913 -2.033218,-1.0192588 -0.269063,-0.2266493 0.06627,-0.6454865 0.335336,-0.4175118 0.512943,0.4347418 1.029862,0.8946676 1.697882,0.8946676 0.804538,0 1.513645,-0.6878998 2.474586,-1.0669741 0.327382,-0.1285672 0.514268,0.3777489 0.189537,0.5063155 -0.933106,0.3671456 -1.681977,1.1027616 -2.664123,1.1027616 z"
   id="path984"
   style="stroke-width:1.32543457;fill:#a6d100" /></svg>