<?xml version="1.0" encoding="utf-8"?>
<!-- Generator: Adobe Illustrator 24.3.0, SVG Export Plug-In . SVG Version: 6.00 Build 0)  -->
<svg version="1.1" id="Capa_1" xmlns="http://www.w3.org/2000/svg" xmlns:xlink="http://www.w3.org/1999/xlink" x="0px" y="0px"
	 viewBox="0 0 32 32" style="enable-background:new 0 0 32 32;" xml:space="preserve">
<style type="text/css">
	.st0{fill:#17B5C8;}
	.st1{fill:#11828F;}
	.st2{fill:none;}
	.st3{fill:#A6D100;}
	.st4{fill:#89AB00;}
	.st5{fill:#5F7993;}
	.st6{fill:#405162;}
	.st7{fill:#FFFFFF;}
	.st8{fill:#3A5368;}
</style>
<g>
	<path class="st5" d="M24.1,29h-4.6c-0.2-0.3-0.3-0.5-0.4-0.9l-0.7-2.8h-4.9l-0.7,2.8c-0.1,0.3-0.2,0.6-0.4,0.9H7.7
		c-0.3,0-0.6,0.3-0.6,0.6c0,0.3,0.3,0.6,0.6,0.6h16.4c0.3,0,0.6-0.3,0.6-0.6C24.7,29.3,24.4,29,24.1,29z"/>
	<path class="st6" d="M13.5,25.3h4.9l0.7,2.8C19.1,28.2,17.6,25.3,13.5,25.3z"/>
	<g>
		<path class="st2" d="M25.4,15.9c0.5,0,0.9-0.4,0.9-0.9l0,0c0-0.5-0.4-0.9-0.9-0.9H6.5c-0.5,0-0.9,0.4-0.9,0.9l0,0
			c0,0.5,0.4,0.9,0.9,0.9H25.4z"/>
		<path class="st2" d="M6.5,12.4h18.9c0.5,0,0.9-0.4,0.9-0.9c0-0.5-0.4-0.9-0.9-0.9H6.5c-0.5,0-0.9,0.4-0.9,0.9
			C5.6,12,6,12.4,6.5,12.4z"/>
		<path class="st5" d="M28,2.8H2.4c-1.1,0-2.1,0.8-2.4,1.9h28.1C28.1,4,28,3.4,28,2.8z"/>
		<path class="st3" d="M24.9,20.8H0v2.1c0,1.3,1.1,2.4,2.4,2.4h16C18.7,25.3,22.1,24.8,24.9,20.8z"/>
		<path class="st0" d="M28.1,4.6H0.1C0,4.8,0,5,0,5.2v15.6h24.9C26.9,17.8,28.5,12.8,28.1,4.6z M6.5,10.5h18.9
			c0.5,0,0.9,0.4,0.9,0.9c0,0.5-0.4,0.9-0.9,0.9H6.5c-0.5,0-0.9-0.4-0.9-0.9C5.6,10.9,6,10.5,6.5,10.5z M5.6,15L5.6,15
			c0-0.5,0.4-0.9,0.9-0.9h18.9c0.5,0,0.9,0.4,0.9,0.9l0,0c0,0.5-0.4,0.9-0.9,0.9H6.5C6,15.9,5.6,15.5,5.6,15z"/>
		<path class="st6" d="M31.9,4.6c-0.2-1.1-1.2-1.9-2.4-1.9H28C28,3.4,28.1,4,28.1,4.6H31.9z"/>
		<path class="st4" d="M31.9,22.9v-2.1h-7.1c-2.7,4-6.2,4.5-6.4,4.5h11.1C30.8,25.3,31.9,24.3,31.9,22.9z"/>
		<path class="st1" d="M24.9,20.8h7.1V5.2c0-0.2,0-0.4-0.1-0.5h-3.7C28.5,12.8,26.9,17.8,24.9,20.8z"/>
	</g>
</g>
</svg>
