<?xml version="1.0" encoding="utf-8"?>
<!-- Generator: Adobe Illustrator 24.3.0, SVG Export Plug-In . SVG Version: 6.00 Build 0)  -->
<svg version="1.1" id="Capa_1" xmlns="http://www.w3.org/2000/svg" xmlns:xlink="http://www.w3.org/1999/xlink" x="0px" y="0px"
	 viewBox="0 0 32 32" style="enable-background:new 0 0 32 32;" xml:space="preserve">
<style type="text/css">
	.st0{fill:#17B5C8;}
	.st1{fill:#11828F;}
	.st2{fill:none;}
	.st3{fill:#A6D100;}
	.st4{fill:#89AB00;}
	.st5{fill:#5F7993;}
	.st6{fill:#405162;}
	.st7{fill:#FFFFFF;}
	.st8{fill:#3A5368;}
</style>
<g>
	<g>
		<path class="st5" d="M23.1,16h-0.8l-2.9,2.8c-0.9,0.9-2.1,1.4-3.4,1.4s-2.5-0.5-3.4-1.4l-3-2.9l-0.3,0l-8.4,8.3l-0.1,2.2
			c0.5,0.5,1.2,0.8,2,0.8h26.4c0.8,0,1.5-0.3,2-0.8l-0.3-2.7L23.1,16z"/>
		<path class="st6" d="M16,20.3c1.3,0,2.5-0.5,3.4-1.4l2.9-2.8h-1.6L20,15.1h-7.8L11.3,16l-1.7-0.1l3,2.9
			C13.5,19.8,14.7,20.3,16,20.3z"/>
	</g>
	<g>
		<path class="st3" d="M0,7.6v16.9c0,0.8,0.3,1.5,0.8,2l9.7-9.6L0.2,6.5C0.1,6.9,0,7.2,0,7.6z"/>
		<path class="st4" d="M11.2,13.9L2.8,5.6h-2c-0.3,0.3-0.5,0.6-0.6,1l10.3,10.3l0.8-0.8L11.2,13.9z"/>
	</g>
	<g>
		<path class="st3" d="M21.5,16.8l9.7,9.6c0.5-0.5,0.8-1.2,0.8-2V7.6c0-0.4-0.1-0.7-0.2-1L21.5,16.8z"/>
		<path class="st4" d="M31.2,5.6h-2L21,13.7L20.7,16l0.8,0.8L31.8,6.5C31.7,6.2,31.4,5.8,31.2,5.6z"/>
	</g>
	<path class="st0" d="M29.2,4.8H16H2.8c-0.8,0-1.5,0.3-2,0.8L13.4,18c0.7,0.7,1.7,1.1,2.6,1.1s1.9-0.4,2.6-1.1L31.2,5.6
		C30.7,5.1,30,4.8,29.2,4.8z"/>
</g>
</svg>
