<?xml version="1.0" encoding="utf-8"?>
<!-- Generator: Adobe Illustrator 24.3.0, SVG Export Plug-In . SVG Version: 6.00 Build 0)  -->
<svg version="1.1" id="Capa_1" xmlns="http://www.w3.org/2000/svg" xmlns:xlink="http://www.w3.org/1999/xlink" x="0px" y="0px"
	 viewBox="0 0 32 32" style="enable-background:new 0 0 32 32;" xml:space="preserve">
<style type="text/css">
	.st0{fill:#17B5C8;}
	.st1{fill:#11828F;}
	.st2{fill:none;}
	.st3{fill:#A6D100;}
	.st4{fill:#89AB00;}
	.st5{fill:#5F7993;}
	.st6{fill:#405162;}
	.st7{fill:#FFFFFF;}
	.st8{fill:#3A5368;}
</style>
<g>
	<g>
		<path class="st3" d="M19.4,0.9h-4v2.8h4c0.2,0,0.3-0.1,0.3-0.3V1.2C19.7,1,19.6,0.9,19.4,0.9z"/>
	</g>
	<g>
		<path class="st4" d="M19.4,0.9h-0.6v1.6c0,0.2-0.1,0.3-0.3,0.3h-3v0.9h4c0.2,0,0.3-0.1,0.3-0.3V1.2C19.7,1,19.6,0.9,19.4,0.9z"/>
	</g>
	<g>
		<path class="st3" d="M15.4,7.3c-0.3,0-0.5-0.2-0.5-0.5V0.5C15,0.2,15.2,0,15.4,0s0.5,0.2,0.5,0.5v6.4C15.9,7.1,15.7,7.3,15.4,7.3z
			"/>
	</g>
	<g>
		<path class="st0" d="M18.8,31.5l-0.9-1.1c-0.4-0.5-0.6-1-0.6-1.7V19h-3.5v9.8c0,0.6-0.2,1.2-0.6,1.7l-0.9,1.1
			c-0.2,0.2,0,0.5,0.2,0.5h6C18.9,32,19,31.7,18.8,31.5L18.8,31.5z"/>
	</g>
	<g>
		<path class="st1" d="M18.8,31.5l-0.9-1.1c-0.4-0.5-0.6-1-0.6-1.7V19H16v9.8c0,0.6,0.2,1.2,0.6,1.7l0.9,1.1c0.2,0.2,0,0.5-0.2,0.5
			h1.4C18.9,32,19,31.7,18.8,31.5z"/>
	</g>
	<g>
		<path class="st0" d="M21.7,5.7H9.2v13.9h17.7c0.3,0,0.6-0.3,0.6-0.6v-7.4C27.5,8.3,24.9,5.7,21.7,5.7L21.7,5.7z"/>
	</g>
	<g>
		<path class="st1" d="M21.7,5.7h-4c3.2,0,5.8,2.6,5.8,5.8V19c0,0.3-0.3,0.6-0.6,0.6h4c0.3,0,0.6-0.3,0.6-0.6v-7.4
			C27.5,8.3,24.9,5.7,21.7,5.7L21.7,5.7z"/>
	</g>
	<g>
		<path class="st5" d="M14.8,19.6h-11c-0.3,0-0.6-0.3-0.6-0.6v-7.4c0-3.2,2.6-5.8,5.8-5.8s5.8,2.6,5.8,5.8L14.8,19.6L14.8,19.6z"/>
	</g>
	<g>
		<path class="st6" d="M10.7,6C10.9,6.5,11,7.1,11,7.7v0.9c0,4-3.2,7.2-7.2,7.2H3.2v2h11.6v-6.2C14.8,8.9,13.1,6.7,10.7,6z"/>
	</g>
	<g>
		<path class="st3" d="M14.8,19.6h-12c-0.2,0-0.4-0.2-0.4-0.4v-1.5c0-0.2,0.2-0.4,0.4-0.4h12V19.6z"/>
	</g>
	<g>
		<path class="st4" d="M13.6,17.4c0,0.6-0.5,1.1-1.1,1.1H2.4v0.8c0,0.2,0.2,0.4,0.4,0.4h12v-2.3L13.6,17.4L13.6,17.4z"/>
	</g>
</g>
</svg>
