<?xml version="1.0" encoding="UTF-8" standalone="no"?>
<!-- Generator: Adobe Illustrator 24.3.0, SVG Export Plug-In . SVG Version: 6.00 Build 0)  -->

<svg
   xmlns:dc="http://purl.org/dc/elements/1.1/"
   xmlns:cc="http://creativecommons.org/ns#"
   xmlns:rdf="http://www.w3.org/1999/02/22-rdf-syntax-ns#"
   xmlns:svg="http://www.w3.org/2000/svg"
   xmlns="http://www.w3.org/2000/svg"
   xmlns:sodipodi="http://sodipodi.sourceforge.net/DTD/sodipodi-0.dtd"
   xmlns:inkscape="http://www.inkscape.org/namespaces/inkscape"
   version="1.1"
   id="Capa_1"
   x="0px"
   y="0px"
   viewBox="0 0 32 32"
   style="enable-background:new 0 0 32 32;"
   xml:space="preserve"
   sodipodi:docname="merge.svg"
   inkscape:version="0.92.5 (2060ec1f9f, 2020-04-08)"><metadata
   id="metadata3084"><rdf:RDF><cc:Work
       rdf:about=""><dc:format>image/svg+xml</dc:format><dc:type
         rdf:resource="http://purl.org/dc/dcmitype/StillImage" /><dc:title></dc:title></cc:Work></rdf:RDF></metadata><defs
   id="defs3082">
	
	
</defs><sodipodi:namedview
   pagecolor="#ffffff"
   bordercolor="#666666"
   borderopacity="1"
   objecttolerance="10"
   gridtolerance="10"
   guidetolerance="10"
   inkscape:pageopacity="0"
   inkscape:pageshadow="2"
   inkscape:window-width="1920"
   inkscape:window-height="1025"
   id="namedview3080"
   showgrid="false"
   inkscape:zoom="27.4375"
   inkscape:cx="16"
   inkscape:cy="16.808276"
   inkscape:window-x="0"
   inkscape:window-y="29"
   inkscape:window-maximized="1"
   inkscape:current-layer="Capa_1" />
<style
   type="text/css"
   id="style3071">
	.st0{fill:#17B5C8;}
	.st1{fill:#11828F;}
	.st2{fill:none;}
	.st3{fill:#A6D100;}
	.st4{fill:#89AB00;}
	.st5{fill:#5F7993;}
	.st6{fill:#405162;}
	.st7{fill:#FFFFFF;}
	.st8{fill:#3A5368;}
</style>
<path
   style="fill:#5f7993"
   inkscape:connector-curvature="0"
   id="path3073-3"
   d="m 23.3,18.399995 h -5.35 c 0,0 -1.350926,0.0065 -3.236104,0.03645 -1.885179,0.02994 -4.569413,4.336582 -6.990092,4.300679 -2.420679,-0.0359 -5.2771071,0.03645 -5.2771071,0.03645 -0.6998748,0.01322 -2.11882849,-0.313525 -2.11025047,-1.71025 0.008578,-1.396725 1.36173117,-1.68975 2.16173117,-1.68975 1.875,0 2.0059083,-0.04265 4.3730958,-0.05051 2.3671875,-0.0078 4.3100616,-4.317874 6.5288116,-4.324124 2.21875,-0.0063 7.66554,-0.04585 9.095228,-0.04115 C 23.925,14.96249 24.8,14.975 24.8,15 c 0,0.1 -1.6,-1.6 -1.6,-1.6 4.288652,-0.0998 3.620683,5.161798 0.1,4.999995 z"
   class="st3"
   sodipodi:nodetypes="cczzszssssscc" /><path
   style="fill:#a6d100"
   inkscape:connector-curvature="0"
   id="path3073"
   d="M 31.4,14.8 19.9,3.3 C 19.6,3 19.1,2.8 18.7,2.8 18.2,2.8 17.8,3 17.5,3.3 l -1,1 C 16.2,4.6 16,5.1 16,5.5 16,6 16.2,6.4 16.5,6.7 l 6.8,6.7 h -5.35 c 0,0 -1.350926,-0.0065 -3.236104,-0.03645 C 12.828717,13.333612 10.144483,9.0269671 7.7238041,9.0628702 5.3031251,9.0987733 2.446697,9.0264237 2.446697,9.0264237 1.7468222,9.0132007 0.32786845,9.339949 0.33644647,10.736674 c 0.008578,1.396725 1.36173123,1.68975 2.16173123,1.68975 1.875,0 2.0059083,0.04265 4.3730958,0.05051 2.3671875,0.0078 4.3100615,4.317874 6.5288115,4.324124 2.21875,0.0063 7.66554,0.04585 9.095228,0.04115 C 23.925,16.8375 24.8,16.825 24.8,16.8 c 0,-0.1 -1.6,1.6 -1.6,1.6 l -6.7,6.7 c -0.3,0.3 -0.5,0.8 -0.5,1.2 0,0.4 0.2,0.9 0.5,1.2 l 1,1 c 0.3,0.3 0.8,0.5 1.2,0.5 0.5,0 0.9,-0.2 1.2,-0.5 L 31.3,17.1 c 0.3,-0.3 0.5,-0.8 0.5,-1.2 0.1,-0.4 -0.1,-0.8 -0.4,-1.1 z"
   class="st3"
   sodipodi:nodetypes="ssssssccczzszssssscssssssscs" />
</svg>