<?xml version="1.0" encoding="utf-8"?>
<!-- Generator: Adobe Illustrator 24.3.0, SVG Export Plug-In . SVG Version: 6.00 Build 0)  -->
<svg version="1.1" id="Capa_1" xmlns="http://www.w3.org/2000/svg" xmlns:xlink="http://www.w3.org/1999/xlink" x="0px" y="0px"
	 viewBox="0 0 32 32" style="enable-background:new 0 0 32 32;" xml:space="preserve">
<style type="text/css">
	.st0{fill:#17B5C8;}
	.st1{fill:#11828F;}
	.st2{fill:none;}
	.st3{fill:#A6D100;}
	.st4{fill:#89AB00;}
	.st5{fill:#5F7993;}
	.st6{fill:#405162;}
	.st7{fill:#FFFFFF;}
	.st8{fill:#3A5368;}
</style>
<g>
	<path class="st5" d="M25.4,25.8v-9.2H6.6v9.2c0,0.5-0.4,0.9-0.9,0.9h0c-0.5,0-0.9-0.4-0.9-0.9v-11h10.4V5.6c0-0.5,0.4-0.9,0.9-0.9
		h0c0.5,0,0.9,0.4,0.9,0.9v9.2h10.3v11c0,0.5-0.4,0.9-0.9,0.9h0C25.8,26.7,25.4,26.3,25.4,25.8z"/>
	<g>
		<g>
			<path class="st6" d="M16.3,0c-0.2,0-0.4,0-0.6,0c3,0.3,5.3,2.8,5.3,5.8s-2.3,5.6-5.3,5.8c0.2,0,0.4,0,0.6,0
				c3.2,0,5.9-2.6,5.9-5.9S19.5,0,16.3,0z"/>
			<path class="st5" d="M15.7,0c-3,0.3-5.3,2.8-5.3,5.8s2.3,5.6,5.3,5.8c3-0.3,5.3-2.8,5.3-5.8S18.7,0.3,15.7,0z"/>
		</g>
	</g>
	<g>
		<g>
			<path class="st4" d="M5.9,20.3c-0.2,0-0.4,0-0.6,0c3,0.3,5.3,2.8,5.3,5.8S8.3,31.7,5.3,32c0.2,0,0.4,0,0.6,0
				c3.2,0,5.9-2.6,5.9-5.9S9.1,20.3,5.9,20.3z"/>
			<path class="st3" d="M5.3,20.3c-3,0.3-5.3,2.8-5.3,5.8s2.3,5.6,5.3,5.8c3-0.3,5.3-2.8,5.3-5.8S8.3,20.6,5.3,20.3z"/>
		</g>
	</g>
	<g>
		<g>
			<path class="st1" d="M26.1,20.3c-0.2,0-0.4,0-0.6,0c3,0.3,5.3,2.8,5.3,5.8s-2.3,5.6-5.3,5.8c0.2,0,0.4,0,0.6,0
				c3.2,0,5.9-2.6,5.9-5.9S29.4,20.3,26.1,20.3z"/>
			<path class="st0" d="M25.6,20.3c-3,0.3-5.3,2.8-5.3,5.8s2.3,5.6,5.3,5.8c3-0.3,5.3-2.8,5.3-5.8S28.5,20.6,25.6,20.3z"/>
		</g>
	</g>
</g>
</svg>
