<?xml version="1.0" encoding="utf-8"?>
<!-- Generator: Adobe Illustrator 24.3.0, SVG Export Plug-In . SVG Version: 6.00 Build 0)  -->
<svg version="1.1" id="Capa_1" xmlns="http://www.w3.org/2000/svg" xmlns:xlink="http://www.w3.org/1999/xlink" x="0px" y="0px"
	 viewBox="0 0 32 32" style="enable-background:new 0 0 32 32;" xml:space="preserve">
<style type="text/css">
	.st0{fill:#17B5C8;}
	.st1{fill:#11828F;}
	.st2{fill:none;}
	.st3{fill:#A6D100;}
	.st4{fill:#89AB00;}
	.st5{fill:#5F7993;}
	.st6{fill:#405162;}
	.st7{fill:#FFFFFF;}
	.st8{fill:#3A5368;}
</style>
<g>
	<path class="st3" d="M31.4,14.8L19.9,3.3c-0.3-0.3-0.8-0.5-1.2-0.5c-0.5,0-0.9,0.2-1.2,0.5l-1,1c-0.3,0.3-0.5,0.8-0.5,1.2
		c0,0.5,0.2,0.9,0.5,1.2l6.8,6.7H1.9c-0.7,0-1.4,0.5-1.6,1.2c0,2,2.2,2.2,3,2.2c7.5,0,21.5,0.1,21.5,0c0-0.1-1.6,1.6-1.6,1.6
		l-6.7,6.7c-0.3,0.3-0.5,0.8-0.5,1.2s0.2,0.9,0.5,1.2l1,1c0.3,0.3,0.8,0.5,1.2,0.5c0.5,0,0.9-0.2,1.2-0.5l11.4-11.4
		c0.3-0.3,0.5-0.8,0.5-1.2C31.9,15.5,31.7,15.1,31.4,14.8z"/>
	<path class="st4" d="M3.2,16.9c-0.7,0-3-0.2-3-2.2c-0.1,0.2-0.1,0.4-0.1,0.6v1.5c0,0,0,0.1,0,0.1c0,0.6,0.4,1.1,0.9,1.4
		c0.3,0.2,0.6,0.3,0.9,0.3l0,0h21.2c0,0,1.6-1.7,1.6-1.6C24.7,17,10.7,16.9,3.2,16.9z"/>
</g>
</svg>
