<?xml version="1.0" encoding="UTF-8" standalone="no"?>
<svg
   xmlns:dc="http://purl.org/dc/elements/1.1/"
   xmlns:cc="http://creativecommons.org/ns#"
   xmlns:rdf="http://www.w3.org/1999/02/22-rdf-syntax-ns#"
   xmlns:svg="http://www.w3.org/2000/svg"
   xmlns="http://www.w3.org/2000/svg"
   xmlns:sodipodi="http://sodipodi.sourceforge.net/DTD/sodipodi-0.dtd"
   xmlns:inkscape="http://www.inkscape.org/namespaces/inkscape"
   height="32"
   id="Layer_1"
   version="1.1"
   viewBox="0 0 32 51.2"
   width="32"
   xml:space="preserve"
   sodipodi:docname="password.svg"
   inkscape:version="0.92.3 (2405546, 2018-03-11)"><metadata
   id="metadata9"><rdf:RDF><cc:Work
       rdf:about=""><dc:format>image/svg+xml</dc:format><dc:type
         rdf:resource="http://purl.org/dc/dcmitype/StillImage" /><dc:title></dc:title></cc:Work></rdf:RDF></metadata><defs
   id="defs7"><marker
     inkscape:stockid="Arrow1Lend"
     orient="auto"
     refY="0.0"
     refX="0.0"
     id="marker1991"
     style="overflow:visible;"
     inkscape:isstock="true"><path
       id="path1989"
       d="M 0.0,0.0 L 5.0,-5.0 L -12.5,0.0 L 5.0,5.0 L 0.0,0.0 z "
       style="fill-rule:evenodd;stroke:#22b9d8;stroke-width:1pt;stroke-opacity:1;fill:#22b9d8;fill-opacity:1"
       transform="scale(0.8) rotate(180) translate(12.5,0)" /></marker><marker
     inkscape:stockid="Arrow1Lend"
     orient="auto"
     refY="0.0"
     refX="0.0"
     id="Arrow1Lend"
     style="overflow:visible;"
     inkscape:isstock="true"><path
       id="path1728"
       d="M 0.0,0.0 L 5.0,-5.0 L -12.5,0.0 L 5.0,5.0 L 0.0,0.0 z "
       style="fill-rule:evenodd;stroke:#22b9d8;stroke-width:1pt;stroke-opacity:1;fill:#22b9d8;fill-opacity:1"
       transform="scale(0.8) rotate(180) translate(12.5,0)" /></marker></defs><sodipodi:namedview
   pagecolor="#ffffff"
   bordercolor="#666666"
   borderopacity="1"
   objecttolerance="10"
   gridtolerance="10"
   guidetolerance="10"
   inkscape:pageopacity="0"
   inkscape:pageshadow="2"
   inkscape:window-width="1920"
   inkscape:window-height="1016"
   id="namedview5"
   showgrid="false"
   inkscape:zoom="9.8125"
   inkscape:cx="-3.9745229"
   inkscape:cy="10"
   inkscape:window-x="0"
   inkscape:window-y="27"
   inkscape:window-maximized="1"
   inkscape:current-layer="Layer_1"
   showguides="true"
   inkscape:guide-bbox="true"
   inkscape:pagecheckerboard="true"><sodipodi:guide
     position="16.101911,53.319745"
     orientation="1,0"
     id="guide910"
     inkscape:locked="false" /></sodipodi:namedview>
  
<ellipse
   style="opacity:1;fill:#ffffff;fill-opacity:1;fill-rule:nonzero;stroke:#ffffff;stroke-width:6.84446144;stroke-linecap:butt;stroke-linejoin:round;stroke-miterlimit:4;stroke-dasharray:none;stroke-dashoffset:0;stroke-opacity:1"
   id="path2224"
   cx="15.592357"
   cy="15.327389"
   rx="15.349744"
   ry="11.517897" /><rect
   style="opacity:1;fill:#ffffff;fill-opacity:1;fill-rule:nonzero;stroke:#ffffff;stroke-width:0.75987583;stroke-linecap:round;stroke-linejoin:round;stroke-miterlimit:4;stroke-dasharray:none;stroke-opacity:1"
   id="rect855-7"
   width="36.834404"
   height="34.382381"
   x="-2.8248453"
   y="14.523457" /><rect
   style="opacity:1;fill:#22b9d8;fill-opacity:1;fill-rule:nonzero;stroke:none;stroke-width:0.5819279;stroke-linecap:round;stroke-linejoin:round;stroke-miterlimit:4;stroke-dasharray:none;stroke-opacity:1"
   id="rect855"
   width="29.022543"
   height="25.592178"
   x="1.4894797"
   y="18.702896" /><path
   style="fill:#22b9d8;stroke:none;stroke-width:0.59599072;stroke-linecap:butt;stroke-linejoin:miter;stroke-miterlimit:4;stroke-dasharray:none;stroke-opacity:1"
   d="m 1.4894797,18.702896 c -0.01441,-3.850952 1.032419,-6.924086 2.848069,-9.0423998 1.815647,-2.118314 3.496323,-3.452549 6.2762943,-4.496216 2.779971,-1.043655 7.705354,-1.319291 10.390172,-0.09996 2.684818,1.219372 5.278763,2.739209 7.120169,5.5453358 1.841402,2.806128 2.52809,5.451427 2.42613,8.193118 l -5.168715,-0.05005 c 0.03847,-2.260042 -0.487456,-4.268484 -2.162421,-6.444585 -1.674963,-2.176115 -4.298771,-3.2545108 -6.9092,-3.4470978 -2.610431,-0.192587 -5.379937,0.617925 -7.4366216,2.8975548 -2.0566847,2.279644 -2.5925247,4.496217 -2.4261297,6.89421 z"
   id="path874"
   inkscape:connector-curvature="0"
   sodipodi:nodetypes="czzzzcczzzcc" /><path
   style="opacity:1;fill:#ffffff;fill-opacity:1;fill-rule:nonzero;stroke:#ffffff;stroke-width:0.59599072;stroke-linecap:round;stroke-linejoin:round;stroke-miterlimit:4;stroke-dasharray:none;stroke-opacity:1"
   d="m 14.305785,29.643712 c 0.594691,-0.406908 -1.894686,-1.458215 -1.979137,-3.510963 -0.08445,-2.052761 1.771122,-3.320817 4.094469,-3.236262 2.323344,0.08462 3.69671,1.756674 3.775188,3.272217 0.07848,1.515557 -0.48644,2.09814 -2.040356,3.475008 l 2.267905,7.393773 h -7.911298 z"
   id="rect876"
   inkscape:connector-curvature="0"
   sodipodi:nodetypes="czzzcccc" /></svg>