<?xml version="1.0" encoding="utf-8"?>
<!-- Generator: Adobe Illustrator 24.3.0, SVG Export Plug-In . SVG Version: 6.00 Build 0)  -->
<svg version="1.1" id="Capa_1" xmlns="http://www.w3.org/2000/svg" xmlns:xlink="http://www.w3.org/1999/xlink" x="0px" y="0px"
	 viewBox="0 0 32 32" style="enable-background:new 0 0 32 32;" xml:space="preserve">
<style type="text/css">
	.st0{fill:#17B5C8;}
	.st1{fill:#11828F;}
	.st2{fill:none;}
	.st3{fill:#A6D100;}
	.st4{fill:#89AB00;}
	.st5{fill:#5F7993;}
	.st6{fill:#405162;}
	.st7{fill:#FFFFFF;}
	.st8{fill:#3A5368;}
</style>
<g>
	<polygon class="st0" points="1.6,23.6 0.5,29 3,31.5 8.4,30.4 	"/>
	<path class="st1" d="M0.1,31.3C0,31.7,0.3,32,0.7,31.9L3,31.5L0.5,29L0.1,31.3z"/>
	<rect x="23.6" y="1.8" transform="matrix(0.7071 -0.7071 0.7071 0.7071 2.71 19.8678)" class="st3" width="3.5" height="9.6"/>
	<path class="st5" d="M31.2,7.6L30,8.8L23.2,2l1.2-1.2c1-1,2.7-1,3.8,0l3,3C32.2,4.9,32.2,6.6,31.2,7.6z"/>
	<rect x="26.4" y="0.2" transform="matrix(0.7071 -0.7071 0.7071 0.7071 4.3454 20.5452)" class="st6" width="1.2" height="9.6"/>
	<path class="st5" d="M17.3,7.9L1.6,23.6l0.8,2.6L5,27l14.9-14.9C19,9.6,17.3,7.9,17.3,7.9z"/>
	<path class="st3" d="M19.9,12.1L5,27l0.8,2.6l2.6,0.8l9.3-9.3C20.8,18,20.7,14.7,19.9,12.1z"/>
	<path class="st6" d="M17.3,7.9c0,0,1.7,1.7,2.6,4.2l4.3-4.3l-3.4-3.4L17.3,7.9z"/>
	<path class="st4" d="M17.6,21.2l9.9-9.9l-3.4-3.4l-4.3,4.3C20.7,14.7,20.8,18,17.6,21.2z"/>
</g>
</svg>
