<?xml version="1.0" encoding="utf-8"?>
<!-- Generator: Adobe Illustrator 24.3.0, SVG Export Plug-In . SVG Version: 6.00 Build 0)  -->
<svg version="1.1" id="Capa_1" xmlns="http://www.w3.org/2000/svg" xmlns:xlink="http://www.w3.org/1999/xlink" x="0px" y="0px"
	 viewBox="0 0 32 32" style="enable-background:new 0 0 32 32;" xml:space="preserve">
<style type="text/css">
	.st0{fill:#17B5C8;}
	.st1{fill:#11828F;}
	.st2{fill:none;}
	.st3{fill:#A6D100;}
	.st4{fill:#89AB00;}
	.st5{fill:#5F7993;}
	.st6{fill:#405162;}
	.st7{fill:#FFFFFF;}
	.st8{fill:#3A5368;}
</style>
<g>
	<g>
		<path class="st1" d="M16,0.1c-0.5,0-1,0-1.5,0.1C22.6,0.9,29,7.7,29,16.1S22.6,31.2,14.5,32c0.5,0,1,0.1,1.5,0.1
			c8.8,0,16-7.2,16-16S24.8,0.1,16,0.1z"/>
		<path class="st0" d="M14.5,0.1C6.4,0.9,0,7.7,0,16.1C0,24.4,6.4,31.2,14.5,32C22.6,31.2,29,24.4,29,16.1C29,7.7,22.6,0.9,14.5,0.1
			z M15.2,9.3c0-0.5,0.4-0.8,0.8-0.8c0.5,0,0.8,0.4,0.8,0.8v3c0,0.5-0.4,0.8-0.8,0.8c-0.5,0-0.8-0.4-0.8-0.8V9.3z M16,23.6
			c-3.8,0-6.9-3.1-6.9-6.8c0-2.5,1.3-4.8,3.4-6c0.1-0.1,0.3-0.1,0.4-0.1c0.5,0,0.8,0.4,0.8,0.8c0,0.3-0.2,0.6-0.4,0.7
			c-1.6,0.9-2.6,2.7-2.6,4.5c0,2.8,2.3,5.2,5.1,5.2c2.8,0,5.2-2.3,5.3-5.1c0-1.9-1-3.7-2.6-4.6c-0.3-0.1-0.4-0.4-0.4-0.7
			c0-0.3,0.2-0.6,0.4-0.7c0.1-0.1,0.3-0.1,0.4-0.1c0.1,0,0.3,0,0.4,0.1c2.1,1.2,3.4,3.5,3.4,6C22.9,20.5,19.8,23.6,16,23.6z"/>
	</g>
</g>
</svg>
