<?xml version="1.0" encoding="UTF-8" standalone="no"?>
<!-- Generator: Adobe Illustrator 24.3.0, SVG Export Plug-In . SVG Version: 6.00 Build 0)  -->

<svg
   xmlns:dc="http://purl.org/dc/elements/1.1/"
   xmlns:cc="http://creativecommons.org/ns#"
   xmlns:rdf="http://www.w3.org/1999/02/22-rdf-syntax-ns#"
   xmlns:svg="http://www.w3.org/2000/svg"
   xmlns="http://www.w3.org/2000/svg"
   xmlns:sodipodi="http://sodipodi.sourceforge.net/DTD/sodipodi-0.dtd"
   xmlns:inkscape="http://www.inkscape.org/namespaces/inkscape"
   version="1.1"
   id="Capa_1"
   x="0px"
   y="0px"
   viewBox="0 0 32 32"
   xml:space="preserve"
   sodipodi:docname="printer.svg"
   inkscape:version="0.92.5 (2060ec1f9f, 2020-04-08)"
   width="32"
   height="32"><metadata
   id="metadata2107"><rdf:RDF><cc:Work
       rdf:about=""><dc:format>image/svg+xml</dc:format><dc:type
         rdf:resource="http://purl.org/dc/dcmitype/StillImage" /><dc:title></dc:title></cc:Work></rdf:RDF></metadata><defs
   id="defs2105">
	
	
	
	
	
	
	
	
	
	
	
	
	
	
	
	

		
	
		
		
	
		
		
	
		
		
	</defs><sodipodi:namedview
   pagecolor="#ffffff"
   bordercolor="#666666"
   borderopacity="1"
   objecttolerance="10"
   gridtolerance="10"
   guidetolerance="10"
   inkscape:pageopacity="0"
   inkscape:pageshadow="2"
   inkscape:window-width="1920"
   inkscape:window-height="1054"
   id="namedview2103"
   showgrid="false"
   inkscape:pagecheckerboard="true"
   inkscape:zoom="16"
   inkscape:cx="39.939161"
   inkscape:cy="21.36039"
   inkscape:window-x="0"
   inkscape:window-y="1080"
   inkscape:window-maximized="1"
   inkscape:current-layer="Capa_1" />
<style
   type="text/css"
   id="style2034">
	.st0{fill:#5F7993;}
	.st1{fill:#17B5C8;}
	.st2{fill:#11828F;}
	.st3{fill:#405162;}
	.st4{fill:#A6D100;}
	.st5{fill:#89AB00;}
	.st6{fill:#FFFFFF;}
	.st7{fill:none;stroke:#17B5C8;stroke-width:2;stroke-miterlimit:10;}
</style>
<rect
   style="opacity:1;fill:#ffffff;fill-opacity:1;fill-rule:nonzero;stroke:none;stroke-width:0.36507916;stroke-linecap:round;stroke-linejoin:round;stroke-miterlimit:4;stroke-dasharray:none;stroke-dashoffset:0;stroke-opacity:1"
   id="rect2652"
   width="15.588486"
   height="19.485605"
   x="8.6819124"
   y="12.662836"
   ry="2.3092711"
   rx="0" /><path
   style="fill:#17b5c8;stroke:none;stroke-width:0.16098976"
   inkscape:connector-curvature="0"
   id="path2036"
   d="m 0.67963084,18.910908 v 3.638368 c 0,1.030335 0.83714676,1.867482 1.86748126,1.867482 H 8.6647229 V 21.438447 H 24.28073 v 2.978311 h 6.117611 c 1.030334,0 1.867481,-0.837147 1.867481,-1.867482 v -3.638368 z"
   class="st1" /><path
   style="fill:#a6d100;stroke:none;stroke-width:0.16098976"
   inkscape:connector-curvature="0"
   id="path2038"
   d="m 32.265822,7.9475052 c 0,-1.0303345 -0.837147,-1.8674813 -1.867481,-1.8674813 H 2.5471121 c -1.0303345,0 -1.86748126,0.8371468 -1.86748126,1.8674813 V 18.894809 H 32.265822 Z"
   class="st4" /><path
   style="fill:#5f7993;stroke:none;stroke-width:0.16098976"
   inkscape:connector-curvature="0"
   id="path2040"
   d="M 24.329027,6.0800239 V 2.023082 c 0,-0.9498396 -0.772751,-1.70649146 -1.706492,-1.70649146 H 10.322917 c -0.9498391,0 -1.706491,0.77275086 -1.706491,1.70649146 v 4.0569419 z"
   class="st0" /><path
   d="M 22.445446,32.353553 H 10.516105 c -1.0947302,0 -1.9962728,-0.901543 -1.9962728,-1.996273 v -8.934932 c 0,-0.08049 0.064396,-0.16099 0.1609897,-0.16099 H 24.296829 c 0.0805,0 0.160989,0.0644 0.160989,0.16099 v 8.934932 c -0.0161,1.09473 -0.917641,1.996273 -2.012372,1.996273 z M 8.8257127,21.583338 v 8.773942 c 0,0.93374 0.7566519,1.674293 1.6742933,1.674293 h 11.929341 c 0.933741,0 1.674294,-0.756652 1.674294,-1.674293 v -8.773942 z"
   id="path2046"
   inkscape:connector-curvature="0"
   style="stroke:none;stroke-width:0.16098976" /><g
   style="stroke:none"
   id="g2052"
   transform="matrix(0.16098976,0,0,0.16098976,-7.6757377,0.15560078)">
		<path
   style="stroke:none"
   inkscape:connector-curvature="0"
   id="path2050"
   d="M 207.9,132.9 H 91.5 c -0.5,0 -1,-0.4 -1,-1 0,-0.6 0.4,-1 1,-1 H 208 c 0.5,0 1,0.4 1,1 0,0.6 -0.5,1 -1.1,1 z" />
	</g><circle
   class="st6"
   cx="23.363089"
   cy="15.143747"
   r="1.1591263"
   id="circle2054"
   style="fill:#ffffff;stroke:none;stroke-width:0.16098976" /><circle
   class="st6"
   cx="28.434265"
   cy="15.143747"
   r="1.1591263"
   id="circle2060"
   style="fill:#ffffff;stroke:none;stroke-width:0.16098976" /><path
   class="st6"
   d="m 28.434265,11.553676 h -5.34486 c -0.788849,0 -1.432808,-0.643959 -1.432808,-1.432809 v -0.0483 c 0,-0.7888498 0.643959,-1.4328089 1.432808,-1.4328089 h 5.34486 c 0.78885,0 1.432809,0.6439591 1.432809,1.4328089 v 0.0483 c 0,0.78885 -0.643959,1.432809 -1.432809,1.432809 z"
   id="path2066"
   inkscape:connector-curvature="0"
   style="fill:#ffffff;stroke:none;stroke-width:0.16098976" />
</svg>