<svg class="icon" style="width: 1em; height: 1em;vertical-align: middle;fill: currentColor;overflow: hidden;" viewBox="0 0 1024 1024" version="1.1" xmlns="http://www.w3.org/2000/svg"><path d="M512 0q104 0 198.857143 40.571429t163.428571 109.142857 109.142857 163.428571 40.571429 198.857143q0 103.428571-40.285714 198.285714T874.857143 873.714286t-163.428572 109.428571-199.428571 40.857143-199.428571-40.571429-163.142858-109.428571-108.857142-163.428571T0 512t40.571429-198.857143 109.142857-163.428571T313.142857 40.571429 512 0z m353.714286 772q85.142857-117.142857 85.142857-260 0-89.142857-34.857143-170.285714t-93.714286-140-140-93.714286-170.285714-34.857143-170.285714 34.857143-140 93.714286-93.714286 140-34.857143 170.285714q0 142.857143 85.142857 260 37.714286-186.857143 174.857143-186.857143 74.857143 73.142857 178.857143 73.142857t178.857143-73.142857q137.142857 0 174.857143 186.857143z m-134.285715-369.714286q0-90.857143-64.285714-155.142857T512 182.857143 356.857143 247.142857 292.571429 402.285714t64.285714 155.142857T512 621.714286t155.142857-64.285715T731.428571 402.285714z" /></svg>