<?xml version="1.0" encoding="utf-8"?>
<!-- Generator: Adobe Illustrator 24.3.0, SVG Export Plug-In . SVG Version: 6.00 Build 0)  -->
<svg version="1.1" id="Capa_1" xmlns="http://www.w3.org/2000/svg" xmlns:xlink="http://www.w3.org/1999/xlink" x="0px" y="0px"
	 viewBox="0 0 32 32" style="enable-background:new 0 0 32 32;" xml:space="preserve">
<style type="text/css">
	.st0{fill:#17B5C8;}
	.st1{fill:#11828F;}
	.st2{fill:none;}
	.st3{fill:#A6D100;}
	.st4{fill:#89AB00;}
	.st5{fill:#5F7993;}
	.st6{fill:#405162;}
	.st7{fill:#FFFFFF;}
	.st8{fill:#3A5368;}
</style>
<g>
	<path class="st6" d="M18.6,29.7c0-1.1-0.8-2.1-1.9-2.3c0.5,0.6,0.8,1.4,0.8,2.3c0,0.9-0.3,1.7-0.8,2.3
		C17.8,31.8,18.6,30.8,18.6,29.7z"/>
	<path class="st5" d="M16.7,27.4c-0.1,0-0.2,0-0.4,0c-1.3,0-2.3,1-2.3,2.3c0,1.3,1,2.3,2.3,2.3c0.1,0,0.3,0,0.4,0
		c0.5-0.6,0.8-1.4,0.8-2.3C17.5,28.8,17.2,28,16.7,27.4z"/>
	<path class="st5" d="M25.9,9c-0.3-4.3-3.4-7.9-7.5-8.8C17.7,0.1,17,0,16.3,0c-2.2,0-4.3,0.8-6,2.1C8.1,4,6.8,6.7,6.8,9.6
		c0,0.8,0.4,1.6,1.2,2c0.4,0.2,0.8,0.3,1.2,0.3c0.4,0,0.8-0.1,1.2-0.3c0.7-0.4,1.2-1.2,1.2-2c0-1.5,0.7-2.9,1.9-3.9
		c0.9-0.7,2-1.1,3.1-1.1c0.4,0,0.7,0,1.1,0.1c1.9,0.4,3.3,1.9,3.7,3.7c0.3,1.4,0,2.8-0.8,3.9c-0.8,1.1-2,1.9-3.3,2.1
		c-1.7,0.3-3,1.7-3,3.5v5.4c0,1.3,1,2.3,2.3,2.3c0,0,0,0,0,0v-6.6c0.9,0.4,2.4-0.2,2.4-0.2l0.8-0.3C23.5,17.2,26.2,13.2,25.9,9z"/>
	<path class="st6" d="M16.3,19.1v6.6c1.3,0,2.3-1,2.3-2.3v-3.6l0.1-0.9C18.7,18.9,17.3,19.5,16.3,19.1z"/>
</g>
</svg>
