<?xml version="1.0" encoding="utf-8"?>
<!-- Generator: Adobe Illustrator 24.3.0, SVG Export Plug-In . SVG Version: 6.00 Build 0)  -->
<svg version="1.1" id="Capa_1" xmlns="http://www.w3.org/2000/svg" xmlns:xlink="http://www.w3.org/1999/xlink" x="0px" y="0px"
	 viewBox="0 0 32 32" style="enable-background:new 0 0 32 32;" xml:space="preserve">
<style type="text/css">
	.st0{fill:#17B5C8;}
	.st1{fill:#11828F;}
	.st2{fill:none;}
	.st3{fill:#A6D100;}
	.st4{fill:#89AB00;}
	.st5{fill:#5F7993;}
	.st6{fill:#405162;}
	.st7{fill:#FFFFFF;}
	.st8{fill:#3A5368;}
</style>
<g>
	<g>
		<path class="st0" d="M29.2,8.2l-4.5-7.9C24.6,0.1,24.4,0,24.2,0c-0.2,0-0.4,0.1-0.5,0.3l-1.2,2.1C20.4,1.5,18.2,1,16,1
			c-3.2,0-6.3,1-9,2.8c-2,1.3-3.7,3.7-3.7,3.7c-1.9,2.6-2.9,5.7-2.9,9c0,4,1.5,7.7,4.2,10.6c0.1,0.1,0.3,0.2,0.4,0.2c0,0,0,0,0,0
			c0.2,0,0.3-0.1,0.4-0.2l2.2-2.1c0.3-0.2,0.3-0.6,0-0.9c-2-2.1-3-4.8-3-7.7c0-2.5,0.9-4.9,2.3-6.8l0,0c5.7-9.1,14.5-5.6,14.5-5.6
			l-1.3,1.9l-1.2,2.1c-0.1,0.2-0.1,0.4,0,0.6c0.1,0.2,0.3,0.3,0.5,0.3h9.1c0.2,0,0.4-0.1,0.5-0.3C29.4,8.6,29.4,8.4,29.2,8.2z"/>
		<path class="st1" d="M7,9.7L7,9.7c2.1-2.7,5.3-4.5,9-4.5c1.4,0,2.9,0.3,4.2,0.8l1.3-1.9C21.6,4.1,12.8,0.7,7,9.7z"/>
	</g>
	<g>
		<path class="st3" d="M15.8,28c-0.1-0.1-0.3-0.2-0.4-0.2c-1.5-0.1-2.9-0.4-4.2-1.1c0,0-1.3,3.7,1.3,4.9c0.9,0.2,1.8,0.3,2.7,0.4
			c0,0,0,0,0,0c0.2,0,0.3-0.1,0.4-0.2c0.1-0.1,0.2-0.3,0.2-0.4l0.2-3C16,28.2,15.9,28.1,15.8,28z"/>
		<path class="st4" d="M11.2,26.7c-0.1-0.1-0.3-0.1-0.5,0s-0.3,0.2-0.4,0.3l-1.3,2.7c-0.1,0.1-0.1,0.3,0,0.5
			c0.1,0.2,0.2,0.3,0.3,0.4c1,0.5,2,0.8,3.1,1.1C9.9,30.4,11.2,26.7,11.2,26.7z"/>
	</g>
	<g>
		<path class="st3" d="M26,27.6l-1.9-2.3c-0.1-0.1-0.3-0.2-0.4-0.2c-0.2,0-0.3,0-0.5,0.1c-1,0.8-2.2,1.5-3.4,1.9h0
			c0,0,1.3,3.9,4,2.8c0.7-0.4,1.4-0.9,2.1-1.4C26.2,28.2,26.2,27.8,26,27.6z"/>
		<path class="st4" d="M19.8,27.1L19.8,27.1c-0.1,0-0.2,0.1-0.2,0.1c-0.2,0.1-0.3,0.2-0.4,0.3c-0.1,0.1-0.1,0.3,0,0.5l0.9,2.8
			c0.1,0.2,0.2,0.3,0.3,0.4c0.1,0,0.2,0.1,0.3,0.1c0.1,0,0.1,0,0.2,0c1-0.3,2-0.8,2.9-1.3C21.1,31,19.8,27.1,19.8,27.1z"/>
	</g>
	<g>
		<path class="st5" d="M30.8,21.2c0.3-1,0.5-1.9,0.6-3c0-0.2,0-0.3-0.1-0.5c-0.1-0.1-0.3-0.2-0.4-0.2l-3-0.3c-0.3,0-0.7,0.2-0.7,0.6
			c-0.1,1.2-0.5,2.4-1,3.5C26.6,21.6,29,23.4,30.8,21.2z"/>
		<path class="st6" d="M25.9,22.3c0,0.2,0.2,0.3,0.3,0.4l2.6,1.4c0.1,0.1,0.2,0.1,0.3,0.1c0.1,0,0.1,0,0.2,0c0.2,0,0.3-0.2,0.4-0.3
			c0.5-0.9,0.9-1.8,1.1-2.7c-1.8,2.1-4.2,0.4-4.6,0.1c-0.1,0.2-0.2,0.4-0.3,0.6C25.9,22,25.9,22.2,25.9,22.3z"/>
	</g>
</g>
</svg>
