<?xml version="1.0" encoding="utf-8"?>
<!-- Generator: Adobe Illustrator 24.3.0, SVG Export Plug-In . SVG Version: 6.00 Build 0)  -->
<svg version="1.1" id="Capa_1" xmlns="http://www.w3.org/2000/svg" xmlns:xlink="http://www.w3.org/1999/xlink" x="0px" y="0px"
	 viewBox="0 0 32 32" style="enable-background:new 0 0 32 32;" xml:space="preserve">
<style type="text/css">
	.st0{fill:#17B5C8;}
	.st1{fill:#11828F;}
	.st2{fill:none;}
	.st3{fill:#A6D100;}
	.st4{fill:#89AB00;}
	.st5{fill:#5F7993;}
	.st6{fill:#405162;}
	.st7{fill:#FFFFFF;}
	.st8{fill:#3A5368;}
</style>
<g>
	<g>
		<path class="st2" d="M6.9,6.6v3.7c0,0.4,0.3,0.7,0.7,0.7c0.4,0,0.7-0.3,0.7-0.7V5.4C7.9,5.8,7.4,6.2,6.9,6.6z"/>
		<path class="st2" d="M24.3,11c0.4,0,0.7-0.3,0.7-0.7V6.6c-0.5-0.4-1-0.8-1.5-1.2v4.9C23.6,10.7,23.9,11,24.3,11z"/>
		<g>
			<path class="st2" d="M6.9,6.6v1.1c0.5-0.5,1-1,1.5-1.4V5.4C7.9,5.8,7.4,6.2,6.9,6.6z"/>
			<path class="st5" d="M12.3,4.2c-1.4,0.5-2.7,1.2-3.9,2.1v4c0,0.4-0.3,0.7-0.7,0.7c-0.4,0-0.7-0.3-0.7-0.7V7.7
				c-1.9,2.1-3,4.8-3.1,7.8h8.5V4.2z"/>
			<path class="st6" d="M6.9,6.6c0.5-0.4,1-0.8,1.5-1.2v0.8c1.1-0.9,2.4-1.6,3.9-2.1V2.6C6.4,4.2,2.1,9.4,1.7,15.5h2.2
				c0.1-3,1.3-5.7,3.1-7.8V6.6z"/>
		</g>
		<g>
			<path class="st2" d="M23.6,5.4v0.8c0.5,0.4,1,0.9,1.5,1.4V6.6C24.6,6.2,24.1,5.8,23.6,5.4z"/>
			<path class="st6" d="M23.6,5.4c0.5,0.4,1,0.8,1.5,1.2v1.1c1.9,2.1,3,4.8,3.1,7.8h2.2C29.9,9.4,25.6,4.2,19.7,2.6v1.6
				c1.4,0.5,2.7,1.2,3.9,2.1V5.4z"/>
			<path class="st5" d="M28.2,15.5c-0.1-3-1.3-5.7-3.1-7.8v2.6c0,0.4-0.3,0.7-0.7,0.7c-0.4,0-0.7-0.3-0.7-0.7v-4
				c-1.1-0.9-2.4-1.6-3.9-2.1v11.3H28.2z"/>
		</g>
		<rect x="12.3" y="15.5" width="7.4" height="0"/>
		<path class="st0" d="M19.7,2.6C19.7,2.6,19.7,2.6,19.7,2.6c-0.3-0.9-1.1-1.6-2.1-1.6h-3.2c-0.9,0-1.8,0.6-2,1.6c0,0,0,0-0.1,0
			v12.8h7.4V2.6z"/>
		<rect x="12.3" y="14.2" class="st1" width="7.4" height="1.3"/>
		<path class="st0" d="M31.4,17.9H0.6c-0.3,0-0.6-0.3-0.6-0.6v-1.3c0-0.3,0.3-0.6,0.6-0.6h30.8c0.3,0,0.6,0.3,0.6,0.6v1.3
			C32,17.6,31.7,17.9,31.4,17.9z"/>
	</g>
	<g>
		<g>
			<polygon class="st3" points="13.2,30.5 13.4,30.5 13.4,30.9 18.6,30.9 18.6,30.5 18.6,29.8 13.2,29.8 			"/>
			<polygon class="st4" points="18.6,29.1 18.6,28.7 13.4,28.7 13.4,28.7 13.2,29.1 13.2,29.8 18.6,29.8 18.6,29.1 			"/>
		</g>
		<path class="st5" d="M20.2,28.8v1.5c5.2-1.1,9.1-5.5,9.6-10.8h-1.4C27.9,24,24.6,27.8,20.2,28.8z"/>
		<g>
			<path class="st5" d="M3.7,19.5H2.2c0.5,5.2,4.2,9.5,9.3,10.7v-1.5C7.2,27.6,4.1,23.9,3.7,19.5z"/>
			<rect x="2.2" y="17.8" class="st5" width="1.4" height="0.1"/>
			<polygon class="st5" points="13.2,29.1 13.2,29.1 13.1,29 13.1,30.5 13.2,30.5 			"/>
			<path class="st6" d="M3.6,18.5v-0.6H2.2v0.6c0,0.3,0,0.7,0.1,1h1.4C3.6,19.2,3.6,18.8,3.6,18.5z"/>
			<path class="st6" d="M12.8,29c-0.4-0.1-0.9-0.2-1.3-0.3v1.5c0.5,0.1,0.9,0.2,1.4,0.3l0.2,0V29L12.8,29z"/>
		</g>
		<path class="st6" d="M19.2,29l-0.6,0.1v1.4l0.5-0.1c0.4,0,0.7-0.1,1.1-0.2v-1.5C19.9,28.9,19.6,29,19.2,29z"/>
		<path class="st6" d="M29.8,17.9h-1.4v0.6c0,0.3,0,0.7-0.1,1h1.4c0-0.3,0-0.7,0.1-1V17.9z"/>
	</g>
	<rect x="28.4" y="17.8" class="st5" width="1.4" height="0.1"/>
</g>
</svg>
