<?xml version="1.0" encoding="UTF-8" standalone="no"?>
<!-- Generator: Adobe Illustrator 24.3.0, SVG Export Plug-In . SVG Version: 6.00 Build 0)  -->

<svg
   version="1.1"
   id="Capa_1"
   x="0px"
   y="0px"
   viewBox="0 0 32 32"
   style="enable-background:new 0 0 32 32;"
   xml:space="preserve"
   sodipodi:docname="system.svg"
   inkscape:version="1.1.2 (0a00cf5339, 2022-02-04)"
   xmlns:inkscape="http://www.inkscape.org/namespaces/inkscape"
   xmlns:sodipodi="http://sodipodi.sourceforge.net/DTD/sodipodi-0.dtd"
   xmlns="http://www.w3.org/2000/svg"
   xmlns:svg="http://www.w3.org/2000/svg"><defs
   id="defs2335" /><sodipodi:namedview
   id="namedview2333"
   pagecolor="#ffffff"
   bordercolor="#666666"
   borderopacity="1.0"
   inkscape:pageshadow="2"
   inkscape:pageopacity="0.0"
   inkscape:pagecheckerboard="0"
   showgrid="false"
   inkscape:zoom="7.9439028"
   inkscape:cx="16.616518"
   inkscape:cy="2.0770647"
   inkscape:window-width="1920"
   inkscape:window-height="1011"
   inkscape:window-x="0"
   inkscape:window-y="32"
   inkscape:window-maximized="1"
   inkscape:current-layer="Capa_1" />
<style
   type="text/css"
   id="style2302">
	.st0{fill:#17B5C8;}
	.st1{fill:#11828F;}
	.st2{fill:none;}
	.st3{fill:#A6D100;}
	.st4{fill:#89AB00;}
	.st5{fill:#5F7993;}
	.st6{fill:#405162;}
	.st7{fill:#FFFFFF;}
	.st8{fill:#3A5368;}
</style>





<path
   class="st4"
   d="m 13.922487,0.71467127 h 9.474049 c 0.321934,0 0.505896,0.32193373 0.367924,0.59787693 L 18.705502,12.396266 c -0.137972,0.275943 0.09198,0.597877 0.367924,0.597877 h 6.990561 c 0.367924,0 0.551886,0.413915 0.321934,0.689858 L 13.140648,31.390355 c -0.275943,0.367925 -0.87382,0.09198 -0.735849,-0.367924 l 3.863205,-13.153292 c 0.09198,-0.275943 -0.137972,-0.551886 -0.413915,-0.551886 H 8.4956041 L 13.508572,0.99061445 c 0.04599,-0.18396212 0.183962,-0.27594318 0.413915,-0.27594318 z"
   id="path1947"
   style="fill:#a6d100;stroke-width:0.459905" /><g
   id="g1953"
   transform="matrix(0.45990531,0,0,0.45990531,-51.292086,-30.512899)"
   style="fill:#89ab00"><path
     class="st5"
     d="m 153.7,104.1 c 0.2,-0.6 -0.3,-1.2 -0.9,-1.2 h -5.2 l -9.1,30.8 c -0.3,1 1,1.6 1.6,0.8 l 7.6,-10.2 z"
     id="path1949"
     style="fill:#89ab00" /><path
     class="st5"
     d="m 145.7,74.2 c 0.1,-0.4 0.5,-0.6 0.9,-0.6 h 14.7 l 2,-4.4 c 0.3,-0.6 -0.2,-1.3 -0.8,-1.3 h -20.6 c -0.4,0 -0.8,0.3 -0.9,0.6 L 130,104 h 6.5 z"
     id="path1951"
     style="fill:#89ab00" /></g><g
   id="g1957"
   transform="matrix(0.45990531,0,0,0.45990531,-51.292086,-30.512899)"><path
     d="m 139.4,135.9 c -0.3,0 -0.6,-0.1 -0.9,-0.2 -0.8,-0.4 -1.2,-1.3 -1,-2.2 L 146,105 h -17.4 l 11.3,-36.7 c 0.2,-0.8 1,-1.3 1.8,-1.3 h 20.6 c 0.7,0 1.3,0.3 1.6,0.9 0.4,0.5 0.4,1.2 0.1,1.8 l -11,24 h 15.1 c 0.7,0 1.4,0.4 1.7,1.1 0.3,0.7 0.3,1.4 -0.2,2 l -28.8,38.5 c -0.2,0.3 -0.8,0.6 -1.4,0.6 z M 131.3,103 h 14.8 c 0.6,0 1.2,0.3 1.5,0.8 0.4,0.5 0.5,1.1 0.3,1.7 l -8.3,28.2 28.5,-38.1 H 153 c -0.7,0 -1.3,-0.3 -1.6,-0.9 -0.4,-0.5 -0.4,-1.2 -0.1,-1.8 l 11,-24 h -20.5 z"
     id="path1955" /></g></svg>
