<?xml version="1.0" encoding="utf-8"?>
<!-- Generator: Adobe Illustrator 24.3.0, SVG Export Plug-In . SVG Version: 6.00 Build 0)  -->
<svg version="1.1" id="Capa_1" xmlns="http://www.w3.org/2000/svg" xmlns:xlink="http://www.w3.org/1999/xlink" x="0px" y="0px"
	 viewBox="0 0 32 32" style="enable-background:new 0 0 32 32;" xml:space="preserve">
<style type="text/css">
	.st0{fill:#17B5C8;}
	.st1{fill:#11828F;}
	.st2{fill:none;}
	.st3{fill:#A6D100;}
	.st4{fill:#89AB00;}
	.st5{fill:#5F7993;}
	.st6{fill:#405162;}
	.st7{fill:#FFFFFF;}
	.st8{fill:#3A5368;}
</style>
<g>
	<g>
		<path class="st3" d="M14.5,1.3h3c1,0,1.8,0.5,2.3,1.3h1.4c-0.6-1.5-2-2.6-3.7-2.6h-0.3h0h-2.7c-1.7,0-3.1,1.1-3.7,2.6h1.4
			C12.7,1.8,13.5,1.3,14.5,1.3z"/>
		<path class="st4" d="M10.8,2.6c-0.1,0.3-0.2,0.5-0.2,0.8h1.3c0.1-0.3,0.2-0.6,0.3-0.8H10.8z"/>
		<path class="st4" d="M19.8,2.6c0.2,0.2,0.3,0.5,0.3,0.8h1.3c0-0.3-0.1-0.5-0.2-0.8H19.8z"/>
	</g>
	<g>
		<path class="st0" d="M24.9,3.4H9.6c0,0-3.9,1.4-3.9,5.9l0,0h22.8c0.6,0,1.1-0.5,1.1-1.1V8.1C29.6,5.5,27.5,3.4,24.9,3.4z"/>
		<path class="st1" d="M9.6,3.4H7.1c-2.6,0-4.7,2.1-4.7,4.7v0.2c0,0.6,0.5,1.1,1.1,1.1h2.2l0,0C5.7,4.8,9.6,3.4,9.6,3.4z"/>
	</g>
	<g>
		<path class="st2" d="M16,12.5c-0.6,0-1.1,0.5-1.1,1.1v13.4c0,0.6,0.5,1.1,1.1,1.1c0.6,0,1.1-0.5,1.1-1.1V13.5
			C17.1,12.9,16.6,12.5,16,12.5z"/>
		<path class="st2" d="M9.4,12.5L9.4,12.5c-0.4,0-0.6,0.2-0.8,0.4c-0.2,0.2-0.3,0.5-0.3,0.8L9.4,27c0,0.5,0.5,1,1.1,1
			c0.4,0,0.6-0.2,0.8-0.4c0.2-0.2,0.3-0.5,0.3-0.8l-1.1-13.4C10.4,12.9,9.9,12.5,9.4,12.5z"/>
		<path class="st2" d="M22.7,12.5L22.7,12.5c-0.6,0-1.1,0.4-1.2,1l-1.1,13.4c0,0.3,0.1,0.6,0.3,0.8c0.2,0.2,0.4,0.4,0.7,0.4
			c0,0,0,0,0,0c0.6,0,1.1-0.4,1.1-1l1.1-13.4c0-0.3-0.1-0.6-0.3-0.8C23.2,12.6,23,12.5,22.7,12.5z"/>
		<path class="st5" d="M26.8,9.3H5.2h-1l0,0h1.5L7,27.2c0.1,1.1,0.6,2.2,1.4,3C9.2,31,10.4,31.9,12,32h0h10c1.1,0,2.2-0.4,3-1.2
			c0.8-0.7,1.3-1.8,1.4-2.9l1.5-18.7H26.8z M11.3,27.6c-0.2,0.2-0.4,0.4-0.8,0.4c-0.5,0-1-0.4-1.1-1L8.3,13.6c0-0.3,0.1-0.6,0.3-0.8
			c0.2-0.2,0.4-0.3,0.7-0.4l0.1,0c0.5,0,1,0.5,1,1l1.1,13.4C11.5,27.1,11.4,27.3,11.3,27.6z M17.1,26.9c0,0.6-0.5,1.1-1.1,1.1
			c-0.6,0-1.1-0.5-1.1-1.1V13.5c0-0.6,0.5-1.1,1.1-1.1c0.6,0,1.1,0.5,1.1,1.1V26.9z M22.6,27c0,0.5-0.5,1-1.1,1c0,0,0,0,0,0
			c-0.3,0-0.5-0.1-0.7-0.4c-0.2-0.2-0.3-0.5-0.3-0.8l1.1-13.4c0-0.6,0.5-1,1.1-1l0.1,0c0.3,0,0.5,0.2,0.7,0.4
			c0.2,0.2,0.3,0.5,0.3,0.8L22.6,27z"/>
		<path class="st6" d="M8.4,30.2c-0.8-0.8-1.3-1.9-1.4-3L5.7,9.3H4.2L5.7,28c0.1,1.1,0.6,2.1,1.4,2.9c0.8,0.7,1.9,1.2,3,1.2h2h0
			C10.4,31.9,9.2,31,8.4,30.2z"/>
	</g>
</g>
</svg>
