<?xml version="1.0" encoding="utf-8"?>
<!-- Generator: Adobe Illustrator 24.3.0, SVG Export Plug-In . SVG Version: 6.00 Build 0)  -->
<svg version="1.1" id="Capa_1" xmlns="http://www.w3.org/2000/svg" xmlns:xlink="http://www.w3.org/1999/xlink" x="0px" y="0px"
	 viewBox="0 0 32 32" style="enable-background:new 0 0 32 32;" xml:space="preserve">
<style type="text/css">
	.st0{fill:#17B5C8;}
	.st1{fill:#11828F;}
	.st2{fill:none;}
	.st3{fill:#A6D100;}
	.st4{fill:#89AB00;}
	.st5{fill:#5F7993;}
	.st6{fill:#405162;}
	.st7{fill:#FFFFFF;}
	.st8{fill:#3A5368;}
</style>
<g>
	<polygon class="st3" points="26.6,25.9 26.6,25.9 26.6,25.9 	"/>
	<path class="st3" d="M25.4,12.8c0,0-0.1,0-0.1,0c0,0,0,0-0.1,0H8.3l2.9-2.9c0.4-0.4,0.7-1,0.7-1.6c0-0.6-0.2-1.2-0.7-1.6
		c-0.4-0.4-1-0.7-1.6-0.7S8.4,6.4,8,6.8l-7.8,7.8C0.1,14.7,0,14.8,0,15c0,0.1,0.1,0.3,0.1,0.3l7.8,7.8c0.4,0.4,0.9,0.7,1.5,0.7
		c0.7,0,1.3-0.2,1.7-0.7c0.4-0.4,0.7-1,0.7-1.6c0-0.6-0.2-1.2-0.7-1.6l-2.9-2.9h0l-1.2-1.6h18.6c2.1,0,3.9,1.7,3.9,3.9
		c0,2.2-1.7,3.9-3.9,3.9c0,0-0.1,0-0.1,0V25c0,0.5,0.4,0.9,0.9,0.9l0.1,0c3-0.6,5.4-3.2,5.4-6.5C32,15.8,29.1,12.8,25.4,12.8z"/>
	<path class="st4" d="M29.6,19.4c0-2.1-1.7-3.9-3.9-3.9H7.1l1.2,1.6h0h0h8.5h2.5h1.1h2.8h2.1h0.2c0.1,0,0.1,0,0.2,0
		c1.2,0.1,2.1,1.1,2.1,2.3c0,1-0.6,1.8-1.5,2.2c-0.3,0.1-0.6,0.4-0.6,0.8v0.4v0.6c0,0,0.1,0,0.1,0C27.9,23.3,29.6,21.6,29.6,19.4z"
		/>
</g>
</svg>
