<?xml version="1.0" encoding="utf-8"?>
<!-- Generator: Adobe Illustrator 24.3.0, SVG Export Plug-In . SVG Version: 6.00 Build 0)  -->
<svg version="1.1" id="Capa_1" xmlns="http://www.w3.org/2000/svg" xmlns:xlink="http://www.w3.org/1999/xlink" x="0px" y="0px"
	 viewBox="0 0 32 32" style="enable-background:new 0 0 32 32;" xml:space="preserve">
<style type="text/css">
	.st0{fill:#17B5C8;}
	.st1{fill:#11828F;}
	.st2{fill:none;}
	.st3{fill:#A6D100;}
	.st4{fill:#89AB00;}
	.st5{fill:#5F7993;}
	.st6{fill:#405162;}
	.st7{fill:#FFFFFF;}
	.st8{fill:#3A5368;}
</style>
<g>
	<g>
		<path class="st1" d="M6.1,29.2V14.9c0-1.6,1.3-2.8,2.8-2.8h-3c-1.6,0-2.8,1.3-2.8,2.8v14.3c0,1.6,1.3,2.8,2.8,2.8h3
			C7.4,32,6.1,30.7,6.1,29.2z"/>
		<path class="st0" d="M28.9,29.2V14.9c0-1.6-1.3-2.8-2.8-2.8H9c-1.6,0-2.8,1.3-2.8,2.8v14.3C6.1,30.7,7.4,32,9,32h17.1
			C27.6,32,28.9,30.7,28.9,29.2z M17.7,25.2c0,0.1,0,0.3-0.1,0.4c-0.1,0.1-0.2,0.2-0.4,0.2h-2.4c-0.1,0-0.3-0.1-0.4-0.2
			c-0.1-0.1-0.1-0.2-0.1-0.4l0.3-3.1c-0.5-0.4-0.8-1-0.8-1.6c0-1.1,0.9-2.1,2.1-2.1s2.1,0.9,2.1,2.1c0,0.6-0.3,1.2-0.7,1.6
			L17.7,25.2z"/>
	</g>
	<g>
		<path class="st3" d="M15.9,0c-3.7,0-6.8,3-6.8,6.8v1.7H11V6.8c0-2.7,2.2-4.9,4.9-4.9s4.9,2.2,4.9,4.9v3h1.8v-3
			C22.7,3,19.7,0,15.9,0z"/>
		<polygon class="st4" points="20.9,10.6 20.9,12.1 22.7,12.1 22.7,9.8 20.9,9.8 		"/>
		<rect x="9.2" y="8.4" class="st4" width="1.8" height="1.4"/>
	</g>
</g>
</svg>
