<?xml version="1.0" encoding="utf-8"?>
<!-- Generator: Adobe Illustrator 24.3.0, SVG Export Plug-In . SVG Version: 6.00 Build 0)  -->
<svg version="1.1" id="Capa_1" xmlns="http://www.w3.org/2000/svg" xmlns:xlink="http://www.w3.org/1999/xlink" x="0px" y="0px"
	 viewBox="0 0 32 32" style="enable-background:new 0 0 32 32;" xml:space="preserve">
<style type="text/css">
	.st0{fill:#17B5C8;}
	.st1{fill:#11828F;}
	.st2{fill:none;}
	.st3{fill:#A6D100;}
	.st4{fill:#89AB00;}
	.st5{fill:#5F7993;}
	.st6{fill:#405162;}
	.st7{fill:#FFFFFF;}
	.st8{fill:#3A5368;}
</style>
<g>
	<g>
		<path class="st3" d="M19.8,16.2L19.8,16.2c-1.2,0.9-2.5,1.4-3.8,1.4c-1.7,0-3.3-0.7-4.7-2.2c-0.2-0.2-0.5-0.2-0.7-0.1
			c-2.1,1-3.9,2.6-5.2,4.6c-1.3,2-2,4.4-2,6.9v0c0,0.2,0.1,0.3,0.2,0.5C6.9,30.3,11.4,32,16,32c0.8,0,1.5-0.1,2.2-0.2
			C25.2,24.5,19.8,16.2,19.8,16.2z"/>
		<path class="st4" d="M28.7,26.7L28.7,26.7c0-2.5-0.7-4.8-2-6.9c-1.3-2-3.1-3.6-5.2-4.6c-0.2-0.1-0.5-0.1-0.7,0.1
			c-0.3,0.3-0.6,0.6-0.9,0.8l0,0c0,0,5.4,8.4-1.6,15.7c3.8-0.5,7.4-2.1,10.2-4.7C28.6,27.1,28.7,26.9,28.7,26.7z"/>
	</g>
	<g>
		<path class="st0" d="M15.4,0l0.2,0c-3.8,0.2-6.9,3.4-6.9,7.3c0,2,0.8,4.3,2.1,6.1c1.5,2.1,3.3,3.2,5.2,3.2c0.8,0,1.7-0.2,2.5-0.7
			c0.1-0.1,2.3-2.6,2.5-8.3C21.1,1.9,15.4,0,15.4,0z"/>
		<path class="st1" d="M21.2,13.4c1.3-1.8,2.1-4.1,2.1-6.1c0-2.7-1.5-5.1-3.7-6.4c-1.1-0.6-2.3-1-3.6-1c-0.1,0-0.3,0-0.4,0l-0.2,0
			c0,0,5.8,1.8,5.6,7.7c-0.2,5.7-2.4,8.2-2.5,8.3c0.2-0.1,0.5-0.3,0.7-0.4C19.9,15,20.6,14.3,21.2,13.4z"/>
	</g>
</g>
</svg>
