<?xml version="1.0" encoding="utf-8"?>
<!-- Generator: Adobe Illustrator 24.3.0, SVG Export Plug-In . SVG Version: 6.00 Build 0)  -->
<svg version="1.1" id="Capa_1" xmlns="http://www.w3.org/2000/svg" xmlns:xlink="http://www.w3.org/1999/xlink" x="0px" y="0px"
	 viewBox="0 0 32 32" style="enable-background:new 0 0 32 32;" xml:space="preserve">
<style type="text/css">
	.st0{fill:#17B5C8;}
	.st1{fill:#11828F;}
	.st2{fill:none;}
	.st3{fill:#A6D100;}
	.st4{fill:#89AB00;}
	.st5{fill:#5F7993;}
	.st6{fill:#405162;}
	.st7{fill:#FFFFFF;}
	.st8{fill:#3A5368;}
</style>
<g>
	<path class="st8" d="M18.6,22.5c-0.2,0-0.4,0-0.6,0c2.4,0.3,4.2,2.3,4.2,4.8c0,2.5-1.8,4.5-4.2,4.8c0.2,0,0.4,0,0.6,0
		c2.6,0,4.8-2.1,4.8-4.8C23.4,24.6,21.3,22.5,18.6,22.5z"/>
	<ellipse class="st5" cx="18.1" cy="27.3" rx="4.2" ry="4.8"/>
	<path class="st1" d="M9.7,18.2c-0.2,0-0.4,0-0.6,0c2.4,0.3,4.2,2.3,4.2,4.8c0,2.5-1.8,4.5-4.2,4.8c0.2,0,0.4,0,0.6,0
		c2.6,0,4.8-2.1,4.8-4.8C14.5,20.3,12.4,18.2,9.7,18.2z"/>
	<ellipse class="st0" cx="9.2" cy="23" rx="4.2" ry="4.8"/>
	<path class="st4" d="M6.4,9.7c-0.2,0-0.4,0-0.5,0C8,10,9.7,11.9,9.7,14.1c0,2.3-1.7,4.1-3.9,4.4c0.2,0,0.3,0,0.5,0
		c2.4,0,4.4-2,4.4-4.4C10.8,11.7,8.8,9.7,6.4,9.7z"/>
	<ellipse class="st3" cx="5.8" cy="14.1" rx="3.9" ry="4.4"/>
	<path class="st8" d="M10.3,2.1c-0.2,0-0.3,0-0.5,0c2,0.2,3.6,2,3.6,4c0,2.1-1.6,3.8-3.6,4c0.2,0,0.3,0,0.5,0c2.2,0,4.1-1.8,4.1-4.1
		C14.3,3.9,12.5,2.1,10.3,2.1z"/>
	<ellipse class="st5" cx="9.8" cy="6.1" rx="3.6" ry="4"/>
	<path class="st1" d="M18,0c-0.2,0-0.3,0-0.5,0c1.9,0.2,3.4,1.8,3.4,3.8c0,1.9-1.5,3.6-3.4,3.8c0.1,0,0.3,0,0.5,0
		c2.1,0,3.8-1.7,3.8-3.8C21.9,1.7,20.2,0,18,0z"/>
	<ellipse class="st0" cx="17.6" cy="3.8" rx="3.4" ry="3.8"/>
	<path class="st4" d="M24.9,3.6c-0.1,0-0.3,0-0.4,0c1.8,0.2,3.1,1.7,3.1,3.5c0,1.8-1.4,3.3-3.1,3.5c0.1,0,0.3,0,0.4,0
		c2,0,3.6-1.6,3.6-3.6C28.5,5.2,26.9,3.6,24.9,3.6z"/>
	<ellipse class="st3" cx="24.5" cy="7.1" rx="3.1" ry="3.5"/>
	<path class="st8" d="M26.9,10.6c-0.1,0-0.3,0-0.4,0c1.6,0.2,2.8,1.5,2.8,3.2c0,1.6-1.2,3-2.8,3.2c0.1,0,0.3,0,0.4,0
		c1.8,0,3.2-1.4,3.2-3.2C30.1,12,28.7,10.6,26.9,10.6z"/>
	<ellipse class="st5" cx="26.5" cy="13.8" rx="2.8" ry="3.2"/>
	<path class="st1" d="M23.8,16.4c-0.1,0-0.2,0-0.4,0c1.5,0.2,2.6,1.4,2.6,2.9c0,1.5-1.1,2.7-2.6,2.9c0.1,0,0.2,0,0.4,0
		c1.6,0,2.9-1.3,2.9-2.9C26.7,17.7,25.4,16.4,23.8,16.4z"/>
	<ellipse class="st0" cx="23.4" cy="19.4" rx="2.6" ry="2.9"/>
	<path class="st4" d="M17.6,16.7c-0.1,0-0.2,0-0.3,0c1.3,0.2,2.3,1.2,2.3,2.6c0,1.3-1,2.4-2.3,2.6c0.1,0,0.2,0,0.3,0
		c1.4,0,2.6-1.2,2.6-2.6C20.1,17.8,19,16.7,17.6,16.7z"/>
	<ellipse class="st3" cx="17.2" cy="19.3" rx="2.3" ry="2.6"/>
	<path class="st8" d="M13.9,13.5c-0.1,0-0.2,0-0.3,0c1.1,0.1,1.9,1,1.9,2.1c0,1.1-0.8,2-1.9,2.1c0.1,0,0.2,0,0.3,0
		c1.2,0,2.2-1,2.2-2.2C16.1,14.4,15.1,13.5,13.9,13.5z"/>
	<ellipse class="st5" cx="13.6" cy="15.6" rx="1.9" ry="2.1"/>
	<path class="st1" d="M15.8,9.8c-0.1,0-0.2,0-0.2,0c0.9,0.1,1.7,0.9,1.7,1.9c0,1-0.7,1.8-1.7,1.9c0.1,0,0.2,0,0.2,0
		c1,0,1.9-0.8,1.9-1.9C17.7,10.6,16.8,9.8,15.8,9.8z"/>
	<ellipse class="st0" cx="15.6" cy="11.7" rx="1.7" ry="1.9"/>
	<path class="st4" d="M19.7,9.8c-0.1,0-0.1,0-0.2,0c0.8,0.1,1.5,0.8,1.5,1.7c0,0.9-0.7,1.6-1.5,1.7c0.1,0,0.1,0,0.2,0
		c0.9,0,1.7-0.8,1.7-1.7C21.4,10.5,20.7,9.8,19.7,9.8z"/>
	<ellipse class="st3" cx="19.5" cy="11.5" rx="1.5" ry="1.7"/>
</g>
</svg>
