<?xml version="1.0" encoding="utf-8"?>
<!-- Generator: Adobe Illustrator 24.3.0, SVG Export Plug-In . SVG Version: 6.00 Build 0)  -->
<svg version="1.1" id="Capa_1" xmlns="http://www.w3.org/2000/svg" xmlns:xlink="http://www.w3.org/1999/xlink" x="0px" y="0px"
	 viewBox="0 0 32 32" style="enable-background:new 0 0 32 32;" xml:space="preserve">
<style type="text/css">
	.st0{fill:#17B5C8;}
	.st1{fill:#11828F;}
	.st2{fill:none;}
	.st3{fill:#A6D100;}
	.st4{fill:#89AB00;}
	.st5{fill:#5F7993;}
	.st6{fill:#405162;}
	.st7{fill:#FFFFFF;}
	.st8{fill:#3A5368;}
</style>
<g>
	<path class="st8" d="M3.2,12.7c-0.1,0-0.3,0-0.4,0c1.6,0.2,2.8,1.5,2.8,3.2c0,1.6-1.2,3-2.8,3.2c0.1,0,0.3,0,0.4,0
		c1.8,0,3.2-1.4,3.2-3.2C6.4,14.1,5,12.7,3.2,12.7z"/>
	<ellipse class="st5" cx="2.8" cy="15.9" rx="2.8" ry="3.2"/>
	<path class="st1" d="M11.7,12.7c-0.1,0-0.3,0-0.4,0c1.6,0.2,2.8,1.5,2.8,3.2c0,1.6-1.2,3-2.8,3.2c0.1,0,0.3,0,0.4,0
		c1.8,0,3.2-1.4,3.2-3.2C15,14.1,13.5,12.7,11.7,12.7z"/>
	<ellipse class="st0" cx="11.4" cy="15.9" rx="2.8" ry="3.2"/>
	<path class="st4" d="M20.3,12.7c-0.1,0-0.3,0-0.4,0c1.6,0.2,2.8,1.5,2.8,3.2c0,1.6-1.2,3-2.8,3.2c0.1,0,0.3,0,0.4,0
		c1.8,0,3.2-1.4,3.2-3.2C23.5,14.1,22,12.7,20.3,12.7z"/>
	<ellipse class="st3" cx="19.9" cy="15.9" rx="2.8" ry="3.2"/>
	<path class="st8" d="M28.8,12.7c-0.1,0-0.3,0-0.4,0c1.6,0.2,2.8,1.5,2.8,3.2c0,1.6-1.2,3-2.8,3.2c0.1,0,0.3,0,0.4,0
		c1.8,0,3.2-1.4,3.2-3.2C32,14.1,30.6,12.7,28.8,12.7z"/>
	<ellipse class="st5" cx="28.4" cy="15.9" rx="2.8" ry="3.2"/>
</g>
</svg>
