<?xml version="1.0" encoding="UTF-8" standalone="no"?>
<!-- Created with Inkscape (http://www.inkscape.org/) -->

<svg
   xmlns:dc="http://purl.org/dc/elements/1.1/"
   xmlns:cc="http://creativecommons.org/ns#"
   xmlns:rdf="http://www.w3.org/1999/02/22-rdf-syntax-ns#"
   xmlns:svg="http://www.w3.org/2000/svg"
   xmlns="http://www.w3.org/2000/svg"
   xmlns:sodipodi="http://sodipodi.sourceforge.net/DTD/sodipodi-0.dtd"
   xmlns:inkscape="http://www.inkscape.org/namespaces/inkscape"
   version="1.1"
   id="svg2979"
   width="241.4325"
   height="125.11441"
   viewBox="0 0 241.4325 125.11441"
   sodipodi:docname="logo - iam.svg"
   inkscape:version="0.92.5 (2060ec1f9f, 2020-04-08)">
  <metadata
     id="metadata2985">
    <rdf:RDF>
      <cc:Work
         rdf:about="">
        <dc:format>image/svg+xml</dc:format>
        <dc:type
           rdf:resource="http://purl.org/dc/dcmitype/StillImage" />
        <dc:title></dc:title>
      </cc:Work>
    </rdf:RDF>
  </metadata>
  <defs
     id="defs2983" />
  <sodipodi:namedview
     pagecolor="#ffffff"
     bordercolor="#666666"
     borderopacity="1"
     objecttolerance="10"
     gridtolerance="10"
     guidetolerance="10"
     inkscape:pageopacity="0"
     inkscape:pageshadow="2"
     inkscape:window-width="1920"
     inkscape:window-height="1016"
     id="namedview2981"
     showgrid="true"
     showguides="true"
     inkscape:guide-bbox="true"
     inkscape:snap-global="false"
     inkscape:zoom="5.9566672"
     inkscape:cx="151.08367"
     inkscape:cy="43.956101"
     inkscape:window-x="0"
     inkscape:window-y="27"
     inkscape:window-maximized="1"
     inkscape:current-layer="svg2979"
     fit-margin-top="0"
     fit-margin-left="0"
     fit-margin-right="0"
     fit-margin-bottom="0">
    <inkscape:grid
       type="xygrid"
       id="grid7263"
       originx="0.49958599"
       originy="-23.774382" />
    <sodipodi:guide
       position="10.499586,53.623533"
       orientation="0,1"
       id="guide7265"
       inkscape:locked="false" />
  </sodipodi:namedview>
  <text
     xml:space="preserve"
     style="font-style:normal;font-variant:normal;font-weight:bold;font-stretch:normal;font-size:64px;line-height:1.25;font-family:'Liberation Sans';-inkscape-font-specification:'Liberation Sans Bold';letter-spacing:0px;word-spacing:0px;fill:#000000;fill-opacity:1;stroke:none"
     x="13.794933"
     y="34.691254"
     id="text7241"><tspan
       sodipodi:role="line"
       id="tspan7239"
       x="13.794933"
       y="92.339539" /></text>
  <path
     inkscape:connector-curvature="0"
     id="path7247"
     style="font-style:normal;font-variant:normal;font-weight:normal;font-stretch:normal;font-size:96px;line-height:1.25;font-family:'Avenir LT Std';-inkscape-font-specification:'Avenir LT Std';letter-spacing:0px;word-spacing:0px;fill:#637792;fill-opacity:1;stroke:none"
     d="m 0,65.109404 c 4.416,6.336 9.888,8.352 17.472,8.352 8.928,0 17.952,-3.936 17.952,-14.112 0,-9.024 -6.72,-11.904 -14.688,-13.44 -5.952,-1.152 -11.328,-2.784 -11.328,-6.528004 0,-4.224003 4.704,-6.240003 8.832,-6.240003 4.416,0 7.584,2.208 9.504,5.376003 l 6.24,-4.128003 c -3.072,-5.76 -8.928,-8.16 -15.264,-8.16 -8.352,0 -16.8,4.512 -16.8,13.248003 0,9.312004 7.296,11.136004 15.84,13.056004 4.8,1.056 9.6,2.304 9.6,7.104 0,4.896 -5.184,6.912 -9.888,6.912 -5.28,0 -8.544,-2.4 -11.52,-6.048 z" />
  <path
     inkscape:connector-curvature="0"
     id="path7249"
     style="font-style:normal;font-variant:normal;font-weight:normal;font-stretch:normal;font-size:96px;line-height:1.25;font-family:'Avenir LT Std';-inkscape-font-specification:'Avenir LT Std';letter-spacing:0px;word-spacing:0px;fill:#637792;fill-opacity:1;stroke:none"
     d="m 39.497203,50.082824 c 0,14.016 10.176,23.616 24,23.616 13.823998,0 23.999998,-9.6 23.999998,-23.616 0,-14.016007 -10.176,-23.616007 -23.999998,-23.616007 -13.824,0 -24,9.6 -24,23.616007 z m 8.064,0 c 0,-9.408004 6.24,-16.704007 15.936,-16.704007 9.695997,0 15.935998,7.296003 15.935998,16.704007 0,9.408 -6.240001,16.704 -15.935998,16.704 -9.696,0 -15.936,-7.296 -15.936,-16.704 z" />
  <path
     inkscape:connector-curvature="0"
     id="path7251"
     style="font-style:normal;font-variant:normal;font-weight:normal;font-stretch:normal;font-size:96px;line-height:1.25;font-family:'Avenir LT Std';-inkscape-font-specification:'Avenir LT Std';letter-spacing:0px;word-spacing:0px;fill:#637792;fill-opacity:1;stroke:none"
     d="m 97.707561,73.733904 c 0.20464,6.40682 -1.83409,10.11417 -4.46523,10.26828 l -7.07683,0.11871 0.1644,7.24121 7.52432,0.0593 c 4.69488,0.12705 11.432599,-3.71221 11.341349,-17.68755 V 35.141847 h 13.31817 v -6.336 h -13.31817 v -8.448 c 0,-6.23279 4.4428,-7.26716 8.77625,-7.26716 1.728,0 3.456,0.384 5.088,0.96 l 1.056,-6.72 c -1.44,-0.768 -3.84014,-1.17516 -5.76,-1.152 -9.84054,0.11871 -16.648259,1.60316 -16.648259,12.54716 v 10.08 h -9.792 v 6.336 h 9.792 z"
     sodipodi:nodetypes="ccccccccccssccssccccc" />
  <path
     inkscape:connector-curvature="0"
     id="path7253"
     style="font-style:normal;font-variant:normal;font-weight:normal;font-stretch:normal;font-size:96px;line-height:1.25;font-family:'Avenir LT Std';-inkscape-font-specification:'Avenir LT Std';letter-spacing:0px;word-spacing:0px;fill:#22b9d8;fill-opacity:1;stroke:none"
     d="m 143.88991,28.805907 h -17.99492 v -8.448 c 0,-7.776 0.288,-13.44 8.064,-13.44 1.728,0 2.53601,-0.0315 4.18285,-0.005 L 138.18884,0 c -2.07806,0.0036 -1.92583,0.0054 -3.84583,0.0054 -12.096,0 -15.936,7.776007 -15.936,18.720007 v 10.08 6.336 38.592007 h 7.488 V 35.141407 h 17.65916 z"
     sodipodi:nodetypes="ccssccssccccccc" />
  <path
     inkscape:connector-curvature="0"
     id="path7255"
     style="font-style:normal;font-variant:normal;font-weight:normal;font-stretch:normal;font-size:96px;line-height:1.25;font-family:'Avenir LT Std';-inkscape-font-specification:'Avenir LT Std';letter-spacing:0px;word-spacing:0px;fill:#9ec73c;fill-opacity:1;stroke:none"
     d="M 205.89558,52.14704 205.7277,1.395317 h -7.488 v 34.176 h -0.192 c -4.128,-4.8 -9.6,-7.68 -16.128,-7.68 -14.112,0 -23.616,9.984 -23.616,23.616007 0,13.44 9.888,23.616 22.464,23.616 8.064,0 14.83176,-2.521088 19.12667,-6.433934 4.09079,-4.351209 5.96904,-11.119326 6.00121,-16.54235 z m -7.65588,-0.639716 c 0,9.408 -6.24,16.704 -15.936,16.704 -9.696,0 -15.936,-7.296 -15.936,-16.704 0,-9.408004 6.24,-16.704007 15.936,-16.704007 9.696,0 15.936,7.296003 15.936,16.704007 z"
     sodipodi:nodetypes="cccccsssccsssss" />
  <rect
     style="opacity:1;fill:#9ec73c;fill-opacity:1;fill-rule:nonzero;stroke:none;stroke-width:1.88976383;stroke-linecap:round;stroke-linejoin:round;stroke-miterlimit:4;stroke-dasharray:none;stroke-dashoffset:0;stroke-opacity:0.98425197"
     id="rect7267"
     width="8.3095932"
     height="8.3095932"
     x="143.18716"
     y="0.13465506" />
  <rect
     style="opacity:1;fill:#637792;fill-opacity:1;fill-rule:nonzero;stroke:none;stroke-width:1.88976383;stroke-linecap:round;stroke-linejoin:round;stroke-miterlimit:4;stroke-dasharray:none;stroke-dashoffset:0;stroke-opacity:0.98425197"
     id="rect7267-8"
     width="8.3095932"
     height="8.3095932"
     x="73.030457"
     y="83.467987" />
  <path
     inkscape:connector-curvature="0"
     id="path7253-7"
     style="font-style:normal;font-variant:normal;font-weight:normal;font-stretch:normal;font-size:96px;line-height:1.25;font-family:'Avenir LT Std';-inkscape-font-specification:'Avenir LT Std';letter-spacing:0px;word-spacing:0px;fill:#9ec73c;fill-opacity:1;stroke:none"
     d="m 143.68894,73.672844 h 7.488 V 28.744837 h -7.488 z"
     sodipodi:nodetypes="ccccc" />
  <g
     aria-label="identity and access
management"
     style="font-style:normal;font-variant:normal;font-weight:bold;font-stretch:normal;font-size:14px;line-height:1.25;font-family:'Avenir LT Std';-inkscape-font-specification:'Avenir LT Std, Bold';font-variant-ligatures:normal;font-variant-caps:normal;font-variant-numeric:normal;font-feature-settings:normal;text-align:start;letter-spacing:0px;word-spacing:0px;writing-mode:lr-tb;text-anchor:start;fill:#000000;fill-opacity:1;stroke:none"
     id="text844">
    <path
       d="m 118.28872,104.25441 h 1.68 v -6.72 h -1.68 z m -0.238,-9.002 c 0,0.532 0.448,1.008 1.064,1.008 0.616,0 1.092,-0.434 1.092,-1.008 0,-0.574 -0.476,-1.008 -1.092,-1.008 -0.616,0 -1.064,0.476 -1.064,1.008 z"
       style="font-style:normal;font-variant:normal;font-weight:bold;font-stretch:normal;font-size:14px;line-height:0px;font-family:'Avenir LT Std';-inkscape-font-specification:'Avenir LT Std, Bold';font-variant-ligatures:normal;font-variant-caps:normal;font-variant-numeric:normal;font-feature-settings:normal;text-align:start;writing-mode:lr-tb;text-anchor:start;fill:#17b5c8"
       id="path887" />
    <path
       d="m 127.2207,104.25441 h 1.596 v -10.584 h -1.68 v 4.718 h -0.042 c -0.35,-0.434 -1.022,-1.022 -2.282,-1.022 -1.918,0 -3.248,1.54 -3.248,3.528 0,1.988 1.246,3.528 3.318,3.528 0.938,0 1.82,-0.364 2.31,-1.176 h 0.028 z m -3.976,-3.36 c 0,-1.05 0.742,-2.016 1.974,-2.016 1.232,0 1.974,0.966 1.974,2.016 0,1.05 -0.742,2.016 -1.974,2.016 -1.232,0 -1.974,-0.966 -1.974,-2.016 z"
       style="font-style:normal;font-variant:normal;font-weight:bold;font-stretch:normal;font-size:14px;line-height:0px;font-family:'Avenir LT Std';-inkscape-font-specification:'Avenir LT Std, Bold';font-variant-ligatures:normal;font-variant-caps:normal;font-variant-numeric:normal;font-feature-settings:normal;text-align:start;writing-mode:lr-tb;text-anchor:start;fill:#17b5c8"
       id="path889" />
    <path
       d="m 137.18869,101.48241 v -0.462 c 0,-2.338 -1.274,-3.654 -3.15,-3.654 -2.03,0 -3.654,1.414 -3.654,3.528 0,2.114 1.624,3.528 3.654,3.528 1.064,0 2.058,-0.378 2.842,-1.344 l -1.204,-0.91 c -0.42,0.518 -0.966,0.91 -1.806,0.91 -0.938,0 -1.694,-0.602 -1.806,-1.596 z m -5.124,-1.26 c 0.126,-0.966 0.742,-1.596 1.736,-1.596 1.05,0 1.694,0.616 1.708,1.596 z"
       style="font-style:normal;font-variant:normal;font-weight:bold;font-stretch:normal;font-size:14px;line-height:0px;font-family:'Avenir LT Std';-inkscape-font-specification:'Avenir LT Std, Bold';font-variant-ligatures:normal;font-variant-caps:normal;font-variant-numeric:normal;font-feature-settings:normal;text-align:start;writing-mode:lr-tb;text-anchor:start;fill:#17b5c8"
       id="path891" />
    <path
       d="m 138.75668,104.25441 h 1.68 v -3.668 c 0,-0.896 0.434,-1.708 1.54,-1.708 1.176,0 1.232,1.232 1.232,1.974 v 3.402 h 1.68 v -4.242 c 0,-1.372 -0.644,-2.646 -2.45,-2.646 -1.12,0 -1.75,0.574 -2.058,1.246 h -0.028 v -1.078 h -1.596 z"
       style="font-style:normal;font-variant:normal;font-weight:bold;font-stretch:normal;font-size:14px;line-height:0px;font-family:'Avenir LT Std';-inkscape-font-specification:'Avenir LT Std, Bold';font-variant-ligatures:normal;font-variant-caps:normal;font-variant-numeric:normal;font-feature-settings:normal;text-align:start;writing-mode:lr-tb;text-anchor:start;fill:#17b5c8"
       id="path893" />
    <path
       d="m 147.39467,98.96241 v 3.08 c 0,1.582 0.42,2.38 2.198,2.38 0.392,0 0.98,-0.056 1.33,-0.224 v -1.414 c -0.21,0.154 -0.616,0.21 -0.91,0.21 -0.742,0 -0.938,-0.42 -0.938,-1.092 v -2.94 h 1.848 v -1.428 h -1.848 v -1.946 h -1.68 v 1.946 h -1.386 v 1.428 z"
       style="font-style:normal;font-variant:normal;font-weight:bold;font-stretch:normal;font-size:14px;line-height:0px;font-family:'Avenir LT Std';-inkscape-font-specification:'Avenir LT Std, Bold';font-variant-ligatures:normal;font-variant-caps:normal;font-variant-numeric:normal;font-feature-settings:normal;text-align:start;writing-mode:lr-tb;text-anchor:start;fill:#17b5c8"
       id="path895" />
    <path
       d="m 152.26667,104.25441 h 1.68 v -6.72 h -1.68 z m -0.238,-9.002 c 0,0.532 0.448,1.008 1.064,1.008 0.616,0 1.092,-0.434 1.092,-1.008 0,-0.574 -0.476,-1.008 -1.092,-1.008 -0.616,0 -1.064,0.476 -1.064,1.008 z"
       style="font-style:normal;font-variant:normal;font-weight:bold;font-stretch:normal;font-size:14px;line-height:0px;font-family:'Avenir LT Std';-inkscape-font-specification:'Avenir LT Std, Bold';font-variant-ligatures:normal;font-variant-caps:normal;font-variant-numeric:normal;font-feature-settings:normal;text-align:start;writing-mode:lr-tb;text-anchor:start;fill:#17b5c8"
       id="path897" />
    <path
       d="m 156.48065,98.96241 v 3.08 c 0,1.582 0.42,2.38 2.198,2.38 0.392,0 0.98,-0.056 1.33,-0.224 v -1.414 c -0.21,0.154 -0.616,0.21 -0.91,0.21 -0.742,0 -0.938,-0.42 -0.938,-1.092 v -2.94 h 1.848 v -1.428 h -1.848 v -1.946 h -1.68 v 1.946 h -1.386 v 1.428 z"
       style="font-style:normal;font-variant:normal;font-weight:bold;font-stretch:normal;font-size:14px;line-height:0px;font-family:'Avenir LT Std';-inkscape-font-specification:'Avenir LT Std, Bold';font-variant-ligatures:normal;font-variant-caps:normal;font-variant-numeric:normal;font-feature-settings:normal;text-align:start;writing-mode:lr-tb;text-anchor:start;fill:#17b5c8"
       id="path899" />
    <path
       d="m 163.28465,104.31041 -0.322,0.798 c -0.28,0.7 -0.504,0.994 -1.33,0.994 -0.294,0 -0.588,-0.07 -0.854,-0.168 l -0.21,1.512 c 0.42,0.112 0.854,0.168 1.288,0.168 1.484,0 2.072,-0.658 2.562,-1.918 l 3.178,-8.162 h -1.75 l -1.68,4.662 h -0.028 l -1.876,-4.662 h -1.848 z"
       style="font-style:normal;font-variant:normal;font-weight:bold;font-stretch:normal;font-size:14px;line-height:0px;font-family:'Avenir LT Std';-inkscape-font-specification:'Avenir LT Std, Bold';font-variant-ligatures:normal;font-variant-caps:normal;font-variant-numeric:normal;font-feature-settings:normal;text-align:start;writing-mode:lr-tb;text-anchor:start;fill:#17b5c8"
       id="path901" />
    <path
       d="m 176.93463,104.25441 h 1.512 v -3.864 c 0,-0.952 0,-3.024 -2.87,-3.024 -1.064,0 -2.114,0.322 -2.856,1.078 l 0.882,0.882 c 0.448,-0.42 1.092,-0.7 1.792,-0.7 0.896,0 1.54,0.434 1.54,1.26 v 0.182 h -0.42 c -1.68,0 -4.228,0.154 -4.228,2.338 0,1.33 1.204,2.016 2.45,2.016 0.896,0 1.68,-0.336 2.156,-1.092 h 0.042 z m -0.098,-2.632 c 0,0.938 -0.546,1.54 -1.694,1.54 -0.546,0 -1.176,-0.266 -1.176,-0.882 0,-0.966 1.596,-1.036 2.52,-1.036 h 0.35 z"
       style="font-style:normal;font-variant:normal;font-weight:bold;font-stretch:normal;font-size:14px;line-height:0px;font-family:'Avenir LT Std';-inkscape-font-specification:'Avenir LT Std, Bold';font-variant-ligatures:normal;font-variant-caps:normal;font-variant-numeric:normal;font-feature-settings:normal;text-align:start;writing-mode:lr-tb;text-anchor:start;fill:#17b5c8"
       id="path903" />
    <path
       d="m 180.25261,104.25441 h 1.68 v -3.668 c 0,-0.896 0.434,-1.708 1.54,-1.708 1.176,0 1.232,1.232 1.232,1.974 v 3.402 h 1.68 v -4.242 c 0,-1.372 -0.644,-2.646 -2.45,-2.646 -1.12,0 -1.75,0.574 -2.058,1.246 h -0.028 v -1.078 h -1.596 z"
       style="font-style:normal;font-variant:normal;font-weight:bold;font-stretch:normal;font-size:14px;line-height:0px;font-family:'Avenir LT Std';-inkscape-font-specification:'Avenir LT Std, Bold';font-variant-ligatures:normal;font-variant-caps:normal;font-variant-numeric:normal;font-feature-settings:normal;text-align:start;writing-mode:lr-tb;text-anchor:start;fill:#17b5c8"
       id="path905" />
    <path
       d="m 193.6086,104.25441 h 1.596 v -10.584 h -1.68 v 4.718 h -0.042 c -0.35,-0.434 -1.022,-1.022 -2.282,-1.022 -1.918,0 -3.248,1.54 -3.248,3.528 0,1.988 1.246,3.528 3.318,3.528 0.938,0 1.82,-0.364 2.31,-1.176 h 0.028 z m -3.976,-3.36 c 0,-1.05 0.742,-2.016 1.974,-2.016 1.232,0 1.974,0.966 1.974,2.016 0,1.05 -0.742,2.016 -1.974,2.016 -1.232,0 -1.974,-0.966 -1.974,-2.016 z"
       style="font-style:normal;font-variant:normal;font-weight:bold;font-stretch:normal;font-size:14px;line-height:0px;font-family:'Avenir LT Std';-inkscape-font-specification:'Avenir LT Std, Bold';font-variant-ligatures:normal;font-variant-caps:normal;font-variant-numeric:normal;font-feature-settings:normal;text-align:start;writing-mode:lr-tb;text-anchor:start;fill:#17b5c8"
       id="path907" />
    <path
       d="m 205.45258,104.25441 h 1.512 v -3.864 c 0,-0.952 0,-3.024 -2.87,-3.024 -1.064,0 -2.114,0.322 -2.856,1.078 l 0.882,0.882 c 0.448,-0.42 1.092,-0.7 1.792,-0.7 0.896,0 1.54,0.434 1.54,1.26 v 0.182 h -0.42 c -1.68,0 -4.228,0.154 -4.228,2.338 0,1.33 1.204,2.016 2.45,2.016 0.896,0 1.68,-0.336 2.156,-1.092 h 0.042 z m -0.098,-2.632 c 0,0.938 -0.546,1.54 -1.694,1.54 -0.546,0 -1.176,-0.266 -1.176,-0.882 0,-0.966 1.596,-1.036 2.52,-1.036 h 0.35 z"
       style="font-style:normal;font-variant:normal;font-weight:bold;font-stretch:normal;font-size:14px;line-height:0px;font-family:'Avenir LT Std';-inkscape-font-specification:'Avenir LT Std, Bold';font-variant-ligatures:normal;font-variant-caps:normal;font-variant-numeric:normal;font-feature-settings:normal;text-align:start;writing-mode:lr-tb;text-anchor:start;fill:#17b5c8"
       id="path909" />
    <path
       d="m 214.52457,98.38841 c -0.644,-0.714 -1.582,-1.022 -2.436,-1.022 -2.03,0 -3.654,1.414 -3.654,3.528 0,2.114 1.624,3.528 3.654,3.528 0.588,0 1.736,-0.252 2.422,-0.938 l -1.12,-1.204 c -0.308,0.406 -0.784,0.63 -1.302,0.63 -1.232,0 -1.974,-0.966 -1.974,-2.016 0,-1.05 0.742,-2.016 1.974,-2.016 0.448,0 0.882,0.266 1.274,0.672 z"
       style="font-style:normal;font-variant:normal;font-weight:bold;font-stretch:normal;font-size:14px;line-height:0px;font-family:'Avenir LT Std';-inkscape-font-specification:'Avenir LT Std, Bold';font-variant-ligatures:normal;font-variant-caps:normal;font-variant-numeric:normal;font-feature-settings:normal;text-align:start;writing-mode:lr-tb;text-anchor:start;fill:#17b5c8"
       id="path911" />
    <path
       d="m 221.27254,98.38841 c -0.644,-0.714 -1.582,-1.022 -2.436,-1.022 -2.03,0 -3.654,1.414 -3.654,3.528 0,2.114 1.624,3.528 3.654,3.528 0.588,0 1.736,-0.252 2.422,-0.938 l -1.12,-1.204 c -0.308,0.406 -0.784,0.63 -1.302,0.63 -1.232,0 -1.974,-0.966 -1.974,-2.016 0,-1.05 0.742,-2.016 1.974,-2.016 0.448,0 0.882,0.266 1.274,0.672 z"
       style="font-style:normal;font-variant:normal;font-weight:bold;font-stretch:normal;font-size:14px;line-height:0px;font-family:'Avenir LT Std';-inkscape-font-specification:'Avenir LT Std, Bold';font-variant-ligatures:normal;font-variant-caps:normal;font-variant-numeric:normal;font-feature-settings:normal;text-align:start;writing-mode:lr-tb;text-anchor:start;fill:#17b5c8"
       id="path913" />
    <path
       d="m 228.73452,101.48241 v -0.462 c 0,-2.338 -1.274,-3.654 -3.15,-3.654 -2.03,0 -3.654,1.414 -3.654,3.528 0,2.114 1.624,3.528 3.654,3.528 1.064,0 2.058,-0.378 2.842,-1.344 l -1.204,-0.91 c -0.42,0.518 -0.966,0.91 -1.806,0.91 -0.938,0 -1.694,-0.602 -1.806,-1.596 z m -5.124,-1.26 c 0.126,-0.966 0.742,-1.596 1.736,-1.596 1.05,0 1.694,0.616 1.708,1.596 z"
       style="font-style:normal;font-variant:normal;font-weight:bold;font-stretch:normal;font-size:14px;line-height:0px;font-family:'Avenir LT Std';-inkscape-font-specification:'Avenir LT Std, Bold';font-variant-ligatures:normal;font-variant-caps:normal;font-variant-numeric:normal;font-feature-settings:normal;text-align:start;writing-mode:lr-tb;text-anchor:start;fill:#17b5c8"
       id="path915" />
    <path
       d="m 235.00652,98.38841 c -0.546,-0.742 -1.498,-1.022 -2.394,-1.022 -1.358,0 -2.702,0.672 -2.702,2.17 0,2.562 3.626,1.47 3.626,2.856 0,0.532 -0.63,0.77 -1.12,0.77 -0.714,0 -1.162,-0.35 -1.596,-0.826 l -1.12,1.05 c 0.686,0.77 1.582,1.036 2.618,1.036 1.372,0 2.898,-0.56 2.898,-2.156 0,-2.618 -3.626,-1.638 -3.626,-2.842 0,-0.504 0.532,-0.714 0.98,-0.714 0.574,0 0.994,0.238 1.316,0.686 z"
       style="font-style:normal;font-variant:normal;font-weight:bold;font-stretch:normal;font-size:14px;line-height:0px;font-family:'Avenir LT Std';-inkscape-font-specification:'Avenir LT Std, Bold';font-variant-ligatures:normal;font-variant-caps:normal;font-variant-numeric:normal;font-feature-settings:normal;text-align:start;writing-mode:lr-tb;text-anchor:start;fill:#17b5c8"
       id="path917" />
    <path
       d="m 241.22249,98.38841 c -0.546,-0.742 -1.498,-1.022 -2.394,-1.022 -1.358,0 -2.702,0.672 -2.702,2.17 0,2.562 3.626,1.47 3.626,2.856 0,0.532 -0.63,0.77 -1.12,0.77 -0.714,0 -1.162,-0.35 -1.596,-0.826 l -1.12,1.05 c 0.686,0.77 1.582,1.036 2.618,1.036 1.372,0 2.898,-0.56 2.898,-2.156 0,-2.618 -3.626,-1.638 -3.626,-2.842 0,-0.504 0.532,-0.714 0.98,-0.714 0.574,0 0.994,0.238 1.316,0.686 z"
       style="font-style:normal;font-variant:normal;font-weight:bold;font-stretch:normal;font-size:14px;line-height:0px;font-family:'Avenir LT Std';-inkscape-font-specification:'Avenir LT Std, Bold';font-variant-ligatures:normal;font-variant-caps:normal;font-variant-numeric:normal;font-feature-settings:normal;text-align:start;writing-mode:lr-tb;text-anchor:start;fill:#17b5c8"
       id="path919" />
    <path
       d="m 118.19072,121.75441 h 1.68 v -3.668 c 0,-0.896 0.434,-1.708 1.54,-1.708 0.812,0 1.148,0.546 1.148,1.372 v 4.004 h 1.68 v -3.64 c 0,-0.868 0.392,-1.736 1.442,-1.736 0.994,0 1.246,0.728 1.246,1.568 v 3.808 h 1.68 v -4.004 c 0,-1.61 -0.63,-2.884 -2.422,-2.884 -1.008,0 -1.722,0.392 -2.212,1.246 -0.35,-0.84 -1.064,-1.246 -2.1,-1.246 -1.12,0 -1.764,0.588 -2.058,1.218 h -0.028 v -1.05 h -1.596 z"
       style="font-style:normal;font-variant:normal;font-weight:bold;font-stretch:normal;font-size:14px;line-height:0px;font-family:'Avenir LT Std';-inkscape-font-specification:'Avenir LT Std, Bold';font-variant-ligatures:normal;font-variant-caps:normal;font-variant-numeric:normal;font-feature-settings:normal;text-align:start;writing-mode:lr-tb;text-anchor:start;fill:#17b5c8"
       id="path921" />
    <path
       d="m 134.64071,121.75441 h 1.512 v -3.864 c 0,-0.952 0,-3.024 -2.87,-3.024 -1.064,0 -2.114,0.322 -2.856,1.078 l 0.882,0.882 c 0.448,-0.42 1.092,-0.7 1.792,-0.7 0.896,0 1.54,0.434 1.54,1.26 v 0.182 h -0.42 c -1.68,0 -4.228,0.154 -4.228,2.338 0,1.33 1.204,2.016 2.45,2.016 0.896,0 1.68,-0.336 2.156,-1.092 h 0.042 z m -0.098,-2.632 c 0,0.938 -0.546,1.54 -1.694,1.54 -0.546,0 -1.176,-0.266 -1.176,-0.882 0,-0.966 1.596,-1.036 2.52,-1.036 h 0.35 z"
       style="font-style:normal;font-variant:normal;font-weight:bold;font-stretch:normal;font-size:14px;line-height:0px;font-family:'Avenir LT Std';-inkscape-font-specification:'Avenir LT Std, Bold';font-variant-ligatures:normal;font-variant-caps:normal;font-variant-numeric:normal;font-feature-settings:normal;text-align:start;writing-mode:lr-tb;text-anchor:start;fill:#17b5c8"
       id="path923" />
    <path
       d="m 137.95869,121.75441 h 1.68 v -3.668 c 0,-0.896 0.434,-1.708 1.54,-1.708 1.176,0 1.232,1.232 1.232,1.974 v 3.402 h 1.68 v -4.242 c 0,-1.372 -0.644,-2.646 -2.45,-2.646 -1.12,0 -1.75,0.574 -2.058,1.246 h -0.028 v -1.078 h -1.596 z"
       style="font-style:normal;font-variant:normal;font-weight:bold;font-stretch:normal;font-size:14px;line-height:0px;font-family:'Avenir LT Std';-inkscape-font-specification:'Avenir LT Std, Bold';font-variant-ligatures:normal;font-variant-caps:normal;font-variant-numeric:normal;font-feature-settings:normal;text-align:start;writing-mode:lr-tb;text-anchor:start;fill:#17b5c8"
       id="path925" />
    <path
       d="m 150.19468,121.75441 h 1.512 v -3.864 c 0,-0.952 0,-3.024 -2.87,-3.024 -1.064,0 -2.114,0.322 -2.856,1.078 l 0.882,0.882 c 0.448,-0.42 1.092,-0.7 1.792,-0.7 0.896,0 1.54,0.434 1.54,1.26 v 0.182 h -0.42 c -1.68,0 -4.228,0.154 -4.228,2.338 0,1.33 1.204,2.016 2.45,2.016 0.896,0 1.68,-0.336 2.156,-1.092 h 0.042 z m -0.098,-2.632 c 0,0.938 -0.546,1.54 -1.694,1.54 -0.546,0 -1.176,-0.266 -1.176,-0.882 0,-0.966 1.596,-1.036 2.52,-1.036 h 0.35 z"
       style="font-style:normal;font-variant:normal;font-weight:bold;font-stretch:normal;font-size:14px;line-height:0px;font-family:'Avenir LT Std';-inkscape-font-specification:'Avenir LT Std, Bold';font-variant-ligatures:normal;font-variant-caps:normal;font-variant-numeric:normal;font-feature-settings:normal;text-align:start;writing-mode:lr-tb;text-anchor:start;fill:#17b5c8"
       id="path927" />
    <path
       d="m 158.83267,115.03441 v 1.008 h -0.028 c -0.49,-0.812 -1.372,-1.176 -2.31,-1.176 -2.072,0 -3.318,1.54 -3.318,3.528 0,1.904 1.33,3.444 3.346,3.444 0.84,0 1.708,-0.322 2.198,-0.98 h 0.028 v 0.49 c 0,1.33 -0.504,2.254 -2.128,2.254 -0.938,0 -1.638,-0.35 -2.31,-0.966 l -1.008,1.372 c 0.952,0.84 2.086,1.106 3.332,1.106 2.618,0 3.794,-1.54 3.794,-3.962 v -6.118 z m -1.988,1.344 c 1.218,0 1.988,0.812 1.988,1.974 0,1.12 -0.756,1.974 -2.002,1.974 -1.134,0 -1.974,-0.882 -1.974,-1.946 0,-1.19 0.812,-2.002 1.988,-2.002 z"
       style="font-style:normal;font-variant:normal;font-weight:bold;font-stretch:normal;font-size:14px;line-height:0px;font-family:'Avenir LT Std';-inkscape-font-specification:'Avenir LT Std, Bold';font-variant-ligatures:normal;font-variant-caps:normal;font-variant-numeric:normal;font-feature-settings:normal;text-align:start;writing-mode:lr-tb;text-anchor:start;fill:#17b5c8"
       id="path929" />
    <path
       d="m 168.80065,118.98241 v -0.462 c 0,-2.338 -1.274,-3.654 -3.15,-3.654 -2.03,0 -3.654,1.414 -3.654,3.528 0,2.114 1.624,3.528 3.654,3.528 1.064,0 2.058,-0.378 2.842,-1.344 l -1.204,-0.91 c -0.42,0.518 -0.966,0.91 -1.806,0.91 -0.938,0 -1.694,-0.602 -1.806,-1.596 z m -5.124,-1.26 c 0.126,-0.966 0.742,-1.596 1.736,-1.596 1.05,0 1.694,0.616 1.708,1.596 z"
       style="font-style:normal;font-variant:normal;font-weight:bold;font-stretch:normal;font-size:14px;line-height:0px;font-family:'Avenir LT Std';-inkscape-font-specification:'Avenir LT Std, Bold';font-variant-ligatures:normal;font-variant-caps:normal;font-variant-numeric:normal;font-feature-settings:normal;text-align:start;writing-mode:lr-tb;text-anchor:start;fill:#17b5c8"
       id="path931" />
    <path
       d="m 170.29865,121.75441 h 1.68 v -3.668 c 0,-0.896 0.434,-1.708 1.54,-1.708 0.812,0 1.148,0.546 1.148,1.372 v 4.004 h 1.68 v -3.64 c 0,-0.868 0.392,-1.736 1.442,-1.736 0.994,0 1.246,0.728 1.246,1.568 v 3.808 h 1.68 v -4.004 c 0,-1.61 -0.63,-2.884 -2.422,-2.884 -1.008,0 -1.722,0.392 -2.212,1.246 -0.35,-0.84 -1.064,-1.246 -2.1,-1.246 -1.12,0 -1.764,0.588 -2.058,1.218 h -0.028 v -1.05 h -1.596 z"
       style="font-style:normal;font-variant:normal;font-weight:bold;font-stretch:normal;font-size:14px;line-height:0px;font-family:'Avenir LT Std';-inkscape-font-specification:'Avenir LT Std, Bold';font-variant-ligatures:normal;font-variant-caps:normal;font-variant-numeric:normal;font-feature-settings:normal;text-align:start;writing-mode:lr-tb;text-anchor:start;fill:#17b5c8"
       id="path933" />
    <path
       d="m 189.01663,118.98241 v -0.462 c 0,-2.338 -1.274,-3.654 -3.15,-3.654 -2.03,0 -3.654,1.414 -3.654,3.528 0,2.114 1.624,3.528 3.654,3.528 1.064,0 2.058,-0.378 2.842,-1.344 l -1.204,-0.91 c -0.42,0.518 -0.966,0.91 -1.806,0.91 -0.938,0 -1.694,-0.602 -1.806,-1.596 z m -5.124,-1.26 c 0.126,-0.966 0.742,-1.596 1.736,-1.596 1.05,0 1.694,0.616 1.708,1.596 z"
       style="font-style:normal;font-variant:normal;font-weight:bold;font-stretch:normal;font-size:14px;line-height:0px;font-family:'Avenir LT Std';-inkscape-font-specification:'Avenir LT Std, Bold';font-variant-ligatures:normal;font-variant-caps:normal;font-variant-numeric:normal;font-feature-settings:normal;text-align:start;writing-mode:lr-tb;text-anchor:start;fill:#17b5c8"
       id="path935" />
    <path
       d="m 190.58462,121.75441 h 1.68 v -3.668 c 0,-0.896 0.434,-1.708 1.54,-1.708 1.176,0 1.232,1.232 1.232,1.974 v 3.402 h 1.68 v -4.242 c 0,-1.372 -0.644,-2.646 -2.45,-2.646 -1.12,0 -1.75,0.574 -2.058,1.246 h -0.028 v -1.078 h -1.596 z"
       style="font-style:normal;font-variant:normal;font-weight:bold;font-stretch:normal;font-size:14px;line-height:0px;font-family:'Avenir LT Std';-inkscape-font-specification:'Avenir LT Std, Bold';font-variant-ligatures:normal;font-variant-caps:normal;font-variant-numeric:normal;font-feature-settings:normal;text-align:start;writing-mode:lr-tb;text-anchor:start;fill:#17b5c8"
       id="path937" />
    <path
       d="m 199.22262,116.46241 v 3.08 c 0,1.582 0.42,2.38 2.198,2.38 0.392,0 0.98,-0.056 1.33,-0.224 v -1.414 c -0.21,0.154 -0.616,0.21 -0.91,0.21 -0.742,0 -0.938,-0.42 -0.938,-1.092 v -2.94 h 1.848 v -1.428 h -1.848 v -1.946 h -1.68 v 1.946 h -1.386 v 1.428 z"
       style="font-style:normal;font-variant:normal;font-weight:bold;font-stretch:normal;font-size:14px;line-height:0px;font-family:'Avenir LT Std';-inkscape-font-specification:'Avenir LT Std, Bold';font-variant-ligatures:normal;font-variant-caps:normal;font-variant-numeric:normal;font-feature-settings:normal;text-align:start;writing-mode:lr-tb;text-anchor:start;fill:#17b5c8"
       id="path939" />
  </g>
</svg>
