<?xml version="1.0" encoding="UTF-8" standalone="no"?>
<svg
   width="100"
   height="77.43"
   viewBox="0 0 19.68 15.24"
   version="1.1"
   id="svg4"
   sodipodi:docname="azure.svg"
   inkscape:version="1.1.2 (0a00cf5339, 2022-02-04)"
   xmlns:inkscape="http://www.inkscape.org/namespaces/inkscape"
   xmlns:sodipodi="http://sodipodi.sourceforge.net/DTD/sodipodi-0.dtd"
   xmlns="http://www.w3.org/2000/svg"
   xmlns:svg="http://www.w3.org/2000/svg">
  <defs
     id="defs8" />
  <sodipodi:namedview
     id="namedview6"
     pagecolor="#ffffff"
     bordercolor="#666666"
     borderopacity="1.0"
     inkscape:pageshadow="2"
     inkscape:pageopacity="0.0"
     inkscape:pagecheckerboard="0"
     showgrid="false"
     inkscape:zoom="9.2858065"
     inkscape:cx="50.02258"
     inkscape:cy="38.715"
     inkscape:window-width="1920"
     inkscape:window-height="1011"
     inkscape:window-x="0"
     inkscape:window-y="32"
     inkscape:window-maximized="1"
     inkscape:current-layer="svg4" />
  <path
     d="M9.105 14.43l4.642-.82.043-.01-2.387-2.84a403.945 403.945 0 0 1-2.387-2.853c0-.014 2.465-6.802 2.479-6.826.004-.008 1.682 2.888 4.066 7.02l4.09 7.09.031.054-7.587-.001-7.587-.001 4.597-.812zM0 13.566c0-.004 1.125-1.957 2.5-4.34L5 4.893l2.913-2.445C9.515 1.104 10.83.002 10.836 0a.512.512 0 0 1-.047.118L7.625 6.903l-3.107 6.663-2.259.003c-1.242.002-2.259 0-2.259-.004z"
     fill="#0089d6"
     id="path2" />
</svg>
