<?xml version="1.0" encoding="UTF-8" standalone="no"?>
<svg
   xmlns:dc="http://purl.org/dc/elements/1.1/"
   xmlns:cc="http://creativecommons.org/ns#"
   xmlns:rdf="http://www.w3.org/1999/02/22-rdf-syntax-ns#"
   xmlns:svg="http://www.w3.org/2000/svg"
   xmlns="http://www.w3.org/2000/svg"
   xmlns:sodipodi="http://sodipodi.sourceforge.net/DTD/sodipodi-0.dtd"
   xmlns:inkscape="http://www.inkscape.org/namespaces/inkscape"
   id="Capa_1"
   data-name="Capa 1"
   viewBox="0 0 127.32 124.55"
   version="1.1"
   sodipodi:docname="access-record.svg"
   inkscape:version="0.92.5 (2060ec1f9f, 2020-04-08)">
  <metadata
     id="metadata1550">
    <rdf:RDF>
      <cc:Work
         rdf:about="">
        <dc:format>image/svg+xml</dc:format>
        <dc:type
           rdf:resource="http://purl.org/dc/dcmitype/StillImage" />
      </cc:Work>
    </rdf:RDF>
  </metadata>
  <sodipodi:namedview
     pagecolor="#ffffff"
     bordercolor="#666666"
     borderopacity="1"
     objecttolerance="10"
     gridtolerance="10"
     guidetolerance="10"
     inkscape:pageopacity="0"
     inkscape:pageshadow="2"
     inkscape:window-width="1920"
     inkscape:window-height="1016"
     id="namedview1548"
     showgrid="false"
     inkscape:zoom="3.7896426"
     inkscape:cx="63.66"
     inkscape:cy="62.275002"
     inkscape:window-x="0"
     inkscape:window-y="27"
     inkscape:window-maximized="1"
     inkscape:current-layer="Capa_1" />
  <defs
     id="defs1505">
    <style
       id="style1503">.cls-1{fill:#a6d100;}.cls-2{fill:#6cab00;}.cls-3{fill:#3a5368;}.cls-4{fill:#5f7993;}.cls-5{fill:#17b5c8;}.cls-6{fill:#02809d;}</style>
  </defs>
  <polygon
     class="cls-1"
     points="1.93 12.55 1.93 113.78 45.07 122.02 45.07 2.37 1.93 12.55"
     id="polygon1507" />
  <path
     class="cls-2"
     d="M43,11.79,14.82,19.31c-6.86,3-5.47,7-5.54,15v80.58l-7.35-1.08V14L45.07,2.37Z"
     id="path1509" />
  <path
     class="cls-1"
     d="M45.08,8.21h34V33.35s-6.34-.87-10.56,1.31V19.14l-23.44.38Z"
     id="path1511" />
  <path
     class="cls-1"
     d="M67.5,97.14a36.38,36.38,0,0,0,11.9,1.63v17H46.16v-9.29H68.52Z"
     id="path1513" />
  <rect
     class="cls-2"
     x="46.16"
     y="8.78"
     width="8.15"
     height="10.5"
     id="rect1515" />
  <rect
     class="cls-2"
     x="46.16"
     y="106.28"
     width="8.15"
     height="10.5"
     id="rect1517" />
  <path
     class="cls-1"
     d="M68.52,58.2s5.67-6,10.42-3.88V76.26L76.8,78.2s-4.41-.75-6.14-2.27S68.52,58.2,68.52,58.2Z"
     id="path1519" />
  <polygon
     class="cls-3"
     points="107.32 88.82 110.42 90.28 124.73 105.33 125.33 109.62 121.39 113.78 117.69 113.78 101.36 98.41 100.45 94.83 107.32 88.82"
     id="polygon1521"
     style="fill:#405162" />
  <path
     class="cls-4"
     d="M120.54,101.06a5.51,5.51,0,0,1-7.75,7.75L99,95l7.7-7.7Z"
     id="path1523"
     style="fill:#5f7993" />
  <path
     class="cls-5"
     d="M80.64,93.09A27,27,0,0,0,77.8,39.21a27.54,27.54,0,0,0-4.57.39,27.37,27.37,0,0,0,7.41,53.49ZM60.1,66.22A17.71,17.71,0,1,1,77.8,83.93,17.7,17.7,0,0,1,60.1,66.22Z"
     id="path1525"
     style="fill:#17b5c8" />
  <path
     class="cls-6"
     d="M74.23,39.6a27.37,27.37,0,0,0,7.41,53.49,26.59,26.59,0,0,1-2.84.15A27,27,0,0,1,74.23,39.6Z"
     id="path1527"
     style="fill:#11778e" />
  <path
     d="M77.84,85.42a19.2,19.2,0,1,1,0-38.39A18.94,18.94,0,0,1,87,49.37a1.72,1.72,0,0,1,.67,2.34,1.73,1.73,0,0,1-1.51.89,1.67,1.67,0,0,1-.84-.22,15.49,15.49,0,0,0-7.48-1.93A15.78,15.78,0,0,0,64.66,74.9a15.75,15.75,0,0,0,27-16.2,1.73,1.73,0,0,1,.68-2.34,1.64,1.64,0,0,1,.83-.22,1.72,1.72,0,0,1,1.51.89c.08.15.22.41.36.69a19.25,19.25,0,0,1-3.64,22.09A19,19,0,0,1,77.84,85.42Z"
     id="path1529" />
  <path
     d="M119.14,115.73a8.13,8.13,0,0,1-5.78-2.39L100,99.94a5.15,5.15,0,0,1-1.17-5.46l-4.11-4.11A29.45,29.45,0,1,1,102,83.1l4.11,4.11a5.22,5.22,0,0,1,1.84-.34,5.11,5.11,0,0,1,3.63,1.51l13.39,13.39a8.18,8.18,0,0,1-5.78,14ZM107.89,91.07a.92.92,0,0,0-.66.28l-4.3,4.3a.94.94,0,0,0,0,1.32l13.4,13.4a4,4,0,1,0,5.62-5.63L108.56,91.35A.93.93,0,0,0,107.89,91.07ZM77.81,41a25.24,25.24,0,1,0,17.86,7.38A25.07,25.07,0,0,0,77.81,41Zm23.64,50.2,1.33-1.33-3.49-3.48-.65.67L98,87.7Z"
     id="path1531" />
  <path
     d="M90.17,55.59a1.73,1.73,0,0,1,0-3.45,1.71,1.71,0,0,1,1.22.51,1.69,1.69,0,0,1,.5,1.24,1.73,1.73,0,0,1-.53,1.22A1.69,1.69,0,0,1,90.17,55.59Z"
     id="path1533" />
  <path
     d="M35.09,68.87a2.15,2.15,0,1,0,0-4.29H27.75a2.15,2.15,0,1,0,0,4.29Z"
     id="path1535" />
  <path
     d="M66.37,61.89v8.34a12.2,12.2,0,0,0,4.29,5.7V56.2A12.17,12.17,0,0,0,66.37,61.89Z"
     id="path1537" />
  <path
     d="M66.37,103.59H47.25V77.8a32.7,32.7,0,0,1,0-23.48V21H66.37V35.38a32.6,32.6,0,0,1,4.29-1.27V18.82a2.15,2.15,0,0,0-2.15-2.15H47.25V10.54H76.8v22.8l1,0c1.11,0,2.2.06,3.28.16V8.39a2.15,2.15,0,0,0-2.15-2.15H47.25V2.15A2.16,2.16,0,0,0,46.41.44,2.19,2.19,0,0,0,44.54.07L1.6,11.53A2.14,2.14,0,0,0,0,13.6v6.94a2.15,2.15,0,1,0,4.3,0V15.25L43,5V119.78L4.3,112.05V27.79a2.15,2.15,0,0,0-4.3,0v86a2.14,2.14,0,0,0,1.73,2.1l43,8.59a2,2,0,0,0,.42,0,2.19,2.19,0,0,0,1.36-.48,2.15,2.15,0,0,0,.79-1.66v-4.09h19.8a2.15,2.15,0,0,0,0-4.3H47.25v-6.13H68.51a2.15,2.15,0,0,0,2.15-2.15V98a31.15,31.15,0,0,1-4.29-1.27Z"
     id="path1539" />
  <path
     d="M76.8,98.78V114H73.73a2.15,2.15,0,1,0,0,4.29h5.21a2.14,2.14,0,0,0,2.15-2.14V98.64a32.3,32.3,0,0,1-3.28.17C77.47,98.81,77.13,98.79,76.8,98.78Z"
     id="path1541" />
  <path
     d="M76.8,53.92V78.2c.33,0,.67.06,1,.06a12.2,12.2,0,0,0,3.28-.46V54.33a12.2,12.2,0,0,0-3.28-.46C77.47,53.87,77.13,53.89,76.8,53.92Z"
     id="path1543" />
  <path
     d="M45.07,66.06A32.65,32.65,0,0,0,47.25,77.8V54.32A32.69,32.69,0,0,0,45.07,66.06Z"
     id="path1545" />
</svg>
