<svg id="Capa_1" data-name="Capa 1" xmlns="http://www.w3.org/2000/svg" viewBox="0 0 126.6 85.36"><defs><style>.cls-1{fill:#3a5368;}.cls-2{fill:#5f7993;}.cls-3{fill:#a6d100;}.cls-4{fill:#6cab00;}.cls-5{fill:#02809d;}.cls-6{fill:#17b5c8;}</style></defs><path class="cls-1" d="M115.39,1.81c-1.11.39-45.86,1-45.86,1H8.28L1.46,10.77V77.26l9.22,6H116.42l7.38-7V8.55S116.5,1.41,115.39,1.81Zm-59,64.34H12.89V17.68H56.36Z"/><path class="cls-2" d="M100.6,3.15H4.16V81.94H100.6a9.09,9.09,0,0,0,9.09-9.09V12.24A9.09,9.09,0,0,0,100.6,3.15Zm-44.24,63H12.89V17.68H56.36Z"/><polygon class="cls-3" points="23.55 62.21 45.91 62.21 42.24 50.99 29.07 48.69 21.89 57.69 23.55 62.21"/><path class="cls-4" d="M40.9,62.21s.28-7.71-6.17-11.09l6.17-.36,5,8.25v3.2Z"/><circle class="cls-5" cx="34.73" cy="37.61" r="9.51"/><circle class="cls-6" cx="31.4" cy="37.61" r="9.51"/><path d="M11.41,85.36A11.42,11.42,0,0,1,0,74V11.41A11.42,11.42,0,0,1,11.41,0H115.19A11.42,11.42,0,0,1,126.6,11.41V74a11.42,11.42,0,0,1-11.41,11.41Zm0-80.5a6.56,6.56,0,0,0-6.55,6.55V74a6.56,6.56,0,0,0,6.55,6.55H115.19A6.56,6.56,0,0,0,121.74,74V11.41a6.56,6.56,0,0,0-6.55-6.55Z"/><path d="M13.11,69a2.43,2.43,0,0,1-2.43-2.43V29.26a2.44,2.44,0,0,1,4.87,0V64.1H53.91V19.77H15.55v2a2.44,2.44,0,0,1-4.87,0V17.34a2.43,2.43,0,0,1,2.43-2.43H56.34a2.44,2.44,0,0,1,2.44,2.43V66.53A2.44,2.44,0,0,1,56.34,69Z"/><path d="M67.28,24.09a2.43,2.43,0,0,1,0-4.86H114a2.43,2.43,0,1,1,0,4.86Z"/><path d="M103.55,37.61a2.43,2.43,0,1,1,0-4.86H114a2.43,2.43,0,1,1,0,4.86Z"/><path d="M67.28,37.61a2.43,2.43,0,0,1,0-4.86H96.1a2.43,2.43,0,1,1,0,4.86Z"/><path d="M67.28,51.12a2.43,2.43,0,0,1,0-4.86H114a2.43,2.43,0,1,1,0,4.86Z"/><path d="M67.28,64.64a2.43,2.43,0,0,1,0-4.86H92.62a2.43,2.43,0,0,1,0,4.86Z"/><path d="M45.91,63a2.43,2.43,0,0,1-2.43-2.43,8.75,8.75,0,0,0-17.5,0,2.43,2.43,0,0,1-4.86,0A13.69,13.69,0,0,1,27,49.39a13.61,13.61,0,1,1,15.5,0,13.69,13.69,0,0,1,5.86,11.18A2.43,2.43,0,0,1,45.91,63ZM34.73,29.46a8.75,8.75,0,1,0,8.75,8.75A8.76,8.76,0,0,0,34.73,29.46Z"/></svg>