<?xml version="1.0" encoding="UTF-8" standalone="no"?>
<svg
   xmlns:dc="http://purl.org/dc/elements/1.1/"
   xmlns:cc="http://creativecommons.org/ns#"
   xmlns:rdf="http://www.w3.org/1999/02/22-rdf-syntax-ns#"
   xmlns:svg="http://www.w3.org/2000/svg"
   xmlns="http://www.w3.org/2000/svg"
   xmlns:sodipodi="http://sodipodi.sourceforge.net/DTD/sodipodi-0.dtd"
   xmlns:inkscape="http://www.inkscape.org/namespaces/inkscape"
   id="Capa_1"
   data-name="Capa 1"
   viewBox="0 0 125.64 108.46"
   version="1.1"
   sodipodi:docname="applications.svg"
   inkscape:version="0.92.5 (2060ec1f9f, 2020-04-08)">
  <metadata
     id="metadata6328">
    <rdf:RDF>
      <cc:Work
         rdf:about="">
        <dc:format>image/svg+xml</dc:format>
        <dc:type
           rdf:resource="http://purl.org/dc/dcmitype/StillImage" />
      </cc:Work>
    </rdf:RDF>
  </metadata>
  <sodipodi:namedview
     pagecolor="#ffffff"
     bordercolor="#666666"
     borderopacity="1"
     objecttolerance="10"
     gridtolerance="10"
     guidetolerance="10"
     inkscape:pageopacity="0"
     inkscape:pageshadow="2"
     inkscape:window-width="1920"
     inkscape:window-height="1016"
     id="namedview6326"
     showgrid="false"
     inkscape:zoom="6.1544238"
     inkscape:cx="62.82"
     inkscape:cy="54.23"
     inkscape:window-x="0"
     inkscape:window-y="27"
     inkscape:window-maximized="1"
     inkscape:current-layer="Capa_1" />
  <defs
     id="defs6267">
    <style
       id="style6265">.cls-1{fill:#5f7993;}.cls-2{fill:#3a5368;}.cls-3{fill:#a6d100;}.cls-4{fill:#6cab00;}.cls-5{fill:#17b5c8;}.cls-6{fill:#02809d;}.cls-7{fill:none;}</style>
  </defs>
  <rect
     style="opacity:1;fill:#ffffff;fill-opacity:1;fill-rule:nonzero;stroke:none;stroke-width:21.07036781;stroke-linecap:round;stroke-linejoin:round;stroke-miterlimit:4;stroke-dasharray:none;stroke-dashoffset:0;stroke-opacity:1"
     id="rect6115"
     width="122.02913"
     height="62.141769"
     x="2.2308707"
     y="8.8582287" />
  <polygon
     class="cls-1"
     points="52.57 87.21 75.15 87.21 77.93 100.61 83.9 106.8 43.82 106.8 47.71 100.61 52.57 87.21"
     id="polygon6269" />
  <path
     class="cls-2"
     d="M51.16,93.27S70.07,89.6,73.74,106H83.9l-6-3.15L75.15,87.21l-24-.31Z"
     id="path6271" />
  <path
     class="cls-3"
     d="M.92,71H124.26s-.28,18.86-9,15.92L7.69,87.21.92,81.42Z"
     id="path6273" />
  <path
     class="cls-4"
     d="M102.32,71s.77,16.23-27.17,16.23h41.49l7.62-4.95V71Z"
     id="path6275" />
  <path
     class="cls-5"
     d="M14.21,27.87H52.94l4.24,6.31-1.27,4.61L51.6,40.36H13.92S10.3,37.28,10.24,37s-.93-5.37-.93-5.37Z"
     id="path6277" />
  <path
     class="cls-6"
     d="M13.28,34.12a5.48,5.48,0,0,1,4.14-5.32,5.5,5.5,0,1,0,0,10.63A5.48,5.48,0,0,1,13.28,34.12Z"
     id="path6279" />
  <path
     class="cls-6"
     d="M53.08,34.12A5.48,5.48,0,0,1,49,39.43a5.43,5.43,0,0,0,1.35.18,5.49,5.49,0,1,0,0-11A5.43,5.43,0,0,0,49,28.8,5.49,5.49,0,0,1,53.08,34.12Z"
     id="path6281" />
  <path
     class="cls-7"
     d="M25.92,29.21H15.73a5,5,0,0,0,0,10.1H50.86a5.05,5.05,0,1,0,0-10.1H40.67l-.22,0H26.14Z"
     id="path6283" />
  <path
     d="M44.11,41.77H23.63l-7.89,0a7.53,7.53,0,1,1,0-15.06H50.86a7.53,7.53,0,1,1,0,15.06ZM50.86,39a4.7,4.7,0,0,0,0-9.39H40.67l-.25,0H26.18l-.26,0H15.73a4.7,4.7,0,0,0,0,9.39H50.86Z"
     id="path6285" />
  <path
     class="cls-5"
     d="M14.21,46.25H52.94l4.24,6.31-1.27,4.61L51.6,58.74H13.92s-3.62-3.08-3.68-3.32-.93-5.37-.93-5.37Z"
     id="path6287" />
  <path
     class="cls-6"
     d="M13.28,52.5a5.48,5.48,0,0,1,4.14-5.32,5.49,5.49,0,1,0,0,10.63A5.48,5.48,0,0,1,13.28,52.5Z"
     id="path6289" />
  <path
     class="cls-6"
     d="M53.08,52.5A5.48,5.48,0,0,1,49,57.81,5.43,5.43,0,0,0,50.3,58a5.49,5.49,0,1,0,0-11,5.43,5.43,0,0,0-1.35.17A5.49,5.49,0,0,1,53.08,52.5Z"
     id="path6291" />
  <path
     class="cls-7"
     d="M25.92,47.59H15.73a5,5,0,0,0,0,10.1H50.86a5,5,0,0,0,0-10.1H40.67l-.22,0H26.14Z"
     id="path6293" />
  <path
     d="M44.11,60.15H23.63l-7.89,0a7.53,7.53,0,1,1,0-15.06H50.86a7.53,7.53,0,0,1,0,15.06Zm6.75-2.81a4.7,4.7,0,0,0,0-9.39H40.67l-.25,0H26.18l-.26,0H15.73a4.7,4.7,0,0,0,0,9.39H50.86Z"
     id="path6295" />
  <circle
     cx="19.26"
     cy="34.26"
     r="1.84"
     id="circle6297" />
  <circle
     cx="19.26"
     cy="52.64"
     r="1.84"
     id="circle6299" />
  <circle
     cx="25.74"
     cy="52.64"
     r="1.84"
     id="circle6301" />
  <path
     class="cls-1"
     d="M69.87,27.87H108.6l4.23,6.31-1.26,4.61-4.31,1.57H69.58S66,37.28,65.9,37,65,31.67,65,31.67Z"
     id="path6303" />
  <path
     class="cls-2"
     d="M68.94,34.12a5.48,5.48,0,0,1,4.14-5.32,5.57,5.57,0,0,0-1.36-.17,5.49,5.49,0,1,0,0,11,5.57,5.57,0,0,0,1.36-.18A5.48,5.48,0,0,1,68.94,34.12Z"
     id="path6305" />
  <path
     class="cls-2"
     d="M108.74,34.12a5.48,5.48,0,0,1-4.13,5.31,5.43,5.43,0,0,0,1.35.18,5.49,5.49,0,1,0,0-11,5.43,5.43,0,0,0-1.35.17A5.49,5.49,0,0,1,108.74,34.12Z"
     id="path6307" />
  <path
     class="cls-7"
     d="M81.58,29.21H71.39a5,5,0,1,0,0,10.1h35.13a5,5,0,0,0,0-10.1H96.33l-.22,0H81.8Z"
     id="path6309" />
  <path
     d="M99.77,41.77H79.29l-7.9,0a7.53,7.53,0,0,1,0-15.06h35.13a7.53,7.53,0,1,1,0,15.06ZM106.52,39a4.7,4.7,0,0,0,0-9.39H96.33l-.26,0H81.83l-.25,0H71.39a4.7,4.7,0,0,0,0,9.39h35.13Z"
     id="path6311" />
  <path
     class="cls-1"
     d="M69.87,46.25H108.6l4.23,6.31-1.26,4.61-4.31,1.57H69.58S66,55.66,65.9,55.42,65,50.05,65,50.05Z"
     id="path6313" />
  <path
     class="cls-2"
     d="M68.94,52.5a5.48,5.48,0,0,1,4.14-5.32A5.57,5.57,0,0,0,71.72,47a5.49,5.49,0,1,0,0,11,5.57,5.57,0,0,0,1.36-.17A5.48,5.48,0,0,1,68.94,52.5Z"
     id="path6315" />
  <path
     class="cls-2"
     d="M108.74,52.5a5.48,5.48,0,0,1-4.13,5.31A5.43,5.43,0,0,0,106,58a5.49,5.49,0,1,0,0-11,5.43,5.43,0,0,0-1.35.17A5.49,5.49,0,0,1,108.74,52.5Z"
     id="path6317" />
  <path
     class="cls-7"
     d="M81.58,47.59H71.39a5,5,0,0,0,0,10.1h35.13a5,5,0,0,0,0-10.1H96.33l-.22,0H81.8Z"
     id="path6319" />
  <path
     d="M99.77,60.15H79.29l-7.9,0a7.53,7.53,0,0,1,0-15.06h35.13a7.53,7.53,0,0,1,0,15.06Zm6.75-2.81a4.7,4.7,0,0,0,0-9.39H96.33l-.26,0H81.83l-.25,0H71.39a4.7,4.7,0,0,0,0,9.39h35.13Z"
     id="path6321" />
  <path
     d="M116.44,0H9.2A9.21,9.21,0,0,0,0,9.2V79.63a9.21,9.21,0,0,0,9.2,9.2H49.42L46.87,99a8.09,8.09,0,0,1-7.36,5.75H24.78a1.84,1.84,0,0,0,0,3.68h76.07a1.84,1.84,0,0,0,0-3.68H86.13A8.09,8.09,0,0,1,78.77,99l-2.55-10.2h40.22a9.21,9.21,0,0,0,9.2-9.2V9.2A9.21,9.21,0,0,0,116.44,0ZM9.2,3.68H116.44a5.54,5.54,0,0,1,5.2,3.68H4A5.53,5.53,0,0,1,9.2,3.68Zm68.73,101.1H47.71a11,11,0,0,0,2.73-4.86l2.77-11.09H72.42L75.2,99.92A11,11,0,0,0,77.93,104.78Zm44-34.72H16.56a1.84,1.84,0,0,0,0,3.68H122v5.89a5.53,5.53,0,0,1-5.52,5.52H9.2a5.53,5.53,0,0,1-5.52-5.52V73.74H9.2a1.84,1.84,0,0,0,0-3.68H3.68V11H122Z"
     id="path6323" />
</svg>
