<svg id="Capa_1" data-name="Capa 1" xmlns="http://www.w3.org/2000/svg" viewBox="0 0 136.67 125.19"><defs><style>.cls-1{fill:#5f7993;}.cls-2{fill:#3a5368;}.cls-3{fill:none;}.cls-4{fill:#17b5c8;}.cls-5{fill:#02809d;}.cls-6{fill:#a6d100;}.cls-7{fill:#6cab00;}</style></defs><polygon class="cls-1" points="81.57 3.47 101.64 22.84 86.63 22.84 80.51 15.69 81.57 3.47"/><path class="cls-2" d="M81.57,3.47S81,21.62,101.64,22.84h-15l-5.06-5.23Z"/><path class="cls-3" d="M89.72,20.86H97.2L83.46,7.12v7.49A6.25,6.25,0,0,0,89.72,20.86Z"/><path class="cls-3" d="M60.51,91.8a2.09,2.09,0,1,1,0-4.17h1a33.62,33.62,0,0,1-5.27-8.34H48a2.09,2.09,0,1,1,0-4.18h6.68a33.77,33.77,0,0,1,.59-20.86H35.47a2.09,2.09,0,1,1,0-4.17H57.08a34,34,0,0,1,9-11,10.44,10.44,0,0,1-3.52-7.79V20.86H10.43a6.28,6.28,0,0,0-6.26,6.26v87.64A6.27,6.27,0,0,0,10.43,121H77.2a6.27,6.27,0,0,0,6.26-6.25V99.24A33.67,33.67,0,0,1,65.74,91.8ZM14.61,37.56h25a2.09,2.09,0,1,1,0,4.17h-25a2.09,2.09,0,1,1,0-4.17Zm0,12.52H27.12a2.09,2.09,0,1,1,0,4.17H14.61a2.09,2.09,0,1,1,0-4.17Zm0,12.51H48a2.09,2.09,0,0,1,0,4.18H14.61a2.09,2.09,0,0,1,0-4.18Zm0,12.52h25a2.09,2.09,0,0,1,0,4.18h-25a2.09,2.09,0,1,1,0-4.18Zm0,12.52H52.16a2.09,2.09,0,1,1,0,4.17H14.61a2.09,2.09,0,1,1,0-4.17Zm12.51,16.69H14.61a2.09,2.09,0,1,1,0-4.17H27.12a2.09,2.09,0,1,1,0,4.17Zm29.21,0H35.47a2.09,2.09,0,1,1,0-4.17H56.33a2.09,2.09,0,1,1,0,4.17Zm18.78-2.08A2.08,2.08,0,0,1,73,104.32H64.68a2.09,2.09,0,1,1,0-4.17H73A2.08,2.08,0,0,1,75.11,102.24Z"/><path class="cls-3" d="M75.68,65.6a11.47,11.47,0,0,0,7.78,10.85V54.75A11.47,11.47,0,0,0,75.68,65.6Z"/><path class="cls-4" d="M95.86,98.31a33.83,33.83,0,0,1-8.23,1.12v1.72h3.76A5,5,0,0,0,95.86,98.31Z"/><path class="cls-4" d="M96,72.85l-.2-14.74a11.44,11.44,0,0,0-8.2-4V77A11.43,11.43,0,0,0,96,72.85Z"/><path class="cls-4" d="M95.48,32.78,95.37,25H89.72A10.44,10.44,0,0,1,79.29,14.61V4.17H27.12a6.28,6.28,0,0,0-6.26,6.26v6.26H64.68a2.12,2.12,0,0,1,1.48.61l15,15a34,34,0,0,1,14.34.49Z"/><path class="cls-5" d="M98.62,65.6a11.44,11.44,0,0,0-2.79-7.49L96,72.85A11.4,11.4,0,0,0,98.62,65.6Z"/><path class="cls-5" d="M100.15,34.34V25H95.37l.11,7.74A33.23,33.23,0,0,1,100.15,34.34Z"/><path class="cls-5" d="M91.39,101.15H87.63v3.17h6.26a6.26,6.26,0,0,0,6.26-6.26V96.85a32.81,32.81,0,0,1-4.29,1.46A5,5,0,0,1,91.39,101.15Z"/><path class="cls-6" d="M72.14,35.26a32.36,32.36,0,0,1,4.3-1.77l-9.67-9.67v3.74A18,18,0,0,0,72.14,35.26Z"/><path class="cls-7" d="M66.77,27.56V31.3a6.24,6.24,0,0,0,2.93,5.29c.79-.48,1.61-.92,2.44-1.33A18,18,0,0,1,66.77,27.56Z"/><path d="M101.64,101.62l-4.44,3.79h0L95.34,107H85.52V99.4c-.69,0-1.38-.09-2.06-.16v15.52A6.27,6.27,0,0,1,77.2,121H10.43a6.27,6.27,0,0,1-6.26-6.25V27.12a6.28,6.28,0,0,1,6.26-6.26H62.59V31.3a10.44,10.44,0,0,0,3.52,7.79c.53-.42,1.07-.82,1.62-1.21L63.39,32.8l1.06-12.21,1,1v-.72c0,.17,0,.43,0,.75l12,11.58.91-.26L64.1,18.79l-45.37-.56,2.13-12,5.08-4.94L81.57,2.68V17.61l4,5.23h16.12v1h1l-.14,11.58c.63.33,1.26.67,1.87,1V23a2.08,2.08,0,0,0-.61-1.47L82.85.61A2.09,2.09,0,0,0,81.37,0H27.12A10.44,10.44,0,0,0,16.69,10.43v6.26H10.43A10.45,10.45,0,0,0,0,27.12v87.64a10.45,10.45,0,0,0,10.43,10.43H77.2a10.45,10.45,0,0,0,10.43-10.43V108.5h6.26a10.45,10.45,0,0,0,10.43-10.44v-3.3c-.85.5-1.72,1-2.62,1.4ZM83.46,7.12,97.2,20.86H89.72a6.25,6.25,0,0,1-6.26-6.25Z"/><path d="M83.46,54.75v21.7a12.62,12.62,0,0,0,2.06.49V54.26A10.85,10.85,0,0,0,83.46,54.75Z"/><path d="M87.15,54.13a11,11,0,0,0-1.63.13V76.94a12.5,12.5,0,0,0,1.63.12l.48,0V54.15Z"/><polygon points="95.34 106.99 97.2 105.41 85.52 106.99 95.34 106.99"/><path d="M66.16,17.3a2.12,2.12,0,0,0-1.48-.61H20.86V10.43a6.28,6.28,0,0,1,6.26-6.26H79.29V14.61A10.44,10.44,0,0,0,89.72,25h5.65V23.82h6.28v-1H85.52l-4-5.23V2.68L25.94,1.27,20.86,6.21l-2.13,12,45.37.56L78.38,32.9c.91-.24,1.83-.44,2.76-.61Z"/><path d="M87.63,99.43h-.48c-.55,0-1.09,0-1.63,0v1.75h2.11Z"/><path d="M101.64,23.82V35l.81.4.14-11.58Z"/><polygon points="97.2 105.41 101.64 101.62 97.2 105.41 97.2 105.41"/><path d="M101.64,101.62l.06-5.46-.06,0Z"/><path d="M100.15,96.85v1.21a6.26,6.26,0,0,1-6.26,6.26H87.63v-3.17H85.52V107l11.68-1.58,4.44-3.79V96.19C101.15,96.42,100.65,96.64,100.15,96.85Z"/><path d="M95.37,25h4.78v9.3c.5.21,1,.43,1.49.66V23.82H95.36Z"/><path d="M65.45,34.72V21.55l-1-1L63.39,32.8l4.34,5.08c.15-.11.3-.22.46-.32Z"/><path d="M66.77,23.82l9.67,9.67c.34-.12.69-.23,1-.33l-12-11.58a21.67,21.67,0,0,0,1.29,6Z"/><path d="M65.45,20.83v0Z"/><path d="M65.45,20.83v.72l0,0C65.46,21.26,65.45,21,65.45,20.83Z"/><path d="M68.19,37.56c.49-.34,1-.66,1.51-1a6.24,6.24,0,0,1-2.93-5.29V27.56a21.67,21.67,0,0,1-1.29-6l0,0V34.72Z"/><path d="M33.38,52.16a2.1,2.1,0,0,0,2.09,2.09H55.26a32.26,32.26,0,0,1,1.82-4.17H35.47A2.09,2.09,0,0,0,33.38,52.16Z"/><path d="M14.61,66.77H48a2.09,2.09,0,0,0,0-4.18H14.61a2.09,2.09,0,0,0,0,4.18Z"/><path d="M45.9,77.2A2.1,2.1,0,0,0,48,79.29H56.2a33.06,33.06,0,0,1-1.53-4.18H48A2.1,2.1,0,0,0,45.9,77.2Z"/><path d="M14.61,91.8H52.16a2.09,2.09,0,1,0,0-4.17H14.61a2.09,2.09,0,1,0,0,4.17Z"/><path d="M14.61,54.25H27.12a2.09,2.09,0,1,0,0-4.17H14.61a2.09,2.09,0,1,0,0,4.17Z"/><path d="M14.61,79.29h25a2.09,2.09,0,0,0,0-4.18h-25a2.09,2.09,0,1,0,0,4.18Z"/><path d="M58.42,89.72a2.08,2.08,0,0,0,2.09,2.08h5.23a33.65,33.65,0,0,1-4.27-4.17h-1A2.09,2.09,0,0,0,58.42,89.72Z"/><path d="M27.12,100.15H14.61a2.09,2.09,0,1,0,0,4.17H27.12a2.09,2.09,0,1,0,0-4.17Z"/><path d="M14.61,41.73h25a2.09,2.09,0,1,0,0-4.17h-25a2.09,2.09,0,1,0,0,4.17Z"/><path d="M56.33,100.15H35.47a2.09,2.09,0,1,0,0,4.17H56.33a2.09,2.09,0,1,0,0-4.17Z"/><path d="M64.68,100.15a2.09,2.09,0,1,0,0,4.17H73a2.09,2.09,0,0,0,0-4.17Z"/><path d="M65.74,91.8H73a2.09,2.09,0,0,0,0-4.17H61.47A33.65,33.65,0,0,0,65.74,91.8Z"/><polygon class="cls-2" points="116.67 88.21 119.77 89.66 134.08 104.71 134.68 109 130.74 113.17 127.05 113.17 110.71 97.79 109.8 94.22 116.67 88.21"/><path class="cls-1" d="M129.89,100.45a5.69,5.69,0,0,1,.06,6.83,5.75,5.75,0,0,1-7.81.91L108.33,94.38l7.7-7.7Z"/><path class="cls-4" d="M90,92.47a27,27,0,0,0-2.84-53.88,27.54,27.54,0,0,0-4.57.39A27.37,27.37,0,0,0,90,92.47ZM69.45,65.61a17.71,17.71,0,1,1,17.7,17.7A17.7,17.7,0,0,1,69.45,65.61Z"/><path class="cls-5" d="M83.58,39A27.37,27.37,0,0,0,91,92.47a26.59,26.59,0,0,1-2.84.15A27,27,0,0,1,83.58,39Z"/><path d="M87.19,84.81a19.2,19.2,0,1,1,0-38.4,18.91,18.91,0,0,1,9.16,2.34A1.73,1.73,0,0,1,95.52,52a1.78,1.78,0,0,1-.84-.22,15.36,15.36,0,0,0-7.48-1.94,15.94,15.94,0,0,0-11.46,4.93A15.75,15.75,0,1,0,101,58.08a1.73,1.73,0,0,1,.68-2.34,1.75,1.75,0,0,1,.83-.22,1.73,1.73,0,0,1,1.51.9c.08.14.22.41.36.68a19.24,19.24,0,0,1-3.64,22.09A19,19,0,0,1,87.19,84.81Z"/><path d="M128.49,115.12a8.1,8.1,0,0,1-5.78-2.4l-13.4-13.39a5.14,5.14,0,0,1-1.16-5.47L104,89.75a29.45,29.45,0,0,1-37.7-3.32,29.45,29.45,0,1,1,45-3.94l4.11,4.1a5.25,5.25,0,0,1,1.84-.33,5.1,5.1,0,0,1,3.63,1.5l13.39,13.4a8.18,8.18,0,0,1-5.78,14ZM117.24,90.46a.91.91,0,0,0-.66.27l-4.3,4.3a1,1,0,0,0-.27.66,1,1,0,0,0,.27.67l13.4,13.39a4,4,0,1,0,5.62-5.62l-13.39-13.4A1,1,0,0,0,117.24,90.46ZM87.16,40.38A25.24,25.24,0,1,0,105,47.76,25.07,25.07,0,0,0,87.16,40.38Zm23.64,50.2,1.33-1.33-3.49-3.49-.65.67c-.22.23-.45.44-.68.66Z"/><path d="M99.52,55a1.71,1.71,0,0,1-1.22-.51,1.72,1.72,0,0,1,1.22-2.94,1.72,1.72,0,0,1,1.22.5,1.69,1.69,0,0,1,.5,1.24A1.71,1.71,0,0,1,99.52,55Z"/></svg>