<svg id="Capa_1" data-name="Capa 1" xmlns="http://www.w3.org/2000/svg" viewBox="0 0 96.67 122.51"><defs><style>.cls-1{fill:#a6d100;}.cls-2{fill:#6cab00;}.cls-3{fill:#02809d;}.cls-4{fill:#17b5c8;}</style></defs><path class="cls-1" d="M19.71,47.48,22,19.31S34.07,2.94,48.34,2.94s25.3,13.65,25.3,13.65S77.48,48.76,77,48.76H67.56L67.4,26.83,56,13.23l-2.17-.6a12.47,12.47,0,0,0-10.68,0L30.75,21.07,29.47,48.76Z"/><rect class="cls-2" x="19.71" y="43.39" width="9.92" height="4.57"/><rect class="cls-2" x="67.12" y="43.39" width="9.92" height="4.57"/><path class="cls-3" d="M13.17,109.16V59.1A10.29,10.29,0,0,1,23.45,48.81H3.14v70.63H23.45A10.28,10.28,0,0,1,13.17,109.16Z"/><path class="cls-4" d="M23.45,48.81A10.29,10.29,0,0,0,13.17,59.1v50.06a10.28,10.28,0,0,0,10.28,10.28H93.57V48.81ZM56.52,99.53a2.41,2.41,0,0,1-.6,1.85,2.38,2.38,0,0,1-1.78.79H42.7a2.38,2.38,0,0,1-1.78-.79,2.41,2.41,0,0,1-.6-1.85l1.59-15a10,10,0,1,1,16.47-7.72,10,10,0,0,1-3.46,7.59Z"/><path d="M48.6,9.57h-.26a2.4,2.4,0,1,0,0,4.79h.24a2.4,2.4,0,0,0,0-4.79Z"/><path d="M89.49,46.42H79.2V30.87a30.87,30.87,0,1,0-61.73,0V46.42H7.18A7.19,7.19,0,0,0,0,53.6v61.73a7.19,7.19,0,0,0,7.18,7.18H89.49a7.19,7.19,0,0,0,7.18-7.18V53.6A7.19,7.19,0,0,0,89.49,46.42Zm2.39,68.91a2.4,2.4,0,0,1-2.39,2.4H7.18a2.4,2.4,0,0,1-2.39-2.4V53.6a2.39,2.39,0,0,1,2.39-2.39H40.44a2.4,2.4,0,0,0,0-4.79H31.82V30.87a16.49,16.49,0,0,1,10.1-15.21,2.4,2.4,0,0,0-1.87-4.41A21.29,21.29,0,0,0,27,30.87V46.42H22.25V30.87a26.09,26.09,0,0,1,52.17,0V46.42H69.63V30.87A21.32,21.32,0,0,0,57,11.43a2.39,2.39,0,0,0-2,4.36,16.57,16.57,0,0,1,9.78,15.08V46.42H57.07a2.4,2.4,0,0,0,0,4.79H89.49a2.39,2.39,0,0,1,2.39,2.39Z"/><path d="M48.69,46.42h-.06a2.4,2.4,0,0,0,0,4.79h.06a2.4,2.4,0,1,0,0-4.79Z"/><path d="M54.92,84.4a10,10,0,1,0-13,.13l-1.59,15a2.41,2.41,0,0,0,.6,1.85,2.38,2.38,0,0,0,1.78.79H54.14a2.38,2.38,0,0,0,1.78-.79,2.41,2.41,0,0,0,.6-1.85Zm-3.8-3.13A2.39,2.39,0,0,0,50,83.55l1.46,13.84H45.36l1.45-13.74a2.39,2.39,0,0,0-1.15-2.31,5.27,5.27,0,1,1,5.46-.07Z"/></svg>