<svg id="Capa_1" data-name="Capa 1" xmlns="http://www.w3.org/2000/svg" viewBox="0 0 94.22 118.24"><defs><style>.cls-1{fill:#a6d100;}.cls-2{fill:#6cab00;}</style></defs><path class="cls-1" d="M75.75,12.86S59.24-.13,41.33,2.2,8.81,23.25,8.81,23.25,2.93,32.69,2.53,43.46s0,35.28,0,35.28,4.05,23.16,25.55,32.49a48.31,48.31,0,0,0,40-.81S89.54,98.52,91,79.22s0-45.47,0-45.47Z"/><path class="cls-2" d="M52,51.19s-1.07-5-4.84-3c-2.36,1.25-1,3.58-1.38,14.85S45,95.9,30,103.67L36.4,92.79l4.93-17.06L41,47.79l7-4.33,5.72,3.93Z"/><path class="cls-2" d="M66.85,52.74S59.06,32.68,46.77,35.19,31.94,46.32,31.53,49.37,35.3,89,20.33,95.14l3.9-9.06s3.65-17.65,3.85-18.26-.87-23.52-.87-23.52L41.33,30.94H55.6l10.18,7.68,3.07,11.56Z"/><path class="cls-2" d="M78,41.82S67.15,19.75,47.92,21.38c-17.63,1.48-23.74,8.35-27.41,17.8a18.05,18.05,0,0,0-1.13,5.14c-.59,7.91-2.62,31.95-5.29,34.9,0,0-.81-32.49,0-33.3S22,28.22,22,28.22s6.49-8.47,14.6-10.09,22.53-1.22,25.87,1.22S79.81,38,79.81,39.63,78,41.82,78,41.82Z"/><path d="M47.11,118.24A47.16,47.16,0,0,1,0,71.13v-24A47.11,47.11,0,0,1,47,0c.7,0,1.4,0,2.1.05a2.21,2.21,0,0,1,1.57.73,2.19,2.19,0,0,1,.59,1.62A2.25,2.25,0,0,1,49,4.56h-.1c-.64,0-1.27,0-1.9,0A42.62,42.62,0,0,0,4.51,47.12v24a42.6,42.6,0,0,0,85.2,0v-24a42.61,42.61,0,0,0-20.13-36.2,2.24,2.24,0,0,1-.72-3.11,2.25,2.25,0,0,1,1.92-1.06A2.16,2.16,0,0,1,72,7.09a47.09,47.09,0,0,1,22.26,40v24a47.12,47.12,0,0,1-47.11,47.11Z"/><path d="M42.5,109.57a2.26,2.26,0,0,1-1.72-3.72A47.47,47.47,0,0,0,51.12,83.92a2.25,2.25,0,0,1,2.22-1.84,2,2,0,0,1,.42,0,2.21,2.21,0,0,1,1.44.94,2.25,2.25,0,0,1,.36,1.69,52,52,0,0,1-11.34,24A2.28,2.28,0,0,1,42.5,109.57Z"/><path d="M28.45,104.25a2.25,2.25,0,0,1-1.52-3.92,35.62,35.62,0,0,0,12-26.87V49.81a8.79,8.79,0,0,1,17.57,0V74.94a2.26,2.26,0,0,1-4.52,0V49.81a4.27,4.27,0,1,0-8.54,0V73.46A40,40,0,0,1,30,103.67,2.3,2.3,0,0,1,28.45,104.25Z"/><path d="M80.16,43.46A2.25,2.25,0,0,1,78,41.82,31.7,31.7,0,0,0,47.56,18.75a31.09,31.09,0,0,0-14.08,3.32,2.37,2.37,0,0,1-1,.23,2.23,2.23,0,0,1-2-1.24,2.26,2.26,0,0,1-.12-1.73A2.23,2.23,0,0,1,31.46,18a35.64,35.64,0,0,1,16.1-3.8A36.24,36.24,0,0,1,82.33,40.6a2.25,2.25,0,0,1-1.56,2.78A2.09,2.09,0,0,1,80.16,43.46Z"/><path d="M12.08,83.1a2.27,2.27,0,0,1-2.2-1.76,2.25,2.25,0,0,1,.29-1.7,8,8,0,0,0,1.29-4.32v-25a36.18,36.18,0,0,1,11.6-26.49,2.21,2.21,0,0,1,1.53-.6,2.25,2.25,0,0,1,1.53,3.91A31.69,31.69,0,0,0,16,50.34v25A12.45,12.45,0,0,1,14,82,2.23,2.23,0,0,1,12.08,83.1Z"/><path d="M60.34,107.3a2.26,2.26,0,0,1-1-.26,2.25,2.25,0,0,1-1-3,65.84,65.84,0,0,0,7.44-30.38,2.26,2.26,0,1,1,4.51,0,70.37,70.37,0,0,1-8,32.46A2.24,2.24,0,0,1,60.34,107.3Z"/><path d="M18.81,95.74A2.23,2.23,0,0,1,17.15,95a2.26,2.26,0,0,1,.12-3.19,23,23,0,0,0,7-11.73,29.82,29.82,0,0,0,.54-6.72V50.46a23.19,23.19,0,0,1,3.26-11.84,23,23,0,0,1,19.57-11,22.49,22.49,0,0,1,5.59.71,22.87,22.87,0,0,1,17,21.09c0,.65,0,1.82,0,1.95a2.26,2.26,0,0,1-4.51,0c0-.33,0-1.28,0-1.74A18.22,18.22,0,0,0,32,41a18.71,18.71,0,0,0-2.6,9.53c0,1.2,0,2.41,0,3.61V73.37a33.31,33.31,0,0,1-.66,7.73,27.57,27.57,0,0,1-8.36,14A2.26,2.26,0,0,1,18.81,95.74Z"/><path d="M68,64.76a2.21,2.21,0,0,1-1.25-.37A2.25,2.25,0,0,1,68,60.26h.12a2.26,2.26,0,0,1,1.22,4.07,2.33,2.33,0,0,1-1.35.43Z"/><path d="M60.21,6.71a2.24,2.24,0,0,1-2.09-3.08,2.28,2.28,0,0,1,2.1-1.43h.12A2.3,2.3,0,0,1,62.4,3.88a2.25,2.25,0,0,1-2.19,2.83Z"/></svg>