<svg id="Capa_1" data-name="Capa 1" xmlns="http://www.w3.org/2000/svg" viewBox="0 0 124.31 125.31"><defs><style>.cls-1{fill:#a6d100;}.cls-2{fill:#6cab00;}.cls-3{fill:#17b5c8;}.cls-4{fill:#02809d;}.cls-5{fill:#5f7993;}.cls-6{fill:#3a5368;}</style></defs><polygon class="cls-1" points="63.02 69.19 63.02 123.11 107.56 97.66 106.86 64.25 96.17 69.74 91.44 72.16 77.33 80.69 63.02 66.19 63.02 69.19"/><path class="cls-2" d="M62.84,75.68l11.07,9.77a4.77,4.77,0,0,0,5.65.77l27.29-15.08V64.25L96.17,69.74l-4,2.05-14.82,8.9L63,69.2Z"/><polygon class="cls-3" points="17.59 66.19 17.59 97.66 62.15 122.4 62.15 66.9 47.46 79.63 17.59 66.19"/><path class="cls-4" d="M17.76,72,45,86.37a5.27,5.27,0,0,0,6-.81l10.34-9.65V67.53l-14,12.09L17.59,66.19Z"/><polygon class="cls-5" points="19.98 40.73 63.02 17.05 107.56 42.33 63.02 66.19 19.98 40.73"/><path class="cls-6" d="M27.31,46l32.4-18.08a6.78,6.78,0,0,1,6.62,0L98.72,46,63,66.19Z"/><path d="M62.15,125.31H61.9l-.24,0-.25-.07a2.39,2.39,0,0,1-.3-.13l-45-24.34-.2-.11-.16-.13-.1-.09-.15-.15-.12-.16-.11-.16,0-.09a.88.88,0,0,1-.09-.19l-.07-.21L15,99.21l0-.1a2.09,2.09,0,0,1,0-.31V66.06L1.13,58.56a2.15,2.15,0,0,1-.5-3.42L14.07,41.59.63,28a2.15,2.15,0,0,1,.51-3.42l24.06-13a2.22,2.22,0,0,1,1-.26,2.16,2.16,0,0,1,1.91,1.13,2.2,2.2,0,0,1,.17,1.65,2.18,2.18,0,0,1-1,1.29L5.74,27,17.52,38.91,58.57,16.72,46.69,4.84l-13,7.05A2.16,2.16,0,0,1,30.75,11a2.11,2.11,0,0,1-.17-1.65,2.15,2.15,0,0,1,1-1.29L46,.26a2.23,2.23,0,0,1,1-.26,2.15,2.15,0,0,1,1.53.64L62.15,14.18,75.7.64A2.16,2.16,0,0,1,78.26.26l44.91,24.35a2.15,2.15,0,0,1,1.11,1.58,2.19,2.19,0,0,1-.6,1.85L110.24,41.58l13.44,13.55a2.18,2.18,0,0,1-.51,3.44l-13.82,7.49V98.8a1.55,1.55,0,0,1,0,.22,1.9,1.9,0,0,0,0,.21l0,.13c0,.12,0,.16-.07.21s-.06.14-.08.18l-.09.17-.1.15-.08.11-.14.15-.15.14-.11.08a1.55,1.55,0,0,1-.25.16l-45,24.34a1.33,1.33,0,0,1-.24.11l-.23.08-.25.05A2.07,2.07,0,0,1,62.15,125.31Zm2.17-5.8,40.7-22V68.4l-5.91,3.21a2.23,2.23,0,0,1-1,.26,2.16,2.16,0,0,1-1.9-1.13A2.18,2.18,0,0,1,97,67.8l21.53-11.67L106.79,44.26,65.74,66.45,77.62,78.33l13-7a2.18,2.18,0,0,1,2.94.87,2.18,2.18,0,0,1-.87,2.94L78.26,82.91a2.22,2.22,0,0,1-1,.26,2.15,2.15,0,0,1-1.53-.64L64.32,71.15Zm-4.33,0V71.15L48.61,82.53a2.17,2.17,0,0,1-1.53.64,2.23,2.23,0,0,1-1-.26L19.29,68.4V97.51ZM46.69,78.33,58.57,66.45l-41-22.19L5.74,56.13ZM62.15,63.46l40.48-21.88L62.15,19.71,21.68,41.59Zm44.64-24.55L118.57,27,77.62,4.84,65.74,16.72Z"/></svg>