<?xml version="1.0" encoding="UTF-8" standalone="no"?>
<svg
   xmlns:dc="http://purl.org/dc/elements/1.1/"
   xmlns:cc="http://creativecommons.org/ns#"
   xmlns:rdf="http://www.w3.org/1999/02/22-rdf-syntax-ns#"
   xmlns:svg="http://www.w3.org/2000/svg"
   xmlns="http://www.w3.org/2000/svg"
   xmlns:sodipodi="http://sodipodi.sourceforge.net/DTD/sodipodi-0.dtd"
   xmlns:inkscape="http://www.inkscape.org/namespaces/inkscape"
   id="Capa_1"
   data-name="Capa 1"
   viewBox="0 0 299.99999 200"
   version="1.1"
   sodipodi:docname="group-types.svg"
   width="300"
   height="200"
   inkscape:version="0.92.5 (2060ec1f9f, 2020-04-08)">
  <metadata
     id="metadata49">
    <rdf:RDF>
      <cc:Work
         rdf:about="">
        <dc:format>image/svg+xml</dc:format>
        <dc:type
           rdf:resource="http://purl.org/dc/dcmitype/StillImage" />
        <dc:title></dc:title>
      </cc:Work>
    </rdf:RDF>
  </metadata>
  <sodipodi:namedview
     pagecolor="#ffffff"
     bordercolor="#666666"
     borderopacity="1"
     objecttolerance="10"
     gridtolerance="10"
     guidetolerance="10"
     inkscape:pageopacity="0"
     inkscape:pageshadow="2"
     inkscape:window-width="1294"
     inkscape:window-height="748"
     id="namedview47"
     showgrid="false"
     inkscape:zoom="1.1449641"
     inkscape:cx="63.025002"
     inkscape:cy="51.529999"
     inkscape:window-x="0"
     inkscape:window-y="27"
     inkscape:window-maximized="0"
     inkscape:current-layer="Capa_1" />
  <defs
     id="defs4">
    <style
       id="style2">.cls-1{fill:#02809d;}.cls-2{fill:#17b5c8;}</style>
    <style
       id="style4559">.cls-1{fill:#3a5368;}.cls-2{fill:#5f7993;}</style>
    <style
       id="style4631">.cls-1{fill:#6cab00;}.cls-2{fill:#a6d100;}</style>
  </defs>
  <path
     class="cls-1"
     d="m 53.947899,22.621543 a 18.111844,16.994306 0 0 0 -2.552567,0.175435 18.05494,16.940913 0 0 1 0,33.561466 18.05494,16.940913 0 1 0 2.593213,-33.714018 z"
     id="path6"
     inkscape:connector-curvature="0"
     style="fill:#02809d;stroke-width:0.78744072" />
  <ellipse
     class="cls-2"
     cx="51.354687"
     cy="39.562466"
     rx="15.469857"
     ry="16.765478"
     id="ellipse8"
     style="fill:#17b5c8;stroke-width:0.78744072" />
  <path
     class="cls-2"
     d="m 42.282506,58.387387 -3.893884,-5.758842 c 0,0 -12.193791,3.9511 -19.209286,-2.67729 0,0 -9.7550326,7.047908 -13.0067099,13.012696 A 17.721643,16.628181 0 0 0 4.8475674,74.740974 l 18.8109546,7.902202 3.658137,-11.746515 7.66583,-8.672588 z"
     id="path10"
     inkscape:connector-curvature="0"
     style="fill:#17b5c8;stroke-width:0.78744072" />
  <path
     class="cls-1"
     d="m 21.447381,52.010709 c 0,0 -17.5509293,14.43143 -11.307709,24.621912 0,0 -6.3732874,-3.661251 -6.5033545,-4.035004 C 3.5062504,72.223864 7.2294213,60.240896 7.2294213,60.240896 L 17.602273,49.951255 Z"
     id="path12"
     inkscape:connector-curvature="0"
     style="fill:#02809d;stroke-width:0.78744072" />
  <path
     class="cls-2"
     d="m 66.027881,58.387387 3.926401,-5.758842 c 0,0 12.193792,3.9511 19.209286,-2.67729 0,0 9.755033,7.047908 13.006712,13.012696 a 13.388783,12.562667 0 0 1 0.47149,11.014263 L 84.659995,82.643176 81.001857,70.896661 73.344156,62.224073 Z"
     id="path14"
     inkscape:connector-curvature="0"
     style="fill:#17b5c8;stroke-width:0.78744072" />
  <path
     class="cls-1"
     d="m 86.131379,52.010709 c 0,0 16.738011,14.43143 10.48666,24.621912 0,0 6.381421,-3.661251 6.503351,-4.035004 0.12194,-0.373753 -3.593099,-12.356721 -3.593099,-12.356721 L 89.163568,49.951255 Z"
     id="path16"
     inkscape:connector-curvature="0"
     style="fill:#02809d;stroke-width:0.78744072" />
  <path
     class="cls-2"
     d="m 40.965576,58.539939 c 0,0 4.950679,5.110496 14.112281,5.110496 9.161602,0 10.950024,-5.263048 10.950024,-5.263048 a 25.948387,24.347318 0 0 1 14.973976,12.509274 c 4.934421,9.847241 3.178515,14.255997 3.178515,14.255997 L 63.394023,93.352334 H 43.1442 L 23.260192,84.511939 c 0,0 0.666594,-18.931719 17.705384,-25.972 z"
     id="path18"
     inkscape:connector-curvature="0"
     style="fill:#17b5c8;stroke-width:0.78744072" />
  <path
     class="cls-1"
     d="m 41.754108,56.419465 -7.316275,4.858785 c 0,0 7.088658,5.919022 20.501828,5.919022 13.41317,0 19.111735,-6.506348 19.111735,-6.506348 l -7.389437,-4.271459 c 0,0 -12.218179,10.976125 -24.907851,0 z"
     id="path20"
     inkscape:connector-curvature="0"
     style="fill:#02809d;stroke-width:0.78744072" />
  <path
     d="m 67.735012,55.153282 a 1.6258388,1.5255212 0 0 0 -1.837198,0.289849 c -3.609362,3.386657 -7.779638,5.171517 -12.063724,5.171517 -4.284085,0 -8.429974,-1.78486 -12.039336,-5.171517 A 1.6258388,1.5255212 0 0 0 40.01446,55.153282 32.321675,30.327361 0 0 0 21.528673,82.544017 v 0 a 1.6258388,1.5255212 0 0 0 0.536527,1.167023 47.344426,44.423177 0 0 0 63.578427,0 1.6258388,1.5255212 0 0 0 0.528398,-1.121258 v 0 A 32.297288,30.304478 0 0 0 67.735012,55.153282 Z M 53.83409,92.170055 A 44.003327,41.288231 0 0 1 24.772222,81.89567 29.094385,27.299202 0 0 1 40.380274,58.349249 c 4.064597,3.470561 8.67385,5.293559 13.470075,5.293559 4.796224,0 9.446123,-1.822998 13.486333,-5.293559 A 29.102515,27.306829 0 0 1 82.936606,81.89567 44.011456,41.295858 0 0 1 53.83409,92.170055 Z"
     id="path22"
     inkscape:connector-curvature="0"
     style="stroke-width:0.78744072" />
  <path
     d="m 100.6176,57.998379 a 28.232691,26.490675 0 0 0 -11.600357,-9.580273 1.6258388,1.5255212 0 0 0 -1.837198,0.297477 c -3.080964,2.883235 -6.625294,4.408756 -10.259044,4.408756 a 12.876643,12.082128 0 0 1 -5.787986,-1.327203 1.6258388,1.5255212 0 0 0 -1.446996,2.715428 16.079546,15.087404 0 0 0 7.234982,1.639935 17.372088,16.300194 0 0 0 11.689782,-4.530798 24.932238,23.393867 0 0 1 13.242457,20.022465 38.093403,35.742961 0 0 1 -13.762725,7.20046 1.6258388,1.5255212 0 0 0 0.471493,2.967141 1.6258388,1.5255212 0 0 0 0.479622,-0.06865 41.385727,38.832142 0 0 0 15.51863,-8.306464 1.6258388,1.5255212 0 0 0 0.5284,-1.121258 v 0 A 28.070107,26.338123 0 0 0 100.6176,57.998379 Z"
     id="path24"
     inkscape:connector-curvature="0"
     style="stroke-width:0.78744072" />
  <path
     d="M 15.765075,77.448774 A 37.817011,35.483623 0 0 1 5.8718459,71.583146 24.850946,23.317591 0 0 1 19.057398,51.621701 a 17.363958,16.292566 0 0 0 11.665394,4.52317 16.006383,15.018756 0 0 0 7.316274,-1.678073 1.6258388,1.5255212 0 0 0 -1.463255,-2.700173 12.795351,12.005852 0 0 1 -5.820503,1.342459 c -3.62562,0 -7.161819,-1.525521 -10.234655,-4.393501 A 1.6258388,1.5255212 0 0 0 18.683455,48.418106 28.118882,26.383889 0 0 0 2.6201683,72.26963 v 0 a 1.6258388,1.5255212 0 0 0 0.5283976,1.128886 41.003655,38.473644 0 0 0 11.3320961,6.864847 1.5282885,1.4339899 0 0 0 0.642206,0.129669 1.6258388,1.5255212 0 0 0 0.642207,-2.90612 z"
     id="path26"
     inkscape:connector-curvature="0"
     style="stroke-width:0.78744072" />
  <path
     d="m 17.659177,79.637897 a 1.6258388,1.5255212 0 1 0 2.983414,0 1.6258388,1.5255212 0 0 0 -2.983414,0 z"
     id="path28"
     inkscape:connector-curvature="0"
     style="stroke-width:0.78744072" />
  <path
     d="M 20.642591,79.637897 Z"
     id="path30"
     inkscape:connector-curvature="0"
     style="stroke-width:0.78744072" />
  <path
     class="cls-1"
     d="m 40.01446,23.872471 v 0.427146 a 21.28223,19.969072 0 0 1 2.999673,-2.028944 v -2.089964 a 0.8129194,0.76276059 0 0 0 -0.812919,-0.76276 h -4.373507 a 6.2350918,5.8503737 0 0 1 2.186753,4.454522 z"
     id="path32"
     inkscape:connector-curvature="0"
     style="fill:#02809d;stroke-width:0.78744072" />
  <path
     class="cls-2"
     d="M 40.01446,24.299617 V 23.872471 A 6.2350918,5.8503737 0 0 0 37.852095,19.448459 H 16.382893 a 0.8129194,0.76276059 0 0 0 -0.812919,0.762761 v 24.202393 a 0.8129194,0.76276059 0 0 0 0.812919,0.762761 H 33.324134 A 21.428555,20.106369 0 0 1 40.01446,24.299617 Z"
     id="path34"
     inkscape:connector-curvature="0"
     style="fill:#17b5c8;stroke-width:0.78744072" />
  <path
     class="cls-2"
     d="m 75.408971,39.585339 a 21.404168,20.083486 0 0 1 -0.252005,3.051042 l 1.260025,2.051826 C 79.075238,40.691342 86.2208,29.875396 88.692075,25.504778 90.781278,21.797762 88.155548,18.807742 81.018115,19.448459 H 62.239677 a 0.8129194,0.76276059 0 0 0 -0.674723,1.098375 l 0.170713,0.274594 a 21.469201,20.144507 0 0 1 13.673304,18.763911 z"
     id="path36"
     inkscape:connector-curvature="0"
     style="fill:#17b5c8;stroke-width:0.78744072" />
  <path
     class="cls-1"
     d="m 88.692075,25.504778 c -2.438758,4.370618 -9.616837,15.186564 -12.275084,19.183429 l 0.715369,1.151769 a 0.8129194,0.76276059 0 0 0 0.674724,0.366125 0.8129194,0.76276059 0 0 0 0.674723,-0.366125 L 94.041085,20.546834 a 0.75601504,0.70936735 0 0 0 0,-0.76276 0.76414424,0.71699495 0 0 0 -0.674723,-0.366125 H 81.018115 c 7.137433,0.335614 9.763163,2.379813 7.67396,6.086829 z"
     id="path38"
     inkscape:connector-curvature="0"
     style="fill:#02809d;stroke-width:0.78744072" />
  <path
     d="m 45.249661,18.022098 a 3.812592,3.5773472 0 0 0 -3.040318,-1.43399 h -25.82645 a 3.7800752,3.5468367 0 0 0 -3.032189,1.43399 3.7394293,3.5086987 0 0 0 -0.812919,2.158611 v 24.232904 a 3.8369796,3.60023 0 0 0 3.82885,3.592603 h 18.087457 c -0.227618,-0.472912 -0.447106,-0.945823 -0.642207,-1.43399 v 0 C 33.633043,46.099314 33.470459,45.626403 33.324134,45.145863 H 16.382893 a 0.8129194,0.76276059 0 0 1 -0.812919,-0.76276 V 20.180709 a 0.8129194,0.76276059 0 0 1 0.812919,-0.76276 h 25.82645 a 0.8129194,0.76276059 0 0 1 0.812919,0.76276 v 2.089964 c 0.495881,-0.274593 0.999891,-0.533932 1.52016,-0.76276 0.520268,-0.228828 1.00802,-0.434774 1.528288,-0.625464 v -0.686484 a 3.7800752,3.5468367 0 0 0 -0.821049,-2.173867 z"
     id="path40"
     inkscape:connector-curvature="0"
     style="stroke-width:0.78744072" />
  <path
     d="m 53.947899,21.202809 a 19.575099,18.367275 0 1 0 19.56697,18.359647 19.591358,18.38253 0 0 0 -19.56697,-18.359647 z m 0,33.86657 A 16.526651,15.506923 0 1 1 70.466421,39.562456 16.54291,15.522178 0 0 1 53.947899,55.069379 Z"
     id="path42"
     inkscape:connector-curvature="0"
     style="stroke-width:0.78744072" />
  <path
     d="m 96.683073,18.380596 c -0.08129,-0.122042 -0.170713,-0.244084 -0.260134,-0.358498 a 3.7638168,3.5315815 0 0 0 -3.056577,-1.43399 H 62.239677 a 3.771946,3.5392091 0 0 0 -3.056577,1.43399 c -0.08942,0.114414 -0.178842,0.236456 -0.260134,0.358498 a 3.9020131,3.6612508 0 0 0 -0.495881,1.52552 c 0.447106,0.09153 0.894211,0.198317 1.333188,0.312731 a 20.095368,18.855442 0 0 1 1.975394,0.617836 L 61.564954,20.56209 a 0.8129194,0.76276059 0 0 1 0.674723,-1.098376 h 31.126685 a 0.76414424,0.71699495 0 0 1 0.674723,0.366125 0.75601504,0.70936735 0 0 1 0,0.762761 L 78.481807,45.839976 a 0.8129194,0.76276059 0 0 1 -0.674723,0.366125 0.8129194,0.76276059 0 0 1 -0.674724,-0.366125 l -0.715369,-1.151769 -1.260025,-2.051826 c -0.04877,0.32036 -0.105679,0.633091 -0.178842,0.945823 a 21.249713,19.938562 0 0 1 -0.91047,3.005277 l 0.422718,0.678857 a 3.8288504,3.5926024 0 0 0 6.633423,0 L 96.683073,21.973197 a 3.7963336,3.562092 0 0 0 0,-3.592601 z"
     id="path44"
     inkscape:connector-curvature="0"
     style="stroke-width:0.78744072" />
  <g
     id="g4629"
     transform="matrix(0.72284356,0,0,0.68650506,199.8653,20.071212)">
    <path
       id="path4563"
       d="M 63.14,7.91 A 22.28,22.28 0 0 0 60,8.14 a 22.21,22.21 0 0 1 0,44 22.21,22.21 0 1 0 3.19,-44.2 z"
       class="cls-1"
       inkscape:connector-curvature="0"
       style="fill:#3a5368" />
    <ellipse
       id="ellipse4565"
       ry="21.98"
       rx="19.030001"
       cy="30.120001"
       cx="59.950001"
       class="cls-2"
       style="fill:#5f7993" />
    <path
       id="path4567"
       d="M 48.79,54.8 44,47.25 c 0,0 -15,5.18 -23.63,-3.51 0,0 -12,9.24 -16,17.06 A 21.8,21.8 0 0 0 2.74,76.24 l 23.14,10.36 4.5,-15.4 9.43,-11.37 z"
       class="cls-2"
       inkscape:connector-curvature="0"
       style="fill:#5f7993" />
    <path
       id="path4569"
       d="m 23.16,46.44 c 0,0 -21.59,18.92 -13.91,32.28 0,0 -7.84,-4.8 -8,-5.29 -0.16,-0.49 4.42,-16.2 4.42,-16.2 L 18.43,43.74 Z"
       class="cls-1"
       inkscape:connector-curvature="0"
       style="fill:#3a5368" />
    <path
       id="path4571"
       d="m 78,54.8 4.83,-7.55 c 0,0 15,5.18 23.63,-3.51 0,0 12,9.24 16,17.06 a 16.47,16.47 0 0 1 0.58,14.44 L 100.92,86.6 96.42,71.2 87,59.83 Z"
       class="cls-2"
       inkscape:connector-curvature="0"
       style="fill:#5f7993" />
    <path
       id="path4573"
       d="m 102.73,46.44 c 0,0 20.59,18.92 12.9,32.28 0,0 7.85,-4.8 8,-5.29 0.15,-0.49 -4.42,-16.2 -4.42,-16.2 L 106.46,43.74 Z"
       class="cls-1"
       inkscape:connector-curvature="0"
       style="fill:#3a5368" />
    <path
       id="path4575"
       d="m 47.17,55 c 0,0 6.09,6.7 17.36,6.7 C 75.8,61.7 78,54.8 78,54.8 a 31.92,31.92 0 0 1 18.42,16.4 c 6.07,12.91 3.91,18.69 3.91,18.69 L 74.76,100.64 H 49.85 L 25.39,89.05 c 0,0 0.82,-24.82 21.78,-34.05 z"
       class="cls-2"
       inkscape:connector-curvature="0"
       style="fill:#5f7993" />
    <path
       id="path4577"
       d="m 48.14,52.22 -9,6.37 c 0,0 8.72,7.76 25.22,7.76 16.5,0 23.51,-8.53 23.51,-8.53 l -9.09,-5.6 c 0,0 -15.03,14.39 -30.64,0 z"
       class="cls-1"
       inkscape:connector-curvature="0"
       style="fill:#3a5368" />
    <path
       id="path4579"
       d="m 80.1,50.56 a 2,2 0 0 0 -2.26,0.38 C 73.4,55.38 68.27,57.72 63,57.72 57.73,57.72 52.63,55.38 48.19,50.94 A 2,2 0 0 0 46,50.56 39.76,39.76 0 0 0 23.26,86.47 v 0 a 2,2 0 0 0 0.66,1.53 58.24,58.24 0 0 0 78.21,0 2,2 0 0 0 0.65,-1.47 v 0 A 39.73,39.73 0 0 0 80.1,50.56 Z M 63,99.09 A 54.13,54.13 0 0 1 27.25,85.62 35.79,35.79 0 0 1 46.45,54.75 c 5,4.55 10.67,6.94 16.57,6.94 5.9,0 11.62,-2.39 16.59,-6.94 A 35.8,35.8 0 0 1 98.8,85.62 54.14,54.14 0 0 1 63,99.09 Z"
       inkscape:connector-curvature="0" />
    <path
       id="path4581"
       d="m 120.55,54.29 a 34.73,34.73 0 0 0 -14.27,-12.56 2,2 0 0 0 -2.26,0.39 C 100.23,45.9 95.87,47.9 91.4,47.9 a 15.84,15.84 0 0 1 -7.12,-1.74 2,2 0 0 0 -1.78,3.56 19.78,19.78 0 0 0 8.9,2.15 21.37,21.37 0 0 0 14.38,-5.94 30.67,30.67 0 0 1 16.29,26.25 46.86,46.86 0 0 1 -16.93,9.44 2,2 0 0 0 0.58,3.89 2,2 0 0 0 0.59,-0.09 50.91,50.91 0 0 0 19.09,-10.89 2,2 0 0 0 0.65,-1.47 v 0 a 34.53,34.53 0 0 0 -5.5,-18.77 z"
       inkscape:connector-curvature="0" />
    <path
       id="path4583"
       d="M 16.17,79.79 A 46.52,46.52 0 0 1 4,72.1 30.57,30.57 0 0 1 20.22,45.93 a 21.36,21.36 0 0 0 14.35,5.93 19.69,19.69 0 0 0 9,-2.2 2,2 0 0 0 -1.8,-3.54 15.74,15.74 0 0 1 -7.16,1.76 c -4.46,0 -8.81,-2 -12.59,-5.76 A 2,2 0 0 0 19.76,41.73 34.59,34.59 0 0 0 0,73 v 0 a 2,2 0 0 0 0.65,1.48 50.44,50.44 0 0 0 13.94,9 1.88,1.88 0 0 0 0.79,0.17 2,2 0 0 0 0.79,-3.81 z"
       inkscape:connector-curvature="0" />
    <path
       id="path4585"
       d="m 18.5,82.66 a 2,2 0 1 0 3.67,0 2,2 0 0 0 -3.67,0 z"
       inkscape:connector-curvature="0" />
    <path
       id="path4587"
       d="M 22.17,82.66 Z"
       inkscape:connector-curvature="0" />
    <path
       id="path4589"
       d="m 46,9.55 v 0.56 A 26.18,26.18 0 0 1 49.69,7.45 V 4.71 a 1,1 0 0 0 -1,-1 H 43.31 A 7.67,7.67 0 0 1 46,9.55 Z"
       class="cls-1"
       inkscape:connector-curvature="0"
       style="fill:#3a5368" />
    <path
       id="path4591"
       d="M 46,10.11 V 9.55 A 7.67,7.67 0 0 0 43.34,3.75 H 16.93 a 1,1 0 0 0 -1,1 v 31.73 a 1,1 0 0 0 1,1 H 37.77 A 26.36,26.36 0 0 1 46,10.11 Z"
       class="cls-2"
       inkscape:connector-curvature="0"
       style="fill:#5f7993" />
    <path
       id="path4593"
       d="m 89.54,30.15 a 26.33,26.33 0 0 1 -0.31,4 l 1.55,2.69 c 3.27,-5.24 12.06,-19.42 15.1,-25.15 2.57,-4.86 -0.66,-8.78 -9.44,-7.94 h -23.1 a 1,1 0 0 0 -0.83,1.44 l 0.21,0.36 a 26.41,26.41 0 0 1 16.82,24.6 z"
       class="cls-2"
       inkscape:connector-curvature="0"
       style="fill:#5f7993" />
    <path
       id="path4595"
       d="m 105.88,11.69 c -3,5.73 -11.83,19.91 -15.1,25.15 l 0.88,1.51 a 1,1 0 0 0 0.83,0.48 1,1 0 0 0 0.83,-0.48 L 112.46,5.19 a 0.93,0.93 0 0 0 0,-1 0.94,0.94 0 0 0 -0.83,-0.48 H 96.44 c 8.78,0.44 12.01,3.12 9.44,7.98 z"
       class="cls-1"
       inkscape:connector-curvature="0"
       style="fill:#3a5368" />
    <path
       id="path4597"
       d="M 52.44,1.88 A 4.69,4.69 0 0 0 48.7,0 H 16.93 a 4.65,4.65 0 0 0 -3.73,1.88 4.6,4.6 0 0 0 -1,2.83 v 31.77 a 4.72,4.72 0 0 0 4.71,4.71 h 22.25 c -0.28,-0.62 -0.55,-1.24 -0.79,-1.88 v 0 c -0.22,-0.62 -0.42,-1.24 -0.6,-1.87 H 16.93 a 1,1 0 0 1 -1,-1 V 4.71 a 1,1 0 0 1 1,-1 H 48.7 a 1,1 0 0 1 1,1 v 2.74 c 0.61,-0.36 1.23,-0.7 1.87,-1 0.64,-0.3 1.24,-0.57 1.88,-0.82 V 4.73 A 4.65,4.65 0 0 0 52.44,1.88 Z"
       inkscape:connector-curvature="0" />
    <path
       id="path4599"
       d="M 63.14,6.05 A 24.08,24.08 0 1 0 87.21,30.12 24.1,24.1 0 0 0 63.14,6.05 Z m 0,44.4 A 20.33,20.33 0 1 1 83.46,30.12 20.35,20.35 0 0 1 63.14,50.45 Z"
       inkscape:connector-curvature="0" />
    <path
       id="path4601"
       d="M 115.71,2.35 C 115.61,2.19 115.5,2.03 115.39,1.88 A 4.63,4.63 0 0 0 111.63,0 H 73.34 a 4.64,4.64 0 0 0 -3.76,1.88 c -0.11,0.15 -0.22,0.31 -0.32,0.47 a 4.8,4.8 0 0 0 -0.61,2 c 0.55,0.12 1.1,0.26 1.64,0.41 a 24.72,24.72 0 0 1 2.43,0.81 L 72.51,5.21 a 1,1 0 0 1 0.83,-1.44 h 38.29 a 0.94,0.94 0 0 1 0.83,0.48 0.93,0.93 0 0 1 0,1 l -19.14,33.1 a 1,1 0 0 1 -0.83,0.48 1,1 0 0 1 -0.83,-0.48 l -0.88,-1.51 -1.55,-2.69 c -0.06,0.42 -0.13,0.83 -0.22,1.24 a 26.14,26.14 0 0 1 -1.12,3.94 l 0.52,0.89 a 4.71,4.71 0 0 0 8.16,0 L 115.71,7.06 a 4.67,4.67 0 0 0 0,-4.71 z"
       inkscape:connector-curvature="0" />
  </g>
  <g
     id="g4701"
     transform="translate(90.691571,91.689213)">
    <path
       id="path4635"
       d="M 63.14,7.91 A 22.28,22.28 0 0 0 60,8.14 a 22.21,22.21 0 0 1 0,44 22.21,22.21 0 1 0 3.19,-44.2 z"
       class="cls-1"
       inkscape:connector-curvature="0"
       style="fill:#6cab00" />
    <ellipse
       id="ellipse4637"
       ry="21.98"
       rx="19.030001"
       cy="30.120001"
       cx="59.950001"
       class="cls-2"
       style="fill:#a6d100" />
    <path
       id="path4639"
       d="M 48.79,54.8 44,47.25 c 0,0 -15,5.18 -23.63,-3.51 0,0 -12,9.24 -16,17.06 A 21.8,21.8 0 0 0 2.74,76.24 l 23.14,10.36 4.5,-15.4 9.43,-11.37 z"
       class="cls-2"
       inkscape:connector-curvature="0"
       style="fill:#a6d100" />
    <path
       id="path4641"
       d="m 23.16,46.44 c 0,0 -21.59,18.92 -13.91,32.28 0,0 -7.84,-4.8 -8,-5.29 -0.16,-0.49 4.42,-16.2 4.42,-16.2 L 18.43,43.74 Z"
       class="cls-1"
       inkscape:connector-curvature="0"
       style="fill:#6cab00" />
    <path
       id="path4643"
       d="m 78,54.8 4.83,-7.55 c 0,0 15,5.18 23.63,-3.51 0,0 12,9.24 16,17.06 a 16.47,16.47 0 0 1 0.58,14.44 L 100.92,86.6 96.42,71.2 87,59.83 Z"
       class="cls-2"
       inkscape:connector-curvature="0"
       style="fill:#a6d100" />
    <path
       id="path4645"
       d="m 102.73,46.44 c 0,0 20.59,18.92 12.9,32.28 0,0 7.85,-4.8 8,-5.29 0.15,-0.49 -4.42,-16.2 -4.42,-16.2 L 106.46,43.74 Z"
       class="cls-1"
       inkscape:connector-curvature="0"
       style="fill:#6cab00" />
    <path
       id="path4647"
       d="m 47.17,55 c 0,0 6.09,6.7 17.36,6.7 C 75.8,61.7 78,54.8 78,54.8 a 31.92,31.92 0 0 1 18.42,16.4 c 6.07,12.91 3.91,18.69 3.91,18.69 L 74.76,100.64 H 49.85 L 25.39,89.05 c 0,0 0.82,-24.82 21.78,-34.05 z"
       class="cls-2"
       inkscape:connector-curvature="0"
       style="fill:#a6d100" />
    <path
       id="path4649"
       d="m 48.14,52.22 -9,6.37 c 0,0 8.72,7.76 25.22,7.76 16.5,0 23.51,-8.53 23.51,-8.53 l -9.09,-5.6 c 0,0 -15.03,14.39 -30.64,0 z"
       class="cls-1"
       inkscape:connector-curvature="0"
       style="fill:#6cab00" />
    <path
       id="path4651"
       d="m 80.1,50.56 a 2,2 0 0 0 -2.26,0.38 C 73.4,55.38 68.27,57.72 63,57.72 57.73,57.72 52.63,55.38 48.19,50.94 A 2,2 0 0 0 46,50.56 39.76,39.76 0 0 0 23.26,86.47 v 0 a 2,2 0 0 0 0.66,1.53 58.24,58.24 0 0 0 78.21,0 2,2 0 0 0 0.65,-1.47 v 0 A 39.73,39.73 0 0 0 80.1,50.56 Z M 63,99.09 A 54.13,54.13 0 0 1 27.25,85.62 35.79,35.79 0 0 1 46.45,54.75 c 5,4.55 10.67,6.94 16.57,6.94 5.9,0 11.62,-2.39 16.59,-6.94 A 35.8,35.8 0 0 1 98.8,85.62 54.14,54.14 0 0 1 63,99.09 Z"
       inkscape:connector-curvature="0" />
    <path
       id="path4653"
       d="m 120.55,54.29 a 34.73,34.73 0 0 0 -14.27,-12.56 2,2 0 0 0 -2.26,0.39 C 100.23,45.9 95.87,47.9 91.4,47.9 a 15.84,15.84 0 0 1 -7.12,-1.74 2,2 0 0 0 -1.78,3.56 19.78,19.78 0 0 0 8.9,2.15 21.37,21.37 0 0 0 14.38,-5.94 30.67,30.67 0 0 1 16.29,26.25 46.86,46.86 0 0 1 -16.93,9.44 2,2 0 0 0 0.58,3.89 2,2 0 0 0 0.59,-0.09 50.91,50.91 0 0 0 19.09,-10.89 2,2 0 0 0 0.65,-1.47 v 0 a 34.53,34.53 0 0 0 -5.5,-18.77 z"
       inkscape:connector-curvature="0" />
    <path
       id="path4655"
       d="M 16.17,79.79 A 46.52,46.52 0 0 1 4,72.1 30.57,30.57 0 0 1 20.22,45.93 a 21.36,21.36 0 0 0 14.35,5.93 19.69,19.69 0 0 0 9,-2.2 2,2 0 0 0 -1.8,-3.54 15.74,15.74 0 0 1 -7.16,1.76 c -4.46,0 -8.81,-2 -12.59,-5.76 A 2,2 0 0 0 19.76,41.73 34.59,34.59 0 0 0 0,73 v 0 a 2,2 0 0 0 0.65,1.48 50.44,50.44 0 0 0 13.94,9 1.88,1.88 0 0 0 0.79,0.17 2,2 0 0 0 0.79,-3.81 z"
       inkscape:connector-curvature="0" />
    <path
       id="path4657"
       d="m 18.5,82.66 a 2,2 0 1 0 3.67,0 2,2 0 0 0 -3.67,0 z"
       inkscape:connector-curvature="0" />
    <path
       id="path4659"
       d="M 22.17,82.66 Z"
       inkscape:connector-curvature="0" />
    <path
       id="path4661"
       d="m 46,9.55 v 0.56 A 26.18,26.18 0 0 1 49.69,7.45 V 4.71 a 1,1 0 0 0 -1,-1 H 43.31 A 7.67,7.67 0 0 1 46,9.55 Z"
       class="cls-1"
       inkscape:connector-curvature="0"
       style="fill:#6cab00" />
    <path
       id="path4663"
       d="M 46,10.11 V 9.55 A 7.67,7.67 0 0 0 43.34,3.75 H 16.93 a 1,1 0 0 0 -1,1 v 31.73 a 1,1 0 0 0 1,1 H 37.77 A 26.36,26.36 0 0 1 46,10.11 Z"
       class="cls-2"
       inkscape:connector-curvature="0"
       style="fill:#a6d100" />
    <path
       id="path4665"
       d="m 89.54,30.15 a 26.33,26.33 0 0 1 -0.31,4 l 1.55,2.69 c 3.27,-5.24 12.06,-19.42 15.1,-25.15 2.57,-4.86 -0.66,-8.78 -9.44,-7.94 h -23.1 a 1,1 0 0 0 -0.83,1.44 l 0.21,0.36 a 26.41,26.41 0 0 1 16.82,24.6 z"
       class="cls-2"
       inkscape:connector-curvature="0"
       style="fill:#a6d100" />
    <path
       id="path4667"
       d="m 105.88,11.69 c -3,5.73 -11.83,19.91 -15.1,25.15 l 0.88,1.51 a 1,1 0 0 0 0.83,0.48 1,1 0 0 0 0.83,-0.48 L 112.46,5.19 a 0.93,0.93 0 0 0 0,-1 0.94,0.94 0 0 0 -0.83,-0.48 H 96.44 c 8.78,0.44 12.01,3.12 9.44,7.98 z"
       class="cls-1"
       inkscape:connector-curvature="0"
       style="fill:#6cab00" />
    <path
       id="path4669"
       d="M 52.44,1.88 A 4.69,4.69 0 0 0 48.7,0 H 16.93 a 4.65,4.65 0 0 0 -3.73,1.88 4.6,4.6 0 0 0 -1,2.83 v 31.77 a 4.72,4.72 0 0 0 4.71,4.71 h 22.25 c -0.28,-0.62 -0.55,-1.24 -0.79,-1.88 v 0 c -0.22,-0.62 -0.42,-1.24 -0.6,-1.87 H 16.93 a 1,1 0 0 1 -1,-1 V 4.71 a 1,1 0 0 1 1,-1 H 48.7 a 1,1 0 0 1 1,1 v 2.74 c 0.61,-0.36 1.23,-0.7 1.87,-1 0.64,-0.3 1.24,-0.57 1.88,-0.82 V 4.73 A 4.65,4.65 0 0 0 52.44,1.88 Z"
       inkscape:connector-curvature="0" />
    <path
       id="path4671"
       d="M 63.14,6.05 A 24.08,24.08 0 1 0 87.21,30.12 24.1,24.1 0 0 0 63.14,6.05 Z m 0,44.4 A 20.33,20.33 0 1 1 83.46,30.12 20.35,20.35 0 0 1 63.14,50.45 Z"
       inkscape:connector-curvature="0" />
    <path
       id="path4673"
       d="M 115.71,2.35 C 115.61,2.19 115.5,2.03 115.39,1.88 A 4.63,4.63 0 0 0 111.63,0 H 73.34 a 4.64,4.64 0 0 0 -3.76,1.88 c -0.11,0.15 -0.22,0.31 -0.32,0.47 a 4.8,4.8 0 0 0 -0.61,2 c 0.55,0.12 1.1,0.26 1.64,0.41 a 24.72,24.72 0 0 1 2.43,0.81 L 72.51,5.21 a 1,1 0 0 1 0.83,-1.44 h 38.29 a 0.94,0.94 0 0 1 0.83,0.48 0.93,0.93 0 0 1 0,1 l -19.14,33.1 a 1,1 0 0 1 -0.83,0.48 1,1 0 0 1 -0.83,-0.48 l -0.88,-1.51 -1.55,-2.69 c -0.06,0.42 -0.13,0.83 -0.22,1.24 a 26.14,26.14 0 0 1 -1.12,3.94 l 0.52,0.89 a 4.71,4.71 0 0 0 8.16,0 L 115.71,7.06 a 4.67,4.67 0 0 0 0,-4.71 z"
       inkscape:connector-curvature="0" />
  </g>
</svg>
