<?xml version="1.0" encoding="UTF-8" standalone="no"?>
<svg
   xmlns:dc="http://purl.org/dc/elements/1.1/"
   xmlns:cc="http://creativecommons.org/ns#"
   xmlns:rdf="http://www.w3.org/1999/02/22-rdf-syntax-ns#"
   xmlns:svg="http://www.w3.org/2000/svg"
   xmlns="http://www.w3.org/2000/svg"
   xmlns:sodipodi="http://sodipodi.sourceforge.net/DTD/sodipodi-0.dtd"
   xmlns:inkscape="http://www.inkscape.org/namespaces/inkscape"
   id="Capa_1"
   data-name="Capa 1"
   viewBox="0 0 126.05 105.67"
   version="1.1"
   sodipodi:docname="groups.svg">
  <metadata
     id="metadata5648">
    <rdf:RDF>
      <cc:Work
         rdf:about="">
        <dc:format>image/svg+xml</dc:format>
        <dc:type
           rdf:resource="http://purl.org/dc/dcmitype/StillImage" />
      </cc:Work>
    </rdf:RDF>
  </metadata>
  <sodipodi:namedview
     pagecolor="#ffffff"
     bordercolor="#666666"
     borderopacity="1"
     objecttolerance="10"
     gridtolerance="10"
     guidetolerance="10"
     inkscape:pageopacity="0"
     inkscape:pageshadow="2"
     inkscape:window-width="640"
     inkscape:window-height="480"
     id="namedview5646"
     showgrid="false" />
  <defs
     id="defs5615">
    <style
       id="style5613">.cls-1{fill:#a6d100;}.cls-2{fill:#6cab00;}.cls-3{fill:#5f7993;}.cls-4{fill:#3a5368;}.cls-5{fill:#17b5c8;}.cls-6{fill:#02809d;}</style>
  </defs>
  <path
     class="cls-1"
     d="M48.79,54.92,44,47.37s-15,5.18-23.63-3.5c0,0-12,9.23-16,17.05A21.83,21.83,0,0,0,2.74,76.37L25.88,86.73l4.5-15.4L39.81,60Z"
     id="path5617" />
  <path
     class="cls-2"
     d="M23.16,46.56S1.57,65.49,9.25,78.84c0,0-7.84-4.8-8-5.29S5.66,57.36,5.66,57.36L18.43,43.87Z"
     id="path5619" />
  <path
     class="cls-3"
     d="M78,54.92l4.83-7.55s15,5.18,23.63-3.5c0,0,12,9.23,16,17.05a16.49,16.49,0,0,1,.58,14.45L100.92,86.73l-4.5-15.4L87,60Z"
     id="path5621" />
  <path
     class="cls-4"
     d="M102.73,46.56s20.59,18.93,12.9,32.28c0,0,7.85-4.8,8-5.29s-4.42-16.19-4.42-16.19L106.46,43.87Z"
     id="path5623" />
  <path
     class="cls-5"
     d="M47.17,55.13s6.09,6.71,17.36,6.71S78,54.92,78,54.92A31.91,31.91,0,0,1,96.42,71.33c6.07,12.9,3.91,18.68,3.91,18.68L74.76,102.76H49.85L25.39,89.18S26.21,64.35,47.17,55.13Z"
     id="path5625" />
  <path
     class="cls-6"
     d="M48.58,55l-8.43,5.9s8.19,7.18,23.68,7.18,22.08-7.89,22.08-7.89L77.37,55S63.23,68.3,48.58,55Z"
     id="path5627" />
  <path
     d="M40.15,28.29c0,6.2,2.42,13.35,6.48,19.13C51.23,54,57.06,57.6,63,57.6S74.82,54,79.43,47.42c4-5.78,6.48-12.93,6.48-19.13a22.88,22.88,0,1,0-45.76,0ZM63,9.38a18.93,18.93,0,0,1,18.9,18.91c0,5.33-2.2,11.78-5.76,16.85C72.39,50.53,67.6,53.63,63,53.63s-9.37-3.1-13.15-8.49c-3.55-5.07-5.76-11.52-5.76-16.85A18.93,18.93,0,0,1,63,9.38Z"
     id="path5629" />
  <path
     d="M80.1,53.16a2,2,0,0,0-2.26.39C73.4,58,68.27,60.32,63,60.32S52.65,58,48.21,53.55A2,2,0,0,0,46,53.16,39.79,39.79,0,0,0,23.26,89.08v0a2,2,0,0,0,.66,1.47,58.21,58.21,0,0,0,78.21,0,2,2,0,0,0,.65-1.47v0A39.76,39.76,0,0,0,80.1,53.16ZM63,101.69A54.12,54.12,0,0,1,27.25,88.23a35.75,35.75,0,0,1,19.2-30.87c5,4.54,10.67,6.94,16.57,6.94s11.62-2.4,16.59-6.94A35.77,35.77,0,0,1,98.8,88.23,54.13,54.13,0,0,1,63,101.69Z"
     id="path5631"
     style="fill:#637792" />
  <path
     d="M120.55,54.41a34.63,34.63,0,0,0-14.27-12.55,2,2,0,0,0-2.26.38C100.23,46,95.87,48,91.4,48a15.83,15.83,0,0,1-7.12-1.73,2,2,0,0,0-1.78,3.55A19.79,19.79,0,0,0,91.4,52a21.34,21.34,0,0,0,14.38-6A30.7,30.7,0,0,1,122.07,72.3a46.71,46.71,0,0,1-16.93,9.44,2,2,0,1,0,1.17,3.8A50.89,50.89,0,0,0,125.4,74.66a2,2,0,0,0,.65-1.47v0A34.54,34.54,0,0,0,120.55,54.41Z"
     id="path5633" />
  <path
     d="M34.57,45.56A14,14,0,0,0,40.8,44,2,2,0,0,0,39,40.48a10.06,10.06,0,0,1-4.46,1.11c-3.85,0-7.91-2.63-11.12-7.21A26.69,26.69,0,0,1,18.53,20,16,16,0,0,1,45.7,8.47a2,2,0,0,0,2.75-2.86A20,20,0,0,0,14.56,20,30.37,30.37,0,0,0,20.2,36.66C24.22,42.4,29.33,45.56,34.57,45.56Z"
     id="path5635" />
  <path
     d="M16.17,79.91A46.49,46.49,0,0,1,4,72.23,30.57,30.57,0,0,1,20.22,46.05,21.31,21.31,0,0,0,34.57,52a19.81,19.81,0,0,0,9-2.19,2,2,0,0,0-1.8-3.55A15.75,15.75,0,0,1,34.57,48c-4.46,0-8.81-2-12.59-5.77a2,2,0,0,0-2.26-.38A34.56,34.56,0,0,0,0,73.08v0a2,2,0,0,0,.65,1.47,50.24,50.24,0,0,0,13.94,9,2,2,0,0,0,.79.16,2,2,0,0,0,.79-3.81Z"
     id="path5637" />
  <path
     d="M18.5,82.79a2,2,0,1,0,3.67,0A2,2,0,0,0,18.5,82.79Z"
     id="path5639" />
  <path
     d="M22.17,82.79Z"
     id="path5641" />
  <path
     d="M80.36,8.47A16,16,0,0,1,107.52,20a26.69,26.69,0,0,1-4.92,14.37c-3.21,4.58-7.26,7.21-11.12,7.21A9.93,9.93,0,0,1,87,40.48,2,2,0,0,0,85.25,44a14,14,0,0,0,6.23,1.52c5.24,0,10.35-3.16,14.37-8.9A30.37,30.37,0,0,0,111.49,20,20,20,0,0,0,77.6,5.61a2,2,0,0,0,2.76,2.86Z"
     id="path5643" />
</svg>
