<?xml version="1.0" encoding="UTF-8" standalone="no"?>
<svg
   xmlns:dc="http://purl.org/dc/elements/1.1/"
   xmlns:cc="http://creativecommons.org/ns#"
   xmlns:rdf="http://www.w3.org/1999/02/22-rdf-syntax-ns#"
   xmlns:svg="http://www.w3.org/2000/svg"
   xmlns="http://www.w3.org/2000/svg"
   xmlns:sodipodi="http://sodipodi.sourceforge.net/DTD/sodipodi-0.dtd"
   xmlns:inkscape="http://www.inkscape.org/namespaces/inkscape"
   id="Capa_1"
   data-name="Capa 1"
   viewBox="0 0 233.04 92.85"
   version="1.1"
   sodipodi:docname="hosts.svg"
   inkscape:version="0.92.5 (2060ec1f9f, 2020-04-08)">
  <metadata
     id="metadata4652">
    <rdf:RDF>
      <cc:Work
         rdf:about="">
        <dc:format>image/svg+xml</dc:format>
        <dc:type
           rdf:resource="http://purl.org/dc/dcmitype/StillImage" />
      </cc:Work>
    </rdf:RDF>
  </metadata>
  <sodipodi:namedview
     pagecolor="#ffffff"
     bordercolor="#666666"
     borderopacity="1"
     objecttolerance="10"
     gridtolerance="10"
     guidetolerance="10"
     inkscape:pageopacity="0"
     inkscape:pageshadow="2"
     inkscape:window-width="1920"
     inkscape:window-height="1016"
     id="namedview4650"
     showgrid="false"
     inkscape:zoom="7.4622385"
     inkscape:cx="116.52"
     inkscape:cy="46.424999"
     inkscape:window-x="0"
     inkscape:window-y="27"
     inkscape:window-maximized="1"
     inkscape:current-layer="Capa_1" />
  <defs
     id="defs4593">
    <style
       id="style4591">.cls-1{fill:#3a5368;}.cls-2{fill:#5f7993;}.cls-3{fill:#02809d;}.cls-4{fill:#17b5c8;}.cls-5{fill:#6cab00;}.cls-6{fill:#a6d100;}</style>
  </defs>
  <rect
     style="opacity:1;fill:#ffffff;fill-opacity:1;fill-rule:nonzero;stroke:none;stroke-width:9.82677174;stroke-linecap:round;stroke-linejoin:round;stroke-miterlimit:4;stroke-dasharray:none;stroke-dashoffset:0;stroke-opacity:1"
     id="rect5197-5"
     width="109.80469"
     height="39.079796"
     x="60.40202"
     y="2.5741763"
     ry="0" />
  <rect
     style="opacity:1;fill:#ffffff;fill-opacity:1;fill-rule:nonzero;stroke:none;stroke-width:9.82677174;stroke-linecap:round;stroke-linejoin:round;stroke-miterlimit:4;stroke-dasharray:none;stroke-dashoffset:0;stroke-opacity:1"
     id="rect5197-7"
     width="109.80469"
     height="39.079796"
     x="120.69532"
     y="51.730206"
     ry="0" />
  <rect
     style="opacity:1;fill:#ffffff;fill-opacity:1;fill-rule:nonzero;stroke:none;stroke-width:9.82677174;stroke-linecap:round;stroke-linejoin:round;stroke-miterlimit:4;stroke-dasharray:none;stroke-dashoffset:0;stroke-opacity:1"
     id="rect5197"
     width="109.80469"
     height="39.079796"
     x="1.6900001"
     y="50.419998"
     ry="0" />
  <path
     class="cls-1"
     d="M60,1.77V42.19H75.86a6.55,6.55,0,0,1-6.55-6.55V8.7a6.54,6.54,0,0,1,6.55-6.54h92.81v40h1.56V1.77Z"
     id="path4595" />
  <path
     class="cls-2"
     d="M75.86,2.16A6.54,6.54,0,0,0,69.31,8.7V35.64a6.55,6.55,0,0,0,6.55,6.55h92.81v-40ZM79.36,31A8.72,8.72,0,0,1,76,30.29a8.84,8.84,0,1,1,3.36.67Zm74.28,2.69H113.15c-.05.28-.07.44-.07.44l-2.84-.44V11h43.4Z"
     id="path4597" />
  <path
     d="M156.7,42.19a2,2,0,0,0-2-2h-4a2,2,0,1,0,0,4h4A2,2,0,0,0,156.7,42.19Z"
     id="path4599" />
  <path
     d="M171.23,42.19a6,6,0,0,0,1.54-4V6a6,6,0,0,0-6-6H64.29a6,6,0,0,0-6,6V38.17a6,6,0,0,0,1.54,4s2.35,2,4.49,2h78.34a2,2,0,0,0,0-4H64.29a2,2,0,0,1-2-2V6a2,2,0,0,1,2-2H166.74a2,2,0,0,1,2,2V38.17a2,2,0,0,1-2,2h-4a2,2,0,1,0,0,4h4S170.16,43.88,171.23,42.19Z"
     id="path4601" />
  <path
     d="M84.31,29.38a2,2,0,0,0-2.44-1.44,6.37,6.37,0,0,1-1.51.19,6,6,0,1,1,6-6,5.9,5.9,0,0,1-.19,1.51,2,2,0,1,0,3.89,1,9.6,9.6,0,0,0,.32-2.51,10,10,0,1,0-7.53,9.73A2,2,0,0,0,84.31,29.38Z"
     id="path4603" />
  <path
     d="M156.7,32.14V12.05a4,4,0,0,0-4-4H112.5a4,4,0,0,0-4,4V32.14a4,4,0,0,0,4,4h40.18A4,4,0,0,0,156.7,32.14Zm-44.2,0V12.05h40.18V32.14Z"
     id="path4605" />
  <path
     d="M142.63,18.08v8a2,2,0,0,0,4,0v-8a2,2,0,0,0-4,0Z"
     id="path4607" />
  <path
     d="M134.6,18.08v8a2,2,0,1,0,4,0v-8a2,2,0,1,0-4,0Z"
     id="path4609" />
  <path
     d="M126.56,18.08v8a2,2,0,0,0,4,0v-8a2,2,0,0,0-4,0Z"
     id="path4611" />
  <path
     class="cls-3"
     d="M1.69,50.42V90.84H17.6a6.55,6.55,0,0,1-6.55-6.55V57.35a6.54,6.54,0,0,1,6.55-6.54h92.81v40H112V50.42Z"
     id="path4613" />
  <path
     class="cls-4"
     d="M17.6,50.81a6.54,6.54,0,0,0-6.55,6.54V84.29a6.55,6.55,0,0,0,6.55,6.55h92.81v-40Zm3.5,28.8a8.88,8.88,0,0,1-8.86-8.86,8.86,8.86,0,0,1,17-3.36A8.76,8.76,0,0,1,30,70.75,8.86,8.86,0,0,1,21.1,79.61ZM95.39,82.3H54.89c0,.28-.07.44-.07.44L52,82.3V59.62h43.4Z"
     id="path4615" />
  <path
     d="M98.44,90.84a2,2,0,0,0-2-2h-4a2,2,0,0,0,0,4h4A2,2,0,0,0,98.44,90.84Z"
     id="path4617" />
  <path
     d="M113,90.84a6,6,0,0,0,1.54-4V54.68a6,6,0,0,0-6-6H6a6,6,0,0,0-6,6V86.82a6,6,0,0,0,1.54,4s2.35,2,4.49,2H84.37a2,2,0,0,0,0-4H6a2,2,0,0,1-2-2V54.68a2,2,0,0,1,2-2H108.48a2,2,0,0,1,2,2V86.82a2,2,0,0,1-2,2h-4a2,2,0,0,0,0,4h4S111.9,92.53,113,90.84Z"
     id="path4619" />
  <path
     d="M26.05,78a2,2,0,0,0-2.44-1.44,6.37,6.37,0,0,1-1.51.19,6,6,0,1,1,6-6,5.91,5.91,0,0,1-.2,1.51,2,2,0,0,0,3.89,1,9.73,9.73,0,0,0,.32-2.52,10,10,0,1,0-7.53,9.73A2,2,0,0,0,26.05,78Z"
     id="path4621" />
  <path
     d="M98.44,80.79V60.7a4,4,0,0,0-4-4H54.24a4,4,0,0,0-4,4V80.79a4,4,0,0,0,4,4H94.42A4,4,0,0,0,98.44,80.79Zm-44.2,0V60.7H94.42V80.79Z"
     id="path4623" />
  <path
     d="M84.38,66.73v8a2,2,0,1,0,4,0v-8a2,2,0,1,0-4,0Z"
     id="path4625" />
  <path
     d="M76.34,66.73v8a2,2,0,0,0,4,0v-8a2,2,0,0,0-4,0Z"
     id="path4627" />
  <path
     d="M68.3,66.73v8a2,2,0,1,0,4,0v-8a2,2,0,1,0-4,0Z"
     id="path4629" />
  <path
     class="cls-5"
     d="M120.22,50.42V90.84h15.91a6.55,6.55,0,0,1-6.55-6.55V57.35a6.54,6.54,0,0,1,6.55-6.54h92.81v40h1.56V50.42Z"
     id="path4631" />
  <path
     class="cls-6"
     d="M136.13,50.81a6.54,6.54,0,0,0-6.55,6.54V84.29a6.55,6.55,0,0,0,6.55,6.55h92.81v-40Zm3.5,28.8a8.72,8.72,0,0,1-3.36-.67,8.86,8.86,0,1,1,11.55-11.55,8.75,8.75,0,0,1,.66,3.36A8.86,8.86,0,0,1,139.63,79.61Zm74.28,2.69h-40.5c0,.28-.06.44-.06.44l-2.84-.44V59.62h43.4Z"
     id="path4633" />
  <path
     d="M217,90.84a2,2,0,0,0-2-2h-4a2,2,0,1,0,0,4h4A2,2,0,0,0,217,90.84Z"
     id="path4635" />
  <path
     d="M231.5,90.84a6.05,6.05,0,0,0,1.54-4V54.68a6,6,0,0,0-6-6H124.55a6,6,0,0,0-6,6V86.82a6,6,0,0,0,1.54,4s2.35,2,4.48,2H202.9a2,2,0,0,0,0-4H124.55a2,2,0,0,1-2-2V54.68a2,2,0,0,1,2-2H227a2,2,0,0,1,2,2V86.82a2,2,0,0,1-2,2h-4a2,2,0,0,0,0,4h4S230.43,92.53,231.5,90.84Z"
     id="path4637" />
  <path
     d="M144.58,78a2,2,0,0,0-2.45-1.44,6.23,6.23,0,0,1-1.5.19,6,6,0,1,1,6-6,5.9,5.9,0,0,1-.19,1.51,2,2,0,0,0,3.89,1,10.18,10.18,0,0,0,.32-2.52,10,10,0,1,0-7.53,9.73A2,2,0,0,0,144.58,78Z"
     id="path4639" />
  <path
     d="M217,80.79V60.7a4,4,0,0,0-4-4H172.77a4,4,0,0,0-4,4V80.79a4,4,0,0,0,4,4H213A4,4,0,0,0,217,80.79Zm-44.19,0V60.7H213V80.79Z"
     id="path4641" />
  <path
     d="M202.9,66.73v8a2,2,0,1,0,4,0v-8a2,2,0,1,0-4,0Z"
     id="path4643" />
  <path
     d="M194.87,66.73v8a2,2,0,1,0,4,0v-8a2,2,0,1,0-4,0Z"
     id="path4645" />
  <path
     d="M186.83,66.73v8a2,2,0,0,0,4,0v-8a2,2,0,1,0-4,0Z"
     id="path4647" />
</svg>
