<svg id="Capa_1" data-name="Capa 1" xmlns="http://www.w3.org/2000/svg" viewBox="0 0 285.41 306.12"><defs><style>.cls-1{fill:#a6d100;}.cls-2{fill:#6cab00;}.cls-3{fill:none;stroke:#000;stroke-miterlimit:10;stroke-width:4.5px;}.cls-4{fill:#5f7993;}.cls-5{fill:#3a5368;}.cls-6{fill:#1d1d1b;}.cls-7{fill:#17b5c8;}.cls-8{fill:#02809d;}</style></defs><polygon class="cls-1" points="131.96 106.66 161.16 107.53 145.49 143.75 171.26 145.15 125.29 202.79 138.7 158.91 114.49 156.3 131.96 106.66"/><polygon class="cls-2" points="158.55 113.98 136.09 113.98 123.02 151.95 148.8 151.62 133.82 192.87 128.07 198.96 139.72 156.47 114.49 156.3 131.96 106.66 160.64 105.62 158.55 113.98"/><path d="M173.84,143.23a2.29,2.29,0,0,0-2.06-1.28h-24l14.34-29.75a3.45,3.45,0,0,0,.2-.32l2.27-4.7a2.31,2.31,0,0,0-2.07-3.3H131.23a2.3,2.3,0,0,0-2.18,1.58l-16.82,50.75a2.32,2.32,0,0,0,.32,2.07,2.28,2.28,0,0,0,1.86.95h22l-14.6,46.51a2.28,2.28,0,0,0,1.13,2.72,2.22,2.22,0,0,0,1.06.26,2.28,2.28,0,0,0,1.82-.9l47.79-62.17A2.29,2.29,0,0,0,173.84,143.23Zm-43.78,51.53,11.66-37.13a2.3,2.3,0,0,0-2.19-3H117.59l15.3-46.16h25.9a.83.83,0,0,0-.08.12L142,143.25a2.3,2.3,0,0,0,2.07,3.3h23Z"/><ellipse class="cls-1" cx="263.84" cy="132.39" rx="19.32" ry="4.44"/><ellipse class="cls-2" cx="263.76" cy="134.43" rx="14.11" ry="2.87"/><path class="cls-1" d="M244.84,133.2l-.32,40s.52,2.5,1.55,3.24a9,9,0,0,0,4.67,1.67h27.63s4.81-1.32,4.79-4.91,0-39.72,0-39.72-4.49,4-17.5,3.39S247,136.22,244.84,133.2Z"/><path class="cls-2" d="M270.12,136.83s8.2,1.54,8.74,8.32,0,25,0,25-1.42,6.24-10.34,7.59l7.31.37s5.57,1.35,7.33-4.91,0-39.72,0-39.72A29.15,29.15,0,0,1,270.12,136.83Z"/><path class="cls-3" d="M263.92,136.84c-9.51,0-17.43-1.57-19.08-3.64-.09-.12-.32-.06-.32.08v39.88c0,2.71,2.78,4.91,6.22,4.91h26.2c3.44,0,6.22-2.2,6.22-4.91V133.44c0-.13-.21-.19-.31-.09C280.93,135.35,273.18,136.84,263.92,136.84Z"/><path class="cls-3" d="M263.84,128c-10.67,0-19.32,2-19.32,4.44s8.65,4.44,19.32,4.44c9.86,0,18-1.7,19.17-3.89a1.26,1.26,0,0,0,.15-.55C283.16,129.93,274.51,128,263.84,128Z"/><ellipse class="cls-4" cx="21.57" cy="132.39" rx="19.32" ry="4.44"/><ellipse class="cls-5" cx="21.49" cy="134.43" rx="14.11" ry="2.87"/><path class="cls-4" d="M2.57,133.2l-.32,40s.52,2.5,1.55,3.24a9,9,0,0,0,4.67,1.67H36.1s4.82-1.32,4.79-4.91,0-39.72,0-39.72-4.49,4-17.5,3.39S4.74,136.22,2.57,133.2Z"/><path class="cls-5" d="M27.85,136.83s8.21,1.54,8.74,8.32,0,25,0,25-1.42,6.24-10.34,7.59l7.31.37s5.57,1.35,7.33-4.91,0-39.72,0-39.72A29.15,29.15,0,0,1,27.85,136.83Z"/><path class="cls-3" d="M21.65,136.84c-9.51,0-17.42-1.57-19.08-3.64-.09-.12-.32-.06-.32.08v39.88c0,2.71,2.78,4.91,6.22,4.91h26.2c3.44,0,6.22-2.2,6.22-4.91V133.44c0-.13-.21-.19-.31-.09C38.66,135.35,30.92,136.84,21.65,136.84Z"/><path class="cls-3" d="M21.57,128c-10.67,0-19.32,2-19.32,4.44s8.65,4.44,19.32,4.44c9.86,0,18-1.7,19.17-3.89a1.14,1.14,0,0,0,.15-.55C40.89,129.93,32.24,128,21.57,128Z"/><polygon class="cls-6" points="244.52 156.17 244.52 151.67 176.13 151.67 172.67 156.17 244.52 156.17"/><path class="cls-6" d="M107.77,151.67H41.68v4.5h64.81a8,8,0,0,1,.36-1.74Z"/><polygon class="cls-6" points="216.4 83.8 213.22 80.61 157.55 136.28 163.92 136.28 216.4 83.8"/><polygon class="cls-6" points="69.79 224.04 72.97 227.23 125.65 174.55 128.56 165.27 69.79 224.04"/><rect class="cls-6" x="140.85" y="52.5" width="4.5" height="45.72"/><polygon class="cls-6" points="140.85 255.34 145.35 255.34 145.35 191.71 140.85 197.56 140.85 255.34"/><polygon class="cls-6" points="213.22 227.23 216.4 224.04 162.18 169.82 159.41 173.41 213.22 227.23"/><polygon class="cls-6" points="72.97 80.61 69.79 83.8 115.21 129.21 116.79 124.43 72.97 80.61"/><ellipse class="cls-4" cx="231.84" cy="202.84" rx="19.32" ry="4.44"/><ellipse class="cls-5" cx="231.76" cy="204.89" rx="14.11" ry="2.87"/><path class="cls-4" d="M212.84,203.65l-.32,40s.52,2.49,1.55,3.24a9,9,0,0,0,4.67,1.67h27.63s4.81-1.33,4.79-4.91,0-39.72,0-39.72-4.49,4-17.5,3.38S215,206.67,212.84,203.65Z"/><path class="cls-5" d="M238.12,207.28s8.2,1.55,8.74,8.32,0,25,0,25-1.42,6.24-10.34,7.58l7.31.38s5.57,1.35,7.33-4.91,0-39.72,0-39.72A29.22,29.22,0,0,1,238.12,207.28Z"/><path class="cls-3" d="M231.92,207.3c-9.51,0-17.43-1.57-19.08-3.65-.1-.11-.32-.06-.32.08v39.89c0,2.71,2.78,4.91,6.22,4.91h26.2c3.44,0,6.22-2.2,6.22-4.91V203.9c0-.13-.21-.19-.31-.09C248.93,205.8,241.18,207.3,231.92,207.3Z"/><path class="cls-3" d="M231.84,198.4c-10.67,0-19.32,2-19.32,4.44s8.65,4.44,19.32,4.44c9.86,0,18-1.7,19.17-3.89a1.23,1.23,0,0,0,.15-.55C251.16,200.39,242.51,198.4,231.84,198.4Z"/><ellipse class="cls-1" cx="54.62" cy="202.84" rx="19.32" ry="4.44"/><ellipse class="cls-2" cx="54.53" cy="204.89" rx="14.11" ry="2.87"/><path class="cls-1" d="M35.61,203.65l-.32,40s.52,2.49,1.56,3.24a8.9,8.9,0,0,0,4.66,1.67H69.14s4.82-1.33,4.8-4.91,0-39.72,0-39.72-4.49,4-17.5,3.38S37.79,206.67,35.61,203.65Z"/><path class="cls-2" d="M60.9,207.28s8.2,1.55,8.74,8.32,0,25,0,25-1.42,6.24-10.35,7.58l7.31.38s5.58,1.35,7.34-4.91,0-39.72,0-39.72A29.27,29.27,0,0,1,60.9,207.28Z"/><path class="cls-3" d="M54.69,207.3c-9.51,0-17.42-1.57-19.08-3.65-.09-.11-.32-.06-.32.08v39.89c0,2.71,2.79,4.91,6.22,4.91H67.72c3.43,0,6.22-2.2,6.22-4.91V203.9c0-.13-.21-.19-.31-.09C71.7,205.8,64,207.3,54.69,207.3Z"/><path class="cls-3" d="M54.62,198.4c-10.67,0-19.33,2-19.33,4.44s8.66,4.44,19.33,4.44c9.85,0,18-1.7,19.16-3.89a1.12,1.12,0,0,0,.16-.55C73.94,200.39,65.29,198.4,54.62,198.4Z"/><ellipse class="cls-7" cx="231.84" cy="59.93" rx="19.32" ry="4.44"/><ellipse class="cls-8" cx="231.76" cy="61.98" rx="14.11" ry="2.87"/><path class="cls-7" d="M212.84,60.74l-.32,40s.52,2.49,1.55,3.24a9,9,0,0,0,4.67,1.67h27.63s4.81-1.33,4.79-4.91,0-39.72,0-39.72-4.49,4-17.5,3.38S215,63.76,212.84,60.74Z"/><path class="cls-8" d="M238.12,64.37s8.2,1.55,8.74,8.32,0,25,0,25-1.42,6.24-10.34,7.58l7.31.38s5.57,1.35,7.33-4.91,0-39.72,0-39.72A29.22,29.22,0,0,1,238.12,64.37Z"/><path class="cls-3" d="M231.92,64.39c-9.51,0-17.43-1.58-19.08-3.65-.1-.12-.32-.06-.32.08v39.89c0,2.71,2.78,4.91,6.22,4.91h26.2c3.44,0,6.22-2.2,6.22-4.91V61c0-.13-.21-.2-.31-.09C248.93,62.89,241.18,64.39,231.92,64.39Z"/><path class="cls-3" d="M231.84,55.49c-10.67,0-19.32,2-19.32,4.44s8.65,4.44,19.32,4.44c9.86,0,18-1.7,19.17-3.89a1.23,1.23,0,0,0,.15-.55C251.16,57.48,242.51,55.49,231.84,55.49Z"/><ellipse class="cls-4" cx="142.49" cy="6.69" rx="19.32" ry="4.44"/><ellipse class="cls-5" cx="142.4" cy="8.74" rx="14.11" ry="2.87"/><path class="cls-4" d="M123.48,7.5l-.32,40s.52,2.49,1.56,3.24a8.9,8.9,0,0,0,4.66,1.67H157s4.82-1.33,4.8-4.91,0-39.72,0-39.72-4.49,4-17.51,3.38S125.66,10.52,123.48,7.5Z"/><path class="cls-5" d="M148.77,11.13s8.2,1.55,8.74,8.32,0,25,0,25-1.42,6.24-10.35,7.58l7.31.38s5.58,1.35,7.34-4.91,0-39.72,0-39.72A29.27,29.27,0,0,1,148.77,11.13Z"/><path class="cls-3" d="M142.56,11.15c-9.51,0-17.42-1.58-19.08-3.65-.09-.12-.32-.06-.32.08V47.47c0,2.71,2.79,4.91,6.22,4.91h26.21c3.43,0,6.22-2.2,6.22-4.91V7.75c0-.13-.21-.2-.31-.09C159.57,9.65,151.83,11.15,142.56,11.15Z"/><path class="cls-3" d="M142.49,2.25c-10.68,0-19.33,2-19.33,4.44s8.65,4.44,19.33,4.44c9.85,0,18-1.7,19.16-3.89a1.12,1.12,0,0,0,.16-.55C161.81,4.24,153.16,2.25,142.49,2.25Z"/><ellipse class="cls-7" cx="142.49" cy="258.18" rx="19.32" ry="4.44"/><ellipse class="cls-8" cx="142.4" cy="260.23" rx="14.11" ry="2.87"/><path class="cls-7" d="M123.48,259l-.32,40s.52,2.49,1.56,3.23a8.82,8.82,0,0,0,4.66,1.68H157s4.82-1.33,4.8-4.91,0-39.72,0-39.72-4.49,4-17.51,3.38S125.66,262,123.48,259Z"/><path class="cls-8" d="M148.77,262.62s8.2,1.55,8.74,8.32,0,25,0,25-1.42,6.24-10.35,7.58l7.31.38s5.58,1.35,7.34-4.91,0-39.72,0-39.72A29.27,29.27,0,0,1,148.77,262.62Z"/><path class="cls-3" d="M142.56,262.64c-9.51,0-17.42-1.58-19.08-3.65-.09-.12-.32-.06-.32.08V299c0,2.71,2.79,4.91,6.22,4.91h26.21c3.43,0,6.22-2.2,6.22-4.91V259.24c0-.13-.21-.2-.31-.09C159.57,261.14,151.83,262.64,142.56,262.64Z"/><path class="cls-3" d="M142.49,253.74c-10.68,0-19.33,2-19.33,4.44s8.65,4.44,19.33,4.44c9.85,0,18-1.7,19.16-3.89a1.12,1.12,0,0,0,.16-.55C161.81,255.73,153.16,253.74,142.49,253.74Z"/><ellipse class="cls-7" cx="54.62" cy="59.93" rx="19.32" ry="4.44"/><ellipse class="cls-8" cx="54.53" cy="61.98" rx="14.11" ry="2.87"/><path class="cls-7" d="M35.61,60.74l-.32,40s.52,2.49,1.56,3.24a8.9,8.9,0,0,0,4.66,1.67H69.14s4.82-1.33,4.8-4.91,0-39.72,0-39.72-4.49,4-17.5,3.38S37.79,63.76,35.61,60.74Z"/><path class="cls-8" d="M60.9,64.37s8.2,1.55,8.74,8.32,0,25,0,25-1.42,6.24-10.35,7.58l7.31.38s5.58,1.35,7.34-4.91,0-39.72,0-39.72A29.27,29.27,0,0,1,60.9,64.37Z"/><path class="cls-3" d="M54.69,64.39c-9.51,0-17.42-1.58-19.08-3.65-.09-.12-.32-.06-.32.08v39.89c0,2.71,2.79,4.91,6.22,4.91H67.72c3.43,0,6.22-2.2,6.22-4.91V61c0-.13-.21-.2-.31-.09C71.7,62.89,64,64.39,54.69,64.39Z"/><path class="cls-3" d="M54.62,55.49c-10.67,0-19.33,2-19.33,4.44S44,64.37,54.62,64.37c9.85,0,18-1.7,19.16-3.89a1.12,1.12,0,0,0,.16-.55C73.94,57.48,65.29,55.49,54.62,55.49Z"/></svg>