<svg id="Capa_1" data-name="Capa 1" xmlns="http://www.w3.org/2000/svg" viewBox="0 0 285.41 306.12"><defs><style>.cls-1{fill:#a6d100;}.cls-2{fill:#6cab00;}.cls-3{fill:none;stroke:#000;stroke-miterlimit:10;stroke-width:4.5px;}.cls-4{fill:#5f7993;}.cls-5{fill:#3a5368;}.cls-6{fill:#1d1d1b;}.cls-7{fill:#17b5c8;}.cls-8{fill:#02809d;}</style></defs><ellipse class="cls-1" cx="263.84" cy="132.39" rx="19.32" ry="4.44"/><ellipse class="cls-2" cx="263.76" cy="134.43" rx="14.11" ry="2.87"/><path class="cls-1" d="M244.84,133.2l-.32,40s.52,2.5,1.55,3.24a9,9,0,0,0,4.67,1.67h27.63s4.81-1.32,4.79-4.91,0-39.72,0-39.72-4.49,4-17.5,3.39S247,136.22,244.84,133.2Z"/><path class="cls-2" d="M270.12,136.83s8.2,1.54,8.74,8.32,0,25,0,25-1.42,6.24-10.34,7.59l7.31.37s5.57,1.35,7.33-4.91,0-39.72,0-39.72A29.15,29.15,0,0,1,270.12,136.83Z"/><path class="cls-3" d="M263.92,136.84c-9.51,0-17.43-1.57-19.08-3.64-.09-.12-.32-.06-.32.08v39.88c0,2.71,2.78,4.91,6.22,4.91h26.2c3.44,0,6.22-2.2,6.22-4.91V133.44c0-.13-.21-.19-.31-.09C280.93,135.35,273.18,136.84,263.92,136.84Z"/><path class="cls-3" d="M263.84,128c-10.67,0-19.32,2-19.32,4.44s8.65,4.44,19.32,4.44c9.86,0,18-1.7,19.17-3.89a1.26,1.26,0,0,0,.15-.55C283.16,129.93,274.51,128,263.84,128Z"/><ellipse class="cls-4" cx="21.57" cy="132.39" rx="19.32" ry="4.44"/><ellipse class="cls-5" cx="21.49" cy="134.43" rx="14.11" ry="2.87"/><path class="cls-4" d="M2.57,133.2l-.32,40s.52,2.5,1.55,3.24a9,9,0,0,0,4.67,1.67H36.1s4.82-1.32,4.79-4.91,0-39.72,0-39.72-4.49,4-17.5,3.39S4.74,136.22,2.57,133.2Z"/><path class="cls-5" d="M27.85,136.83s8.21,1.54,8.74,8.32,0,25,0,25-1.42,6.24-10.34,7.59l7.31.37s5.57,1.35,7.33-4.91,0-39.72,0-39.72A29.15,29.15,0,0,1,27.85,136.83Z"/><path class="cls-3" d="M21.65,136.84c-9.51,0-17.42-1.57-19.08-3.64-.09-.12-.32-.06-.32.08v39.88c0,2.71,2.78,4.91,6.22,4.91h26.2c3.44,0,6.22-2.2,6.22-4.91V133.44c0-.13-.21-.19-.31-.09C38.66,135.35,30.92,136.84,21.65,136.84Z"/><path class="cls-3" d="M21.57,128c-10.67,0-19.32,2-19.32,4.44s8.65,4.44,19.32,4.44c9.86,0,18-1.7,19.17-3.89a1.14,1.14,0,0,0,.15-.55C40.89,129.93,32.24,128,21.57,128Z"/><rect class="cls-6" x="201.05" y="151.67" width="43.47" height="4.5"/><rect class="cls-6" x="41.68" y="151.67" width="43.75" height="4.5"/><rect class="cls-6" x="179.07" y="94.76" width="41.87" height="4.5" transform="translate(-10.01 169.84) rotate(-45)"/><rect class="cls-6" x="64.75" y="207.36" width="45.32" height="4.5" transform="translate(-122.62 123.2) rotate(-45)"/><rect class="cls-6" x="140.85" y="52.5" width="4.5" height="41.3"/><rect class="cls-6" x="140.85" y="209.43" width="4.5" height="45.91"/><rect class="cls-6" x="196.61" y="187.11" width="4.5" height="45.13" transform="translate(-90.02 202.03) rotate(-45)"/><rect class="cls-6" x="84.01" y="76.04" width="4.5" height="42.07" transform="translate(-43.38 89.43) rotate(-45)"/><ellipse class="cls-4" cx="231.84" cy="202.84" rx="19.32" ry="4.44"/><ellipse class="cls-5" cx="231.76" cy="204.89" rx="14.11" ry="2.87"/><path class="cls-4" d="M212.84,203.65l-.32,40s.52,2.49,1.55,3.24a9,9,0,0,0,4.67,1.67h27.63s4.81-1.33,4.79-4.91,0-39.72,0-39.72-4.49,4-17.5,3.38S215,206.67,212.84,203.65Z"/><path class="cls-5" d="M238.12,207.28s8.2,1.55,8.74,8.32,0,25,0,25-1.42,6.24-10.34,7.58l7.31.38s5.57,1.35,7.33-4.91,0-39.72,0-39.72A29.22,29.22,0,0,1,238.12,207.28Z"/><path class="cls-3" d="M231.92,207.3c-9.51,0-17.43-1.57-19.08-3.65-.1-.11-.32-.06-.32.08v39.89c0,2.71,2.78,4.91,6.22,4.91h26.2c3.44,0,6.22-2.2,6.22-4.91V203.9c0-.13-.21-.19-.31-.09C248.93,205.8,241.18,207.3,231.92,207.3Z"/><path class="cls-3" d="M231.84,198.4c-10.67,0-19.32,2-19.32,4.44s8.65,4.44,19.32,4.44c9.86,0,18-1.7,19.17-3.89a1.23,1.23,0,0,0,.15-.55C251.16,200.39,242.51,198.4,231.84,198.4Z"/><ellipse class="cls-1" cx="54.62" cy="202.84" rx="19.32" ry="4.44"/><ellipse class="cls-2" cx="54.53" cy="204.89" rx="14.11" ry="2.87"/><path class="cls-1" d="M35.61,203.65l-.32,40s.52,2.49,1.56,3.24a8.9,8.9,0,0,0,4.66,1.67H69.14s4.82-1.33,4.8-4.91,0-39.72,0-39.72-4.49,4-17.5,3.38S37.79,206.67,35.61,203.65Z"/><path class="cls-2" d="M60.9,207.28s8.2,1.55,8.74,8.32,0,25,0,25-1.42,6.24-10.35,7.58l7.31.38s5.58,1.35,7.34-4.91,0-39.72,0-39.72A29.27,29.27,0,0,1,60.9,207.28Z"/><path class="cls-3" d="M54.69,207.3c-9.51,0-17.42-1.57-19.08-3.65-.09-.11-.32-.06-.32.08v39.89c0,2.71,2.79,4.91,6.22,4.91H67.72c3.43,0,6.22-2.2,6.22-4.91V203.9c0-.13-.21-.19-.31-.09C71.7,205.8,64,207.3,54.69,207.3Z"/><path class="cls-3" d="M54.62,198.4c-10.67,0-19.33,2-19.33,4.44s8.66,4.44,19.33,4.44c9.85,0,18-1.7,19.16-3.89a1.12,1.12,0,0,0,.16-.55C73.94,200.39,65.29,198.4,54.62,198.4Z"/><ellipse class="cls-7" cx="231.84" cy="59.93" rx="19.32" ry="4.44"/><ellipse class="cls-8" cx="231.76" cy="61.98" rx="14.11" ry="2.87"/><path class="cls-7" d="M212.84,60.74l-.32,40s.52,2.49,1.55,3.24a9,9,0,0,0,4.67,1.67h27.63s4.81-1.33,4.79-4.91,0-39.72,0-39.72-4.49,4-17.5,3.38S215,63.76,212.84,60.74Z"/><path class="cls-8" d="M238.12,64.37s8.2,1.55,8.74,8.32,0,25,0,25-1.42,6.24-10.34,7.58l7.31.38s5.57,1.35,7.33-4.91,0-39.72,0-39.72A29.22,29.22,0,0,1,238.12,64.37Z"/><path class="cls-3" d="M231.92,64.39c-9.51,0-17.43-1.58-19.08-3.65-.1-.12-.32-.06-.32.08v39.89c0,2.71,2.78,4.91,6.22,4.91h26.2c3.44,0,6.22-2.2,6.22-4.91V61c0-.13-.21-.2-.31-.09C248.93,62.89,241.18,64.39,231.92,64.39Z"/><path class="cls-3" d="M231.84,55.49c-10.67,0-19.32,2-19.32,4.44s8.65,4.44,19.32,4.44c9.86,0,18-1.7,19.17-3.89a1.23,1.23,0,0,0,.15-.55C251.16,57.48,242.51,55.49,231.84,55.49Z"/><ellipse class="cls-4" cx="142.49" cy="6.69" rx="19.32" ry="4.44"/><ellipse class="cls-5" cx="142.4" cy="8.74" rx="14.11" ry="2.87"/><path class="cls-4" d="M123.48,7.5l-.32,40s.52,2.49,1.56,3.24a8.9,8.9,0,0,0,4.66,1.67H157s4.82-1.33,4.8-4.91,0-39.72,0-39.72-4.49,4-17.51,3.38S125.66,10.52,123.48,7.5Z"/><path class="cls-5" d="M148.77,11.13s8.2,1.55,8.74,8.32,0,25,0,25-1.42,6.24-10.35,7.58l7.31.38s5.58,1.35,7.34-4.91,0-39.72,0-39.72A29.27,29.27,0,0,1,148.77,11.13Z"/><path class="cls-3" d="M142.56,11.15c-9.51,0-17.42-1.58-19.08-3.65-.09-.12-.32-.06-.32.08V47.47c0,2.71,2.79,4.91,6.22,4.91h26.21c3.43,0,6.22-2.2,6.22-4.91V7.75c0-.13-.21-.2-.31-.09C159.57,9.65,151.83,11.15,142.56,11.15Z"/><path class="cls-3" d="M142.49,2.25c-10.68,0-19.33,2-19.33,4.44s8.65,4.44,19.33,4.44c9.85,0,18-1.7,19.16-3.89a1.12,1.12,0,0,0,.16-.55C161.81,4.24,153.16,2.25,142.49,2.25Z"/><ellipse class="cls-7" cx="142.49" cy="258.18" rx="19.32" ry="4.44"/><ellipse class="cls-8" cx="142.4" cy="260.23" rx="14.11" ry="2.87"/><path class="cls-7" d="M123.48,259l-.32,40s.52,2.49,1.56,3.23a8.82,8.82,0,0,0,4.66,1.68H157s4.82-1.33,4.8-4.91,0-39.72,0-39.72-4.49,4-17.51,3.38S125.66,262,123.48,259Z"/><path class="cls-8" d="M148.77,262.62s8.2,1.55,8.74,8.32,0,25,0,25-1.42,6.24-10.35,7.58l7.31.38s5.58,1.35,7.34-4.91,0-39.72,0-39.72A29.27,29.27,0,0,1,148.77,262.62Z"/><path class="cls-3" d="M142.56,262.64c-9.51,0-17.42-1.58-19.08-3.65-.09-.12-.32-.06-.32.08V299c0,2.71,2.79,4.91,6.22,4.91h26.21c3.43,0,6.22-2.2,6.22-4.91V259.24c0-.13-.21-.2-.31-.09C159.57,261.14,151.83,262.64,142.56,262.64Z"/><path class="cls-3" d="M142.49,253.74c-10.68,0-19.33,2-19.33,4.44s8.65,4.44,19.33,4.44c9.85,0,18-1.7,19.16-3.89a1.12,1.12,0,0,0,.16-.55C161.81,255.73,153.16,253.74,142.49,253.74Z"/><ellipse class="cls-7" cx="54.62" cy="59.93" rx="19.32" ry="4.44"/><ellipse class="cls-8" cx="54.53" cy="61.98" rx="14.11" ry="2.87"/><path class="cls-7" d="M35.61,60.74l-.32,40s.52,2.49,1.56,3.24a8.9,8.9,0,0,0,4.66,1.67H69.14s4.82-1.33,4.8-4.91,0-39.72,0-39.72-4.49,4-17.5,3.38S37.79,63.76,35.61,60.74Z"/><path class="cls-8" d="M60.9,64.37s8.2,1.55,8.74,8.32,0,25,0,25-1.42,6.24-10.35,7.58l7.31.38s5.58,1.35,7.34-4.91,0-39.72,0-39.72A29.27,29.27,0,0,1,60.9,64.37Z"/><path class="cls-3" d="M54.69,64.39c-9.51,0-17.42-1.58-19.08-3.65-.09-.12-.32-.06-.32.08v39.89c0,2.71,2.79,4.91,6.22,4.91H67.72c3.43,0,6.22-2.2,6.22-4.91V61c0-.13-.21-.2-.31-.09C71.7,62.89,64,64.39,54.69,64.39Z"/><path class="cls-3" d="M54.62,55.49c-10.67,0-19.33,2-19.33,4.44S44,64.37,54.62,64.37c9.85,0,18-1.7,19.16-3.89a1.12,1.12,0,0,0,.16-.55C73.94,57.48,65.29,55.49,54.62,55.49Z"/><path class="cls-7" d="M192.78,160.6V143.89l-10.92-4L179.57,132l4.12-8.08L169.6,111.17l-6.74,5.23L155.59,113l-3.48-9.81H134.84L132.68,113l-8.62,3.39-7.55-5.23-8.08,5.23-4.85,8.9,4.31,8.36-1.35,7.27-3.23,1.88L95,143.89l-1.34,14.55,8.62,1.89,4.58,9.23-4.58,8.83,12.85,15,9-7.2,7.81,4L136.45,201H151L154.64,190l6.54-3.23,11.12,4.85,11.39-12.93-6.27-9.1,4.44-7.61ZM143.24,172a20.38,20.38,0,1,1,20.38-20.38A20.38,20.38,0,0,1,143.24,172Z"/><path class="cls-8" d="M129.17,186.85s28.54,6.19,41.13-17.42c17.25-32.35-11.25-52.15-11.25-52.15l12.4-6.11L183.69,124l-5.24,11.39,6.47,6.46,6.26,1.54.48,17.87-9.8,1.88-3.41,7.82,5.24,7.75-10.63,14.08s-9.59-5-10.74-5.5-7.68,2.73-7.68,2.73l-2.53,9.77-13.54,2.16L132.91,196Z"/><path d="M138,203.76a7.65,7.65,0,0,1-7.64-7.64v-2.88a2.81,2.81,0,0,0-1.85-2.63c-.89-.35-1.7-.69-2.46-1a2.77,2.77,0,0,0-3.15.57l-2.05,2.05a7.67,7.67,0,0,1-10.81,0l-7.4-7.4a7.68,7.68,0,0,1,0-10.8l2.06-2.06a2.79,2.79,0,0,0,.56-3.15c-.36-.8-.71-1.63-1-2.46a2.77,2.77,0,0,0-2.61-1.82H98.74a7.66,7.66,0,0,1-7.65-7.65V146.38a7.65,7.65,0,0,1,7.65-7.64h2.88a2.8,2.8,0,0,0,2.63-1.83c.33-.85.67-1.66,1-2.45a2.81,2.81,0,0,0-.56-3.16l-2-2.05a7.68,7.68,0,0,1,0-10.81l7.39-7.42a7.69,7.69,0,0,1,10.81,0l2,2.06a2.78,2.78,0,0,0,2,.82,2.82,2.82,0,0,0,1.18-.26c.79-.36,1.6-.7,2.45-1a2.81,2.81,0,0,0,1.83-2.62v-2.88A7.65,7.65,0,0,1,138,99.47h10.47a7.66,7.66,0,0,1,7.65,7.65V110a2.77,2.77,0,0,0,1.83,2.62c.83.33,1.65.67,2.46,1a2.79,2.79,0,0,0,3.15-.56l2.05-2a7.67,7.67,0,0,1,10.81,0l7.4,7.39a7.69,7.69,0,0,1,0,10.81l-2.05,2.05a2.81,2.81,0,0,0-.57,3.16c.37.81.71,1.61,1,2.45a2.8,2.8,0,0,0,2.61,1.83h2.89a7.65,7.65,0,0,1,7.64,7.64v10.47a7.65,7.65,0,0,1-7.64,7.65h-2.88a2.8,2.8,0,0,0-2.63,1.83c-.33.84-.67,1.65-1,2.46a2.8,2.8,0,0,0,.57,3.15l2.05,2.05a7.69,7.69,0,0,1,0,10.81l-7.4,7.4a7.67,7.67,0,0,1-10.8,0l-2.06-2.05a2.77,2.77,0,0,0-3.15-.57c-.8.36-1.62.71-2.46,1a2.79,2.79,0,0,0-1.82,2.62v2.88a7.65,7.65,0,0,1-7.65,7.64Zm-13.09-19.25a7.53,7.53,0,0,1,3.16.69c.72.32,1.45.63,2.18.9a7.72,7.72,0,0,1,4.93,7.14v2.88a2.82,2.82,0,0,0,2.82,2.82h10.47a2.83,2.83,0,0,0,2.83-2.82v-2.88a7.73,7.73,0,0,1,4.92-7.14c.71-.27,1.44-.57,2.17-.9a7.7,7.7,0,0,1,3.17-.69,7.61,7.61,0,0,1,5.39,2.22l2.05,2.05a2.84,2.84,0,0,0,4,0l7.4-7.4a2.84,2.84,0,0,0,0-4l-2-2a7.7,7.7,0,0,1-1.52-8.55c.33-.73.63-1.46.9-2.18a7.71,7.71,0,0,1,7.14-4.92h2.88a2.83,2.83,0,0,0,2.82-2.83V146.38a2.82,2.82,0,0,0-2.82-2.82h-2.88a7.71,7.71,0,0,1-7.13-4.93c-.28-.72-.59-1.45-.91-2.17a7.7,7.7,0,0,1,1.53-8.55l2.05-2.06a2.81,2.81,0,0,0,0-4l-7.4-7.4a2.84,2.84,0,0,0-2-.82,2.8,2.8,0,0,0-2,.82l-2,2.05A7.7,7.7,0,0,1,158.4,118c-.7-.32-1.43-.62-2.18-.91A7.71,7.71,0,0,1,151.3,110v-2.88a2.83,2.83,0,0,0-2.83-2.83H138a2.83,2.83,0,0,0-2.82,2.83V110a7.73,7.73,0,0,1-4.94,7.13c-.73.28-1.46.58-2.17.9a7.54,7.54,0,0,1-3.17.69,7.63,7.63,0,0,1-5.39-2.22l-2.05-2a2.81,2.81,0,0,0-4,0l-7.4,7.39a2.85,2.85,0,0,0-.83,2,2.81,2.81,0,0,0,.83,2l2.06,2.05a7.72,7.72,0,0,1,1.53,8.55c-.32.71-.63,1.45-.91,2.18a7.72,7.72,0,0,1-7.13,4.93H98.74a2.83,2.83,0,0,0-2.83,2.82v10.47a2.83,2.83,0,0,0,2.83,2.83h2.88a7.71,7.71,0,0,1,7.13,4.93c.28.73.58,1.46.9,2.17a7.72,7.72,0,0,1-1.53,8.56l-2.05,2a2.84,2.84,0,0,0,0,4l7.4,7.39a2.82,2.82,0,0,0,4,0l2-2.05A7.64,7.64,0,0,1,124.91,184.51Z"/><path d="M143.28,175c-.25,0-.48,0-.71,0l-.49,0h-.31a15.11,15.11,0,0,1-1.51-.11,22.72,22.72,0,0,1-2.71-.52h-.12a23.37,23.37,0,0,1,0-45.26c.82-.19,1.66-.35,2.51-.47l.88-.1c.56-.06,1.11-.09,1.67-.1l.3,0,.48,0a23.39,23.39,0,0,1,13.91,4.62l.43.32,1,.79.77.71.1.09c.21.2.38.36.53.52.39.39.76.81,1.12,1.23.13.15.19.21.23.27a22.55,22.55,0,0,1,2.34,3.4l.05.1a25.48,25.48,0,0,1,1.18,2.51c.14.36.27.72.4,1.08.18.52.34,1,.49,1.58l.05.2c.1.36.2.71.27,1.06.12.56.22,1.19.32,2,.07.56.12,1.17.15,1.86l0,.36c0,.23,0,.46,0,.69,0,.05,0,.41,0,.44,0,.47,0,.94-.07,1.4s-.1,1-.17,1.52a27.74,27.74,0,0,1-3.92,10.68,8.13,8.13,0,0,1-1.37,1.67,30.9,30.9,0,0,1-6.61,4.79l-.15.07c-.39.21-.78.39-1.17.57l-.32.15c-.25.12-.48.22-.73.32s-.74.28-1.1.4l-.16.06c-.3.11-.6.21-.91.3-.47.14-.92.25-1.38.36l-.24.06-.51.11c-.62.12-1.25.22-1.92.29l-.24,0C144.72,174.94,144,175,143.28,175Zm-.05-41.89a19.09,19.09,0,0,0-4.64.58,18.53,18.53,0,0,0,0,35.9,20.69,20.69,0,0,0,2.17.41l.31,0a17.1,17.1,0,0,0,1.88.12h.55c.44,0,.87,0,1.29-.07s.65-.06,1-.11l.29,0a19,19,0,0,0,4.9-1.47l.22-.11c.31-.14.64-.3,1-.47a18.5,18.5,0,0,0,9.3-13c.12-.69.19-1.31.24-1.92v-.17c0-.2,0-.35,0-.5a16,16,0,0,0,0-1.82h0s0-.48,0-.58a16.93,16.93,0,0,0-.34-2.17c0-.14-.06-.27-.1-.4l-.1-.37c-.12-.49-.27-1-.44-1.47l-.09-.23c-.07-.2-.13-.38-.21-.56a16.26,16.26,0,0,0-.91-1.94l-.4-.66c-.23-.4-.5-.8-.76-1.18l-.57-.76c-.29-.36-.58-.7-.89-1l-.19-.22-.35-.37a18.43,18.43,0,0,0-1.49-1.33c-.17-.14-.35-.27-.53-.4-.51-.38-.91-.64-1.33-.9s-.45-.28-.6-.37a18.13,18.13,0,0,0-4-1.7l-.54-.14a17,17,0,0,0-1.7-.35h0l-.6-.09a16.82,16.82,0,0,0-2.26-.15Z"/></svg>