<svg id="Capa_1" data-name="Capa 1" xmlns="http://www.w3.org/2000/svg" viewBox="0 0 117.79 117.79"><defs><style>.cls-1{fill:#a6d100;}.cls-2{fill:#6cab00;}.cls-3{fill:#17b5c8;}.cls-4{fill:#02809d;}.cls-5{fill:#5f7993;}.cls-6{fill:#3a5368;}</style></defs><path class="cls-1" d="M34.62,3.45A10.37,10.37,0,0,0,24.27,13.8v9.36a10.36,10.36,0,0,0,20.71,0V13.8A10.37,10.37,0,0,0,34.62,3.45Zm3.45,19.71a3.45,3.45,0,0,1-6.9,0V13.8a3.45,3.45,0,0,1,6.9,0Z"/><path class="cls-2" d="M43.19,8s-4.54-3.31-9.6-2.83A7.75,7.75,0,0,0,27.23,10a21.53,21.53,0,0,0-1.66,8.34c0,7,.95,13.19,9,15.2l-1.27,1.1-7.78-3.29-3.66-11,1.7-11.71L33.8,1.47l9,3.22Z"/><path class="cls-1" d="M63.89,43.84A10.37,10.37,0,0,0,53.53,54.2v9.35a10.36,10.36,0,1,0,20.71,0V54.2A10.37,10.37,0,0,0,63.89,43.84Zm3.45,19.71a3.46,3.46,0,0,1-6.91,0V54.2a3.46,3.46,0,0,1,6.91,0Z"/><path class="cls-2" d="M72.45,48.39s-4.54-3.31-9.6-2.83a7.75,7.75,0,0,0-6.36,4.8,21.59,21.59,0,0,0-1.65,8.34c0,7,.94,13.19,9,15.21L62.61,75l-7.77-3.28-3.67-11L52.87,49l10.19-7.15,9,3.22Z"/><path class="cls-3" d="M84.89,3.45A10.36,10.36,0,0,0,74.54,13.8v9.36a10.35,10.35,0,1,0,20.7,0V13.8A10.36,10.36,0,0,0,84.89,3.45Zm3.45,19.71a3.45,3.45,0,0,1-6.9,0V13.8a3.45,3.45,0,0,1,6.9,0Z"/><path class="cls-4" d="M93.45,8s-4.54-3.31-9.59-2.83A7.78,7.78,0,0,0,77.49,10a21.74,21.74,0,0,0-1.65,8.34c0,7,.94,13.19,9,15.2l-1.27,1.1-7.78-3.29-3.66-11,1.7-11.71L84.06,1.47l9,3.22Z"/><path class="cls-5" d="M13.8,43.84A10.37,10.37,0,0,0,3.45,54.2v9.35a10.36,10.36,0,1,0,20.71,0V54.2A10.37,10.37,0,0,0,13.8,43.84Zm3.46,19.71a3.46,3.46,0,0,1-6.91,0V54.2a3.46,3.46,0,0,1,6.91,0Z"/><path class="cls-6" d="M22.37,48.39s-4.54-3.31-9.6-2.83a7.74,7.74,0,0,0-6.36,4.8A21.57,21.57,0,0,0,4.75,58.7c0,7,1,13.19,9.05,15.21L12.53,75,4.75,71.72l-3.66-11L2.79,49,13,41.87l9,3.22Z"/><path class="cls-3" d="M3.45,2.49H14.84V34.61H9.14V8.37L1.78,6.9S.16,2.49,3.45,2.49Z"/><path class="cls-4" d="M2.61,5.14S12,2.77,12.35,6.9s0,27.23,0,27.23l3.3-3.07L14.84,2.49H2.61Z"/><path class="cls-5" d="M53.24,2.49H64.63V34.61h-5.7V8.37L51.57,6.9S50,2.49,53.24,2.49Z"/><path class="cls-6" d="M52.4,5.14s9.38-2.37,9.74,1.76,0,27.23,0,27.23l3.3-3.07L64.63,2.49H52.4Z"/><path class="cls-3" d="M3,83.25H14.43v32.11H8.74V89.13L1.38,87.66S-.25,83.25,3,83.25Z"/><path class="cls-4" d="M2.2,85.9s9.38-2.38,9.74,1.76,0,27.22,0,27.22l3.31-3.07-.82-28.56H2.2Z"/><path class="cls-5" d="M53.24,83.25H64.63v32.11h-5.7V89.13l-7.36-1.47S50,83.25,53.24,83.25Z"/><path class="cls-6" d="M52.4,85.9s9.38-2.38,9.74,1.76,0,27.22,0,27.22l3.3-3.07-.81-28.56H52.4Z"/><path class="cls-3" d="M103.37,42.38h11.39V74.49h-5.7V48.25l-7.36-1.46S100.08,42.38,103.37,42.38Z"/><path class="cls-4" d="M102.53,46s9.38-2.37,9.74,1.77,0,27.22,0,27.22l3.3-3.07-.81-28.56H102.53Z"/><path class="cls-1" d="M103.37,2.49h11.39V34.61h-5.7V8.37L101.7,6.9S100.08,2.49,103.37,2.49Z"/><path class="cls-2" d="M102.53,5.14s9.38-2.37,9.74,1.76,0,27.23,0,27.23l3.3-3.07-.81-28.57H102.53Z"/><path d="M0,54.22v9.35a13.81,13.81,0,1,0,27.61,0V54.22A13.81,13.81,0,1,0,0,54.22Zm24.16,0v9.35a10.36,10.36,0,1,1-20.71,0V54.22a10.36,10.36,0,1,1,20.71,0Z"/><path d="M6.9,54.22v9.35a6.91,6.91,0,0,0,13.81,0V54.22a6.91,6.91,0,0,0-13.81,0Zm10.35,0v9.35a3.45,3.45,0,0,1-6.9,0V54.22a3.45,3.45,0,0,1,6.9,0Z"/><path d="M64,77.38a13.82,13.82,0,0,0,13.8-13.81V54.22a13.81,13.81,0,1,0-27.61,0v9.35A13.83,13.83,0,0,0,64,77.38ZM53.6,54.22a10.36,10.36,0,1,1,20.71,0v9.35a10.36,10.36,0,1,1-20.71,0Z"/><path d="M64,70.47a6.91,6.91,0,0,0,6.9-6.9V54.22a6.91,6.91,0,0,0-13.81,0v9.35A6.91,6.91,0,0,0,64,70.47ZM60.51,54.22a3.45,3.45,0,0,1,6.9,0v9.35a3.45,3.45,0,1,1-6.9,0Z"/><path d="M112.61,77.38a5.19,5.19,0,0,0,5.18-5.18V45.59a5.19,5.19,0,0,0-5.18-5.18h-6.9a5.18,5.18,0,1,0,0,10.36h1.73V72.2A5.19,5.19,0,0,0,112.61,77.38Zm-6.9-30.06a1.73,1.73,0,0,1,0-3.46h6.9a1.74,1.74,0,0,1,1.73,1.73V72.2a1.73,1.73,0,1,1-3.45,0V49a1.73,1.73,0,0,0-1.73-1.72Z"/><path d="M55.44,10.35h1.73V31.79a5.18,5.18,0,0,0,10.35,0V5.18A5.18,5.18,0,0,0,62.35,0H55.44a5.18,5.18,0,0,0,0,10.35Zm0-6.9h6.91a1.72,1.72,0,0,1,1.72,1.73V31.79a1.73,1.73,0,0,1-3.45,0V8.63A1.72,1.72,0,0,0,58.89,6.9H55.44a1.73,1.73,0,0,1,0-3.45Z"/><path d="M34.62,0a13.81,13.81,0,0,0-13.8,13.8v9.36a13.81,13.81,0,0,0,27.61,0V13.8A13.82,13.82,0,0,0,34.62,0ZM45,23.16a10.36,10.36,0,0,1-20.71,0V13.8A10.36,10.36,0,0,1,45,13.8Z"/><path d="M34.62,6.9a6.91,6.91,0,0,0-6.9,6.9v9.36a6.91,6.91,0,0,0,13.81,0V13.8A6.92,6.92,0,0,0,34.62,6.9Zm3.45,16.26a3.45,3.45,0,0,1-6.9,0V13.8a3.45,3.45,0,0,1,6.9,0Z"/><path d="M112.61,0h-6.9a5.18,5.18,0,0,0,0,10.35h1.73V31.79a5.18,5.18,0,0,0,10.35,0V5.18A5.18,5.18,0,0,0,112.61,0Zm1.73,31.79a1.73,1.73,0,0,1-3.45,0V8.63a1.72,1.72,0,0,0-1.73-1.73h-3.45a1.73,1.73,0,0,1,0-3.45h6.9a1.73,1.73,0,0,1,1.73,1.73Z"/><path d="M5.18,10.35H6.9V31.79a5.18,5.18,0,0,0,10.35,0V5.18A5.18,5.18,0,0,0,12.08,0H5.18a5.18,5.18,0,1,0,0,10.35Zm0-6.9h6.9A1.72,1.72,0,0,1,13.8,5.18V31.79a1.73,1.73,0,0,1-3.45,0V8.63A1.72,1.72,0,0,0,8.63,6.9H5.18a1.73,1.73,0,1,1,0-3.45Z"/><path d="M84.89,0a13.81,13.81,0,0,0-13.8,13.8v9.36a13.8,13.8,0,1,0,27.6,0V13.8A13.81,13.81,0,0,0,84.89,0ZM95.24,23.16a10.35,10.35,0,1,1-20.7,0V13.8a10.35,10.35,0,1,1,20.7,0Z"/><path d="M84.89,6.9A6.91,6.91,0,0,0,78,13.8v9.36a6.9,6.9,0,0,0,13.8,0V13.8A6.91,6.91,0,0,0,84.89,6.9Zm3.45,16.26a3.45,3.45,0,0,1-6.9,0V13.8a3.45,3.45,0,0,1,6.9,0Z"/><path d="M62.35,80.83H55.44a5.18,5.18,0,0,0,0,10.35h1.73v21.43a5.18,5.18,0,1,0,10.35,0V86A5.18,5.18,0,0,0,62.35,80.83Zm1.72,31.78a1.73,1.73,0,1,1-3.45,0V89.45a1.72,1.72,0,0,0-1.73-1.72H55.44a1.73,1.73,0,0,1,0-3.45h6.91A1.72,1.72,0,0,1,64.07,86Z"/><path d="M12.08,80.83H5.18a5.18,5.18,0,1,0,0,10.35H6.9v21.43a5.18,5.18,0,1,0,10.35,0V86A5.18,5.18,0,0,0,12.08,80.83Zm1.72,31.78a1.73,1.73,0,1,1-3.45,0V89.45a1.72,1.72,0,0,0-1.72-1.72H5.18a1.73,1.73,0,1,1,0-3.45h6.9A1.72,1.72,0,0,1,13.8,86Z"/></svg>