<?xml version="1.0" encoding="UTF-8" standalone="no"?>
<svg
   xmlns:dc="http://purl.org/dc/elements/1.1/"
   xmlns:cc="http://creativecommons.org/ns#"
   xmlns:rdf="http://www.w3.org/1999/02/22-rdf-syntax-ns#"
   xmlns:svg="http://www.w3.org/2000/svg"
   xmlns="http://www.w3.org/2000/svg"
   xmlns:sodipodi="http://sodipodi.sourceforge.net/DTD/sodipodi-0.dtd"
   xmlns:inkscape="http://www.inkscape.org/namespaces/inkscape"
   id="Capa_1"
   data-name="Capa 1"
   viewBox="0 0 150.96 160.94"
   version="1.1"
   sodipodi:docname="launcher-editor.svg"
   inkscape:version="0.92.5 (2060ec1f9f, 2020-04-08)">
  <metadata
     id="metadata9251">
    <rdf:RDF>
      <cc:Work
         rdf:about="">
        <dc:format>image/svg+xml</dc:format>
        <dc:type
           rdf:resource="http://purl.org/dc/dcmitype/StillImage" />
      </cc:Work>
    </rdf:RDF>
  </metadata>
  <sodipodi:namedview
     pagecolor="#ffffff"
     bordercolor="#666666"
     borderopacity="1"
     objecttolerance="10"
     gridtolerance="10"
     guidetolerance="10"
     inkscape:pageopacity="0"
     inkscape:pageshadow="2"
     inkscape:window-width="1920"
     inkscape:window-height="1016"
     id="namedview9249"
     showgrid="false"
     inkscape:zoom="5.8655399"
     inkscape:cx="75.480003"
     inkscape:cy="80.470001"
     inkscape:window-x="0"
     inkscape:window-y="27"
     inkscape:window-maximized="1"
     inkscape:current-layer="Capa_1" />
  <defs
     id="defs9152">
    <style
       id="style9150">.cls-1{fill:#17b5c8;}.cls-2{fill:#02809d;}.cls-3{fill:none;}.cls-4{fill:#a6d100;}.cls-5{fill:#6cab00;}.cls-6{fill:#5f7993;}.cls-7{fill:#3a5368;}</style>
  </defs>
  <rect
     style="opacity:1;fill:#ffffff;fill-opacity:1;fill-rule:nonzero;stroke:none;stroke-width:9.72282028;stroke-linecap:round;stroke-linejoin:round;stroke-miterlimit:4;stroke-dasharray:none;stroke-dashoffset:0;stroke-opacity:1"
     id="rect9811"
     width="113.03308"
     height="107.91846"
     x="2.2163348"
     y="26.766504"
     ry="13.540492" />
  <path
     class="cls-1"
     d="M135.21,133.7,100.58,99.59l2.21-10.12L90.38,78.17H79.55L90.62,90.92l-1.73,7.83-11.06.84L68,91.8l1.85,11,7.29,7.73L91,112.52l33.27,32.75,3.37,9.28,8.68,4.7,11-6.75v-13Zm3.16,14.7a2.93,2.93,0,0,1-4.14-4.14,2.62,2.62,0,0,1,1.92-.84,3.57,3.57,0,0,1,2.22.84,2.95,2.95,0,0,1,0,4.14Z"
     id="path9154" />
  <path
     class="cls-2"
     d="M128.88,147a18.67,18.67,0,0,0-4.91-8.5c-8.39-8.39-27.27-27.2-30-29.63a6.3,6.3,0,0,0-4.77-1.47,18.64,18.64,0,0,1-11.54-2.79c-6.3-4.17-6.46-9.72-6.46-9.72l-3.87-2.23,2.89,12.6,14,7.26,3.49-1.94h0L124,145.75l5.46,10.73L134,156C131.33,154.51,129.74,150.32,128.88,147Z"
     id="path9156" />
  <path
     d="M136.2,160.94a14.42,14.42,0,0,1-10.28-4.26,14.72,14.72,0,0,1-4.27-10l-32.2-32.2a20,20,0,0,1-18.73-5.35c-5.8-5.8-7.34-14-4.25-22.4l.61-1.67L77.86,95.83A5.64,5.64,0,0,0,83,97.37h0A5.64,5.64,0,0,0,87.36,93h0a5.64,5.64,0,0,0-1.54-5.09L75,77.09l1.67-.61a24.27,24.27,0,0,1,8.36-1.56,19.39,19.39,0,0,1,14,5.85,20.09,20.09,0,0,1,5.35,18.72l32.2,32.21a14.74,14.74,0,0,1,10,4.26,14.63,14.63,0,0,1,0,20.72,14.85,14.85,0,0,1-10.45,4.26Zm-9.45-16.2-.08.55a10.39,10.39,0,0,0,2.78,7.89,9.68,9.68,0,1,0,13.69-13.7,10,10,0,0,0-7.06-2.82c-.49,0-.79,0-.83,0l-.55.07-.4-.39-35.51-35.5.27-.69A15.12,15.12,0,0,0,84.79,79.84h0l4.54,4.54a10.57,10.57,0,0,1,2.89,9.56h0a10.55,10.55,0,0,1-8.31,8.31h0a10.57,10.57,0,0,1-9.56-2.89l-4.53-4.53a15.14,15.14,0,0,0,15.1,15.22,15,15,0,0,0,5.25-1l.69-.26Z"
     id="path9158" />
  <path
     d="M136.21,153.18a6.64,6.64,0,0,1-4.74-2,6.84,6.84,0,1,1,9.67,0,7.13,7.13,0,0,1-4.93,2Zm-.06-9.76a2.62,2.62,0,0,0-1.92.84,2.95,2.95,0,0,0,0,4.14,3,3,0,0,0,4.14,0,2.95,2.95,0,0,0,0-4.14A3.57,3.57,0,0,0,136.15,143.42Z"
     id="path9160" />
  <rect
     x="108.94"
     y="118.97"
     width="4.97"
     height="4.97"
     transform="translate(-53.25 114.36) rotate(-45)"
     id="rect9162" />
  <rect
     x="116.68"
     y="126.69"
     width="4.97"
     height="4.97"
     transform="translate(-56.44 122.07) rotate(-44.99)"
     id="rect9164" />
  <rect
     x="101.61"
     y="111.61"
     width="4.97"
     height="4.97"
     transform="translate(-50.19 107.04) rotate(-45.01)"
     id="rect9166" />
  <polygon
     class="cls-3"
     points="80.92 94.89 84.21 94.23 84.36 93.51 79.55 93.51 80.92 94.89"
     id="polygon9168" />
  <path
     class="cls-4"
     d="M86.62,34.29A23,23,0,0,1,107,44.42l12.6-12.66L97.07,9.39V20.18a2.75,2.75,0,0,1-2.76,2.76h0C79,22.83,72,29.15,71.79,29.33l-.17.15A35.88,35.88,0,0,0,59,50.63a38.61,38.61,0,0,0-.62,4.66C62.38,46.08,73.53,34.67,86.62,34.29Z"
     id="path9170" />
  <path
     class="cls-5"
     d="M78.67,42.22A33.65,33.65,0,0,1,94.75,40.6a2.75,2.75,0,0,1,2.32,2.72v11L107,44.42A23,23,0,0,0,86.62,34.29c-13.09.38-24.24,11.79-28.27,21-.08,1.07-.13,2.14-.13,3.21C63.87,50.47,70.74,45,78.67,42.22Z"
     id="path9172" />
  <path
     class="cls-6"
     d="M64.92,64.51h24.3c-1.08-2.8-1.06-7.93-1.06-7.93H71.72C69,58.74,64.92,64.51,64.92,64.51Z"
     id="path9174" />
  <path
     d="M53.07,63.58a.69.69,0,0,0,0,.13l.58,3.36a2.76,2.76,0,0,0,5.08,1l1.76-2.93c5.39-9,12.12-14.91,20-17.67A29.14,29.14,0,0,1,91.56,45.8V61A2.75,2.75,0,0,0,96.27,63L125.41,33.7a2.76,2.76,0,0,0,0-3.9L96.26.8a2.76,2.76,0,0,0-4.7,2V17.47c-14.9.59-22.35,6.77-23.49,7.79a41.77,41.77,0,0,0-14.51,24.3,42.79,42.79,0,0,0-.49,14Zm25.1-41.36,15.77-3V6.1l27.29,24.27L107.52,45.29c.36.6.54,1,.54,1L96.6,57.16l-1.77,1.92v-.23l-1.29,1.23.17-15.59s-1.44-2.22-9.82-1.39a46.86,46.86,0,0,0-16.46,8,60.27,60.27,0,0,0-9.56,14.45l-.6-3.14c-.14.22-.28.44-.41.66C56.85,63.09,52.35,30,78.17,22.22Z"
     id="path9176" />
  <path
     d="M67.42,51.12a46.86,46.86,0,0,1,16.46-8c-1.38.14-2.93.35-4.71.68C74.69,44.6,70.7,47.6,67.42,51.12Z"
     id="path9178" />
  <path
     d="M57.26,62.43l-.41-2.17a19.11,19.11,0,0,1,1.5-5A38.61,38.61,0,0,1,59,50.63,35.88,35.88,0,0,1,71.62,29.48l.17-.15c.19-.18,7.2-6.5,22.5-6.39h0a2.75,2.75,0,0,0,2.76-2.76V9.39l22.49,22.37L107,44.42c.22.32.41.61.56.87l13.71-14.92L93.94,6.1V19.21l-15.77,3C52.35,30,56.85,63.09,56.85,63.09,57,62.87,57.12,62.65,57.26,62.43Z"
     id="path9180" />
  <polygon
     points="94.83 59.08 96.6 57.16 94.82 58.85 94.83 59.08"
     id="polygon9182" />
  <path
     d="M108.06,46.26s-.18-.37-.54-1L96.6,57.16Z"
     id="path9184" />
  <path
     d="M83.88,43.1c8.38-.83,9.82,1.39,9.82,1.39l-.17,15.59,1.29-1.23-1-17.31A43.11,43.11,0,0,0,83.88,43.1Z"
     id="path9186" />
  <path
     d="M57.26,62.43l.6,3.14a60.27,60.27,0,0,1,9.56-14.45A42.46,42.46,0,0,0,57.26,62.43Z"
     id="path9188" />
  <path
     d="M97.07,54.36v-11a2.75,2.75,0,0,0-2.32-2.72,33.65,33.65,0,0,0-16.08,1.62C70.74,45,63.87,50.47,58.22,58.5c0-1.07.05-2.14.13-3.21a19.11,19.11,0,0,0-1.5,5l.41,2.17A42.46,42.46,0,0,1,67.42,51.12c3.28-3.52,7.27-6.52,11.75-7.34,1.78-.33,3.33-.54,4.71-.68a43.11,43.11,0,0,1,9.89-1.56l1,17.31,1.78-1.69,10.92-11.87c-.15-.26-.34-.55-.56-.87Z"
     id="path9190" />
  <path
     d="M13.79,130.94a8.28,8.28,0,0,1-8.28-8.27V38.6a8.28,8.28,0,0,1,8.28-8.27H32.86a2.76,2.76,0,0,0,0-5.52H13.79A13.81,13.81,0,0,0,0,38.6v84.07a13.81,13.81,0,0,0,13.79,13.79h90.26a13.8,13.8,0,0,0,3-.35l-5.17-5.17Z"
     id="path9192" />
  <path
     d="M117.84,80a2.76,2.76,0,0,0-5.51,0v23.4l5.51,5.52Z"
     id="path9194" />
  <path
     class="cls-6"
     d="M64.15,104.59H24.81a5.25,5.25,0,0,0,0,7.93H70.25c-.52-.44-1-.9-1.53-1.4A22.44,22.44,0,0,1,64.15,104.59Z"
     id="path9196" />
  <path
     class="cls-7"
     d="M23,108.55a5.48,5.48,0,0,1,1.81-4H23a4,4,0,0,0,0,7.93h1.83A5.52,5.52,0,0,1,23,108.55Z"
     id="path9198" />
  <path
     class="cls-6"
     d="M65.69,80.58H24.81a5.25,5.25,0,0,0,0,7.93H63c.24-.92.52-1.84.85-2.77Z"
     id="path9200" />
  <polygon
     class="cls-6"
     points="66.62 80.58 74.55 88.51 82.45 88.51 74.52 80.58 66.62 80.58"
     id="polygon9202" />
  <path
     class="cls-7"
     d="M23,84.55a5.52,5.52,0,0,1,1.81-4H23a4,4,0,0,0,0,7.93h1.83A5.5,5.5,0,0,1,23,84.55Z"
     id="path9204" />
  <path
     d="M23,115.81s-5.49-3.59-5.58-3.86S16,105.71,16,105.71l7.45-4.41H62.92c-.15-.57-.31-1.13-.42-1.71H23a9,9,0,0,0,0,17.93H81.25a22.68,22.68,0,0,1-5.73-1.71Z"
     id="path9206" />
  <path
     d="M16,105.71s1.33,6,1.42,6.24S23,115.81,23,115.81H75.52a23.13,23.13,0,0,1-5.27-3.29H24.81a9,9,0,0,0,4.46,2.21,11.31,11.31,0,0,1-2.05.2c-4.6,0-8.33-2.86-8.33-6.38s3.73-6.38,8.33-6.38a10.47,10.47,0,0,1,2.05.21,8.88,8.88,0,0,0-4.46,2.21H64.15a21.72,21.72,0,0,1-1.23-3.29H23.41Z"
     id="path9208" />
  <path
     d="M19,108.55a4,4,0,0,1,4-4h1.83a8.88,8.88,0,0,1,4.46-2.21,10.47,10.47,0,0,0-2.05-.21c-4.6,0-8.33,2.86-8.33,6.38s3.73,6.38,8.33,6.38a11.31,11.31,0,0,0,2.05-.2,9,9,0,0,1-4.46-2.21H23A4,4,0,0,1,19,108.55Z"
     id="path9210" />
  <polygon
     points="77.83 91.8 79.55 93.51 84.36 93.51 84.7 91.8 77.83 91.8"
     id="polygon9212" />
  <path
     d="M106.29,86.79a8.77,8.77,0,0,0,.3-2.24,9,9,0,0,0-9-9h-.48a22.9,22.9,0,0,1,9.14,11.21Z"
     id="path9214" />
  <path
     d="M23,91.8S17.47,88.22,17.38,88,16,81.7,16,81.7l7.45-4.41H71.23L69.89,76l-.38-.37H23a9,9,0,0,0,0,17.93H62.15c0-.57.09-1.14.17-1.71Z"
     id="path9216" />
  <polygon
     points="84.88 90.93 82.45 88.51 74.55 88.51 77.83 91.8 84.7 91.8 84.88 90.93"
     id="polygon9218" />
  <path
     d="M24.81,88.51a8.92,8.92,0,0,0,4.46,2.21,10.48,10.48,0,0,1-2.05.2c-4.6,0-8.33-2.85-8.33-6.37s3.73-6.38,8.33-6.38a10.48,10.48,0,0,1,2.05.2,8.92,8.92,0,0,0-4.46,2.21H65.69l.25-.67.68.67h7.9l-3.29-3.29H23.41L16,81.7s1.33,6,1.42,6.25S23,91.8,23,91.8H62.32A27.6,27.6,0,0,1,63,88.51Z"
     id="path9220" />
  <path
     d="M19,84.55a4,4,0,0,1,4-4h1.83a8.92,8.92,0,0,1,4.46-2.21,10.48,10.48,0,0,0-2.05-.2c-4.6,0-8.33,2.85-8.33,6.38s3.73,6.37,8.33,6.37a10.48,10.48,0,0,0,2.05-.2,8.92,8.92,0,0,1-4.46-2.21H23A4,4,0,0,1,19,84.55Z"
     id="path9222" />
  <path
     class="cls-3"
     d="M49.77,64.51l0-.22,0-.21a48.51,48.51,0,0,1-.37-7.5A27.47,27.47,0,0,0,49.77,64.51Z"
     id="path9224" />
  <path
     class="cls-6"
     d="M49.33,56.58H24.81a5.25,5.25,0,0,0,0,7.93h25A27.47,27.47,0,0,1,49.33,56.58Z"
     id="path9226" />
  <path
     class="cls-7"
     d="M19,60.54a4,4,0,0,0,4,4h1.83a5.25,5.25,0,0,1,0-7.93H23A4,4,0,0,0,19,60.54Z"
     id="path9228" />
  <path
     d="M79.29,51.58a30,30,0,0,0-7.57,5c2.7-2.17,14.22-1.13,14.22-1.13l2.22,1.13v-5Z"
     id="path9230" />
  <path
     d="M71.72,56.58H88.16l-2.22-1.13S74.42,54.41,71.72,56.58Z"
     id="path9232" />
  <path
     d="M79.94,68l-15-3.47c-.51.75-1,1.53-1.49,2.34l-1.6,2.66h35.8a9,9,0,0,0,9-9,8.85,8.85,0,0,0-.41-2.69l-7.5,7.53A6.14,6.14,0,0,1,92,66.73a6.18,6.18,0,0,1-2.74-2.22C90.3,67.31,79.94,68,79.94,68Z"
     id="path9234" />
  <path
     d="M79.94,68s10.36-.67,9.28-3.47H64.92Z"
     id="path9236" />
  <path
     d="M21.21,66.92,16,60.54l6.36-6.38,3.48.1a10.17,10.17,0,0,1,3.43.1L48,54.89l1.29,1.69a48.86,48.86,0,0,1,.44-5H23a9,9,0,0,0,0,17.93H51a6.17,6.17,0,0,1-.65-1.85l-.55-3.15S44,68.09,43.46,68,21.21,66.92,21.21,66.92Z"
     id="path9238" />
  <path
     d="M29.27,66.72a11.31,11.31,0,0,1-2.05.2c-4.6,0-8.33-2.86-8.33-6.38,0-3.15,3-5.76,6.91-6.28l-3.48-.1L16,60.54l5.25,6.38S42.9,67.86,43.46,68s6.31-3.47,6.31-3.47h-25A9,9,0,0,0,29.27,66.72Z"
     id="path9240" />
  <path
     d="M29.23,54.36h0a8.8,8.8,0,0,0-4.46,2.21H49.33L48,54.89Z"
     id="path9242" />
  <path
     d="M27.22,54.16a11,11,0,0,0-1.42.1l3.43.1A11,11,0,0,0,27.22,54.16Z"
     id="path9244" />
  <path
     d="M29.23,54.36l-3.43-.1c-3.92.52-6.91,3.13-6.91,6.28,0,3.52,3.73,6.38,8.33,6.38a11.31,11.31,0,0,0,2.05-.2,9,9,0,0,1-4.46-2.21H23a4,4,0,0,1,0-7.93h1.83a8.8,8.8,0,0,1,4.46-2.21Z"
     id="path9246" />
</svg>
