<svg id="Capa_1" data-name="Capa 1" xmlns="http://www.w3.org/2000/svg" viewBox="0 0 125.66 125.24"><defs><style>.cls-1{fill:#a6d100;}.cls-2{fill:#6cab00;}.cls-3{fill:#17b5c8;}.cls-4{fill:#02809d;}.cls-5{fill:#5f7993;}.cls-6{fill:#3a5368;}.cls-7{fill:none;stroke:#000;stroke-miterlimit:10;stroke-width:4.5px;}</style></defs><path class="cls-1" d="M123.41,98H123a25,25,0,0,0-25,25h25.42Z"/><path class="cls-2" d="M123,121.7s-21.77-6.52-15.93-17.93l-6.87,9.06-2,8.87Z"/><path class="cls-3" d="M123,74.06h.45v-24H123A72.9,72.9,0,0,0,50.06,123H74A48.93,48.93,0,0,1,123,74.06Z"/><path class="cls-4" d="M75.25,118.5s-23.78-13.3-9.14-39l-7.35,8.91L51.13,110.5v10.75L71.28,123Z"/><path class="cls-5" d="M123,26.21h.45V5.1l-2.93-2.83A120.74,120.74,0,0,0,2.22,123h24A96.78,96.78,0,0,1,123,26.21Z"/><path class="cls-6" d="M26.31,117.9s-19.22-10-10.48-50.66L6.08,92.57,2.22,123l22.55-.37Z"/><path class="cls-7" d="M123,26.21h.45V5.1l-2.93-2.83A120.75,120.75,0,0,0,2.25,120.06,2.85,2.85,0,0,0,5.09,123h18.3a2.83,2.83,0,0,0,2.83-2.73A96.77,96.77,0,0,1,123,26.21Z"/><path class="cls-7" d="M123,74.06h.45V53l-3-2.84A72.91,72.91,0,0,0,50.12,120,2.85,2.85,0,0,0,53,123H71.28a2.83,2.83,0,0,0,2.82-2.69A48.93,48.93,0,0,1,123,74.06Z"/><path class="cls-7" d="M123.41,101l-3.15-2.83a25,25,0,0,0-22.07,21.63A2.85,2.85,0,0,0,101,123h19.56a2.84,2.84,0,0,0,2.84-2.84Z"/></svg>