<svg id="Capa_1" data-name="Capa 1" xmlns="http://www.w3.org/2000/svg" viewBox="0 0 130.22 87.27"><defs><style>.cls-1{fill:#5f7993;}.cls-2{fill:#3a5368;}.cls-3{fill:#a6d100;}.cls-4{fill:#6cab00;}.cls-5{fill:none;}.cls-6{fill:#02809d;}.cls-7{fill:#17b5c8;}</style></defs><path class="cls-1" d="M125.14,25.59H30.37v4.67a.58.58,0,0,1-.58.58h-4.2V82.19a.59.59,0,0,0,.59.58h99a.58.58,0,0,0,.58-.58v-56A.59.59,0,0,0,125.14,25.59Z"/><path class="cls-2" d="M23.3,78.71h92.76A5.67,5.67,0,0,0,121.73,73V23.77h-4V74.18H23.3Z"/><path d="M125.14,21.09H30.37v4.5h94.77a.59.59,0,0,1,.58.59v56a.58.58,0,0,1-.58.58h-99a.59.59,0,0,1-.59-.58V30.84h-4.5V82.19a5.09,5.09,0,0,0,5.09,5.08h99a5.09,5.09,0,0,0,5.08-5.08v-56A5.1,5.1,0,0,0,125.14,21.09Z"/><path class="cls-3" d="M114.59,15.05h-99a.58.58,0,0,0-.58.58v56a.58.58,0,0,0,.58.59h99a.59.59,0,0,0,.59-.59v-56A.59.59,0,0,0,114.59,15.05ZM30.37,30.26a.58.58,0,0,1-.58.58h-13a.58.58,0,0,1-.59-.58v-13a.58.58,0,0,1,.59-.58h13a.58.58,0,0,1,.58.58Z"/><path class="cls-4" d="M12.74,68H105.5a5.67,5.67,0,0,0,5.67-5.67V13h-4V63.44H12.74Z"/><path d="M114.59,76.73h-99a5.09,5.09,0,0,1-5.08-5.09v-56a5.09,5.09,0,0,1,5.08-5.08h99a5.1,5.1,0,0,1,5.09,5.08v56A5.1,5.1,0,0,1,114.59,76.73Zm-99-61.68a.58.58,0,0,0-.58.58v56a.59.59,0,0,0,.58.59h99a.6.6,0,0,0,.59-.59v-56a.59.59,0,0,0-.59-.58Z"/><rect class="cls-5" x="16.23" y="16.7" width="14.14" height="14.14" rx="0.58"/><path class="cls-6" d="M104,4.5h-5.8a6.42,6.42,0,0,1,1.31,3.89V57a6.44,6.44,0,0,1-2,4.7H104a.58.58,0,0,0,.59-.58v-56A.58.58,0,0,0,104,4.5Z"/><path class="cls-7" d="M98.24,4.5H5.08a.58.58,0,0,0-.58.58v56a.58.58,0,0,0,.58.58H97.51a6.44,6.44,0,0,0,2-4.7V8.39A6.42,6.42,0,0,0,98.24,4.5ZM30.37,30.26a.58.58,0,0,1-.58.58h-13a.58.58,0,0,1-.59-.58v-13a.58.58,0,0,1,.59-.58h13a.58.58,0,0,1,.58.58Z"/><path d="M104,66.18h-99A5.09,5.09,0,0,1,0,61.1v-56A5.09,5.09,0,0,1,5.08,0h99a5.09,5.09,0,0,1,5.09,5.08v56A5.09,5.09,0,0,1,104,66.18ZM5.08,4.5a.58.58,0,0,0-.58.58v56a.58.58,0,0,0,.58.58h99a.58.58,0,0,0,.59-.58v-56A.58.58,0,0,0,104,4.5Z"/><path d="M29.79,35.34h-13a5.09,5.09,0,0,1-5.09-5.08v-13a5.09,5.09,0,0,1,5.09-5.08h13a5.09,5.09,0,0,1,5.08,5.08v13A5.09,5.09,0,0,1,29.79,35.34Zm-13-18.64a.58.58,0,0,0-.59.58v13a.58.58,0,0,0,.59.58h13a.58.58,0,0,0,.58-.58v-13a.58.58,0,0,0-.58-.58Z"/><path d="M94.43,27.85H54.56a2.25,2.25,0,0,1,0-4.5H94.43a2.25,2.25,0,0,1,0,4.5Z"/><path d="M81.45,37.08H54.56a2.25,2.25,0,0,1,0-4.5H81.45a2.25,2.25,0,0,1,0,4.5Z"/><path d="M94.43,46.32H54.56a2.25,2.25,0,0,1,0-4.5H94.43a2.25,2.25,0,0,1,0,4.5Z"/></svg>