<svg id="Capa_1" data-name="Capa 1" xmlns="http://www.w3.org/2000/svg" viewBox="0 0 123.49 129.44"><defs><style>.cls-1{fill:#5f7993;}.cls-2{fill:#3a5368;}.cls-3{fill:#17b5c8;}.cls-4{fill:#02809d;}.cls-5{fill:#6cab00;}.cls-6{fill:#a6d100;}</style></defs><polygon class="cls-1" points="31.48 29.13 45.27 23.15 61.06 27.95 69.8 39.55 69.8 70.81 23.42 70.81 23.42 60.73 41.74 60.22 41.74 41.4 41.74 31.82 31.99 31.82 31.48 29.13"/><path class="cls-2" d="M39.52,31.82s25.41-4.37,21,39H70.81L70,42.41,63.25,28.79,47.62,23.15,36.86,24.42,30.64,31Z"/><polygon class="cls-3" points="66.44 79.55 80.9 79.55 80.9 113.16 80.9 118.54 86.44 126.1 61.06 126.1 66.78 120.39 66.44 79.55"/><path class="cls-4" d="M61.74,122.91s19.16.84,19.16-9.75l2,8.17,2.66,6.45-24.54-.84Z"/><rect class="cls-4" x="12.32" y="70.81" width="57.48" height="8.91"/><path class="cls-3" d="M11.58,70.81h48.9a4.45,4.45,0,0,1,4.45,4.45v0a4.45,4.45,0,0,1-4.45,4.45H11.58a0,0,0,0,1,0,0V70.81A0,0,0,0,1,11.58,70.81Z"/><rect class="cls-5" x="73.84" y="2.91" width="15.97" height="11.81"/><path class="cls-6" d="M78.51,2.91h7.9a0,0,0,0,1,0,0V14.72a0,0,0,0,1,0,0h-7.9a5.9,5.9,0,0,1-5.9-5.9v0a5.9,5.9,0,0,1,5.9-5.9Z" transform="translate(159.02 17.63) rotate(-180)"/><path d="M115.79,28.54a1.9,1.9,0,1,0-2.64,2.72,21.42,21.42,0,0,1,6.55,15.48V76.88a.64.64,0,0,1-.63.63H72.18V46.74A25.38,25.38,0,0,0,60.13,25.15h38a21.46,21.46,0,0,1,8.28,1.65,1.9,1.9,0,0,0,1.46-3.5,25.16,25.16,0,0,0-9.74-1.94H74.7V17H88.84A3.16,3.16,0,0,0,92,13.86V4.93a3.17,3.17,0,0,0-3.16-3.16H74.69a1.89,1.89,0,0,0-3.78.13V21.36H46.77a25.43,25.43,0,0,0-18.58,8.13H4.42A4.42,4.42,0,0,0,0,33.91V57.7a4.42,4.42,0,0,0,4.42,4.42h17v6.23H12.94a3.41,3.41,0,0,0-3.41,3.41v6.13a3.41,3.41,0,0,0,3.41,3.41H64.61v33.08a8.56,8.56,0,0,1-2,5.48L59,124.26a3.15,3.15,0,0,0,2.42,5.18H85.62a3.15,3.15,0,0,0,2.43-5.18l-3.67-4.4a8.56,8.56,0,0,1-2-5.48v-2a1.9,1.9,0,0,0-3.79,0v2a12.34,12.34,0,0,0,2.87,7.91l2.8,3.36H62.72l2.81-3.36a12.34,12.34,0,0,0,2.87-7.91V81.3H78.6v22a1.9,1.9,0,1,0,3.79,0v-22h36.68a4.43,4.43,0,0,0,4.42-4.42V46.74a25.14,25.14,0,0,0-7.7-18.2ZM88.21,13.22H74.7V5.56H88.21ZM38,33.28,22.07,47.37a.64.64,0,0,1-.84,0L5.34,33.28ZM3.79,57.7V37L18.72,50.2a4.44,4.44,0,0,0,5.87,0L39.52,37V57.7a.64.64,0,0,1-.64.63H4.42a.63.63,0,0,1-.63-.63Zm9.53,19.81V72.14h37a1.9,1.9,0,0,0,0-3.79H25.21V62.12H38.88a4.43,4.43,0,0,0,4.43-4.42V33.91a4.44,4.44,0,0,0-4.43-4.43H33.83A21.59,21.59,0,0,1,68.39,46.74V68.35H59.33a1.9,1.9,0,0,0,0,3.79h9.06v5.37Z"/></svg>