<svg id="Capa_1" data-name="Capa 1" xmlns="http://www.w3.org/2000/svg" viewBox="0 0 358.08 325.42"><defs><style>.cls-1{fill:#a6d100;}.cls-2{fill:#6cab00;}.cls-3{fill:#17b5c8;}.cls-4{fill:#02809d;}.cls-5{fill:#5f7993;}.cls-6{fill:#3a5368;}.cls-7,.cls-8{fill:none;}.cls-7{stroke:#000;stroke-miterlimit:10;stroke-width:4.5px;}.cls-9{fill:#1d1d1b;}</style></defs><polygon class="cls-1" points="192.4 265.44 178.67 251.71 180.22 244.87 186.51 243.62 214.32 271.19 186.35 299.02 179.4 296.57 179.16 290.28 192.15 276.8 155.79 276.63 151.7 271.89 153.17 266.14 192.4 265.44"/><path class="cls-2" d="M155.13,271.19a5.22,5.22,0,0,1,3.8-5,5.15,5.15,0,0,0-1.43-.21,5.23,5.23,0,1,0,0,10.46,5.15,5.15,0,0,0,1.43-.2A5.23,5.23,0,0,1,155.13,271.19Z"/><path class="cls-2" d="M182.68,247.78a5.23,5.23,0,0,1,6.24-.87,5.23,5.23,0,0,0-8.26-1.15,5.21,5.21,0,0,0,1.15,8.26A5.23,5.23,0,0,1,182.68,247.78Z"/><path class="cls-2" d="M182.68,294.61a5.25,5.25,0,0,1-.87-6.25,5.28,5.28,0,0,0-1.15.87,5.23,5.23,0,0,0,7.39,7.4,5.1,5.1,0,0,0,.87-1.16A5.23,5.23,0,0,1,182.68,294.61Z"/><path d="M184.37,300.82a7.74,7.74,0,0,1-5.47-13.21l9-9H157a7.41,7.41,0,1,1,0-14.82h30.9l-9-9a7.74,7.74,0,0,1,10.94-10.95l26,26a1.92,1.92,0,0,1,0,2.73l-26,26A7.68,7.68,0,0,1,184.37,300.82ZM157,267.66a3.54,3.54,0,1,0,0,7.07h35.57A1.93,1.93,0,0,1,194,278l-12.31,12.32a4,4,0,0,0,0,5.47,3.87,3.87,0,0,0,5.47,0l24.62-24.63-24.62-24.62a3.87,3.87,0,0,0-5.47,5.47L194,264.35a2,2,0,0,1,.56,1.37,2,2,0,0,1-.14.74,1.93,1.93,0,0,1-1.79,1.2Z"/><polygon class="cls-3" points="192.4 71.47 178.67 57.74 180.22 50.9 186.51 49.65 214.32 77.22 186.35 105.05 179.4 102.6 179.16 96.31 192.15 82.82 155.79 82.66 151.7 77.92 153.17 72.17 192.4 71.47"/><path class="cls-4" d="M155.13,77.22a5.24,5.24,0,0,1,3.8-5,5.55,5.55,0,0,0-1.43-.2,5.23,5.23,0,1,0,0,10.46,5.15,5.15,0,0,0,1.43-.2A5.23,5.23,0,0,1,155.13,77.22Z"/><path class="cls-4" d="M182.68,53.81a5.23,5.23,0,0,1,6.24-.87,5.23,5.23,0,0,0-8.26-1.15,5.21,5.21,0,0,0,0,7.39,5.28,5.28,0,0,0,1.15.87A5.23,5.23,0,0,1,182.68,53.81Z"/><path class="cls-4" d="M182.68,100.63a5.23,5.23,0,0,1-.87-6.24,5.28,5.28,0,0,0-1.15.87,5.23,5.23,0,0,0,7.39,7.4,5.58,5.58,0,0,0,.87-1.16A5.23,5.23,0,0,1,182.68,100.63Z"/><path d="M184.37,106.85a7.74,7.74,0,0,1-5.47-13.21l9-9H157a7.41,7.41,0,0,1,0-14.82h30.9l-9-9a7.74,7.74,0,0,1,10.94-11l26,26a1.93,1.93,0,0,1,0,2.74l-26,26A7.69,7.69,0,0,1,184.37,106.85ZM157,73.68a3.54,3.54,0,1,0,0,7.08h35.57A1.93,1.93,0,0,1,194.37,82a2,2,0,0,1-.42,2.11L181.64,96.38a4,4,0,0,0,0,5.47,3.87,3.87,0,0,0,5.47,0l24.62-24.63L187.11,52.6a3.87,3.87,0,0,0-5.47,5.47L194,70.38a2,2,0,0,1,.56,1.37,2.11,2.11,0,0,1-.14.74,1.93,1.93,0,0,1-1.79,1.19Z"/><polygon class="cls-1" points="297.22 179.31 310.94 165.58 317.79 167.13 319.04 173.42 291.46 201.23 263.63 173.26 266.08 166.31 272.38 166.07 285.86 179.06 286.02 142.7 290.76 138.61 296.52 140.08 297.22 179.31"/><path class="cls-2" d="M291.46,142.05a5.22,5.22,0,0,1,5,3.8,5.23,5.23,0,1,0-10.26-1.43,5.67,5.67,0,0,0,.2,1.43A5.23,5.23,0,0,1,291.46,142.05Z"/><path class="cls-2" d="M314.87,169.59a5.23,5.23,0,0,1,.87,6.24,5.23,5.23,0,1,0-7.11-7.11A5.23,5.23,0,0,1,314.87,169.59Z"/><path class="cls-2" d="M268.05,169.59a5.23,5.23,0,0,1,6.24-.87,5.23,5.23,0,0,0-8.26-1.15,5.21,5.21,0,0,0,1.15,8.26A5.23,5.23,0,0,1,268.05,169.59Z"/><path d="M261.83,171.28A7.74,7.74,0,0,1,275,165.81l9,9v-30.9a7.41,7.41,0,0,1,14.82,0v30.9l9-9a7.74,7.74,0,1,1,10.94,10.95l-26,26a1.93,1.93,0,0,1-2.74,0l-26-26A7.71,7.71,0,0,1,261.83,171.28ZM295,143.92a3.54,3.54,0,1,0-7.07,0v35.57a1.94,1.94,0,0,1-3.31,1.37l-12.31-12.31a4,4,0,0,0-5.48,0,3.87,3.87,0,0,0,0,5.47l24.63,24.63L316.09,174a3.87,3.87,0,0,0,0-5.47,4,4,0,0,0-5.47,0L298.3,180.86a1.93,1.93,0,0,1-3.3-1.37Z"/><polygon class="cls-5" points="73.25 179.31 86.98 165.58 93.82 167.13 95.07 173.42 67.5 201.23 39.67 173.26 42.12 166.31 48.41 166.07 61.9 179.06 62.06 142.7 66.8 138.61 72.55 140.08 73.25 179.31"/><path class="cls-6" d="M67.5,142.05a5.23,5.23,0,0,1,5,3.8,5.67,5.67,0,0,0,.2-1.43,5.23,5.23,0,1,0-10.26,1.43A5.22,5.22,0,0,1,67.5,142.05Z"/><path class="cls-6" d="M90.91,169.59a5.23,5.23,0,0,1,.87,6.24,5.23,5.23,0,1,0-7.11-7.11A5.23,5.23,0,0,1,90.91,169.59Z"/><path class="cls-6" d="M44.09,169.59a5.23,5.23,0,0,1,6.24-.87A5.23,5.23,0,1,0,42.06,175a5.53,5.53,0,0,0,1.16.86A5.23,5.23,0,0,1,44.09,169.59Z"/><path d="M37.87,171.28a7.74,7.74,0,0,1,13.21-5.47l9,9v-30.9a7.41,7.41,0,1,1,14.82,0v30.9l9-9a7.74,7.74,0,1,1,10.94,10.95l-26,26a1.93,1.93,0,0,1-2.74,0l-26-26A7.71,7.71,0,0,1,37.87,171.28ZM71,143.92a3.54,3.54,0,0,0-7.08,0v35.57a1.93,1.93,0,0,1-3.3,1.37L48.34,168.55a4,4,0,0,0-5.47,0,3.87,3.87,0,0,0,0,5.47L67.5,198.65,92.12,174a3.87,3.87,0,0,0-5.47-5.47L74.34,180.86a2,2,0,0,1-1.37.57A1.94,1.94,0,0,1,71,179.49Z"/><ellipse class="cls-3" cx="289.12" cy="228.99" rx="39.43" ry="9.06"/><ellipse class="cls-4" cx="288.95" cy="233.16" rx="28.79" ry="5.86"/><path class="cls-3" d="M250.34,230.64l-.65,81.55s1.06,5.1,3.17,6.61,6,3.41,9.52,3.41h56.38s9.83-2.7,9.78-10,0-81,0-81-9.16,8.1-35.71,6.9S254.78,236.81,250.34,230.64Z"/><path class="cls-4" d="M301.94,238.05s16.73,3.16,17.82,17,0,50.94,0,50.94-2.89,12.73-21.1,15.47l14.92.77s11.37,2.75,15-10,0-81,0-81S316.49,238.06,301.94,238.05Z"/><path class="cls-7" d="M289.28,238.08c-19.41,0-35.55-3.21-38.94-7.44-.18-.23-.65-.11-.65.16v81.39c0,5.53,5.68,10,12.69,10h53.47c7,0,12.69-4.49,12.69-10v-81c0-.27-.43-.4-.63-.19C324,235,308.18,238.08,289.28,238.08Z"/><path class="cls-7" d="M289.12,219.93c-21.78,0-39.43,4-39.43,9.06s17.65,9.06,39.43,9.06c20.11,0,36.69-3.46,39.11-7.94a2.31,2.31,0,0,0,.31-1.12C328.54,224,310.89,219.93,289.12,219.93Z"/><polygon class="cls-5" points="56.21 304.17 78.79 304.17 81.57 317.57 87.54 323.76 47.46 323.76 51.34 317.57 56.21 304.17"/><path class="cls-6" d="M54.8,310.24s18.91-3.67,22.58,12.7H87.54l-6-3.16-2.78-15.61-24-.31Z"/><path class="cls-1" d="M4.55,287.94H127.9s-.28,18.86-9,15.92l-107.54.31-6.78-5.79Z"/><path class="cls-2" d="M106,287.94s.77,16.23-27.17,16.23h41.49l7.62-4.94V287.94Z"/><path class="cls-3" d="M17.85,244.84H56.58l4.23,6.3-1.26,4.62-4.31,1.56H17.56s-3.62-3.08-3.68-3.31-.93-5.38-.93-5.38Z"/><path class="cls-4" d="M16.92,251.08a5.48,5.48,0,0,1,4.14-5.31,5.13,5.13,0,0,0-1.36-.18,5.49,5.49,0,1,0,0,11,5.57,5.57,0,0,0,1.36-.18A5.48,5.48,0,0,1,16.92,251.08Z"/><path class="cls-4" d="M56.72,251.08a5.48,5.48,0,0,1-4.13,5.31,5.43,5.43,0,0,0,1.35.18,5.49,5.49,0,1,0,0-11,5,5,0,0,0-1.35.18A5.48,5.48,0,0,1,56.72,251.08Z"/><path class="cls-8" d="M29.56,246.18H19.37a5.05,5.05,0,0,0,0,10.1H54.5a5,5,0,1,0,0-10.1H44.31a.78.78,0,0,1-.22,0H29.78A.78.78,0,0,1,29.56,246.18Z"/><path d="M47.75,258.73H27.27l-7.9,0a7.53,7.53,0,0,1,0-15.06H54.5a7.53,7.53,0,0,1,0,15.06Zm6.75-2.81a4.7,4.7,0,0,0,0-9.39H44.31l-.26,0H29.82l-.26,0H19.37a4.7,4.7,0,0,0,0,9.39H54.5Z"/><path class="cls-3" d="M17.85,263.22H56.58l4.23,6.3-1.26,4.62-4.31,1.56H17.56s-3.62-3.08-3.68-3.31S13,267,13,267Z"/><path class="cls-4" d="M16.92,269.46a5.5,5.5,0,0,1,4.14-5.32A5.57,5.57,0,0,0,19.7,264a5.49,5.49,0,0,0,0,11,5.57,5.57,0,0,0,1.36-.18A5.48,5.48,0,0,1,16.92,269.46Z"/><path class="cls-4" d="M56.72,269.46a5.48,5.48,0,0,1-4.13,5.31,5.43,5.43,0,0,0,1.35.18,5.49,5.49,0,1,0,0-11,5.43,5.43,0,0,0-1.35.17A5.5,5.5,0,0,1,56.72,269.46Z"/><path class="cls-8" d="M29.56,264.56H19.37a5.05,5.05,0,1,0,0,10.1H54.5a5.05,5.05,0,0,0,0-10.1H44.31a.78.78,0,0,1-.22,0H29.78A.78.78,0,0,1,29.56,264.56Z"/><path d="M47.75,277.11H27.27l-7.9,0a7.53,7.53,0,1,1,0-15.06H54.5a7.53,7.53,0,0,1,0,15.06Zm6.75-2.81a4.7,4.7,0,0,0,0-9.39H44.31l-.26,0H29.82l-.26,0H19.37a4.7,4.7,0,0,0,0,9.39H54.5Z"/><circle cx="22.9" cy="251.23" r="1.84"/><circle cx="22.9" cy="269.61" r="1.84"/><circle cx="29.38" cy="269.61" r="1.84"/><path class="cls-5" d="M73.51,244.84h38.73l4.23,6.3-1.27,4.62-4.31,1.56H73.21s-3.62-3.08-3.68-3.31-.93-5.38-.93-5.38Z"/><path class="cls-6" d="M72.58,251.08a5.48,5.48,0,0,1,4.13-5.31,5,5,0,0,0-1.35-.18,5.49,5.49,0,1,0,0,11,5.43,5.43,0,0,0,1.35-.18A5.48,5.48,0,0,1,72.58,251.08Z"/><path class="cls-6" d="M112.38,251.08a5.48,5.48,0,0,1-4.14,5.31,5.57,5.57,0,0,0,1.36.18,5.49,5.49,0,1,0,0-11,5.13,5.13,0,0,0-1.36.18A5.48,5.48,0,0,1,112.38,251.08Z"/><path class="cls-8" d="M85.22,246.18H75a5,5,0,0,0,0,10.1h35.12a5,5,0,1,0,0-10.1H100a.78.78,0,0,1-.22,0H85.44A.83.83,0,0,1,85.22,246.18Z"/><path d="M103.4,258.73H82.93l-7.9,0a7.53,7.53,0,0,1,0-15.06h35.12a7.53,7.53,0,1,1,0,15.06Zm6.75-2.81a4.7,4.7,0,1,0,0-9.39H100l-.26,0H85.47l-.25,0H75a4.7,4.7,0,0,0,0,9.39h35.12Z"/><path class="cls-5" d="M73.51,263.22h38.73l4.23,6.3-1.27,4.62-4.31,1.56H73.21s-3.62-3.08-3.68-3.31S68.6,267,68.6,267Z"/><path class="cls-6" d="M72.58,269.46a5.5,5.5,0,0,1,4.13-5.32,5.43,5.43,0,0,0-1.35-.17,5.49,5.49,0,0,0,0,11,5.43,5.43,0,0,0,1.35-.18A5.48,5.48,0,0,1,72.58,269.46Z"/><path class="cls-6" d="M112.38,269.46a5.48,5.48,0,0,1-4.14,5.31,5.57,5.57,0,0,0,1.36.18,5.49,5.49,0,1,0,0-11,5.57,5.57,0,0,0-1.36.17A5.5,5.5,0,0,1,112.38,269.46Z"/><path class="cls-8" d="M85.22,264.56H75a5.05,5.05,0,1,0,0,10.1h35.12a5.05,5.05,0,0,0,0-10.1H100a.78.78,0,0,1-.22,0H85.44A.83.83,0,0,1,85.22,264.56Z"/><path d="M103.4,277.11H82.93l-7.9,0a7.53,7.53,0,1,1,0-15.06h35.12a7.53,7.53,0,1,1,0,15.06Zm6.75-2.81a4.7,4.7,0,1,0,0-9.39H100l-.26,0H85.47l-.25,0H75a4.7,4.7,0,0,0,0,9.39h35.12Z"/><path d="M120.07,217H12.84a9.22,9.22,0,0,0-9.2,9.21v70.42a9.21,9.21,0,0,0,9.2,9.2H53.06L50.51,316a8.1,8.1,0,0,1-7.36,5.74H28.42a1.84,1.84,0,0,0,0,3.68h76.07a1.84,1.84,0,1,0,0-3.68H89.77A8.1,8.1,0,0,1,82.41,316l-2.55-10.21h40.21a9.21,9.21,0,0,0,9.21-9.2V226.17A9.22,9.22,0,0,0,120.07,217ZM12.84,220.64H120.07a5.53,5.53,0,0,1,5.21,3.69H7.64A5.52,5.52,0,0,1,12.84,220.64Zm68.73,101.1H51.34a10.94,10.94,0,0,0,2.74-4.85l2.77-11.1H76.06l2.78,11.1A10.92,10.92,0,0,0,81.57,321.74Zm44-34.72H20.2a1.84,1.84,0,1,0,0,3.68H125.59v5.89a5.52,5.52,0,0,1-5.52,5.52H12.84a5.52,5.52,0,0,1-5.52-5.52V290.7h5.52a1.84,1.84,0,0,0,0-3.68H7.32V228H125.59Z"/><polygon class="cls-3" points="51.89 21.87 43.14 31 42.01 49.13 38.17 56.59 38.98 67.84 45.03 73.31 49.5 85.65 62.97 91.83 78.64 84.38 84.71 69.56 88.75 65.7 87.14 52 84.14 27 68.14 21 51.89 21.87"/><path class="cls-4" d="M51.89,24.4S79.14,25,85.14,49l.91-17s-7.71-7.45-8.81-8.73S68.14,20,68.14,20Z"/><polygon class="cls-1" points="24.65 110.37 48.14 98 50.58 85.76 62.97 91.22 75.54 87.16 78.51 98.07 104.27 111.34 79.14 124 59.14 125 38.14 119 24.65 110.37"/><path class="cls-2" d="M48.14,86l1,8.45s4.76,6.37,14.9,6.37,13.24-7.41,13.24-7.41l-1-7.76L67.14,91l-5,1L50.58,85.76Z"/><path class="cls-5" d="M128,64A64,64,0,1,0,20.77,111.15l-.06,0L22.79,113c.13.11.28.21.42.32,1.1.91,2.24,1.78,3.4,2.62l1.14.81q1.88,1.29,3.82,2.44l.86.49c1.43.82,2.88,1.58,4.38,2.28.11.06.22.1.33.15A63.44,63.44,0,0,0,52.61,127L53,127c1.69.29,3.39.52,5.12.68l.63,0c1.71.14,3.45.23,5.21.23s3.46-.09,5.17-.23l.65,0c1.71-.15,3.4-.38,5.07-.66l.43-.08a62.93,62.93,0,0,0,15.26-4.79c.18-.08.36-.15.54-.24,1.43-.67,2.84-1.4,4.21-2.18l1-.59q1.89-1.09,3.68-2.32l1.28-.91c1-.74,2-1.5,3-2.29.22-.18.45-.33.66-.51l2.13-1.77-.06-.06A63.83,63.83,0,0,0,128,64ZM4.65,64a59.35,59.35,0,1,1,98.71,44.36,18.08,18.08,0,0,0-2.08-1.24L81.57,97.26a5.14,5.14,0,0,1-2.86-4.63V85.74c.45-.56.93-1.2,1.43-1.9a47.37,47.37,0,0,0,6.09-11.92,8.44,8.44,0,0,0,4.85-7.65V56A8.5,8.5,0,0,0,89,50.5V39.64A18.79,18.79,0,0,0,84.64,26C80.35,21.1,73.4,18.62,64,18.62S47.65,21.1,43.36,26A18.78,18.78,0,0,0,39,39.64V50.5A8.5,8.5,0,0,0,36.92,56v8.25A8.46,8.46,0,0,0,40,70.83,43.84,43.84,0,0,0,47.23,85.7v6.73A5.19,5.19,0,0,1,44.53,97l-18.4,10a17.48,17.48,0,0,0-1.75,1.1A59.19,59.19,0,0,1,4.65,64Zm94.16,48c-.81.59-1.64,1.16-2.48,1.71l-1.16.74c-1.1.68-2.22,1.33-3.36,1.94l-.76.38a58.49,58.49,0,0,1-8.12,3.44l-.29.1c-1.46.48-2.94.91-4.43,1.28h0c-1.5.37-3,.68-4.57.93l-.12,0c-1.45.23-2.9.4-4.37.53l-.77.06c-1.45.11-2.9.18-4.36.18s-3-.08-4.41-.19l-.76,0c-1.47-.13-2.94-.31-4.4-.55l-.19,0a59.71,59.71,0,0,1-9.06-2.26l-.27-.09c-1.46-.5-2.91-1.05-4.33-1.66l0,0c-1.35-.58-2.67-1.22-4-1.9l-.51-.26c-1.19-.63-2.35-1.32-3.5-2l-1-.65c-1.06-.69-2.1-1.41-3.12-2.17l-.31-.24.23-.13,18.4-10a9.86,9.86,0,0,0,5.13-8.65V84.05l-.54-.65a38.92,38.92,0,0,1-7-14.46L44.16,68l-.8-.51a3.85,3.85,0,0,1-1.79-3.24V56a3.81,3.81,0,0,1,1.3-2.85l.77-.69v-13l0-.31a14,14,0,0,1,3.24-10.14C50.23,25.22,56,23.27,64,23.27S77.72,25.2,81.1,29a14.24,14.24,0,0,1,3.28,10.2l0,13.27.77.69A3.78,3.78,0,0,1,86.43,56v8.25a3.89,3.89,0,0,1-2.75,3.66l-1.16.36-.37,1.15a43.15,43.15,0,0,1-5.81,11.71c-.61.86-1.2,1.62-1.71,2.21l-.58.66v8.61a9.8,9.8,0,0,0,5.44,8.8l19.71,9.85.37.19Z"/><path class="cls-8" d="M79.49,101.43a9.8,9.8,0,0,1-5.44-8.8V84l.58-.66c.51-.59,1.1-1.35,1.71-2.21a43.15,43.15,0,0,0,5.81-11.71l.37-1.15,1.16-.36a3.89,3.89,0,0,0,2.75-3.66V56a3.78,3.78,0,0,0-1.3-2.85l-.77-.69,0-13.27A14.24,14.24,0,0,0,81.1,29C77.72,25.2,72,23.27,64,23.27s-13.77,1.95-17.14,5.79A14,14,0,0,0,43.62,39.2l0,.31v13l-.77.69A3.81,3.81,0,0,0,41.57,56v8.25a3.85,3.85,0,0,0,1.79,3.24l.8.51.21.93a38.92,38.92,0,0,0,7,14.46l.54.65v8.38a9.86,9.86,0,0,1-5.13,8.65l-18.33,10a59,59,0,0,0,70.83.24l-.06,0Z"/><path class="cls-8" d="M123,64a59,59,0,1,0-98.35,44,15.65,15.65,0,0,1,1.48-.92l18.4-10a5.19,5.19,0,0,0,2.7-4.56V85.7A43.84,43.84,0,0,1,40,70.83a8.46,8.46,0,0,1-3.12-6.57V56A8.5,8.5,0,0,1,39,50.5V39.64A18.78,18.78,0,0,1,43.36,26C47.65,21.1,54.6,18.62,64,18.62S80.35,21.1,84.64,26A18.79,18.79,0,0,1,89,39.64V50.5A8.5,8.5,0,0,1,91.08,56v8.25a8.44,8.44,0,0,1-4.85,7.65,47.37,47.37,0,0,1-6.09,11.92c-.5.7-1,1.34-1.43,1.9v6.89a5.14,5.14,0,0,0,2.86,4.63l19.71,9.86a16.6,16.6,0,0,1,1.8,1.06A58.83,58.83,0,0,0,123,64Z"/><path class="cls-9" d="M81.57,97.26a5.14,5.14,0,0,1-2.86-4.63V85.74c.45-.56.93-1.2,1.43-1.9a47.37,47.37,0,0,0,6.09-11.92,8.44,8.44,0,0,0,4.85-7.65V56A8.5,8.5,0,0,0,89,50.5V39.64A18.79,18.79,0,0,0,84.64,26C80.35,21.1,73.4,18.62,64,18.62S47.65,21.1,43.36,26A18.78,18.78,0,0,0,39,39.64V50.5A8.5,8.5,0,0,0,36.92,56v8.25A8.46,8.46,0,0,0,40,70.83,43.84,43.84,0,0,0,47.23,85.7v6.73A5.19,5.19,0,0,1,44.53,97l-18.4,10a15.65,15.65,0,0,0-1.48.92q1.83,1.64,3.78,3.12l18.33-10a9.86,9.86,0,0,0,5.13-8.65V84.05l-.54-.65a38.92,38.92,0,0,1-7-14.46L44.16,68l-.8-.51a3.85,3.85,0,0,1-1.79-3.24V56a3.81,3.81,0,0,1,1.3-2.85l.77-.69v-13l0-.31a14,14,0,0,1,3.24-10.14C50.23,25.22,56,23.27,64,23.27S77.72,25.2,81.1,29a14.24,14.24,0,0,1,3.28,10.2l0,13.27.77.69A3.78,3.78,0,0,1,86.43,56v8.25a3.89,3.89,0,0,1-2.75,3.66l-1.16.36-.37,1.15a43.15,43.15,0,0,1-5.81,11.71c-.61.86-1.2,1.62-1.71,2.21l-.58.66v8.61a9.8,9.8,0,0,0,5.44,8.8l19.71,9.85.06,0q2-1.49,3.82-3.13a16.6,16.6,0,0,0-1.8-1.06Z"/><path class="cls-5" d="M64,4.65A59.31,59.31,0,0,0,24.38,108.13l.27-.18a59,59,0,1,1,78.43.23,2.68,2.68,0,0,0,.28.18A59.31,59.31,0,0,0,64,4.65Z"/><path class="cls-9" d="M122.34,90.3h0c.43-1,.84-1.93,1.23-2.92l.09-.23c.35-.91.68-1.83,1-2.76,0-.14.1-.29.14-.43.29-.87.55-1.74.8-2.62,0-.21.12-.41.17-.62.22-.82.43-1.66.62-2.5.06-.26.12-.51.17-.77.18-.8.32-1.6.46-2.41.06-.3.12-.6.16-.9.13-.78.23-1.57.32-2.37,0-.32.09-.65.13-1,.08-.81.14-1.62.2-2.44,0-.31,0-.62.07-.94.06-1.12.09-2.26.09-3.4A64,64,0,0,0,0,64c0,1.14,0,2.27.09,3.4,0,.29.05.59.07.88,0,.84.11,1.67.2,2.49,0,.3.08.6.11.91.1.81.2,1.63.33,2.43,0,.27.1.53.14.8.15.84.3,1.68.48,2.51l.15.64c.2.88.41,1.76.64,2.63,0,.16.09.31.13.46.26.94.54,1.86.84,2.78l.09.26c.33,1,.68,2,1.05,2.93l0,0a64.23,64.23,0,0,0,16.43,24l0,0c.64.59,1.3,1.16,2,1.72l.07.06c.13.11.28.21.42.32,1.1.91,2.24,1.78,3.4,2.62l1.14.81q1.88,1.29,3.82,2.44l.86.49c1.43.82,2.88,1.58,4.38,2.28.11.06.22.1.33.15A63.44,63.44,0,0,0,52.61,127L53,127c1.69.29,3.39.52,5.12.68l.63,0c.83.07,1.67.12,2.51.16s1.79.07,2.7.07,1.79,0,2.68-.07,1.66-.09,2.49-.16l.65,0c.84-.07,1.68-.17,2.52-.28h0c.84-.11,1.67-.23,2.5-.37l.43-.08a62.93,62.93,0,0,0,15.26-4.79c.18-.08.36-.15.54-.24,1.43-.67,2.84-1.4,4.21-2.18l1-.59q1.89-1.09,3.68-2.32l1.28-.91c1-.74,2-1.5,3-2.29.22-.18.45-.33.66-.51l.15-.12c.65-.55,1.31-1.11,1.94-1.69l0,0A64.3,64.3,0,0,0,122.34,90.3Zm-19,18.06a2.68,2.68,0,0,1-.28-.18q-1.85,1.65-3.82,3.13l.31.16-.76.55c-.81.59-1.64,1.16-2.48,1.71l-1.16.74c-1.1.68-2.22,1.33-3.36,1.94l-.76.38a58.49,58.49,0,0,1-8.12,3.44l-.29.1c-1.46.48-2.94.91-4.43,1.28h0c-1.5.37-3,.68-4.57.93l-.12,0c-1.45.23-2.9.4-4.37.53l-.77.06c-1.45.11-2.9.18-4.36.18s-3-.08-4.41-.19l-.76,0c-1.47-.13-2.94-.31-4.4-.55l-.19,0a59.71,59.71,0,0,1-9.06-2.26l-.27-.09c-1.46-.5-2.91-1.05-4.33-1.66l0,0c-1.35-.58-2.67-1.22-4-1.9l-.51-.26c-1.19-.63-2.35-1.32-3.5-2l-1-.65c-1.06-.69-2.1-1.41-3.12-2.17l-.31-.24.23-.13.07,0q-2-1.48-3.78-3.12l-.27.18a59.35,59.35,0,1,1,79,.23Z"/><path class="cls-9" d="M74.05,84a14.84,14.84,0,0,1-22.16,0v5a16.2,16.2,0,0,0,11.25,4c6.41-.08,10.3-3.29,10.91-4Z"/><path class="cls-6" d="M346.87,36.35c-1.11.39-45.86,1-45.86,1H239.76l-6.82,7.93V111.8l9.22,6H347.89l7.39-7V43.09S348,36,346.87,36.35Zm-59,64.34H244.36V52.22h43.48Z"/><path class="cls-5" d="M332.08,37.7H235.64v78.78h96.44a9.09,9.09,0,0,0,9.09-9.09V46.78A9.09,9.09,0,0,0,332.08,37.7Zm-44.24,63H244.36V52.22h43.48Z"/><polygon class="cls-1" points="255.03 96.75 277.39 96.75 273.72 85.53 260.55 83.23 253.37 92.23 255.03 96.75"/><path class="cls-2" d="M272.38,96.75s.28-7.7-6.17-11.08l6.17-.37,5,8.25v3.2Z"/><circle class="cls-4" cx="266.21" cy="72.15" r="9.51"/><circle class="cls-3" cx="262.87" cy="72.15" r="9.51"/><path d="M242.89,119.9a11.42,11.42,0,0,1-11.41-11.41V46a11.42,11.42,0,0,1,11.41-11.41H346.67A11.42,11.42,0,0,1,358.08,46v62.54a11.42,11.42,0,0,1-11.41,11.41Zm0-80.5A6.56,6.56,0,0,0,236.34,46v62.54a6.56,6.56,0,0,0,6.55,6.55H346.67a6.56,6.56,0,0,0,6.55-6.55V46a6.56,6.56,0,0,0-6.55-6.55Z"/><path d="M244.59,103.5a2.43,2.43,0,0,1-2.43-2.43V63.81a2.43,2.43,0,0,1,4.86,0V98.64h38.37V54.31H247v2a2.43,2.43,0,1,1-4.86,0V51.88a2.43,2.43,0,0,1,2.43-2.43h43.23a2.43,2.43,0,0,1,2.43,2.43v49.19a2.43,2.43,0,0,1-2.43,2.43Z"/><path d="M298.75,58.63a2.43,2.43,0,0,1,0-4.86h46.71a2.43,2.43,0,1,1,0,4.86Z"/><path d="M335,72.15a2.43,2.43,0,1,1,0-4.86h10.43a2.43,2.43,0,1,1,0,4.86Z"/><path d="M298.75,72.15a2.43,2.43,0,0,1,0-4.86h28.82a2.43,2.43,0,1,1,0,4.86Z"/><path d="M298.75,85.67a2.44,2.44,0,0,1,0-4.87h46.71a2.44,2.44,0,0,1,0,4.87Z"/><path d="M298.75,99.18a2.43,2.43,0,0,1,0-4.86H324.1a2.43,2.43,0,0,1,0,4.86Z"/><path d="M277.39,97.54A2.43,2.43,0,0,1,275,95.11a8.75,8.75,0,0,0-17.5,0,2.44,2.44,0,0,1-4.87,0,13.7,13.7,0,0,1,5.87-11.18,13.61,13.61,0,1,1,15.5,0,13.72,13.72,0,0,1,5.86,11.18A2.43,2.43,0,0,1,277.39,97.54ZM266.21,64A8.75,8.75,0,1,0,275,72.75,8.75,8.75,0,0,0,266.21,64Z"/></svg>