<svg id="Capa_1" data-name="Capa 1" xmlns="http://www.w3.org/2000/svg" viewBox="0 0 126.55 121.65"><defs><style>.cls-1{fill:#5f7993;}.cls-2{fill:#3a5368;}.cls-3{fill:#02809d;}.cls-4{fill:#17b5c8;}.cls-5{fill:#a6d100;}.cls-6{fill:#6cab00;}</style></defs><path class="cls-1" d="M9.13,72.76,96.12,11,92.78,8.55,91,3.83l3.65-1.64,15.43,3.07L108.22,22.7l-4.51,1.23s-2.94-4.4-2.87-7L14.26,78.74S7.9,78.3,9.13,72.76Z"/><path class="cls-2" d="M10.77,77.54s76.67-59.17,90.14-63.16L70.68,38.5S14.27,81.41,10.77,77.54Z"/><path class="cls-3" d="M23.86,113.67H18.61a7.84,7.84,0,0,1-7.84-7.83v15.22H31.7V105.84A7.84,7.84,0,0,1,23.86,113.67Z"/><path class="cls-4" d="M10.77,90.2v15.64a7.84,7.84,0,0,0,7.84,7.83h5.25a7.84,7.84,0,0,0,7.84-7.83V90.2Z"/><path class="cls-5" d="M31.91,78.74v27.1a7.83,7.83,0,0,0,7.83,7.83H45a7.83,7.83,0,0,0,7.83-7.83V78.74Z"/><path class="cls-4" d="M52.81,64.76v41.08a7.84,7.84,0,0,0,7.84,7.83H65.9a7.84,7.84,0,0,0,7.84-7.83V64.76Z"/><path class="cls-5" d="M73.72,50.81v55a7.84,7.84,0,0,0,7.83,7.83h5.26a7.83,7.83,0,0,0,7.83-7.83v-55Z"/><path class="cls-4" d="M94.64,37.88v68a7.84,7.84,0,0,0,7.84,7.83h5.25a7.84,7.84,0,0,0,7.84-7.83v-68Z"/><path class="cls-6" d="M45,109H39.74a7.83,7.83,0,0,1-7.83-7.83v18.42H52.83V101.12A7.83,7.83,0,0,1,45,109Z"/><path class="cls-3" d="M65.9,102.16H60.65a7.84,7.84,0,0,1-7.84-7.83v25.21H73.74V94.33A7.84,7.84,0,0,1,65.9,102.16Z"/><path class="cls-6" d="M86.81,96.43H81.55a7.84,7.84,0,0,1-7.83-7.84v31H94.64V88.59A7.83,7.83,0,0,1,86.81,96.43Z"/><path class="cls-3" d="M107.73,87.81h-5.25A7.83,7.83,0,0,1,94.64,80v39.56h20.93V80A7.83,7.83,0,0,1,107.73,87.81Z"/><path d="M124.7,117.94h-7.31V37.68a1.85,1.85,0,0,0-1.85-1.86H109.4a1.86,1.86,0,0,0,0,3.71h4.28v78.41H96.49V39.53h4.84a1.86,1.86,0,0,0,0-3.71h-6.7a1.85,1.85,0,0,0-1.85,1.86V48.79h-19a1.86,1.86,0,0,0-1.86,1.86V62.73H52.82A1.85,1.85,0,0,0,51,64.58V76.67h-19a1.85,1.85,0,0,0-1.86,1.85v9.83H11a1.85,1.85,0,0,0-1.85,1.86v11.1a1.86,1.86,0,0,0,3.71,0V92.06H30.06v25.88H12.87v-8.56a1.86,1.86,0,0,0-3.71,0v8.56H1.85a1.86,1.86,0,0,0,0,3.71H124.7a1.86,1.86,0,0,0,0-3.71ZM33.77,80.37H51v37.57H33.77Zm20.91-1.85V66.44H71.87v51.5H54.68Zm20.9,39.42V52.5h17.2v65.44Z"/><path d="M12.75,80.16a5.49,5.49,0,0,0,3.21-1L99.45,20a5.55,5.55,0,0,0,4.62,5.72,5,5,0,0,0,.94.08,5.53,5.53,0,0,0,5.48-4.62l2.14-12.51a5.58,5.58,0,0,0-4.55-6.42L95.57.08a5.58,5.58,0,0,0-6.42,4.55A5.58,5.58,0,0,0,93,10.89L61.67,33.11a1.85,1.85,0,0,0,2.14,3l35-24.78A1.86,1.86,0,0,0,98,8l-3.69-.63a1.86,1.86,0,0,1-.76-3.34,1.8,1.8,0,0,1,1.38-.31l12.51,2.13a1.86,1.86,0,0,1,1.21.75A1.9,1.9,0,0,1,109,8l-2.13,12.51A1.85,1.85,0,0,1,105,22.06l-.31,0a1.87,1.87,0,0,1-1.52-2.14l.63-3.68a1.83,1.83,0,0,0-.84-1.88,1.86,1.86,0,0,0-2.06.05L13.82,76.11a1.77,1.77,0,0,1-1.07.34,1.81,1.81,0,0,1-1.51-.78,1.84,1.84,0,0,1,.44-2.58L55.73,41.86a1.85,1.85,0,1,0-2.14-3L9.53,70.06a5.56,5.56,0,0,0,3.22,10.1Z"/></svg>