<?xml version="1.0" encoding="UTF-8" standalone="no"?>
<svg
   xmlns:dc="http://purl.org/dc/elements/1.1/"
   xmlns:cc="http://creativecommons.org/ns#"
   xmlns:rdf="http://www.w3.org/1999/02/22-rdf-syntax-ns#"
   xmlns:svg="http://www.w3.org/2000/svg"
   xmlns="http://www.w3.org/2000/svg"
   xmlns:sodipodi="http://sodipodi.sourceforge.net/DTD/sodipodi-0.dtd"
   xmlns:inkscape="http://www.inkscape.org/namespaces/inkscape"
   id="Capa_1"
   data-name="Capa 1"
   viewBox="0 0 200.85 162.35"
   version="1.1"
   sodipodi:docname="networks.svg"
   inkscape:version="0.92.5 (2060ec1f9f, 2020-04-08)">
  <metadata
     id="metadata5570">
    <rdf:RDF>
      <cc:Work
         rdf:about="">
        <dc:format>image/svg+xml</dc:format>
        <dc:type
           rdf:resource="http://purl.org/dc/dcmitype/StillImage" />
      </cc:Work>
    </rdf:RDF>
  </metadata>
  <sodipodi:namedview
     pagecolor="#ffffff"
     bordercolor="#666666"
     borderopacity="1"
     objecttolerance="10"
     gridtolerance="10"
     guidetolerance="10"
     inkscape:pageopacity="0"
     inkscape:pageshadow="2"
     inkscape:window-width="1920"
     inkscape:window-height="1016"
     id="namedview5568"
     showgrid="false"
     inkscape:snap-global="false"
     inkscape:zoom="8.6582024"
     inkscape:cx="100.425"
     inkscape:cy="39.595933"
     inkscape:window-x="0"
     inkscape:window-y="27"
     inkscape:window-maximized="1"
     inkscape:current-layer="Capa_1" />
  <defs
     id="defs5421">
    <style
       id="style5419">.cls-1{fill:#17b5c8;}.cls-2{fill:#02809d;}.cls-3{fill:#3a5368;}.cls-4{fill:#5f7993;}.cls-5{fill:#6cab00;}.cls-6{fill:#a6d100;}.cls-7{fill:none;stroke:#1d1d1b;stroke-miterlimit:10;stroke-width:3.8px;}</style>
  </defs>
  <rect
     style="opacity:1;fill:#ffffff;fill-opacity:1;fill-rule:nonzero;stroke:none;stroke-width:9.82677174;stroke-linecap:round;stroke-linejoin:round;stroke-miterlimit:4;stroke-dasharray:none;stroke-dashoffset:0;stroke-opacity:1"
     id="rect6115-9"
     width="67.681488"
     height="24.369955"
     x="131.20506"
     y="136.30534" />
  <rect
     style="opacity:1;fill:#ffffff;fill-opacity:1;fill-rule:nonzero;stroke:none;stroke-width:9.82677174;stroke-linecap:round;stroke-linejoin:round;stroke-miterlimit:4;stroke-dasharray:none;stroke-dashoffset:0;stroke-opacity:1"
     id="rect6115-2"
     width="67.681488"
     height="24.369955"
     x="131.55156"
     y="111.81989" />
  <rect
     style="opacity:1;fill:#ffffff;fill-opacity:1;fill-rule:nonzero;stroke:none;stroke-width:9.82677174;stroke-linecap:round;stroke-linejoin:round;stroke-miterlimit:4;stroke-dasharray:none;stroke-dashoffset:0;stroke-opacity:1"
     id="rect6115-6"
     width="67.681488"
     height="24.369955"
     x="131.55156"
     y="85.832962" />
  <rect
     style="opacity:1;fill:#ffffff;fill-opacity:1;fill-rule:nonzero;stroke:none;stroke-width:9.82677174;stroke-linecap:round;stroke-linejoin:round;stroke-miterlimit:4;stroke-dasharray:none;stroke-dashoffset:0;stroke-opacity:1"
     id="rect6115-5"
     width="67.681488"
     height="24.369955"
     x="1.9634544"
     y="136.65182" />
  <rect
     style="opacity:1;fill:#ffffff;fill-opacity:1;fill-rule:nonzero;stroke:none;stroke-width:9.82677174;stroke-linecap:round;stroke-linejoin:round;stroke-miterlimit:4;stroke-dasharray:none;stroke-dashoffset:0;stroke-opacity:1"
     id="rect6115-3"
     width="67.681488"
     height="24.369955"
     x="2.08003"
     y="111.58005" />
  <rect
     style="opacity:1;fill:#ffffff;fill-opacity:1;fill-rule:nonzero;stroke:none;stroke-width:9.82677174;stroke-linecap:round;stroke-linejoin:round;stroke-miterlimit:4;stroke-dasharray:none;stroke-dashoffset:0;stroke-opacity:1"
     id="rect6115"
     width="67.681488"
     height="24.369955"
     x="1.7324612"
     y="86.121712" />
  <rect
     class="cls-1"
     x="39.49"
     y="85.35"
     width="14.04"
     height="26.86"
     transform="translate(145.29 52.27) rotate(90)"
     id="rect5423" />
  <path
     class="cls-2"
     d="M34.83,106.07s1.94-14.31,10.22-14.31h-12v14Z"
     id="path5425" />
  <rect
     class="cls-1"
     x="39.49"
     y="109.95"
     width="14.04"
     height="26.86"
     transform="translate(169.89 76.87) rotate(90)"
     id="rect5427" />
  <path
     class="cls-2"
     d="M34.83,130.67s1.94-14.31,10.22-14.31h-12v14Z"
     id="path5429" />
  <rect
     class="cls-1"
     x="39.49"
     y="134.82"
     width="14.04"
     height="26.86"
     transform="translate(194.76 101.74) rotate(90)"
     id="rect5431" />
  <path
     class="cls-2"
     d="M34.83,155.54s1.94-14.31,10.22-14.31h-12v14Z"
     id="path5433" />
  <path
     class="cls-3"
     d="M17,96.16a5.51,5.51,0,0,1,2.08.41,5.48,5.48,0,1,0-7.15,7.15A5.48,5.48,0,0,1,17,96.16Z"
     id="path5435" />
  <path
     class="cls-4"
     d="M19.44,98.65A5.32,5.32,0,0,0,19,96.57a5.48,5.48,0,0,0-7.15,7.15,5.32,5.32,0,0,0,2.08.41A5.48,5.48,0,0,0,19.44,98.65Z"
     id="path5437" />
  <path
     class="cls-5"
     d="M17,120.7a5.51,5.51,0,0,1,2.08.41,5.48,5.48,0,1,0-7.15,7.15A5.48,5.48,0,0,1,17,120.7Z"
     id="path5439" />
  <path
     class="cls-6"
     d="M19.44,123.19a5.32,5.32,0,0,0-.41-2.08,5.48,5.48,0,0,0-7.15,7.15,5.32,5.32,0,0,0,2.08.41A5.48,5.48,0,0,0,19.44,123.19Z"
     id="path5441" />
  <path
     class="cls-3"
     d="M17,145.28a5.51,5.51,0,0,1,2.08.41,5.48,5.48,0,1,0-7.15,7.15A5.48,5.48,0,0,1,17,145.28Z"
     id="path5443" />
  <path
     class="cls-4"
     d="M19.44,147.77a5.32,5.32,0,0,0-.41-2.08,5.48,5.48,0,0,0-7.15,7.15,5.48,5.48,0,0,0,7.56-5.07Z"
     id="path5445" />
  <path
     d="M57.48,112.61a1.53,1.53,0,1,1,0-3H60a1.53,1.53,0,0,1,0,3Z"
     id="path5447" />
  <path
     d="M57.48,137.48a1.53,1.53,0,1,1,0-3H60a1.53,1.53,0,0,1,0,3Z"
     id="path5449" />
  <path
     d="M4,162.35a4,4,0,0,1-4-4V138.44A4,4,0,0,1,.87,136,4,4,0,0,1,0,133.46V113.57a4,4,0,0,1,.87-2.49A4,4,0,0,1,0,108.6V88.7a4,4,0,0,1,4-4H67.43a4,4,0,0,1,4,4v19.9a4,4,0,0,1-.86,2.48,4.06,4.06,0,0,1,.86,2.49v19.89a4,4,0,0,1-.86,2.49,4.06,4.06,0,0,1,.86,2.49v19.89a4,4,0,0,1-4,4Zm0-24.87a1,1,0,0,0-1,1v19.89a1,1,0,0,0,1,1H67.43a1,1,0,0,0,1-1V138.44a1,1,0,0,0-1-1H64.94a1.53,1.53,0,1,1,0-3h2.49a1,1,0,0,0,1-1V113.57a1,1,0,0,0-1-1H64.94a1.53,1.53,0,1,1,0-3h2.49a1,1,0,0,0,1-1V88.7a1,1,0,0,0-1-1H4a1,1,0,0,0-1,1v19.9a1,1,0,0,0,1,1h48.5a1.53,1.53,0,0,1,0,3H4a1,1,0,0,0-1,1v19.89a1,1,0,0,0,1,1h48.5a1.53,1.53,0,0,1,0,3Z"
     id="path5451" />
  <path
     d="M14,130a6.5,6.5,0,1,1,6.5-6.5,6.39,6.39,0,0,1-.21,1.63,1.52,1.52,0,0,1-1.47,1.14,1.2,1.2,0,0,1-.38-.05,1.52,1.52,0,0,1-1.1-1.86,3.56,3.56,0,0,0,.11-.86,3.41,3.41,0,1,0-2.59,3.34,1.31,1.31,0,0,1,.39,0A1.52,1.52,0,0,1,16.68,128a1.47,1.47,0,0,1-.16,1.16,1.52,1.52,0,0,1-.93.7A6.39,6.39,0,0,1,14,130Z"
     id="path5453" />
  <path
     d="M14,105.15a6.5,6.5,0,1,1,6.5-6.5,6.39,6.39,0,0,1-.21,1.63,1.52,1.52,0,0,1-1.47,1.14,1.58,1.58,0,0,1-.38,0,1.53,1.53,0,0,1-1.1-1.86,3.58,3.58,0,0,0,.11-.87A3.45,3.45,0,1,0,14,102.1a3.56,3.56,0,0,0,.86-.11,1.74,1.74,0,0,1,.39,0,1.52,1.52,0,0,1,1.47,1.14,1.47,1.47,0,0,1-.16,1.16,1.52,1.52,0,0,1-.93.7A6.39,6.39,0,0,1,14,105.15Z"
     id="path5455" />
  <path
     d="M14,154.89a6.5,6.5,0,1,1,6.5-6.5,6.26,6.26,0,0,1-.21,1.62,1.52,1.52,0,0,1-1.47,1.15,1.74,1.74,0,0,1-.39,0,1.53,1.53,0,0,1-1.09-1.86,3.56,3.56,0,0,0,.11-.86A3.45,3.45,0,1,0,14,151.83a3.07,3.07,0,0,0,.86-.11,1.72,1.72,0,0,1,.39,0,1.52,1.52,0,0,1,1.47,1.14,1.47,1.47,0,0,1-.16,1.16,1.52,1.52,0,0,1-.93.7A6.39,6.39,0,0,1,14,154.89Z"
     id="path5457" />
  <path
     d="M33.86,132.5a2.78,2.78,0,0,1-2.78-2.76V117.3a2.78,2.78,0,0,1,2.78-2.77H58.72a2.77,2.77,0,0,1,2.77,2.77v12.44a2.77,2.77,0,0,1-2.77,2.76Zm24.58-3.05V117.58H34.14v11.87Z"
     id="path5459" />
  <path
     d="M53.75,127.53A1.53,1.53,0,0,1,52.22,126v-5a1.53,1.53,0,0,1,3.06,0v5A1.53,1.53,0,0,1,53.75,127.53Z"
     id="path5461" />
  <path
     d="M48.78,127.53A1.52,1.52,0,0,1,47.25,126v-5a1.53,1.53,0,1,1,3,0v5A1.52,1.52,0,0,1,48.78,127.53Z"
     id="path5463" />
  <path
     d="M43.8,127.53A1.52,1.52,0,0,1,42.28,126v-5a1.53,1.53,0,1,1,3,0v5A1.53,1.53,0,0,1,43.8,127.53Z"
     id="path5465" />
  <path
     d="M38.83,127.53A1.53,1.53,0,0,1,37.3,126v-5a1.53,1.53,0,0,1,3.06,0v5A1.53,1.53,0,0,1,38.83,127.53Z"
     id="path5467" />
  <path
     d="M33.86,107.64a2.78,2.78,0,0,1-2.78-2.77V92.43a2.78,2.78,0,0,1,2.78-2.77H58.72a2.78,2.78,0,0,1,2.77,2.77v12.44a2.78,2.78,0,0,1-2.77,2.77Zm24.58-3.06V92.72H34.14v11.86Z"
     id="path5469" />
  <path
     d="M53.75,102.66a1.53,1.53,0,0,1-1.53-1.52v-5a1.53,1.53,0,0,1,3.06,0v5A1.53,1.53,0,0,1,53.75,102.66Z"
     id="path5471" />
  <path
     d="M48.78,102.66a1.52,1.52,0,0,1-1.53-1.52v-5a1.53,1.53,0,0,1,3,0v5A1.52,1.52,0,0,1,48.78,102.66Z"
     id="path5473" />
  <path
     d="M43.8,102.66a1.52,1.52,0,0,1-1.52-1.52v-5a1.53,1.53,0,0,1,3,0v5A1.53,1.53,0,0,1,43.8,102.66Z"
     id="path5475" />
  <path
     d="M33.86,157.37a2.78,2.78,0,0,1-2.78-2.77V142.17a2.78,2.78,0,0,1,2.78-2.77H58.72a2.77,2.77,0,0,1,2.77,2.77V154.6a2.77,2.77,0,0,1-2.77,2.77Zm24.58-3.05V142.45H34.14v11.87Z"
     id="path5477" />
  <path
     d="M53.75,152.4a1.54,1.54,0,0,1-1.53-1.53v-5a1.53,1.53,0,1,1,3.06,0v5A1.54,1.54,0,0,1,53.75,152.4Z"
     id="path5479" />
  <path
     d="M48.78,152.4a1.53,1.53,0,0,1-1.53-1.53v-5a1.53,1.53,0,1,1,3,0v5A1.53,1.53,0,0,1,48.78,152.4Z"
     id="path5481" />
  <rect
     class="cls-1"
     x="168.9"
     y="85.35"
     width="14.04"
     height="26.86"
     transform="translate(274.7 -77.14) rotate(90)"
     id="rect5483" />
  <path
     class="cls-2"
     d="M164.24,106.07s1.94-14.31,10.22-14.31h-12v14Z"
     id="path5485" />
  <rect
     class="cls-1"
     x="168.9"
     y="109.95"
     width="14.04"
     height="26.86"
     transform="translate(299.3 -52.54) rotate(90)"
     id="rect5487" />
  <path
     class="cls-2"
     d="M164.24,130.67s1.94-14.31,10.22-14.31h-12v14Z"
     id="path5489" />
  <rect
     class="cls-1"
     x="168.9"
     y="134.82"
     width="14.04"
     height="26.86"
     transform="translate(324.17 -27.67) rotate(90)"
     id="rect5491" />
  <path
     class="cls-2"
     d="M164.24,155.54s1.94-14.31,10.22-14.31h-12v14Z"
     id="path5493" />
  <path
     class="cls-3"
     d="M146.37,96.16a5.5,5.5,0,0,1,2.07.41,5.48,5.48,0,1,0-7.15,7.15,5.48,5.48,0,0,1,5.08-7.56Z"
     id="path5495" />
  <path
     class="cls-4"
     d="M148.85,98.65a5.32,5.32,0,0,0-.41-2.08,5.48,5.48,0,0,0-7.15,7.15,5.32,5.32,0,0,0,2.08.41A5.48,5.48,0,0,0,148.85,98.65Z"
     id="path5497" />
  <path
     class="cls-5"
     d="M146.37,120.7a5.5,5.5,0,0,1,2.07.41,5.48,5.48,0,1,0-7.15,7.15,5.48,5.48,0,0,1,5.08-7.56Z"
     id="path5499" />
  <path
     class="cls-6"
     d="M148.85,123.19a5.32,5.32,0,0,0-.41-2.08,5.48,5.48,0,0,0-7.15,7.15,5.32,5.32,0,0,0,2.08.41A5.48,5.48,0,0,0,148.85,123.19Z"
     id="path5501" />
  <path
     class="cls-3"
     d="M146.37,145.28a5.5,5.5,0,0,1,2.07.41,5.48,5.48,0,1,0-7.15,7.15,5.48,5.48,0,0,1,5.08-7.56Z"
     id="path5503" />
  <path
     class="cls-4"
     d="M148.85,147.77a5.32,5.32,0,0,0-.41-2.08,5.48,5.48,0,0,0-7.15,7.15,5.48,5.48,0,0,0,7.56-5.07Z"
     id="path5505" />
  <path
     d="M186.89,112.61a1.53,1.53,0,1,1,0-3h2.49a1.53,1.53,0,0,1,0,3Z"
     id="path5507" />
  <path
     d="M186.89,137.48a1.53,1.53,0,1,1,0-3h2.49a1.53,1.53,0,0,1,0,3Z"
     id="path5509" />
  <path
     d="M133.42,162.35a4,4,0,0,1-4-4V138.44a4,4,0,0,1,.87-2.49,4,4,0,0,1-.87-2.49V113.57a4,4,0,0,1,.87-2.49,4,4,0,0,1-.87-2.48V88.7a4,4,0,0,1,4-4h63.42a4,4,0,0,1,4,4v19.9a4,4,0,0,1-.86,2.48,4,4,0,0,1,.86,2.49v19.89A4,4,0,0,1,200,136a4,4,0,0,1,.86,2.49v19.89a4,4,0,0,1-4,4Zm0-24.87a1,1,0,0,0-1,1v19.89a1,1,0,0,0,1,1h63.42a1,1,0,0,0,1-1V138.44a1,1,0,0,0-1-1h-2.49a1.53,1.53,0,1,1,0-3h2.49a1,1,0,0,0,1-1V113.57a1,1,0,0,0-1-1h-2.49a1.53,1.53,0,1,1,0-3h2.49a1,1,0,0,0,1-1V88.7a1,1,0,0,0-1-1H133.42a1,1,0,0,0-1,1v19.9a1,1,0,0,0,1,1h48.5a1.53,1.53,0,0,1,0,3h-48.5a1,1,0,0,0-1,1v19.89a1,1,0,0,0,1,1h48.5a1.53,1.53,0,0,1,0,3Z"
     id="path5511" />
  <path
     d="M143.37,130a6.5,6.5,0,1,1,6.5-6.5,6.86,6.86,0,0,1-.2,1.63,1.54,1.54,0,0,1-1.48,1.14,1.2,1.2,0,0,1-.38-.05,1.52,1.52,0,0,1-1.1-1.86,3.56,3.56,0,0,0,.11-.86,3.41,3.41,0,1,0-2.59,3.34,1.31,1.31,0,0,1,.39,0,1.52,1.52,0,0,1,.38,3A6.39,6.39,0,0,1,143.37,130Z"
     id="path5513" />
  <path
     d="M143.37,105.15a6.5,6.5,0,1,1,6.5-6.5,6.86,6.86,0,0,1-.2,1.63,1.54,1.54,0,0,1-1.48,1.14,1.58,1.58,0,0,1-.38,0,1.54,1.54,0,0,1-1.1-1.87,3.56,3.56,0,0,0,.11-.86,3.45,3.45,0,1,0-3.45,3.45,3.7,3.7,0,0,0,.87-.11,1.58,1.58,0,0,1,.38,0,1.52,1.52,0,0,1,.38,3A6.39,6.39,0,0,1,143.37,105.15Z"
     id="path5515" />
  <path
     d="M143.37,154.89a6.5,6.5,0,1,1,6.5-6.5,6.72,6.72,0,0,1-.2,1.62,1.54,1.54,0,0,1-1.48,1.15,1.58,1.58,0,0,1-.38,0,1.52,1.52,0,0,1-1.1-1.86,3.56,3.56,0,0,0,.11-.86,3.45,3.45,0,1,0-3.45,3.44,3,3,0,0,0,.86-.11,1.72,1.72,0,0,1,.39,0,1.52,1.52,0,0,1,.38,3A6.39,6.39,0,0,1,143.37,154.89Z"
     id="path5517" />
  <path
     d="M163.27,132.5a2.77,2.77,0,0,1-2.77-2.76V117.3a2.77,2.77,0,0,1,2.77-2.77h24.86a2.77,2.77,0,0,1,2.77,2.77v12.44a2.77,2.77,0,0,1-2.77,2.76Zm24.58-3.05V117.58h-24.3v11.87Z"
     id="path5519" />
  <path
     d="M183.16,127.53a1.53,1.53,0,0,1-1.53-1.53v-5a1.53,1.53,0,0,1,3.06,0v5A1.53,1.53,0,0,1,183.16,127.53Z"
     id="path5521" />
  <path
     d="M178.19,127.53a1.52,1.52,0,0,1-1.53-1.53v-5a1.53,1.53,0,1,1,3.05,0v5A1.52,1.52,0,0,1,178.19,127.53Z"
     id="path5523" />
  <path
     d="M173.21,127.53a1.52,1.52,0,0,1-1.52-1.53v-5a1.53,1.53,0,1,1,3.05,0v5A1.52,1.52,0,0,1,173.21,127.53Z"
     id="path5525" />
  <path
     d="M168.24,127.53a1.53,1.53,0,0,1-1.53-1.53v-5a1.53,1.53,0,1,1,3.06,0v5A1.53,1.53,0,0,1,168.24,127.53Z"
     id="path5527" />
  <path
     d="M163.27,107.64a2.78,2.78,0,0,1-2.77-2.77V92.43a2.78,2.78,0,0,1,2.77-2.77h24.86a2.78,2.78,0,0,1,2.77,2.77v12.44a2.78,2.78,0,0,1-2.77,2.77Zm24.58-3.06V92.72h-24.3v11.86Z"
     id="path5529" />
  <path
     d="M183.16,102.66a1.53,1.53,0,0,1-1.53-1.52v-5a1.53,1.53,0,0,1,3.06,0v5A1.53,1.53,0,0,1,183.16,102.66Z"
     id="path5531" />
  <path
     d="M178.19,102.66a1.52,1.52,0,0,1-1.53-1.52v-5a1.53,1.53,0,0,1,3.05,0v5A1.52,1.52,0,0,1,178.19,102.66Z"
     id="path5533" />
  <path
     d="M173.21,102.66a1.52,1.52,0,0,1-1.52-1.52v-5a1.53,1.53,0,0,1,3.05,0v5A1.52,1.52,0,0,1,173.21,102.66Z"
     id="path5535" />
  <path
     d="M163.27,157.37a2.77,2.77,0,0,1-2.77-2.77V142.17a2.77,2.77,0,0,1,2.77-2.77h24.86a2.77,2.77,0,0,1,2.77,2.77V154.6a2.77,2.77,0,0,1-2.77,2.77Zm24.58-3.05V142.45h-24.3v11.87Z"
     id="path5537" />
  <path
     d="M183.16,152.4a1.54,1.54,0,0,1-1.53-1.53v-5a1.53,1.53,0,0,1,3.06,0v5A1.54,1.54,0,0,1,183.16,152.4Z"
     id="path5539" />
  <path
     d="M178.19,152.4a1.53,1.53,0,0,1-1.53-1.53v-5a1.53,1.53,0,1,1,3.05,0v5A1.53,1.53,0,0,1,178.19,152.4Z"
     id="path5541" />
  <path
     class="cls-6"
     d="M89.26,43.82l6.68-4,9.19.61L114,45.05v5.26l-4.59,2.42-4.6-2.42s-3.34-2.56-9.33,0l-3.75,3-5.16-1.95L85.5,46.58Z"
     id="path5543" />
  <path
     class="cls-5"
     d="M91.87,51.44s-2.39-6.68,12.2-11H95l-9,6.17.57,4.76S88.82,54.4,91.87,51.44Z"
     id="path5545" />
  <path
     class="cls-1"
     d="M71.58,34.91l10.86-9.5,12.39-4.56h11.83l15.18,6.27,7.38,8.82-2,4.68h-5l-10.24-8L96.22,29.48,79.37,39.14l-3.62,2.51S72.14,40.76,71.58,34.91Z"
     id="path5547" />
  <path
     class="cls-2"
     d="M79.84,38.29s5.87-17.14,29.52-16L94.6,21.55,77.36,29.24l-5.08,6.7,2.11,5.71Z"
     id="path5549" />
  <path
     class="cls-4"
     d="M57.8,23.08,71.16,11l15-7.66,18.51-1.39,17.4,4.73A120.5,120.5,0,0,1,133.53,14c4.32,3.34,9.05,9.91,9.05,9.91l-.84,5.54H135.9l-7.66-8.07L112,11.8l-19.83-.69-18.6,9.32-9.94,9.05L57.8,27.39Z"
     id="path5551" />
  <path
     class="cls-3"
     d="M65,29.24s9.12-25.91,44.4-25.8L90.88,1.92l-18.6,8.59L57.8,23.94l1.83,5.3Z"
     id="path5553" />
  <path
     d="M62.37,32a5.6,5.6,0,0,1-3.58-1.29,6.71,6.71,0,0,1-1-9.23C68.54,7.91,84,.08,100.31,0h.24A51.78,51.78,0,0,1,124,5.6a1.67,1.67,0,0,1,.74,2.25,1.65,1.65,0,0,1-1.49.92,1.8,1.8,0,0,1-.76-.17,48.47,48.47,0,0,0-22-5.25h-.23c-15.26.08-29.79,7.44-39.87,20.2a3.36,3.36,0,0,0,.45,4.55,2.32,2.32,0,0,0,1.48.55,2.43,2.43,0,0,0,1.88-1c9.1-11.53,22.25-18.18,36.09-18.25h.21c13.75,0,26.89,6.53,36.05,17.91a2.43,2.43,0,0,0,1.87.94,2.33,2.33,0,0,0,1.49-.55,3.35,3.35,0,0,0,.41-4.56,55.52,55.52,0,0,0-12.87-11.71,1.68,1.68,0,0,1,1.83-2.81A58.6,58.6,0,0,1,143,21.08a6.71,6.71,0,0,1-.88,9.24,5.64,5.64,0,0,1-3.62,1.33,5.75,5.75,0,0,1-4.49-2.2c-8.52-10.58-20.71-16.65-33.44-16.65h-.19c-12.81.06-25,6.24-33.48,17A5.73,5.73,0,0,1,62.37,32Z"
     id="path5555" />
  <path
     d="M76.16,43.22a5.6,5.6,0,0,1-3.56-1.28,6.53,6.53,0,0,1-2.34-4.5,6.73,6.73,0,0,1,1.55-5c7.51-8.71,17.64-13.54,28.53-13.59h.17c10.83,0,20.94,4.73,28.49,13.32a6.76,6.76,0,0,1,1.6,4.95,6.58,6.58,0,0,1-2.3,4.52A5.61,5.61,0,0,1,124.7,43a5.87,5.87,0,0,1-4.39-2,26.21,26.21,0,0,0-19.79-9.27h-.12a26.23,26.23,0,0,0-19.82,9.46A5.88,5.88,0,0,1,76.16,43.22Zm-1.34-3.8a2.21,2.21,0,0,0,1.34.45A2.49,2.49,0,0,0,78,39a29.51,29.51,0,0,1,22.35-10.62h.13a29.53,29.53,0,0,1,22.31,10.41,2.48,2.48,0,0,0,1.87.9h0a2.31,2.31,0,0,0,1.46-.54,3.17,3.17,0,0,0,1.1-2.21,3.36,3.36,0,0,0-.78-2.47c-6.9-7.85-16.12-12.18-26-12.18h-.16c-9.91.05-19.14,4.46-26,12.43a3.31,3.31,0,0,0-.75,2.47,3.18,3.18,0,0,0,1,2.11h0l.1.1Z"
     id="path5557" />
  <path
     d="M90.12,54.58a5.67,5.67,0,0,1-3.56-1.28,6.7,6.7,0,0,1-.26-10,21.35,21.35,0,0,1,14.08-5.53h.09a21.37,21.37,0,0,1,14,5.4,6.71,6.71,0,0,1-.17,10,5.66,5.66,0,0,1-3.6,1.31,5.8,5.8,0,0,1-3.8-1.45A10,10,0,0,0,103.25,51a1.65,1.65,0,0,1-1-.82,1.66,1.66,0,0,1,1.48-2.46,1.59,1.59,0,0,1,.48.07,13.25,13.25,0,0,1,4.91,2.73,2.51,2.51,0,0,0,1.61.63,2.27,2.27,0,0,0,1.46-.55,3.18,3.18,0,0,0,1.11-2.44,3.11,3.11,0,0,0-1-2.45,17.72,17.72,0,0,0-11.82-4.57h-.08A17.77,17.77,0,0,0,88.53,45.8a3.35,3.35,0,0,0,.14,4.89,2.28,2.28,0,0,0,1.45.53,2.48,2.48,0,0,0,1.62-.64,13.66,13.66,0,0,1,5.71-3,1.81,1.81,0,0,1,.4,0,1.67,1.67,0,0,1,.39,3.3A10.11,10.11,0,0,0,94,53.1,5.86,5.86,0,0,1,90.12,54.58Z"
     id="path5559" />
  <path
     d="M100.43,71.88a7,7,0,1,1,7-7A7,7,0,0,1,100.43,71.88Zm0-10.69a3.67,3.67,0,1,0,3.64,3.67A3.66,3.66,0,0,0,100.43,61.19Z"
     id="path5561" />
  <line
     class="cls-7"
     x1="70.23"
     y1="123.38"
     x2="130.62"
     y2="123.38"
     id="line5563" />
  <line
     class="cls-7"
     x1="100.19"
     y1="70.58"
     x2="100.19"
     y2="123.38"
     id="line5565" />
</svg>
