<svg id="Capa_1" data-name="Capa 1" xmlns="http://www.w3.org/2000/svg" viewBox="0 0 109.51 120.51"><defs><style>.cls-1{fill:#02809d;}.cls-2{fill:#17b5c8;}.cls-3{fill:#5f7993;}.cls-4{fill:#3a5368;}.cls-5{fill:#a6d100;}.cls-6{fill:#6cab00;}</style></defs><circle class="cls-1" cx="53.16" cy="76.71" r="4.37"/><circle class="cls-2" cx="51.24" cy="76.71" r="4.16"/><polygon class="cls-2" points="34.28 49.38 45.93 47.33 48.41 49.81 69.33 44.16 69.33 48.91 36.28 59.27 34.28 49.38"/><path class="cls-1" d="M59.54,47.86s-1.44,4-4.18,5l13.79-4.59-1.52-2.74Z"/><polygon class="cls-3" points="26.43 44.36 33.52 50.29 44.83 47.33 47.93 49.38 71.7 42.36 68.19 32.92 26.43 44.36"/><path class="cls-4" d="M31.56,47.12,45.48,43a1.77,1.77,0,0,1,1.87.55l1.72,2,21.26-6.27,1,3.53L47,49.73,43.4,47.58S33,51.17,32.75,50.29A32.6,32.6,0,0,0,31.56,47.12Z"/><path class="cls-5" d="M107.63,23.14s-3.47-.69-12.87-5.27S84.44,3.19,84.44,3.19H24.59L22.3,9.61C20,16,1.86,23.14,1.86,23.14s-2.95,6.42,2.33,39.55S55,118.53,55,118.53s19.54-7.34,38.57-32.79S107.63,23.14,107.63,23.14Zm-6.46,18.68A72.88,72.88,0,0,1,89.63,80.9a83.85,83.85,0,0,1-31.9,29l-.21.11a5.94,5.94,0,0,1-2.76.69A5.88,5.88,0,0,1,52,110l-.22-.11a83.85,83.85,0,0,1-31.9-29A72.87,72.87,0,0,1,8.35,41.82V31.46A5.88,5.88,0,0,1,12.08,26a29.63,29.63,0,0,0,16-14.72,6,6,0,0,1,5.35-3.36H76a5.94,5.94,0,0,1,5.35,3.36A29.63,29.63,0,0,0,97.43,26a5.89,5.89,0,0,1,3.74,5.51Z"/><path class="cls-6" d="M36.9,106.14s17.09,14,38.12,0L55,118.53Z"/><path class="cls-6" d="M80.62,3.5S83.22,24,106.3,25.66V21.84s-18-6.27-20.79-17.27Z"/><path class="cls-6" d="M3.11,26.41s26.76-2.89,23.32-24H23.67s-.07,8.71-4.2,13.14S3.11,22.62,3.11,22.62Z"/><path d="M54.76,110.68A5.88,5.88,0,0,1,52,110l-.22-.11a83.85,83.85,0,0,1-31.9-29A72.87,72.87,0,0,1,8.35,41.82V31.46A5.88,5.88,0,0,1,12.08,26a29.63,29.63,0,0,0,16-14.72,6,6,0,0,1,5.35-3.36H76a5.94,5.94,0,0,1,5.35,3.36A29.63,29.63,0,0,0,97.43,26a5.89,5.89,0,0,1,3.74,5.51V41.82A72.88,72.88,0,0,1,89.63,80.9a83.85,83.85,0,0,1-31.9,29l-.21.11A5.94,5.94,0,0,1,54.76,110.68ZM33.47,12.4a1.36,1.36,0,0,0-1.25.78,34.19,34.19,0,0,1-18.47,17,1.38,1.38,0,0,0-.87,1.29V41.82A68.33,68.33,0,0,0,23.71,78.47a79.2,79.2,0,0,0,30.18,27.4l.21.11a1.42,1.42,0,0,0,1.31,0l.22-.11A79.24,79.24,0,0,0,85.8,78.47,68.33,68.33,0,0,0,96.63,41.82V31.46a1.38,1.38,0,0,0-.87-1.29,34.19,34.19,0,0,1-18.47-17A1.36,1.36,0,0,0,76,12.4Z"/><path d="M54.76,120.51a5.17,5.17,0,0,1-2.38-.59l-5.19-2.72C23.83,104.91,7.32,84.07,1.92,60a2.26,2.26,0,0,1,1.71-2.71,2.07,2.07,0,0,1,.5,0A2.26,2.26,0,0,1,6.34,59c5.11,22.77,20.77,42.52,43,54.18l5.19,2.73a.6.6,0,0,0,.27.07.68.68,0,0,0,.27-.07l5.18-2.73C82.36,101.54,98,81.83,103.16,59.1a2.25,2.25,0,0,1,2.2-1.77,2.07,2.07,0,0,1,.5.06,2.26,2.26,0,0,1,1.71,2.71c-5.43,24-21.92,44.83-45.25,57.1l-5.19,2.72A5.13,5.13,0,0,1,54.76,120.51Z"/><path d="M2.66,52.82a2.26,2.26,0,0,1-2.25-2,79.77,79.77,0,0,1-.41-8V24.52a5.09,5.09,0,0,1,4.54-5.08c8.81-.93,15.74-7.09,16.84-15A5.17,5.17,0,0,1,26.45,0H83.06a5.17,5.17,0,0,1,5.07,4.44c1.1,7.9,8,14.07,16.84,15a5.09,5.09,0,0,1,4.54,5.08V42.77a77.89,77.89,0,0,1-.4,7.94,2.26,2.26,0,0,1-2.25,2h-.24a2.27,2.27,0,0,1-2-2.48c.25-2.48.38-5,.38-7.48V24.52a.57.57,0,0,0-.48-.57C93.61,22.8,85,15,83.64,5.07a.59.59,0,0,0-.58-.54H26.45a.6.6,0,0,0-.58.54C24.48,15,15.9,22.8,5,24a.57.57,0,0,0-.49.57V42.77a73.62,73.62,0,0,0,.39,7.56,2.27,2.27,0,0,1-2,2.48Z"/><path d="M75,73.16H59.52a7.2,7.2,0,0,0-2.74-2.79V54.81L70.45,51a1.89,1.89,0,0,0,1.31-2.32l-1-3.5,1.39-.39a1.81,1.81,0,0,0,1.13-.89,1.88,1.88,0,0,0,.18-1.43l-3-10.63a1.9,1.9,0,0,0-1.81-1.37,2.09,2.09,0,0,0-.51.07L25,42.62a1.92,1.92,0,0,0-1.35,1.49A1.88,1.88,0,0,0,24.46,46L26.2,47.2a7.42,7.42,0,0,0,6.11,11.62,7.94,7.94,0,0,0,1.46-.14l.16.59a1.91,1.91,0,0,0,1.82,1.38,2.08,2.08,0,0,0,.5-.07L48.1,57.25V71.42a.8.8,0,0,1-.13.13,7.31,7.31,0,0,0,10.18,10.5s.15-.15.37-.42h19.3V73.16Zm-42.7-18.1a3.66,3.66,0,0,1-3.06-5.68l2.37,1.68,1.12,4Zm1.3-7.2-3.77-2.68L67.37,34.64l2,7L48.18,47.59l-2.12-2.2a1.93,1.93,0,0,0-1.36-.57,1.68,1.68,0,0,0-.5.07Zm3.43,8.59-1.47-5.23,8.55-2.4L46.26,51a1.86,1.86,0,0,0,1.35.58,2.24,2.24,0,0,0,.51-.07l19-5.35.48,1.69Zm16-.58V69.39a7.48,7.48,0,0,0-1.15.12V56.2Zm.13,24.4a3.56,3.56,0,0,1,0-7.11,3.48,3.48,0,0,1,2.51,1,3.52,3.52,0,0,1,1,2.51A3.56,3.56,0,0,1,53.15,80.27ZM75,78H60.34a6,6,0,0,0,.11-.85c0-.12,0-.23,0-.34H75Z"/></svg>