<svg id="Capa_1" data-name="Capa 1" xmlns="http://www.w3.org/2000/svg" viewBox="0 0 193.66 119.88"><defs><style>.cls-1{fill:#1d1d1b;}.cls-2{fill:#a6d100;}.cls-3{fill:#6cab00;}.cls-4{fill:#5f7993;}.cls-5{fill:#3a5368;}.cls-6{fill:#17b5c8;}.cls-7{fill:#02809d;}</style></defs><path class="cls-1" d="M188.58,119.88H90.15a5.09,5.09,0,0,1-5.09-5.08V16.36a5.09,5.09,0,0,1,5.09-5.08h98.43a5.09,5.09,0,0,1,5.08,5.08V114.8A5.09,5.09,0,0,1,188.58,119.88ZM90.15,15.78a.58.58,0,0,0-.59.58V114.8a.58.58,0,0,0,.59.58h98.43a.58.58,0,0,0,.58-.58V16.36a.58.58,0,0,0-.58-.58Z"/><polygon class="cls-2" points="42.8 50.01 29.07 36.28 30.62 29.44 36.91 28.19 64.72 55.76 36.75 83.59 29.8 81.14 29.56 74.85 42.55 61.37 6.19 61.2 2.1 56.46 3.57 50.71 42.8 50.01"/><path class="cls-3" d="M5.53,55.76a5.22,5.22,0,0,1,3.8-5,5.15,5.15,0,0,0-1.43-.21A5.23,5.23,0,0,0,7.9,61a5.15,5.15,0,0,0,1.43-.2A5.23,5.23,0,0,1,5.53,55.76Z"/><path class="cls-3" d="M33.08,32.35a5.23,5.23,0,0,1,6.24-.87,5.23,5.23,0,1,0-7.11,7.11A5.23,5.23,0,0,1,33.08,32.35Z"/><path class="cls-3" d="M33.08,79.18a5.25,5.25,0,0,1-.87-6.25,5.23,5.23,0,1,0,6.24,8.27A5.1,5.1,0,0,0,39.32,80,5.23,5.23,0,0,1,33.08,79.18Z"/><path d="M34.77,85.39A7.74,7.74,0,0,1,29.3,72.18l9-9H7.41a7.41,7.41,0,0,1,0-14.82h30.9l-9-9a7.74,7.74,0,0,1,5.47-13.21,7.66,7.66,0,0,1,5.47,2.26l26,26a1.92,1.92,0,0,1,0,2.73l-26,26A7.66,7.66,0,0,1,34.77,85.39ZM7.41,52.22a3.54,3.54,0,0,0,0,7.08H43a1.93,1.93,0,0,1,1.37,3.3L32,74.92a4,4,0,0,0,0,5.47,3.87,3.87,0,0,0,5.47,0L62.13,55.76,37.51,31.14A3.87,3.87,0,0,0,32,36.61L44.35,48.92a2,2,0,0,1,.57,1.37,1.85,1.85,0,0,1-.15.74A1.92,1.92,0,0,1,43,52.22Z"/><polygon class="cls-1" points="71.63 107.34 86.91 118.72 90.14 115.38 74.38 103.52 71.63 107.34"/><polygon class="cls-1" points="173.98 4.41 189.26 15.78 191.9 12.58 176.24 0.87 173.98 4.41"/><path class="cls-4" d="M185.17,104.21V12.73l-6.69-5v8H90.15a.58.58,0,0,0-.59.58V108.6H81.14L84.2,111h94.17A6.8,6.8,0,0,0,185.17,104.21Z"/><path class="cls-5" d="M90.15,115.38h98.43a.58.58,0,0,0,.58-.58v-95l.1-4-4.09-3v91.48a6.8,6.8,0,0,1-6.8,6.79H84.2l5.58,4.38Z"/><rect class="cls-6" x="74.38" y="4.5" width="99.6" height="99.6" rx="0.58"/><path class="cls-7" d="M174,60s-.61,44.07-44.76,44.07h46.32V60Z"/><path class="cls-7" d="M174,46.32s-.61-44.07-44.76-44.07h46.32V46.32Z"/><path class="cls-1" d="M173.4,108.6H75a5.09,5.09,0,0,1-5.09-5.08V5.08A5.09,5.09,0,0,1,75,0H173.4a5.09,5.09,0,0,1,5.08,5.08v98.44A5.09,5.09,0,0,1,173.4,108.6ZM75,4.5a.59.59,0,0,0-.59.58v98.44a.59.59,0,0,0,.59.58H173.4a.58.58,0,0,0,.58-.58V5.08a.58.58,0,0,0-.58-.58Z"/></svg>