<svg id="Capa_1" data-name="Capa 1" xmlns="http://www.w3.org/2000/svg" viewBox="0 0 302.23 122.51"><defs><style>.cls-1{fill:#5f7993;}.cls-2{fill:#3a5368;}.cls-3{fill:#17b5c8;}.cls-4{fill:#02809d;}.cls-5{fill:#a6d100;}.cls-6{fill:#6cab00;}</style></defs><path class="cls-1" d="M19.71,47.48,22,19.31S34.07,2.94,48.34,2.94s25.3,13.65,25.3,13.65S77.48,48.76,77,48.76H67.56L67.4,26.83,56,13.23l-2.17-.6a12.47,12.47,0,0,0-10.68,0L30.75,21.07,29.47,48.76Z"/><rect class="cls-2" x="19.71" y="43.39" width="9.92" height="4.57"/><rect class="cls-2" x="67.12" y="43.39" width="9.92" height="4.57"/><path class="cls-2" d="M13.17,109.16V59.1A10.29,10.29,0,0,1,23.45,48.81H3.14v70.63H23.45A10.28,10.28,0,0,1,13.17,109.16Z"/><path class="cls-1" d="M23.45,48.81A10.29,10.29,0,0,0,13.17,59.1v50.06a10.28,10.28,0,0,0,10.28,10.28H93.57V48.81ZM56.52,99.53a2.41,2.41,0,0,1-.6,1.85,2.38,2.38,0,0,1-1.78.79H42.7a2.38,2.38,0,0,1-1.78-.79,2.41,2.41,0,0,1-.6-1.85l1.59-15a10,10,0,1,1,16.47-7.72,10,10,0,0,1-3.46,7.59Z"/><path d="M48.6,9.57h-.26a2.4,2.4,0,1,0,0,4.79h.24a2.4,2.4,0,0,0,0-4.79Z"/><path d="M89.49,46.42H79.2V30.87a30.87,30.87,0,1,0-61.73,0V46.42H7.18A7.19,7.19,0,0,0,0,53.6v61.73a7.19,7.19,0,0,0,7.18,7.18H89.49a7.19,7.19,0,0,0,7.18-7.18V53.6A7.19,7.19,0,0,0,89.49,46.42Zm2.39,68.91a2.4,2.4,0,0,1-2.39,2.4H7.18a2.4,2.4,0,0,1-2.39-2.4V53.6a2.39,2.39,0,0,1,2.39-2.39H40.44a2.4,2.4,0,0,0,0-4.79H31.82V30.87a16.49,16.49,0,0,1,10.1-15.21,2.4,2.4,0,0,0-1.87-4.41A21.29,21.29,0,0,0,27,30.87V46.42H22.25V30.87a26.09,26.09,0,0,1,52.17,0V46.42H69.63V30.87A21.32,21.32,0,0,0,57,11.43a2.39,2.39,0,0,0-2,4.36,16.57,16.57,0,0,1,9.78,15.08V46.42H57.07a2.4,2.4,0,0,0,0,4.79H89.49a2.39,2.39,0,0,1,2.39,2.39Z"/><path d="M48.69,46.42h-.06a2.4,2.4,0,0,0,0,4.79h.06a2.4,2.4,0,1,0,0-4.79Z"/><path d="M54.92,84.4a10,10,0,1,0-13,.13l-1.59,15a2.41,2.41,0,0,0,.6,1.85,2.38,2.38,0,0,0,1.78.79H54.14a2.38,2.38,0,0,0,1.78-.79,2.41,2.41,0,0,0,.6-1.85Zm-3.8-3.13A2.39,2.39,0,0,0,50,83.55l1.46,13.84H45.36l1.45-13.74a2.39,2.39,0,0,0-1.15-2.31,5.27,5.27,0,1,1,5.46-.07Z"/><path class="cls-3" d="M122.49,47.48l2.24-28.17S136.85,2.94,151.11,2.94s25.31,13.65,25.31,13.65,3.84,32.17,3.36,32.17h-9.44l-.16-21.93-11.37-13.6-2.16-.6a12.47,12.47,0,0,0-10.68,0l-12.44,8.44-1.28,27.69Z"/><rect class="cls-4" x="122.49" y="43.39" width="9.92" height="4.57"/><rect class="cls-4" x="169.9" y="43.39" width="9.92" height="4.57"/><path class="cls-4" d="M116,109.16V59.1a10.29,10.29,0,0,1,10.28-10.29H105.92v70.63h20.31A10.28,10.28,0,0,1,116,109.16Z"/><path class="cls-3" d="M126.23,48.81A10.29,10.29,0,0,0,116,59.1v50.06a10.28,10.28,0,0,0,10.28,10.28h70.12V48.81Zm30.15,36.76A5.68,5.68,0,0,1,153.9,90a2.42,2.42,0,0,0-1.11,2.28l1.47,7.33h-6.12l1.45-7.23a2.38,2.38,0,0,0-1.16-2.31,5.52,5.52,0,0,1-2.58-4.53,12.62,12.62,0,0,1,0-1.48,5.24,5.24,0,0,1,2.47-4.47,2.37,2.37,0,0,0,1.11-2.28l-1.38-8.17h6.12l-1.54,8.08a2.42,2.42,0,0,0,1.16,2.31,5.22,5.22,0,0,1,2.59,4.53A7.08,7.08,0,0,1,156.38,85.57Z"/><path d="M151.38,9.57h-.27a2.4,2.4,0,0,0,0,4.79h.24a2.4,2.4,0,0,0,0-4.79Z"/><path d="M192.27,46.42H182V30.87a30.87,30.87,0,1,0-61.73,0V46.42H110a7.19,7.19,0,0,0-7.18,7.18v61.73a7.19,7.19,0,0,0,7.18,7.18h82.31a7.19,7.19,0,0,0,7.18-7.18V53.6A7.19,7.19,0,0,0,192.27,46.42Zm2.39,68.91a2.4,2.4,0,0,1-2.39,2.4H110a2.41,2.41,0,0,1-2.4-2.4V53.6a2.4,2.4,0,0,1,2.4-2.39h33.26a2.4,2.4,0,0,0,0-4.79H134.6V30.87a16.48,16.48,0,0,1,10.1-15.21,2.4,2.4,0,0,0-1.87-4.41,21.27,21.27,0,0,0-13,19.62V46.42H125V30.87a26.09,26.09,0,0,1,52.17,0V46.42h-4.79V30.87a21.34,21.34,0,0,0-12.6-19.44,2.39,2.39,0,0,0-2,4.36,16.56,16.56,0,0,1,9.77,15.08V46.42h-7.77a2.4,2.4,0,1,0,0,4.79h32.42a2.39,2.39,0,0,1,2.39,2.39Z"/><path d="M151.47,46.42h-.06a2.4,2.4,0,0,0,0,4.79h.06a2.4,2.4,0,1,0,0-4.79Z"/><path d="M157.7,93.16a10,10,0,0,0-.5-15.57l2-10.56a2.4,2.4,0,0,0-2.38-2.65H145.39a2.37,2.37,0,0,0-1.77.8A2.32,2.32,0,0,0,143,67l2,10.54a10,10,0,0,0-.36,15.72l-1.59,8.49a2.4,2.4,0,0,0,2.38,2.65h11.44a2.4,2.4,0,0,0,2.38-2.65Zm-1.32-7.59A5.68,5.68,0,0,1,153.9,90a2.42,2.42,0,0,0-1.11,2.28l1.47,7.33h-6.12l1.45-7.23a2.38,2.38,0,0,0-1.16-2.31,5.52,5.52,0,0,1-2.58-4.53,12.62,12.62,0,0,1,0-1.48,5.24,5.24,0,0,1,2.47-4.47,2.37,2.37,0,0,0,1.11-2.28l-1.38-8.17h6.12l-1.54,8.08a2.42,2.42,0,0,0,1.16,2.31,5.22,5.22,0,0,1,2.59,4.53A7.08,7.08,0,0,1,156.38,85.57Z"/><path class="cls-5" d="M225.26,47.48l2.24-28.17S239.63,2.94,253.89,2.94,279.2,16.59,279.2,16.59s3.84,32.17,3.36,32.17h-9.44L273,26.83l-11.37-13.6-2.17-.6a12.47,12.47,0,0,0-10.68,0l-12.43,8.44L235,48.76Z"/><rect class="cls-6" x="225.26" y="43.39" width="9.92" height="4.57"/><rect class="cls-6" x="272.68" y="43.39" width="9.92" height="4.57"/><path class="cls-6" d="M218.72,109.16V59.1A10.29,10.29,0,0,1,229,48.81H208.69v70.63H229A10.29,10.29,0,0,1,218.72,109.16Z"/><path class="cls-5" d="M229,48.81A10.29,10.29,0,0,0,218.72,59.1v50.06A10.29,10.29,0,0,0,229,119.44h70.12V48.81Zm36.16,46.34a2.24,2.24,0,0,1-2.24,2.24H244.82a2.24,2.24,0,0,1-2.24-2.24h0a2.24,2.24,0,0,1,2.24-2.24h4.56a2.24,2.24,0,0,0,2.22-2l.3-2.78.47-4.47a2.43,2.43,0,0,0-1.19-2.33,5.27,5.27,0,1,1,7.89-3.54,5.57,5.57,0,0,1-2.46,3.54,2.39,2.39,0,0,0-1,2.23l.48,4.57.3,2.78a2.24,2.24,0,0,0,2.23,2h4.35a2.24,2.24,0,0,1,2.24,2.24Z"/><path d="M254.16,9.57h-.27a2.4,2.4,0,0,0,0,4.79h.24a2.4,2.4,0,0,0,0-4.79Z"/><path d="M295.05,46.42H284.76V30.87a30.87,30.87,0,0,0-61.74,0V46.42H212.73a7.18,7.18,0,0,0-7.17,7.18v61.73a7.18,7.18,0,0,0,7.17,7.18h82.32a7.19,7.19,0,0,0,7.18-7.18V53.6A7.19,7.19,0,0,0,295.05,46.42Zm2.39,68.91a2.4,2.4,0,0,1-2.39,2.4H212.73a2.4,2.4,0,0,1-2.39-2.4V53.6a2.4,2.4,0,0,1,2.39-2.39H246a2.4,2.4,0,0,0,0-4.79h-8.62V30.87a16.48,16.48,0,0,1,10.09-15.21,2.39,2.39,0,0,0-1.86-4.41,21.27,21.27,0,0,0-13,19.62V46.42h-4.79V30.87a26.08,26.08,0,0,1,52.16,0V46.42h-4.78V30.87a21.34,21.34,0,0,0-12.6-19.44,2.39,2.39,0,1,0-2,4.36,16.56,16.56,0,0,1,9.77,15.08V46.42h-7.78a2.4,2.4,0,0,0,0,4.79h32.43a2.39,2.39,0,0,1,2.39,2.39Z"/><path d="M254.25,46.42h-.06a2.4,2.4,0,0,0,0,4.79h.06a2.4,2.4,0,0,0,0-4.79Z"/><path d="M267.56,88.12h-6.69l-.4-3.72a10,10,0,1,0-13,.13l-.38,3.59H240a2.24,2.24,0,0,0-2.24,2.24v9.57a2.24,2.24,0,0,0,2.24,2.24h27.69A2.24,2.24,0,0,0,270,99.93V90.36a2.24,2.24,0,0,0-2.24-2.24Zm-2.39,7a2.24,2.24,0,0,1-2.24,2.24H244.82a2.24,2.24,0,0,1-2.24-2.24h0a2.24,2.24,0,0,1,2.24-2.24h4.56a2.24,2.24,0,0,0,2.22-2l.3-2.78.47-4.47a2.43,2.43,0,0,0-1.19-2.33,5.27,5.27,0,1,1,7.89-3.54,5.57,5.57,0,0,1-2.46,3.54,2.39,2.39,0,0,0-1,2.23l.48,4.57.3,2.78a2.24,2.24,0,0,0,2.23,2h4.35a2.24,2.24,0,0,1,2.24,2.24Z"/></svg>