<svg id="Capa_1" data-name="Capa 1" xmlns="http://www.w3.org/2000/svg" viewBox="0 0 185.86 126.66"><defs><style>.cls-1{fill:#5f7993;}.cls-2{fill:#3a5368;}.cls-3{fill:#a6d100;}.cls-4{fill:#6cab00;}.cls-5,.cls-7{fill:#17b5c8;}.cls-6{fill:#02809d;}.cls-7{stroke:#000;stroke-miterlimit:10;}.cls-8{fill:none;}</style></defs><rect class="cls-1" x="150.99" y="60.15" width="34.87" height="5.29"/><rect class="cls-2" x="152.7" y="58.54" width="12.44" height="6.88"/><polygon class="cls-3" points="94.2 38.78 94.2 86.02 131.31 86.02 142.11 77.36 142.11 47.07 132.55 38.78 94.2 38.78"/><path class="cls-4" d="M121.5,38.79s11.69,4.9,11.69,13.76V75.78s-.34,10.33-10.33,10.33h10L143,75.78V48.45s-7.34-8.25-7.8-8.56S121.5,38.79,121.5,38.79Z"/><rect class="cls-5" x="60.57" y="50.59" width="25.87" height="3.94"/><rect class="cls-6" x="79.08" y="49.39" width="7.03" height="5.94"/><rect class="cls-5" x="60.57" y="70.27" width="25.87" height="5.08"/><rect class="cls-6" x="79.08" y="69.84" width="7.03" height="5.94"/><polygon class="cls-7" points="3.35 2.55 2.12 124.02 47.05 124.02 47.05 75.35 22.84 75.35 20.38 72.23 22.22 69.44 47.05 68.83 48.08 55.49 22.84 54.67 20.58 52.33 23.05 49.39 48.08 49.39 48.08 2.55 3.35 2.55"/><path class="cls-6" d="M14.42,3.2S9.37,5.8,9.37,11.46V117.09s0,5.42,5.43,5.42v1.9L2.12,124,2.25,3.2Z"/><path d="M102.63,75.35a2,2,0,0,1-2-2V51.41a2,2,0,0,1,4,0V73.33A2,2,0,0,1,102.63,75.35Z"/><path d="M110.87,71.88a2,2,0,0,1-2-2v-15a2,2,0,1,1,4,0v15A2,2,0,0,1,110.87,71.88Z"/><path d="M95.67,88.5a3.3,3.3,0,0,1-3.3-3.3v-.3H89.66a4.54,4.54,0,0,1-4.53-4.53v-2.7H74.64a2,2,0,1,1,0-4H85.13V71.18H62.39a1.23,1.23,0,0,0,0,2.46h5.32a2,2,0,0,1,0,4H62.39a5.27,5.27,0,0,1,0-10.53H85.13V57.59H62.39a5.26,5.26,0,1,1,0-10.52H85.13v-2.7a4.54,4.54,0,0,1,4.53-4.53h2.71v-.3a3.3,3.3,0,0,1,3.3-3.3h19.61a2,2,0,0,1,0,4H96.41V84.46h31.77a12.9,12.9,0,0,0,12.9-12.89V53.17a12.91,12.91,0,0,0-12.9-12.9h-6a2,2,0,1,1,0-4h6a17,17,0,0,1,16.27,12.23h2.76A5.5,5.5,0,0,1,152.7,54v3.15h33.16V67.62H152.7v3.16a5.5,5.5,0,0,1-5.49,5.49h-2.76A17,17,0,0,1,128.18,88.5Zm-6-44.63a.5.5,0,0,0-.49.5v36a.49.49,0,0,0,.49.49h2.71v-37Zm57.55,28.36a1.45,1.45,0,0,0,1.45-1.45V54a1.46,1.46,0,0,0-1.45-1.46H145.1c0,2.42,0,17.32,0,19.73Zm38.65-8.64V61.15H152.7v2.44ZM62.39,51.1a1.23,1.23,0,0,0,0,2.46H85.13V51.1Z"/><path class="cls-8" d="M18.42,52.33a5.27,5.27,0,0,1,5.26-5.26H45.51v-42a.58.58,0,0,0-.59-.58H5.08a.58.58,0,0,0-.58.58v116.5a.58.58,0,0,0,.58.58H44.92a.58.58,0,0,0,.59-.58V77.5H23.69a5.27,5.27,0,1,1,0-10.53H45.51V57.59H23.69A5.27,5.27,0,0,1,18.42,52.33Z"/><path d="M44.92,0H5.08A5.09,5.09,0,0,0,0,5.08v116.5a5.09,5.09,0,0,0,5.08,5.08H44.92A5.09,5.09,0,0,0,50,121.58V73.46H23.69a1.23,1.23,0,1,1,0-2.46H50V53.56H23.69a1.23,1.23,0,1,1,0-2.46H50v-46A5.09,5.09,0,0,0,44.92,0ZM23.68,47.07a5.26,5.26,0,1,0,0,10.52H45.51V67H23.68a5.27,5.27,0,1,0,0,10.53H45.51v44.08a.58.58,0,0,1-.59.58H5.08a.58.58,0,0,1-.58-.58V5.08a.58.58,0,0,1,.58-.58H44.92a.58.58,0,0,1,.59.58v42Z"/></svg>