<svg id="Capa_1" data-name="Capa 1" xmlns="http://www.w3.org/2000/svg" viewBox="0 0 127.47 127.47"><defs><style>.cls-1{fill:#5f7993;}.cls-2{fill:#3a5368;}.cls-3{fill:#17b5c8;}.cls-4{fill:#02809d;}.cls-5{fill:#a6d100;}.cls-6{fill:#6cab00;}</style></defs><rect class="cls-1" x="33.93" y="3.38" width="59.09" height="21.09"/><path class="cls-2" d="M87.46,24.08V11.46a3.78,3.78,0,0,0-3.79-3.78H35.36V2.21H93L94,21.58S90.35,26.74,87.46,24.08Z"/><polygon class="cls-3" points="3.47 75.24 124.7 75.24 124.7 93.03 121.48 96.25 94.55 96.25 94.55 85.74 33.31 85.74 33.31 95.24 5.34 95.24 2.77 92.67 3.47 75.24"/><path class="cls-4" d="M13.15,75.4V88.86c0,4.17,5.23,5.22,5.23,5.22l-13.95.25-2.21-3L2,75.24Z"/><path class="cls-5" d="M3.47,26v49.2H124.7V26Zm86.77,11.4h20a2.79,2.79,0,0,1,0,5.57h-20a2.79,2.79,0,0,1,0-5.57Zm0,25.58A2.79,2.79,0,1,1,93,60.23,2.79,2.79,0,0,1,90.24,63Zm20,0A2.79,2.79,0,1,1,113,60.23,2.79,2.79,0,0,1,110.25,63Z"/><path class="cls-6" d="M21.28,27.44s-8,2-8,14.06V74H2V28.69a10.6,10.6,0,0,1,9.65-3.43C17.84,26.19,21.12,23.53,21.28,27.44Z"/><path d="M38.73,127.47a7.23,7.23,0,0,1-7.22-7.22V97.46H7.22A7.23,7.23,0,0,1,0,90.24v-60A7.23,7.23,0,0,1,7.22,23H31.51V7.22A7.23,7.23,0,0,1,38.73,0h50A7.23,7.23,0,0,1,96,7.22V23h24.29a7.23,7.23,0,0,1,7.22,7.22v60a7.23,7.23,0,0,1-7.22,7.22H96v22.79a7.23,7.23,0,0,1-7.22,7.22Zm-2.79-7.22A2.78,2.78,0,0,0,38.73,123h50a2.78,2.78,0,0,0,2.79-2.78V87.46H35.94ZM96,93h24.29A2.79,2.79,0,0,0,123,90.24V77.46H75A2.22,2.22,0,0,1,75,73H123V30.23a2.79,2.79,0,0,0-2.79-2.79H7.22a2.78,2.78,0,0,0-2.78,2.79V73h48a2.22,2.22,0,1,1,0,4.44h-48V90.24A2.79,2.79,0,0,0,7.22,93H31.51V87.46H28.72a2.22,2.22,0,0,1,0-4.44h70a2.22,2.22,0,0,1,0,4.44H96ZM38.73,4.43a2.79,2.79,0,0,0-2.79,2.79V23H91.53V7.22a2.79,2.79,0,0,0-2.79-2.79Z"/><path d="M68.74,117.47a2.22,2.22,0,0,1,0-4.44h15a2.22,2.22,0,1,1,0,4.44Z"/><path d="M43.73,107.46a2.22,2.22,0,1,1,0-4.43h40a2.22,2.22,0,1,1,0,4.43Z"/><path d="M43.73,97.46a2.22,2.22,0,1,1,0-4.43h40a2.22,2.22,0,1,1,0,4.43Z"/><path d="M110.25,67.45a7.22,7.22,0,1,1,7.22-7.22A7.23,7.23,0,0,1,110.25,67.45Zm0-10A2.79,2.79,0,1,0,113,60.23,2.79,2.79,0,0,0,110.25,57.45Z"/><path d="M90.24,67.45a7.22,7.22,0,1,1,7.22-7.22A7.23,7.23,0,0,1,90.24,67.45Zm0-10A2.79,2.79,0,1,0,93,60.23,2.79,2.79,0,0,0,90.24,57.45Z"/><path d="M90.24,47.45a7.22,7.22,0,1,1,0-14.44h20a7.22,7.22,0,0,1,0,14.44Zm0-10a2.79,2.79,0,0,0,0,5.57h20a2.79,2.79,0,0,0,0-5.57Z"/><path d="M63.74,77.46A2.22,2.22,0,1,1,66,75.24,2.22,2.22,0,0,1,63.74,77.46Z"/></svg>