<?xml version="1.0" encoding="UTF-8" standalone="no"?>
<!-- Created with Inkscape (http://www.inkscape.org/) -->

<svg
   xmlns:dc="http://purl.org/dc/elements/1.1/"
   xmlns:cc="http://creativecommons.org/ns#"
   xmlns:rdf="http://www.w3.org/1999/02/22-rdf-syntax-ns#"
   xmlns:svg="http://www.w3.org/2000/svg"
   xmlns="http://www.w3.org/2000/svg"
   xmlns:sodipodi="http://sodipodi.sourceforge.net/DTD/sodipodi-0.dtd"
   xmlns:inkscape="http://www.inkscape.org/namespaces/inkscape"
   width="158.33574"
   height="124.01562"
   viewBox="0 0 41.892997 32.812466"
   version="1.1"
   id="svg8"
   sodipodi:docname="process.svg"
   inkscape:version="0.92.5 (2060ec1f9f, 2020-04-08)">
  <defs
     id="defs2" />
  <sodipodi:namedview
     id="base"
     pagecolor="#ffffff"
     bordercolor="#666666"
     borderopacity="1.0"
     inkscape:pageopacity="0.0"
     inkscape:pageshadow="2"
     inkscape:zoom="2.8"
     inkscape:cx="47.34157"
     inkscape:cy="28.045571"
     inkscape:document-units="mm"
     inkscape:current-layer="layer1"
     showgrid="false"
     units="px"
     inkscape:measure-start="260.872,98.995"
     inkscape:measure-end="260.872,122.228"
     showguides="true"
     inkscape:guide-bbox="true"
     inkscape:window-width="1920"
     inkscape:window-height="1016"
     inkscape:window-x="0"
     inkscape:window-y="27"
     inkscape:window-maximized="1"
     inkscape:snap-global="false"
     fit-margin-top="0"
     fit-margin-left="0"
     fit-margin-right="0"
     fit-margin-bottom="0" />
  <metadata
     id="metadata5">
    <rdf:RDF>
      <cc:Work
         rdf:about="">
        <dc:format>image/svg+xml</dc:format>
        <dc:type
           rdf:resource="http://purl.org/dc/dcmitype/StillImage" />
        <dc:title />
      </cc:Work>
    </rdf:RDF>
  </metadata>
  <g
     inkscape:label="Layer 1"
     inkscape:groupmode="layer"
     id="layer1"
     transform="translate(-6.1787814,-252.8125)">
    <rect
       style="opacity:1;fill:#ffffff;fill-opacity:1;fill-rule:nonzero;stroke:none;stroke-width:0.15875;stroke-linecap:round;stroke-linejoin:round;stroke-miterlimit:4;stroke-dasharray:none;stroke-dashoffset:0;stroke-opacity:1"
       id="rect861"
       width="19.182291"
       height="21.166666"
       x="12.131907"
       y="256.4263"
       ry="2.1940308" />
    <g
       id="g2137"
       transform="matrix(0.72843487,0,0,0.72843487,7.2530904,69.897622)">
      <rect
         style="fill:#17b5c8;stroke-width:0.26458332"
         id="rect819"
         height="2.778125"
         width="2.778125"
         y="270.38498"
         x="11.092093"
         class="cls-1" />
      <rect
         style="fill:#17b5c8;stroke-width:0.26458332"
         id="rect821"
         height="2.778125"
         width="2.778125"
         y="277.22708"
         x="11.092093"
         class="cls-1" />
      <rect
         style="fill:#11778e;stroke-width:0.26458332"
         id="rect823"
         height="2.778125"
         width="1.1350625"
         y="270.38498"
         x="11.092093"
         class="cls-2" />
      <rect
         style="fill:#11778e;stroke-width:0.26458332"
         id="rect825"
         height="2.778125"
         width="1.1350625"
         y="277.22708"
         x="11.092093"
         class="cls-2" />
      <path
         style="fill:#a6d100;stroke-width:0.26458332"
         id="path827"
         d="m 13.629449,258.56868 h 11.961812 c 0,0 0.264583,-3.46075 -3.46075,-3.46075 0,0 -2.211917,-2.38125 -3.550708,-0.98161 -1.338792,1.39965 -3.960813,-0.2196 -4.950354,4.44236 z"
         class="cls-3"
         inkscape:connector-curvature="0" />
      <path
         style="fill:#89ab00;stroke-width:0.26458332"
         id="path829"
         d="m 16.783282,258.21149 c 0,0 -0.5715,-2.08227 1.420812,-3.05065 h -3.399895 l -1.17475,2.29923 0.677333,1.10861 z"
         class="cls-4"
         inkscape:connector-curvature="0" />
      <path
         style="stroke-width:0.26458332"
         id="path831"
         d="m 19.749261,263.73864 a 0.568855,0.568855 0 0 1 0,-1.13771 h 9.260417 a 0.568855,0.568855 0 1 1 0,1.13771 z"
         inkscape:connector-curvature="0" />
      <path
         style="stroke-width:0.26458332"
         id="path833"
         d="m 26.310928,266.83955 a 0.56885417,0.56885417 0 1 1 0.402166,-0.16668 0.5715,0.5715 0 0 1 -0.402166,0.16668 z"
         inkscape:connector-curvature="0" />
      <path
         style="stroke-width:0.26458332"
         id="path835"
         d="m 19.749261,256.72189 a 0.56885417,0.56885417 0 1 1 0.402167,-0.16669 0.5715,0.5715 0 0 1 -0.402167,0.16669 z"
         inkscape:connector-curvature="0" />
      <path
         style="stroke-width:0.26458332"
         id="path837"
         d="m 19.749261,266.83955 a 0.568855,0.568855 0 1 1 0,-1.13771 h 3.854979 a 0.568855,0.568855 0 1 1 0,1.13771 z"
         inkscape:connector-curvature="0" />
      <path
         style="stroke-width:0.26458332"
         id="path839"
         d="m 19.749261,270.68924 a 0.568855,0.568855 0 0 1 0,-1.13771 h 9.260417 a 0.568855,0.568855 0 0 1 0,1.13771 z"
         inkscape:connector-curvature="0" />
      <path
         style="stroke-width:0.26458332"
         id="path841"
         d="m 26.310928,273.77957 a 0.56885417,0.56885417 0 1 1 0.402166,-0.16668 0.5715,0.5715 0 0 1 -0.402166,0.16668 z"
         inkscape:connector-curvature="0" />
      <path
         style="stroke-width:0.26458332"
         id="path843"
         d="m 19.749261,273.77957 a 0.56885417,0.56885417 0 1 1 0,-1.1377 h 3.854979 a 0.56885417,0.56885417 0 1 1 0,1.1377 z"
         inkscape:connector-curvature="0" />
      <path
         style="stroke-width:0.26458332"
         id="path845"
         d="m 19.749261,277.63984 a 0.56885417,0.56885417 0 0 1 0,-1.1377 h 9.260417 a 0.56885417,0.56885417 0 0 1 0,1.1377 z"
         inkscape:connector-curvature="0" />
      <path
         style="stroke-width:0.26458332"
         id="path847"
         d="m 26.310928,280.73018 a 0.56885417,0.56885417 0 1 1 0.402166,-0.16669 0.5715,0.5715 0 0 1 -0.402166,0.16669 z"
         inkscape:connector-curvature="0" />
      <path
         style="stroke-width:0.26458332"
         id="path849"
         d="m 19.749261,280.73018 a 0.568855,0.568855 0 1 1 0,-1.13771 h 3.854979 a 0.568855,0.568855 0 1 1 0,1.13771 z"
         inkscape:connector-curvature="0" />
      <path
         style="stroke-width:0.26458332"
         id="path851"
         d="m 9.2426564,285.62497 a 3.0665208,3.0665208 0 0 1 -3.063875,-3.06652 v -24.16704 a 3.0665208,3.0665208 0 0 1 3.063875,-3.06388 h 4.9424176 l 0.04498,-0.0397 a 3.8629167,3.8629167 0 0 1 2.645833,-1.05833 h 0.611188 l 0.04233,-0.0794 a 2.4976667,2.4976667 0 0 1 4.423833,0 l 0.04233,0.0794 h 0.608541 a 3.8787917,3.8787917 0 0 1 2.645834,1.05833 l 0.04233,0.0423 h 4.963583 a 3.0612292,3.0612292 0 0 1 3.063875,3.06387 v 24.16704 a 3.0691667,3.0691667 0 0 1 -3.063875,3.06388 z m 0,-29.15708 a 1.9261667,1.9261667 0 0 0 -1.9261667,1.92352 v 24.16704 a 1.9288125,1.9288125 0 0 0 1.9261667,1.92616 H 30.255865 a 1.9288125,1.9288125 0 0 0 1.926167,-1.92616 v -24.16704 a 1.9261667,1.9261667 0 0 0 -1.926167,-1.92617 h -4.122208 l 0.08202,0.20638 a 3.857625,3.857625 0 0 1 0.280458,1.43668 v 0.41804 a 0.56885417,0.56885417 0 0 1 -0.568853,0.56886 H 13.57124 a 0.56885417,0.56885417 0 0 1 -0.568854,-0.56886 v -0.41804 a 3.8338125,3.8338125 0 0 1 0.277813,-1.44462 l 0.08467,-0.20638 z m 7.6411676,-1.09802 a 2.7410833,2.7410833 0 0 0 -2.725209,2.42887 l -0.02117,0.16669 h 11.22098 l -0.01852,-0.16669 a 2.746375,2.746375 0 0 0 -2.727854,-2.42887 h -1.002772 a 0.5715,0.5715 0 0 1 -0.547688,-0.41805 1.3626042,1.3626042 0 0 0 -2.624666,0 0.5715,0.5715 0 0 1 -0.547688,0.41805 z"
         inkscape:connector-curvature="0" />
      <path
         style="stroke-width:0.26458332"
         id="path853"
         d="m 10.996844,280.73018 a 0.56885417,0.56885417 0 0 1 -0.568854,-0.56886 v -3.09033 a 0.56885417,0.56885417 0 0 1 0.568854,-0.56885 h 3.087688 a 0.56885417,0.56885417 0 0 1 0.560917,0.56885 v 3.09033 a 0.56885417,0.56885417 0 0 1 -0.568855,0.56886 z m 0.566209,-1.13771 h 1.952625 v -1.95263 h -1.952625 z"
         inkscape:connector-curvature="0" />
      <path
         style="stroke-width:0.26458332"
         id="path855"
         d="m 11.999615,266.60143 a 0.555625,0.555625 0 0 1 -0.402166,-0.16669 l -1.304397,-1.30175 a 0.57679167,0.57679167 0 0 1 -0.171979,-0.4101 0.56885417,0.56885417 0 0 1 0.568854,-0.56886 0.555625,0.555625 0 0 1 0.402167,0.16669 l 0.907521,0.90752 2.804584,-2.80458 a 0.56885417,0.56885417 0 0 1 0.79375,0 0.555625,0.555625 0 0 1 0.166687,0.40216 0.5635625,0.5635625 0 0 1 -0.166687,0.40217 l -3.201459,3.20675 a 0.5635625,0.5635625 0 0 1 -0.396875,0.16669 z"
         inkscape:connector-curvature="0" />
      <path
         style="stroke-width:0.26458332"
         id="path857"
         d="m 10.996844,273.77957 a 0.56885417,0.56885417 0 0 1 -0.568854,-0.56885 v -3.09033 a 0.56885417,0.56885417 0 0 1 0.568854,-0.56886 h 3.087688 a 0.56885417,0.56885417 0 0 1 0.560917,0.56886 v 3.09033 a 0.56885417,0.56885417 0 0 1 -0.568855,0.56885 z m 0.566209,-1.1377 h 1.952625 v -1.95263 h -1.952625 z"
         inkscape:connector-curvature="0" />
    </g>
    <g
       id="g859"
       transform="translate(-8.693452,1.1339286)">
      <path
         inkscape:connector-curvature="0"
         id="path2237"
         d="m 34.962944,261.18659 a 8.6462049,8.8824405 0 0 0 -8.646499,8.88266 8.6462049,8.8824405 0 0 0 8.646499,8.88215 8.6462049,8.8824405 0 0 0 8.645985,-8.88215 8.6462049,8.8824405 0 0 0 -8.645985,-8.88266 z m 0,5.43481 a 3.3562975,3.4479997 0 0 1 3.356385,3.44785 3.3562975,3.4479997 0 0 1 -3.356385,3.44785 3.3562975,3.4479997 0 0 1 -3.356383,-3.44785 3.3562975,3.4479997 0 0 1 3.356383,-3.44785 z"
         style="opacity:1;fill:#ffffff;fill-opacity:1;fill-rule:nonzero;stroke:none;stroke-width:2.82025957;stroke-linecap:round;stroke-linejoin:round;stroke-miterlimit:4;stroke-dasharray:none;stroke-dashoffset:0;stroke-opacity:1" />
      <g
         transform="translate(-17.386905,9.2604172)"
         id="g2235">
        <polygon
           transform="matrix(0.26458333,0,0,0.26458333,31.750228,243.13021)"
           class="cls-3"
           points="101.36,98.41 100.45,94.83 107.32,88.82 110.42,90.28 124.73,105.33 125.33,109.62 121.39,113.78 117.69,113.78 "
           id="polygon1521"
           style="fill:#405162" />
        <path
           inkscape:connector-curvature="0"
           class="cls-4"
           d="m 63.643103,269.869 a 1.4578542,1.4578542 0 0 1 -2.050521,2.05052 l -3.648604,-3.6539 2.037291,-2.03729 z"
           id="path1523"
           style="fill:#5f7993;stroke-width:0.26458332" />
        <path
           inkscape:connector-curvature="0"
           class="cls-5"
           d="m 53.086228,267.76027 a 7.14375,7.14375 0 0 0 -0.751417,-14.25575 7.286625,7.286625 0 0 0 -1.209146,0.10319 7.2416458,7.2416458 0 0 0 1.960563,14.15256 z m -5.434542,-7.10936 a 4.6857708,4.6857708 0 1 1 4.683125,4.68577 4.683125,4.683125 0 0 1 -4.683125,-4.68577 z"
           id="path1525"
           style="fill:#17b5c8;stroke-width:0.26458332" />
        <path
           inkscape:connector-curvature="0"
           class="cls-6"
           d="m 51.390249,253.60771 a 7.2416458,7.2416458 0 0 0 1.960562,14.15256 7.0352708,7.0352708 0 0 1 -0.751417,0.0397 7.14375,7.14375 0 0 1 -1.209145,-14.19225 z"
           id="path1527"
           style="fill:#11778e;stroke-width:0.26458332" />
        <path
           inkscape:connector-curvature="0"
           d="m 52.345394,265.73091 a 5.08,5.08 0 1 1 0,-10.15735 5.0112083,5.0112083 0 0 1 2.423584,0.61912 0.45508333,0.45508333 0 0 1 0.177271,0.61913 0.45772917,0.45772917 0 0 1 -0.399521,0.23548 0.44185417,0.44185417 0 0 1 -0.22225,-0.0582 4.0983958,4.0983958 0 0 0 -1.979084,-0.51065 4.175125,4.175125 0 0 0 -3.487208,6.46907 4.1671875,4.1671875 0 0 0 7.14375,-4.28625 0.45772917,0.45772917 0 0 1 0.179917,-0.61913 0.43391667,0.43391667 0 0 1 0.219604,-0.0582 0.45508333,0.45508333 0 0 1 0.399521,0.23548 c 0.02117,0.0397 0.05821,0.10848 0.09525,0.18257 a 5.0932292,5.0932292 0 0 1 -0.963084,5.84464 5.0270833,5.0270833 0 0 1 -3.58775,1.48431 z"
           id="path1529"
           style="stroke-width:0.26458332" />
        <path
           inkscape:connector-curvature="0"
           d="m 63.272686,273.75043 a 2.1510625,2.1510625 0 0 1 -1.529292,-0.63235 l -3.534833,-3.54542 a 1.3626042,1.3626042 0 0 1 -0.309562,-1.44462 l -1.087438,-1.08744 a 7.7919792,7.7919792 0 1 1 1.926167,-1.92352 l 1.087437,1.08744 a 1.381125,1.381125 0 0 1 0.486834,-0.09 1.3520208,1.3520208 0 0 1 0.960437,0.39952 l 3.542771,3.54277 a 2.1642917,2.1642917 0 0 1 -1.529292,3.70417 z m -2.976562,-6.52462 a 0.24341667,0.24341667 0 0 0 -0.174625,0.0741 l -1.137709,1.13771 a 0.24870833,0.24870833 0 0 0 0,0.34925 l 3.545417,3.54542 a 1.0583333,1.0583333 0 1 0 1.486958,-1.48961 l -3.542771,-3.54277 a 0.2460625,0.2460625 0 0 0 -0.17727,-0.0741 z m -7.958667,-13.24769 a 6.6780833,6.6780833 0 1 0 4.725458,1.95263 6.6331042,6.6331042 0 0 0 -4.725458,-1.95263 z m 6.25475,13.28209 0.351896,-0.3519 -0.923396,-0.92075 -0.171979,0.17727 -0.169334,0.16933 z"
           id="path1531"
           style="stroke-width:0.26458332" />
        <path
           inkscape:connector-curvature="0"
           d="m 55.607707,257.83839 a 0.45772917,0.45772917 0 0 1 0,-0.91281 0.4524375,0.4524375 0 0 1 0.322792,0.13494 0.44714583,0.44714583 0 0 1 0.132291,0.32808 0.45772917,0.45772917 0 0 1 -0.140229,0.32279 0.44714583,0.44714583 0 0 1 -0.314854,0.127 z"
           id="path1533"
           style="stroke-width:0.26458332" />
      </g>
    </g>
  </g>
</svg>
