<svg id="Capa_1" data-name="Capa 1" xmlns="http://www.w3.org/2000/svg" viewBox="0 0 200.93 222.79"><defs><style>.cls-1{fill:#a6d100;}.cls-2{fill:#6cab00;}.cls-3{fill:#17b5c8;}.cls-4{fill:#02809d;}.cls-5{fill:#5f7993;}.cls-6{fill:#3a5368;}.cls-7{fill:#fff;stroke:#1d1d1b;stroke-miterlimit:10;stroke-width:4.5px;}.cls-8{fill:none;}.cls-9{fill:#1d1d1b;}</style></defs><polygon class="cls-1" points="99.96 137.88 99.96 220 167.82 181.23 166.74 130.34 150.47 138.7 143.27 142.38 121.78 155.38 99.96 133.3 99.96 137.88"/><path class="cls-2" d="M99.69,147.75l16.86,14.89a7.27,7.27,0,0,0,8.61,1.16l41.58-23v-10.5l-16.27,8.36-6.12,3.13-22.58,13.55L100,137.88Z"/><polygon class="cls-3" points="30.76 133.3 30.76 181.23 98.65 218.93 98.65 134.38 76.27 153.76 30.76 133.3"/><path class="cls-4" d="M31,142.18,72.57,164a8,8,0,0,0,9.21-1.24l15.76-14.69V135.34L76.27,153.76,30.76,133.3Z"/><polygon class="cls-5" points="34.41 94.52 99.96 58.44 167.82 96.94 99.96 133.3 34.41 94.52"/><path class="cls-6" d="M45.57,102.53,94.92,75A10.35,10.35,0,0,1,105,75l49.35,27.54L100,133.3Z"/><path d="M98.65,222.79a1.62,1.62,0,0,1-.31,0l-.32-.05-.32-.1a3.36,3.36,0,0,1-.36-.16L28.76,185.39l-.25-.15-.2-.16-.14-.12-.19-.2-.16-.2-.13-.21-.06-.11a1.77,1.77,0,0,1-.1-.22,2.67,2.67,0,0,1-.1-.28l-.07-.27v-.11a2.15,2.15,0,0,1,0-.39V132.75L6,121.18a2.69,2.69,0,0,1-1.4-2,2.73,2.73,0,0,1,.76-2.32l20.87-21-20.87-21A2.73,2.73,0,0,1,6,70.45L42.63,50.58a2.7,2.7,0,0,1,1.3-.33,2.74,2.74,0,0,1,2.4,1.43,2.72,2.72,0,0,1-1.1,3.7L11.78,73.51,30.55,92.44,94.12,58.08,75.19,39.14,55,50.08a2.73,2.73,0,0,1-3.92-3.18,2.73,2.73,0,0,1,1.32-1.62l22-11.91A2.71,2.71,0,0,1,75.69,33a2.68,2.68,0,0,1,1.92.8l21,21,21-21a2.73,2.73,0,0,1,3.23-.47l68.41,37.08a2.74,2.74,0,0,1,.64,4.33l-20.87,21,20.87,21a2.73,2.73,0,0,1-.64,4.32L170,132.75V183a1.32,1.32,0,0,1,0,.28c0,.15,0,.21,0,.26l0,.13-.1.3a1.46,1.46,0,0,1-.1.23l-.13.24-.12.18a.47.47,0,0,1-.09.12l-.2.22-.17.16-.13.09c-.15.11-.24.16-.32.21L100,222.46l-.3.14-.3.1a2.15,2.15,0,0,1-.33.06A1.85,1.85,0,0,1,98.65,222.79Zm2.73-7.31,63.14-34.13V135.72l-9.85,5.33a2.7,2.7,0,0,1-1.3.33,2.72,2.72,0,0,1-2.62-3.51,2.7,2.7,0,0,1,1.32-1.62l33.45-18.13L166.75,99.19l-63.58,34.37,18.94,18.93,20.18-10.94a2.63,2.63,0,0,1,1.29-.33,2.74,2.74,0,0,1,2.63,3.51,2.7,2.7,0,0,1-1.32,1.62l-22,11.91a2.76,2.76,0,0,1-1.3.33,2.68,2.68,0,0,1-1.93-.8l-18.31-18.3Zm-68.6-34.13,63.14,34.13v-76l-18.31,18.3a2.73,2.73,0,0,1-3.23.47l-41.6-22.54Zm-21-63.23,63.41,34.37,18.93-18.94L30.55,99.19Zm24-22.3,62.85,34,62.85-34-62.85-34Zm67.37-37.74,63.58,34.36,18.77-18.92L122.11,39.15Z"/><circle class="cls-7" cx="34.91" cy="83.63" r="32.66"/><circle class="cls-7" cx="166.02" cy="83.63" r="32.66"/><circle class="cls-7" cx="100.69" cy="34.91" r="32.66"/><circle class="cls-7" cx="103.17" cy="140.31" r="32.66"/><polygon class="cls-5" points="161.9 95.26 169.58 95.26 170.53 99.82 172.56 101.92 158.92 101.92 160.24 99.82 161.9 95.26"/><path class="cls-6" d="M161.42,97.32s6.43-1.25,7.68,4.32h3.46l-2-1.07-.95-5.31-8.16-.11Z"/><path class="cls-1" d="M144.32,89.73h42s-.1,6.42-3.08,5.42l-36.58.11-2.31-2Z"/><path class="cls-2" d="M178.82,89.73s.27,5.53-9.24,5.53H183.7l2.59-1.69V89.73Z"/><path class="cls-3" d="M148.85,75.07H162l1.44,2.15L163,78.78l-1.46.54H148.75s-1.23-1-1.25-1.13-.32-1.83-.32-1.83Z"/><path class="cls-4" d="M148.53,77.19a1.86,1.86,0,0,1,1.41-1.8,1.76,1.76,0,0,0-.46-.06,1.87,1.87,0,1,0,0,3.73,1.76,1.76,0,0,0,.46-.06A1.86,1.86,0,0,1,148.53,77.19Z"/><path class="cls-4" d="M162.07,77.19A1.86,1.86,0,0,1,160.66,79a1.84,1.84,0,0,0,.47.06,1.87,1.87,0,0,0,0-3.73,1.84,1.84,0,0,0-.47.06A1.86,1.86,0,0,1,162.07,77.19Z"/><path class="cls-8" d="M152.83,75.53h-3.46a1.72,1.72,0,1,0,0,3.43h11.95a1.72,1.72,0,0,0,0-3.43h-8.49Z"/><path d="M159,79.8h-9.65a2.57,2.57,0,1,1,0-5.13h11.94a2.57,2.57,0,1,1,0,5.13Zm2.29-1a1.6,1.6,0,1,0,0-3.19H149.37a1.6,1.6,0,1,0,0,3.19h11.94Z"/><path class="cls-3" d="M148.85,81.32H162l1.44,2.15L163,85l-1.46.53H148.75s-1.23-1-1.25-1.13-.32-1.83-.32-1.83Z"/><path class="cls-4" d="M148.53,83.45a1.86,1.86,0,0,1,1.41-1.81,1.76,1.76,0,0,0-.46-.06,1.87,1.87,0,1,0,0,3.73,1.76,1.76,0,0,0,.46-.06A1.86,1.86,0,0,1,148.53,83.45Z"/><path class="cls-4" d="M162.07,83.45a1.86,1.86,0,0,1-1.41,1.8,1.84,1.84,0,0,0,.47.06,1.87,1.87,0,0,0,0-3.73,1.84,1.84,0,0,0-.47.06A1.86,1.86,0,0,1,162.07,83.45Z"/><path class="cls-8" d="M152.83,81.78h-3.46a1.72,1.72,0,1,0,0,3.43h11.95a1.72,1.72,0,0,0,0-3.43h-8.49Z"/><path d="M159,86.05h-9.65a2.57,2.57,0,1,1,0-5.13h11.94a2.57,2.57,0,1,1,0,5.13Zm2.29-1a1.6,1.6,0,1,0,0-3.19H149.37a1.6,1.6,0,1,0,0,3.19h11.94Z"/><circle cx="150.56" cy="77.24" r="0.63"/><circle cx="150.56" cy="83.5" r="0.63"/><circle cx="152.77" cy="83.5" r="0.63"/><path class="cls-5" d="M167.78,75.07H181l1.44,2.15L182,78.78l-1.47.54H167.68s-1.23-1-1.25-1.13-.32-1.83-.32-1.83Z"/><path class="cls-6" d="M167.47,77.19a1.85,1.85,0,0,1,1.4-1.8,1.7,1.7,0,0,0-.46-.06,1.87,1.87,0,0,0,0,3.73,1.7,1.7,0,0,0,.46-.06A1.85,1.85,0,0,1,167.47,77.19Z"/><path class="cls-6" d="M181,77.19A1.86,1.86,0,0,1,179.6,79a1.76,1.76,0,0,0,.46.06,1.87,1.87,0,1,0,0-3.73,1.76,1.76,0,0,0-.46.06A1.86,1.86,0,0,1,181,77.19Z"/><path class="cls-8" d="M171.77,75.53H168.3a1.72,1.72,0,1,0,0,3.43h11.95a1.72,1.72,0,1,0,0-3.43h-8.48Z"/><path d="M178,79.8H168.3a2.57,2.57,0,0,1,0-5.13h11.95a2.57,2.57,0,0,1,0,5.13Zm2.3-1a1.6,1.6,0,1,0,0-3.19H168.3a1.6,1.6,0,1,0,0,3.19h11.95Z"/><path class="cls-5" d="M167.78,81.32H181l1.44,2.15L182,85l-1.47.53H167.68s-1.23-1-1.25-1.13-.32-1.83-.32-1.83Z"/><path class="cls-6" d="M167.47,83.45a1.85,1.85,0,0,1,1.4-1.81,1.7,1.7,0,0,0-.46-.06,1.87,1.87,0,0,0,0,3.73,1.7,1.7,0,0,0,.46-.06A1.85,1.85,0,0,1,167.47,83.45Z"/><path class="cls-6" d="M181,83.45a1.86,1.86,0,0,1-1.41,1.8,1.76,1.76,0,0,0,.46.06,1.87,1.87,0,1,0,0-3.73,1.76,1.76,0,0,0-.46.06A1.86,1.86,0,0,1,181,83.45Z"/><path class="cls-8" d="M171.77,81.78H168.3a1.72,1.72,0,1,0,0,3.43h11.95a1.72,1.72,0,1,0,0-3.43h-8.48Z"/><path d="M178,86.05H168.3a2.57,2.57,0,0,1,0-5.13h11.95a2.57,2.57,0,0,1,0,5.13Zm2.3-1a1.6,1.6,0,1,0,0-3.19H168.3a1.6,1.6,0,1,0,0,3.19h11.95Z"/><path d="M183.62,65.59H147.14A3.13,3.13,0,0,0,144,68.72v24a3.14,3.14,0,0,0,3.13,3.13h13.69L160,99.28a2.75,2.75,0,0,1-2.51,2h-5a.63.63,0,0,0,0,1.26h25.88a.63.63,0,0,0,0-1.26h-5a2.74,2.74,0,0,1-2.5-2l-.87-3.47h13.68a3.13,3.13,0,0,0,3.13-3.13v-24A3.13,3.13,0,0,0,183.62,65.59Zm-36.48,1.25h36.48a1.89,1.89,0,0,1,1.78,1.25h-40A1.88,1.88,0,0,1,147.14,66.84Zm23.39,34.39H160.24a3.58,3.58,0,0,0,.93-1.65l1-3.77h6.53l.95,3.77A3.58,3.58,0,0,0,170.53,101.23Zm15-11.81H149.65a.63.63,0,1,0,0,1.25H185.5v2a1.88,1.88,0,0,1-1.88,1.87H147.14a1.88,1.88,0,0,1-1.88-1.87v-2h1.88a.63.63,0,1,0,0-1.25h-1.88V69.34H185.5Z"/><polygon class="cls-3" points="96.53 20.44 93.52 23.57 93.13 29.8 91.81 32.37 92.09 36.23 94.17 38.11 95.71 42.35 100.33 44.48 105.72 41.92 107.81 36.83 109.19 35.5 108.64 30.79 107.61 22.2 102.11 20.14 96.53 20.44"/><path class="cls-4" d="M96.53,21.31s9.36.2,11.42,8.45l.32-5.84s-2.65-2.56-3-3-3.13-1.13-3.13-1.13Z"/><polygon class="cls-1" points="87.17 50.85 95.24 46.6 96.08 42.39 100.33 44.27 104.65 42.87 105.67 46.62 114.53 51.18 105.89 55.53 99.02 55.88 91.8 53.81 87.17 50.85"/><path class="cls-2" d="M95.24,42.47l.33,2.91a6.49,6.49,0,0,0,5.12,2.19A4.77,4.77,0,0,0,105.24,45l-.35-2.67-3.12,1.84-1.72.35-4-2.15Z"/><path class="cls-5" d="M122.68,34.91a22,22,0,1,0-36.84,16.2l0,0,.72.6.14.11q.57.48,1.17.9l.39.28q.64.45,1.32.84l.29.17q.73.42,1.5.78l.12.06a22.15,22.15,0,0,0,5.32,1.68l.14,0c.58.1,1.17.18,1.76.23l.22,0c.59,0,1.18.08,1.79.08s1.19,0,1.78-.08l.22,0c.59-.05,1.17-.13,1.74-.23l.15,0a21.6,21.6,0,0,0,5.24-1.64l.19-.08c.49-.23,1-.49,1.45-.75l.35-.2c.43-.26.85-.52,1.26-.8l.44-.32c.35-.25.7-.51,1-.78l.23-.18.73-.61,0,0A21.93,21.93,0,0,0,122.68,34.91Zm-42.38,0a20.39,20.39,0,1,1,33.91,15.25,5.84,5.84,0,0,0-.71-.43l-6.77-3.39a1.76,1.76,0,0,1-1-1.59V42.39c.16-.2.32-.42.5-.66a16.79,16.79,0,0,0,2.09-4.09A2.92,2.92,0,0,0,110,35V32.17a2.91,2.91,0,0,0-.7-1.89V26.54a6.51,6.51,0,0,0-1.51-4.69c-1.47-1.68-3.86-2.53-7.09-2.53s-5.62.85-7.09,2.53a6.46,6.46,0,0,0-1.51,4.69v3.73a3,3,0,0,0-.71,1.9V35a2.93,2.93,0,0,0,1.07,2.26,15.07,15.07,0,0,0,2.48,5.11v2.31A1.78,1.78,0,0,1,94,46.25L87.68,49.7a5.6,5.6,0,0,0-.61.38A20.37,20.37,0,0,1,80.3,34.91Zm32.35,16.5c-.28.21-.56.4-.85.59l-.4.26c-.38.23-.76.45-1.15.66l-.27.14a21.87,21.87,0,0,1-2.78,1.18l-.11,0c-.5.17-1,.31-1.52.44h0c-.52.13-1,.24-1.57.32h0q-.74.12-1.5.18l-.26,0c-.5,0-1,.07-1.5.07s-1,0-1.52-.07l-.26,0c-.5,0-1-.1-1.51-.18h-.07a21.12,21.12,0,0,1-3.11-.78l-.09,0c-.5-.17-1-.36-1.49-.57h0c-.46-.2-.92-.42-1.36-.65l-.18-.09c-.41-.22-.81-.46-1.2-.7L89.54,52c-.36-.24-.72-.49-1.07-.75l-.11-.08.08,0,6.32-3.45a3.38,3.38,0,0,0,1.77-3V41.8l-.19-.22a13.39,13.39,0,0,1-2.4-5l-.07-.32-.27-.17A1.33,1.33,0,0,1,93,35V32.17a1.31,1.31,0,0,1,.45-1l.26-.24V26.39a4.85,4.85,0,0,1,1.12-3.48c1.16-1.32,3.14-2,5.89-2s4.71.66,5.87,2a4.87,4.87,0,0,1,1.13,3.5V31l.26.24a1.31,1.31,0,0,1,.45,1V35a1.32,1.32,0,0,1-1,1.25l-.4.13-.12.39a15.18,15.18,0,0,1-2,4c-.21.29-.41.56-.59.76l-.2.22v3a3.35,3.35,0,0,0,1.87,3l6.77,3.39.13.07Z"/><path class="cls-8" d="M106,47.77a3.35,3.35,0,0,1-1.87-3v-3l.2-.22c.18-.2.38-.47.59-.76a15.18,15.18,0,0,0,2-4l.12-.39.4-.13a1.32,1.32,0,0,0,1-1.25V32.17a1.31,1.31,0,0,0-.45-1l-.26-.24V26.39a4.87,4.87,0,0,0-1.13-3.5c-1.16-1.31-3.13-2-5.87-2s-4.73.67-5.89,2a4.85,4.85,0,0,0-1.12,3.48V31l-.26.24a1.31,1.31,0,0,0-.45,1V35a1.33,1.33,0,0,0,.62,1.12l.27.17.07.32a13.39,13.39,0,0,0,2.4,5l.19.22v2.88a3.38,3.38,0,0,1-1.77,3l-6.29,3.44a20.26,20.26,0,0,0,24.33.08h0Z"/><path class="cls-8" d="M121,34.91A20.27,20.27,0,1,0,87.17,50a4.76,4.76,0,0,1,.51-.32L94,46.25a1.78,1.78,0,0,0,.93-1.57V42.37a15.07,15.07,0,0,1-2.48-5.11A2.93,2.93,0,0,1,91.38,35V32.17a3,3,0,0,1,.71-1.9V26.54a6.46,6.46,0,0,1,1.51-4.69c1.47-1.68,3.86-2.53,7.09-2.53s5.62.85,7.09,2.53a6.51,6.51,0,0,1,1.51,4.69v3.74a2.91,2.91,0,0,1,.7,1.89V35a2.92,2.92,0,0,1-1.66,2.63,16.79,16.79,0,0,1-2.09,4.09c-.18.24-.34.46-.5.66v2.36a1.76,1.76,0,0,0,1,1.59l6.77,3.39a5.06,5.06,0,0,1,.62.37A20.25,20.25,0,0,0,121,34.91Z"/><path class="cls-9" d="M106.73,46.34a1.76,1.76,0,0,1-1-1.59V42.39c.16-.2.32-.42.5-.66a16.79,16.79,0,0,0,2.09-4.09A2.92,2.92,0,0,0,110,35V32.17a2.91,2.91,0,0,0-.7-1.89V26.54a6.51,6.51,0,0,0-1.51-4.69c-1.47-1.68-3.86-2.53-7.09-2.53s-5.62.85-7.09,2.53a6.46,6.46,0,0,0-1.51,4.69v3.73a3,3,0,0,0-.71,1.9V35a2.93,2.93,0,0,0,1.07,2.26,15.07,15.07,0,0,0,2.48,5.11v2.31A1.78,1.78,0,0,1,94,46.25L87.68,49.7a4.76,4.76,0,0,0-.51.32c.42.37.85.73,1.3,1.07l6.29-3.44a3.38,3.38,0,0,0,1.77-3V41.8l-.19-.22a13.39,13.39,0,0,1-2.4-5l-.07-.32-.27-.17A1.33,1.33,0,0,1,93,35V32.17a1.31,1.31,0,0,1,.45-1l.26-.24V26.39a4.85,4.85,0,0,1,1.12-3.48c1.16-1.32,3.14-2,5.89-2s4.71.66,5.87,2a4.87,4.87,0,0,1,1.13,3.5V31l.26.24a1.31,1.31,0,0,1,.45,1V35a1.32,1.32,0,0,1-1,1.25l-.4.13-.12.39a15.18,15.18,0,0,1-2,4c-.21.29-.41.56-.59.76l-.2.22v3a3.35,3.35,0,0,0,1.87,3l6.77,3.39h0c.46-.34.89-.7,1.32-1.07a5.06,5.06,0,0,0-.62-.37Z"/><path class="cls-5" d="M100.69,14.52A20.39,20.39,0,0,0,87.07,50.08l.1-.06a20.27,20.27,0,1,1,27,.08l.09.06a20.38,20.38,0,0,0-13.52-35.64Z"/><path class="cls-9" d="M120.74,44h0c.15-.33.29-.67.42-1l0-.08c.12-.32.24-.63.34-.95l.06-.15.27-.9.06-.21.21-.86.06-.27c.06-.27.11-.55.16-.83a2.87,2.87,0,0,0,.05-.31c0-.26.08-.54.11-.81,0-.11,0-.22,0-.34q0-.41.06-.84l0-.32q0-.57,0-1.17a22,22,0,0,0-44,0c0,.4,0,.78,0,1.17,0,.1,0,.2,0,.31,0,.28,0,.57.07.85,0,.1,0,.21,0,.31,0,.28.07.56.11.84a2.56,2.56,0,0,1,0,.27c0,.29.1.58.17.87a2.25,2.25,0,0,0,0,.22c.06.3.14.6.22.9l0,.16c.09.32.19.64.29.95l0,.09c.11.34.23.68.36,1h0a21.93,21.93,0,0,0,5.65,8.24h0c.22.2.44.4.67.59l0,0,.14.11q.57.48,1.17.9l.39.28q.64.45,1.32.84l.29.17q.73.42,1.5.78l.12.06a22.15,22.15,0,0,0,5.32,1.68l.14,0c.58.1,1.17.18,1.76.23l.22,0,.86.05.93,0c.31,0,.61,0,.92,0l.86-.05.22,0,.86-.1h0l.86-.13.15,0a21.6,21.6,0,0,0,5.24-1.64l.19-.08c.49-.23,1-.49,1.45-.75l.35-.2c.43-.26.85-.52,1.26-.8l.44-.32c.35-.25.7-.51,1-.78l.23-.18,0,0,.67-.58h0A22.07,22.07,0,0,0,120.74,44Zm-6.53,6.21-.09-.06c-.43.37-.86.73-1.32,1.07l.11.06-.26.18c-.28.21-.56.4-.85.59l-.4.26c-.38.23-.76.45-1.15.66l-.27.14a21.87,21.87,0,0,1-2.78,1.18l-.11,0c-.5.17-1,.31-1.52.44h0c-.52.13-1,.24-1.57.32h0q-.74.12-1.5.18l-.26,0c-.5,0-1,.07-1.5.07s-1,0-1.52-.07l-.26,0c-.5,0-1-.1-1.51-.18h-.07a21.12,21.12,0,0,1-3.11-.78l-.09,0c-.5-.17-1-.36-1.49-.57h0c-.46-.2-.92-.42-1.36-.65l-.18-.09c-.41-.22-.81-.46-1.2-.7L89.54,52c-.36-.24-.72-.49-1.07-.75l-.11-.08.08,0h0c-.45-.34-.88-.7-1.3-1.07l-.1.06a20.4,20.4,0,1,1,27.14.08Z"/><path class="cls-9" d="M104.14,41.79a5.1,5.1,0,0,1-7.61,0v1.72a6,6,0,0,0,7.61,0Z"/><path class="cls-6" d="M122.29,124.7c-.43.15-17.51.4-17.51.4H81.39l-2.61,3v25.38l3.53,2.3h40.37l2.82-2.66V127.28S122.71,124.55,122.29,124.7ZM99.75,149.27H83.15V130.76h16.6Z"/><path class="cls-5" d="M116.64,125.22H79.81V155.3h36.83a3.47,3.47,0,0,0,3.47-3.47V128.69A3.47,3.47,0,0,0,116.64,125.22ZM99.75,149.27H83.15V130.76h16.6Z"/><polygon class="cls-1" points="87.22 147.77 95.76 147.77 94.36 143.48 89.33 142.6 86.59 146.04 87.22 147.77"/><path class="cls-2" d="M93.84,147.77a4.84,4.84,0,0,0-2.35-4.24l2.35-.14,1.92,3.15v1.23Z"/><circle class="cls-4" cx="91.49" cy="138.37" r="3.63"/><circle class="cls-3" cx="90.22" cy="138.37" r="3.63"/><path d="M82.58,156.46a4.22,4.22,0,0,1-4.21-4.21V128.37a4.23,4.23,0,0,1,4.21-4.22h39.63a4.23,4.23,0,0,1,4.22,4.22v23.88a4.23,4.23,0,0,1-4.22,4.21Zm0-30.73a2.64,2.64,0,0,0-2.64,2.64v23.88a2.64,2.64,0,0,0,2.64,2.64h39.63a2.64,2.64,0,0,0,2.64-2.64V128.37a2.64,2.64,0,0,0-2.64-2.64Z"/><path d="M83.23,150.2a.78.78,0,0,1-.78-.78V135.19a.79.79,0,1,1,1.57,0v13.44H99V131.42H84v.92a.79.79,0,1,1-1.57,0v-1.71a.78.78,0,0,1,.78-.78H99.74a.79.79,0,0,1,.79.78v18.79a.79.79,0,0,1-.79.78Z"/><path d="M103.91,133.07a.79.79,0,0,1,0-1.57h17.84a.79.79,0,1,1,0,1.57Z"/><path d="M117.77,138.23a.79.79,0,1,1,0-1.57h4a.79.79,0,1,1,0,1.57Z"/><path d="M103.91,138.23a.79.79,0,0,1,0-1.57h11a.79.79,0,1,1,0,1.57Z"/><path d="M103.91,143.39a.79.79,0,0,1,0-1.57h17.84a.79.79,0,1,1,0,1.57Z"/><path d="M103.91,148.55a.79.79,0,0,1,0-1.57h9.68a.79.79,0,1,1,0,1.57Z"/><path d="M95.76,147.93a.79.79,0,0,1-.79-.79,3.49,3.49,0,0,0-7,0,.79.79,0,0,1-.78.79.8.8,0,0,1-.79-.79A5.08,5.08,0,0,1,88.61,143l.17-.12-.17-.12a5.05,5.05,0,1,1,5.76,0l-.17.12.17.12a5.07,5.07,0,0,1,2.17,4.15A.79.79,0,0,1,95.76,147.93Zm-4.27-12.81A3.48,3.48,0,1,0,95,138.6,3.49,3.49,0,0,0,91.49,135.12Z"/><path class="cls-5" d="M38.46,65.35V81.78H52.3A18.11,18.11,0,0,0,38.46,65.35ZM46,74.48a.95.95,0,0,1-1.89,0V68.27A15.18,15.18,0,0,1,46,69.77Z"/><path class="cls-5" d="M16.6,81.78H30.44V65.35A18.11,18.11,0,0,0,16.6,81.78Zm6.33-12a16.05,16.05,0,0,1,1.9-1.5v6.21a1,1,0,0,1-1.9,0Z"/><path class="cls-6" d="M25.67,69.64a8,8,0,0,1,4.69-2.43V65.35s-5.19,1.46-5.19,1.86S25.67,69.64,25.67,69.64Z"/><path class="cls-6" d="M43.15,69.64a8,8,0,0,0-4.69-2.43V65.35s5.19,1.46,5.19,1.86S43.15,69.64,43.15,69.64Z"/><rect class="cls-1" x="31.14" y="99.82" width="6.53" height="3.06"/><rect class="cls-2" x="30.69" y="99.58" width="7.44" height="1.78"/><rect class="cls-3" x="30.44" y="63.57" width="8.01" height="18.2"/><rect class="cls-4" x="30.36" y="79.8" width="8.09" height="1.98"/><path class="cls-6" d="M47,73.5a16.29,16.29,0,0,1,2.51,8.07h2.75s-.85-7.25-4.8-11.17l-1-1Z"/><path class="cls-6" d="M21.86,73.5a16.29,16.29,0,0,0-2.51,8.07H16.6s.85-7.25,4.8-11.17l1-1Z"/><rect class="cls-3" x="14.55" y="81.78" width="39.35" height="3.13"/><path d="M48.44,76.92a15.38,15.38,0,0,1,.71,2.4.61.61,0,0,0,.59.48h.13a.61.61,0,0,0,.46-.72h0a15.71,15.71,0,0,0-.77-2.59.6.6,0,1,0-1.12.44Z"/><path d="M54.21,81.05H52.69A18.32,18.32,0,0,0,39.05,64.67a2.66,2.66,0,0,0-2.57-2H32.34a2.65,2.65,0,0,0-2.57,2A18.39,18.39,0,0,0,16.13,81.05H14.61a.6.6,0,0,0-.6.6h0v3.1a.6.6,0,0,0,.6.6h1.47v1.52a16.16,16.16,0,0,0,14.28,16h0a.61.61,0,0,0,.61.61h6.88a.61.61,0,0,0,.61-.61h0a16.16,16.16,0,0,0,14.28-16V85.35h1.47a.6.6,0,0,0,.6-.6v-3.1a.6.6,0,0,0-.6-.6Zm-2.73,0H39.14V66a16.93,16.93,0,0,1,3.73,1.56v7a2.15,2.15,0,1,0,4.3,0V71A17,17,0,0,1,51.48,81.05ZM44.07,68.27A15.18,15.18,0,0,1,46,69.77v4.71a.95.95,0,0,1-1.89,0ZM32.34,63.89h1.47V74.31a.6.6,0,1,0,1.2,0V63.89h1.47a1.47,1.47,0,0,1,1.46,1.47V81.05H30.88V65.36A1.47,1.47,0,0,1,32.34,63.89Zm-9.48,5.89a16.24,16.24,0,0,1,1.89-1.51v6.21a.95.95,0,0,1-1.89,0ZM21.65,71v3.47a2.15,2.15,0,1,0,4.3,0v-7a17.49,17.49,0,0,1,3.73-1.58V81.05H17.34a17.08,17.08,0,0,1,4.31-10ZM17.28,86.87V85.35h.86v1.52a14.13,14.13,0,0,0,12.22,13.91v.87A15,15,0,0,1,17.28,86.87Zm32.19-1.52v1.52a12.91,12.91,0,0,1-11,12.71h0a.61.61,0,0,0-.07-.14l0,0a.47.47,0,0,0-.1-.1h0l-.15-.07h0a.47.47,0,0,0-.17,0H31a.47.47,0,0,0-.17,0h0l-.14.07h0a.94.94,0,0,0-.1.1l0,0a.61.61,0,0,0-.07.14h0a12.91,12.91,0,0,1-11-12.71V85.35ZM37.25,102.28H31.57v-1.89h5.68ZM51.54,86.87a15,15,0,0,1-13.08,14.79v-.88A14.13,14.13,0,0,0,50.68,86.87V85.35h.86Zm2.06-2.73H15.22V82.25H53.6Z"/></svg>