<svg id="Capa_1" data-name="Capa 1" xmlns="http://www.w3.org/2000/svg" viewBox="0 0 173.92 154.94"><defs><style>.cls-1{fill:#5f7993;}.cls-2{fill:#3a5368;}.cls-3{fill:#a6d100;}.cls-4{fill:#6cab00;}.cls-5{fill:#17b5c8;}.cls-6{fill:#02809d;}.cls-7{fill:none;}</style></defs><path class="cls-1" d="M124.75,40.28v49.4h41.62S165.46,51.16,124.75,40.28Zm22.58,27.45a2.85,2.85,0,0,1-5.7,0V49.06a51.55,51.55,0,0,1,5.7,4.51Z"/><path class="cls-1" d="M59.05,89.68h41.61V40.28C60,51.16,59.05,89.68,59.05,89.68Zm19-36.11a51.44,51.44,0,0,1,5.69-4.51V67.73a2.85,2.85,0,0,1-5.69,0Z"/><path class="cls-2" d="M86.3,53.18a24,24,0,0,1,14.13-7.31V40.28S84.8,44.67,84.8,45.87,86.3,53.18,86.3,53.18Z"/><path class="cls-2" d="M138.88,53.18a24,24,0,0,0-14.13-7.31V40.28s15.63,4.39,15.63,5.59S138.88,53.18,138.88,53.18Z"/><rect class="cls-3" x="102.76" y="143.93" width="19.62" height="9.2"/><rect class="cls-4" x="101.41" y="143.18" width="22.35" height="5.36"/><path class="cls-5" d="M105.45,34.95H120a4.79,4.79,0,0,1,4.79,4.79V89.68a0,0,0,0,1,0,0H100.66a0,0,0,0,1,0,0V39.74A4.79,4.79,0,0,1,105.45,34.95Z"/><rect class="cls-6" x="100.43" y="83.73" width="24.32" height="5.95"/><path class="cls-2" d="M150.5,64.78s7.56,11.23,7.56,24.27h8.26s-2.57-21.8-14.44-33.58l-3.06-3.06Z"/><path class="cls-2" d="M74.86,64.78S67.31,76,67.31,89.05H59.05s2.57-21.8,14.43-33.58l3.07-3.06Z"/><rect class="cls-5" x="52.87" y="89.68" width="118.29" height="9.41"/><path d="M154.76,75.06a45.53,45.53,0,0,1,2.16,7.23,1.81,1.81,0,0,0,1.77,1.44,2.33,2.33,0,0,0,.37,0,1.81,1.81,0,0,0,1.4-2.14h0a49.26,49.26,0,0,0-2.33-7.8,1.81,1.81,0,1,0-3.37,1.33Z"/><path d="M172.1,87.48h-4.56a55.09,55.09,0,0,0-41-49.23,8,8,0,0,0-7.74-6H106.38a8,8,0,0,0-7.75,6,55.28,55.28,0,0,0-41,49.22H53.08a1.82,1.82,0,0,0-1.82,1.81h0V98.6a1.82,1.82,0,0,0,1.82,1.81h4.39V105a48.6,48.6,0,0,0,43,48.07v.06a1.81,1.81,0,0,0,1.81,1.81h20.7a1.81,1.81,0,0,0,1.81-1.81v-.06A48.58,48.58,0,0,0,167.7,105v-4.59h4.4a1.82,1.82,0,0,0,1.82-1.81V89.29a1.81,1.81,0,0,0-1.81-1.81Zm-8.19,0H126.82V42.08A51.16,51.16,0,0,1,138,46.79V67.73a6.47,6.47,0,0,0,12.94,0V57.23A51.23,51.23,0,0,1,163.91,87.48ZM141.63,49.06a51.55,51.55,0,0,1,5.7,4.51V67.73a2.85,2.85,0,0,1-5.7,0ZM106.38,35.91h4.4V67.22a1.81,1.81,0,0,0,3.62,0V35.91h4.4a4.4,4.4,0,0,1,4.4,4.4V87.48H102V40.31A4.4,4.4,0,0,1,106.38,35.91ZM77.85,53.61a50.66,50.66,0,0,1,5.7-4.54V67.73a2.85,2.85,0,0,1-5.7,0Zm-3.62,3.66V67.72a6.47,6.47,0,0,0,12.94,0V46.8a51,51,0,0,1,11.19-4.72v45.4H61.27a51.42,51.42,0,0,1,13-30.21ZM61.1,105v-4.59h2.59V105a42.46,42.46,0,0,0,36.74,41.81v2.62A45,45,0,0,1,61.1,105Zm96.77-4.59V105a38.82,38.82,0,0,1-33.23,38.18s0,0,0,0a1.81,1.81,0,0,0-.22-.41l-.07-.08a2.2,2.2,0,0,0-.31-.3l0,0a1.56,1.56,0,0,0-.43-.21l-.1,0a1.69,1.69,0,0,0-.5-.08h-20.7a1.69,1.69,0,0,0-.5.08l-.1,0a1.72,1.72,0,0,0-.43.21.1.1,0,0,1,0,0,2.91,2.91,0,0,0-.31.3l-.06.08a1.72,1.72,0,0,0-.23.42l0,0A38.81,38.81,0,0,1,67.31,105v-4.59Zm-36.74,50.9H104.05v-5.69h17.08Zm43-46.31a45,45,0,0,1-39.33,44.43v-2.62A42.46,42.46,0,0,0,161.49,105v-4.59h2.59Zm6.21-8.21H54.89V91.1h115.4Z"/><path class="cls-7" d="M18.21,110.61a1.83,1.83,0,0,0,.84.46l-2.21-1.84Z"/><path class="cls-5" d="M46.92,41.07l1.53-1.68a2.35,2.35,0,0,1,.23-3,26.85,26.85,0,0,1,37.94,0c.4.4.78.81,1.15,1.23a59.56,59.56,0,0,1,6.63-2.59,67.58,67.58,0,0,0-12-15.26c-.83-.34-1.68-.66-2.53-.95a6.33,6.33,0,0,1-4.32-6V6.41a1.76,1.76,0,0,0-1.76-1.76H61.53a1.76,1.76,0,0,0-1.76,1.76v6.42a6.33,6.33,0,0,1-4.32,6,38.58,38.58,0,0,0-5,2.07,6.35,6.35,0,0,1-7.34-1.2l-4.56-4.56a1.76,1.76,0,0,0-2.48,0l-8.67,8.67a1.76,1.76,0,0,0,0,2.48L34.13,33a2.32,2.32,0,0,1,0,3.2l4,4.59h7A6.55,6.55,0,0,1,46.92,41.07Z"/><path class="cls-6" d="M106.17,28l1.71-1.71a1.76,1.76,0,0,0,0-2.48l-8.67-8.67a1.76,1.76,0,0,0-2.48,0l-4.57,4.55a6.37,6.37,0,0,1-7.33,1.21c-.8-.4-1.61-.77-2.44-1.12a67.58,67.58,0,0,1,12,15.26l1-.34A12.31,12.31,0,0,1,106.17,28Z"/><path class="cls-3" d="M20.7,110.61l1.6-1.6a6.45,6.45,0,0,1,7.17-1.28c.55.25,1.11.48,1.67.69a6.35,6.35,0,0,1,2.19,1.43c4.42.38,12.69.29,19.91-4.24,0-.2,0-.4,0-.6v-.34h-.14a6.07,6.07,0,0,1-6-5.07l-.68.23c-.37.11-.74.2-1.1.29l-.19,0-.41.09q-.78.15-1.53.24l-.24,0a16.82,16.82,0,0,1-1.8.1,5.88,5.88,0,0,1-.6,0l-.36,0H40c-.41,0-.81,0-1.21-.09a17.66,17.66,0,0,1-2.17-.41h0l-.07,0a18.67,18.67,0,0,1,0-36.15,20.29,20.29,0,0,1,2-.38l.7-.08c.45,0,.89-.07,1.33-.08l.25,0,.37,0A18.62,18.62,0,0,1,52.23,67l.33.24c.27.21.53.42.78.64l.62.57.07.06c.15.14.29.28.43.43.31.31.61.64.89,1a3,3,0,0,1,.19.23A15.15,15.15,0,0,1,56.7,71.7a58.63,58.63,0,0,1,4.07-9,36.5,36.5,0,0,0-5.39-6,6.24,6.24,0,0,1-2.62-.57c-.55-.25-1.11-.48-1.67-.7a6.45,6.45,0,0,1-4.13-6V47.24a1.76,1.76,0,0,0-1.76-1.76H37a1.76,1.76,0,0,0-1.76,1.76v2.24a6.46,6.46,0,0,1-4.14,6c-.56.22-1.11.45-1.66.7a6.45,6.45,0,0,1-7.17-1.28l-1.6-1.6a1.75,1.75,0,0,0-2.49,0L12.44,59a1.78,1.78,0,0,0-.51,1.25,1.74,1.74,0,0,0,.51,1.24l1.61,1.6a6.46,6.46,0,0,1,1.28,7.17c-.25.55-.48,1.11-.7,1.67a6.46,6.46,0,0,1-6,4.13H6.41a1.76,1.76,0,0,0-1.76,1.76V86a1.76,1.76,0,0,0,1.76,1.76H8.65a6.46,6.46,0,0,1,6,4.13c.21.56.45,1.12.7,1.67A6.46,6.46,0,0,1,14,100.76l-1.6,1.6a1.76,1.76,0,0,0,0,2.48l4.4,4.39,2.21,1.84a1.84,1.84,0,0,0,.41.05A1.74,1.74,0,0,0,20.7,110.61Z"/><path class="cls-4" d="M62.77,52.77a1.78,1.78,0,0,0-1.25.51l-1.59,1.6a6.38,6.38,0,0,1-4.52,1.85h0a36.5,36.5,0,0,1,5.39,6,60,60,0,0,1,5.06-7.62L64,53.28A1.74,1.74,0,0,0,62.77,52.77Z"/><path class="cls-4" d="M33.33,109.85a6.43,6.43,0,0,1,1.94,4.55v2.25A1.76,1.76,0,0,0,37,118.41H45.2A1.76,1.76,0,0,0,47,116.65V114.4a6.44,6.44,0,0,1,4.12-6c.57-.22,1.12-.45,1.67-.7q.27-.12.54-.21c0-.63,0-1.27,0-1.91C46,110.14,37.75,110.23,33.33,109.85Z"/><path d="M50,111.86l-2,7.62-.56.09-.3.91H41.76l-4.29.68-.65-.68h-1L35,118.6l-2-2.06L31,111.4l-4.79-2.48-3.89,4.83-3.22-2.68a1.83,1.83,0,0,1-.84-.46l-1.37-1.38-7.71-6.41,3.57-6.88-3.57-7.2L2.41,87.27l1-11.35L10,75.08l2.52-1.47,1-5.67-3.36-6.52L14,54.48l6.3-4.08,5.89,4.08,6.72-2.64,1.68-7.66H48l2.72,7.66L55.6,54.1l3.58-1.76,2.5-1.94.5.46.93-.46,3.53,3.68c.71-.87,1.45-1.73,2.2-2.56L67.31,50a6.42,6.42,0,0,0-9.06,0l-1.6,1.6a1.73,1.73,0,0,1-1.23.51,1.84,1.84,0,0,1-.73-.16c-.64-.29-1.28-.56-1.95-.83a1.73,1.73,0,0,1-1.14-1.63V47.24a6.41,6.41,0,0,0-4.68-6.17l-2.51,2.74-5.26-1.89-1-1.09H37a6.42,6.42,0,0,0-6.41,6.41v2.24a1.73,1.73,0,0,1-1.13,1.63q-1,.38-1.95.81a1.64,1.64,0,0,1-.72.16,1.74,1.74,0,0,1-1.24-.51L24,50a6.41,6.41,0,0,0-9,0L9.16,55.76a6.42,6.42,0,0,0,0,9.05l1.6,1.61a1.76,1.76,0,0,1,.35,2c-.29.63-.56,1.28-.82,1.94a1.73,1.73,0,0,1-1.64,1.13H6.41A6.42,6.42,0,0,0,0,77.86V86a6.42,6.42,0,0,0,6.41,6.41H8.66a1.73,1.73,0,0,1,1.62,1.13q.38,1,.81,2a1.71,1.71,0,0,1-.35,2l-1.6,1.61a6.43,6.43,0,0,0,0,9l5.77,5.77a6.41,6.41,0,0,0,9.05,0l1.61-1.6a1.7,1.7,0,0,1,1.23-.51,1.72,1.72,0,0,1,.73.16c.63.29,1.28.56,1.95.83a1.72,1.72,0,0,1,1.14,1.62v2.25A6.42,6.42,0,0,0,37,123.06H45.2a6.41,6.41,0,0,0,6.4-6.41V114.4a1.74,1.74,0,0,1,1.14-1.62c.35-.13.68-.29,1-.43-.1-.68-.18-1.36-.25-2C51.85,111,50,111.86,50,111.86Z"/><path d="M44.41,43.81l2.51-2.74a6.55,6.55,0,0,0-1.72-.24h-7l1,1.09Z"/><polygon points="35.82 120.48 36.82 120.48 35.02 118.6 35.82 120.48"/><polygon points="61.68 50.4 59.18 52.34 62.18 50.86 61.68 50.4"/><path d="M33.33,109.85a6.35,6.35,0,0,0-2.19-1.43c-.56-.21-1.12-.44-1.67-.69A6.45,6.45,0,0,0,22.3,109l-1.6,1.6a1.74,1.74,0,0,1-1.24.51,1.84,1.84,0,0,1-.41-.05l3.22,2.68,3.89-4.83L31,111.4l-.81-2A28.78,28.78,0,0,0,33.33,109.85Z"/><polygon points="47.17 120.48 47.47 119.57 41.76 120.48 47.17 120.48"/><path d="M12.44,102.36l1.6-1.6a6.46,6.46,0,0,0,1.29-7.17c-.25-.55-.49-1.11-.7-1.67a6.46,6.46,0,0,0-6-4.13H6.41A1.76,1.76,0,0,1,4.65,86V77.86A1.76,1.76,0,0,1,6.41,76.1H8.65a6.46,6.46,0,0,0,6-4.13c.22-.56.45-1.12.7-1.67a6.46,6.46,0,0,0-1.28-7.17l-1.61-1.6a1.74,1.74,0,0,1-.51-1.24A1.78,1.78,0,0,1,12.44,59l5.77-5.76a1.75,1.75,0,0,1,2.49,0l1.6,1.6a6.45,6.45,0,0,0,7.17,1.28c.55-.25,1.1-.48,1.66-.7a6.46,6.46,0,0,0,4.14-6V47.24A1.76,1.76,0,0,1,37,45.48H45.2A1.76,1.76,0,0,1,47,47.24v2.25a6.45,6.45,0,0,0,4.13,6c.56.22,1.12.45,1.67.7a6.24,6.24,0,0,0,2.62.57,24.09,24.09,0,0,0-1.93-1.57L55.6,54.1l-4.85-2.26L48,44.18H34.56l-1.68,7.66-6.72,2.64L20.27,50.4,14,54.48l-3.79,6.94,3.36,6.52-1,5.67L10,75.08l-6.51.84-1,11.35,6.72,1.47,3.57,7.2-3.57,6.88,7.71,6.41-4.4-4.39A1.76,1.76,0,0,1,12.44,102.36Z"/><polygon points="59.18 52.34 55.6 54.1 56.42 54.48 59.18 52.34"/><polygon points="30.95 111.4 33.06 116.54 35.02 118.6 32.25 112.07 30.95 111.4"/><polygon points="48.03 119.48 50.01 111.86 47.47 119.57 48.03 119.48"/><path d="M62.18,50.86l4.07,3.69.39-.47L63.11,50.4Z"/><path d="M50,111.86s1.84-.91,3.51-1.55a1.1,1.1,0,0,1,0-.18Z"/><polygon points="37.47 121.16 41.76 120.48 36.82 120.48 37.47 121.16"/><path d="M53.29,107.52q-.27.09-.54.21c-.55.25-1.1.48-1.67.7a6.44,6.44,0,0,0-4.12,6v2.25a1.76,1.76,0,0,1-1.76,1.76H37a1.76,1.76,0,0,1-1.76-1.76V114.4a6.43,6.43,0,0,0-1.94-4.55,28.78,28.78,0,0,1-3.19-.43l.81,2,1.3.67L35,118.6l1.8,1.88h4.94l5.71-.91L50,111.86l3.49-1.73Q53.36,108.84,53.29,107.52Z"/><path d="M55.38,56.73h0a6.38,6.38,0,0,0,4.52-1.85l1.59-1.6a1.78,1.78,0,0,1,1.25-.51,1.74,1.74,0,0,1,1.24.51l1.82,1.82.42-.55-4.07-3.69-3,1.48-2.76,2.14-.82-.38-2.15,1.06A24.09,24.09,0,0,1,55.38,56.73Z"/><path d="M41.11,66A15.9,15.9,0,1,0,47,96.69V94.63l0,0a14.83,14.83,0,0,1-3.7,1.12l-.22,0-.74.09c-.32,0-.65,0-1,0H40.9a13.34,13.34,0,0,1-1.41-.09l-.24,0a15.25,15.25,0,0,1-1.64-.3,14,14,0,0,1,0-27.14,14.3,14.3,0,0,1,3.51-.44,14.06,14.06,0,0,1,1.72.11l.45.07c.43.07.86.16,1.28.26l.41.11A14.59,14.59,0,0,1,48,69.77l.46.28c.31.2.62.4,1,.68l.42.31A13.32,13.32,0,0,1,51,72a3.33,3.33,0,0,1,.25.28l.16.17c.23.25.46.51.67.78l.43.57c.2.29.4.59.58.9l.3.49a14,14,0,0,1,.69,1.47c.06.14.11.28.16.42l.06.18c.13.37.24.74.34,1.11l0,.16c.25-1.1.54-2.2.85-3.28A15.88,15.88,0,0,0,41.11,66Z"/><path d="M47,96.69a15.89,15.89,0,1,1,8.53-21.4c.35-1.22.73-2.41,1.16-3.59a15.15,15.15,0,0,0-1.16-1.57,3,3,0,0,0-.19-.23c-.28-.33-.58-.66-.89-1-.14-.15-.28-.29-.43-.43L54,68.44l-.62-.57c-.25-.22-.51-.43-.78-.64L52.23,67a18.62,18.62,0,0,0-11.12-3.7l-.37,0-.25,0c-.44,0-.88,0-1.33.08l-.7.08a20.29,20.29,0,0,0-2,.38,18.67,18.67,0,0,0,0,36.15l.07,0h0a17.66,17.66,0,0,0,2.17.41c.4,0,.8.07,1.21.09h.24l.36,0a5.88,5.88,0,0,0,.6,0,16.82,16.82,0,0,0,1.8-.1l.24,0q.75-.09,1.53-.24l.41-.09.19,0c.36-.09.73-.18,1.1-.29l.68-.23a6.52,6.52,0,0,1-.09-1Z"/><path d="M36.63,12.5,45.46,19l12.4-3.78V2H77.58v12.4L85,18.07l2.24.73,9.57-5.91L98,11.36l.48.48.79-.48,4.3,5.6,5.15,5.21.57,2.26,1.33,1.73-.65,1,0,.08-.13.08-.49.74h3a6.42,6.42,0,0,0-1.16-7.47l-8.68-8.67a6.42,6.42,0,0,0-9.06,0l-4.55,4.55a1.73,1.73,0,0,1-1.23.52,1.66,1.66,0,0,1-.75-.18,42.46,42.46,0,0,0-5.57-2.32,1.69,1.69,0,0,1-1.15-1.63V6.41A6.42,6.42,0,0,0,73.78,0H61.53a6.42,6.42,0,0,0-6.41,6.41v6.42A1.69,1.69,0,0,1,54,14.46a43,43,0,0,0-5.57,2.32,1.84,1.84,0,0,1-.76.18,1.7,1.7,0,0,1-1.22-.52l-4.56-4.55a6.42,6.42,0,0,0-9.06,0l-8.67,8.66a6.43,6.43,0,0,0,0,9.06l6.7,6.71a2.32,2.32,0,0,0,3.29,0l0,0L23.81,24.48Z"/><polygon points="99.27 11.36 98.48 11.84 103.56 16.96 99.27 11.36"/><polygon points="110.62 26.16 109.29 24.43 109.97 27.13 110.62 26.16"/><path d="M34.13,33l-6.7-6.71a1.76,1.76,0,0,1,0-2.48l8.67-8.67a1.76,1.76,0,0,1,2.48,0l4.56,4.56a6.35,6.35,0,0,0,7.34,1.2,38.58,38.58,0,0,1,5-2.07,6.33,6.33,0,0,0,4.32-6V6.41a1.76,1.76,0,0,1,1.76-1.76H73.78a1.76,1.76,0,0,1,1.76,1.76v6.42a6.33,6.33,0,0,0,4.32,6c.85.29,1.7.61,2.53.95a55.72,55.72,0,0,0-4.81-4.17L85,18.07l-7.39-3.68V2H57.86V15.23L45.46,19,36.63,12.5l-12.82,12L34.16,36.24A2.32,2.32,0,0,0,34.13,33Z"/><polygon points="96.78 12.89 87.21 18.8 91.07 20.06 96.78 12.89"/><polygon points="109.37 28.03 109.86 27.29 108.72 28.03 109.37 28.03"/><polygon points="109.98 27.21 109.97 27.13 109.86 27.29 109.98 27.21"/><polygon points="87.21 18.8 84.97 18.07 86.86 19.01 87.21 18.8"/><polygon points="108.72 22.17 103.56 16.96 109.29 24.43 108.72 22.17"/><polygon points="98 11.36 96.78 12.89 98.48 11.84 98 11.36"/><path d="M87.65,21.6a6.3,6.3,0,0,0,4.51-1.87l4.57-4.55a1.76,1.76,0,0,1,2.48,0l8.67,8.67a1.76,1.76,0,0,1,0,2.48L106.17,28h2.55l1.14-.74.11-.16-.68-2.7L103.57,17l-5.09-5.12-1.7,1.05-5.71,7.17L87.21,18.8l-.34.21L85,18.07l-7.39-2.42a55.72,55.72,0,0,1,4.81,4.17c.83.35,1.64.72,2.44,1.12A6.28,6.28,0,0,0,87.65,21.6Z"/><path d="M50.36,40.38A2.31,2.31,0,0,0,52,39.72a22.19,22.19,0,0,1,31.35-.21l.27.29L85,39.07l-7.38-7L61,30.78l-9.88,5.68-2.68,2.93a3.07,3.07,0,0,0,.29.34A2.33,2.33,0,0,0,50.36,40.38Z"/><path d="M61,30.78,77.58,32l7.38,7c.92-.49,1.86-1,2.81-1.4-.37-.42-.75-.83-1.15-1.23a26.85,26.85,0,0,0-37.94,0,2.35,2.35,0,0,0-.23,3l2.68-2.93Z"/><path d="M102.29,32.24v0l0,0Z"/></svg>