<svg id="Capa_1" data-name="Capa 1" xmlns="http://www.w3.org/2000/svg" viewBox="0 0 109.51 120.51"><defs><style>.cls-1{fill:#17b5c8;}.cls-2{fill:#02809d;}.cls-3{fill:#a6d100;}.cls-4{fill:#6cab00;}.cls-5{fill:#fff;}</style></defs><path class="cls-1" d="M33.47,12.4a1.36,1.36,0,0,0-1.25.78,34.19,34.19,0,0,1-18.47,17,1.38,1.38,0,0,0-.87,1.29V41.82A68.33,68.33,0,0,0,23.71,78.47a79.2,79.2,0,0,0,30.18,27.4l.21.11a1.42,1.42,0,0,0,1.31,0l.22-.11A79.24,79.24,0,0,0,85.8,78.47,68.33,68.33,0,0,0,96.63,41.82V31.46a1.38,1.38,0,0,0-.87-1.29,34.19,34.19,0,0,1-18.47-17A1.36,1.36,0,0,0,76,12.4Z"/><path class="cls-2" d="M92.46,27.56s7.89,53.57-41.73,77l3.9,3.14S69,102.66,75,95.78s17.3-22,21.61-35.2,2.2-30.72,2.2-30.72Z"/><path class="cls-3" d="M107.63,23.14s-3.47-.69-12.87-5.27S84.44,3.19,84.44,3.19H24.59L22.3,9.61C20,16,1.86,23.14,1.86,23.14s-2.95,6.42,2.33,39.55S55,118.53,55,118.53s19.54-7.34,38.57-32.79S107.63,23.14,107.63,23.14Zm-6.46,18.68A72.88,72.88,0,0,1,89.63,80.9a83.85,83.85,0,0,1-31.9,29l-.21.11a5.94,5.94,0,0,1-2.76.69A5.88,5.88,0,0,1,52,110l-.22-.11a83.85,83.85,0,0,1-31.9-29A72.87,72.87,0,0,1,8.35,41.82V31.46A5.88,5.88,0,0,1,12.08,26a29.63,29.63,0,0,0,16-14.72,6,6,0,0,1,5.35-3.36H76a5.94,5.94,0,0,1,5.35,3.36A29.63,29.63,0,0,0,97.43,26a5.89,5.89,0,0,1,3.74,5.51Z"/><path class="cls-4" d="M36.9,106.14s17.09,14,38.12,0L55,118.53Z"/><path class="cls-4" d="M80.62,3.5S83.22,24,106.3,25.66V21.84s-18-6.27-20.79-17.27Z"/><path class="cls-4" d="M3.11,26.41s26.76-2.89,23.32-24H23.67s-.07,8.71-4.2,13.14S3.11,22.62,3.11,22.62Z"/><path d="M54.76,110.68A5.88,5.88,0,0,1,52,110l-.22-.11a83.85,83.85,0,0,1-31.9-29A72.87,72.87,0,0,1,8.35,41.82V31.46A5.88,5.88,0,0,1,12.08,26a29.63,29.63,0,0,0,16-14.72,6,6,0,0,1,5.35-3.36H76a5.94,5.94,0,0,1,5.35,3.36A29.63,29.63,0,0,0,97.43,26a5.89,5.89,0,0,1,3.74,5.51V41.82A72.88,72.88,0,0,1,89.63,80.9a83.85,83.85,0,0,1-31.9,29l-.21.11A5.94,5.94,0,0,1,54.76,110.68ZM33.47,12.4a1.36,1.36,0,0,0-1.25.78,34.19,34.19,0,0,1-18.47,17,1.38,1.38,0,0,0-.87,1.29V41.82A68.33,68.33,0,0,0,23.71,78.47a79.2,79.2,0,0,0,30.18,27.4l.21.11a1.42,1.42,0,0,0,1.31,0l.22-.11A79.24,79.24,0,0,0,85.8,78.47,68.33,68.33,0,0,0,96.63,41.82V31.46a1.38,1.38,0,0,0-.87-1.29,34.19,34.19,0,0,1-18.47-17A1.36,1.36,0,0,0,76,12.4Z"/><path d="M54.76,120.51a5.17,5.17,0,0,1-2.38-.59l-5.19-2.72C23.83,104.91,7.32,84.07,1.92,60a2.26,2.26,0,0,1,1.71-2.71,2.07,2.07,0,0,1,.5,0A2.26,2.26,0,0,1,6.34,59c5.11,22.77,20.77,42.52,43,54.18l5.19,2.73a.6.6,0,0,0,.27.07.68.68,0,0,0,.27-.07l5.18-2.73C82.36,101.54,98,81.83,103.16,59.1a2.25,2.25,0,0,1,2.2-1.77,2.07,2.07,0,0,1,.5.06,2.26,2.26,0,0,1,1.71,2.71c-5.43,24-21.92,44.83-45.25,57.1l-5.19,2.72A5.13,5.13,0,0,1,54.76,120.51Z"/><path d="M2.66,52.82a2.26,2.26,0,0,1-2.25-2,79.77,79.77,0,0,1-.41-8V24.52a5.09,5.09,0,0,1,4.54-5.08c8.81-.93,15.74-7.09,16.84-15A5.17,5.17,0,0,1,26.45,0H83.06a5.17,5.17,0,0,1,5.07,4.44c1.1,7.9,8,14.07,16.84,15a5.09,5.09,0,0,1,4.54,5.08V42.77a77.89,77.89,0,0,1-.4,7.94,2.26,2.26,0,0,1-2.25,2h-.24a2.27,2.27,0,0,1-2-2.48c.25-2.48.38-5,.38-7.48V24.52a.57.57,0,0,0-.48-.57C93.61,22.8,85,15,83.64,5.07a.59.59,0,0,0-.58-.54H26.45a.6.6,0,0,0-.58.54C24.48,15,15.9,22.8,5,24a.57.57,0,0,0-.49.57V42.77a73.62,73.62,0,0,0,.39,7.56,2.27,2.27,0,0,1-2,2.48Z"/><g id="g4588"><path id="path3989" class="cls-5" d="M42.62,58.54c2.71,0,4.4-1.94,4.4-4.65s-1.69-4.66-4.4-4.66-4.4,2-4.4,4.66S39.91,58.54,42.62,58.54Zm0-11.68a7,7,0,1,1-7.11,7A7,7,0,0,1,42.62,46.86Zm-10.93,3.7A3.36,3.36,0,0,0,29,49.23c-1.19,0-2.23.54-2.23,1.5,0,1.6,2.28,1.83,3.41,2.08,2.2.54,3.9,1.39,3.9,3.9,0,3-2.77,4.2-5.42,4.2a5.75,5.75,0,0,1-5.17-2.37L25.37,57a4.44,4.44,0,0,0,3.25,1.58c1.3,0,2.71-.53,2.71-1.69,0-1.52-2.12-1.8-3.22-2.06C25.94,54.25,24,53.55,24,51c0-2.79,2.57-4.12,5.08-4.12a5.15,5.15,0,0,1,4.57,2.2Zm25.94-7.63a5.06,5.06,0,0,1,1.85.38L60,41.08a12.16,12.16,0,0,0-2.54-.35c-3.59,0-4.73,1.75-4.73,5.3V47.2H50.21v2.2h2.51V61.53c0,1.86-.35,3-2.21,3a4,4,0,0,1-1.05-.12v2.25a8.9,8.9,0,0,0,1.22.08c3.33,0,4.57-1.76,4.57-5.31v-12h4.26V47.2H55.29V46c0-1.87.33-3,2.34-3ZM45.48,64.07H48v2.61H45.48V64.07"/><path id="path3991" class="cls-5" d="M66.79,47.2h2.54V60.58H66.79Zm0,0h2.54V60.58H66.79Zm0-8.23h2.54v2.61H66.79ZM78.87,58.54c-2.71,0-4.4-1.94-4.4-4.65s1.69-4.66,4.4-4.66,4.4,2,4.4,4.66A4.43,4.43,0,0,1,78.87,58.54Zm4.57-19.4v9.34a7.17,7.17,0,0,0-4.57-1.62,7,7,0,1,0,0,14c3.89,0,7.11-2.86,7.11-7.62V39.14H83.44"/><path id="path3993" class="cls-5" d="M62,47.2V44.12c0-1.86.31-3,2.18-3a3.78,3.78,0,0,1,1,.12V39A8.32,8.32,0,0,0,64,38.9c-3.32,0-4.57,1.75-4.57,5.31V60.58H62V49.4h4.83V47.2H62"/></g></svg>