<svg id="Capa_1" data-name="Capa 1" xmlns="http://www.w3.org/2000/svg" viewBox="0 0 177.33 252.3"><defs><style>.cls-1{fill:#5f7993;}.cls-2{fill:#3a5368;}.cls-3{fill:#17b5c8;}.cls-4{fill:#02809d;}.cls-5{fill:#a6d100;}.cls-6{fill:#6cab00;}.cls-7{fill:#1d1e1b;}</style></defs><path class="cls-1" d="M46.4,205.42l-.32,40s.52,2.5,1.55,3.24a9,9,0,0,0,4.67,1.67H79.93s4.82-1.33,4.79-4.91,0-39.72,0-39.72-4.49,4-17.5,3.38S48.57,208.44,46.4,205.42Z"/><path class="cls-2" d="M71.56,209.4s8.2,1.55,8.74,8.33,0,25,0,25-1.42,6.24-10.34,7.58l7.31.38s5.57,1.35,7.33-4.91,0-39.72,0-39.72A29.07,29.07,0,0,1,71.56,209.4Z"/><path class="cls-3" d="M114.67,205.42l-.32,40s.52,2.5,1.55,3.24a9,9,0,0,0,4.67,1.67H148.2S153,249,153,245.39s0-39.72,0-39.72-4.49,4-17.5,3.38S116.84,208.44,114.67,205.42Z"/><path class="cls-4" d="M139,209.4s8.21,1.55,8.74,8.33,0,25,0,25-1.42,6.24-10.34,7.58l7.31.38s5.57,1.35,7.33-4.91S152,206,152,206A29.07,29.07,0,0,1,139,209.4Z"/><path class="cls-1" d="M128.28,7.25l-.32,40s.52,2.49,1.55,3.24a9,9,0,0,0,4.67,1.67h27.63s4.82-1.33,4.79-4.91,0-39.72,0-39.72-4.49,4-17.5,3.38S130.45,10.27,128.28,7.25Z"/><path class="cls-2" d="M152.7,11.87s8.2,1.55,8.73,8.32,0,25,0,25S160,51.4,151.09,52.74l7.31.37s5.58,1.35,7.34-4.9,0-39.72,0-39.72A29.27,29.27,0,0,1,152.7,11.87Z"/><path class="cls-5" d="M62.64,7.25l-.32,40s.52,2.49,1.55,3.24a9,9,0,0,0,4.67,1.67H96.17S101,50.8,101,47.22,101,7.5,101,7.5s-4.49,4-17.5,3.38S64.81,10.27,62.64,7.25Z"/><path class="cls-6" d="M87.36,11.87s8.2,1.55,8.74,8.32,0,25,0,25-1.42,6.24-10.34,7.58l7.31.37s5.57,1.35,7.33-4.9,0-39.72,0-39.72A29.22,29.22,0,0,1,87.36,11.87Z"/><path class="cls-3" d="M2.32,7.25,2,47.22s.52,2.49,1.55,3.24a9,9,0,0,0,4.67,1.67H35.85s4.82-1.33,4.79-4.91,0-39.72,0-39.72-4.49,4-17.5,3.38S4.49,10.27,2.32,7.25Z"/><path class="cls-4" d="M26.9,11.87s8.2,1.55,8.74,8.32,0,25,0,25-1.42,6.24-10.35,7.58l7.31.37s5.58,1.35,7.34-4.9,0-39.72,0-39.72A29.27,29.27,0,0,1,26.9,11.87Z"/><rect class="cls-3" x="84.37" y="92.46" width="30.03" height="4.5"/><path class="cls-3" d="M79.65,130.21,74.7,118l-2.06,2a8,8,0,0,1-1.5,1.16l5,12.26,2.24-2.25A8.89,8.89,0,0,1,79.65,130.21Z"/><path class="cls-3" d="M124.15,118.11l-4.58,12.2a7.57,7.57,0,0,1,1.12.93l2.43,2.42,4.64-12.35a7.86,7.86,0,0,1-1.64-1.24Z"/><rect class="cls-7" x="145.03" y="52.13" width="4.5" height="9.71"/><path class="cls-7" d="M31.35,68.51,23.28,51.18l-4.08,1.9,8.71,18.7,2.41-2.41A8.38,8.38,0,0,1,31.35,68.51Z"/><path class="cls-7" d="M75,71.74l7.21-18.81L78,51.32,71.47,68.41a8.18,8.18,0,0,1,1.17,1Z"/><path class="cls-7" d="M75.43,179l-12,20,3.86,2.31,11.39-19.07-.35-.32Z"/><path class="cls-7" d="M120.26,182.33l11.48,19,3.85-2.33-12-19.93-2.85,2.86A5.34,5.34,0,0,1,120.26,182.33Z"/><ellipse class="cls-3" cx="21.32" cy="6.44" rx="19.32" ry="4.44"/><ellipse class="cls-4" cx="21.24" cy="8.49" rx="14.11" ry="2.87"/><path d="M34.42,54.13H8.22C3.69,54.13,0,51,0,47.22V7.33a2.16,2.16,0,0,1,1.44-2A2.2,2.2,0,0,1,3.88,6c.78,1,6.91,2.9,17.52,2.9,10,0,16.37-1.72,17.49-2.88a2.18,2.18,0,0,1,2.4-.5,2.13,2.13,0,0,1,1.35,2V47.22C42.64,51,39,54.13,34.42,54.13ZM4,10.57V47.22c0,1.57,1.93,2.91,4.22,2.91h26.2c2.29,0,4.22-1.34,4.22-2.91V10.63C34.29,12.27,27.18,12.9,21.4,12.9S8.32,12.25,4,10.57ZM41.77,8.79h0Z"/><path d="M21.32,12.88C17.76,12.88,0,12.57,0,6.44S17.76,0,21.32,0,42.64.31,42.64,6.44a3.14,3.14,0,0,1-.39,1.5C39.66,12.74,23.19,12.88,21.32,12.88ZM4.49,6.44c1.9,1,7.68,2.44,16.83,2.44S36.26,7.45,38.15,6.44C36.25,5.42,30.47,4,21.32,4S6.39,5.42,4.49,6.44Z"/><ellipse class="cls-5" cx="81.64" cy="6.44" rx="19.32" ry="4.44"/><ellipse class="cls-6" cx="81.56" cy="8.49" rx="14.11" ry="2.87"/><path d="M94.74,54.13H68.54c-4.53,0-8.22-3.1-8.22-6.91V7.33a2.15,2.15,0,0,1,1.45-2A2.2,2.2,0,0,1,64.21,6c.77,1,6.9,2.9,17.51,2.9,10,0,16.38-1.72,17.49-2.88a2.2,2.2,0,0,1,2.41-.5,2.14,2.14,0,0,1,1.34,2V47.22C103,51,99.28,54.13,94.74,54.13ZM64.32,10.57V47.22c0,1.57,1.93,2.91,4.22,2.91h26.2C97,50.13,99,48.79,99,47.22V10.63C94.62,12.27,87.5,12.9,81.72,12.9S68.64,12.25,64.32,10.57ZM102.1,8.79h0Zm-41-.29h0Z"/><path d="M81.64,12.88c-3.56,0-21.32-.31-21.32-6.44S78.08,0,81.64,0,103,.31,103,6.44a3.14,3.14,0,0,1-.39,1.5C100,12.74,83.51,12.88,81.64,12.88ZM64.81,6.44c1.9,1,7.68,2.44,16.83,2.44S96.58,7.45,98.48,6.44C96.57,5.42,90.79,4,81.64,4S66.71,5.42,64.81,6.44Z"/><ellipse class="cls-1" cx="147.28" cy="6.44" rx="19.32" ry="4.44"/><ellipse class="cls-2" cx="147.2" cy="8.49" rx="14.11" ry="2.87"/><path d="M160.38,54.13h-26.2c-4.53,0-8.22-3.1-8.22-6.91V7.33a2.16,2.16,0,0,1,1.44-2,2.2,2.2,0,0,1,2.44.69c.78,1,6.91,2.9,17.52,2.9,10,0,16.38-1.72,17.49-2.88a2.19,2.19,0,0,1,2.4-.5,2.13,2.13,0,0,1,1.35,2V47.22C168.6,51,164.92,54.13,160.38,54.13ZM130,10.57V47.22c0,1.57,1.93,2.91,4.22,2.91h26.2c2.29,0,4.22-1.34,4.22-2.91V10.63c-4.34,1.64-11.46,2.27-17.24,2.27S134.28,12.25,130,10.57Zm37.78-1.78h0Z"/><path d="M147.28,12.88c-3.56,0-21.32-.31-21.32-6.44S143.72,0,147.28,0,168.6.31,168.6,6.44a3.14,3.14,0,0,1-.39,1.5C165.62,12.74,149.15,12.88,147.28,12.88ZM130.45,6.44c1.9,1,7.68,2.44,16.83,2.44s14.94-1.43,16.84-2.44c-1.91-1-7.69-2.44-16.84-2.44S132.35,5.42,130.45,6.44Z"/><ellipse class="cls-1" cx="65.4" cy="204.61" rx="19.32" ry="4.44"/><ellipse class="cls-2" cx="65.32" cy="206.66" rx="14.11" ry="2.87"/><path d="M78.5,252.3H52.3c-4.53,0-8.22-3.1-8.22-6.91V205.5a2.14,2.14,0,0,1,1.44-2,2.19,2.19,0,0,1,2.44.68c.78,1,6.91,2.9,17.52,2.9,10,0,16.38-1.72,17.49-2.88a2.2,2.2,0,0,1,2.41-.5,2.14,2.14,0,0,1,1.34,2v39.72C86.72,249.2,83,252.3,78.5,252.3ZM48.08,208.74v36.65c0,1.58,1.93,2.91,4.22,2.91H78.5c2.29,0,4.22-1.33,4.22-2.91V208.8c-4.34,1.64-11.46,2.27-17.24,2.27S52.4,210.42,48.08,208.74ZM85.86,207h0Z"/><path d="M65.4,211.05c-3.56,0-21.32-.31-21.32-6.44s17.76-6.44,21.32-6.44,21.32.31,21.32,6.44a3.2,3.2,0,0,1-.39,1.51C83.74,210.91,67.27,211.05,65.4,211.05Zm-16.83-6.44c1.9,1,7.68,2.44,16.83,2.44s14.94-1.42,16.84-2.44c-1.91-1-7.69-2.44-16.84-2.44S50.47,203.6,48.57,204.61Z"/><ellipse class="cls-3" cx="133.67" cy="204.61" rx="19.32" ry="4.44"/><ellipse class="cls-4" cx="133.59" cy="206.66" rx="14.11" ry="2.87"/><path d="M146.77,252.3h-26.2c-4.53,0-8.22-3.1-8.22-6.91V205.5a2.14,2.14,0,0,1,1.44-2,2.19,2.19,0,0,1,2.44.68c.78,1,6.9,2.9,17.52,2.9,10,0,16.37-1.72,17.49-2.88a2.18,2.18,0,0,1,2.4-.5,2.13,2.13,0,0,1,1.35,2v39.72C155,249.2,151.3,252.3,146.77,252.3Zm-30.42-43.56v36.65c0,1.58,1.93,2.91,4.22,2.91h26.2c2.29,0,4.22-1.33,4.22-2.91V208.8c-4.35,1.64-11.47,2.27-17.24,2.27S120.67,210.42,116.35,208.74ZM154.12,207Z"/><path d="M133.67,211.05c-3.56,0-21.32-.31-21.32-6.44s17.76-6.44,21.32-6.44,21.32.31,21.32,6.44a3.2,3.2,0,0,1-.39,1.51C152,210.91,135.54,211.05,133.67,211.05Zm-16.84-6.44c1.9,1,7.69,2.44,16.84,2.44s14.94-1.42,16.83-2.44c-1.9-1-7.69-2.44-16.83-2.44S118.73,203.6,116.83,204.61Z"/><path class="cls-3" d="M79.49,99.8V90.35l-6.17-2.28L72,83.65l2.32-4.57-8-7.23-3.81,3-4.11-1.92-2-5.54H46.73l-1.22,5.54-4.87,1.92-4.27-3-4.57,3-2.74,5,2.44,4.73-.76,4.11-1.83,1.06-4.73.61-.76,8.23,4.88,1.07,2.59,5.21-2.59,5,7.26,8.49,5.08-4.07,4.42,2.29,2.59,6.09h8.23l2-6.24,3.69-1.83,6.29,2.74L74.35,110l-3.54-5.15,2.51-4.3Zm-28,6.44A11.53,11.53,0,1,1,63,94.72,11.52,11.52,0,0,1,51.48,106.24Z"/><path class="cls-4" d="M43.53,114.64s16.14,3.5,23.25-9.85c9.76-18.29-6.36-29.48-6.36-29.48l7-3.46,6.92,7.23-3,6.44,3.66,3.65,3.54.87.27,10.1-5.54,1.07-1.93,4.42,3,4.38-6,8s-5.42-2.83-6.07-3.11-4.34,1.55-4.34,1.55l-1.43,5.52-7.66,1.22-3.2-3.35Z"/><path d="M48.52,124.77a4.9,4.9,0,0,1-4.89-4.89v-1.63a1,1,0,0,0-.67-1c-.53-.21-1-.41-1.43-.61a1,1,0,0,0-1.15.21l-1.16,1.16a4.91,4.91,0,0,1-6.91,0l-4.18-4.18a4.92,4.92,0,0,1,0-6.91l1.16-1.17a1,1,0,0,0,.21-1.14c-.21-.46-.41-.94-.6-1.42a1,1,0,0,0-.94-.67H26.32a4.9,4.9,0,0,1-4.89-4.89V91.76a4.9,4.9,0,0,1,4.89-4.89H28a1,1,0,0,0,1-.66c.19-.5.39-1,.6-1.43a1,1,0,0,0-.21-1.14l-1.16-1.17a4.92,4.92,0,0,1,0-6.91l4.19-4.19a4.89,4.89,0,0,1,6.91,0l1.16,1.16a1,1,0,0,0,.72.3.9.9,0,0,0,.42-.1c.47-.21.93-.4,1.43-.59a1,1,0,0,0,.66-1V69.56a4.9,4.9,0,0,1,4.89-4.89h5.92a4.9,4.9,0,0,1,4.89,4.89v1.63a1,1,0,0,0,.67,1c.49.2,1,.39,1.42.61a1.11,1.11,0,0,0,.43.09,1,1,0,0,0,.72-.3l1.16-1.16a4.91,4.91,0,0,1,6.91,0l4.19,4.18a4.91,4.91,0,0,1,0,6.91l-1.16,1.17a1,1,0,0,0-.2,1.14c.21.47.41.94.59,1.43a1,1,0,0,0,1,.66h1.63a4.89,4.89,0,0,1,4.89,4.89v5.92a4.89,4.89,0,0,1-4.89,4.89H75a1,1,0,0,0-1,.66c-.19.5-.39,1-.6,1.43a1,1,0,0,0,.2,1.15L74.82,107a4.92,4.92,0,0,1,0,6.91l-4.18,4.18a4.9,4.9,0,0,1-6.91,0l-1.16-1.16a1,1,0,0,0-.72-.3.94.94,0,0,0-.43.1c-.46.21-.94.41-1.42.59a1,1,0,0,0-.67,1v1.63a4.9,4.9,0,0,1-4.89,4.89Zm-7.4-12a4.87,4.87,0,0,1,2,.44c.4.18.8.34,1.2.5a4.91,4.91,0,0,1,3.15,4.56v1.63a1,1,0,0,0,1,1h5.92a1,1,0,0,0,1-1v-1.63a5,5,0,0,1,3.15-4.56c.39-.15.8-.32,1.2-.5a4.89,4.89,0,0,1,5.47,1l1.16,1.16a1,1,0,0,0,.73.3,1.06,1.06,0,0,0,.73-.3l4.18-4.18a1,1,0,0,0,0-1.46l-1.16-1.16a4.93,4.93,0,0,1-1-5.47c.18-.4.35-.8.5-1.2A4.93,4.93,0,0,1,75,98.71h1.63a1,1,0,0,0,1-1V91.76a1,1,0,0,0-1-1H75a4.93,4.93,0,0,1-4.56-3.15c-.15-.4-.32-.8-.5-1.2a4.92,4.92,0,0,1,1-5.46l1.16-1.17a1,1,0,0,0,0-1.45l-4.18-4.18a1,1,0,0,0-.73-.3,1,1,0,0,0-.73.3l-1.16,1.15a4.89,4.89,0,0,1-5.47,1c-.38-.17-.79-.34-1.2-.5a4.94,4.94,0,0,1-3.15-4.56V69.56a1,1,0,0,0-1-1H48.52a1,1,0,0,0-1,1v1.63a5,5,0,0,1-3.15,4.56c-.41.15-.81.32-1.2.5a4.89,4.89,0,0,1-5.47-1l-1.16-1.16a1,1,0,0,0-.73-.3,1.06,1.06,0,0,0-.73.3l-4.18,4.18a1.06,1.06,0,0,0-.3.73,1,1,0,0,0,.3.73L32,80.91a4.91,4.91,0,0,1,1,5.47c-.17.39-.34.79-.49,1.2A5,5,0,0,1,28,90.73H26.32a1,1,0,0,0-1,1v5.92a1,1,0,0,0,1,1H28a4.94,4.94,0,0,1,4.56,3.15c.16.41.32.81.5,1.2a4.93,4.93,0,0,1-1,5.47l-1.16,1.16a1,1,0,0,0,0,1.46l4.18,4.17a1,1,0,0,0,.73.31,1,1,0,0,0,.73-.31l1.16-1.15A4.86,4.86,0,0,1,41.12,112.75Z"/><path d="M51.51,108.5a3.44,3.44,0,0,1-.46,0l-.25,0h-.17a8.5,8.5,0,0,1-.9-.06,12.22,12.22,0,0,1-1.6-.31,13.77,13.77,0,0,1-8.51-20.35A13.63,13.63,0,0,1,48,81.38a15,15,0,0,1,1.49-.28L50,81,51,81h.13l.32,0a13.79,13.79,0,0,1,8.21,2.73l.24.18c.2.16.39.31.57.47l.56.52.27.26q.35.35.66.72l.14.17a13.16,13.16,0,0,1,1.38,2,15.62,15.62,0,0,1,.72,1.54c.09.21.16.42.24.63s.2.62.29.94l0,.11c.06.24.12.43.16.63A11.5,11.5,0,0,1,65.13,93c.05.33.07.69.09,1.1v.2c0,.13,0,.27,0,.42v.16c0,.37,0,.65,0,.92s-.07.6-.11.9A16.11,16.11,0,0,1,62.8,103a4.92,4.92,0,0,1-.87,1.06,17.8,17.8,0,0,1-3.86,2.8l-.11.05a7,7,0,0,1-.67.32l-.17.09-.46.2-.63.23c-.27.09-.45.16-.63.21s-.54.15-.81.21l-.44.1c-.37.07-.74.13-1.14.17l-.2,0C52.36,108.47,51.91,108.5,51.51,108.5Zm0-23.69a10.48,10.48,0,0,0-2.49.31,9.9,9.9,0,0,0-6.05,14.65A9.82,9.82,0,0,0,49,104.32a11.3,11.3,0,0,0,1.16.22l.17,0a8.39,8.39,0,0,0,1,.06h.31c.22,0,.45,0,.68,0a4.6,4.6,0,0,0,.52-.06l.16,0a10.59,10.59,0,0,0,2.62-.79l.11,0,.53-.27a9.87,9.87,0,0,0,5-6.93c.06-.37.1-.7.13-1s0-.26,0-.33c0-.33,0-.65,0-1l0-.25h0a.43.43,0,0,0,0,0,8.52,8.52,0,0,0-.17-1.16l-.11-.4c-.07-.27-.15-.53-.24-.8,0,0-.12-.33-.16-.42a8.91,8.91,0,0,0-.49-1L60,89.62c-.13-.22-.27-.43-.41-.63l-.3-.41c-.15-.19-.31-.37-.47-.55l-.3-.32a10.4,10.4,0,0,0-.79-.7c-.09-.08-.19-.14-.28-.21-.28-.21-.5-.35-.72-.5l-.32-.19a10,10,0,0,0-2.16-.91l-.29-.07a8.12,8.12,0,0,0-.91-.19l-.31,0A9.87,9.87,0,0,0,51.48,84.81Z"/><path class="cls-3" d="M175.29,99.8V90.35l-6.17-2.28-1.29-4.42,2.32-4.57-8-7.23-3.81,3-4.11-1.92-2-5.54h-9.77l-1.21,5.54-4.88,1.92-4.27-3-4.57,3-2.74,5,2.44,4.73-.76,4.11-1.83,1.06-4.73.61-.76,8.23,4.88,1.07,2.59,5.21-2.59,5,7.26,8.49,5.08-4.07,4.42,2.29,2.59,6.09h8.23l2-6.24,3.69-1.83,6.29,2.74,6.44-7.31-3.54-5.15,2.51-4.3Zm-28,6.44a11.53,11.53,0,1,1,11.53-11.52A11.52,11.52,0,0,1,147.28,106.24Z"/><path class="cls-4" d="M139.33,114.64s16.14,3.5,23.26-9.85c9.75-18.29-6.37-29.48-6.37-29.48l7-3.46,6.92,7.23-3,6.44,3.66,3.65,3.54.87.27,10.1-5.54,1.07-1.93,4.42,3,4.38-6,8s-5.43-2.83-6.08-3.11-4.34,1.55-4.34,1.55l-1.43,5.52-7.66,1.22-3.2-3.35Z"/><path d="M144.32,124.77a4.9,4.9,0,0,1-4.89-4.89v-1.63a1,1,0,0,0-.67-1c-.52-.21-1-.41-1.43-.61a1,1,0,0,0-.42-.09,1,1,0,0,0-.72.3L135,118.06a4.91,4.91,0,0,1-6.91,0l-4.18-4.18a4.92,4.92,0,0,1,0-6.91l1.16-1.17a1,1,0,0,0,.21-1.14c-.21-.46-.41-.94-.6-1.42a1,1,0,0,0-.94-.67h-1.64a4.9,4.9,0,0,1-4.89-4.89V91.76a4.9,4.9,0,0,1,4.89-4.89h1.63a1,1,0,0,0,1-.66c.19-.5.39-1,.6-1.43a1,1,0,0,0-.2-1.14l-1.17-1.17a4.92,4.92,0,0,1,0-6.91l4.19-4.19a4.89,4.89,0,0,1,6.91,0l1.16,1.16a1,1,0,0,0,.72.3.87.87,0,0,0,.42-.1c.47-.21.93-.4,1.43-.59a1,1,0,0,0,.66-1V69.56a4.9,4.9,0,0,1,4.89-4.89h5.92a4.9,4.9,0,0,1,4.89,4.89v1.63a1,1,0,0,0,.67,1c.49.2,1,.39,1.43.61a1,1,0,0,0,.42.09,1,1,0,0,0,.72-.3l1.16-1.16a4.91,4.91,0,0,1,6.91,0l4.19,4.18a4.91,4.91,0,0,1,0,6.91l-1.16,1.17a1,1,0,0,0-.2,1.14c.21.47.41.94.59,1.43a1,1,0,0,0,.95.66h1.63a4.89,4.89,0,0,1,4.89,4.89v5.92a4.89,4.89,0,0,1-4.89,4.89h-1.63a1,1,0,0,0-.95.66c-.19.5-.39,1-.6,1.43a1,1,0,0,0,.2,1.15l1.16,1.16a4.9,4.9,0,0,1,0,6.91l-4.18,4.18a4.9,4.9,0,0,1-6.91,0l-1.16-1.16a1,1,0,0,0-.72-.3.94.94,0,0,0-.43.1c-.46.21-.94.41-1.42.59a1,1,0,0,0-.67,1v1.63a4.9,4.9,0,0,1-4.89,4.89Zm-7.4-12a4.87,4.87,0,0,1,2,.44c.4.18.8.34,1.2.5a4.91,4.91,0,0,1,3.15,4.56v1.63a1,1,0,0,0,1,1h5.92a1,1,0,0,0,1-1v-1.63a5,5,0,0,1,3.15-4.56c.39-.15.8-.32,1.2-.5a4.89,4.89,0,0,1,5.47,1l1.16,1.16a1,1,0,0,0,.73.3,1.06,1.06,0,0,0,.73-.3l4.18-4.18a1,1,0,0,0,0-1.46l-1.16-1.16a4.93,4.93,0,0,1-1-5.47c.18-.4.35-.8.5-1.2a4.93,4.93,0,0,1,4.56-3.15h1.63a1,1,0,0,0,1-1V91.76a1,1,0,0,0-1-1h-1.63a4.93,4.93,0,0,1-4.56-3.15c-.15-.4-.32-.8-.5-1.2a4.92,4.92,0,0,1,1-5.46l1.16-1.17a1,1,0,0,0,0-1.45l-4.18-4.18a1,1,0,0,0-.73-.3,1,1,0,0,0-.73.3l-1.16,1.15a4.82,4.82,0,0,1-3.44,1.42,4.88,4.88,0,0,1-2-.44c-.38-.17-.79-.34-1.2-.5a4.94,4.94,0,0,1-3.15-4.56V69.56a1,1,0,0,0-1-1h-5.92a1,1,0,0,0-1,1v1.63a4.93,4.93,0,0,1-3.15,4.56c-.41.15-.81.32-1.2.5a4.89,4.89,0,0,1-5.47-1l-1.16-1.16a1,1,0,0,0-1.45,0l-4.19,4.18a1.06,1.06,0,0,0-.3.73,1,1,0,0,0,.3.73l1.16,1.16a4.93,4.93,0,0,1,1,5.47c-.18.39-.35.79-.5,1.2a4.94,4.94,0,0,1-4.57,3.15h-1.63a1,1,0,0,0-1,1v5.92a1,1,0,0,0,1,1h1.63a4.93,4.93,0,0,1,4.56,3.15c.16.41.32.81.5,1.2a4.93,4.93,0,0,1-1,5.47l-1.16,1.16a1,1,0,0,0,0,1.46l4.19,4.17a1,1,0,0,0,1.45,0l1.16-1.15A4.86,4.86,0,0,1,136.92,112.75Z"/><path d="M147.31,108.5a3.44,3.44,0,0,1-.46,0l-.24,0h-.18a8.5,8.5,0,0,1-.9-.06,12.22,12.22,0,0,1-1.6-.31,13.77,13.77,0,0,1-8.51-20.35,13.66,13.66,0,0,1,8.42-6.34,15,15,0,0,1,1.49-.28l.49-.06,1-.06H147l.32,0a13.79,13.79,0,0,1,8.21,2.73l.24.18.58.47.55.52.28.26c.22.23.44.47.65.72l.15.17a13.86,13.86,0,0,1,1.37,2c.3.57.53,1.06.73,1.54l.23.63c.1.31.2.62.29.94l0,.11c.06.24.12.43.16.63s.13.7.19,1.16.06.69.08,1.1v.2c0,.13,0,.27,0,.42v.16c0,.37,0,.65,0,.92s-.07.6-.11.9A16.11,16.11,0,0,1,158.6,103a4.92,4.92,0,0,1-.87,1.06,17.8,17.8,0,0,1-3.86,2.8l-.11.05a7,7,0,0,1-.67.32l-.17.09-.46.2-.63.23c-.27.09-.45.16-.63.21s-.54.15-.81.21l-.44.1c-.37.07-.74.13-1.14.17l-.19,0C148.16,108.47,147.71,108.5,147.31,108.5Zm0-23.69a10.48,10.48,0,0,0-2.49.31,9.9,9.9,0,0,0-6,14.65,9.82,9.82,0,0,0,6.06,4.55,11.3,11.3,0,0,0,1.16.22l.17,0a8.39,8.39,0,0,0,1,.06h.31c.22,0,.45,0,.68,0a4.6,4.6,0,0,0,.52-.06l.16,0a10.59,10.59,0,0,0,2.62-.79l.11,0,.53-.27a9.87,9.87,0,0,0,5-6.93c.06-.37.1-.7.13-1s0-.26,0-.33a8.38,8.38,0,0,0,0-1l0-.25h0a.07.07,0,0,0,0,0,8.52,8.52,0,0,0-.17-1.16l-.11-.4c-.07-.27-.15-.53-.24-.8,0,0-.12-.33-.16-.42a10.8,10.8,0,0,0-.48-1l-.22-.35c-.13-.22-.27-.43-.41-.63l-.3-.41c-.15-.19-.31-.37-.47-.55l-.3-.32a10.4,10.4,0,0,0-.79-.7c-.09-.08-.19-.14-.28-.21-.28-.21-.5-.35-.72-.5l-.32-.19A10,10,0,0,0,150,85.2l-.29-.07a8.12,8.12,0,0,0-.91-.19l-.31,0A9.87,9.87,0,0,0,147.28,84.81Z"/><path class="cls-3" d="M127.55,161.67v-9.45l-6.18-2.28-1.29-4.42,2.33-4.57-8-7.23-3.81,3-4.11-1.91-2-5.55H94.79l-1.22,5.55-4.88,1.91-4.26-3-4.57,3-2.75,5,2.44,4.73-.76,4.11L77,151.61l-4.72.61-.76,8.23,4.87,1.07,2.59,5.22-2.59,5,7.27,8.48,5.07-4.07,4.42,2.29,2.59,6.09h8.23l2.06-6.24,3.69-1.83,6.29,2.74,6.44-7.31-3.55-5.14,2.51-4.31Zm-28,6.44a11.53,11.53,0,1,1,11.52-11.52A11.53,11.53,0,0,1,99.54,168.11Z"/><path class="cls-4" d="M91.58,176.51s16.14,3.5,23.26-9.85c9.75-18.29-6.36-29.48-6.36-29.48l7-3.46,6.93,7.23-3,6.44L123.1,151l3.54.87.27,10.1-5.54,1.07-1.92,4.42,3,4.38-6,8s-5.42-2.82-6.07-3.11-4.34,1.55-4.34,1.55l-1.44,5.52L96.9,185l-3.2-3.35Z"/><path d="M96.58,186.64a4.89,4.89,0,0,1-4.89-4.89v-1.63a1,1,0,0,0-.67-1c-.53-.21-1-.41-1.43-.6a.94.94,0,0,0-.43-.1,1,1,0,0,0-.72.3l-1.16,1.16a4.89,4.89,0,0,1-6.91,0l-4.19-4.18a4.92,4.92,0,0,1,0-6.91l1.17-1.16a1,1,0,0,0,.2-1.15c-.21-.46-.41-.94-.59-1.42a1,1,0,0,0-.95-.67H74.38a4.89,4.89,0,0,1-4.89-4.89v-5.92a4.89,4.89,0,0,1,4.89-4.89H76a1,1,0,0,0,.95-.66c.2-.5.39-1,.6-1.43a1,1,0,0,0-.2-1.14l-1.16-1.16a4.9,4.9,0,0,1,0-6.91l4.18-4.2a4.89,4.89,0,0,1,6.91,0l1.16,1.16a1,1,0,0,0,.72.3,1.07,1.07,0,0,0,.43-.09c.46-.22.93-.41,1.42-.6a1,1,0,0,0,.67-.95v-1.63a4.9,4.9,0,0,1,4.89-4.89h5.92a4.9,4.9,0,0,1,4.89,4.89v1.63a1,1,0,0,0,.66.95c.49.2,1,.39,1.43.61a1.07,1.07,0,0,0,.43.09,1,1,0,0,0,.72-.3l1.16-1.16a4.91,4.91,0,0,1,6.91,0l4.18,4.19a4.9,4.9,0,0,1,0,6.9l-1.16,1.17a1,1,0,0,0-.21,1.14c.22.47.41.94.6,1.43a1,1,0,0,0,.94.66h1.63a4.89,4.89,0,0,1,4.89,4.89v5.92a4.89,4.89,0,0,1-4.89,4.89h-1.62a1,1,0,0,0-.95.66c-.2.5-.4,1-.61,1.43a1,1,0,0,0,.2,1.15l1.16,1.16a4.91,4.91,0,0,1,0,6.91l-4.19,4.19a4.91,4.91,0,0,1-6.91,0l-1.16-1.16a1,1,0,0,0-.72-.3.9.9,0,0,0-.42.1c-.47.21-.94.41-1.43.59a1,1,0,0,0-.66,1v1.63a4.9,4.9,0,0,1-4.89,4.89Zm-7.41-12a4.91,4.91,0,0,1,2,.44c.39.18.79.35,1.19.5a4.94,4.94,0,0,1,3.16,4.56v1.63a1,1,0,0,0,1,1h5.92a1,1,0,0,0,1-1v-1.63a4.92,4.92,0,0,1,3.15-4.56c.39-.15.79-.32,1.19-.5a4.89,4.89,0,0,1,5.47,1l1.16,1.16a1,1,0,0,0,1.46,0l4.18-4.18a1,1,0,0,0,0-1.46L119,170.4a4.93,4.93,0,0,1-1-5.47c.19-.4.35-.8.5-1.2a4.94,4.94,0,0,1,4.56-3.15h1.63a1,1,0,0,0,1-1v-5.92a1,1,0,0,0-1-1h-1.62a4.92,4.92,0,0,1-4.56-3.15c-.16-.4-.33-.8-.5-1.2a4.93,4.93,0,0,1,1-5.46l1.17-1.17a1,1,0,0,0,0-1.45L116,136a1,1,0,0,0-.73-.3,1.06,1.06,0,0,0-.73.3l-1.15,1.15a4.89,4.89,0,0,1-5.47,1c-.39-.17-.79-.34-1.2-.49a4.93,4.93,0,0,1-3.15-4.57v-1.63a1,1,0,0,0-1-1H96.58a1,1,0,0,0-1,1v1.63a4.93,4.93,0,0,1-3.16,4.56c-.4.16-.8.32-1.19.5a5,5,0,0,1-2,.44,4.86,4.86,0,0,1-3.45-1.42L84.56,136a1,1,0,0,0-1.45,0l-4.18,4.18a1,1,0,0,0-.31.73,1,1,0,0,0,.31.73l1.16,1.16a4.93,4.93,0,0,1,1,5.47c-.18.39-.35.8-.5,1.2A4.93,4.93,0,0,1,76,152.6H74.38a1,1,0,0,0-1,1v5.92a1,1,0,0,0,1,1H76a4.94,4.94,0,0,1,4.56,3.16c.15.4.32.8.49,1.19a4.93,4.93,0,0,1-1,5.47l-1.16,1.16a1,1,0,0,0,0,1.46l4.18,4.18a1,1,0,0,0,.73.3,1.06,1.06,0,0,0,.73-.3L85.73,176A4.84,4.84,0,0,1,89.17,174.62Z"/><path d="M99.56,170.37a3.44,3.44,0,0,1-.46,0l-.24,0h-.18c-.32,0-.61,0-.9-.07a14.54,14.54,0,0,1-1.6-.3,13.87,13.87,0,0,1-10-9.91,13.79,13.79,0,0,1,9.89-16.79c.5-.12,1-.21,1.49-.28l.49-.06,1-.06h.14l.32,0a13.76,13.76,0,0,1,8.2,2.73l.24.18c.2.16.39.31.58.48l.56.51.27.26c.22.23.44.48.65.72l.15.17a14.43,14.43,0,0,1,1.37,2c.31.58.53,1.06.73,1.54.08.22.16.42.23.63s.2.62.29.94l0,.11c.07.24.12.44.16.63s.13.7.19,1.16.07.7.09,1.1v.2a2.87,2.87,0,0,1,0,.42v.17c0,.36,0,.64,0,.91s-.06.6-.1.9a16.12,16.12,0,0,1-2.3,6.25,4.92,4.92,0,0,1-.87,1.07,18.09,18.09,0,0,1-3.86,2.79l-.1.05-.67.32-.18.09-.45.2-.63.23c-.28.09-.45.16-.64.21s-.54.15-.81.21l-.44.1a10.24,10.24,0,0,1-1.13.17l-.2,0C100.41,170.34,100,170.37,99.56,170.37Zm0-23.69a10.42,10.42,0,0,0-2.49.31,9.91,9.91,0,0,0,0,19.2,9.31,9.31,0,0,0,1.15.22l.18,0a8.22,8.22,0,0,0,1,.06h.31c.23,0,.46,0,.68,0l.53-.07.15,0a10.07,10.07,0,0,0,2.62-.79l.11-.05c.19-.09.36-.17.54-.27a9.85,9.85,0,0,0,5-6.93,10,10,0,0,0,.13-1c0-.19,0-.26,0-.33,0-.33,0-.65,0-1v-.25h0v-.06a10.79,10.79,0,0,0-.18-1.16l-.11-.4c-.07-.27-.15-.53-.24-.8,0,0-.11-.33-.15-.42a10.9,10.9,0,0,0-.49-1l-.21-.35a6.9,6.9,0,0,0-.42-.63,3.79,3.79,0,0,0-.3-.4,6.44,6.44,0,0,0-.47-.55l-.29-.33c-.26-.24-.52-.48-.8-.7l-.27-.21c-.29-.21-.5-.35-.73-.49l-.32-.2a10.29,10.29,0,0,0-2.16-.91L102,147a7.94,7.94,0,0,0-.9-.19l-.32-.05A9.83,9.83,0,0,0,99.54,146.68Z"/></svg>