<?xml version="1.0" encoding="UTF-8" standalone="no"?>
<svg
   xmlns:dc="http://purl.org/dc/elements/1.1/"
   xmlns:cc="http://creativecommons.org/ns#"
   xmlns:rdf="http://www.w3.org/1999/02/22-rdf-syntax-ns#"
   xmlns:svg="http://www.w3.org/2000/svg"
   xmlns="http://www.w3.org/2000/svg"
   xmlns:sodipodi="http://sodipodi.sourceforge.net/DTD/sodipodi-0.dtd"
   xmlns:inkscape="http://www.inkscape.org/namespaces/inkscape"
   id="Capa_1"
   data-name="Capa 1"
   viewBox="0 0 102.58 123.99"
   version="1.1"
   sodipodi:docname="tasks.svg"
   inkscape:version="0.92.5 (2060ec1f9f, 2020-04-08)">
  <metadata
     id="metadata919">
    <rdf:RDF>
      <cc:Work
         rdf:about="">
        <dc:format>image/svg+xml</dc:format>
        <dc:type
           rdf:resource="http://purl.org/dc/dcmitype/StillImage" />
      </cc:Work>
    </rdf:RDF>
  </metadata>
  <sodipodi:namedview
     pagecolor="#ffffff"
     bordercolor="#666666"
     borderopacity="1"
     objecttolerance="10"
     gridtolerance="10"
     guidetolerance="10"
     inkscape:pageopacity="0"
     inkscape:pageshadow="2"
     inkscape:window-width="1406"
     inkscape:window-height="831"
     id="namedview917"
     showgrid="false"
     inkscape:zoom="5.3835697"
     inkscape:cx="51.290001"
     inkscape:cy="61.994999"
     inkscape:window-x="0"
     inkscape:window-y="27"
     inkscape:window-maximized="0"
     inkscape:current-layer="Capa_1" />
  <defs
     id="defs874">
    <style
       id="style872">.cls-1{fill:#17b5c8;}.cls-2{fill:#02809d;}.cls-3{fill:#a6d100;}.cls-4{fill:#6cab00;}</style>
  </defs>
  <rect
     style="opacity:1;fill:#ffffff;fill-opacity:1;fill-rule:nonzero;stroke:none;stroke-width:0.80581337;stroke-linecap:round;stroke-linejoin:round;stroke-miterlimit:4;stroke-dasharray:none;stroke-dashoffset:0;stroke-opacity:1"
     id="rect861"
     width="95.347298"
     height="109.72005"
     x="3.151978"
     y="11.407228"
     ry="11.373032" />
  <rect
     class="cls-1"
     x="18.57"
     y="66.4"
     width="10.5"
     height="10.5"
     id="rect876" />
  <rect
     class="cls-1"
     x="18.57"
     y="92.26"
     width="10.5"
     height="10.5"
     id="rect878" />
  <rect
     class="cls-2"
     x="18.57"
     y="66.4"
     width="4.29"
     height="10.5"
     id="rect880" />
  <rect
     class="cls-2"
     x="18.57"
     y="92.26"
     width="4.29"
     height="10.5"
     id="rect882" />
  <path
     class="cls-3"
     d="M28.16,21.74H73.37s1-13.08-13.08-13.08c0,0-8.36-9-13.42-3.71S31.9,4.12,28.16,21.74Z"
     id="path884" />
  <path
     class="cls-4"
     d="M40.08,20.39s-2.16-7.87,5.37-11.53H32.6l-4.44,8.69,2.56,4.19Z"
     id="path886" />
  <path
     d="M51.29,41.28a2.15,2.15,0,0,1,0-4.3h35a2.15,2.15,0,1,1,0,4.3Z"
     id="path888" />
  <path
     d="M76.09,53a2.15,2.15,0,1,1,1.52-.63A2.16,2.16,0,0,1,76.09,53Z"
     id="path890" />
  <path
     d="M51.29,14.76a2.15,2.15,0,1,1,1.52-.63A2.16,2.16,0,0,1,51.29,14.76Z"
     id="path892" />
  <path
     d="M51.29,53a2.15,2.15,0,1,1,0-4.3H65.86a2.15,2.15,0,1,1,0,4.3Z"
     id="path894" />
  <path
     d="M51.29,67.55a2.15,2.15,0,0,1,0-4.3h35a2.15,2.15,0,0,1,0,4.3Z"
     id="path896" />
  <path
     d="M76.09,79.23a2.15,2.15,0,1,1,1.52-.63A2.16,2.16,0,0,1,76.09,79.23Z"
     id="path898" />
  <path
     d="M51.29,79.23a2.15,2.15,0,1,1,0-4.3H65.86a2.15,2.15,0,1,1,0,4.3Z"
     id="path900" />
  <path
     d="M51.29,93.82a2.15,2.15,0,0,1,0-4.3h35a2.15,2.15,0,0,1,0,4.3Z"
     id="path902" />
  <path
     d="M76.09,105.5a2.15,2.15,0,1,1,1.52-.63A2.16,2.16,0,0,1,76.09,105.5Z"
     id="path904" />
  <path
     d="M51.29,105.5a2.15,2.15,0,1,1,0-4.3H65.86a2.15,2.15,0,1,1,0,4.3Z"
     id="path906" />
  <path
     d="M11.58,124A11.59,11.59,0,0,1,0,112.41V21.07A11.59,11.59,0,0,1,11.58,9.49H30.26l.17-.15a14.6,14.6,0,0,1,10-4h2.31l.16-.3a9.44,9.44,0,0,1,16.72,0l.16.3h2.3a14.66,14.66,0,0,1,10,4l.16.16H91a11.57,11.57,0,0,1,11.58,11.58v91.34A11.6,11.6,0,0,1,91,124Zm0-110.2A7.28,7.28,0,0,0,4.3,21.07v91.34a7.29,7.29,0,0,0,7.28,7.28H91a7.29,7.29,0,0,0,7.28-7.28V21.07A7.28,7.28,0,0,0,91,13.79H75.42l.31.78A14.58,14.58,0,0,1,76.79,20v1.58a2.15,2.15,0,0,1-2.15,2.15H27.94a2.15,2.15,0,0,1-2.15-2.15V20a14.49,14.49,0,0,1,1.05-5.46l.32-.78ZM40.46,9.65a10.36,10.36,0,0,0-10.3,9.18l-.08.63H72.49l-.07-.63A10.38,10.38,0,0,0,62.11,9.65H58.32a2.16,2.16,0,0,1-2.07-1.58,5.15,5.15,0,0,0-9.92,0,2.16,2.16,0,0,1-2.07,1.58Z"
     id="path908" />
  <path
     d="M18.21,105.5a2.15,2.15,0,0,1-2.15-2.15V91.67a2.15,2.15,0,0,1,2.15-2.15H29.88A2.15,2.15,0,0,1,32,91.67v11.68a2.15,2.15,0,0,1-2.15,2.15Zm2.14-4.3h7.38V93.82H20.35Z"
     id="path910" />
  <path
     d="M22,52.1a2.1,2.1,0,0,1-1.52-.63l-4.93-4.92A2.18,2.18,0,0,1,14.9,45a2.15,2.15,0,0,1,2.15-2.15,2.1,2.1,0,0,1,1.52.63L22,46.91l10.6-10.6a2.15,2.15,0,0,1,3,0,2.1,2.1,0,0,1,.63,1.52,2.13,2.13,0,0,1-.63,1.52L23.5,51.47A2.13,2.13,0,0,1,22,52.1Z"
     id="path912" />
  <path
     d="M18.21,79.23a2.15,2.15,0,0,1-2.15-2.15V65.4a2.15,2.15,0,0,1,2.15-2.15H29.88A2.15,2.15,0,0,1,32,65.4V77.08a2.15,2.15,0,0,1-2.15,2.15Zm2.14-4.3h7.38V67.55H20.35Z"
     id="path914" />
</svg>
