<svg id="Capa_1" data-name="Capa 1" xmlns="http://www.w3.org/2000/svg" viewBox="0 0 306.43 120.73"><defs><style>.cls-1{fill:#a6d100;}.cls-2{fill:#6cab00;}.cls-3{fill:#17b5c8;}.cls-4{fill:#02809d;}.cls-5{fill:#5f7993;}.cls-6{fill:#3a5368;}.cls-7{fill:none;}</style></defs><path class="cls-1" d="M242.15,19.24l-44.76,45.1v48.44l4.11,5.13h79.7l5.38-1.54v-52Zm12.28,96.1H229.86v-20a12.29,12.29,0,1,1,24.57,0Z"/><path class="cls-2" d="M225.59,110.73S206.36,114.06,206.36,92V73.36a13,13,0,0,1,3.81-9.18l38-38-6.06-6.9-44.76,45.1v48.44l3.08,5.13,25.37.26Z"/><path class="cls-3" d="M153,19.24,108.2,64.34v48.44l4.11,5.13H192l5.38-1.54v-52Zm12.28,96.1H140.67v-20a12.29,12.29,0,1,1,24.57,0Z"/><path class="cls-4" d="M136.4,110.73S117.18,114.06,117.18,92V73.36a13,13,0,0,1,3.8-9.18l38-38L153,19.24,108.2,64.34v48.44l3.08,5.13,25.37.26Z"/><path class="cls-5" d="M63.77,19.24,19,64.34v48.44l4.1,5.13h79.7l5.38-1.54v-52Zm12.28,96.1H51.48v-20a12.29,12.29,0,1,1,24.57,0Z"/><path class="cls-6" d="M47.21,110.73S28,114.06,28,92V73.36a13,13,0,0,1,3.8-9.18l38-38-6.06-6.9L19,64.34v48.44l3.07,5.13,25.37.26Z"/><path class="cls-7" d="M165.5,95.32a12.29,12.29,0,1,0-24.57,0v20H165.5Z"/><path class="cls-7" d="M238,18.92a6.47,6.47,0,0,1,9.34,0l48.9,50.9L301,65.06,244.36,6.11a2.37,2.37,0,0,0-3.4,0L201.67,47l4.67,4.86Z"/><path class="cls-7" d="M63.77,83A12.31,12.31,0,0,0,51.48,95.32v20H76.05v-20A12.3,12.3,0,0,0,63.77,83Z"/><path class="cls-7" d="M254.94,95.32a12.29,12.29,0,1,0-24.57,0v20h24.57Z"/><path d="M91.53,115.34H81.44v-20a17.68,17.68,0,0,0-35.35,0v20H24.51a2.86,2.86,0,0,1-2.86-2.86V86.74a2.7,2.7,0,1,0-5.39,0v25.74a8.26,8.26,0,0,0,8.25,8.25h67a2.7,2.7,0,0,0,0-5.39Zm-15.48,0H51.48v-20a12.29,12.29,0,1,1,24.57,0Z"/><path d="M181,115.34H170.89v-20a17.68,17.68,0,0,0-35.35,0v20H114a2.85,2.85,0,0,1-2.72-2,2.9,2.9,0,0,1-.14-.84V86.74a2.68,2.68,0,0,0-5.2-.95,2.48,2.48,0,0,0-.19.95v25.74a7.58,7.58,0,0,0,0,.84,2.85,2.85,0,0,1-2.72,2h-2.86a2.7,2.7,0,1,0,0,5.39H103a8.22,8.22,0,0,0,5.46-2.08,8.22,8.22,0,0,0,5.46,2.08h67a2.7,2.7,0,1,0,0-5.39Zm-15.47,0H140.93v-20a12.29,12.29,0,1,1,24.57,0Z"/><path d="M305,61.44,248.24,2.38a7.74,7.74,0,0,0-11.17,0L197.94,43.12,158.8,2.38a7.74,7.74,0,0,0-11.17,0L108.49,43.12,69.35,2.38a7.74,7.74,0,0,0-11.17,0L1.44,61.44a5.25,5.25,0,0,0,.08,7.31l5,5A5.2,5.2,0,0,0,14,73.67l2.29-2.38v6.84a2.7,2.7,0,1,0,5.39,0V65.68L63,22.66a1.09,1.09,0,0,1,1.58,0l31.79,33.1,3.74,3.89,4.66,4.85,1.14,1.18V79.09a2.69,2.69,0,0,0,5.2-1V65.68l1.14-1.18,4.66-4.85,3.74-3.89,31.79-33.1a1.09,1.09,0,0,1,1.58,0l31.8,33.1,3.73,3.89,4.67,4.85,1.13,1.18V79.09a2.69,2.69,0,0,0,5.21-1V65.68l1.13-1.18,4.67-4.85,3.73-3.89,31.8-33.1a1.09,1.09,0,0,1,1.58,0l41.33,43v46.8a2.87,2.87,0,0,1-2.86,2.86h-2.86a2.7,2.7,0,1,0,0,5.39h2.86a8.26,8.26,0,0,0,8.25-8.25V71.29l2.28,2.38a5.22,5.22,0,0,0,7.46.08l5-5A5.26,5.26,0,0,0,305,61.44Zm-196.49-.83-4.67-4.85-3.73-3.89L68.43,18.92a6.47,6.47,0,0,0-9.34,0L10.2,69.82,5.44,65.06,62.07,6.11a2.37,2.37,0,0,1,3.4,0L104.75,47l3.74,3.89,4.67,4.86Zm89.45,0-4.67-4.85-3.74-3.89L157.88,18.92a6.47,6.47,0,0,0-9.34,0L116.89,51.87,112.23,47l39.28-40.9a2.37,2.37,0,0,1,3.4,0L194.2,47l3.73,3.89,4.67,4.86Zm98.28,9.21-48.9-50.9a6.47,6.47,0,0,0-9.34,0L206.34,51.87,201.67,47,241,6.11a2.37,2.37,0,0,1,3.4,0l56.62,59Z"/><path d="M270.42,115.34H260.33v-20a17.68,17.68,0,0,0-35.35,0v20H203.4a2.85,2.85,0,0,1-2.72-2,2.9,2.9,0,0,1-.14-.84V86.74a2.7,2.7,0,0,0-5.39,0v25.74a7.63,7.63,0,0,0,0,.84,2.84,2.84,0,0,1-2.72,2h-2.86a2.7,2.7,0,0,0,0,5.39h2.86a8.23,8.23,0,0,0,5.47-2.08,8.19,8.19,0,0,0,5.46,2.08h67a2.7,2.7,0,0,0,0-5.39Zm-15.48,0H230.37v-20a12.29,12.29,0,1,1,24.57,0Z"/><path class="cls-6" d="M108.49,60.61l-4.67-4.85-3.73-3.89L68.43,18.92a6.47,6.47,0,0,0-9.34,0L10.2,69.82,5.44,65.06,62.07,6.11a2.37,2.37,0,0,1,3.4,0L104.75,47l3.74,3.89,4.67,4.86Z"/><path class="cls-4" d="M197.94,60.61l-4.67-4.85-3.74-3.89L157.88,18.92a6.47,6.47,0,0,0-9.34,0L116.89,51.87,112.23,47l39.28-40.9a2.37,2.37,0,0,1,3.4,0L194.2,47l3.73,3.89,4.67,4.86Z"/><path class="cls-2" d="M296.22,69.82l-48.9-50.9a6.47,6.47,0,0,0-9.34,0L206.34,51.87,201.67,47,241,6.11a2.37,2.37,0,0,1,3.4,0l56.62,59Z"/></svg>