<?xml version="1.0" encoding="UTF-8" standalone="no"?>
<svg
   xmlns:dc="http://purl.org/dc/elements/1.1/"
   xmlns:cc="http://creativecommons.org/ns#"
   xmlns:rdf="http://www.w3.org/1999/02/22-rdf-syntax-ns#"
   xmlns:svg="http://www.w3.org/2000/svg"
   xmlns="http://www.w3.org/2000/svg"
   xmlns:sodipodi="http://sodipodi.sourceforge.net/DTD/sodipodi-0.dtd"
   xmlns:inkscape="http://www.inkscape.org/namespaces/inkscape"
   id="Capa_1"
   data-name="Capa 1"
   viewBox="0 0 124.86 123.75"
   version="1.1"
   sodipodi:docname="toolbox.svg"
   inkscape:version="0.92.5 (2060ec1f9f, 2020-04-08)">
  <metadata
     id="metadata850">
    <rdf:RDF>
      <cc:Work
         rdf:about="">
        <dc:format>image/svg+xml</dc:format>
        <dc:type
           rdf:resource="http://purl.org/dc/dcmitype/StillImage" />
      </cc:Work>
    </rdf:RDF>
  </metadata>
  <sodipodi:namedview
     pagecolor="#ffffff"
     bordercolor="#666666"
     borderopacity="1"
     objecttolerance="10"
     gridtolerance="10"
     guidetolerance="10"
     inkscape:pageopacity="0"
     inkscape:pageshadow="2"
     inkscape:window-width="1920"
     inkscape:window-height="1043"
     id="namedview848"
     showgrid="false"
     inkscape:zoom="7.1111111"
     inkscape:cx="41.762539"
     inkscape:cy="61.875"
     inkscape:window-x="0"
     inkscape:window-y="1080"
     inkscape:window-maximized="1"
     inkscape:current-layer="Capa_1" />
  <defs
     id="defs817">
    <style
       id="style815">.cls-1{fill:#a6d100;}.cls-2{fill:#6cab00;}.cls-3{fill:#17b5c8;}.cls-4{fill:#02809d;}.cls-5{fill:#5f7993;}.cls-6{fill:#3a5368;}.cls-7{fill:#fff;}</style>
  </defs>
  <path
     class="cls-1"
     d="M60.09,46.51s-.48-13.3,16.68-14.57l11.08-.45,2,2.4,3.9-2.4H101v13.3H93.93L88.76,42l-1.83,4.47-13,.58S70.64,43,70.3,43,60.09,46.51,60.09,46.51Z"
     id="path819" />
  <rect
     class="cls-2"
     x="92.66"
     y="40.89"
     width="6.96"
     height="2.98"
     id="rect821"
     style="fill:#89ab00;fill-opacity:1" />
  <path
     class="cls-2"
     d="M61.58,45s8.49-10.67,14.57-3.9a6.19,6.19,0,0,0,4.41,2.3,45.88,45.88,0,0,0,6.37-.35l-.46,4H74.77L72.38,43l-3.72.5-6,3.15S60.61,46.66,61.58,45Z"
     id="path823"
     style="fill:#89ab00;fill-opacity:1" />
  <path
     class="cls-3"
     d="M31.44,30.45s-7.37,5-7.15,9.56,8.38,13.73,8.15,19.47a63.53,63.53,0,0,0,0,7.89H42.72S42.19,59,43.8,54.54s7.78-9.72,5.73-16.63-7.91-7.46-7.91-7.46l-.35,10.21-8.83.92Z"
     id="path825" />
  <path
     class="cls-4"
     d="M32,35.27s-4,3-2.75,7S35.77,49.61,36,53.85s0,13.52,0,13.52H32.44l.1-9.65-5.15-9.83s-4.32-9.74-.78-14.56,5.6-2.88,5.6-2.88Z"
     id="path827"
     style="fill:#11828f;fill-opacity:1" />
  <polygon
     class="cls-5"
     points="5.74 67.37 5.74 13.78 10.04 10.62 114.72 10.62 119.47 15.59 118.34 67.37 110.88 67.37 110.88 21.77 108.85 18.76 16.91 19.64 14.56 19.64 14.56 67.37 5.74 67.37"
     id="polygon829" />
  <rect
     class="cls-6"
     x="6.86"
     y="58.33"
     width="7.69"
     height="9.87"
     id="rect831"
     style="fill:#405162;fill-opacity:1" />
  <rect
     class="cls-6"
     x="110.79"
     y="58.33"
     width="7.69"
     height="9.87"
     id="rect833"
     style="fill:#405162;fill-opacity:1" />
  <rect
     class="cls-6"
     x="2.8"
     y="68.95"
     width="119.15"
     height="52.45"
     id="rect835"
     style="fill:#405162;fill-opacity:1" />
  <path
     class="cls-5"
     d="M20.67,68.95H122a0,0,0,0,1,0,0V121.4a0,0,0,0,1,0,0H20.67a10.22,10.22,0,0,1-10.22-10.22v-32A10.22,10.22,0,0,1,20.67,68.95Z"
     id="path837"
     style="fill:#5f7993;fill-opacity:1" />
  <path
     d="M120.83,66.46V16.3a7.21,7.21,0,0,0-7.2-7.2H83V5.19A5.19,5.19,0,0,0,77.79,0H47.08a5.2,5.2,0,0,0-5.19,5.19V9.1H11.23A7.21,7.21,0,0,0,4,16.3V66.46a6,6,0,0,0-4,5.7v30.55a1.83,1.83,0,0,0,3.66,0V72.16a2.39,2.39,0,0,1,2.39-2.39H118.81a2.39,2.39,0,0,1,2.39,2.39V117.7a2.4,2.4,0,0,1-2.39,2.39H6.05a2.4,2.4,0,0,1-2.39-2.39V110A1.83,1.83,0,0,0,0,110v7.67a6.06,6.06,0,0,0,6.05,6H118.81a6.06,6.06,0,0,0,6-6V72.16A6,6,0,0,0,120.83,66.46ZM45.55,5.19a1.53,1.53,0,0,1,1.53-1.53H77.79a1.52,1.52,0,0,1,1.52,1.53V9.1H45.55ZM11.23,12.76h102.4a3.55,3.55,0,0,1,3.54,3.54V66.11H87.26V48.94c3-1.4,2.32-4.54,2.41-4.9h1.26a3.16,3.16,0,0,0,3.12,2.65h5.83A3.16,3.16,0,0,0,103,43.54V32.83a3.17,3.17,0,0,0-3.16-3.16H94.05a3.16,3.16,0,0,0-3.12,2.64H89.72a3.09,3.09,0,0,0-3-2.52H74.57c-7.44,0-15.77,6.59-16.18,16.73a2.71,2.71,0,0,0,2.7,2.8c.83-.1,2.35.38,3.48-1a12.55,12.55,0,0,1,6.15-3.68.48.48,0,0,1,.62.49,4.18,4.18,0,0,0,2.83,3.94v17H43.87V61a15.79,15.79,0,0,1,4-10.54,14.27,14.27,0,0,0-4-22.16,2.67,2.67,0,0,0-3.9,2.36c-.14,9,.31,9.5-.33,9.5H34.84a.33.33,0,0,1-.33-.33V30.62a2.66,2.66,0,0,0-3.9-2.36,14.27,14.27,0,0,0-4,22.16,15.79,15.79,0,0,1,4,10.54v5.15H7.69V16.3A3.55,3.55,0,0,1,11.23,12.76ZM86,43.45v1.72a.5.5,0,0,1-.49.5c-10-.08-10.5.28-10.5-.5a4.17,4.17,0,0,0-5.07-4.06,15,15,0,0,0-7.81,4.48c.87-7.92,7.63-12.13,12.44-12.13H86.15a3,3,0,0,0,3,2.52H91.4a3.15,3.15,0,0,0,3.11-2.65h4.86V43H94.52a3.12,3.12,0,0,0-3.08-2.65H89.09A3.09,3.09,0,0,0,86,43.45Zm-8.18,5.88H83.6V66.11H77.83Zm-43-5.55h4.75a4,4,0,0,0,4-4V32.42A10.61,10.61,0,0,1,45.13,48a19.45,19.45,0,0,0-4.92,13v5.15h-6V61A19.41,19.41,0,0,0,29.3,48a10.63,10.63,0,0,1,1.55-15.56v7.37A4,4,0,0,0,34.84,43.78Z"
     id="path839" />
  <path
     d="M16.17,60.62V21.24h92.52V60.62a1.83,1.83,0,0,0,3.66,0V21.09a3.51,3.51,0,0,0-3.51-3.51H16a3.51,3.51,0,0,0-3.51,3.51V60.62A1.83,1.83,0,0,0,16.17,60.62Z"
     id="path841" />
  <g
     id="g4588">
    <path
       id="path3989"
       class="cls-7"
       d="M48,102c3.23,0,5.25-2.32,5.25-5.55s-2-5.54-5.25-5.54-5.24,2.31-5.24,5.54S44.74,102,48,102Zm0-13.92a8.38,8.38,0,1,1-8.47,8.37A8.37,8.37,0,0,1,48,88.07ZM35,92.48a4,4,0,0,0-3.26-1.58c-1.41,0-2.66.63-2.66,1.78,0,1.91,2.73,2.18,4.07,2.48,2.62.65,4.64,1.65,4.64,4.65,0,3.59-3.29,5-6.45,5-2.63,0-4.58-.68-6.16-2.83l2.29-1.88A5.32,5.32,0,0,0,31.29,102c1.54,0,3.22-.64,3.22-2,0-1.81-2.52-2.15-3.83-2.45C28.09,96.88,25.81,96,25.81,93c0-3.33,3.06-4.91,6.05-4.91a6.13,6.13,0,0,1,5.44,2.62Zm30.9-9.09a6.09,6.09,0,0,1,2.2.45l.61-2.65a14.43,14.43,0,0,0-3-.43c-4.28,0-5.64,2.09-5.64,6.33v1.38H57V91.1h3v14.44c0,2.22-.41,3.6-2.63,3.6a4.83,4.83,0,0,1-1.26-.15v2.68a9.52,9.52,0,0,0,1.46.09c4,0,5.45-2.08,5.45-6.32V91.1h5.08V88.47h-5V87c0-2.22.4-3.59,2.79-3.59ZM51.37,108.58h3v3.1h-3v-3.1" />
    <path
       id="path3991"
       class="cls-7"
       d="M76.77,88.47h3v15.94h-3Zm0,0h3v15.94h-3Zm0-9.79h3v3.1h-3ZM91.15,102c-3.22,0-5.24-2.32-5.24-5.55s2-5.54,5.24-5.54,5.25,2.31,5.25,5.54A5.28,5.28,0,0,1,91.15,102ZM96.6,78.88V90a8.57,8.57,0,0,0-5.45-1.93,8.38,8.38,0,1,0,0,16.75c4.63,0,8.47-3.42,8.47-9.08V78.88h-3" />
    <path
       id="path3993"
       class="cls-7"
       d="M71.05,88.47V84.81c0-2.22.37-3.6,2.59-3.6a4.88,4.88,0,0,1,1.21.14V78.67a12,12,0,0,0-1.42-.08c-4,0-5.44,2.09-5.44,6.32v19.5h3V91.1h5.76V88.47H71.05" />
  </g>
</svg>
