<svg id="Capa_1" data-name="Capa 1" xmlns="http://www.w3.org/2000/svg" viewBox="0 0 95.76 124.71"><defs><style>.cls-1{fill:#a6d100;}.cls-2{fill:#6cab00;}.cls-3{fill:#17b5c8;}.cls-4{fill:#02809d;}.cls-5{fill:#5f7993;}.cls-6{fill:#3a5368;}.cls-7{fill:none;stroke:#000;stroke-miterlimit:10;stroke-width:4px;}</style></defs><polygon class="cls-1" points="75.24 87.9 81.26 97.98 92.28 100.73 84.8 110.79 85.53 122 74.1 117.44 64.61 122.69 62.21 121.37 63.29 110.33 56.62 102.19 57.11 99.68 67.84 98.04 72.55 88.73 75.24 87.9"/><path class="cls-2" d="M76.92,91.53s-2.82,9.2-6,10.54a17.89,17.89,0,0,1-5,1,.93.93,0,0,0-.64,1.55c1.31,1.5,3.39,3.27,3.75,5.61.43,2.81-1.79,10.62-1.79,10.62s-5,1.55-4.95.49.92-10.33.92-10.33S55,102,56,101.22a29.53,29.53,0,0,1,3.58-2.09L67.84,98l5.38-9.54A3.13,3.13,0,0,1,76.92,91.53Z"/><polygon class="cls-1" points="16.52 89.74 1.34 119.12 6.16 121.37 35.99 120.88 36.93 116.65 21.75 89.74 16.52 89.74"/><path class="cls-2" d="M22.31,92.88,7.73,119.57,3,119.88l.32-5.51L18.5,88.84S22.2,91,22.31,92.88Z"/><polygon class="cls-3" points="64.25 46.02 84.4 46.02 93.76 63.27 84.21 80.67 65.69 80.67 54.45 62.38 64.25 46.02"/><path class="cls-4" d="M70.19,47.06,61.7,60.94a4.81,4.81,0,0,0,0,4.64l7.45,13.28-3.5,1.81L54.83,61.85,64.8,46Z"/><circle class="cls-3" cx="19.52" cy="63.27" r="17.25"/><path class="cls-4" d="M16.82,47.13S7.49,55,8.06,63.27s5.17,12.45,8.76,15.59L9.2,77.28,1.34,66S.87,54.84,6,52.27,10.54,46.57,16.82,47.13Z"/><path class="cls-5" d="M73.17,2.83,57.47,14.08l-.71,4.15L63,36.81h22.2l7-21.3S74.44,1.93,73.17,2.83Z"/><path class="cls-6" d="M77.82,6l-13,9.43a4.17,4.17,0,0,0-1.51,4.69l5.06,15.38L62.75,36l-6-21.18L72.55,2.67Z"/><polygon class="cls-5" points="3.15 2.67 3.15 35.47 36.5 35.47 36.5 2.77 3.15 2.67"/><path class="cls-6" d="M11.43,2.79a12.37,12.37,0,0,0-2.35,7.67V30s.45,5.28,4,6.06H3V2.67Z"/><rect class="cls-7" x="2.12" y="2" width="34.81" height="34.81" rx="2.83"/><circle class="cls-7" cx="19.52" cy="63.27" r="17.4"/><path class="cls-7" d="M19.46,120.88H5.36a3.36,3.36,0,0,1-2.91-5l7.06-12.21,7-12.21a3.35,3.35,0,0,1,5.81,0l7.05,12.21,7,12.21a3.36,3.36,0,0,1-2.91,5Z"/><path class="cls-7" d="M72.44,3.21l-15,10.87a2.85,2.85,0,0,0-1,3.17l5.72,17.6a2.84,2.84,0,0,0,2.69,2h18.5a2.85,2.85,0,0,0,2.7-2l5.71-17.6a2.83,2.83,0,0,0-1-3.17l-15-10.87A2.84,2.84,0,0,0,72.44,3.21Z"/><path class="cls-7" d="M76.29,89.27,80,96.81a2.44,2.44,0,0,0,1.84,1.34l8.32,1.2a2.45,2.45,0,0,1,1.35,4.17l-6,5.87a2.43,2.43,0,0,0-.7,2.17l1.42,8.29a2.44,2.44,0,0,1-3.55,2.57l-7.44-3.91a2.4,2.4,0,0,0-2.27,0l-7.45,3.91A2.45,2.45,0,0,1,62,119.85l1.43-8.29a2.46,2.46,0,0,0-.71-2.17l-6-5.87A2.45,2.45,0,0,1,58,99.35l8.33-1.2a2.48,2.48,0,0,0,1.84-1.34l3.72-7.54A2.44,2.44,0,0,1,76.29,89.27Z"/><path class="cls-7" d="M82.51,45.87H65.69a2.82,2.82,0,0,0-2.45,1.42L54.83,61.85a2.83,2.83,0,0,0,0,2.84l8.41,14.57a2.83,2.83,0,0,0,2.45,1.41H82.51A2.85,2.85,0,0,0,85,79.26l8.41-14.57a2.83,2.83,0,0,0,0-2.84L85,47.29A2.83,2.83,0,0,0,82.51,45.87Z"/></svg>