<svg id="Capa_1" data-name="Capa 1" xmlns="http://www.w3.org/2000/svg" viewBox="0 0 135.07 135"><defs><style>.cls-1{fill:#17b5c8;}.cls-2{fill:#02809d;}.cls-3{fill:#a6d100;}.cls-4{fill:#6cab00;}.cls-5{fill:#5f7993;}.cls-6{fill:none;}.cls-7{fill:#1d1d1b;}.cls-8{fill:#fff;}</style></defs><polygon class="cls-1" points="55.39 25.37 46.64 34.5 45.51 52.63 41.67 60.09 42.48 71.34 48.53 76.81 53 89.15 66.47 95.33 82.14 87.88 88.21 73.06 92.25 69.2 90.64 55.5 87.64 30.5 71.64 24.5 55.39 25.37"/><path class="cls-2" d="M55.39,27.9s27.25.6,33.25,24.6l.91-17s-7.71-7.45-8.81-8.73-9.1-3.27-9.1-3.27Z"/><polygon class="cls-3" points="28.15 113.87 51.64 101.5 54.08 89.26 66.47 94.72 79.04 90.66 82.01 101.57 107.77 114.84 82.64 127.5 62.64 128.5 41.64 122.5 28.15 113.87"/><path class="cls-4" d="M51.64,89.5l1,8.45s4.76,6.37,14.9,6.37,13.24-7.41,13.24-7.41l-1-7.76L70.64,94.5l-5,1L54.08,89.26Z"/><path class="cls-5" d="M131.5,67.5A64,64,0,1,0,24.27,114.65l-.06,0,2.08,1.75c.13.11.28.21.42.32,1.1.91,2.24,1.78,3.4,2.62l1.14.81q1.88,1.29,3.82,2.44l.86.49c1.43.82,2.88,1.58,4.38,2.28.11.06.22.1.33.15a63.37,63.37,0,0,0,15.48,4.9l.42.08c1.69.29,3.39.52,5.12.68l.63.05c1.71.14,3.45.23,5.21.23s3.46-.09,5.17-.23l.65-.05c1.71-.15,3.4-.38,5.07-.66l.43-.08a62.93,62.93,0,0,0,15.26-4.79c.18-.08.36-.15.54-.24,1.43-.67,2.84-1.4,4.21-2.18l1-.59q1.89-1.09,3.68-2.32l1.28-.91c1-.74,2-1.5,3-2.29.22-.18.45-.33.66-.51l2.13-1.77-.06-.06A63.83,63.83,0,0,0,131.5,67.5ZM8.15,67.5a59.35,59.35,0,1,1,98.71,44.36,18.08,18.08,0,0,0-2.08-1.24l-19.71-9.86a5.14,5.14,0,0,1-2.86-4.63V89.24c.45-.56.93-1.2,1.43-1.9a47.37,47.37,0,0,0,6.09-11.92,8.44,8.44,0,0,0,4.85-7.65V59.52A8.5,8.5,0,0,0,92.52,54V43.14a18.79,18.79,0,0,0-4.38-13.65C83.85,24.6,76.9,22.12,67.5,22.12S51.15,24.6,46.86,29.49a18.78,18.78,0,0,0-4.38,13.65V54a8.5,8.5,0,0,0-2.06,5.51v8.25a8.46,8.46,0,0,0,3.12,6.57A43.84,43.84,0,0,0,50.73,89.2v6.73a5.19,5.19,0,0,1-2.7,4.56l-18.4,10a17.48,17.48,0,0,0-1.75,1.1A59.19,59.19,0,0,1,8.15,67.5Zm94.16,48c-.81.59-1.64,1.16-2.48,1.71l-1.16.74c-1.1.68-2.22,1.33-3.36,1.94l-.76.38a58.49,58.49,0,0,1-8.12,3.44l-.29.1c-1.46.48-2.94.91-4.43,1.28h0c-1.5.37-3,.68-4.57.93l-.12,0c-1.45.23-2.9.4-4.37.53l-.77.06c-1.45.11-2.9.18-4.36.18s-3-.08-4.41-.19l-.76,0c-1.47-.13-2.94-.31-4.4-.55l-.19,0a59.71,59.71,0,0,1-9.06-2.26l-.27-.09c-1.46-.5-2.91-1.05-4.33-1.66l0,0c-1.35-.58-2.67-1.22-4-1.9l-.51-.26c-1.19-.63-2.35-1.32-3.5-2l-1-.65c-1.06-.69-2.1-1.41-3.12-2.17l-.31-.24.23-.13,18.4-10a9.86,9.86,0,0,0,5.13-8.65V87.55l-.54-.65a38.92,38.92,0,0,1-7-14.46l-.21-.93-.8-.51a3.85,3.85,0,0,1-1.79-3.24V59.51a3.81,3.81,0,0,1,1.3-2.85l.77-.69V43l0-.31a14,14,0,0,1,3.24-10.14c3.37-3.84,9.14-5.79,17.14-5.79s13.72,1.93,17.1,5.74a14.24,14.24,0,0,1,3.28,10.2l0,13.27.77.69a3.78,3.78,0,0,1,1.3,2.85v8.25a3.89,3.89,0,0,1-2.75,3.66L86,71.79l-.37,1.15a43.15,43.15,0,0,1-5.81,11.71c-.61.86-1.2,1.62-1.71,2.21l-.58.66v8.61a9.8,9.8,0,0,0,5.44,8.8l19.71,9.85.37.19Z"/><path class="cls-6" d="M83,104.93a9.8,9.8,0,0,1-5.44-8.8V87.52l.58-.66c.51-.59,1.1-1.35,1.71-2.21a43.15,43.15,0,0,0,5.81-11.71L86,71.79l1.16-.36a3.89,3.89,0,0,0,2.75-3.66V59.52a3.78,3.78,0,0,0-1.3-2.85L87.86,56l0-13.27a14.24,14.24,0,0,0-3.28-10.2c-3.38-3.81-9.13-5.74-17.1-5.74s-13.77,1.95-17.14,5.79A14,14,0,0,0,47.12,42.7l0,.31V56l-.77.69a3.81,3.81,0,0,0-1.3,2.85v8.25A3.85,3.85,0,0,0,46.86,71l.8.51.21.93a38.92,38.92,0,0,0,7,14.46l.54.65v8.38a9.86,9.86,0,0,1-5.13,8.65l-18.33,10a59,59,0,0,0,70.83.24l-.06,0Z"/><path class="cls-6" d="M126.5,67.5a59,59,0,1,0-98.35,44,15.65,15.65,0,0,1,1.48-.92l18.4-10a5.19,5.19,0,0,0,2.7-4.56V89.2a43.84,43.84,0,0,1-7.19-14.87,8.46,8.46,0,0,1-3.12-6.57V59.51A8.5,8.5,0,0,1,42.48,54V43.14a18.78,18.78,0,0,1,4.38-13.65c4.29-4.89,11.24-7.37,20.64-7.37s16.35,2.48,20.64,7.37a18.79,18.79,0,0,1,4.38,13.65V54a8.5,8.5,0,0,1,2.06,5.52v8.25a8.44,8.44,0,0,1-4.85,7.65,47.37,47.37,0,0,1-6.09,11.92c-.5.7-1,1.34-1.43,1.9v6.89a5.14,5.14,0,0,0,2.86,4.63l19.71,9.86a16.6,16.6,0,0,1,1.8,1.06A58.83,58.83,0,0,0,126.5,67.5Z"/><path class="cls-7" d="M85.07,100.76a5.14,5.14,0,0,1-2.86-4.63V89.24c.45-.56.93-1.2,1.43-1.9a47.37,47.37,0,0,0,6.09-11.92,8.44,8.44,0,0,0,4.85-7.65V59.52A8.5,8.5,0,0,0,92.52,54V43.14a18.79,18.79,0,0,0-4.38-13.65C83.85,24.6,76.9,22.12,67.5,22.12S51.15,24.6,46.86,29.49a18.78,18.78,0,0,0-4.38,13.65V54a8.5,8.5,0,0,0-2.06,5.51v8.25a8.46,8.46,0,0,0,3.12,6.57A43.84,43.84,0,0,0,50.73,89.2v6.73a5.19,5.19,0,0,1-2.7,4.56l-18.4,10a15.65,15.65,0,0,0-1.48.92q1.83,1.64,3.78,3.12l18.33-10a9.86,9.86,0,0,0,5.13-8.65V87.55l-.54-.65a38.92,38.92,0,0,1-7-14.46l-.21-.93-.8-.51a3.85,3.85,0,0,1-1.79-3.24V59.51a3.81,3.81,0,0,1,1.3-2.85l.77-.69V43l0-.31a14,14,0,0,1,3.24-10.14c3.37-3.84,9.14-5.79,17.14-5.79s13.72,1.93,17.1,5.74a14.24,14.24,0,0,1,3.28,10.2l0,13.27.77.69a3.78,3.78,0,0,1,1.3,2.85v8.25a3.89,3.89,0,0,1-2.75,3.66L86,71.79l-.37,1.15a43.15,43.15,0,0,1-5.81,11.71c-.61.86-1.2,1.62-1.71,2.21l-.58.66v8.61a9.8,9.8,0,0,0,5.44,8.8l19.71,9.85.06,0q2-1.49,3.82-3.13a16.6,16.6,0,0,0-1.8-1.06Z"/><path class="cls-5" d="M131.5,67.5a64,64,0,0,0-64-64A64.07,64.07,0,0,1,131.5,67.5Z"/><path class="cls-5" d="M67.5,8.15A59.31,59.31,0,0,0,27.88,111.63l.27-.18a59,59,0,1,1,78.43.23,2.68,2.68,0,0,0,.28.18A59.31,59.31,0,0,0,67.5,8.15Z"/><path class="cls-7" d="M100.64,116.67l2.34,4c-1,.68-2.06,1.34-3.13,2l-1,.59-.81.44-2.32-4c1-.54,2-1.11,3-1.72l1.16-.74.81-.56m1.15-5-3.11,2.1-.39.27-.37.25-.12.08c-.33.22-.65.43-1,.63-.88.55-1.82,1.09-2.79,1.61l-3.16,1.72,1.8,3.11,2.32,4,1.71,3,3-1.64.29-.15c.19-.1.38-.2.56-.31l1.08-.62c1.09-.64,2.2-1.34,3.29-2.07l2.73-1.82L106,119l-2.34-4-1.88-3.25Z"/><path class="cls-3" d="M98.31,116.13l1.38-.93-.23-.12,2.25-1.67c1.21-.91,2.43-1.9,3.71-3l1-.89.26.17a57.7,57.7,0,0,0,18.38-41.21l0-1.73h8.15l0,2c0,.75,0,1.5-.06,2.25,0,.19,0,.39,0,.59l0,.36c-.05.85-.11,1.68-.2,2.51,0,.22,0,.44-.08.65l-.05.37c-.1.81-.2,1.62-.33,2.42,0,.19-.16.93-.16.93-.15.83-.3,1.66-.47,2.48l-.19.78q-.28,1.3-.63,2.58l-.18.62c-.25.92-.52,1.82-.82,2.71l-.14.43c-.35,1-.68,2-1,2.84l-.08.22c-.43,1.07-.83,2-1.26,3l0,.12a65.37,65.37,0,0,1-14.27,20.2l0,0-1.42,1.34c-.65.59-1.32,1.17-2,1.73l-.15.13c-.14.12-.29.23-.45.35l-.23.17c-.93.76-1.94,1.53-3.08,2.35l-.28.2c-.34.25-.68.5-1,.73l-.57.38-1.55,1Z"/><path class="cls-7" d="M131.47,68.46c0,.82,0,1.64-.06,2.44,0,.32,0,.63-.07.94-.06.82-.11,1.63-.2,2.44,0,.33-.09.66-.13,1-.09.8-.19,1.59-.32,2.37,0,.3-.1.6-.16.9-.14.81-.28,1.61-.46,2.41,0,.26-.11.51-.17.77-.19.84-.4,1.68-.62,2.5-.05.21-.12.41-.17.62-.25.88-.51,1.75-.8,2.62,0,.14-.1.29-.14.43-.32.93-.65,1.85-1,2.76l-.09.23c-.39,1-.8,2-1.23,2.92h0a64.3,64.3,0,0,1-15.3,21l0,0c-.63.58-1.29,1.14-1.94,1.69l-.15.12c-.21.18-.44.33-.66.51-1,.79-2,1.55-3,2.29l-1.28.91-.55.36-2.34-4c.56-.38,1.12-.76,1.67-1.15l.76-.55h0c1.32-1,2.56-2,3.79-3.11.09.07-.1-.06,0,0a59.2,59.2,0,0,0,20-43.4h4.65M135,65H123.38l-.06,3.45a56,56,0,0,1-16.84,39h0l-2.08,1.92c-1.25,1.1-2.56,1.78-3.74,2.65l-4.51,3.37.09,0-.26.18,1.63,2.82,2.34,4,1.86,3.23,3.11-2.07.19-.12.4-.27q.55-.37,1.11-.78l.24-.17c1.16-.84,2.19-1.63,3.16-2.42l.16-.11a5.89,5.89,0,0,0,.55-.44l.13-.1c.62-.52,1.34-1.13,2.06-1.79l2.81-2.75h0A67.3,67.3,0,0,0,129,95.28l0,0,0,0c.43-1,.86-2,1.27-3l0-.1.06-.14c.36-.91.7-1.87,1-2.91l.06-.17.1-.3c.28-.83.55-1.74.84-2.76l.06-.22.12-.42c.21-.78.42-1.62.65-2.64l.07-.28.12-.54c.19-.89.35-1.78.48-2.54l.06-.34c0-.2.08-.4.11-.61.14-.84.24-1.66.34-2.49,0-.13,0-.24,0-.36s.06-.45.08-.68c.09-.86.15-1.71.21-2.58l0-.33c0-.22,0-.43,0-.65,0-.82.06-1.62.07-2.4v-.17L135,65Z"/><path class="cls-1" d="M125,64.42l-.13-1.6A57.89,57.89,0,0,0,67.5,9.9a57,57,0,0,0-25.26,5.85l-1.47.72L36.69,9.41l1.67-.83A65,65,0,0,1,67.5,1.75,66,66,0,0,1,133,62.54l.14,1.88Z"/><path class="cls-7" d="M67.5,3.5a64.07,64.07,0,0,1,63.8,59.17h-4.67A59.3,59.3,0,0,0,41.47,14.18l-2.33-4A63.55,63.55,0,0,1,67.5,3.5m0-3.5A66.77,66.77,0,0,0,37.58,7L34.25,8.67l1.86,3.23,2.33,4,1.63,2.83L43,17.33A55.05,55.05,0,0,1,67.5,11.65,56.12,56.12,0,0,1,123.14,63l.26,3.21h11.67l-.28-3.76A67.58,67.58,0,0,0,67.5,0Z"/><path class="cls-5" d="M37.28,125.87c-.74-.4-1.48-.8-2.21-1.21l-.89-.51c-1.34-.8-2.66-1.64-3.92-2.51-.37-.25-.72-.51-1.08-.77l-.09-.06c-1.31-1-2.46-1.83-3.5-2.69l-.12-.09-.31-.25c-.76-.63-1.43-1.22-2.09-1.82l-1.44-1.33,0,0A66.46,66.46,0,0,1,6.21,91.3c-.39-1-.75-2-1.1-3.06L5,88c-.29-.9-.57-1.83-.86-2.87L4,84.66c-.25-.9-.46-1.81-.67-2.71l-.15-.66c-.18-.86-.34-1.72-.49-2.59l-.06-.31c0-.17-.06-.33-.08-.5-.14-.83-.24-1.67-.34-2.5L2.19,75c0-.2,0-.4-.07-.59C2,73.61,2,72.76,1.91,71.9c0,0-.06-.72-.07-.91-.06-1.18-.09-2.36-.09-3.49a65.39,65.39,0,0,1,31.41-56l1.53-.94,4.08,7.06-1.45.89A57.51,57.51,0,0,0,28,109.4l.17-.12,1.11.87c1.19,1.06,2.42,2.08,3.67,3l2.17,1.64-.25.14,1.1.74,1,.63c1.21.76,2.32,1.41,3.39,2l2,1-3.45,7.39Z"/><path class="cls-7" d="M34.07,13l2.33,4a59.26,59.26,0,0,0-8.52,94.65c.09-.06-.09.07,0,0,1.22,1.09,2.45,2.12,3.75,3.11l.23-.13-.23.13.31.24c1,.76,2.06,1.48,3.12,2.17l1,.65c1.15.72,2.31,1.41,3.5,2l.49.26-2,4.21c-.72-.38-1.45-.77-2.16-1.18l-.86-.49q-1.95-1.15-3.82-2.44l-1.14-.81c-1.16-.84-2.3-1.71-3.4-2.62-.14-.11-.29-.21-.42-.32l-.07-.06c-.67-.56-1.33-1.13-2-1.72l0,0a64.23,64.23,0,0,1-16.43-24l0,0c-.37-1-.72-2-1.05-2.93l-.09-.26c-.3-.92-.58-1.84-.84-2.78,0-.15-.08-.3-.13-.46-.23-.87-.44-1.75-.64-2.63l-.15-.64c-.18-.83-.33-1.67-.47-2.51l-.15-.8c-.13-.8-.23-1.62-.32-2.43,0-.31-.09-.61-.12-.91-.09-.82-.15-1.65-.2-2.49,0-.29-.05-.59-.07-.88-.06-1.13-.09-2.26-.09-3.4A64,64,0,0,1,34.07,13M35.3,8.08,32.24,10A67.52,67.52,0,0,0,0,67.5c0,1.16,0,2.37.1,3.58,0,.21,0,.41,0,.62l0,.31c.06.88.12,1.74.21,2.62,0,.22,0,.43.08.64l0,.33c.09.77.2,1.66.35,2.56l.09.56L1,79c.12.73.29,1.68.5,2.65,0,.15.06.3.1.44l0,.24c.25,1.08.46,2,.68,2.78l.09.32.05.16c.3,1.07.59,2,.88,2.93l.07.18,0,.09c.36,1.09.72,2.09,1.1,3.06h0l0,.09a67.82,67.82,0,0,0,14.55,22.58h0l2.74,2.71c.61.56,1.27,1.14,2.08,1.82l.08.07.4.31.06,0c1,.86,2.22,1.77,3.57,2.74l1.19.85c1.29.89,2.65,1.75,4,2.57l.91.53c.76.43,1.52.84,2.27,1.24l3.25,1.69,1.55-3.31,2-4.22,1.42-3-3-1.55-.22-.11-.22-.12c-.93-.49-1.88-1-2.91-1.68l.05,0-4.33-3.28c-1.22-.92-2.61-1.65-3.76-2.68l-2.07-1.95h0A55.76,55.76,0,0,1,38.24,20l2.89-1.79-1.7-2.94-2.33-4L35.3,8.08Z"/><path class="cls-8" d="M67.5,133.25c-.93,0-1.85,0-2.77-.07s-1.73-.1-2.59-.17l-.64,0c-1.69-.15-3.46-.39-5.25-.7l-.44-.08a64.83,64.83,0,0,1-13.12-3.82l-1.7-.7,3.44-7.38,1.54.62c1.14.45,2.09.81,3,1.12l.27.09A56.76,56.76,0,0,0,58,124.3l.12,0c1.41.24,2.81.41,4.34.54l.73.06c1.59.12,3,.18,4.28.18s2.67-.06,4.23-.18l.75,0c1.54-.14,2.93-.31,4.24-.52l.11,0c1.53-.26,3-.56,4.45-.91l.21,0c1.35-.34,2.73-.75,4.1-1.2l.3-.1a58.74,58.74,0,0,0,7.86-3.33l.74-.38.38-.21,1.5-.8,4.06,7-1.57.86c-1.27.69-2.42,1.28-3.5,1.79l-.55.25a65.23,65.23,0,0,1-15.68,4.91l-.37.07c-.92.16-1.78.29-2.64.4H76c-.81.11-1.67.21-2.54.29l-.66,0c-.85.07-1.7.13-2.56.17S68.42,133.25,67.5,133.25Z"/><path class="cls-7" d="M95.7,119.69l2.32,4c-1.12.61-2.25,1.2-3.4,1.74-.18.09-.36.16-.54.24a62.93,62.93,0,0,1-15.26,4.79l-.43.08c-.83.14-1.66.26-2.5.37h0c-.84.11-1.68.21-2.52.28l-.65.05c-.83.07-1.66.12-2.49.16s-1.78.07-2.68.07-1.8,0-2.7-.07-1.68-.09-2.51-.16l-.63-.05c-1.73-.16-3.43-.39-5.12-.68l-.42-.08a63.64,63.64,0,0,1-12.77-3.72l2-4.22c1,.41,2,.8,3.09,1.16l.27.09A59.71,59.71,0,0,0,57.74,126l.19,0c1.46.24,2.93.42,4.4.55l.76,0c1.46.11,2.93.19,4.41.19s2.91-.07,4.36-.18l.77-.06c1.47-.13,2.92-.3,4.37-.53l.12,0c1.54-.25,3.07-.56,4.57-.93h0c1.49-.37,3-.8,4.43-1.28l.3-.1a58.88,58.88,0,0,0,8.11-3.44l.76-.38.39-.22M97,115l-3,1.62-.22.13-.14.07-.43.22-.29.15a54.82,54.82,0,0,1-7.63,3.23l-.15,0-.11,0c-1.31.43-2.61.82-3.89,1.14l-.07,0-.24.06c-1.38.34-2.83.63-4.31.88l-.16,0c-1.22.2-2.56.36-4.06.49l-.53,0-.19,0c-1.52.11-2.86.17-4.11.17s-2.6-.06-4.15-.18h-.2l-.49,0c-1.5-.13-2.85-.3-4.14-.51l-.17,0a56,56,0,0,1-8.55-2.13l-.12,0-.16,0c-.86-.29-1.81-.65-2.9-1.09L43.55,118l-1.4,3-2,4.22-1.55,3.33L42,130a66.92,66.92,0,0,0,13.46,3.93h.07l.37.07c1.86.32,3.68.56,5.41.71l.38,0,.26,0c.9.08,1.79.14,2.65.18s1.88.07,2.87.07,1.93,0,2.82-.07,1.75-.1,2.63-.17l.29,0,.38,0c.88-.08,1.78-.18,2.67-.3h.06c.88-.11,1.76-.25,2.63-.4h.08l.43-.08a66.52,66.52,0,0,0,16.05-5l.19-.08.39-.18c1.09-.51,2.27-1.11,3.58-1.83l3.14-1.71L101.05,122l-2.32-4L97,115Z"/><path class="cls-7" d="M77.55,87.52a14.84,14.84,0,0,1-22.16,0v5a16.2,16.2,0,0,0,11.25,4c6.41-.08,10.3-3.29,10.91-4Z"/></svg>