<?xml version="1.0" encoding="UTF-8" standalone="no"?>
<svg
   xmlns:dc="http://purl.org/dc/elements/1.1/"
   xmlns:cc="http://creativecommons.org/ns#"
   xmlns:rdf="http://www.w3.org/1999/02/22-rdf-syntax-ns#"
   xmlns:svg="http://www.w3.org/2000/svg"
   xmlns="http://www.w3.org/2000/svg"
   xmlns:sodipodi="http://sodipodi.sourceforge.net/DTD/sodipodi-0.dtd"
   xmlns:inkscape="http://www.inkscape.org/namespaces/inkscape"
   id="Capa_1"
   data-name="Capa 1"
   viewBox="0 0 126.05 105.67"
   version="1.1"
   sodipodi:docname="users.svg"
   inkscape:version="0.92.5 (2060ec1f9f, 2020-04-08)">
  <metadata
     id="metadata1827">
    <rdf:RDF>
      <cc:Work
         rdf:about="">
        <dc:format>image/svg+xml</dc:format>
        <dc:type
           rdf:resource="http://purl.org/dc/dcmitype/StillImage" />
        <dc:title></dc:title>
      </cc:Work>
    </rdf:RDF>
  </metadata>
  <sodipodi:namedview
     pagecolor="#ffffff"
     bordercolor="#666666"
     borderopacity="1"
     objecttolerance="10"
     gridtolerance="10"
     guidetolerance="10"
     inkscape:pageopacity="0"
     inkscape:pageshadow="2"
     inkscape:window-width="1920"
     inkscape:window-height="1043"
     id="namedview1825"
     showgrid="false"
     inkscape:zoom="2.2333681"
     inkscape:cx="63.025002"
     inkscape:cy="43.872875"
     inkscape:window-x="0"
     inkscape:window-y="1080"
     inkscape:window-maximized="1"
     inkscape:current-layer="Capa_1" />
  <defs
     id="defs1794">
    <style
       id="style1792">.cls-1{fill:#a6d100;}.cls-2{fill:#6cab00;}.cls-3{fill:#5f7993;}.cls-4{fill:#3a5368;}.cls-5{fill:#17b5c8;}.cls-6{fill:#02809d;}</style>
  </defs>
  <path
     class="cls-5"
     d="M47.17,55.13s6.09,6.71,17.36,6.71S78,54.92,78,54.92A31.91,31.91,0,0,1,96.42,71.33c6.07,12.9,3.91,18.68,3.91,18.68L74.76,102.76H49.85L25.39,89.18S26.21,64.35,47.17,55.13Z"
     id="path1804" />
  <path
     class="cls-6"
     d="M48.58,55l-8.43,5.9s8.19,7.18,23.68,7.18,22.08-7.89,22.08-7.89L77.37,55S63.23,68.3,48.58,55Z"
     id="path1806" />
  <path
     d="M40.15,28.29c0,6.2,2.42,13.35,6.48,19.13C51.23,54,57.06,57.6,63,57.6S74.82,54,79.43,47.42c4-5.78,6.48-12.93,6.48-19.13a22.88,22.88,0,1,0-45.76,0ZM63,9.38a18.93,18.93,0,0,1,18.9,18.91c0,5.33-2.2,11.78-5.76,16.85C72.39,50.53,67.6,53.63,63,53.63s-9.37-3.1-13.15-8.49c-3.55-5.07-5.76-11.52-5.76-16.85A18.93,18.93,0,0,1,63,9.38Z"
     id="path1808" />
  <path
     d="M80.1,53.16a2,2,0,0,0-2.26.39C73.4,58,68.27,60.32,63,60.32S52.65,58,48.21,53.55A2,2,0,0,0,46,53.16,39.79,39.79,0,0,0,23.26,89.08v0a2,2,0,0,0,.66,1.47,58.21,58.21,0,0,0,78.21,0,2,2,0,0,0,.65-1.47v0A39.76,39.76,0,0,0,80.1,53.16ZM63,101.69A54.12,54.12,0,0,1,27.25,88.23a35.75,35.75,0,0,1,19.2-30.87c5,4.54,10.67,6.94,16.57,6.94s11.62-2.4,16.59-6.94A35.77,35.77,0,0,1,98.8,88.23,54.13,54.13,0,0,1,63,101.69Z"
     id="path1810" />
  <path
     d="M22.17,82.79Z"
     id="path1820" />
</svg>
