<?xml version="1.0" encoding="UTF-8" standalone="no"?>
<svg
   xmlns:dc="http://purl.org/dc/elements/1.1/"
   xmlns:cc="http://creativecommons.org/ns#"
   xmlns:rdf="http://www.w3.org/1999/02/22-rdf-syntax-ns#"
   xmlns:svg="http://www.w3.org/2000/svg"
   xmlns="http://www.w3.org/2000/svg"
   xmlns:sodipodi="http://sodipodi.sourceforge.net/DTD/sodipodi-0.dtd"
   xmlns:inkscape="http://www.inkscape.org/namespaces/inkscape"
   id="Capa_1"
   data-name="Capa 1"
   viewBox="0 0 131.28 99.23"
   version="1.1"
   sodipodi:docname="vault.svg"
   inkscape:version="0.92.5 (2060ec1f9f, 2020-04-08)">
  <metadata
     id="metadata7768">
    <rdf:RDF>
      <cc:Work
         rdf:about="">
        <dc:format>image/svg+xml</dc:format>
        <dc:type
           rdf:resource="http://purl.org/dc/dcmitype/StillImage" />
      </cc:Work>
    </rdf:RDF>
  </metadata>
  <sodipodi:namedview
     pagecolor="#ffffff"
     bordercolor="#666666"
     borderopacity="1"
     objecttolerance="10"
     gridtolerance="10"
     guidetolerance="10"
     inkscape:pageopacity="0"
     inkscape:pageshadow="2"
     inkscape:window-width="1920"
     inkscape:window-height="1016"
     id="namedview7766"
     showgrid="false"
     inkscape:zoom="9.5132517"
     inkscape:cx="65.639999"
     inkscape:cy="58.024324"
     inkscape:window-x="0"
     inkscape:window-y="27"
     inkscape:window-maximized="1"
     inkscape:current-layer="Capa_1" />
  <defs
     id="defs7709">
    <style
       id="style7707">.cls-1{fill:#a6d100;}.cls-2{fill:#6cab00;}.cls-3{fill:#5f7993;}.cls-4{fill:#3a5368;}.cls-5{fill:#17b5c8;}.cls-6{fill:#02809d;}</style>
  </defs>
  <rect
     style="opacity:1;fill:#ffffff;fill-opacity:1;fill-rule:nonzero;stroke:none;stroke-width:3.22349238;stroke-linecap:round;stroke-linejoin:round;stroke-miterlimit:4;stroke-dasharray:none;stroke-dashoffset:0;stroke-opacity:1"
     id="rect6115-7"
     width="17.435787"
     height="10.179224"
     x="11.79"
     y="86.660004" />
  <rect
     style="opacity:1;fill:#ffffff;fill-opacity:1;fill-rule:nonzero;stroke:none;stroke-width:3.22349238;stroke-linecap:round;stroke-linejoin:round;stroke-miterlimit:4;stroke-dasharray:none;stroke-dashoffset:0;stroke-opacity:1"
     id="rect6115-2"
     width="17.435787"
     height="10.179224"
     x="102.43"
     y="86.660004" />
  <rect
     style="opacity:1;fill:#ffffff;fill-opacity:1;fill-rule:nonzero;stroke:none;stroke-width:3.22349238;stroke-linecap:round;stroke-linejoin:round;stroke-miterlimit:4;stroke-dasharray:none;stroke-dashoffset:0;stroke-opacity:1"
     id="rect6115-1"
     width="17.435787"
     height="10.179224"
     x="103.65167"
     y="19.507656" />
  <rect
     style="opacity:1;fill:#ffffff;fill-opacity:1;fill-rule:nonzero;stroke:none;stroke-width:3.22349238;stroke-linecap:round;stroke-linejoin:round;stroke-miterlimit:4;stroke-dasharray:none;stroke-dashoffset:0;stroke-opacity:1"
     id="rect6115"
     width="17.435787"
     height="10.179224"
     x="103.54656"
     y="56.771465" />
  <path
     class="cls-1"
     d="M59.1,26.71V21.6a.25.25,0,0,0-.26-.25h-4.1a.26.26,0,0,0-.26.25v5.11A15.55,15.55,0,0,1,59.1,26.71Z"
     id="path7711"
     style="fill:#a6d100" />
  <path
     class="cls-1"
     d="M46.68,30l-3.62-3.62a.12.12,0,0,0-.05-.05.21.21,0,0,0-.31.05l-2.91,2.9h0a.25.25,0,0,0,0,.36l3.62,3.62A17.11,17.11,0,0,1,46.68,30Z"
     id="path7713"
     style="fill:#a6d100" />
  <path
     class="cls-1"
     d="M35.06,41a.26.26,0,0,0-.25.26v4.1a.26.26,0,0,0,.25.26h5.12a14.91,14.91,0,0,1,0-4.62Z"
     id="path7715"
     style="fill:#a6d100" />
  <path
     class="cls-1"
     d="M43.42,53.44l-3.63,3.63a.23.23,0,0,0-.07.18.26.26,0,0,0,.07.18l2.91,2.9h0a.25.25,0,0,0,.36,0l3.62-3.62A17.11,17.11,0,0,1,43.42,53.44Z"
     id="path7717"
     style="fill:#a6d100" />
  <path
     class="cls-1"
     d="M54.49,60v5.11a.26.26,0,0,0,.25.26h4.11a.26.26,0,0,0,.25-.26V60A15.49,15.49,0,0,1,54.49,60Z"
     id="path7719"
     style="fill:#a6d100" />
  <path
     class="cls-1"
     d="M66.9,56.71l3.63,3.62a.25.25,0,0,0,.36,0l2.9-2.91a.23.23,0,0,0,.08-.18.27.27,0,0,0-.08-.18l-3.62-3.62A17.17,17.17,0,0,1,66.9,56.71Z"
     id="path7721"
     style="fill:#a6d100" />
  <path
     class="cls-1"
     d="M78.52,41H73.41a14.91,14.91,0,0,1,0,4.62h5.12a.26.26,0,0,0,.25-.26v-4.1A.26.26,0,0,0,78.52,41Z"
     id="path7723"
     style="fill:#a6d100" />
  <path
     class="cls-1"
     d="M70.53,26.34a.25.25,0,0,1,.36,0h0l2.9,2.9a.25.25,0,0,1,0,.36l-3.62,3.62A16.78,16.78,0,0,0,66.91,30Z"
     id="path7725"
     style="fill:#a6d100" />
  <rect
     class="cls-2"
     x="53.07"
     y="20.25"
     width="2.91"
     height="7.7"
     id="rect7727"
     style="fill:#89ab00" />
  <polygon
     class="cls-2"
     points="45.16 32.46 39.72 27.34 38.77 29.9 42.61 34.2 45.16 32.46"
     id="polygon7729"
     style="fill:#89ab00" />
  <rect
     class="cls-2"
     x="34.24"
     y="43.81"
     width="7.09"
     height="2.46"
     id="rect7731"
     style="fill:#89ab00" />
  <polygon
     class="cls-2"
     points="40.75 59.95 45.98 54.55 47.88 56.92 43.59 62.63 40.75 59.95"
     id="polygon7733"
     style="fill:#89ab00" />
  <rect
     class="cls-2"
     x="57.37"
     y="58.71"
     width="2.37"
     height="8.16"
     id="rect7735"
     style="fill:#89ab00" />
  <polygon
     class="cls-2"
     points="68.42 53.44 73.86 58.71 75.16 56.92 70 52.45 68.42 53.44"
     id="polygon7737"
     style="fill:#89ab00" />
  <rect
     class="cls-2"
     x="72.6"
     y="39.78"
     width="6.98"
     height="3"
     id="rect7739"
     style="fill:#89ab00" />
  <polygon
     class="cls-2"
     points="67.72 31.88 72.6 26.71 70.86 24.89 65.31 30.13 67.72 31.88"
     id="polygon7741"
     style="fill:#89ab00" />
  <path
     class="cls-1"
     d="M68.39,37h0a13.32,13.32,0,0,0-5.27-5.28h0a13.21,13.21,0,0,0-12.58,0l-.13.08a13.25,13.25,0,0,0-5.14,5.15l-.07.11a13.6,13.6,0,0,0-1,2.53s0,0,0,.05a13,13,0,0,0,0,7.44h0a13.69,13.69,0,0,0,1,2.54.21.21,0,0,1,0,.06,13.31,13.31,0,0,0,5.24,5.23l0,0a12.93,12.93,0,0,0,6.29,1.6h0A13.19,13.19,0,0,0,68.39,37ZM56.79,49.87a6.54,6.54,0,1,1,6.54-6.54A6.54,6.54,0,0,1,56.79,49.87Z"
     id="path7743"
     style="fill:#a6d100" />
  <path
     class="cls-2"
     d="M53.84,29.73s-7.74,7.61-7.16,14.7c.53,6.5,4.8,9.32,7.16,12.1,0,0-11.7-1.36-11.93-12.72S51.94,28.75,53.84,29.73Z"
     id="path7745"
     style="fill:#89ab00" />
  <path
     class="cls-3"
     d="M9.53,10.25V77.38H121.09V10.25ZM82.36,45.39a3.84,3.84,0,0,1-3.84,3.84h-6c-.13.36-.27.7-.43,1l4.26,4.26a3.85,3.85,0,0,1,0,5.44l-2.9,2.9a3.86,3.86,0,0,1-5.43,0l-4.26-4.26c-.35.15-.69.29-1,.42v6a3.86,3.86,0,0,1-3.85,3.84h-4.1a3.86,3.86,0,0,1-3.85-3.84V59l-1-.43-4.27,4.26a3.84,3.84,0,0,1-5.43,0L37.26,60a3.85,3.85,0,0,1,0-5.44l4.26-4.26c-.16-.34-.3-.68-.43-1h-6a3.84,3.84,0,0,1-3.84-3.84v-4.1a3.84,3.84,0,0,1,3.84-3.85h6c.14-.35.28-.7.43-1l-4.26-4.26a3.84,3.84,0,0,1,0-5.43l2.9-2.9a3.85,3.85,0,0,1,5.44,0l4.26,4.25,1-.43v-6a3.84,3.84,0,0,1,3.84-3.84h4.11a3.84,3.84,0,0,1,3.84,3.84v6c.35.13.7.27,1,.43L68,23.8a3.85,3.85,0,0,1,5.44,0l2.9,2.9a3.85,3.85,0,0,1,0,5.44l-4.26,4.25c.16.34.29.69.43,1h6a3.85,3.85,0,0,1,3.84,3.86ZM119.48,28h-14.1V21.82h14.1Zm0,36.88h-14.1V58.71h14.1Z"
     id="path7747"
     style="fill:#5f7993" />
  <path
     class="cls-4"
     d="M25.4,10.37s-5.08.71-5.08,15.87V65.32s-.57,10.22,10.22,10.22H11.26V10.25Z"
     id="path7749"
     style="fill:#405162" />
  <path
     class="cls-5"
     d="M125.38,3.59H5.9A2.3,2.3,0,0,0,3.59,5.9V80.76A2.31,2.31,0,0,0,5.9,83.07H125.38a2.32,2.32,0,0,0,2.31-2.31V5.9A2.31,2.31,0,0,0,125.38,3.59Zm-2.31,73.07a1.79,1.79,0,0,1-1.79,1.79H10a1.8,1.8,0,0,1-1.8-1.79V10A1.81,1.81,0,0,1,10,8.2H121.28a1.8,1.8,0,0,1,1.79,1.8Z"
     id="path7751"
     style="fill:#17b5c8" />
  <path
     class="cls-6"
     d="M10.29,2.35S6.41,2.7,6.41,12.81V79.08s.59,4.84,4.85,4.84h-9V4.32L7.5,1.65Z"
     id="path7753"
     style="fill:#11778e" />
  <path
     d="M125.38,0H5.9A5.9,5.9,0,0,0,0,5.9V80.76a5.91,5.91,0,0,0,5.9,5.9H8.2v6.68a5.91,5.91,0,0,0,5.9,5.89H26.54a5.89,5.89,0,0,0,5.89-5.89V86.66H98.84v6.68a5.9,5.9,0,0,0,5.9,5.89h12.43a5.9,5.9,0,0,0,5.9-5.89V86.66h2.31a5.92,5.92,0,0,0,5.9-5.9V5.9A5.91,5.91,0,0,0,125.38,0ZM28.84,93.34a2.32,2.32,0,0,1-2.3,2.31H14.1a2.33,2.33,0,0,1-2.31-2.31V86.66H28.84Zm90.64,0a2.32,2.32,0,0,1-2.31,2.31H104.74a2.32,2.32,0,0,1-2.31-2.31V86.66h17Zm8.21-12.58a2.32,2.32,0,0,1-2.31,2.31H5.9a2.31,2.31,0,0,1-2.31-2.31V5.9A2.3,2.3,0,0,1,5.9,3.59H125.38a2.31,2.31,0,0,1,2.31,2.31Z"
     id="path7755" />
  <path
     d="M121.28,8.2H10A1.81,1.81,0,0,0,8.2,10V76.66A1.8,1.8,0,0,0,10,78.45H121.28a1.79,1.79,0,0,0,1.79-1.79V10A1.8,1.8,0,0,0,121.28,8.2ZM119.48,28h-14.1V21.82h14.1ZM11.79,74.86V11.79H119.48v6.44H103.59a1.8,1.8,0,0,0-1.8,1.8v9.71a1.8,1.8,0,0,0,1.8,1.8h15.89V55.12H103.59a1.79,1.79,0,0,0-1.8,1.79v9.72a1.79,1.79,0,0,0,1.8,1.79h15.89v6.44Zm107.69-10h-14.1V58.71h14.1Z"
     id="path7757" />
  <path
     d="M56.79,36.79a6.54,6.54,0,1,0,6.54,6.54A6.54,6.54,0,0,0,56.79,36.79Zm0,9.49a3,3,0,1,1,3-3h0A3,3,0,0,1,56.79,46.28Z"
     id="path7759" />
  <path
     d="M78.52,37.43h-6c-.13-.35-.27-.7-.43-1l4.26-4.25a3.85,3.85,0,0,0,0-5.44l-2.9-2.9a3.85,3.85,0,0,0-5.44,0l-4.26,4.26c-.34-.16-.69-.3-1-.43v-6a3.84,3.84,0,0,0-3.84-3.84H54.74A3.84,3.84,0,0,0,50.9,21.6v6l-1,.43L45.6,23.8a3.85,3.85,0,0,0-5.44,0l-2.9,2.9a3.84,3.84,0,0,0,0,5.43l4.26,4.26c-.15.34-.29.69-.43,1h-6a3.84,3.84,0,0,0-3.84,3.85v4.1a3.84,3.84,0,0,0,3.84,3.84h6c.13.36.27.7.43,1l-4.26,4.26a3.85,3.85,0,0,0,0,5.44l2.9,2.9a3.84,3.84,0,0,0,5.43,0l4.27-4.26,1,.43v6a3.86,3.86,0,0,0,3.85,3.84h4.1a3.86,3.86,0,0,0,3.85-3.84V59c.35-.13.69-.27,1-.42L68,62.87a3.86,3.86,0,0,0,5.43,0l2.9-2.9a3.85,3.85,0,0,0,0-5.44l-4.26-4.26c.16-.34.3-.68.43-1h6a3.84,3.84,0,0,0,3.84-3.84v-4.1A3.85,3.85,0,0,0,78.52,37.43ZM56.79,56.53a12.93,12.93,0,0,1-6.29-1.6l0,0a13.31,13.31,0,0,1-5.24-5.23.21.21,0,0,0,0-.06,13.69,13.69,0,0,1-1-2.54h0a13,13,0,0,1,0-7.44s0,0,0-.05a13.6,13.6,0,0,1,1-2.53l.07-.11a13.25,13.25,0,0,1,5.14-5.15l.13-.08a13.21,13.21,0,0,1,12.58,0h0A13.32,13.32,0,0,1,68.39,37h0a13.19,13.19,0,0,1-11.6,19.5ZM70.53,26.34a.25.25,0,0,1,.36,0h0l2.9,2.9a.25.25,0,0,1,0,.36l-3.62,3.62A16.78,16.78,0,0,0,66.91,30ZM54.48,21.6a.26.26,0,0,1,.26-.25h4.1a.25.25,0,0,1,.26.25v5.11a15.55,15.55,0,0,0-4.62,0Zm-14.69,8a.25.25,0,0,1,0-.36h0l2.91-2.9a.21.21,0,0,1,.31-.05s0,0,.05.05L46.68,30a17.11,17.11,0,0,0-3.27,3.26Zm-4.73,16a.26.26,0,0,1-.25-.26v-4.1a.26.26,0,0,1,.25-.26h5.12a14.91,14.91,0,0,0,0,4.62Zm8,14.69a.25.25,0,0,1-.36,0h0l-2.91-2.9a.26.26,0,0,1-.07-.18.23.23,0,0,1,.07-.18l3.63-3.63a17.11,17.11,0,0,0,3.26,3.27Zm16,4.73a.26.26,0,0,1-.25.26H54.74a.26.26,0,0,1-.25-.26V60a15.49,15.49,0,0,0,4.61,0Zm14.69-8a.27.27,0,0,1,.08.18.23.23,0,0,1-.08.18l-2.9,2.91a.25.25,0,0,1-.36,0L66.9,56.71a17.17,17.17,0,0,0,3.27-3.27Zm5-11.68a.26.26,0,0,1-.25.26H73.41a14.91,14.91,0,0,0,0-4.62h5.11a.26.26,0,0,1,.26.26Z"
     id="path7761" />
  <path
     d="M56.79,36.79a6.54,6.54,0,1,0,6.54,6.54A6.54,6.54,0,0,0,56.79,36.79Zm0,9.49a3,3,0,1,1,3-3h0A3,3,0,0,1,56.79,46.28Z"
     id="path7763" />
</svg>
