<svg id="Capa_1" data-name="Capa 1" xmlns="http://www.w3.org/2000/svg" viewBox="0 0 124.42 217.43"><defs><style>.cls-1{fill:#17b5c8;}.cls-2{fill:#02809d;}.cls-3{fill:#5f7993;}.cls-4{fill:#3a5368;}.cls-5{fill:#a6d100;}.cls-6{fill:#6cab00;}</style></defs><polygon class="cls-1" points="3.02 2.67 3.02 35.47 57.41 35.47 57.41 2.77 3.02 2.67"/><path class="cls-2" d="M11.31,2.79A12.37,12.37,0,0,0,9,10.46V30s.45,5.28,4,6.06H2.89V2.67Z"/><path d="M55,38.81H4.83A4.84,4.84,0,0,1,0,34V4.83A4.84,4.84,0,0,1,4.83,0H55a4.84,4.84,0,0,1,4.83,4.83V34A4.84,4.84,0,0,1,55,38.81ZM4.83,4A.84.84,0,0,0,4,4.83V34a.84.84,0,0,0,.83.84H55a.84.84,0,0,0,.83-.84V4.83A.83.83,0,0,0,55,4Z"/><polygon class="cls-3" points="88.64 64.79 88.64 97.58 121.98 97.58 121.98 64.89 88.64 64.79"/><path class="cls-4" d="M96.92,64.91a12.33,12.33,0,0,0-2.35,7.67V92.09s.45,5.28,4,6.06H88.5V64.79Z"/><path d="M119.58,100.92H90.45a4.84,4.84,0,0,1-4.84-4.83V67a4.84,4.84,0,0,1,4.84-4.83h29.13A4.84,4.84,0,0,1,124.42,67V96.09A4.84,4.84,0,0,1,119.58,100.92ZM90.45,66.12a.84.84,0,0,0-.84.83V96.09a.84.84,0,0,0,.84.83h29.13a.84.84,0,0,0,.84-.83V67a.84.84,0,0,0-.84-.83Z"/><polygon class="cls-5" points="6.51 82.23 29.7 105.42 53.28 81.84 30.16 58.73 6.51 82.23"/><path class="cls-6" d="M12.45,76.46a12.34,12.34,0,0,0,3.76,7.09L30,97.34s4.05,3.42,7.13,1.43L30,105.92,6.41,82.33Z"/><path d="M29.92,107.92a4.83,4.83,0,0,1-3.42-1.41L5.9,85.9a4.84,4.84,0,0,1,0-6.83L26.5,58.46a4.85,4.85,0,0,1,6.84,0l20.6,20.61a4.82,4.82,0,0,1,0,6.83l-20.6,20.61A4.81,4.81,0,0,1,29.92,107.92Zm0-46.87a.83.83,0,0,0-.59.24L8.73,81.89a.84.84,0,0,0,0,1.19l20.6,20.6a.85.85,0,0,0,1.18,0l20.6-20.61a.8.8,0,0,0,.25-.58.84.84,0,0,0-.25-.6l-20.6-20.6A.83.83,0,0,0,29.92,61.05Z"/><rect x="27.61" y="36.03" width="4" height="22.7"/><rect x="27.61" y="105.42" width="4" height="22.7"/><rect x="27.61" y="160.68" width="4" height="22.7"/><polygon class="cls-1" points="3.02 181.3 3.02 214.09 57.41 214.09 57.41 181.4 3.02 181.3"/><path class="cls-2" d="M11.31,181.42A12.37,12.37,0,0,0,9,189.09V208.6s.45,5.28,4,6.06H2.89V181.3Z"/><path d="M55,217.43H4.83A4.84,4.84,0,0,1,0,212.6V183.46a4.84,4.84,0,0,1,4.83-4.83H55a4.84,4.84,0,0,1,4.83,4.83V212.6A4.84,4.84,0,0,1,55,217.43ZM4.83,182.63a.83.83,0,0,0-.83.83V212.6a.83.83,0,0,0,.83.83H55a.83.83,0,0,0,.83-.83V183.46a.83.83,0,0,0-.83-.83Z"/><circle class="cls-5" cx="29.61" cy="143.28" r="17.25"/><path class="cls-6" d="M26.9,127.13s-9.33,7.84-8.76,16.15,5.17,12.45,8.76,15.59l-7.62-1.59L11.42,146s-.47-11.12,4.7-13.69S20.62,126.57,26.9,127.13Z"/><path d="M29.61,162.68A19.41,19.41,0,1,1,49,143.28,19.43,19.43,0,0,1,29.61,162.68Zm0-34.81A15.41,15.41,0,1,0,45,143.28,15.42,15.42,0,0,0,29.61,127.87Z"/><rect x="53.28" y="79.84" width="34.33" height="4"/></svg>