<svg id="Capa_1" data-name="Capa 1" xmlns="http://www.w3.org/2000/svg" viewBox="0 0 166.54 236.51"><defs><style>.cls-1{fill:#17b5c8;}.cls-2{fill:#02809d;}.cls-3{fill:#5f7993;}.cls-4{fill:#3a5368;}.cls-5{fill:#a6d100;}.cls-6{fill:#6cab00;}</style></defs><polygon class="cls-1" points="3.02 2.67 3.02 35.47 57.41 35.47 57.41 2.77 3.02 2.67"/><path class="cls-2" d="M11.31,2.79A12.37,12.37,0,0,0,9,10.46V30s.45,5.28,4,6.06H2.89V2.67Z"/><path d="M55,38.81H4.84A4.84,4.84,0,0,1,0,34V4.83A4.84,4.84,0,0,1,4.84,0H55a4.84,4.84,0,0,1,4.83,4.83V34A4.84,4.84,0,0,1,55,38.81ZM4.84,4A.84.84,0,0,0,4,4.83V34a.85.85,0,0,0,.84.84H55a.84.84,0,0,0,.83-.84V4.83A.83.83,0,0,0,55,4Z"/><polygon class="cls-3" points="88.64 64.79 88.64 97.58 121.98 97.58 121.98 64.89 88.64 64.79"/><path class="cls-4" d="M96.92,64.91a12.33,12.33,0,0,0-2.35,7.67V92.09s.45,5.28,4,6.06H88.5V64.79Z"/><path d="M119.58,100.92H90.45a4.84,4.84,0,0,1-4.84-4.83V67a4.84,4.84,0,0,1,4.84-4.83h29.13A4.84,4.84,0,0,1,124.42,67V96.09A4.84,4.84,0,0,1,119.58,100.92ZM90.45,66.12a.84.84,0,0,0-.84.83V96.09a.84.84,0,0,0,.84.83h29.13a.84.84,0,0,0,.84-.83V67a.84.84,0,0,0-.84-.83Z"/><polygon class="cls-5" points="6.51 82.23 29.7 105.42 53.28 81.84 30.16 58.73 6.51 82.23"/><path class="cls-6" d="M12.45,76.46a12.34,12.34,0,0,0,3.76,7.09L30,97.34s4.05,3.42,7.13,1.43L30,105.92,6.41,82.33Z"/><path d="M29.92,107.92a4.83,4.83,0,0,1-3.42-1.41L5.9,85.9a4.84,4.84,0,0,1,0-6.83L26.5,58.46a4.85,4.85,0,0,1,6.84,0l20.6,20.61a4.82,4.82,0,0,1,0,6.83l-20.6,20.61A4.81,4.81,0,0,1,29.92,107.92Zm0-46.87a.83.83,0,0,0-.59.24L8.73,81.89a.84.84,0,0,0,0,1.19l20.6,20.6a.85.85,0,0,0,1.18,0l20.6-20.61a.8.8,0,0,0,.25-.58.84.84,0,0,0-.25-.6l-20.6-20.6A.83.83,0,0,0,29.92,61.05Z"/><rect x="27.61" y="36.03" width="4" height="22.7"/><rect x="27.61" y="105.42" width="4" height="22.7"/><rect x="27.61" y="160.68" width="4" height="22.7"/><path class="cls-1" d="M9,208.6a9.26,9.26,0,0,0,1.94,4.83H47.15a10.39,10.39,0,0,1,1.92-3.32,10.68,10.68,0,0,1-9.84-10.63v-8.17a10.63,10.63,0,0,1,4.5-8.68H10.52A13.47,13.47,0,0,0,9,189.09Z"/><path class="cls-2" d="M4,183.46V212.6a.83.83,0,0,0,.83.83H10.9A9.26,9.26,0,0,1,9,208.6V189.09a13.47,13.47,0,0,1,1.56-6.46H4.83A.83.83,0,0,0,4,183.46Z"/><path d="M11.69,214.09a3.73,3.73,0,0,0,1.3.57H2.89V181.3H3l43,.08a10.68,10.68,0,0,1,3.05-.7,10.48,10.48,0,0,1-1.37-2.05H4.83A4.84,4.84,0,0,0,0,183.46V212.6a4.84,4.84,0,0,0,4.83,4.83H46.52a10.83,10.83,0,0,1,.42-3.34Z"/><path d="M10.9,213.43a4.54,4.54,0,0,0,.79.66H46.94q.09-.33.21-.66Z"/><path d="M3,181.3l8.29.12a7.86,7.86,0,0,0-.79,1.21H43.73A10.3,10.3,0,0,1,46,181.38L3,181.3Z"/><path d="M3,181.3H2.89v33.36H13a3.73,3.73,0,0,1-1.3-.57H3Z"/><path d="M4.83,213.43A.83.83,0,0,1,4,212.6V183.46a.83.83,0,0,1,.83-.83h5.69a7.86,7.86,0,0,1,.79-1.21L3,181.3v32.79h8.67a4.54,4.54,0,0,1-.79-.66Z"/><circle class="cls-5" cx="29.61" cy="143.28" r="17.25"/><path class="cls-6" d="M26.9,127.13s-9.33,7.84-8.76,16.15,5.17,12.45,8.76,15.59l-7.62-1.59L11.42,146s-.47-11.12,4.7-13.69S20.62,126.57,26.9,127.13Z"/><path d="M29.61,162.68A19.41,19.41,0,1,1,49,143.28,19.43,19.43,0,0,1,29.61,162.68Zm0-34.81A15.41,15.41,0,1,0,45,143.28,15.42,15.42,0,0,0,29.61,127.87Z"/><rect x="53.28" y="79.84" width="34.33" height="4"/><path class="cls-1" d="M82.64,155.38,67.29,137.93l12.83-12,8.82,6.52,12.4-3.79V115.44h19.72v12.4l9.29,4.63,12.4-7.66,11.35,14.8-6.31,9.46,3.79,8.56,11.14,1.3,1.47,18.72-12.4,1.84s-4.63,5.73-4.63,6.36,7.15,14.92,7.15,14.92l-12.19,11.77-9.67-7.77-8-7.15-.21-8.2,6.52-6.93,4.83-11.35-.42-12.21L121.06,145.5l-16.56-1.26-9.88,5.67-6.73,7.36Z"/><path class="cls-2" d="M121.06,129.1s45.48,33.63,7.62,72.29l11.88,9.9,13.75-10.52-7.57-12.24,5-9,11.14-1.42,1.26-18.28-12-.86-6.43-13.24,7.69-5-1.26-5-10.72-10.81-6.94,8.71Z"/><path class="cls-5" d="M123.24,202.4v-13l-8.52-3.15-1.78-6.1,3.21-6.3-11-10-5.25,4.08-5.68-2.64-2.71-7.66H78.05l-1.68,7.66-6.73,2.64-5.89-4.08-6.3,4.08-3.78,6.94L57,181.39,56,187.06l-2.52,1.47-6.52.84-1,11.35,6.72,1.47,3.58,7.2-3.58,6.89L65.76,227.2l3.88-4.83,6.09,3.15,3.58,8.41H90.66l2.83-8.62,5.1-2.52,8.67,3.78,8.89-10.08-4.9-7.1,3.47-5.94ZM84.6,211.29a15.9,15.9,0,1,1,15.89-15.9A15.9,15.9,0,0,1,84.6,211.29Z"/><path class="cls-6" d="M73.63,222.88s22.26,4.82,32.08-13.59c13.45-25.23-8.78-40.67-8.78-40.67l9.67-4.77,9.55,10-4.09,8.88,5,5,7.23,5.12-2,10-7.64,1.47-2.66,6.09,4.09,6.05-8.29,11s-7.48-3.9-8.38-4.29-6,2.13-6,2.13l-2,7.62L81,234.61,76.54,230Z"/><path d="M80.51,236.51a6.41,6.41,0,0,1-6.4-6.41v-2.24A1.73,1.73,0,0,0,73,226.23c-.67-.27-1.31-.54-1.95-.83a1.84,1.84,0,0,0-.73-.16,1.73,1.73,0,0,0-1.23.51l-1.6,1.6a6.42,6.42,0,0,1-9.06,0l-5.77-5.77a6.43,6.43,0,0,1,0-9.05l1.6-1.6a1.75,1.75,0,0,0,.36-2c-.3-.64-.57-1.29-.82-1.95a1.73,1.73,0,0,0-1.62-1.13H49.89a6.42,6.42,0,0,1-6.41-6.41v-8.17a6.41,6.41,0,0,1,6.41-6.4h2.25a1.72,1.72,0,0,0,1.63-1.14c.26-.66.53-1.3.82-1.94a1.72,1.72,0,0,0-.35-2l-1.6-1.6a6.45,6.45,0,0,1,0-9.06l5.77-5.79a6.41,6.41,0,0,1,9,0l1.61,1.6a1.72,1.72,0,0,0,1.23.51,1.69,1.69,0,0,0,.73-.16c.64-.29,1.28-.56,1.94-.81a1.74,1.74,0,0,0,1.14-1.62v-2.25a6.41,6.41,0,0,1,6.4-6.41h8.17a6.42,6.42,0,0,1,6.41,6.41v2.25a1.71,1.71,0,0,0,1.14,1.62c.66.27,1.31.54,1.94.83a1.72,1.72,0,0,0,.73.16,1.7,1.7,0,0,0,1.23-.51l1.61-1.6a6.41,6.41,0,0,1,9.05,0l5.77,5.77a6.43,6.43,0,0,1,0,9l-1.6,1.61a1.72,1.72,0,0,0-.35,2c.29.64.56,1.28.81,1.94a1.74,1.74,0,0,0,1.62,1.14h2.25a6.41,6.41,0,0,1,6.41,6.4v8.17a6.42,6.42,0,0,1-6.41,6.41h-2.24a1.73,1.73,0,0,0-1.63,1.14c-.27.66-.54,1.31-.83,1.94a1.76,1.76,0,0,0,.35,2l1.6,1.61a6.42,6.42,0,0,1,0,9.05l-5.77,5.77a6.42,6.42,0,0,1-9,0l-1.6-1.6a1.73,1.73,0,0,0-1.23-.51,1.66,1.66,0,0,0-.73.16c-.64.29-1.29.56-1.94.81a1.73,1.73,0,0,0-1.14,1.63v2.24a6.42,6.42,0,0,1-6.41,6.41ZM70.3,220.61a6.38,6.38,0,0,1,2.65.57c.55.25,1.11.48,1.68.7a6.46,6.46,0,0,1,4.13,6v2.24a1.75,1.75,0,0,0,1.75,1.76h8.17a1.76,1.76,0,0,0,1.76-1.76v-2.24a6.46,6.46,0,0,1,4.13-6c.56-.21,1.12-.45,1.67-.7a6.41,6.41,0,0,1,7.16,1.29l1.6,1.6a1.78,1.78,0,0,0,1.25.51,1.74,1.74,0,0,0,1.24-.51l5.77-5.77a1.76,1.76,0,0,0,0-2.49l-1.6-1.6a6.46,6.46,0,0,1-1.28-7.17c.25-.55.48-1.1.7-1.67a6.46,6.46,0,0,1,6-4.13h2.24a1.76,1.76,0,0,0,1.76-1.76v-8.17a1.75,1.75,0,0,0-1.76-1.75h-2.24a6.48,6.48,0,0,1-6-4.13c-.21-.57-.45-1.12-.7-1.67a6.46,6.46,0,0,1,1.29-7.17l1.6-1.6a1.74,1.74,0,0,0,.51-1.24,1.78,1.78,0,0,0-.51-1.25l-5.77-5.77a1.82,1.82,0,0,0-1.25-.51,1.78,1.78,0,0,0-1.24.51l-1.6,1.6a6.39,6.39,0,0,1-7.17,1.28c-.55-.25-1.11-.48-1.67-.69a6.47,6.47,0,0,1-4.13-6v-2.25a1.76,1.76,0,0,0-1.76-1.76H80.51a1.75,1.75,0,0,0-1.75,1.76v2.25a6.48,6.48,0,0,1-4.14,6c-.56.22-1.12.45-1.67.7a6.45,6.45,0,0,1-7.17-1.28l-1.6-1.6a1.74,1.74,0,0,0-2.48,0l-5.77,5.77a1.71,1.71,0,0,0-.52,1.24,1.75,1.75,0,0,0,.52,1.25l1.6,1.59a6.46,6.46,0,0,1,1.28,7.17c-.25.55-.48,1.11-.69,1.67a6.47,6.47,0,0,1-6,4.14H49.89a1.75,1.75,0,0,0-1.76,1.75v8.17a1.76,1.76,0,0,0,1.76,1.76h2.25a6.46,6.46,0,0,1,6,4.13c.22.56.45,1.12.7,1.67a6.48,6.48,0,0,1-1.28,7.17l-1.6,1.6a1.76,1.76,0,0,0,0,2.49l5.77,5.76a1.75,1.75,0,0,0,1.24.52,1.79,1.79,0,0,0,1.25-.52l1.59-1.6A6.44,6.44,0,0,1,70.3,220.61Z"/><path d="M84.63,214.07a5.85,5.85,0,0,1-.6,0l-.36,0h-.24c-.4,0-.81,0-1.21-.08a20.75,20.75,0,0,1-2.17-.42h0l-.06,0a18.67,18.67,0,0,1,0-36.15,17.71,17.71,0,0,1,2-.37c.23,0,.47-.06.7-.09.45,0,.9-.07,1.34-.08l.24,0,.38,0a18.61,18.61,0,0,1,11.11,3.7l.34.25c.26.21.52.42.77.64l.62.56.07.07c.15.14.3.27.44.42.3.31.6.64.88,1l.2.22a18.83,18.83,0,0,1,1.86,2.71l0,.1c.36.68.67,1.33.94,2,.11.29.21.57.31.86a13.15,13.15,0,0,1,.39,1.26l0,.16c.07.28.15.56.21.85.1.45.18,1,.26,1.57s.09,1,.11,1.49l0,.27c0,.19,0,.38,0,.57s0,.29,0,.34c0,.38,0,.76-.06,1.13s-.09.81-.14,1.21a21.94,21.94,0,0,1-3.12,8.5,6.92,6.92,0,0,1-1.14,1.4,24.67,24.67,0,0,1-5.29,3.82l-.06,0h0c-.31.17-.62.31-.94.46l-.24.11c-.19.09-.39.19-.6.27l-.87.32-.13,0c-.24.08-.48.17-.73.24s-.73.2-1.1.29l-.19,0c-.13,0-.27.07-.41.09-.52.11-1,.18-1.53.24l-.24,0C85.78,214,85.18,214.07,84.63,214.07Zm0-32.68a14.38,14.38,0,0,0-3.52.44,14,14,0,0,0,0,27.14c.54.13,1.09.23,1.64.31l.24,0a11.28,11.28,0,0,0,1.42.09h.42c.32,0,.65,0,1,0l.74-.09.22,0a14.69,14.69,0,0,0,3.7-1.11l.16-.08.75-.37a14,14,0,0,0,7-9.8,13.5,13.5,0,0,0,.18-1.46v-.12c0-.12,0-.24,0-.36a13.19,13.19,0,0,0,0-1.4s0-.36,0-.44a13,13,0,0,0-.26-1.64c0-.11,0-.22-.08-.33l-.07-.24c-.09-.38-.21-.75-.33-1.12l-.07-.18-.15-.42c-.2-.5-.44-1-.69-1.47l-.3-.49c-.19-.31-.39-.61-.59-.9s-.28-.38-.42-.57-.44-.52-.67-.77l-.16-.18a3.45,3.45,0,0,0-.26-.28c-.35-.35-.73-.68-1.12-1-.13-.11-.27-.2-.41-.3-.38-.29-.68-.49-1-.69l-.46-.27a13.9,13.9,0,0,0-3-1.29l-.41-.1c-.42-.11-.85-.2-1.28-.27l-.45-.06A12.18,12.18,0,0,0,84.6,181.39Z"/><path d="M141.45,214.25a6.37,6.37,0,0,1-4.53-1.88l-6.7-6.69a2.33,2.33,0,0,1,0-3.34,2.31,2.31,0,0,1,3.28,0l6.71,6.69a1.76,1.76,0,0,0,2.48,0l8.67-8.67a1.74,1.74,0,0,0,0-2.48l-4.55-4.56A6.36,6.36,0,0,1,145.6,186a38.34,38.34,0,0,0,2.07-5,6.34,6.34,0,0,1,6-4.32h6.44a1.76,1.76,0,0,0,1.76-1.76V162.73a1.76,1.76,0,0,0-1.76-1.76h-6.42a6.35,6.35,0,0,1-6-4.31,38.58,38.58,0,0,0-2.07-5,6.36,6.36,0,0,1,1.21-7.35l4.55-4.55a1.77,1.77,0,0,0,0-2.49l-8.66-8.67a1.78,1.78,0,0,0-1.25-.51,1.74,1.74,0,0,0-1.24.51l-4.56,4.56a6.37,6.37,0,0,1-4.51,1.87,6.3,6.3,0,0,1-2.83-.67,40,40,0,0,0-5-2.07,6.33,6.33,0,0,1-4.32-6v-6.42a1.76,1.76,0,0,0-1.76-1.76H105a1.76,1.76,0,0,0-1.76,1.76v6.42a6.34,6.34,0,0,1-4.31,6.05,38.52,38.52,0,0,0-5,2.06,6.37,6.37,0,0,1-2.84.67,6.29,6.29,0,0,1-4.5-1.87l-4.56-4.56a1.78,1.78,0,0,0-1.25-.51,1.74,1.74,0,0,0-1.24.51l-8.66,8.67a1.76,1.76,0,0,0,0,2.49l6.69,6.7a2.31,2.31,0,0,1,0,3.23,2.32,2.32,0,0,1-3.28.06l-6.7-6.71a6.41,6.41,0,0,1,0-9.06l8.66-8.67a6.42,6.42,0,0,1,9.06,0l4.56,4.55a1.68,1.68,0,0,0,1.22.52,1.7,1.7,0,0,0,.76-.18,42.18,42.18,0,0,1,5.57-2.31,1.72,1.72,0,0,0,1.14-1.64v-6.42a6.42,6.42,0,0,1,6.41-6.41h12.25a6.42,6.42,0,0,1,6.41,6.41v6.42a1.71,1.71,0,0,0,1.16,1.64,41.68,41.68,0,0,1,5.57,2.32,1.72,1.72,0,0,0,.75.17,1.66,1.66,0,0,0,1.22-.52l4.55-4.54a6.4,6.4,0,0,1,9.06,0l8.68,8.66a6.41,6.41,0,0,1,0,9.06l-4.55,4.56a1.72,1.72,0,0,0-.34,2,41.63,41.63,0,0,1,2.31,5.57,1.7,1.7,0,0,0,1.61,1.14h6.44a6.42,6.42,0,0,1,6.41,6.41V175a6.42,6.42,0,0,1-6.41,6.41h-6.42a1.71,1.71,0,0,0-1.63,1.15,43.17,43.17,0,0,1-2.32,5.58,1.71,1.71,0,0,0,.34,2l4.55,4.56a6.43,6.43,0,0,1,0,9.06L146,212.37A6.37,6.37,0,0,1,141.45,214.25Z"/><path d="M128.43,188.53a2.3,2.3,0,0,1-1.67-.71,2.33,2.33,0,0,1,.06-3.29l.21-.2a22.18,22.18,0,0,0-31.57-31.15,2.33,2.33,0,0,1-3.29-3.29,26.82,26.82,0,0,1,37.93,37.93,2.34,2.34,0,0,1-1.67.71Z"/></svg>