<?xml version="1.0" encoding="utf-8"?>
<!-- Generator: Adobe Illustrator 24.3.0, SVG Export Plug-In . SVG Version: 6.00 Build 0)  -->
<svg version="1.1" id="Capa_1" xmlns="http://www.w3.org/2000/svg" xmlns:xlink="http://www.w3.org/1999/xlink" x="0px" y="0px"
	 viewBox="0 0 300 200" style="enable-background:new 0 0 300 200;" xml:space="preserve">
<style type="text/css">
	.st0{fill:#5F7993;}
	.st1{fill:#17B5C8;}
	.st2{fill:#11828F;}
	.st3{fill:#405162;}
	.st4{fill:#A6D100;}
	.st5{fill:#89AB00;}
	.st6{fill:#FFFFFF;}
	.st7{fill:none;stroke:#17B5C8;stroke-width:2;stroke-miterlimit:10;}
</style>
<g>
	<g>
		<path class="st4" d="M171.8,161.1c-4.9,0-9.7-0.7-14.3-1.9v10.9h-38.2v17.3h55.9V161C174.1,161.1,172.9,161.1,171.8,161.1z"/>
		<path class="st4" d="M157.5,56.3c4.5-1.3,9.3-1.9,14.3-1.9c1.1,0,2.3,0,3.4,0.1V10.7h-55.9V28h38.2V56.3z"/>
	</g>
	<g>
		<path class="st1" d="M171.8,61.5c-25.5,0-46.2,20.7-46.2,46.2s20.7,46.2,46.2,46.2s46.2-20.7,46.2-46.2S197.3,61.5,171.8,61.5z
			 M171.8,136.3c-15.8,0-28.6-12.8-28.6-28.6s12.8-28.6,28.6-28.6s28.6,12.8,28.6,28.6S187.6,136.3,171.8,136.3z"/>
		<g>
			<path class="st2" d="M175.8,136c1.3,0.2,2.7,0.3,4,0.3c15.8,0,28.6-12.8,28.6-28.6s-12.8-28.6-28.6-28.6c-1.4,0-2.7,0.1-4,0.3
				c13.9,2,24.6,13.9,24.6,28.3S189.7,134.1,175.8,136z"/>
			<path class="st2" d="M133.6,107.7c0-24.2,18.6-44,42.2-46c-1.3-0.1-2.7-0.2-4-0.2c-25.5,0-46.2,20.7-46.2,46.2
				s20.7,46.2,46.2,46.2c1.4,0,2.7-0.1,4-0.2C152.2,151.7,133.6,131.9,133.6,107.7z"/>
		</g>
		<path class="st0" d="M248,182.8l-0.8,0.8c-3.9,3.9-10.3,3.9-14.2,0l-21.9-21.9c-1.8-1.8-1.8-4.8,0-6.6l8.4-8.4
			c1.8-1.8,4.8-1.8,6.6,0l21.9,21.9C252,172.5,252,178.8,248,182.8z"/>
		<path class="st0" d="M248,182.8l-0.8,0.8c-3.9,3.9-10.3,3.9-14.2,0l-21.9-21.9c-1.8-1.8-1.8-4.8,0-6.6l8.4-8.4
			c1.8-1.8,4.8-1.8,6.6,0l21.9,21.9C252,172.5,252,178.8,248,182.8z"/>
		<path class="st3" d="M247.9,168.4l-7.3-7.3c4,4,4,10.5,0,14.5l-0.5,0.5c-4,4-10.5,4-14.5,0l-14.4-14.4c0,0,0,0,0,0l21.7,21.7
			c4,4,10.5,4,14.5,0l0.5-0.5C251.9,178.9,251.9,172.4,247.9,168.4z"/>
		<g>
			<g>
				<path d="M171.8,155c-26.1,0-47.3-21.2-47.3-47.3s21.2-47.3,47.3-47.3S219,81.6,219,107.7S197.8,155,171.8,155z M171.8,62.5
					c-24.9,0-45.2,20.3-45.2,45.2s20.3,45.2,45.2,45.2s45.2-20.3,45.2-45.2S196.7,62.5,171.8,62.5z"/>
			</g>
			<g>
				<path d="M191.4,87.9c-0.3,0-0.5-0.1-0.7-0.3c-1.1-1-2.2-1.9-3.5-2.8c-0.5-0.3-0.6-1-0.3-1.4c0.3-0.5,1-0.6,1.4-0.3
					c1.3,0.9,2.6,1.9,3.7,3c0.4,0.4,0.4,1,0,1.4C192,87.8,191.7,87.9,191.4,87.9z"/>
			</g>
			<g>
				<path d="M193.7,90.4c-0.3,0-0.6-0.1-0.8-0.4c-0.7-0.8-1.5-1.6-2.2-2.4c-0.4-0.4-0.4-1,0-1.4c0.4-0.4,1-0.4,1.4,0
					c0.8,0.8,1.7,1.7,2.4,2.6c0.4,0.4,0.3,1.1-0.1,1.4C194.2,90.3,194,90.4,193.7,90.4z"/>
			</g>
			<g>
				<path d="M171.8,137.3c-16.3,0-29.6-13.3-29.6-29.6s13.3-29.6,29.6-29.6c3.9,0,7.6,0.7,11.1,2.2c0.5,0.2,0.8,0.8,0.6,1.3
					c-0.2,0.5-0.8,0.8-1.3,0.6c-3.3-1.3-6.8-2-10.4-2c-15.2,0-27.6,12.4-27.6,27.6s12.4,27.6,27.6,27.6c15.2,0,27.6-12.4,27.6-27.6
					c0-4.6-1.2-9.2-3.4-13.3c-0.3-0.5-0.1-1.1,0.4-1.4c0.5-0.3,1.1-0.1,1.4,0.4c2.4,4.3,3.6,9.3,3.6,14.2
					C201.4,124,188.1,137.3,171.8,137.3z"/>
			</g>
			<g>
				<path d="M240.2,187.4c-2.9,0-5.8-1.1-8-3.3l-21.7-21.7c-2.3-2.3-2.3-5.9,0-8.2l8.3-8.3c1.1-1.1,2.5-1.7,4.1-1.7
					c1.5,0,3,0.6,4.1,1.7l21.7,21.7c2.1,2.1,3.3,5,3.3,8c0,3-1.2,5.8-3.3,8l-0.5,0.5C245.9,186.3,243.1,187.4,240.2,187.4z
					 M222.9,146.4c-1,0-1.9,0.4-2.6,1.1l-8.3,8.3c-1.5,1.5-1.5,3.8,0,5.3l21.7,21.7c3.6,3.6,9.5,3.6,13.1,0l0.5-0.5c0,0,0,0,0,0
					c1.7-1.7,2.7-4.1,2.7-6.5c0-2.5-1-4.8-2.7-6.5l-21.7-21.7C224.8,146.8,223.9,146.4,222.9,146.4z"/>
			</g>
			<g>
				<path d="M212.2,155.1c-0.3,0-0.5-0.1-0.7-0.3L200.6,144c-0.2-0.2-0.3-0.5-0.3-0.8c0-0.3,0.1-0.6,0.4-0.7c2.6-2.1,4.9-4.6,7-7.3
					c0.2-0.2,0.5-0.4,0.7-0.4c0.3,0,0.6,0.1,0.8,0.3l11,11c0.2,0.2,0.3,0.5,0.3,0.7s-0.1,0.5-0.3,0.7l-7.3,7.3
					C212.7,155,212.5,155.1,212.2,155.1z M202.9,143.3l9.3,9.3l5.8-5.8l-9.4-9.4C206.9,139.5,204.9,141.5,202.9,143.3z"/>
			</g>
		</g>
	</g>
	<polygon class="st4" points="47.2,21 119.4,1.2 119.4,199.1 47.2,183.2 	"/>
	<polygon class="st4" points="47.2,21 119.4,1.2 119.4,199.1 47.2,183.2 	"/>
	<polygon class="st5" points="60.5,32 119.4,15.9 119.4,1.2 47.2,21 47.2,183.2 60.5,186.1 	"/>
	<g>
		<path d="M119.4,200.2c-0.1,0-0.1,0-0.2,0l-72.2-16c-0.5-0.1-0.8-0.5-0.8-1V21c0-0.5,0.3-0.9,0.8-1l72.2-19.8
			c0.3-0.1,0.6,0,0.9,0.2c0.3,0.2,0.4,0.5,0.4,0.8v198c0,0.3-0.1,0.6-0.4,0.8C119.8,200.1,119.6,200.2,119.4,200.2z M48.2,182.4
			l70.1,15.5V2.5L48.2,21.7V182.4z"/>
	</g>
	<g>
		<path d="M104.2,107.5h-16c-0.6,0-1-0.5-1-1s0.5-1,1-1h16c0.6,0,1,0.5,1,1S104.7,107.5,104.2,107.5z"/>
	</g>
	<g>
		<path d="M119.4,29h37.2v27.5c0.7-0.2,1.4-0.4,2-0.6V28c0-0.6-0.5-1-1-1h-37.2V11.7h53.8v42.7c0.7,0,1.4,0.1,2,0.1V10.7
			c0-0.6-0.5-1-1-1h-55.9c-0.6,0-1,0.5-1,1V28C118.3,28.5,118.8,29,119.4,29z"/>
		<path d="M174.2,161v25.3h-53.8v-15.2h37.2c0.6,0,1-0.5,1-1v-10.7c-0.7-0.2-1.4-0.4-2-0.6v10.2h-37.2c-0.6,0-1,0.5-1,1v17.3
			c0,0.6,0.5,1,1,1h55.9c0.6,0,1-0.5,1-1v-26.5C175.5,161,174.9,161,174.2,161z"/>
	</g>
</g>
</svg>
