<svg id="Capa_1" data-name="Capa 1" xmlns="http://www.w3.org/2000/svg" viewBox="0 0 126.21 136.46"><defs><style>.cls-1{fill:#a6d100;}.cls-2{fill:#6cab00;}.cls-3{fill:#5f7993;}.cls-4{fill:#3a5368;}.cls-5{fill:#17b5c8;}.cls-6{fill:#02809d;}.cls-7{fill:none;}</style></defs><path class="cls-1" d="M56.85,63.09S52.35,30,78.17,22.22l15.77-3V6.1l27.29,24.27L94.83,59.08,93.77,41.54S69.59,41.65,56.85,63.09Z"/><path class="cls-2" d="M108.06,46.26a23,23,0,0,0-21.44-12c-15.6.45-28.45,16.57-29.77,26l1,5.31s8.73-19.49,21.31-21.79,14.53.71,14.53.71l-.17,15.59Z"/><path class="cls-3" d="M64.92,64.51s4.1-5.77,6.8-7.93,14.22-1.13,14.22-1.13l2.22,1.13s0,5.13,1.06,7.93S79.94,68,79.94,68Z"/><path class="cls-3" d="M49.33,56.58a27.47,27.47,0,0,0,.44,7.93S44,68.09,43.46,68s-22.25-1.06-22.25-1.06L16,60.54l6.36-6.38L48,54.89Z"/><path d="M96.26.8a2.76,2.76,0,0,0-4.7,2V17.47c-14.9.59-22.35,6.77-23.49,7.79a41.77,41.77,0,0,0-14.51,24.3,42.79,42.79,0,0,0-.49,14h0a.69.69,0,0,0,0,.13l.58,3.36a2.76,2.76,0,0,0,5.08,1l1.76-2.93c5.39-9,12.12-14.91,20-17.67A29.14,29.14,0,0,1,91.56,45.8V61A2.75,2.75,0,0,0,96.27,63L125.41,33.7a2.76,2.76,0,0,0,0-3.9Zm.81,53.56v-11a2.75,2.75,0,0,0-2.32-2.72,33.65,33.65,0,0,0-16.08,1.62C70.74,45,63.87,50.47,58.22,58.5A40.05,40.05,0,0,1,59,50.63,35.88,35.88,0,0,1,71.62,29.48l.17-.15c.19-.18,7.2-6.5,22.5-6.39h0a2.75,2.75,0,0,0,2.76-2.76V9.39l22.49,22.37Z"/><path d="M115.08,77.2A2.75,2.75,0,0,0,112.33,80v42.72a8.28,8.28,0,0,1-8.28,8.27H13.79a8.28,8.28,0,0,1-8.28-8.27V38.6a8.28,8.28,0,0,1,8.28-8.27H32.86a2.76,2.76,0,0,0,0-5.52H13.79A13.81,13.81,0,0,0,0,38.6v84.07a13.81,13.81,0,0,0,13.79,13.79h90.26a13.81,13.81,0,0,0,13.79-13.79V80A2.75,2.75,0,0,0,115.08,77.2Z"/><path class="cls-3" d="M23.41,101.3H97.48l6.42,7.33L102,114l-6.54,1.82H23s-5.49-3.59-5.58-3.86S16,105.71,16,105.71Z"/><path class="cls-4" d="M23,108.55c0-3,2.67-5.47,6.27-6.17a10.47,10.47,0,0,0-2.05-.21c-4.6,0-8.33,2.86-8.33,6.38s3.73,6.38,8.33,6.38a11.31,11.31,0,0,0,2.05-.2C25.67,114,23,111.53,23,108.55Z"/><path class="cls-4" d="M97.69,108.55c0,3-2.67,5.48-6.28,6.18a11.51,11.51,0,0,0,2.06.2c4.6,0,8.33-2.86,8.33-6.38s-3.73-6.38-8.33-6.38a10.66,10.66,0,0,0-2.06.21C95,103.08,97.69,105.57,97.69,108.55Z"/><path class="cls-5" d="M23.41,77.29H97.48l6.42,7.33L102,90,95.44,91.8H23S17.47,88.22,17.38,88,16,81.7,16,81.7Z"/><path class="cls-6" d="M23,84.55c0-3,2.67-5.48,6.27-6.18a10.48,10.48,0,0,0-2.05-.2c-4.6,0-8.33,2.85-8.33,6.38s3.73,6.37,8.33,6.37a10.48,10.48,0,0,0,2.05-.2C25.67,90,23,87.53,23,84.55Z"/><path class="cls-6" d="M97.69,84.55c0,3-2.67,5.47-6.28,6.17a10.66,10.66,0,0,0,2.06.2c4.6,0,8.33-2.85,8.33-6.37s-3.73-6.38-8.33-6.38a10.66,10.66,0,0,0-2.06.2C95,79.07,97.69,81.57,97.69,84.55Z"/><path class="cls-4" d="M23,60.54c0-3,2.67-5.47,6.27-6.17a10.47,10.47,0,0,0-2.05-.21c-4.6,0-8.33,2.86-8.33,6.38s3.73,6.38,8.33,6.38a11.31,11.31,0,0,0,2.05-.2C25.67,66,23,63.52,23,60.54Z"/><path d="M97.63,117.52H23a9,9,0,0,1,0-17.93H97.63a9,9,0,0,1,0,17.93ZM23,104.59a4,4,0,0,0,0,7.93H97.63a4,4,0,0,0,0-7.93Z"/><path d="M97.63,93.51H23a9,9,0,0,1,0-17.93H97.63a9,9,0,0,1,0,17.93ZM23,80.58a4,4,0,0,0,0,7.93H97.63a4,4,0,0,0,0-7.93Z"/><path class="cls-7" d="M49.7,64.08a48.51,48.51,0,0,1-.37-7.5H23a4,4,0,0,0,0,7.93H49.77l0-.22Z"/><path d="M79.29,51.58a30,30,0,0,0-7.57,5H88.16v-5Z"/><path d="M94.31,67.2a6.19,6.19,0,0,1-5.09-2.69H64.92c-.51.75-1,1.53-1.49,2.34l-1.6,2.66h35.8a9,9,0,0,0,9-9,8.85,8.85,0,0,0-.41-2.69l-7.5,7.53A6.11,6.11,0,0,1,94.31,67.2Z"/><path d="M49.77,64.51H23a4,4,0,0,1,0-7.93H49.33a48.86,48.86,0,0,1,.44-5H23a9,9,0,0,0,0,17.93H51a6.17,6.17,0,0,1-.65-1.85Z"/></svg>