<?xml version="1.0" encoding="UTF-8" standalone="no"?>
<!-- Generator: Adobe Illustrator 24.3.0, SVG Export Plug-In . SVG Version: 6.00 Build 0)  -->

<svg
   xmlns:dc="http://purl.org/dc/elements/1.1/"
   xmlns:cc="http://creativecommons.org/ns#"
   xmlns:rdf="http://www.w3.org/1999/02/22-rdf-syntax-ns#"
   xmlns:svg="http://www.w3.org/2000/svg"
   xmlns="http://www.w3.org/2000/svg"
   xmlns:sodipodi="http://sodipodi.sourceforge.net/DTD/sodipodi-0.dtd"
   xmlns:inkscape="http://www.inkscape.org/namespaces/inkscape"
   version="1.1"
   id="Capa_1"
   x="0px"
   y="0px"
   viewBox="0 0 300 200"
   style="enable-background:new 0 0 300 200;"
   xml:space="preserve"
   sodipodi:docname="applications.svg"
   inkscape:version="0.92.5 (2060ec1f9f, 2020-04-08)"><metadata
   id="metadata2908"><rdf:RDF><cc:Work
       rdf:about=""><dc:format>image/svg+xml</dc:format><dc:type
         rdf:resource="http://purl.org/dc/dcmitype/StillImage" /><dc:title></dc:title></cc:Work></rdf:RDF></metadata><defs
   id="defs2906" /><sodipodi:namedview
   pagecolor="#ffffff"
   bordercolor="#666666"
   borderopacity="1"
   objecttolerance="10"
   gridtolerance="10"
   guidetolerance="10"
   inkscape:pageopacity="0"
   inkscape:pageshadow="2"
   inkscape:window-width="1920"
   inkscape:window-height="1016"
   id="namedview2904"
   showgrid="false"
   inkscape:pagecheckerboard="true"
   inkscape:zoom="4.44"
   inkscape:cx="150"
   inkscape:cy="118.01802"
   inkscape:window-x="0"
   inkscape:window-y="27"
   inkscape:window-maximized="1"
   inkscape:current-layer="Capa_1" />
<style
   type="text/css"
   id="style2831">
	.st0{fill:#5F7993;}
	.st1{fill:#17B5C8;}
	.st2{fill:#11828F;}
	.st3{fill:#405162;}
	.st4{fill:#A6D100;}
	.st5{fill:#89AB00;}
	.st6{fill:#FFFFFF;}
	.st7{fill:none;stroke:#17B5C8;stroke-width:2;stroke-miterlimit:10;}
</style>
<rect
   style="opacity:1;fill:#ffffff;fill-opacity:1;fill-rule:nonzero;stroke:none;stroke-width:2.26771665;stroke-linecap:round;stroke-linejoin:round;stroke-miterlimit:4;stroke-dasharray:none;stroke-dashoffset:0;stroke-opacity:1"
   id="rect3453"
   width="233.10811"
   height="159.009"
   x="33.333332"
   y="1.1261259"
   ry="24.028885" /><g
   id="g2901">
	<path
   class="st1"
   d="M135.4,71.1H55.6c-1.7,0-3.1-1.4-3.1-3.1v-13c0-1.7,1.4-3.1,3.1-3.1h79.9c1.7,0,3.1,1.4,3.1,3.1v13   C138.6,69.7,137.2,71.1,135.4,71.1z"
   id="path2833" />
	<path
   class="st1"
   d="M135.4,106.6H55.6c-1.7,0-3.1-1.4-3.1-3.1v-13c0-1.7,1.4-3.1,3.1-3.1h79.9c1.7,0,3.1,1.4,3.1,3.1v13   C138.6,105.2,137.2,106.6,135.4,106.6z"
   id="path2835" />
	<path
   class="st0"
   d="M240,71.1h-79.9c-1.7,0-3.1-1.4-3.1-3.1v-13c0-1.7,1.4-3.1,3.1-3.1H240c1.7,0,3.1,1.4,3.1,3.1v13   C243.2,69.7,241.8,71.1,240,71.1z"
   id="path2837" />
	<path
   class="st0"
   d="M240,106.6h-79.9c-1.7,0-3.1-1.4-3.1-3.1v-13c0-1.7,1.4-3.1,3.1-3.1H240c1.7,0,3.1,1.4,3.1,3.1v13   C243.2,105.2,241.8,106.6,240,106.6z"
   id="path2839" />
	<path
   class="st2"
   d="M128.9,51.8h-16.2c5.3,0,9.6,4.3,9.6,9.6c0,5.3-4.3,9.6-9.6,9.6h16.2c5.3,0,9.6-4.3,9.6-9.6   C138.6,56.1,134.3,51.8,128.9,51.8z"
   id="path2841" />
	<path
   class="st2"
   d="M128.9,87.3h-16.2c5.3,0,9.6,4.3,9.6,9.6c0,5.3-4.3,9.6-9.6,9.6h16.2c5.3,0,9.6-4.3,9.6-9.6   C138.6,91.6,134.3,87.3,128.9,87.3z"
   id="path2843" />
	<path
   class="st3"
   d="M233.5,51.8h-16.2c5.3,0,9.6,4.3,9.6,9.6c0,5.3-4.3,9.6-9.6,9.6h16.2c5.3,0,9.6-4.3,9.6-9.6   C243.2,56.1,238.9,51.8,233.5,51.8z"
   id="path2845" />
	<path
   class="st3"
   d="M233.5,87.3h-16.2c5.3,0,9.6,4.3,9.6,9.6c0,5.3-4.3,9.6-9.6,9.6h16.2c5.3,0,9.6-4.3,9.6-9.6   C243.2,91.6,238.9,87.3,233.5,87.3z"
   id="path2847" />
	<path
   class="st0"
   d="M224.8,199h-21.4c-8.3,0-15.9-4.8-19.4-12.3l-12.1-25.3h-40.4l-12.1,25.3c-3.5,7.5-11.1,12.3-19.4,12.3H78.7   H224.8z"
   id="path2849" />
	<path
   class="st4"
   d="M33.5,134.5v3.7c0,12,9.7,21.7,21.7,21.7h189.7c12,0,21.7-9.7,21.7-21.7v-3.7H33.5z"
   id="path2851" />
	<path
   class="st5"
   d="M233.4,134.5v3.7c0,12-9.7,21.7-21.7,21.7h33.2c12,0,21.7-9.7,21.7-21.7v-3.7H233.4z"
   id="path2853" />
	<g
   id="g2857">
		<path
   d="M266,22.3H35c-0.5,0-1-0.4-1-1c0-0.5,0.4-1,1-1h231c0.5,0,1,0.4,1,1C267,21.8,266.6,22.3,266,22.3z"
   id="path2855" />
	</g>
	<g
   id="g2861">
		<path
   d="M135.5,72H55.5c-2.3,0-4.1-1.8-4.1-4.1V54.9c0-2.3,1.8-4.1,4.1-4.1h79.9c2.3,0,4.1,1.8,4.1,4.1V68    C139.6,70.2,137.7,72,135.5,72z M55.5,52.8c-1.2,0-2.1,0.9-2.1,2.1V68c0,1.2,0.9,2.1,2.1,2.1h79.9c1.2,0,2.1-0.9,2.1-2.1V54.9    c0-1.2-0.9-2.1-2.1-2.1H55.5z"
   id="path2859" />
	</g>
	<g
   id="g2865">
		<path
   d="M135.5,107.6H55.5c-2.3,0-4.1-1.8-4.1-4.1V90.4c0-2.3,1.8-4.1,4.1-4.1h79.9c2.3,0,4.1,1.8,4.1,4.1v13.1    C139.6,105.8,137.7,107.6,135.5,107.6z M55.5,88.3c-1.2,0-2.1,0.9-2.1,2.1v13.1c0,1.2,0.9,2.1,2.1,2.1h79.9c1.2,0,2.1-0.9,2.1-2.1    V90.4c0-1.2-0.9-2.1-2.1-2.1H55.5z"
   id="path2863" />
	</g>
	<path
   class="st3"
   d="M184,186.7l-12.1-25.3h-40.4l-4.2,8.9C146.1,171.7,162,183,170,199h33.4C195.1,199,187.5,194.2,184,186.7z"
   id="path2867" />
	<g
   id="g2871">
		<path
   d="M240.1,72h-79.9c-2.3,0-4.1-1.8-4.1-4.1V54.9c0-2.3,1.8-4.1,4.1-4.1h79.9c2.3,0,4.1,1.8,4.1,4.1V68    C244.2,70.2,242.3,72,240.1,72z M160.1,52.8c-1.2,0-2.1,0.9-2.1,2.1V68c0,1.2,0.9,2.1,2.1,2.1h79.9c1.2,0,2.1-0.9,2.1-2.1V54.9    c0-1.2-0.9-2.1-2.1-2.1H160.1z"
   id="path2869" />
	</g>
	<g
   id="g2875">
		<path
   d="M240.1,107.6h-79.9c-2.3,0-4.1-1.8-4.1-4.1V90.4c0-2.3,1.8-4.1,4.1-4.1h79.9c2.3,0,4.1,1.8,4.1,4.1v13.1    C244.2,105.8,242.3,107.6,240.1,107.6z M160.1,88.3c-1.2,0-2.1,0.9-2.1,2.1v13.1c0,1.2,0.9,2.1,2.1,2.1h79.9    c1.2,0,2.1-0.9,2.1-2.1V90.4c0-1.2-0.9-2.1-2.1-2.1H160.1z"
   id="path2873" />
	</g>
	<g
   id="g2879">
		<path
   d="M224.8,200H78.7c-0.5,0-1-0.4-1-1c0-0.5,0.4-1,1-1h21.4c7.9,0,15.1-4.6,18.5-11.7l12.1-25.3c0.2-0.3,0.5-0.6,0.9-0.6h40.4    c0.4,0,0.7,0.2,0.9,0.6l12.1,25.3c3.4,7.1,10.6,11.7,18.5,11.7h21.4c0.5,0,1,0.4,1,1C225.8,199.6,225.4,200,224.8,200z M109.3,198    h84.9c-4.8-2.2-8.8-6-11.1-10.9l-11.8-24.8h-39.1l-11.8,24.8C118.1,192,114.1,195.9,109.3,198z"
   id="path2877" />
	</g>
	<g
   id="g2883">
		<path
   d="M266.5,135.5h-178c-0.5,0-1-0.4-1-1c0-0.5,0.4-1,1-1h177V22.6c0-11.4-9.3-20.7-20.7-20.7H55.1c-11.4,0-20.7,9.3-20.7,20.7    v110.9h26.3c0.5,0,1,0.4,1,1c0,0.5-0.4,1-1,1H33.5c-0.5,0-1-0.4-1-1V22.6C32.5,10.2,42.6,0,55.1,0h189.7    c12.5,0,22.6,10.2,22.6,22.6v111.9C267.5,135.1,267.1,135.5,266.5,135.5z"
   id="path2881" />
	</g>
	<g
   id="g2887">
		<path
   d="M244.9,160.9H55.1c-12.5,0-22.6-10.2-22.6-22.6v-3.7c0-0.5,0.4-1,1-1c0.5,0,1,0.4,1,1v3.7c0,11.4,9.3,20.7,20.7,20.7    h189.7c11.4,0,20.7-9.3,20.7-20.7v-3.7c0-0.5,0.4-1,1-1c0.5,0,1,0.4,1,1v3.7C267.5,150.7,257.4,160.9,244.9,160.9z"
   id="path2885" />
	</g>
	<g
   id="g2891">
		<path
   d="M67.5,62.4h-3c-0.5,0-1-0.4-1-1c0-0.5,0.4-1,1-1h3c0.5,0,1,0.4,1,1C68.5,62,68,62.4,67.5,62.4z"
   id="path2889" />
	</g>
	<g
   id="g2895">
		<path
   d="M67.5,97.9h-3c-0.5,0-1-0.4-1-1s0.4-1,1-1h3c0.5,0,1,0.4,1,1S68,97.9,67.5,97.9z"
   id="path2893" />
	</g>
	<g
   id="g2899">
		<path
   d="M82.9,97.9h-3c-0.5,0-1-0.4-1-1s0.4-1,1-1h3c0.5,0,1,0.4,1,1S83.5,97.9,82.9,97.9z"
   id="path2897" />
	</g>
</g>
</svg>