<?xml version="1.0" encoding="utf-8"?>
<!-- Generator: Adobe Illustrator 24.3.0, SVG Export Plug-In . SVG Version: 6.00 Build 0)  -->
<svg version="1.1" id="Capa_1" xmlns="http://www.w3.org/2000/svg" xmlns:xlink="http://www.w3.org/1999/xlink" x="0px" y="0px"
	 viewBox="0 0 300 200" style="enable-background:new 0 0 300 200;" xml:space="preserve">
<style type="text/css">
	.st0{fill:#5F7993;}
	.st1{fill:#17B5C8;}
	.st2{fill:#11828F;}
	.st3{fill:#405162;}
	.st4{fill:#A6D100;}
	.st5{fill:#89AB00;}
	.st6{fill:#FFFFFF;}
	.st7{fill:none;stroke:#17B5C8;stroke-width:2;stroke-miterlimit:10;}
</style>
<g>
	<path class="st4" d="M151.4,62.5c5.2-3.5,11.2-6.1,17.5-7.5l-24.6-24.6v20.1C144.3,55.6,147.2,60.1,151.4,62.5z"/>
	<g>
		<path class="st1" d="M170,54.7c3.2-0.6,6.6-1,10-1c8.9,0,17.2,2.3,24.5,6.2V33.1L170.8,1H84c-7.8,0-14.2,6.4-14.2,14.2v15.2h74.5
			L170,54.7z"/>
		<path class="st1" d="M180.1,157.1c-0.6,0-1.3,0-1.9,0v12.6h12.2c7.8,0,14.2-6.4,14.2-14.2v-4.6
			C197.1,154.9,188.7,157.1,180.1,157.1z"/>
	</g>
	<g>
		<path class="st2" d="M192.5,55.3c4.3,1.1,8.3,2.6,12.1,4.7V33.1L170.8,1h-3.3l25,23.7V55.3z"/>
		<path class="st2" d="M189.2,156.2c-2.6,3.1-6.5,5-10.8,5h-0.1v8.3h12.2c7.8,0,14.2-6.4,14.2-14.2v-4.6
			C199.8,153.4,194.6,155.3,189.2,156.2z"/>
	</g>
	<path class="st0" d="M204.6,34.8h-20.1c-7.6,0-13.8-6.2-13.8-13.8V1"/>
	<path class="st0" d="M204.6,34.8h-20.1c-7.6,0-13.8-6.2-13.8-13.8V1"/>
	<path class="st3" d="M184.6,26.2c-7.6,0-13.8-6.2-13.8-13.8V21c0,7.6,6.2,13.8,13.8,13.8h20.1l-8.6-8.6H184.6z"/>
	<g>
		<path d="M204.6,35.8h-20.1c-8.2,0-14.8-6.6-14.8-14.8V1c0-0.5,0.4-1,1-1c0.5,0,1,0.4,1,1V21c0,7.1,5.7,12.8,12.8,12.8h20.1
			c0.5,0,1,0.4,1,1C205.6,35.4,205.2,35.8,204.6,35.8z"/>
	</g>
	<path d="M61.2,63.4h44.2c0.5,0,1-0.4,1-1c0-0.5-0.4-1-1-1H61.2c-0.5,0-1,0.4-1,1C60.2,63,60.7,63.4,61.2,63.4z"/>
	<path d="M61.2,103.2h57c0.5,0,1-0.4,1-1c0-0.5-0.4-1-1-1h-57c-0.5,0-1,0.4-1,1C60.2,102.8,60.7,103.2,61.2,103.2z"/>
	<path d="M61.2,144.2h65c0.5,0,1-0.4,1-1s-0.4-1-1-1h-65c-0.5,0-1,0.4-1,1S60.7,144.2,61.2,144.2z"/>
	<path d="M61.2,83.9h22.6c0.5,0,1-0.4,1-1c0-0.5-0.4-1-1-1H61.2c-0.5,0-1,0.4-1,1C60.2,83.5,60.7,83.9,61.2,83.9z"/>
	<path d="M83.8,162.7H61.2c-0.5,0-1,0.4-1,1s0.4,1,1,1h22.6c0.5,0,1-0.4,1-1S84.3,162.7,83.8,162.7z"/>
	<path d="M131,162.7H95.7c-0.5,0-1,0.4-1,1s0.4,1,1,1H131c0.5,0,1-0.4,1-1S131.5,162.7,131,162.7z"/>
	<path d="M158.6,162.7h-15.1c-0.5,0-1,0.4-1,1s0.4,1,1,1h15.1c0.5,0,1-0.4,1-1S159.1,162.7,158.6,162.7z"/>
	<path d="M61.2,123.3h43c0.5,0,1-0.4,1-1c0-0.5-0.4-1-1-1h-43c-0.5,0-1,0.4-1,1C60.2,122.8,60.7,123.3,61.2,123.3z"/>
	<path class="st1" d="M180.1,60.7c-24.7,0-44.7,20-44.7,44.7s20,44.7,44.7,44.7s44.7-20,44.7-44.7S204.8,60.7,180.1,60.7z
		 M180.1,133.1c-15.3,0-27.7-12.4-27.7-27.7s12.4-27.7,27.7-27.7s27.7,12.4,27.7,27.7S195.3,133.1,180.1,133.1z"/>
	<g>
		<path class="st2" d="M184,132.8c1.3,0.2,2.6,0.3,3.9,0.3c15.3,0,27.7-12.4,27.7-27.7s-12.4-27.7-27.7-27.7c-1.3,0-2.6,0.1-3.9,0.3
			c13.4,1.9,23.8,13.4,23.8,27.4S197.4,130.9,184,132.8z"/>
		<path class="st2" d="M143.1,105.4c0-23.4,18-42.6,40.8-44.5c-1.3-0.1-2.6-0.2-3.9-0.2c-24.7,0-44.7,20-44.7,44.7
			s20,44.7,44.7,44.7c1.3,0,2.6-0.1,3.9-0.2C161.1,148,143.1,128.8,143.1,105.4z"/>
	</g>
	<path class="st0" d="M253.6,178.2l-0.3,0.3c-3.9,3.9-10.3,3.9-14.2,0l-20.9-20.9c-1.8-1.8-1.8-4.8,0-6.6l7.9-7.9
		c1.8-1.8,4.8-1.8,6.6,0l20.9,20.9C257.5,168,257.5,174.3,253.6,178.2z"/>
	<path class="st0" d="M253.6,178.2l-0.3,0.3c-3.9,3.9-10.3,3.9-14.2,0l-20.9-20.9c-1.8-1.8-1.8-4.8,0-6.6l7.9-7.9
		c1.8-1.8,4.8-1.8,6.6,0l20.9,20.9C257.5,168,257.5,174.3,253.6,178.2z"/>
	<path class="st3" d="M253.7,164.1l-7-7c3.9,3.9,3.9,10.2,0,14l-0.5,0.5c-3.9,3.9-10.2,3.9-14,0l-13.9-13.9c0,0,0,0,0,0l21,21
		c3.9,3.9,10.2,3.9,14,0l0.5-0.5C257.6,174.3,257.6,168,253.7,164.1z"/>
	<g>
		<g>
			<path d="M180.1,151.1c-25.2,0-45.7-20.5-45.7-45.7s20.5-45.7,45.7-45.7s45.7,20.5,45.7,45.7S205.3,151.1,180.1,151.1z
				 M180.1,61.7c-24.1,0-43.7,19.6-43.7,43.7s19.6,43.7,43.7,43.7s43.7-19.6,43.7-43.7S204.2,61.7,180.1,61.7z"/>
		</g>
		<g>
			<path d="M199.1,86.3c-0.2,0-0.5-0.1-0.7-0.3c-1-1-2.2-1.9-3.3-2.7c-0.5-0.3-0.6-0.9-0.3-1.4c0.3-0.5,0.9-0.6,1.4-0.3
				c1.3,0.9,2.5,1.8,3.6,2.9c0.4,0.4,0.4,1,0,1.4C199.6,86.2,199.3,86.3,199.1,86.3z"/>
		</g>
		<g>
			<path d="M201.3,88.7c-0.3,0-0.6-0.1-0.8-0.4c-0.7-0.8-1.4-1.6-2.2-2.3c-0.4-0.4-0.4-1,0-1.4c0.4-0.4,1-0.4,1.4,0
				c0.8,0.8,1.6,1.6,2.3,2.5c0.4,0.4,0.3,1-0.1,1.4C201.8,88.6,201.5,88.7,201.3,88.7z"/>
		</g>
		<g>
			<path d="M180.1,134c-15.8,0-28.7-12.9-28.7-28.7s12.9-28.7,28.7-28.7c3.7,0,7.3,0.7,10.8,2.1c0.5,0.2,0.8,0.8,0.5,1.3
				c-0.2,0.5-0.8,0.7-1.3,0.5c-3.2-1.3-6.6-1.9-10-1.9c-14.7,0-26.7,12-26.7,26.7c0,14.7,12,26.7,26.7,26.7s26.7-12,26.7-26.7
				c0-4.5-1.1-8.9-3.3-12.8c-0.3-0.5-0.1-1.1,0.4-1.3c0.5-0.3,1.1-0.1,1.3,0.4c2.3,4.2,3.5,9,3.5,13.8
				C208.7,121.2,195.9,134,180.1,134z"/>
		</g>
		<g>
			<path d="M246.2,182.5c-2.8,0-5.6-1.1-7.7-3.2l-21-21c-2.2-2.2-2.2-5.7,0-7.9l8-8c2.2-2.2,5.7-2.2,7.9,0l21,21
				c4.3,4.3,4.3,11.2,0,15.4l-0.5,0.5C251.8,181.4,249,182.5,246.2,182.5z M229.5,142.8c-0.9,0-1.8,0.4-2.6,1.1l-8,8
				c-1.4,1.4-1.4,3.7,0,5.1l21,21c3.5,3.5,9.1,3.5,12.6,0l0.5-0.5c3.5-3.5,3.5-9.1,0-12.6l-21-21
				C231.3,143.2,230.4,142.8,229.5,142.8z"/>
		</g>
		<g>
			<path d="M219.2,151.2c-0.3,0-0.5-0.1-0.7-0.3L208,140.5c-0.2-0.2-0.3-0.5-0.3-0.7c0-0.3,0.1-0.5,0.4-0.7c2.5-2.1,4.8-4.4,6.7-7
				c0.2-0.2,0.4-0.4,0.7-0.4c0.3,0,0.6,0.1,0.8,0.3l10.6,10.6c0.4,0.4,0.4,1,0,1.4l-7,7C219.7,151.1,219.4,151.2,219.2,151.2z
				 M210.1,139.8l9,9l5.6-5.6l-9.1-9.1C214,136.1,212.1,138.1,210.1,139.8z"/>
		</g>
	</g>
	<g>
		<path d="M168.9,55c0.8-0.2,1.6-0.3,2.4-0.5L145,29.7c-0.2-0.2-0.4-0.3-0.7-0.3H70.8V15.2C70.8,7.9,76.7,2,84,2h86.3l33.2,31.5v26
			c0.7,0.3,1.3,0.7,2,1.1V33.1c0-0.3-0.1-0.5-0.3-0.7L171.4,0.3C171.3,0.1,171,0,170.8,0H84c-8.4,0-15.2,6.8-15.2,15.2v15.2
			c0,0.5,0.4,1,1,1H144L168.9,55z"/>
		<path d="M203.6,151.4v4.1c0,7.3-5.9,13.2-13.2,13.2h-11.2V157c-0.7,0-1.3,0-2-0.1v12.7c0,0.5,0.4,1,1,1h12.2
			c8.4,0,15.2-6.8,15.2-15.2v-5.1C204.9,150.7,204.3,151,203.6,151.4z"/>
	</g>
	<path class="st5" d="M151.4,62.5c3.5-2.3,7.3-4.3,11.3-5.7h-4.3c-7.6,0-13.8-6.2-13.8-13.8V30.7l-0.3-0.3v20.1
		C144.3,55.6,147.2,60.1,151.4,62.5z"/>
	<path d="M177.2,157v27.8c0,7.3-5.9,13.2-13.2,13.2H57.6c-7.3,0-13.2-5.9-13.2-13.2V44.6c0-7.3,5.9-13.2,13.2-13.2h85.8v19.1
		c0,5.4,2.9,10,7.1,12.6c0.6-0.4,1.2-0.8,1.8-1.2c-4.2-2.1-7-6.4-7-11.4V32.7L168.9,55c0.8-0.2,1.6-0.3,2.4-0.5L145,29.7
		c0,0,0,0,0,0l0,0c0,0-0.1-0.1-0.2-0.1c-0.1,0-0.1-0.1-0.2-0.1c-0.1,0-0.2-0.1-0.4-0.1H57.6c-8.4,0-15.2,6.8-15.2,15.2v140.2
		c0,8.4,6.8,15.2,15.2,15.2H164c8.4,0,15.2-6.8,15.2-15.2V157C178.5,157,177.9,157,177.2,157z"/>
	<path d="M134.1,81.9H95.4c-0.5,0-1,0.4-1,1c0,0.5,0.4,1,1,1h37.7C133.4,83.3,133.7,82.6,134.1,81.9z"/>
	<path d="M130.9,121.3h-14.8c-0.5,0-1,0.4-1,1c0,0.5,0.4,1,1,1h15.5C131.4,122.6,131.1,121.9,130.9,121.3z"/>
	<path d="M144.5,142.8h-8.2c-0.5,0-1,0.4-1,1c0,0.5,0.4,1,1,1h10.4C145.9,144.1,145.2,143.5,144.5,142.8z"/>
</g>
</svg>
