<?xml version="1.0" encoding="utf-8"?>
<!-- Generator: Adobe Illustrator 24.3.0, SVG Export Plug-In . SVG Version: 6.00 Build 0)  -->
<svg version="1.1" id="Capa_1" xmlns="http://www.w3.org/2000/svg" xmlns:xlink="http://www.w3.org/1999/xlink" x="0px" y="0px"
	 viewBox="0 0 300 200" style="enable-background:new 0 0 300 200;" xml:space="preserve">
<style type="text/css">
	.st0{fill:#5F7993;}
	.st1{fill:#17B5C8;}
	.st2{fill:#11828F;}
	.st3{fill:#405162;}
	.st4{fill:#A6D100;}
	.st5{fill:#89AB00;}
	.st6{fill:#FFFFFF;}
	.st7{fill:none;stroke:#17B5C8;stroke-width:2;stroke-miterlimit:10;}
</style>
<path class="st4" d="M152.5,198.6h-6.7c-41.9,0-75.8-33.9-75.8-75.8V76.5c0-41.9,33.9-75.8,75.8-75.8h6.7
	c41.9,0,75.8,33.9,75.8,75.8v46.3C228.3,164.6,194.4,198.6,152.5,198.6z"/>
<path class="st5" d="M196.1,15.5c9.4,12.9,14.9,28.7,14.9,45.9v41.7c0,43.2-35,78.1-78.1,78.1h-2.1c-17.1,0-33-5.5-45.9-14.9
	c14.2,19.5,37.2,32.3,63.2,32.3h2.1c43.2,0,78.1-35,78.1-78.1V78.8C228.3,52.8,215.6,29.7,196.1,15.5z"/>
<g>
	<path d="M150.2,199.6h-2.1c-43.7,0-79.2-35.5-79.2-79.2V78.8c0-43.7,35.5-79.2,79.2-79.2h2.1c3,0,6,0.2,9,0.5
		c0.6,0.1,1,0.6,0.9,1.1s-0.6,1-1.1,0.9c-2.9-0.3-5.8-0.5-8.7-0.5h-2.1C105.6,1.7,71,36.2,71,78.8v41.7c0,42.5,34.6,77.1,77.1,77.1
		h2.1c42.5,0,77.1-34.6,77.1-77.1V78.8c0-26.6-13.4-51-35.9-65.2c-0.5-0.3-0.6-0.9-0.3-1.4c0.3-0.5,0.9-0.6,1.4-0.3
		c23.1,14.6,36.9,39.6,36.9,67v41.7C229.4,164.1,193.9,199.6,150.2,199.6z"/>
</g>
<g>
	<path d="M180.1,7.6c-0.1,0-0.3,0-0.4-0.1c-2.5-1-5-1.9-7.6-2.7c-0.5-0.2-0.9-0.7-0.7-1.3c0.2-0.5,0.7-0.9,1.3-0.7
		c2.6,0.8,5.3,1.7,7.8,2.8c0.5,0.2,0.8,0.8,0.6,1.3C180.9,7.3,180.5,7.6,180.1,7.6z"/>
</g>
<g>
	<path d="M86.4,141.6c-0.3,0-0.5-0.1-0.7-0.3c-0.4-0.4-0.4-1.1,0-1.5c3.2-3.2,3.9-15.1,3.9-19.4V78.8c0-16,6.4-30.9,17.9-42.1
		c0.4-0.4,1.1-0.4,1.5,0c0.4,0.4,0.4,1.1,0,1.5C97.8,48.9,91.6,63.3,91.6,78.8v41.7c0,0.7,0.1,16.3-4.5,20.9
		C87,141.5,86.7,141.6,86.4,141.6z"/>
</g>
<g>
	<path d="M207.3,72.6c-0.5,0-1-0.4-1-0.9c-3.5-28.2-27.6-49.4-56.1-49.4h-2.1c-9.2,0-18.3,2.3-26.4,6.5c-0.5,0.3-1.1,0.1-1.4-0.4
		c-0.3-0.5-0.1-1.1,0.4-1.4c8.4-4.4,17.8-6.8,27.3-6.8h2.1c29.5,0,54.4,22,58.1,51.2c0.1,0.6-0.3,1.1-0.9,1.2
		C207.4,72.6,207.3,72.6,207.3,72.6z"/>
</g>
<g>
	<path d="M97.8,162.4c-0.3,0-0.5-0.1-0.7-0.3c-0.4-0.4-0.4-1.1,0-1.5c14.2-14.2,13.1-40.8,13.1-41.1l0-40.8
		c0-20.9,17-37.9,37.9-37.9h2.1c20.9,0,37.9,17,37.9,37.9v8.3c0,0.6-0.5,1-1,1s-1-0.5-1-1v-8.3c0-19.8-16.1-35.9-35.9-35.9h-2.1
		c-19.8,0-35.9,16.1-35.9,35.9v40.7c0,0.2,0.3,7-1.2,15.6c-1.4,8-4.7,19.2-12.5,27C98.3,162.3,98.1,162.4,97.8,162.4z"/>
</g>
<g>
	<path d="M114.8,176.8c-0.3,0-0.5-0.1-0.7-0.3c-0.4-0.4-0.4-1.1,0-1.5c24-24,21.9-55.3,21.8-55.6l0-39.7c0-7.3,5.9-13.2,13.2-13.2
		s13.2,5.9,13.2,13.2v39.6c0,0.6-0.5,1-1,1s-1-0.5-1-1V79.8c0-6.2-5-11.2-11.2-11.2s-11.2,5-11.2,11.2v39.6
		c0,0.2,2.2,32.5-22.5,57.1C115.3,176.7,115.1,176.8,114.8,176.8z"/>
</g>
<g>
	<path d="M172.5,180.8c-0.2,0-0.4,0-0.5-0.1c-0.5-0.3-0.7-0.9-0.4-1.4c13.9-23.6,14.3-56.4,14.3-56.7c0-0.6,0.5-1,1-1c0,0,0,0,0,0
		c0.6,0,1,0.5,1,1c0,0.3-0.4,33.7-14.6,57.7C173.2,180.7,172.9,180.8,172.5,180.8z"/>
</g>
<g>
	<path d="M140.8,185.6c-0.3,0-0.5-0.1-0.7-0.3c-0.4-0.4-0.4-1.1,0-1.5c14.5-14.5,19.5-41.3,19.6-41.6c0.1-0.6,0.6-0.9,1.2-0.8
		c0.6,0.1,0.9,0.6,0.8,1.2c-0.2,1.1-5.2,27.7-20.2,42.6C141.4,185.5,141.1,185.6,140.8,185.6z"/>
</g>
<g>
	<path d="M186.7,109.9c-0.6,0-1-0.5-1-1v-6.4c0-0.6,0.5-1,1-1s1,0.5,1,1v6.4C187.7,109.4,187.3,109.9,186.7,109.9z"/>
</g>
</svg>
