<?xml version="1.0" encoding="utf-8"?>
<!-- Generator: Adobe Illustrator 24.3.0, SVG Export Plug-In . SVG Version: 6.00 Build 0)  -->
<svg version="1.1" id="Capa_1" xmlns="http://www.w3.org/2000/svg" xmlns:xlink="http://www.w3.org/1999/xlink" x="0px" y="0px"
	 viewBox="0 0 300 200" style="enable-background:new 0 0 300 200;" xml:space="preserve">
<style type="text/css">
	.st0{fill:#5F7993;}
	.st1{fill:#17B5C8;}
	.st2{fill:#11828F;}
	.st3{fill:#405162;}
	.st4{fill:#A6D100;}
	.st5{fill:#89AB00;}
	.st6{fill:#FFFFFF;}
	.st7{fill:none;stroke:#17B5C8;stroke-width:2;stroke-miterlimit:10;}
</style>
<g>
	<polygon class="st3" points="77.1,65.2 150,26.5 222.3,65.2 150,106.6 	"/>
	<path class="st0" d="M153.5,43.1L209,72.8l13.3-7.6L150,26.5L77.1,65.2l13.4,7.6l56-29.8C148.7,41.9,151.3,41.9,153.5,43.1z"/>
	<polygon class="st4" points="174.6,131.2 150,106.6 152.9,105 149.7,106.6 149.7,199 223.2,158.8 223.2,104.2 	"/>
	<polygon class="st1" points="126.6,130.3 76.8,104.3 76.8,159.1 149.7,199 149.7,106.9 	"/>
	<path class="st5" d="M174.6,131.2L150,106.6l2.9-1.6l-3.2,1.6v12.9h0.3l21.6,21.6c1.8,1.8,4.5,2.1,6.6,0.9l44.9-24.9v-12.9
		L174.6,131.2z"/>
	<path class="st2" d="M126.6,130.3l-49.8-26v12.9l45.6,23.8c2.5,1.3,5.5,0.8,7.5-1.2l19.8-20v-12.9L126.6,130.3z"/>
	<g>
		<path d="M126.6,131.3c-0.2,0-0.3,0-0.5-0.1l-74.7-39c-0.3-0.1-0.5-0.4-0.5-0.7c0-0.3,0-0.6,0.3-0.8l25.2-26.1
			c0.3-0.3,0.8-0.4,1.2-0.2l72.9,41.4c0.3,0.2,0.4,0.4,0.5,0.7c0,0.3-0.1,0.6-0.3,0.8L127.3,131
			C127.1,131.2,126.9,131.3,126.6,131.3z M53.5,91l72.9,38.1l22-22.3L77.3,66.4L53.5,91z"/>
	</g>
	<g>
		<path d="M149.7,200c-0.2,0-0.3,0-0.5-0.1L76.3,160c-0.3-0.2-0.5-0.5-0.5-0.9v-54.8c0-0.3,0.2-0.7,0.5-0.8c0.3-0.2,0.7-0.2,1,0
			l49.2,25.7l22.6-22.9c0.3-0.3,0.7-0.4,1.1-0.2c0.4,0.2,0.6,0.5,0.6,0.9V199c0,0.4-0.2,0.7-0.5,0.9C150,200,149.9,200,149.7,200z
			 M77.8,158.5l70.9,38.8v-88L127.3,131c-0.3,0.3-0.8,0.4-1.2,0.2l-48.4-25.2V158.5z"/>
	</g>
	<g>
		<path d="M174.6,132.2c-0.3,0-0.5-0.1-0.7-0.3l-24.6-24.6c-0.2-0.2-0.3-0.5-0.3-0.8c0-0.3,0.2-0.6,0.5-0.7l72.3-41.4
			c0.4-0.2,0.9-0.2,1.2,0.2l25.8,25.2c0.2,0.2,0.3,0.5,0.3,0.8c0,0.3-0.2,0.6-0.5,0.7l-38.2,21.2c-0.5,0.3-1.1,0.1-1.3-0.4
			s-0.1-1.1,0.4-1.3l37-20.5l-24.3-23.8l-70.5,40.4l23.2,23.2l22.3-12.4c0.5-0.3,1.1-0.1,1.3,0.4c0.3,0.5,0.1,1.1-0.4,1.3l-23,12.8
			C174.9,132.2,174.8,132.2,174.6,132.2z"/>
	</g>
	<g>
		<path d="M149.7,200c-0.4,0-0.7-0.2-0.9-0.5c-0.3-0.5-0.1-1.1,0.4-1.3l73-39.9v-54c0-0.5,0.4-1,1-1c0.5,0,1,0.4,1,1v54.6
			c0,0.4-0.2,0.7-0.5,0.9l-73.5,40.2C150,200,149.9,200,149.7,200z"/>
	</g>
	<g>
		<path d="M222.3,66.2c-0.2,0-0.3,0-0.5-0.1l-72.3-38.7c-0.3-0.1-0.5-0.4-0.5-0.7c-0.1-0.3,0-0.6,0.2-0.8l23.4-25.5
			c0.3-0.3,0.8-0.4,1.2-0.2l73.8,40.2c0.3,0.2,0.5,0.4,0.5,0.7c0,0.3-0.1,0.6-0.3,0.8l-24.9,24C222.8,66.1,222.6,66.2,222.3,66.2z
			 M151.6,26.2L222.1,64l23.4-22.6L173.6,2.2L151.6,26.2z"/>
	</g>
	<g>
		<path d="M77.1,66.2c-0.3,0-0.5-0.1-0.7-0.3L53.3,42.8C53.1,42.6,53,42.3,53,42c0-0.3,0.2-0.6,0.5-0.7l35-20.2
			c0.5-0.3,1.1-0.1,1.4,0.4c0.3,0.5,0.1,1.1-0.4,1.4L55.6,42.3L77.3,64l71.1-37.7L124.6,2.5l-20.8,12c-0.5,0.3-1.1,0.1-1.4-0.4
			c-0.3-0.5-0.1-1.1,0.4-1.4l21.4-12.4c0.4-0.2,0.9-0.2,1.2,0.2l25.2,25.2c0.2,0.2,0.3,0.5,0.3,0.8s-0.2,0.6-0.5,0.7L77.6,66.1
			C77.4,66.1,77.3,66.2,77.1,66.2z"/>
	</g>
</g>
</svg>
