<?xml version="1.0" encoding="UTF-8" standalone="no"?>
<!-- Generator: Adobe Illustrator 24.3.0, SVG Export Plug-In . SVG Version: 6.00 Build 0)  -->

<svg
   xmlns:dc="http://purl.org/dc/elements/1.1/"
   xmlns:cc="http://creativecommons.org/ns#"
   xmlns:rdf="http://www.w3.org/1999/02/22-rdf-syntax-ns#"
   xmlns:svg="http://www.w3.org/2000/svg"
   xmlns="http://www.w3.org/2000/svg"
   xmlns:sodipodi="http://sodipodi.sourceforge.net/DTD/sodipodi-0.dtd"
   xmlns:inkscape="http://www.inkscape.org/namespaces/inkscape"
   version="1.1"
   id="Capa_1"
   x="0px"
   y="0px"
   viewBox="0 0 300 200"
   style="enable-background:new 0 0 300 200;"
   xml:space="preserve"
   sodipodi:docname="console-log.svg"
   inkscape:version="0.92.5 (2060ec1f9f, 2020-04-08)"><metadata
   id="metadata2525"><rdf:RDF><cc:Work
       rdf:about=""><dc:format>image/svg+xml</dc:format><dc:type
         rdf:resource="http://purl.org/dc/dcmitype/StillImage" /><dc:title></dc:title></cc:Work></rdf:RDF></metadata><defs
   id="defs2523">
	
	
	
	
	
	
	
	
	
	
	
	
	
	
	
	
	
	
	
	
	
	
	
	
	
	
	
</defs><sodipodi:namedview
   pagecolor="#ffffff"
   bordercolor="#666666"
   borderopacity="1"
   objecttolerance="10"
   gridtolerance="10"
   guidetolerance="10"
   inkscape:pageopacity="0"
   inkscape:pageshadow="2"
   inkscape:window-width="1920"
   inkscape:window-height="1016"
   id="namedview2521"
   showgrid="false"
   inkscape:zoom="3.0158104"
   inkscape:cx="90.314551"
   inkscape:cy="83.57167"
   inkscape:window-x="0"
   inkscape:window-y="27"
   inkscape:window-maximized="1"
   inkscape:current-layer="Capa_1" />
<style
   type="text/css"
   id="style2420">
	.st0{fill:#5F7993;}
	.st1{fill:#17B5C8;}
	.st2{fill:#11828F;}
	.st3{fill:#405162;}
	.st4{fill:#A6D100;}
	.st5{fill:#89AB00;}
	.st6{fill:#FFFFFF;}
	.st7{fill:none;stroke:#17B5C8;stroke-width:2;stroke-miterlimit:10;}
</style>
<path
   style="opacity:1;fill:#a6d100;fill-opacity:1;fill-rule:nonzero;stroke:none;stroke-width:1.88976383;stroke-linecap:round;stroke-linejoin:round;stroke-miterlimit:4;stroke-dasharray:none;stroke-dashoffset:0;stroke-opacity:1"
   d="m 96.178458,17.262009 87.293182,-0.154398 -0.0579,21.210098 c -0.0222,8.12082 5.71193,13.393334 13.8296,13.166429 l 20.62568,-0.576527 -0.23315,121.467769 c -0.0156,8.12084 -6.53772,14.65857 -14.65857,14.65857 H 96.178458 c -8.120845,0 -14.648955,-6.53773 -14.658564,-14.65857 L 81.271205,71.476287 81.354105,32.25216 c 0.01716,-8.120827 6.703525,-14.975787 14.824357,-14.990151 z"
   id="rect2590-7"
   inkscape:connector-curvature="0"
   sodipodi:nodetypes="ccsscsssscssc" /><path
   style="fill:#5f7993"
   inkscape:connector-curvature="0"
   id="path2438"
   d="m 217.75345,50.112844 h -20.1 c -7.6,0 -13.8,-6.2 -13.8,-13.8 v -20"
   class="st0" /><path
   style="fill:#405162"
   inkscape:connector-curvature="0"
   id="path2438-3"
   d="m 209.4559,50.373137 -11.64456,-0.165793 c -7.59923,-0.108196 -14.61024,-6.243316 -13.8,-13.800003 l 0.82896,-7.731324 c 4.06314,10.585475 11.28986,18.60995 24.6156,21.69712 z"
   class="st0"
   sodipodi:nodetypes="csscc" /><path
   inkscape:connector-curvature="0"
   id="path2446"
   d="m 100.65871,49.307602 h 44.2 c 0.5,0 1,-0.4 1,-1 0,-0.5 -0.4,-1 -1,-1 h -44.2 c -0.5,0 -0.999996,0.4 -0.999996,1 0,0.6 0.499996,1 0.999996,1 z" /><path
   inkscape:connector-curvature="0"
   id="path2448"
   d="m 100.65871,89.107602 h 57 c 0.5,0 1,-0.4 1,-1 0,-0.5 -0.4,-1 -1,-1 h -57 c -0.5,0 -0.999996,0.4 -0.999996,1 0,0.6 0.499996,1 0.999996,1 z" /><path
   inkscape:connector-curvature="0"
   id="path2450"
   d="m 100.65871,130.1076 h 65 c 0.5,0 1,-0.4 1,-1 0,-0.6 -0.4,-1 -1,-1 h -65 c -0.5,0 -0.999996,0.4 -0.999996,1 0,0.6 0.499996,1 0.999996,1 z" /><path
   inkscape:connector-curvature="0"
   id="path2452"
   d="m 100.65871,69.807602 h 22.6 c 0.5,0 1,-0.4 1,-1 0,-0.5 -0.4,-1 -1,-1 h -22.6 c -0.5,0 -0.999996,0.4 -0.999996,1 0,0.6 0.499996,1 0.999996,1 z" /><path
   inkscape:connector-curvature="0"
   id="path2454"
   d="m 123.25871,148.6076 h -22.6 c -0.5,0 -0.999996,0.4 -0.999996,1 0,0.6 0.399996,1 0.999996,1 h 22.6 c 0.5,0 1,-0.4 1,-1 0,-0.6 -0.5,-1 -1,-1 z" /><path
   inkscape:connector-curvature="0"
   id="path2456"
   d="m 170.45871,148.6076 h -35.3 c -0.5,0 -1,0.4 -1,1 0,0.6 0.4,1 1,1 h 35.3 c 0.5,0 1,-0.4 1,-1 0,-0.6 -0.5,-1 -1,-1 z" /><path
   inkscape:connector-curvature="0"
   id="path2458"
   d="m 198.05871,148.6076 h -15.1 c -0.5,0 -1,0.4 -1,1 0,0.6 0.4,1 1,1 h 15.1 c 0.5,0 1,-0.4 1,-1 0,-0.6 -0.5,-1 -1,-1 z" /><path
   inkscape:connector-curvature="0"
   id="path2460"
   d="m 100.65871,109.2076 h 43 c 0.5,0 1,-0.4 1,-1 0,-0.5 -0.4,-1 -1,-1 h -43 c -0.5,0 -0.999996,0.4 -0.999996,1 0,0.5 0.499996,1 0.999996,1 z" /><path
   inkscape:connector-curvature="0"
   id="path2512"
   d="m 173.55871,67.807602 h -38.7 c -0.5,0 -1,0.4 -1,1 0,0.5 0.4,1 1,1 h 37.7 c 0.3,-0.6 0.6,-1.3 1,-2 z" /><path
   inkscape:connector-curvature="0"
   id="path2514"
   d="m 170.35871,107.2076 h -14.8 c -0.5,0 -1,0.4 -1,1 0,0.5 0.4,1 1,1 h 15.5 c -0.2,-0.7 -0.5,-1.4 -0.7,-2 z" /><path
   inkscape:connector-curvature="0"
   id="path2516"
   d="m 183.95871,128.7076 h -8.2 c -0.5,0 -1,0.4 -1,1 0,0.5 0.4,1 1,1 h 10.4 c -0.8,-0.7 -1.5,-1.3 -2.2,-2 z" />
<path
   style="opacity:1;fill:none;fill-opacity:1;fill-rule:nonzero;stroke:#000000;stroke-width:1.88976383;stroke-linecap:round;stroke-linejoin:round;stroke-miterlimit:4;stroke-dasharray:none;stroke-dashoffset:0;stroke-opacity:1"
   d="m 81.653011,58.74443 0.0829,-27.287037 c 0.02467,-8.120808 6.703525,-14.975787 14.824357,-14.990151 h -4e-6 l 87.293186,-0.154398 -0.0579,21.210098 c -0.0222,8.12082 5.71193,13.393334 13.8296,13.166429 l 20.62568,-0.576527 -0.11658,60.733886 -0.0291,10.37547 m -0.16579,9.78178 0.13669,6.39645 m 0,7.95806 -0.0291,11.03865 -0.0291,15.18347 c -0.0156,8.12084 -6.53772,14.65857 -14.65857,14.65857 H 96.560264 c -8.120845,0 -14.648955,-6.53773 -14.658564,-14.65857 L 81.653011,70.68152"
   id="rect2590"
   inkscape:connector-curvature="0"
   sodipodi:nodetypes="cssccsscccccccssssc" /><path
   style="fill:none;stroke:#000000;stroke-width:1.88976383;stroke-linecap:butt;stroke-linejoin:miter;stroke-miterlimit:4;stroke-dasharray:none;stroke-opacity:1"
   d="m 183.85345,16.312844 c 34.39738,33.8 34.39738,33.8 34.39738,33.8 v 0 0"
   id="path2595"
   inkscape:connector-curvature="0" /><path
   inkscape:connector-curvature="0"
   id="path2512-6"
   d="m 205.31132,87.349941 h -38.7 c -0.5,0 -1,0.4 -1,1 0,0.5 0.4,1 1,1 h 37.7 c 0.3,-0.6 0.6,-1.3 1,-2 z" /></svg>