<?xml version="1.0" encoding="UTF-8" standalone="no"?>
<!-- Generator: Adobe Illustrator 24.3.0, SVG Export Plug-In . SVG Version: 6.00 Build 0)  -->

<svg
   xmlns:dc="http://purl.org/dc/elements/1.1/"
   xmlns:cc="http://creativecommons.org/ns#"
   xmlns:rdf="http://www.w3.org/1999/02/22-rdf-syntax-ns#"
   xmlns:svg="http://www.w3.org/2000/svg"
   xmlns="http://www.w3.org/2000/svg"
   xmlns:sodipodi="http://sodipodi.sourceforge.net/DTD/sodipodi-0.dtd"
   xmlns:inkscape="http://www.inkscape.org/namespaces/inkscape"
   version="1.1"
   id="Capa_1"
   x="0px"
   y="0px"
   viewBox="0 0 300 200"
   style="enable-background:new 0 0 300 200;"
   xml:space="preserve"
   sodipodi:docname="custom-object.svg"
   inkscape:version="0.92.5 (2060ec1f9f, 2020-04-08)"><metadata
   id="metadata2525"><rdf:RDF><cc:Work
       rdf:about=""><dc:format>image/svg+xml</dc:format><dc:type
         rdf:resource="http://purl.org/dc/dcmitype/StillImage" /><dc:title></dc:title></cc:Work></rdf:RDF></metadata><defs
   id="defs2523">
	
	
	
	
	
	
	
	
	
	
	
	
	
	
	
	
	
	
	
	
	
	
	
	
	
	
	
</defs><sodipodi:namedview
   pagecolor="#ffffff"
   bordercolor="#666666"
   borderopacity="1"
   objecttolerance="10"
   gridtolerance="10"
   guidetolerance="10"
   inkscape:pageopacity="0"
   inkscape:pageshadow="2"
   inkscape:window-width="1920"
   inkscape:window-height="1043"
   id="namedview2521"
   showgrid="false"
   inkscape:zoom="3.0158104"
   inkscape:cx="243.5072"
   inkscape:cy="83.654567"
   inkscape:window-x="0"
   inkscape:window-y="1080"
   inkscape:window-maximized="1"
   inkscape:current-layer="Capa_1" />
<style
   type="text/css"
   id="style2420">
	.st0{fill:#5F7993;}
	.st1{fill:#17B5C8;}
	.st2{fill:#11828F;}
	.st3{fill:#405162;}
	.st4{fill:#A6D100;}
	.st5{fill:#89AB00;}
	.st6{fill:#FFFFFF;}
	.st7{fill:none;stroke:#17B5C8;stroke-width:2;stroke-miterlimit:10;}
</style>

<g
   id="g4274"
   transform="translate(-3.3584462)"><g
     id="g2820"
     transform="matrix(1.5811298,0,0,1.5811298,-38.511655,-116.33539)"><path
       d="m 121.4,169.8 c -0.4,0 -0.7,0 -1.1,-0.1 -0.2,0 -0.4,0 -0.6,0 h -0.4 c -0.7,0 -1.4,-0.1 -2.1,-0.2 -1.2,-0.2 -2.5,-0.4 -3.7,-0.7 l -0.3,-0.1 c -11.5,-3 -20.6,-12 -23.5,-23.5 -2.2,-8.5 -0.9,-17.3 3.5,-24.8 4.4,-7.5 11.6,-12.9 20,-15.1 1.2,-0.3 2.4,-0.5 3.5,-0.7 0.4,-0.1 0.8,-0.1 1.2,-0.1 0.8,-0.1 1.5,-0.1 2.3,-0.1 0.1,0 0.2,0 0.2,0 h 0.1 c 0.2,0 0.5,0 0.7,0 7,0 13.9,2.3 19.5,6.5 l 0.6,0.4 c 0.5,0.4 0.9,0.8 1.4,1.1 0.4,0.3 0.7,0.6 1.1,1 l 0.1,0.1 c 0.3,0.3 0.5,0.5 0.8,0.8 0.5,0.5 1,1 1.6,1.7 0.2,0.2 0.3,0.3 0.3,0.4 1.2,1.5 2.3,3.1 3.3,4.8 l 0.1,0.2 c 0.6,1.2 1.2,2.3 1.6,3.5 0.2,0.5 0.4,1 0.6,1.5 0.3,0.8 0.5,1.5 0.7,2.2 l 0.1,0.3 c 0.1,0.5 0.3,1 0.4,1.5 0.2,0.8 0.3,1.7 0.4,2.8 0.1,0.8 0.2,1.6 0.2,2.6 v 0.5 c 0,0.4 0,0.7 0,1 0,0.1 0,0.2 0,0.4 v 0.2 c 0,0.7 -0.1,1.3 -0.1,2 -0.1,0.8 -0.2,1.5 -0.2,2.1 -0.8,5.3 -2.6,10.3 -5.4,14.9 -0.6,0.9 -1.3,1.8 -2.1,2.6 -2.7,2.6 -5.9,4.9 -9.2,6.7 l -0.4,0.2 c -0.5,0.2 -0.9,0.5 -1.4,0.7 l -0.4,0.2 c -0.4,0.2 -0.7,0.3 -1.1,0.5 -0.5,0.2 -1,0.4 -1.5,0.5 l -0.2,0.1 c -0.4,0.1 -0.8,0.3 -1.3,0.4 -0.7,0.2 -1.3,0.3 -1.9,0.5 l -0.3,0.1 c -0.2,0.1 -0.5,0.1 -0.7,0.2 -0.9,0.2 -1.8,0.3 -2.7,0.4 -0.2,0 -0.3,0 -0.5,0.1 -1.2,-0.4 -2.2,-0.3 -3.2,-0.3 z m -7.7,-3 h 0.2 c 1.2,0.3 2.4,0.5 3.6,0.7 0.6,0.1 1.3,0.1 2,0.1 h 0.4 c 0.2,0 0.4,0 0.7,0 1.1,0.1 2.4,0 3.9,-0.1 h 0.1 c 0.1,0 0.1,0 0.2,0 0.9,-0.1 1.8,-0.2 2.6,-0.4 0.2,0 0.4,-0.1 0.7,-0.1 l 0.3,-0.1 c 0.6,-0.1 1.2,-0.3 1.8,-0.5 0.4,-0.1 0.8,-0.3 1.2,-0.4 l 0.2,-0.1 c 0.5,-0.2 1,-0.3 1.4,-0.5 0.3,-0.1 0.6,-0.3 0.9,-0.4 l 0.4,-0.2 c 0.5,-0.2 1,-0.5 1.6,-0.8 l 0.2,-0.1 c 3.2,-1.7 6.1,-3.8 8.7,-6.3 0.7,-0.6 1.3,-1.4 1.8,-2.2 2.7,-4.3 4.4,-9.1 5.2,-14.1 0.1,-0.6 0.2,-1.3 0.2,-2 0,-0.6 0.1,-1.2 0.1,-1.9 0,0 0,-0.2 0,-0.3 0,-0.1 0,-0.2 0,-0.3 0,-0.3 0,-0.6 0,-0.8 v -0.6 c 0,-0.9 -0.1,-1.7 -0.2,-2.5 -0.1,-1 -0.3,-1.8 -0.4,-2.6 -0.1,-0.5 -0.2,-0.9 -0.4,-1.4 L 151,129 c -0.2,-0.7 -0.4,-1.4 -0.6,-2.1 -0.2,-0.5 -0.3,-0.9 -0.5,-1.4 -0.4,-1.1 -0.9,-2.1 -1.5,-3.3 l -0.1,-0.2 c -0.9,-1.5 -1.9,-3 -3,-4.4 -0.1,-0.1 -0.1,-0.2 -0.3,-0.3 -0.5,-0.6 -1,-1.2 -1.5,-1.6 -0.2,-0.2 -0.5,-0.5 -0.7,-0.7 l -0.1,-0.1 c -0.3,-0.3 -0.7,-0.6 -1,-0.9 -0.4,-0.4 -0.8,-0.7 -1.3,-1.1 l -0.5,-0.4 c -5.3,-3.9 -11.8,-6.1 -18.3,-6.1 -0.2,0 -0.4,0 -0.6,0 h -0.1 c -0.1,0 -0.2,0 -0.3,0 -0.8,0 -1.5,0.1 -2.2,0.1 -0.4,0 -0.8,0.1 -1.2,0.1 -1.1,0.1 -2.2,0.4 -3.3,0.6 -7.9,2.1 -14.6,7.1 -18.8,14.2 -4.2,7.1 -5.3,15.4 -3.3,23.3 2.6,10.9 11,19.3 21.9,22.1 z"
       id="path2818"
       inkscape:connector-curvature="0" /></g><path
     class="st4"
     d="m 246.72417,84.626222 h -6.0083 c -7.11509,0 -13.59771,-4.427163 -16.12752,-11.067908 -0.63246,-1.58113 -1.26491,-3.004147 -1.89736,-4.427164 -3.00415,-6.482636 -1.58112,-14.230172 3.47849,-19.289788 l 4.26905,-4.26905 c 0.94868,-0.948679 1.42301,-2.055469 1.42301,-3.320374 0,-1.264903 -0.47433,-2.529807 -1.42301,-3.320372 L 214.94346,23.436494 c -0.94868,-0.948678 -2.05547,-1.423016 -3.32038,-1.423016 -1.2649,0 -2.52981,0.474338 -3.32037,1.423016 l -4.26905,4.269051 c -3.32037,3.162259 -7.58942,5.059615 -12.1747,5.059615 -2.52981,0 -4.9015,-0.474339 -7.11508,-1.58113 -1.42302,-0.632451 -3.00415,-1.264903 -4.42717,-1.897355 -6.64074,-2.529808 -11.0679,-9.012441 -11.0679,-16.127525 V 6.9927441 c 0,-2.5298076 -2.05547,-4.7433893 -4.7434,-4.7433893 h -21.9777 c -2.52981,0 -4.74339,2.0554687 -4.74339,4.7433893 v 6.0082929 c 0,7.115084 -4.58527,13.597716 -11.06791,16.127525 -1.58113,0.632452 -3.00415,1.264903 -4.42716,1.897355 -2.21358,1.106792 -4.58528,1.58113 -7.11509,1.58113 -4.58528,0 -8.85432,-1.739243 -12.17469,-5.059615 l -4.269053,-4.269051 c -0.948679,-0.948678 -2.055473,-1.423017 -3.320381,-1.423017 -1.264898,0 -2.529807,0.474339 -3.32037,1.423017 L 76.594594,38.773453 c -0.948677,0.948678 -1.423017,2.055469 -1.423017,3.320373 0,1.264904 0.47434,2.529807 1.423017,3.320373 l 4.269051,4.26905 c 5.059615,5.059615 6.324523,12.807151 3.478486,19.289788 -0.632453,1.423017 -1.264904,3.004147 -1.897356,4.427164 -2.529807,6.640745 -9.01244,11.067909 -16.127524,11.067909 h -6.008294 c -2.529807,0 -4.743389,2.055468 -4.743389,4.743389 v 22.135821 c 0,2.68792 2.055469,4.74339 4.743389,4.74339 h 6.008294 c 7.115084,0 13.597717,4.42716 16.127524,11.0679 0.632452,1.58113 1.264903,3.00415 1.897356,4.42717 3.004152,6.48263 1.581129,14.23017 -3.478486,19.28978 l -4.269051,4.26905 c -1.897355,1.89736 -1.897355,4.90151 0,6.64075 l 15.495072,15.49507 c 0.948678,0.94868 2.055472,1.42301 3.32037,1.42301 1.264908,0 2.529806,-0.47433 3.320381,-1.42301 l 4.269053,-4.26905 c 3.32037,-3.16227 7.58941,-5.05961 12.17469,-5.05961 2.52981,0 4.90151,0.47433 7.11509,1.58112 1.42301,0.63245 3.00415,1.2649 4.42716,1.89736 6.64074,2.52981 11.06791,9.01243 11.06791,16.12752 v 6.0083 c 0,2.68791 2.05547,4.74338 4.74339,4.74338 h 21.9777 c 2.68793,0 4.7434,-2.05547 4.7434,-4.74338 v -6.0083 c 0,-7.11509 4.42716,-13.59771 11.0679,-16.12752 1.58113,-0.63246 3.00415,-1.26491 4.42717,-1.89736 2.21358,-1.10679 4.58527,-1.58112 7.11508,-1.58112 4.58528,0 8.85433,1.73924 12.1747,5.05961 l 4.26905,4.26905 c 0.94868,0.94868 2.05547,1.42301 3.32037,1.42301 1.26491,0 2.52982,-0.47433 3.32038,-1.42301 l 15.49507,-15.49507 c 1.89735,-1.89736 1.89735,-4.90151 0,-6.64075 l -4.26905,-4.26905 c -5.05961,-5.05961 -6.32452,-12.80715 -3.47849,-19.28978 0.63245,-1.42302 1.2649,-3.00415 1.89736,-4.42717 2.52981,-6.64074 9.01243,-11.0679 16.12752,-11.0679 h 6.0083 c 2.68791,0 4.74338,-2.05547 4.74338,-4.74339 V 89.369612 c 0,-2.68792 -2.05547,-4.74339 -4.74338,-4.74339 z m -43.16484,16.601868 c 0,0.94867 0,2.05546 -0.15812,3.00414 -0.15811,1.10679 -0.15811,2.21358 -0.31623,3.32037 -1.2649,8.22188 -3.95282,15.8113 -8.37998,22.92638 -0.79057,1.42303 -1.89736,2.68793 -3.00415,3.79472 -4.26905,4.11093 -9.01245,7.4313 -14.23017,10.27734 l -0.15812,0.15811 v 0 c -0.79056,0.47435 -1.73924,0.79057 -2.52981,1.26491 l -0.63244,0.31622 c -0.47434,0.31623 -1.1068,0.47435 -1.58113,0.79057 -0.79057,0.31623 -1.58113,0.63246 -2.37169,0.79056 l -0.31623,0.15811 c -0.63245,0.15812 -1.26491,0.47435 -1.89736,0.63246 -0.94868,0.31622 -2.05547,0.47434 -3.00414,0.79057 l -0.47435,0.1581 c -0.31623,0.15812 -0.79056,0.15812 -1.10679,0.31623 -1.42301,0.31623 -2.84602,0.47435 -4.11093,0.63245 -0.31623,0 -0.47434,0 -0.63245,0 -1.73924,0.15812 -3.32038,0.31623 -4.90151,0.31623 -0.63245,0 -1.10678,0 -1.58113,-0.15811 -0.31623,0 -0.63245,0 -0.94868,0 h -0.63245 c -1.10679,0 -2.21358,-0.15812 -3.32037,-0.15812 -1.89735,-0.31622 -3.95283,-0.63245 -5.85018,-1.10678 h -0.15812 -0.1581 c -17.70866,-4.58528 -31.46449,-18.34111 -36.04976,-36.04976 -3.32038,-12.96527 -1.42303,-26.562986 5.37584,-38.105234 6.79886,-11.542252 17.70865,-19.764127 30.67392,-23.0845 1.73924,-0.474338 3.6366,-0.790565 5.37584,-0.948677 0.63245,-0.158113 1.2649,-0.158113 1.89735,-0.158113 1.26491,-0.158113 2.3717,-0.158113 3.6366,-0.158113 0.15811,0 0.47434,0 0.63246,0 0.31622,0 0.63245,0 0.94866,0 10.75169,0 21.34526,3.478485 29.88336,9.961117 l 0.94868,0.632452 c 0.79056,0.632452 1.42302,1.106792 2.05547,1.739243 0.63245,0.474339 1.10679,0.948679 1.73924,1.58113 l 0.15812,0.158114 c 0.31623,0.316225 0.79056,0.790564 1.10679,1.10679 0.79056,0.790565 1.58113,1.739248 2.37169,2.687926 0.31623,0.316225 0.47434,0.474338 0.47434,0.632452 1.89735,2.213581 3.6366,4.743389 5.05962,7.273196 l 0.1581,0.316226 c 0.94868,1.897356 1.73925,3.636599 2.52982,5.375841 0.31622,0.790565 0.63245,1.58113 0.79056,2.371695 0.31622,1.106792 0.79057,2.213582 1.10679,3.478486 l 0.15811,0.474339 c 0.15812,0.790565 0.47435,1.581129 0.63246,2.213582 0.31622,1.264904 0.47434,2.529807 0.63245,4.26905 0.15812,1.264904 0.31622,2.687921 0.31622,3.952825 v 0.790565 c 0,0.474338 0,0.948678 0,1.581128 -0.1581,-0.94868 -0.1581,-0.31622 -0.1581,-0.31622 z"
     id="path2822"
     inkscape:connector-curvature="0"
     style="fill:#a6d100;stroke-width:1.58112991" /><path
     class="st5"
     d="m 246.72417,84.626222 h -6.0083 c -7.11509,0 -13.59771,-4.427163 -16.12752,-11.067908 -0.63246,-1.58113 -1.26491,-3.004147 -1.89736,-4.427164 -3.00415,-6.482636 -1.58112,-14.230172 3.47849,-19.289788 l 4.26905,-4.26905 c 0.94868,-0.948679 1.42301,-2.055469 1.42301,-3.320374 0,-1.264903 -0.47433,-2.529807 -1.42301,-3.320372 L 214.94346,23.436494 c -0.94868,-0.948678 -2.05547,-1.423016 -3.32038,-1.423016 -1.2649,0 -2.52981,0.474338 -3.32037,1.423016 l -4.26905,4.269051 c -3.32037,3.162259 -7.58942,5.059615 -12.1747,5.059615 0,0 0,0 0,0 13.75583,12.1747 47.90823,49.963707 18.34111,105.30325 -20.23847,37.94711 -60.24104,39.21202 -77.79159,37.78901 3.16226,3.16225 5.21773,7.58942 5.21773,12.17469 v 6.0083 c 0,2.68792 2.05546,4.74339 4.74339,4.74339 h 21.9777 c 2.68792,0 4.74339,-2.05547 4.74339,-4.74339 v -6.0083 c 0,-7.11508 4.42717,-13.59772 11.06791,-16.12752 1.58113,-0.63245 3.00415,-1.2649 4.42716,-1.89736 2.21359,-1.10678 4.58528,-1.58113 7.11509,-1.58113 4.58528,0 8.85432,1.73924 12.17469,5.05961 l 4.26905,4.26905 c 0.94868,0.94868 2.05548,1.42303 3.32038,1.42303 1.2649,0 2.52981,-0.47435 3.32037,-1.42303 l 15.49507,-15.49507 c 1.89736,-1.89735 1.89736,-4.90149 0,-6.64074 l -4.26905,-4.26904 c -5.05961,-5.05963 -6.32452,-12.80716 -3.47848,-19.2898 0.63245,-1.42301 1.26491,-3.00414 1.89736,-4.42716 2.5298,-6.64074 9.01244,-11.06791 16.12752,-11.06791 h 6.00829 c 2.68793,0 4.74339,-2.05547 4.74339,-4.74339 V 89.843951 c 0,-0.948679 -0.31622,-1.897356 -0.79057,-2.687921 l -2.68792,-1.897355 c -0.15811,-0.632453 -0.63245,-0.632453 -1.10678,-0.632453 z"
     id="path2824"
     inkscape:connector-curvature="0"
     style="fill:#89ab00;stroke-width:1.58112991" /><g
     id="g2828"
     transform="matrix(1.5811298,0,0,1.5811298,-38.511655,-116.33539)"><path
       d="m 128.3,200.1 h -13.9 c -2.2,0 -4,-1.8 -4,-4 v -3.8 c 0,-4.1 -2.6,-7.8 -6.4,-9.3 -1,-0.4 -2,-0.8 -2.9,-1.2 -1.3,-0.6 -2.7,-0.9 -4.1,-0.9 -2.6,0 -5.1,1 -7,2.9 l -2.7,2.7 c -1.5,1.5 -4.1,1.5 -5.6,0 l -9.8,-9.8 c -1.6,-1.6 -1.6,-4.1 0,-5.6 l 2.7,-2.7 c 2.9,-2.9 3.7,-7.4 2,-11.1 -0.4,-0.9 -0.8,-1.9 -1.2,-2.9 -1.5,-3.8 -5.2,-6.4 -9.3,-6.4 h -3.8 c -2.2,0 -4,-1.8 -4,-4 v -13.9 c 0,-2.2 1.8,-4 4,-4 h 3.8 c 4.1,0 7.8,-2.6 9.3,-6.4 0.4,-1 0.8,-1.9 1.2,-2.9 1.7,-3.7 0.9,-8.2 -2,-11.1 L 71.9,103 c -0.8,-0.8 -1.2,-1.8 -1.2,-2.8 0,-1.1 0.4,-2.1 1.2,-2.8 l 9.8,-9.8 c 0.7,-0.8 1.8,-1.2 2.8,-1.2 1,0 2.1,0.4 2.8,1.2 l 2.7,2.7 c 1.9,1.8 4.3,2.9 7,2.9 1.4,0 2.8,-0.3 4.1,-0.9 0.9,-0.4 1.9,-0.8 2.9,-1.2 3.8,-1.5 6.4,-5.2 6.4,-9.3 V 78 c 0,-2.2 1.8,-4 4,-4 h 13.9 c 2.2,0 4,1.8 4,4 v 3.8 c 0,4.1 2.6,7.8 6.4,9.3 1,0.4 2,0.8 2.9,1.2 1.3,0.6 2.7,0.9 4.1,0.9 2.6,0 5.1,-1 7,-2.9 l 2.7,-2.7 c 1.5,-1.5 4.1,-1.5 5.6,0 l 9.8,9.8 c 0.8,0.8 1.2,1.8 1.2,2.8 0,1.1 -0.4,2.1 -1.2,2.8 l -2.7,2.7 c -2.9,2.9 -3.7,7.4 -2,11.1 0.4,1 0.8,1.9 1.2,2.9 1.5,3.8 5.2,6.4 9.3,6.4 h 3.8 c 2.2,0 4,1.8 4,4 V 144 c 0,2.2 -1.8,4 -4,4 h -3.8 c -4.1,0 -7.8,2.6 -9.3,6.4 -0.4,1 -0.8,1.9 -1.2,2.9 -1.7,3.7 -0.9,8.2 2,11.1 l 2.7,2.7 c 1.6,1.6 1.6,4.1 0,5.6 l -9.8,9.8 c -1.5,1.5 -4.1,1.5 -5.6,0 l -2.7,-2.7 c -1.9,-1.8 -4.3,-2.9 -7,-2.9 -1.4,0 -2.8,0.3 -4.1,0.9 -1,0.4 -1.9,0.8 -2.9,1.2 -3.8,1.5 -6.4,5.2 -6.4,9.3 v 3.8 c 0,2.2 -1.8,4 -4,4 z M 97,179 c 1.7,0 3.4,0.4 4.9,1.1 0.9,0.4 1.8,0.8 2.8,1.2 4.6,1.7 7.6,6.2 7.7,11.1 v 3.8 c 0,1.1 0.9,2 2,2 h 13.9 c 1.1,0 2,-0.9 2,-2 v -3.8 c 0,-4.9 3.1,-9.3 7.7,-11.1 0.9,-0.4 1.9,-0.7 2.8,-1.2 1.5,-0.7 3.2,-1.1 4.9,-1.1 3.2,0 6.1,1.2 8.4,3.4 l 2.7,2.7 c 0.8,0.8 2.1,0.8 2.8,0 l 9.8,-9.8 c 0.8,-0.8 0.8,-2.1 0,-2.8 l -2.7,-2.7 c -3.5,-3.5 -4.4,-8.8 -2.4,-13.3 0.4,-0.9 0.8,-1.9 1.2,-2.8 1.8,-4.6 6.2,-7.7 11.1,-7.7 h 3.8 c 1.1,0 2,-0.9 2,-2 v -13.9 c 0,-1.1 -0.9,-2 -2,-2 h -3.8 c -4.9,0 -9.4,-3.1 -11.1,-7.7 -0.4,-0.9 -0.7,-1.9 -1.2,-2.8 -2,-4.5 -1.1,-9.8 2.4,-13.3 l 2.7,-2.7 c 0.4,-0.4 0.6,-0.9 0.6,-1.4 0,-0.5 -0.2,-1 -0.6,-1.4 L 159.6,89 c -0.8,-0.7 -2.1,-0.7 -2.8,0 l -2.7,2.7 c -2.2,2.2 -5.2,3.4 -8.4,3.4 -1.7,0 -3.4,-0.4 -4.9,-1.1 -0.9,-0.4 -1.8,-0.8 -2.8,-1.2 -4.6,-1.7 -7.7,-6.2 -7.7,-11.1 V 78 c 0,-1.1 -0.9,-2 -2,-2 h -13.9 c -1.1,0 -2,0.9 -2,2 v 3.8 c 0,4.9 -3.1,9.4 -7.7,11.1 -0.9,0.4 -1.9,0.8 -2.8,1.2 -1.6,0.7 -3.2,1.1 -4.9,1.1 -3.2,0 -6.1,-1.2 -8.4,-3.4 l -2.7,-2.7 c -0.8,-0.8 -2.1,-0.8 -2.8,0 l -9.8,9.8 c -0.4,0.4 -0.6,0.9 -0.6,1.4 0,0.5 0.2,1 0.6,1.4 l 2.7,2.7 c 3.5,3.5 4.4,8.8 2.4,13.3 -0.4,0.9 -0.8,1.9 -1.2,2.8 -1.7,4.6 -6.2,7.7 -11.1,7.7 h -3.8 c -1.1,0 -2,0.9 -2,2 V 144 c 0,1.1 0.9,2 2,2 h 3.8 c 4.9,0 9.4,3.1 11.1,7.7 0.4,0.9 0.7,1.9 1.2,2.8 2,4.5 1.1,9.8 -2.4,13.3 l -2.7,2.7 c -0.8,0.8 -0.8,2.1 0,2.8 l 9.8,9.8 c 0.8,0.8 2.1,0.8 2.8,0 l 2.7,-2.7 c 2.3,-2.2 5.3,-3.4 8.4,-3.4 z"
       id="path2826"
       inkscape:connector-curvature="0" /></g><g
     id="g2832"
     transform="matrix(1.5811298,0,0,1.5811298,-38.511655,-116.33539)"><path
       d="m 121.4,169.8 c -0.4,0 -0.7,0 -1.1,-0.1 -0.2,0 -0.4,0 -0.6,0 h -0.4 c -0.7,0 -1.4,-0.1 -2.1,-0.2 -1.2,-0.2 -2.5,-0.4 -3.7,-0.7 l -0.3,-0.1 c -11.5,-3 -20.6,-12 -23.5,-23.5 -2.2,-8.5 -0.9,-17.3 3.5,-24.8 4.4,-7.5 11.6,-12.9 20,-15.1 1.2,-0.3 2.4,-0.5 3.5,-0.7 0.4,-0.1 0.8,-0.1 1.2,-0.1 0.8,-0.1 1.5,-0.1 2.3,-0.1 0.1,0 0.2,0 0.2,0 h 0.1 c 0.2,0 0.5,0 0.7,0 7,0 13.9,2.3 19.5,6.5 l 0.6,0.4 c 0.5,0.4 0.9,0.8 1.4,1.1 0.4,0.3 0.7,0.6 1.1,1 l 0.1,0.1 c 0.3,0.3 0.5,0.5 0.8,0.8 0.5,0.5 1,1 1.6,1.7 0.2,0.2 0.3,0.3 0.3,0.4 1.2,1.5 2.3,3.1 3.3,4.8 l 0.1,0.2 c 0.6,1.2 1.2,2.3 1.6,3.5 0.2,0.5 0.4,1 0.6,1.5 0.3,0.8 0.5,1.5 0.7,2.2 l 0.1,0.3 c 0.1,0.5 0.3,1 0.4,1.5 0.2,0.8 0.3,1.7 0.4,2.8 0.1,0.8 0.2,1.7 0.2,2.6 v 0.4 c 0,0.4 0,0.7 0,1 0,0.1 0,0.2 0,0.4 v 0.2 h -1 1 c 0,0.7 -0.1,1.3 -0.1,2 -0.1,0.8 -0.2,1.5 -0.2,2.1 -0.8,5.3 -2.6,10.3 -5.4,14.9 -0.6,0.9 -1.3,1.8 -2.1,2.6 -2.7,2.6 -5.9,4.9 -9.2,6.7 l -0.4,0.2 c -0.5,0.2 -0.9,0.5 -1.4,0.7 l -0.4,0.2 c -0.4,0.2 -0.7,0.3 -1.1,0.5 -0.5,0.2 -1,0.4 -1.5,0.5 l -0.2,0.1 c -0.4,0.1 -0.8,0.3 -1.3,0.4 -0.7,0.2 -1.3,0.3 -1.9,0.5 l -0.3,0.1 c -0.2,0.1 -0.5,0.1 -0.7,0.2 -0.9,0.2 -1.8,0.3 -2.7,0.4 -0.2,0 -0.3,0 -0.5,0.1 -1.2,-0.3 -2.2,-0.2 -3.2,-0.2 z m -7.7,-3 h 0.2 c 1.2,0.3 2.4,0.5 3.6,0.7 0.6,0.1 1.3,0.1 2,0.1 h 0.4 c 0.2,0 0.4,0 0.7,0 1.1,0.1 2.4,0 3.9,-0.1 h 0.1 c 0.1,0 0.1,0 0.2,0 0.9,-0.1 1.8,-0.2 2.6,-0.4 0.2,0 0.4,-0.1 0.7,-0.1 l 0.3,-0.1 c 0.6,-0.1 1.2,-0.3 1.8,-0.5 0.4,-0.1 0.8,-0.3 1.2,-0.4 l 0.2,-0.1 c 0.5,-0.2 1,-0.3 1.4,-0.5 0.3,-0.1 0.6,-0.3 0.9,-0.4 l 0.4,-0.2 c 0.5,-0.2 1,-0.5 1.6,-0.8 l 0.2,-0.1 c 3.2,-1.7 6.1,-3.8 8.7,-6.3 0.7,-0.6 1.3,-1.4 1.8,-2.2 2.7,-4.3 4.4,-9.1 5.2,-14.1 0.1,-0.6 0.2,-1.3 0.2,-2 0,-0.6 0.1,-1.2 0.1,-1.9 v 0 c 0,-0.1 0,-0.2 0,-0.3 0,-0.1 0,-0.2 0,-0.3 0,-0.3 0,-0.6 0,-0.8 v -0.5 c 0,-0.9 -0.1,-1.7 -0.2,-2.5 -0.1,-1 -0.3,-1.8 -0.4,-2.6 -0.1,-0.5 -0.2,-0.9 -0.4,-1.4 H 151 c -0.2,-0.7 -0.4,-1.4 -0.6,-2.1 -0.2,-0.5 -0.3,-0.9 -0.5,-1.4 -0.4,-1.1 -0.9,-2.1 -1.5,-3.3 l -0.1,-0.2 c -0.9,-1.5 -1.9,-3 -3,-4.4 -0.1,-0.1 -0.1,-0.2 -0.3,-0.3 -0.5,-0.6 -1,-1.2 -1.5,-1.6 -0.2,-0.2 -0.5,-0.5 -0.7,-0.7 l -0.1,-0.1 c -0.3,-0.3 -0.7,-0.6 -1,-0.9 -0.4,-0.4 -0.8,-0.7 -1.3,-1.1 l -0.5,-0.4 c -5.3,-3.9 -11.8,-6.1 -18.3,-6.1 -0.2,0 -0.4,0 -0.6,0 h -0.1 c -0.1,0 -0.2,0 -0.3,0 -0.8,0 -1.5,0.1 -2.2,0.1 -0.4,0 -0.8,0.1 -1.2,0.1 -1.1,0.1 -2.2,0.4 -3.3,0.6 -7.9,2.1 -14.6,7.1 -18.8,14.2 -4.2,7.1 -5.3,15.4 -3.3,23.3 2.6,10.9 11,19.3 21.9,22.1 z"
       id="path2830"
       inkscape:connector-curvature="0" /></g></g><path
   style="fill:none;stroke:#ffffff;stroke-width:10;stroke-linecap:butt;stroke-linejoin:miter;stroke-miterlimit:4;stroke-dasharray:none;stroke-opacity:1"
   d="M 251.01167,57.854928 C 238.67483,57.346153 226.66531,61.81882 217.06762,69.45113 204.81103,77.52715 190.08416,83.05822 175.13698,80.94704 151.42164,80.13213 127.44685,84.1526 103.97456,79.59516 86.24503,74.29303 72.367917,58.01157 52.84956,58.55805 40.440178,58.0866 27.234997,63.59339 20.372998,74.15962 c -3.215771,4.99855 0.283547,12.27905 6.464843,12.07421 8.597668,0.49071 17.370095,-0.38079 25.794922,0.57422 -0.339432,7.85935 1.141303,16.52489 -0.548828,23.87501 -10.1807,0.99569 -22.346128,-4.0634 -31.078125,3.15429 -4.839839,6.4742 1.558156,14.30241 7.183594,17.7168 12.947872,9.62946 32.007975,12.40539 45.759545,2.77759 13.398651,-7.89991 27.181181,-17.24055 43.254121,-15.99046 27.38607,-0.68338 54.97863,-2.50016 82.22461,0.56053 15.92894,5.06335 27.78981,20.3453 45.52344,20.15429 10.98252,1.19119 21.4013,-3.49124 29.80274,-10.23046 5.52211,-3.31183 10.23303,-12.11248 4.10351,-17.08789 -5.90389,-3.87064 -13.32403,-1.10408 -19.89453,-1.6211 -3.48685,-0.0546 -10.23159,2.82282 -11.54102,-1.89648 0.89089,-6.72511 -0.25319,-13.59854 0.74219,-20.25391 2.86283,-3.51924 8.66743,-0.6145 12.60742,-1.38868 6.54731,-0.35728 16.06579,1.44296 19.81446,-5.49218 3.03693,-6.10048 -1.95463,-11.99282 -6.83594,-15.1543 -6.41589,-5.07387 -14.47479,-8.344454 -22.73828,-8.076172 z"
   id="path4357-1"
   inkscape:connector-curvature="0" /><path
   style="fill:#17b5c8;stroke-width:1.80909526"
   id="path3590"
   d="m 52.932795,64.257987 c -11.757458,-0.197629 -22.339946,5.052527 -29.178603,13.622449 -2.216218,2.676769 -0.29643,6.870565 3.32125,6.931366 l 24.419336,0.410485 c 2.351491,0.03965 4.307768,2.062691 4.268239,4.414192 l -0.39224,23.334041 c -0.03953,2.35148 -2.0627,4.30775 -4.414191,4.26822 l -24.419335,-0.41048 c -3.61768,-0.0608 -5.677336,4.06607 -3.552339,6.81582 6.72764,8.79798 17.305535,14.58479 29.427801,14.60762 7.600166,-0.0532 14.69721,-2.46697 20.733274,-6.34608 l 17.173366,-9.84368 c 7.124417,-4.04175 15.119797,-6.07858 23.259567,-5.94174 l 19.89724,0.33447 0.48346,-28.760539 -20.80166,-0.349684 C 105.37995,87.213646 97.81627,85.096265 91.187423,81.185198 L 72.193119,70.190751 v 0 C 66.646529,66.478814 59.98727,64.376575 52.932795,64.257987 Z"
   class="st1"
   inkscape:connector-curvature="0" /><path
   style="fill:#17b5c8;stroke-width:1.80909526"
   id="path3590-3"
   d="m 246.52883,63.48827 c 11.75746,-0.19764 22.33994,5.052516 29.1786,13.622448 2.21622,2.676759 0.29642,6.870545 -3.32126,6.931356 l -24.41932,0.410475 c -2.35151,0.03965 -4.30778,2.062712 -4.26824,4.414191 l 0.39223,23.33404 c 0.0396,2.3515 2.0627,4.30776 4.41419,4.26824 l 24.41934,-0.41049 c 3.61767,-0.0608 5.67734,4.06606 3.55234,6.81582 -6.72764,8.79797 -17.30553,14.58478 -29.4278,14.60761 -7.60017,-0.0532 -14.69721,-2.46697 -20.73328,-6.34607 l -17.17337,-9.84369 c -7.12441,-4.04175 -15.11979,-6.07856 -23.25957,-5.94173 l -53.48997,-0.11542 -0.63343,-27.260855 54.54436,-1.399465 c 7.77802,-0.130801 15.34169,-2.248161 21.97054,-6.15925 L 227.2685,69.421034 v 0 c 5.54659,-3.711938 12.20585,-5.814165 19.26033,-5.932743 z"
   class="st1"
   inkscape:connector-curvature="0"
   sodipodi:nodetypes="scccssscccccsccccccs" /><path
   inkscape:connector-curvature="0"
   class="st2"
   d="m 185.87965,115.16957 -19.71636,0.33143 -0.15812,-9.40596 c 0,0 27.48221,-1.18571 40.15625,-0.67502 12.67404,0.51068 22.70327,15.90252 34.70547,19.50039 12.00219,3.5979 20.66483,-8.48944 20.66483,-8.48944 l 4.33817,-0.25385 7.05447,-0.11868 c 1.98972,-0.0335 3.45809,1.20842 4.0281,2.82726 0.0242,1.44705 -0.30704,3.26198 -1.71762,5.45692 -4.96746,5.87342 -11.77111,10.14929 -19.51871,12.08887 -10.38203,1.59883 -22.25777,-0.39416 -27.75734,-4.41865 -0.54874,-0.35264 -1.09747,-0.70528 -1.6462,-1.05793 l -17.17338,-9.84368 c -4.38682,-2.64029 -9.30109,-4.36703 -14.38105,-5.1863 v 0 l -0.18089,0.003 c -2.72542,-0.67794 -5.80348,-0.80713 -8.69763,-0.75848 z"
   id="path3596-6"
   style="fill:#11828f;stroke-width:1.80909526"
   sodipodi:nodetypes="cccsccccccccccccccc" /><path
   inkscape:connector-curvature="0"
   class="st2"
   d="m 113.58196,115.93931 52.58133,-0.43831 -0.15812,-9.40596 c 0,0 -60.03094,-0.41598 -72.70498,0.0946 -12.67404,0.51069 -22.703269,15.90252 -34.705464,19.5004 C 46.592531,129.28793 37.9299,117.2006 37.9299,117.2006 l -4.338175,-0.25386 -7.054474,-0.11868 c -1.989724,-0.0335 -3.45808,1.20843 -4.028097,2.82726 -0.02433,1.44706 0.307036,3.26198 1.71762,5.45692 4.967452,5.87342 11.771108,10.14929 19.51871,12.08887 11.082956,2.91589 22.460019,-1.1146 27.757344,-4.41864 l 1.646198,-1.05794 17.173367,-9.84368 c 4.386827,-2.64029 9.301097,-4.36703 14.381057,-5.1863 v 0 l 0.18089,0.003 c 2.72542,-0.67795 5.80348,-0.80713 8.69763,-0.75848 z"
   id="path3596"
   style="fill:#11828f;stroke:none;stroke-width:1.80909526"
   sodipodi:nodetypes="cccsccccccccccccccc" /><path
   style="fill:none;stroke:#000000;stroke-width:2;stroke-linecap:butt;stroke-linejoin:miter;stroke-opacity:1;stroke-miterlimit:4;stroke-dasharray:none"
   d="m 275.23484,124.34262 c -4.46015,5.32154 -15.81219,11.0942 -19.51871,12.08887 -3.70652,0.99468 -17.93196,1.28288 -23.88808,-1.84557 -5.95612,-3.12845 -10.04172,-5.8992 -14.99676,-8.84808 -4.95505,-2.94888 -10.74803,-6.5873 -15.29669,-8.2482 -4.54868,-1.66092 -14.39144,-1.85073 -28.49384,-2.09957 -14.10242,-0.24885 -43.19317,0.39731 -55.48801,0.8998 -12.29484,0.5025 -12.2045,0.71102 -18.59598,2.39949 -6.39149,1.68845 -12.004407,5.21301 -17.696175,8.39817 -5.691764,3.18516 -9.757767,6.29493 -17.246271,9.59794 -7.488505,3.30302 -17.141846,1.35333 -24.144781,-0.8998 -7.002935,-2.25314 -14.028092,-8.30645 -15.642769,-10.67333 -1.614677,-2.36687 -3.390023,-6.42494 1.695783,-8.2226 5.085809,-1.79764 19.926679,-0.0224 23.994814,0 4.068136,0.0224 6.029355,-0.31078 6.14867,-4.19908 0.11931,-3.88829 -0.0367,-20.062591 0,-24.29475 0.0367,-4.23216 -0.970282,-3.35169 -3.299287,-3.599218 -2.329004,-0.247518 -21.112588,-0.562984 -26.007577,-0.4279 -4.894988,0.135136 -4.981679,-4.521159 -3.086134,-7.07049 1.895545,-2.54932 9.20382,-8.944074 15.896564,-11.097597 6.692744,-2.153533 15.991684,-1.833636 22.795073,-0.299933 6.803387,1.533693 11.345822,5.450111 17.096305,8.398179 5.750483,2.948067 12.416588,7.311313 17.396235,9.297987 4.97965,1.986675 5.80769,2.363386 11.99741,3.299306 6.18971,0.93592 15.66014,0.763056 25.10499,0.797887 9.44484,0.03468 21.72955,-0.537268 31.54238,-0.769739 9.81282,-0.23247 18.8644,1.084222 27.33448,-0.628024 8.47006,-1.712257 17.90209,-6.563369 22.6451,-9.597943 4.74302,-3.034552 12.34733,-7.873345 16.6464,-9.897843 4.29907,-2.024508 18.33074,-3.957742 25.79443,-2.099552 7.46369,1.858199 13.90211,6.876064 17.39624,10.797663 3.49413,3.921589 0.58314,7.258845 -1.79961,8.3982 -2.38277,1.139343 -24.07533,0.538822 -25.19456,0.599855 -1.11923,0.06101 -4.47307,2.551382 -4.79896,4.199095 -0.3259,1.647702 -0.99515,23.628677 -0.29993,24.894627 0.69521,1.26595 4.30374,3.43287 5.39882,3.29929 1.0951,-0.13352 24.01665,-1.45688 25.49449,-0.89981 1.47784,0.55707 5.57607,3.03111 1.11594,8.35267 z"
   id="path4357"
   inkscape:connector-curvature="0"
   sodipodi:nodetypes="zzzzzzzzzzzzzzzzzzzzzzzzzzzzzzzzzzzzzz" /></svg>