<?xml version="1.0" encoding="UTF-8" standalone="no"?>
<!-- Generator: Adobe Illustrator 24.3.0, SVG Export Plug-In . SVG Version: 6.00 Build 0)  -->

<svg
   version="1.1"
   id="Capa_1"
   x="0px"
   y="0px"
   viewBox="0 0 300 200"
   style="enable-background:new 0 0 300 200;"
   xml:space="preserve"
   sodipodi:docname="event.svg"
   inkscape:version="1.1.2 (0a00cf5339, 2022-02-04)"
   xmlns:inkscape="http://www.inkscape.org/namespaces/inkscape"
   xmlns:sodipodi="http://sodipodi.sourceforge.net/DTD/sodipodi-0.dtd"
   xmlns="http://www.w3.org/2000/svg"
   xmlns:svg="http://www.w3.org/2000/svg"
   xmlns:rdf="http://www.w3.org/1999/02/22-rdf-syntax-ns#"
   xmlns:cc="http://creativecommons.org/ns#"
   xmlns:dc="http://purl.org/dc/elements/1.1/"><metadata
   id="metadata2743"><rdf:RDF><cc:Work
       rdf:about=""><dc:format>image/svg+xml</dc:format><dc:type
         rdf:resource="http://purl.org/dc/dcmitype/StillImage" /></cc:Work></rdf:RDF></metadata><defs
   id="defs2741">
	
	
	
	
	
	
	
	
	
	
	
	
	
	
	
	
</defs><sodipodi:namedview
   pagecolor="#ffffff"
   bordercolor="#666666"
   borderopacity="1"
   objecttolerance="10"
   gridtolerance="10"
   guidetolerance="10"
   inkscape:pageopacity="0"
   inkscape:pageshadow="2"
   inkscape:window-width="1920"
   inkscape:window-height="1011"
   id="namedview2739"
   showgrid="false"
   inkscape:pagecheckerboard="true"
   inkscape:zoom="2.1637468"
   inkscape:cx="184.40235"
   inkscape:cy="93.58766"
   inkscape:window-x="0"
   inkscape:window-y="32"
   inkscape:window-maximized="1"
   inkscape:current-layer="g1128" />
<style
   type="text/css"
   id="style2680">
	.st0{fill:#5F7993;}
	.st1{fill:#17B5C8;}
	.st2{fill:#11828F;}
	.st3{fill:#405162;}
	.st4{fill:#A6D100;}
	.st5{fill:#89AB00;}
	.st6{fill:#FFFFFF;}
	.st7{fill:none;stroke:#17B5C8;stroke-width:2;stroke-miterlimit:10;}
</style>

<path
   id="path6311"
   style="fill:#405162;fill-opacity:0.988833;stroke:#000000;stroke-width:3.66425;stroke-linecap:round;stroke-linejoin:round"
   d="m 86.995902,26.682979 c 4.579852,-3.094086 9.473453,-5.759037 14.623088,-7.937153 5.14965,-2.178117 10.55535,-3.8694 16.1594,-5.016155 5.60405,-1.146754 11.40645,-1.748979 17.34951,-1.748979 47.54448,2e-6 86.08688,38.542416 86.08688,86.086887 0,47.544471 -38.54241,86.086881 -86.08688,86.086881 -47.544475,0 -86.086889,-38.54241 -86.086889,-86.086881 0,-5.943059 0.602225,-11.745462 1.748979,-17.349511 1.146755,-5.604048 2.838038,-11.009745 5.016155,-16.159391 2.178117,-5.149647 4.843067,-10.043244 7.937154,-14.623096"
   sodipodi:nodetypes="cssssssssc" /><path
   id="path6311-7"
   style="fill:#5f7993;fill-opacity:0.988833;stroke-width:2.89301;stroke-linecap:round;stroke-linejoin:round"
   d="m 219.47812,97.955524 c 0,46.581056 -36.87113,78.868016 -83.45213,78.791386 -43.227339,-0.0711 -73.280234,-30.18069 -73.644667,-76.76033 -0.340965,-43.580055 31.83139,-80.142874 73.671227,-80.426533 46.57999,-0.315795 83.42557,31.81442 83.42557,78.395477 z"
   sodipodi:nodetypes="sssss" /><circle
   style="fill:#ffffff;fill-opacity:0.988833;stroke:#000000;stroke-width:3.56163;stroke-linecap:round;stroke-linejoin:round"
   id="path1285"
   cx="135.62968"
   cy="97.457283"
   r="67.593109" /><g
   id="g1128"
   transform="matrix(0.71070819,0,0,0.71070819,40.082838,28.51994)"><path
     id="path7015"
     style="fill:#89ab00;fill-opacity:0.988833;stroke:#000000;stroke-width:2.33753;stroke-linecap:round;stroke-linejoin:round"
     d="m 152.95066,158.57396 a 15.320176,15.320176 0 0 1 -15.32018,15.32017 15.320176,15.320176 0 0 1 -15.32017,-15.32017 15.320176,15.320176 0 0 1 15.32017,-15.32019 15.320176,15.320176 0 0 1 15.32018,15.32019 z" /><path
     style="fill:#a6d100;stroke:#000000;stroke-width:2.49581;stroke-linecap:butt;stroke-linejoin:miter;stroke-miterlimit:4;stroke-dasharray:none;stroke-opacity:1"
     d="m 155.63188,88.962491 c 3.52453,-16.755238 11.65932,-48.749411 3.80627,-58.751268 -7.79095,-8.778036 -35.04132,-9.706995 -43.12899,0.615398 -8.08767,10.322394 11.65692,107.015279 11.65692,107.015279 l 16.96807,0.55144 6.93878,-28.72706"
     id="path7072"
     sodipodi:nodetypes="cczccc" /></g><g
   id="g15300"
   transform="translate(30.993721,-5.0347095)"><path
     id="path15670"
     style="fill:#ffffff;fill-opacity:0.988833;stroke-width:4.07573;stroke-linecap:round;stroke-linejoin:round"
     d="m 171.78139,159.36218 c -27.29051,-5.00426 -45.19398,-22.94864 -45.19398,-52.49128 0,-29.542638 21.73635,-52.964541 50.91469,-52.964541 7.63394,10.500172 13.00031,22.27746 12.4328,29.788128 -16.88088,-3.514387 -30.66924,3.056392 -32.06295,18.964943 -1.39371,15.90855 14.10996,30.63679 31.3548,23.71198 -2.18311,10.90926 -10.93955,26.09235 -17.44536,32.99077 z"
     sodipodi:nodetypes="cscczcc" /><path
     class="st1"
     d="m 180.1,60.7 c -24.7,0 -44.7,20 -44.7,44.7 0,24.7 20,44.7 44.7,44.7 24.7,0 44.7,-20 44.7,-44.7 0,-24.7 -20,-44.7 -44.7,-44.7 z m 0,72.4 c -15.3,0 -27.7,-12.4 -27.7,-27.7 0,-15.3 12.4,-27.7 27.7,-27.7 15.3,0 27.7,12.4 27.7,27.7 0,15.3 -12.5,27.7 -27.7,27.7 z"
     id="path11236" /><g
     id="g11242"><path
       class="st2"
       d="m 184,132.8 c 1.3,0.2 2.6,0.3 3.9,0.3 15.3,0 27.7,-12.4 27.7,-27.7 0,-15.3 -12.4,-27.7 -27.7,-27.7 -1.3,0 -2.6,0.1 -3.9,0.3 13.4,1.9 23.8,13.4 23.8,27.4 0,14 -10.4,25.5 -23.8,27.4 z"
       id="path11238" /><path
       class="st2"
       d="m 143.1,105.4 c 0,-23.4 18,-42.6 40.8,-44.5 -1.3,-0.1 -2.6,-0.2 -3.9,-0.2 -24.7,0 -44.7,20 -44.7,44.7 0,24.7 20,44.7 44.7,44.7 1.3,0 2.6,-0.1 3.9,-0.2 -22.8,-1.9 -40.8,-21.1 -40.8,-44.5 z"
       id="path11240" /></g><path
     class="st0"
     d="m 253.6,178.2 -0.3,0.3 c -3.9,3.9 -10.3,3.9 -14.2,0 l -20.9,-20.9 c -1.8,-1.8 -1.8,-4.8 0,-6.6 l 7.9,-7.9 c 1.8,-1.8 4.8,-1.8 6.6,0 l 20.9,20.9 c 3.9,4 3.9,10.3 0,14.2 z"
     id="path11244" /><path
     class="st0"
     d="m 253.6,178.2 -0.3,0.3 c -3.9,3.9 -10.3,3.9 -14.2,0 l -20.9,-20.9 c -1.8,-1.8 -1.8,-4.8 0,-6.6 l 7.9,-7.9 c 1.8,-1.8 4.8,-1.8 6.6,0 l 20.9,20.9 c 3.9,4 3.9,10.3 0,14.2 z"
     id="path11246" /><path
     class="st3"
     d="m 253.7,164.1 -7,-7 c 3.9,3.9 3.9,10.2 0,14 l -0.5,0.5 c -3.9,3.9 -10.2,3.9 -14,0 l -13.9,-13.9 c 0,0 0,0 0,0 l 21,21 c 3.9,3.9 10.2,3.9 14,0 l 0.5,-0.5 c 3.8,-3.9 3.8,-10.2 -0.1,-14.1 z"
     id="path11248" /><g
     id="g11274"><g
       id="g11252"><path
         d="m 180.1,151.1 c -25.2,0 -45.7,-20.5 -45.7,-45.7 0,-25.2 20.5,-45.7 45.7,-45.7 25.2,0 45.7,20.5 45.7,45.7 0,25.2 -20.5,45.7 -45.7,45.7 z m 0,-89.4 c -24.1,0 -43.7,19.6 -43.7,43.7 0,24.1 19.6,43.7 43.7,43.7 24.1,0 43.7,-19.6 43.7,-43.7 0,-24.1 -19.6,-43.7 -43.7,-43.7 z"
         id="path11250" /></g><g
       id="g11256"><path
         d="m 199.1,86.3 c -0.2,0 -0.5,-0.1 -0.7,-0.3 -1,-1 -2.2,-1.9 -3.3,-2.7 -0.5,-0.3 -0.6,-0.9 -0.3,-1.4 0.3,-0.5 0.9,-0.6 1.4,-0.3 1.3,0.9 2.5,1.8 3.6,2.9 0.4,0.4 0.4,1 0,1.4 -0.2,0.3 -0.5,0.4 -0.7,0.4 z"
         id="path11254" /></g><g
       id="g11260"><path
         d="m 201.3,88.7 c -0.3,0 -0.6,-0.1 -0.8,-0.4 -0.7,-0.8 -1.4,-1.6 -2.2,-2.3 -0.4,-0.4 -0.4,-1 0,-1.4 0.4,-0.4 1,-0.4 1.4,0 0.8,0.8 1.6,1.6 2.3,2.5 0.4,0.4 0.3,1 -0.1,1.4 -0.1,0.1 -0.4,0.2 -0.6,0.2 z"
         id="path11258" /></g><g
       id="g11264"><path
         d="m 180.1,134 c -15.8,0 -28.7,-12.9 -28.7,-28.7 0,-15.8 12.9,-28.7 28.7,-28.7 3.7,0 7.3,0.7 10.8,2.1 0.5,0.2 0.8,0.8 0.5,1.3 -0.2,0.5 -0.8,0.7 -1.3,0.5 -3.2,-1.3 -6.6,-1.9 -10,-1.9 -14.7,0 -26.7,12 -26.7,26.7 0,14.7 12,26.7 26.7,26.7 14.7,0 26.7,-12 26.7,-26.7 0,-4.5 -1.1,-8.9 -3.3,-12.8 -0.3,-0.5 -0.1,-1.1 0.4,-1.3 0.5,-0.3 1.1,-0.1 1.3,0.4 2.3,4.2 3.5,9 3.5,13.8 0,15.8 -12.8,28.6 -28.6,28.6 z"
         id="path11262" /></g><g
       id="g11268"><path
         d="m 246.2,182.5 c -2.8,0 -5.6,-1.1 -7.7,-3.2 l -21,-21 c -2.2,-2.2 -2.2,-5.7 0,-7.9 l 8,-8 c 2.2,-2.2 5.7,-2.2 7.9,0 l 21,21 c 4.3,4.3 4.3,11.2 0,15.4 l -0.5,0.5 c -2.1,2.1 -4.9,3.2 -7.7,3.2 z m -16.7,-39.7 c -0.9,0 -1.8,0.4 -2.6,1.1 l -8,8 c -1.4,1.4 -1.4,3.7 0,5.1 l 21,21 c 3.5,3.5 9.1,3.5 12.6,0 l 0.5,-0.5 c 3.5,-3.5 3.5,-9.1 0,-12.6 l -21,-21 c -0.7,-0.7 -1.6,-1.1 -2.5,-1.1 z"
         id="path11266" /></g><g
       id="g11272"><path
         d="m 219.2,151.2 c -0.3,0 -0.5,-0.1 -0.7,-0.3 L 208,140.5 c -0.2,-0.2 -0.3,-0.5 -0.3,-0.7 0,-0.3 0.1,-0.5 0.4,-0.7 2.5,-2.1 4.8,-4.4 6.7,-7 0.2,-0.2 0.4,-0.4 0.7,-0.4 0.3,0 0.6,0.1 0.8,0.3 l 10.6,10.6 c 0.4,0.4 0.4,1 0,1.4 l -7,7 c -0.2,0.1 -0.5,0.2 -0.7,0.2 z m -9.1,-11.4 9,9 5.6,-5.6 -9.1,-9.1 c -1.6,2 -3.5,4 -5.5,5.7 z"
         id="path11270" /></g></g></g></svg>
