<?xml version="1.0" encoding="UTF-8" standalone="no"?>
<!-- Generator: Adobe Illustrator 24.3.0, SVG Export Plug-In . SVG Version: 6.00 Build 0)  -->

<svg
   version="1.1"
   id="Capa_1"
   x="0px"
   y="0px"
   viewBox="0 0 300 200"
   style="enable-background:new 0 0 300 200;"
   xml:space="preserve"
   sodipodi:docname="event-policy.svg"
   inkscape:version="1.1.2 (0a00cf5339, 2022-02-04)"
   xmlns:inkscape="http://www.inkscape.org/namespaces/inkscape"
   xmlns:sodipodi="http://sodipodi.sourceforge.net/DTD/sodipodi-0.dtd"
   xmlns="http://www.w3.org/2000/svg"
   xmlns:svg="http://www.w3.org/2000/svg"
   xmlns:rdf="http://www.w3.org/1999/02/22-rdf-syntax-ns#"
   xmlns:cc="http://creativecommons.org/ns#"
   xmlns:dc="http://purl.org/dc/elements/1.1/"><metadata
   id="metadata2743"><rdf:RDF><cc:Work
       rdf:about=""><dc:format>image/svg+xml</dc:format><dc:type
         rdf:resource="http://purl.org/dc/dcmitype/StillImage" /></cc:Work></rdf:RDF></metadata><defs
   id="defs2741">
	
	
	
	
	
	
	
	
	
	
	
	
	
	
	
	
</defs><sodipodi:namedview
   pagecolor="#ffffff"
   bordercolor="#666666"
   borderopacity="1"
   objecttolerance="10"
   gridtolerance="10"
   guidetolerance="10"
   inkscape:pageopacity="0"
   inkscape:pageshadow="2"
   inkscape:window-width="1920"
   inkscape:window-height="1011"
   id="namedview2739"
   showgrid="false"
   inkscape:pagecheckerboard="true"
   inkscape:zoom="3.06"
   inkscape:cx="150"
   inkscape:cy="99.836601"
   inkscape:window-x="0"
   inkscape:window-y="32"
   inkscape:window-maximized="1"
   inkscape:current-layer="Capa_1" />
<style
   type="text/css"
   id="style2680">
	.st0{fill:#5F7993;}
	.st1{fill:#17B5C8;}
	.st2{fill:#11828F;}
	.st3{fill:#405162;}
	.st4{fill:#A6D100;}
	.st5{fill:#89AB00;}
	.st6{fill:#FFFFFF;}
	.st7{fill:none;stroke:#17B5C8;stroke-width:2;stroke-miterlimit:10;}
</style>
<path
   style="fill:#5f7993"
   inkscape:connector-curvature="0"
   id="path2682"
   d="m 275.37583,43.237062 -12.2,-12.1 c -4.2,-4.2 -11.1,-4.2 -15.3,0 l -4,4 27.5,27.2 4,-4 c 4.2,-4.2 4.2,-11 0,-15.1 z"
   class="st0" /><path
   style="fill:#405162"
   inkscape:connector-curvature="0"
   id="path2684"
   d="m 267.87583,45.637062 c -9.5,0 -18,-4.2 -23.7,-10.8 l -0.3,0.3 27.5,27.2 4,-4 c 3.8,-3.8 4.2,-9.7 1,-13.9 -2.7,0.7 -5.6,1.2 -8.5,1.2 z"
   class="st3" /><circle
   style="fill:#405162;fill-opacity:0.988833;stroke:#000000;stroke-width:2.52647;stroke-linecap:round;stroke-linejoin:round"
   id="path6311"
   cx="115.77115"
   cy="105.14165"
   r="73.656357" /><path
   id="path6311-7"
   style="fill:#5f7993;fill-opacity:0.988833;stroke-width:2.47528;stroke-linecap:round;stroke-linejoin:round"
   d="m 187.94161,105.04577 c 0,39.85498 -32.16555,70.30161 -72.02053,70.30161 -39.854977,0 -65.899881,-29.24462 -65.899885,-69.0996 0,-39.854979 26.599667,-71.218868 66.454645,-71.218866 39.85498,4e-6 71.46577,30.161877 71.46577,70.016856 z"
   sodipodi:nodetypes="sssss" /><path
   style="fill:#ffffff;stroke:none;stroke-width:1px;stroke-linecap:butt;stroke-linejoin:miter;stroke-opacity:1"
   d="m 177.17583,155.53706 -28.2,-26.9 -3.8,32.9 z"
   id="path6718" /><polygon
   style="fill:#a6d100"
   id="polygon2686"
   points="172.4,167.6 182.2,170.9 271.1,82.8 257.7,69.5 168.8,157.6 "
   class="st4"
   transform="translate(-5.0241707,-15.362938)" /><polygon
   style="fill:#17b5c8"
   id="polygon2688"
   points="168.8,157.6 257.7,69.5 243.6,55.6 154.7,143.7 159,154.3 "
   class="st1"
   transform="translate(-5.0241707,-15.362938)" /><g
   id="g2700"
   transform="translate(-5.0241707,-15.362938)">
		<path
   inkscape:connector-curvature="0"
   id="path2698"
   d="m 162.9,175 c -0.3,0 -0.5,-0.1 -0.7,-0.3 l -10.6,-10.5 c -0.4,-0.4 -0.4,-1 0,-1.4 0.4,-0.4 1,-0.4 1.4,0 l 10.6,10.5 c 0.4,0.4 0.4,1 0,1.4 -0.2,0.2 -0.4,0.3 -0.7,0.3 z" />
	</g><g
   id="g2704"
   transform="translate(-5.0241707,-15.362938)">
		<path
   inkscape:connector-curvature="0"
   id="path2702"
   d="m 276.3,78.7 c -0.3,0 -0.5,-0.1 -0.7,-0.3 L 248.1,51.2 c -0.2,-0.2 -0.3,-0.4 -0.3,-0.7 0,-0.3 0.1,-0.5 0.3,-0.7 l 4,-4 c 4.6,-4.6 12.1,-4.6 16.7,0 l 7.2,7.1 c 0.4,0.4 0.4,1 0,1.4 -0.4,0.4 -1,0.4 -1.4,0 l -7.2,-7.1 c -3.8,-3.8 -10,-3.8 -13.9,0 l -3.3,3.3 26.1,25.8 3.3,-3.3 c 1.9,-1.8 2.9,-4.3 2.9,-6.9 0,-2.6 -1,-5 -2.9,-6.9 -0.4,-0.4 -0.4,-1 0,-1.4 0.4,-0.4 1,-0.4 1.4,0 2.2,2.2 3.5,5.1 3.5,8.3 0,3.1 -1.2,6.1 -3.5,8.3 l -4,4 c -0.1,0.2 -0.4,0.3 -0.7,0.3 z" />
	</g><g
   id="g2708"
   transform="translate(-5.0241707,-15.362938)">
		<path
   inkscape:connector-curvature="0"
   id="path2706"
   d="m 271.1,83.8 c -0.3,0 -0.5,-0.1 -0.7,-0.3 L 242.9,56.3 c -0.4,-0.4 -0.4,-1 0,-1.4 l 5.2,-5.2 c 0.4,-0.4 1,-0.4 1.4,0 L 277.1,77 c 0.4,0.4 0.4,1 0,1.4 l -5.2,5.2 c -0.3,0.1 -0.5,0.2 -0.8,0.2 z m -26,-28.2 26.1,25.8 3.8,-3.8 -26.1,-25.8 z" />
	</g><path
   style="fill:#11828f"
   inkscape:connector-curvature="0"
   id="path2710"
   d="m 239.07583,67.637062 13.5,-13.4 -14,-13.9 -4.4,4.3 c 2.6,7.3 4.2,15 4.9,23 z"
   class="st2" /><path
   style="fill:#89ab00"
   inkscape:connector-curvature="0"
   id="path2712"
   d="m 239.57583,76.737062 c 0,6.4 -0.6,12.7 -1.8,18.8 l 28.3,-28.1 -13.4,-13.3 -13.6,13.5 c 0.3,3 0.5,6 0.5,9.1 z"
   class="st5" /><g
   id="g2716"
   transform="translate(-5.0241707,-15.362938)">
		<path
   inkscape:connector-curvature="0"
   id="path2714"
   d="m 168.8,158.6 c -0.1,0 -0.2,0 -0.3,-0.1 l -9.8,-3.3 c -0.3,-0.1 -0.5,-0.3 -0.6,-0.6 L 153.8,144 c -0.1,-0.4 -0.1,-0.8 0.2,-1.1 l 12.3,-12.2 c 0.4,-0.4 1,-0.4 1.4,0 0.4,0.4 0.4,1 0,1.4 l -11.9,11.7 3.9,9.6 8.7,2.9 87.8,-86.9 -12.6,-12.4 -65.5,64.9 c -0.4,0.4 -1,0.4 -1.4,0 -0.4,-0.4 -0.4,-1 0,-1.4 l 66.2,-65.6 c 0.4,-0.4 1,-0.4 1.4,0 l 14,13.9 c 0.4,0.4 0.4,1 0,1.4 l -88.9,88 c -0.1,0.3 -0.4,0.4 -0.6,0.4 z" />
	</g><g
   id="g2720"
   transform="translate(-5.0241707,-15.362938)">
		<path
   inkscape:connector-curvature="0"
   id="path2718"
   d="m 182.2,171.9 c -0.1,0 -0.2,0 -0.3,-0.1 l -9.8,-3.3 c -0.3,-0.1 -0.5,-0.3 -0.6,-0.6 l -3.6,-10 c -0.1,-0.4 0,-0.8 0.2,-1 l 88.9,-88 c 0.4,-0.4 1,-0.4 1.4,0 l 13.4,13.3 c 0.4,0.4 0.4,1 0,1.4 l -88.9,88 c -0.2,0.2 -0.4,0.3 -0.7,0.3 z m -9,-5.1 8.8,2.9 87.8,-86.9 -12,-11.9 -87.8,86.9 z" />
	</g><g
   id="g2730"
   transform="translate(-5.0241707,-15.362938)">
		<g
   id="g2724">
			<path
   inkscape:connector-curvature="0"
   id="path2722"
   d="m 168.8,158.6 c -0.3,0 -0.5,-0.1 -0.7,-0.3 -0.2,-0.2 -0.3,-0.5 -0.3,-0.7 0,-0.2 0.1,-0.5 0.3,-0.7 0.4,-0.4 1,-0.4 1.4,0 0.2,0.2 0.3,0.5 0.3,0.7 0,0.2 -0.1,0.5 -0.3,0.7 v 0 c -0.2,0.2 -0.5,0.3 -0.7,0.3 z" />
		</g>
		<g
   id="g2728">
			<path
   inkscape:connector-curvature="0"
   id="path2726"
   d="m 150.1,177 c -0.3,0 -0.5,-0.1 -0.7,-0.3 -0.2,-0.2 -0.3,-0.5 -0.3,-0.9 L 154,144 c 0.1,-0.4 0.4,-0.8 0.9,-0.8 0.4,-0.1 0.9,0.2 1,0.6 l 3.9,9.7 9.3,3.1 c 0.3,0.1 0.5,0.3 0.6,0.6 l 3.5,9.6 9.1,3 c 0.2,0 0.5,0.1 0.7,0.3 l 0.1,0.1 c 0.3,0.3 0.4,0.7 0.2,1 -0.2,0.3 -0.4,0.6 -0.8,0.7 l -32.3,5 c 0,0.1 -0.1,0.1 -0.1,0.1 z m 5.3,-29.1 -4.1,26.8 27,-4.2 -6.1,-2.1 c -0.3,-0.1 -0.5,-0.3 -0.6,-0.6 l -3.5,-9.6 -9.3,-3.1 c -0.3,-0.1 -0.5,-0.3 -0.6,-0.6 z" />
		</g>
	</g>
<circle
   style="fill:#ffffff;fill-opacity:0.988833;stroke:#000000;stroke-width:2;stroke-linecap:round;stroke-linejoin:round"
   id="path7015"
   cx="117.91238"
   cy="156.91119"
   r="13.108018" /><path
   style="fill:#ffffff;stroke:#000000;stroke-width:2.13543;stroke-linecap:butt;stroke-linejoin:miter;stroke-miterlimit:4;stroke-dasharray:none;stroke-opacity:1"
   d="m 109.64346,139.17275 14.51797,0.47181 12.40969,-92.561143 -36.901371,0.526538 z"
   id="path7072" /></svg>
