<?xml version="1.0" encoding="utf-8"?>
<!-- Generator: Adobe Illustrator 24.3.0, SVG Export Plug-In . SVG Version: 6.00 Build 0)  -->
<svg version="1.1" id="Capa_1" xmlns="http://www.w3.org/2000/svg" xmlns:xlink="http://www.w3.org/1999/xlink" x="0px" y="0px"
	 viewBox="0 0 300 200" style="enable-background:new 0 0 300 200;" xml:space="preserve">
<style type="text/css">
	.st0{fill:#5F7993;}
	.st1{fill:#17B5C8;}
	.st2{fill:#11828F;}
	.st3{fill:#405162;}
	.st4{fill:#A6D100;}
	.st5{fill:#89AB00;}
	.st6{fill:#FFFFFF;}
	.st7{fill:none;stroke:#17B5C8;stroke-width:2;stroke-miterlimit:10;}
</style>
<g>
	<path class="st1" d="M206,56.2c0,6.9-1.3,13.5-3.5,19.7l0,0.1l5.7,5.7L253.3,1h-89.4l0.4,0.8C188.3,8.3,206,30.2,206,56.2z"/>
	<path class="st2" d="M252.5,1c-0.8,0.1-2.1,0.5-2.8,0.5h-39.8c17.4,0.8,23.7,6.1,18.7,15.7c-4.1,7.7-14.4,24.7-22.6,38.1
		c0,0.3,0,0.7,0,1c0,6.8-1.2,13.3-3.4,19.3l5.8,5.3c0.1,0.1,0.9-1.2,2.3-3.6l35.2-63.1c3.3-6,5.4-9.9,5.4-9.9c0.1-0.3,0.4-0.6,0.7-1
		l1.3-2.3H252.5z"/>
	<path class="st1" d="M235,83.9c-8.3,6.5-18.8,10.5-30.2,10.5c-1.6,0-6-0.7-10.8-1.6c-0.5,0.7-1,1.3-1.6,1.9c-2.4,2.8-5,5.3-7.8,7.5
		l0.2,0.3c22,13.6,38.1,36.6,43.4,63.7c15.1-5.6,35.7-15.3,45-26.1C268.7,116.1,254.5,95.8,235,83.9z"/>
	<path class="st1" d="M115.7,103c-3-2.3-5.9-4.9-8.4-7.8c-0.6-0.7-1.2-1.5-1.8-2.2c-5.6,0.8-10.3,1.4-11.6,1.4
		c-11.1,0-21.3-3.7-29.5-9.9C45,96.6,31,117.2,26.8,141.3c9.4,8.3,32.4,21.5,45.5,25.2l0.7-0.9C78.4,139,94.2,116.5,115.7,103z"/>
	<path class="st1" d="M93.3,58c0-23.8,14.7-44.1,35.5-52.4l0.2-0.4c-1-2.4-3.4-4.1-6.2-4.1H60.3c-3.7,0-6.8,3-6.8,6.8v62.4
		c0,3.7,3,6.8,6.8,6.8h36.3C94.5,71.1,93.3,64.7,93.3,58z"/>
	<path class="st2" d="M271,131.2c-3-10.1-7.8-19.4-14-27.4c-6.2-6.5-14.6-14.1-18.7-17.7c-1-0.7-2-1.3-3-2l-3.2,1.9
		c-1.4,1-2.9,1.9-4.5,2.7l-2.2,1.3c0,0,43.3,37.7,28.1,64.1c0,0,16.7-11.3,19.3-13.6c0.1-0.1,0.2-0.2,0.3-0.4
		c-0.5-2.9-1.2-5.8-2.1-8.6C271.1,131.4,271,131.3,271,131.2z"/>
	<path class="st2" d="M70.4,88.4c-2.1-1.2-4.2-2.5-6.1-3.9c-14.9,9.4-26.6,23.7-33.1,40.8c-1.9,6.8-3.8,13.8-4.3,16.2
		c3.7,3.2,9.4,7.2,15.8,11.1C29.1,127.6,64.9,93.4,70.4,88.4z"/>
	<path class="st1" d="M228.3,167C206.2,187.1,179,199,149.6,199c-28.7,0-55.3-11.3-77.1-30.5c4.8-27.8,20.9-51.5,43.1-65.5
		c9.4,7.2,21.2,11.4,34,11.4c13.1,0,25.2-4.5,34.8-12C206.8,116,223.2,139.4,228.3,167z"/>
	<path class="st1" d="M192.8,58c0,13.1-5.8,24.8-15,32.7c-2.1,1.8-4.4,3.5-6.9,4.8c-6.3,3.6-13.5,5.6-21.2,5.6
		c-7.4,0-14.4-1.9-20.5-5.2c-2.6-1.4-5.1-3.1-7.3-5c-9.4-7.9-15.3-19.8-15.3-33c0-23.8,19.3-43.1,43.1-43.1
		C173.5,14.9,192.8,34.2,192.8,58z"/>
	<path class="st2" d="M152.5,130.9c27.4,0,42.6-10.9,48.2-15.9c-4.9-4.8-10.4-9.1-16.2-12.6c-9.6,7.5-21.7,12-34.8,12
		c-12.8,0-24.5-4.2-34-11.4c-5.7,3.6-11,7.8-15.8,12.6C105.3,119.5,123.2,130.9,152.5,130.9z"/>
	<g>
		<path d="M149.6,200c-28,0-54.9-10.6-77.7-30.8c-0.3-0.2-0.4-0.6-0.3-0.9c4.7-27.6,20.6-51.7,43.6-66.2c0.4-0.2,0.8-0.2,1.2,0
			c9.7,7.3,21.2,11.2,33.4,11.2c12.5,0,24.3-4.1,34.2-11.8c0.3-0.3,0.8-0.3,1.2-0.1c23.1,14.1,39.2,37.9,44.3,65.4
			c0.1,0.3-0.1,0.7-0.3,0.9C205.8,188.9,178.4,200,149.6,200z M73.7,168.1c22.4,19.6,48.6,29.9,76,29.9c28,0,54.8-10.8,77.5-31.3
			c-5.1-26.4-20.6-49.3-42.7-63.1c-10.1,7.7-22.1,11.8-34.9,11.8c-12.4,0-24.1-3.9-34-11.2C93.6,118.3,78.4,141.5,73.7,168.1z"/>
	</g>
	<g>
		<path d="M68,165.3c-0.1,0-0.2,0-0.3,0c-1.9-0.5-3.8-1.1-5.6-1.8c-0.5-0.2-0.8-0.8-0.6-1.3c0.2-0.5,0.8-0.8,1.3-0.6
			c1.8,0.6,3.7,1.2,5.5,1.7c0.5,0.2,0.9,0.7,0.7,1.3C68.8,165,68.4,165.3,68,165.3z"/>
	</g>
	<path class="st2" d="M149.6,14.9c-1.2,0-2.5,0.1-3.7,0.2c20.1,4,35.2,21.8,35.2,43c0,21.1-15,38.8-34.9,42.9
		c1.1,0.1,2.2,0.1,3.4,0.1c7.7,0,15-2,21.2-5.6c2.5-1.4,4.8-3,6.9-4.8c9.2-7.9,15-19.6,15-32.7C192.8,34.2,173.5,14.9,149.6,14.9z"
		/>
	<g>
		<path d="M149.6,102.2c-7.3,0-14.6-1.8-21-5.3c-2.7-1.4-5.2-3.2-7.5-5.1c-10-8.4-15.7-20.7-15.7-33.8c0-24.3,19.8-44.1,44.1-44.1
			c24.3,0,44.2,19.8,44.2,44.1c0,12.9-5.6,25.1-15.4,33.5c-2.2,1.9-4.6,3.6-7,5C164.8,100.2,157.3,102.2,149.6,102.2z M149.6,15.9
			c-23.2,0-42.1,18.9-42.1,42.1c0,12.4,5.5,24.2,15,32.2c2.2,1.9,4.6,3.5,7.1,4.9c6.1,3.3,13,5,20,5c7.3,0,14.5-1.9,20.7-5.5
			c2.4-1.3,4.6-2.9,6.7-4.7c9.3-8,14.7-19.7,14.7-31.9C191.8,34.8,172.9,15.9,149.6,15.9z"/>
	</g>
	<path class="st2" d="M117.1,12.1c3.2-2.3,6.7-4.3,10.4-5.8v-2c0-1.4-1.1-2.5-2.5-2.5h-14.2C113.8,4.4,116,8,117.1,12.1z"/>
	<path d="M96.3,76.1H60.3c-3.2,0-5.8-2.6-5.8-5.8V7.9c0-3.2,2.6-5.8,5.8-5.8h62.4c2.3,0,4.4,1.4,5.3,3.5c0,0.1,0.1,0.2,0.2,0.3
		c0.6-0.2,1.2-0.5,1.8-0.7c0-0.1,0-0.2-0.1-0.3c-1.2-2.9-4-4.8-7.2-4.8H60.3c-4.3,0-7.8,3.5-7.8,7.8v62.4c0,4.3,3.5,7.8,7.8,7.8H97
		C96.7,77.5,96.5,76.8,96.3,76.1z"/>
	<path d="M64.3,85.7c8.6,6.3,18.8,9.7,29.6,9.7c4,0,7.9-0.5,11.8-1.4c0.2,0,0.3-0.1,0.5-0.3c-0.4-0.5-0.9-1.1-1.3-1.6
		c-3.6,0.8-7.2,1.3-10.9,1.3c-10.5,0-20.5-3.4-28.9-9.7c-0.3-0.3-0.8-0.3-1.2,0c-20,12.6-33.8,33.6-37.9,57.6
		c-0.1,0.3,0.1,0.7,0.3,0.9c9.6,8.5,20.1,15.1,31.2,19.6c0.1,0.1,0.3,0.1,0.4,0.1c0.4,0,0.8-0.2,0.9-0.6c0.2-0.5,0-1.1-0.6-1.3
		c-10.7-4.4-20.9-10.7-30.2-18.9C32,118,45.2,97.9,64.3,85.7z"/>
	<path d="M274.2,139.9c-4.4-23.9-18.5-44.6-38.6-56.9c-0.4-0.2-0.8-0.2-1.2,0.1c-8.5,6.7-18.8,10.2-29.6,10.2c-3.5,0-7-0.4-10.4-1.1
		c-0.5,0.6-0.9,1.2-1.4,1.8c0,0,0.1,0,0.1,0.1c3.8,0.9,7.7,1.4,11.6,1.4c11.1,0,21.5-3.5,30.3-10.2c19.1,11.9,32.6,31.8,37,54.6
		c-12,10.9-25.4,18.6-39.8,23c-0.5,0.2-0.8,0.7-0.7,1.3c0.1,0.4,0.5,0.7,1,0.7c0.1,0,0.2,0,0.3,0c14.8-4.5,28.6-12.6,41-23.8
		C274.1,140.6,274.2,140.3,274.2,139.9z"/>
	<path d="M254.2,0.5C254,0.2,253.6,0,253.3,0h-89.4c-0.6,0-1,0.5-1,1c0,0.2,0.1,0.3,0.1,0.5c0.7,0.2,1.3,0.3,2,0.5h86.6L208,80
		l-4.8-4.8c-0.1-0.1-0.3-0.2-0.5-0.2c-0.2,0.7-0.5,1.3-0.7,1.9l5.5,5.5c0.2,0.2,0.5,0.3,0.7,0.3c0,0,0.1,0,0.1,0
		c0.3,0,0.6-0.2,0.7-0.5l45.1-80.7C254.3,1.2,254.3,0.8,254.2,0.5z"/>
</g>
</svg>
