<?xml version="1.0" encoding="UTF-8" standalone="no"?>
<!-- Generator: Adobe Illustrator 24.3.0, SVG Export Plug-In . SVG Version: 6.00 Build 0)  -->

<svg
   xmlns:dc="http://purl.org/dc/elements/1.1/"
   xmlns:cc="http://creativecommons.org/ns#"
   xmlns:rdf="http://www.w3.org/1999/02/22-rdf-syntax-ns#"
   xmlns:svg="http://www.w3.org/2000/svg"
   xmlns="http://www.w3.org/2000/svg"
   xmlns:sodipodi="http://sodipodi.sourceforge.net/DTD/sodipodi-0.dtd"
   xmlns:inkscape="http://www.inkscape.org/namespaces/inkscape"
   version="1.1"
   id="Capa_1"
   x="0px"
   y="0px"
   viewBox="0 0 300 200"
   style="enable-background:new 0 0 300 200;"
   xml:space="preserve"
   sodipodi:docname="groups.svg"
   inkscape:version="0.92.5 (2060ec1f9f, 2020-04-08)"><metadata
   id="metadata1122"><rdf:RDF><cc:Work
       rdf:about=""><dc:format>image/svg+xml</dc:format><dc:type
         rdf:resource="http://purl.org/dc/dcmitype/StillImage" /><dc:title></dc:title></cc:Work></rdf:RDF></metadata><defs
   id="defs1120" /><sodipodi:namedview
   pagecolor="#ffffff"
   bordercolor="#666666"
   borderopacity="1"
   objecttolerance="10"
   gridtolerance="10"
   guidetolerance="10"
   inkscape:pageopacity="0"
   inkscape:pageshadow="2"
   inkscape:window-width="1920"
   inkscape:window-height="1016"
   id="namedview1118"
   showgrid="false"
   inkscape:pagecheckerboard="true"
   inkscape:zoom="3.1395541"
   inkscape:cx="150"
   inkscape:cy="100"
   inkscape:window-x="0"
   inkscape:window-y="27"
   inkscape:window-maximized="1"
   inkscape:current-layer="Capa_1" />
<style
   type="text/css"
   id="style1081">
	.st0{fill:#5F7993;}
	.st1{fill:#17B5C8;}
	.st2{fill:#11828F;}
	.st3{fill:#405162;}
	.st4{fill:#A6D100;}
	.st5{fill:#89AB00;}
	.st6{fill:#FFFFFF;}
	.st7{fill:none;stroke:#17B5C8;stroke-width:2;stroke-miterlimit:10;}
</style>
<path
   style="fill:#ffffff;stroke:none;stroke-width:1px;stroke-linecap:butt;stroke-linejoin:miter;stroke-opacity:1"
   d="M 111.2,9.1 C 93.619167,25.19338 82.84478,44.282196 96.4,76.9 76.682476,78.767054 61.237776,69.330653 53.233417,53.542361 48.047237,35.132408 52.794477,19.503814 68.840727,7.0389401 84.458047,-0.88355193 98.683687,2.2780279 111.2,9.1 Z"
   id="path1716-6"
   inkscape:connector-curvature="0"
   sodipodi:nodetypes="ccccc" /><path
   style="fill:#ffffff;stroke:none;stroke-width:1px;stroke-linecap:butt;stroke-linejoin:miter;stroke-opacity:1"
   d="m 186,7.3 c 17.58084,16.093378 30.25522,37.482195 16.7,70.1 17.84547,-0.0055 30.22698,-8.952067 38.73556,-24.236138 C 246.62174,34.753909 241.8745,19.125315 225.82825,6.660443 210.21093,-1.2620493 198.51632,0.47802794 186,7.3 Z"
   id="path1716"
   inkscape:connector-curvature="0"
   sodipodi:nodetypes="ccccc" /><ellipse
   ry="44.911049"
   rx="43.178143"
   cy="53.393478"
   cx="149.70279"
   id="path20590-2"
   style="opacity:1;fill:#ffffff;fill-opacity:1;fill-rule:nonzero;stroke:none;stroke-width:2.8818028;stroke-linecap:round;stroke-linejoin:round;stroke-miterlimit:4;stroke-dasharray:none;stroke-dashoffset:0;stroke-opacity:1" /><g
   id="g1699"><g
     id="g1115">
	<path
   id="path1083"
   d="M114.4,99.5c-3.2-2.4-6.1-5.1-8.7-8.1c-0.7-0.8-1.3-1.5-1.9-2.3c-5.8,0.8-10.6,1.4-12,1.4   c-11.5,0-22.1-3.8-30.6-10.3c-20,12.6-34.5,33.9-38.8,58.9c9.7,8.6,33.6,22.3,47.2,26.1l0.7-1C75.9,136.9,92.2,113.5,114.4,99.5z"
   class="st4" />
	<path
   id="path1085"
   d="M275.3,128.7c-3.1-10.5-8.1-20-14.5-28.4c-6.4-6.7-15.1-14.6-19.4-18.3c-1-0.7-2.1-1.4-3.1-2l-3.3,2   c-1.5,1-3,1.9-4.6,2.8l-2.3,1.4c0,0,44.8,39,29.1,66.3c0,0,17.3-11.7,19.9-14.1c0.1-0.1,0.2-0.3,0.3-0.4c-0.6-3-1.3-6-2.1-8.9   C275.4,129,275.3,128.8,275.3,128.7z"
   class="st3" />
	<path
   id="path1087"
   d="M67.6,84.4c-2.2-1.2-4.3-2.6-6.3-4.1C45.9,90,33.7,104.8,27,122.6c-2,7.1-4,14.3-4.5,16.8   c3.8,3.3,9.8,7.5,16.4,11.5C24.8,125,61.9,89.6,67.6,84.4z"
   class="st5" />
	<path
   id="path1089"
   d="M89.4,79.7c2.7,0,5.3-0.3,7.9-0.8c-0.3-0.6-0.6-1.3-0.9-2c-2.3,0.4-4.7,0.7-7,0.7c-6.3,0-12.4-1.6-17.9-4.5   c-2.3-1.2-4.4-2.7-6.4-4.4C56.6,61.5,51.7,51,51.7,39.9C51.7,19,68.6,2.1,89.4,2.1c8.1,0,15.6,2.6,21.8,7c0.5-0.5,1.1-0.9,1.7-1.4   C106.3,2.8,98.2,0,89.4,0c-22,0-39.9,17.9-39.9,39.9c0,11.8,5.2,22.9,14.2,30.5c2.1,1.8,4.4,3.3,6.8,4.6   C76.3,78.1,82.8,79.7,89.4,79.7z" />
	<path
   id="path1091"
   d="M61.2,81.6c8.9,6.6,19.5,10,30.6,10c4.1,0,8.2-0.5,12.2-1.4c0.2,0,0.3-0.2,0.5-0.3c-0.5-0.6-0.9-1.1-1.3-1.7   c-3.7,0.9-7.5,1.3-11.3,1.3c-10.9,0-21.3-3.5-29.9-10c-0.4-0.3-0.8-0.3-1.2-0.1c-20.7,13-35,34.8-39.3,59.6c-0.1,0.4,0.1,0.7,0.3,1   c9.9,8.8,20.8,15.6,32.3,20.3c0.1,0.1,0.3,0.1,0.4,0.1c0.4,0,0.8-0.2,1-0.7c0.2-0.5,0-1.2-0.6-1.4c-11.1-4.5-21.6-11.1-31.3-19.5   C27.8,115.1,41.5,94.3,61.2,81.6z" />
	<path
   id="path1093"
   d="M238.1,79.8c-8.6,6.8-19.5,10.8-31.3,10.8c-1.7,0-6.2-0.7-11.2-1.6c-0.5,0.7-1.1,1.3-1.6,2   c-2.4,2.9-5.2,5.5-8.1,7.8l0.2,0.4c22.8,14.1,39.5,37.9,44.9,66c15.7-5.8,37-15.9,46.6-27.1C272.9,113.1,258.2,92.1,238.1,79.8z"
   class="st0" />
	<path
   id="path1095"
   d="M231.1,165.9c-22.9,20.8-51,33.1-81.5,33.1c-29.7,0-57.2-11.7-79.8-31.6c4.9-28.8,21.6-53.3,44.6-67.8   c9.8,7.4,22,11.8,35.2,11.8c13.6,0,26.1-4.6,36-12.5C208.8,113,225.8,137.3,231.1,165.9z"
   class="st1" />
	<path
   id="path1097"
   d="M152.6,128.4c28.4,0,44.2-11.3,49.9-16.5c-5.1-5-10.7-9.4-16.8-13.1c-9.9,7.8-22.4,12.5-36,12.5   c-13.2,0-25.4-4.4-35.2-11.8c-5.9,3.7-11.4,8.1-16.4,13C103.7,116.7,122.2,128.4,152.6,128.4z"
   class="st2" />
	<g
   id="g1101">
		<path
   id="path1099"
   d="M149.6,200c-29,0-56.9-11-80.5-31.9c-0.3-0.2-0.4-0.6-0.3-1c4.9-28.6,21.3-53.5,45.1-68.5c0.4-0.2,0.8-0.2,1.2,0.1    c10,7.6,22,11.6,34.5,11.6c13,0,25.2-4.2,35.4-12.2c0.3-0.3,0.8-0.3,1.2-0.1c23.9,14.6,40.6,39.3,45.9,67.7c0.1,0.4-0.1,0.7-0.3,1    C207.8,188.5,179.4,200,149.6,200z M71,166.9c23.2,20.3,50.4,31,78.7,31c29,0,56.8-11.2,80.3-32.4c-5.2-27.3-21.3-51.1-44.2-65.3    c-10.4,8-22.9,12.2-36.1,12.2c-12.8,0-25-4-35.2-11.6C91.6,115.4,75.8,139.4,71,166.9z" />
	</g>
	<g
   id="g1105">
		<path
   id="path1103"
   d="M65.1,164.1c-0.1,0-0.2,0-0.3,0c-1.9-0.6-3.9-1.2-5.8-1.9c-0.5-0.2-0.8-0.8-0.6-1.3c0.2-0.5,0.8-0.8,1.3-0.6    c1.9,0.7,3.8,1.3,5.7,1.8c0.6,0.2,0.9,0.7,0.7,1.3C65.9,163.8,65.5,164.1,65.1,164.1z" />
	</g>
	<g
   id="g1109">
		<path
   id="path1107"
   d="M149.6,98.7c-7.6,0-15.1-1.9-21.7-5.5c-2.8-1.5-5.4-3.3-7.7-5.3c-10.3-8.7-16.3-21.5-16.3-35c0-25.2,20.5-45.7,45.7-45.7    c25.2,0,45.7,20.5,45.7,45.7c0,13.3-5.8,26-15.9,34.7c-2.3,2-4.7,3.7-7.3,5.1C165.3,96.6,157.5,98.7,149.6,98.7z M149.6,9.4    c-24,0-43.6,19.6-43.6,43.6c0,12.9,5.7,25,15.5,33.4c2.3,1.9,4.8,3.6,7.4,5c6.3,3.4,13.5,5.2,20.7,5.2c7.5,0,15-2,21.5-5.7    c2.4-1.4,4.8-3,7-4.9c9.7-8.3,15.2-20.4,15.2-33.1C193.3,28.9,173.7,9.4,149.6,9.4z" />
	</g>
	<path
   id="path1111"
   d="M278.6,137.8c-4.6-24.7-19.2-46.2-40-58.9c-0.4-0.2-0.9-0.2-1.2,0.1c-8.8,6.9-19.4,10.6-30.7,10.6c-3.6,0-7.2-0.4-10.7-1.2   c-0.5,0.6-1,1.2-1.4,1.8c0,0,0.1,0.1,0.1,0.1c3.9,0.9,8,1.4,12,1.4c11.5,0,22.3-3.7,31.4-10.6c19.8,12.3,33.7,32.9,38.3,56.6   c-12.5,11.2-26.3,19.2-41.2,23.8c-0.6,0.2-0.9,0.8-0.7,1.3c0.1,0.5,0.6,0.7,1,0.7c0.1,0,0.2,0,0.3,0c15.3-4.7,29.6-13,42.4-24.7   C278.5,138.5,278.7,138.2,278.6,137.8z" />
	<path
   id="path1113"
   d="M205,0c-7.6,0-14.8,2.2-20.8,5.9c0.6,0.4,1.2,0.9,1.8,1.4c5.6-3.3,12.1-5.2,19-5.2c20.8,0,37.8,16.9,37.8,37.7   c0,11-4.8,21.4-13.1,28.6c-1.9,1.6-3.9,3-6,4.2c-5.6,3.2-12.1,4.9-18.6,4.9c-0.8,0-1.6,0-2.4-0.1c-0.3,0.7-0.6,1.4-1,2   c1.1,0.1,2.2,0.2,3.4,0.2c6.9,0,13.7-1.8,19.6-5.2c2.2-1.3,4.4-2.8,6.4-4.5c8.8-7.6,13.9-18.6,13.9-30.2C244.8,17.9,226.9,0,205,0z   " />
</g></g>
</svg>