<?xml version="1.0" encoding="utf-8"?>
<!-- Generator: Adobe Illustrator 24.3.0, SVG Export Plug-In . SVG Version: 6.00 Build 0)  -->
<svg version="1.1" id="Capa_1" xmlns="http://www.w3.org/2000/svg" xmlns:xlink="http://www.w3.org/1999/xlink" x="0px" y="0px"
	 viewBox="0 0 300 200" style="enable-background:new 0 0 300 200;" xml:space="preserve">
<style type="text/css">
	.st0{fill:#5F7993;}
	.st1{fill:#17B5C8;}
	.st2{fill:#11828F;}
	.st3{fill:#405162;}
	.st4{fill:#A6D100;}
	.st5{fill:#89AB00;}
	.st6{fill:#FFFFFF;}
	.st7{fill:none;stroke:#17B5C8;stroke-width:2;stroke-miterlimit:10;}
</style>
<g>
	<g>
		<path class="st0" d="M215.7,94.7H83.3c-3.2,0-5.7-2.6-5.7-5.7V47.7c0-3.2,2.6-5.7,5.7-5.7h132.3c3.2,0,5.7,2.6,5.7,5.7V89
			C221.4,92.1,218.8,94.7,215.7,94.7z"/>
		<path class="st0" d="M215.7,94.7H83.3c-3.2,0-5.7-2.6-5.7-5.7V47.7c0-3.2,2.6-5.7,5.7-5.7h132.3c3.2,0,5.7,2.6,5.7,5.7V89
			C221.4,92.1,218.8,94.7,215.7,94.7z"/>
		<path class="st3" d="M91.1,89V47.7c0-3.2,2.6-5.7,5.7-5.7H83.3c-3.2,0-5.7,2.6-5.7,5.7V89c0,3.2,2.6,5.7,5.7,5.7h13.5
			C93.7,94.7,91.1,92.1,91.1,89z"/>
		<g>
			<circle class="st6" cx="104.4" cy="68.3" r="11.1"/>
			<path class="st6" d="M200,83.1h-55.5c-1.1,0-1.9-0.9-1.9-1.9V54.6c0-1.1,0.9-1.9,1.9-1.9H200c1.1,0,1.9,0.9,1.9,1.9v26.5
				C201.9,82.2,201.1,83.1,200,83.1z"/>
			<g>
				<path d="M202.1,95.7h-7.6c-0.5,0-1-0.4-1-1s0.4-1,1-1h7.6c0.5,0,1,0.4,1,1S202.6,95.7,202.1,95.7z"/>
			</g>
			<g>
				<path d="M216.1,95.7h-5.8c-0.5,0-1-0.4-1-1s0.4-1,1-1h5.8c2.3,0,4.2-1.9,4.2-4.2V47.3c0-2.3-1.9-4.2-4.2-4.2H83
					c-2.3,0-4.2,1.9-4.2,4.2v42.2c0,2.3,1.9,4.2,4.2,4.2h102.6c0.5,0,1,0.4,1,1s-0.4,1-1,1H83c-3.4,0-6.2-2.8-6.2-6.2V47.3
					c0-3.4,2.8-6.2,6.2-6.2h133c3.4,0,6.2,2.8,6.2,6.2v42.2C222.2,92.9,219.5,95.7,216.1,95.7z"/>
			</g>
			<g>
				<path d="M200,84.1h-55.5c-1.6,0-2.9-1.3-2.9-2.9V54.6c0-1.6,1.3-2.9,2.9-2.9H200c1.6,0,2.9,1.3,2.9,2.9v26.6
					C202.9,82.7,201.6,84.1,200,84.1z M144.5,53.7c-0.5,0-0.9,0.4-0.9,0.9v26.6c0,0.5,0.4,0.9,0.9,0.9H200c0.5,0,0.9-0.4,0.9-0.9
					V54.6c0-0.5-0.4-0.9-0.9-0.9H144.5z"/>
			</g>
			<g>
				<path d="M167.5,76.4c-0.5,0-1-0.4-1-1V61.6c0-0.5,0.4-1,1-1s1,0.4,1,1v13.8C168.5,75.9,168,76.4,167.5,76.4z"/>
			</g>
			<g>
				<path d="M177.3,76c-0.5,0-1-0.4-1-1V61.3c0-0.5,0.4-1,1-1s1,0.4,1,1V75C178.3,75.6,177.9,76,177.3,76z"/>
			</g>
			<g>
				<path d="M188.2,76c-0.5,0-1-0.4-1-1V61.3c0-0.5,0.4-1,1-1s1,0.4,1,1V75C189.1,75.6,188.7,76,188.2,76z"/>
			</g>
			<g>
				<path d="M104.4,80.5c-6.7,0-12.1-5.4-12.1-12.1c0-6.7,5.4-12.1,12.1-12.1c6.7,0,12.1,5.4,12.1,12.1c0,1.8-0.4,3.5-1.1,5.1
					c-0.2,0.5-0.8,0.7-1.3,0.5c-0.5-0.2-0.7-0.8-0.5-1.3c0.6-1.3,0.9-2.8,0.9-4.3c0-5.6-4.6-10.2-10.2-10.2
					c-5.6,0-10.2,4.6-10.2,10.2c0,5.6,4.6,10.2,10.2,10.2c1.4,0,2.7-0.3,4-0.8c0.5-0.2,1.1,0,1.3,0.5s0,1.1-0.5,1.3
					C107.6,80.1,106,80.5,104.4,80.5z"/>
			</g>
		</g>
	</g>
	<g>
		<path class="st0" d="M138.8,158H6.5c-3.2,0-5.7-2.6-5.7-5.7V111c0-3.2,2.6-5.7,5.7-5.7h132.3c3.2,0,5.7,2.6,5.7,5.7v41.2
			C144.6,155.4,142,158,138.8,158z"/>
		<path class="st1" d="M138.8,158H6.5c-3.2,0-5.7-2.6-5.7-5.7V111c0-3.2,2.6-5.7,5.7-5.7h132.3c3.2,0,5.7,2.6,5.7,5.7v41.2
			C144.6,155.4,142,158,138.8,158z"/>
		<path class="st2" d="M14.3,152.3V111c0-3.2,2.6-5.7,5.7-5.7H6.5c-3.2,0-5.7,2.6-5.7,5.7v41.3c0,3.2,2.6,5.7,5.7,5.7H20
			C16.8,158,14.3,155.5,14.3,152.3z"/>
		<g>
			<circle class="st6" cx="27.5" cy="131.6" r="11.1"/>
			<path class="st6" d="M123.2,146.4H67.7c-1.1,0-1.9-0.9-1.9-1.9v-26.5c0-1.1,0.9-1.9,1.9-1.9h55.5c1.1,0,1.9,0.9,1.9,1.9v26.5
				C125.1,145.5,124.2,146.4,123.2,146.4z"/>
			<g>
				<path d="M125.2,159h-7.6c-0.5,0-1-0.4-1-1s0.4-1,1-1h7.6c0.5,0,1,0.4,1,1S125.8,159,125.2,159z"/>
			</g>
			<g>
				<path d="M139.2,159h-5.8c-0.5,0-1-0.4-1-1s0.4-1,1-1h5.8c2.3,0,4.2-1.9,4.2-4.2v-42.2c0-2.3-1.9-4.2-4.2-4.2H6.2
					c-2.3,0-4.2,1.9-4.2,4.2v42.2c0,2.3,1.9,4.2,4.2,4.2h102.6c0.5,0,1,0.4,1,1s-0.4,1-1,1H6.2c-3.4,0-6.2-2.8-6.2-6.2v-42.2
					c0-3.4,2.8-6.2,6.2-6.2h133c3.4,0,6.2,2.8,6.2,6.2v42.2C145.4,156.2,142.6,159,139.2,159z"/>
			</g>
			<g>
				<path d="M123.2,147.4H67.7c-1.6,0-2.9-1.3-2.9-2.9v-26.6c0-1.6,1.3-2.9,2.9-2.9h55.5c1.6,0,2.9,1.3,2.9,2.9v26.6
					C126.1,146.1,124.8,147.4,123.2,147.4z M67.7,117c-0.5,0-0.9,0.4-0.9,0.9v26.6c0,0.5,0.4,0.9,0.9,0.9h55.5
					c0.5,0,0.9-0.4,0.9-0.9v-26.6c0-0.5-0.4-0.9-0.9-0.9H67.7z"/>
			</g>
			<g>
				<path d="M90.7,139.7c-0.5,0-1-0.4-1-1v-13.8c0-0.5,0.4-1,1-1s1,0.4,1,1v13.8C91.7,139.2,91.2,139.7,90.7,139.7z"/>
			</g>
			<g>
				<path d="M100.5,139.3c-0.5,0-1-0.4-1-1v-13.8c0-0.5,0.4-1,1-1s1,0.4,1,1v13.8C101.5,138.9,101.1,139.3,100.5,139.3z"/>
			</g>
			<g>
				<path d="M111.3,139.3c-0.5,0-1-0.4-1-1v-13.8c0-0.5,0.4-1,1-1s1,0.4,1,1v13.8C112.3,138.9,111.9,139.3,111.3,139.3z"/>
			</g>
			<g>
				<path d="M27.5,143.8c-6.7,0-12.1-5.4-12.1-12.1c0-6.7,5.4-12.1,12.1-12.1c6.7,0,12.1,5.4,12.1,12.1c0,1.8-0.4,3.5-1.1,5.1
					c-0.2,0.5-0.8,0.7-1.3,0.5c-0.5-0.2-0.7-0.8-0.5-1.3c0.6-1.3,0.9-2.8,0.9-4.3c0-5.6-4.6-10.2-10.2-10.2
					c-5.6,0-10.2,4.6-10.2,10.2c0,5.6,4.6,10.2,10.2,10.2c1.4,0,2.7-0.3,4-0.8c0.5-0.2,1.1,0,1.3,0.5c0.2,0.5,0,1.1-0.5,1.3
					C30.8,143.4,29.2,143.8,27.5,143.8z"/>
			</g>
		</g>
	</g>
	<g>
		<path class="st0" d="M293.5,158H161.2c-3.2,0-5.7-2.6-5.7-5.7V111c0-3.2,2.6-5.7,5.7-5.7h132.3c3.2,0,5.7,2.6,5.7,5.7v41.2
			C299.2,155.4,296.7,158,293.5,158z"/>
		<path class="st4" d="M293.5,158H161.2c-3.2,0-5.7-2.6-5.7-5.7V111c0-3.2,2.6-5.7,5.7-5.7h132.3c3.2,0,5.7,2.6,5.7,5.7v41.2
			C299.2,155.4,296.7,158,293.5,158z"/>
		<path class="st5" d="M168.9,152.3V111c0-3.2,2.6-5.7,5.7-5.7h-13.5c-3.2,0-5.7,2.6-5.7,5.7v41.3c0,3.2,2.6,5.7,5.7,5.7h13.5
			C171.5,158,168.9,155.5,168.9,152.3z"/>
		<g>
			<circle class="st6" cx="182.2" cy="131.6" r="11.1"/>
			<path class="st6" d="M277.8,146.4h-55.5c-1.1,0-1.9-0.9-1.9-1.9v-26.5c0-1.1,0.9-1.9,1.9-1.9h55.5c1.1,0,1.9,0.9,1.9,1.9v26.5
				C279.7,145.5,278.9,146.4,277.8,146.4z"/>
			<g>
				<path d="M279.9,159h-7.6c-0.5,0-1-0.4-1-1s0.4-1,1-1h7.6c0.5,0,1,0.4,1,1S280.4,159,279.9,159z"/>
			</g>
			<g>
				<path d="M293.9,159h-5.8c-0.5,0-1-0.4-1-1s0.4-1,1-1h5.8c2.3,0,4.2-1.9,4.2-4.2v-42.2c0-2.3-1.9-4.2-4.2-4.2h-133
					c-2.3,0-4.2,1.9-4.2,4.2v42.2c0,2.3,1.9,4.2,4.2,4.2h102.6c0.5,0,1,0.4,1,1s-0.4,1-1,1H160.9c-3.4,0-6.2-2.8-6.2-6.2v-42.2
					c0-3.4,2.8-6.2,6.2-6.2h133c3.4,0,6.2,2.8,6.2,6.2v42.2C300,156.2,297.3,159,293.9,159z"/>
			</g>
			<g>
				<path d="M277.8,147.4h-55.5c-1.6,0-2.9-1.3-2.9-2.9v-26.6c0-1.6,1.3-2.9,2.9-2.9h55.5c1.6,0,2.9,1.3,2.9,2.9v26.6
					C280.7,146.1,279.4,147.4,277.8,147.4z M222.3,117c-0.5,0-0.9,0.4-0.9,0.9v26.6c0,0.5,0.4,0.9,0.9,0.9h55.5
					c0.5,0,0.9-0.4,0.9-0.9v-26.6c0-0.5-0.4-0.9-0.9-0.9H222.3z"/>
			</g>
			<g>
				<path d="M245.3,139.7c-0.5,0-1-0.4-1-1v-13.8c0-0.5,0.4-1,1-1s1,0.4,1,1v13.8C246.3,139.2,245.9,139.7,245.3,139.7z"/>
			</g>
			<g>
				<path d="M255.1,139.3c-0.5,0-1-0.4-1-1v-13.8c0-0.5,0.4-1,1-1s1,0.4,1,1v13.8C256.1,138.9,255.7,139.3,255.1,139.3z"/>
			</g>
			<g>
				<path d="M266,139.3c-0.5,0-1-0.4-1-1v-13.8c0-0.5,0.4-1,1-1c0.5,0,1,0.4,1,1v13.8C267,138.9,266.5,139.3,266,139.3z"/>
			</g>
			<g>
				<path d="M182.2,143.8c-6.7,0-12.1-5.4-12.1-12.1c0-6.7,5.4-12.1,12.1-12.1c6.7,0,12.1,5.4,12.1,12.1c0,1.8-0.4,3.5-1.1,5.1
					c-0.2,0.5-0.8,0.7-1.3,0.5c-0.5-0.2-0.7-0.8-0.5-1.3c0.6-1.3,0.9-2.8,0.9-4.3c0-5.6-4.6-10.2-10.2-10.2
					c-5.6,0-10.2,4.6-10.2,10.2c0,5.6,4.6,10.2,10.2,10.2c1.4,0,2.7-0.3,4-0.8c0.5-0.2,1.1,0,1.3,0.5c0.2,0.5,0,1.1-0.5,1.3
					C185.4,143.4,183.8,143.8,182.2,143.8z"/>
			</g>
		</g>
	</g>
</g>
</svg>
