<?xml version="1.0" encoding="utf-8"?>
<!-- Generator: Adobe Illustrator 24.3.0, SVG Export Plug-In . SVG Version: 6.00 Build 0)  -->
<svg version="1.1" id="Capa_1" xmlns="http://www.w3.org/2000/svg" xmlns:xlink="http://www.w3.org/1999/xlink" x="0px" y="0px"
	 viewBox="0 0 300 200" style="enable-background:new 0 0 300 200;" xml:space="preserve">
<style type="text/css">
	.st0{fill:#5F7993;}
	.st1{fill:#17B5C8;}
	.st2{fill:#11828F;}
	.st3{fill:#405162;}
	.st4{fill:#A6D100;}
	.st5{fill:#89AB00;}
	.st6{fill:#FFFFFF;}
	.st7{fill:none;stroke:#17B5C8;stroke-width:2;stroke-miterlimit:10;}
</style>
<g>
	<g>
		<g>
			<polygon class="st0" points="105.5,39.5 105.5,39.5 105.5,39.5 			"/>
			<polygon class="st0" points="80.1,39.5 80.1,39.5 80.1,39.5 			"/>
			<path class="st1" d="M92.8,43.1c-7,0-12.7-1.6-12.7-3.5v23.6c0,3.7,3,6.6,6.6,6.6h12.2c3.7,0,6.6-3,6.6-6.6V39.5
				C105.5,41.5,99.8,43.1,92.8,43.1z"/>
		</g>
		<path class="st2" d="M100.7,42.3V65c0,1.9-0.8,3.6-2.1,4.8h0.3c3.7,0,6.6-3,6.6-6.6V39.5C105.5,40.7,103.7,41.7,100.7,42.3z"/>
		<ellipse class="st2" cx="92.8" cy="39.4" rx="12.7" ry="3.7"/>
		<path class="st1" d="M81.5,41.1c2.1-1.2,6.4-2,11.3-2c4.9,0,9.2,0.8,11.3,2c0.9-0.5,1.4-1.1,1.4-1.7c0-2-5.7-3.7-12.7-3.7
			c-7,0-12.7,1.7-12.7,3.7C80.1,40,80.6,40.6,81.5,41.1z"/>
		<g>
			<g>
				<path d="M104.6,39.7l0-0.2l1.5-0.1l0.5-0.1l0,0.2h-2h1L104.6,39.7z M105.6,39.5L105.6,39.5h0.9H105.6z"/>
			</g>
			<g>
				<path d="M98.9,70.8H86.7c-4.2,0-7.6-3.4-7.6-7.6V39.5h2c0,0.7,4.1,2.5,11.7,2.5s11.7-1.8,11.7-2.5h2v23.6
					C106.5,67.4,103.1,70.8,98.9,70.8z M81.1,42v21.1c0,3.1,2.5,5.6,5.6,5.6h12.2c3.1,0,5.6-2.5,5.6-5.6V42c-2.6,1.4-7.3,2-11.7,2
					C88.4,44.1,83.7,43.4,81.1,42z"/>
			</g>
		</g>
		<g>
			<path d="M92.8,44.1c-6.6,0-13.7-1.5-13.7-4.7c0-3.2,7.1-4.7,13.7-4.7s13.7,1.5,13.7,4.7C106.5,42.6,99.4,44.1,92.8,44.1z
				 M92.8,36.7c-7.7,0-11.7,1.9-11.7,2.7c0,0.8,4,2.7,11.7,2.7c7.7,0,11.7-1.9,11.7-2.7C104.5,38.6,100.6,36.7,92.8,36.7z"/>
		</g>
	</g>
	<g>
		<g>
			<polygon class="st0" points="220.7,39.5 220.7,39.5 220.7,39.5 			"/>
			<polygon class="st0" points="195.3,39.5 195.3,39.5 195.3,39.5 			"/>
			<path class="st1" d="M208,43.1c-7,0-12.7-1.6-12.7-3.5v23.6c0,3.7,3,6.6,6.6,6.6h12.2c3.7,0,6.6-3,6.6-6.6V39.5
				C220.7,41.5,215,43.1,208,43.1z"/>
		</g>
		<path class="st2" d="M215.9,42.3V65c0,1.9-0.8,3.6-2.1,4.8h0.3c3.7,0,6.6-3,6.6-6.6V39.5C220.7,40.7,218.8,41.7,215.9,42.3z"/>
		<ellipse class="st2" cx="208" cy="39.4" rx="12.7" ry="3.7"/>
		<path class="st1" d="M196.7,41.1c2.1-1.2,6.4-2,11.3-2c4.9,0,9.2,0.8,11.3,2c0.9-0.5,1.4-1.1,1.4-1.7c0-2-5.7-3.7-12.7-3.7
			c-7,0-12.7,1.7-12.7,3.7C195.3,40,195.8,40.6,196.7,41.1z"/>
		<g>
			<g>
				<path d="M219.7,39.7l0-0.2l1.5-0.1l0.5-0.1l0,0.2h-2h1L219.7,39.7z M220.8,39.5L220.8,39.5h0.9H220.8z"/>
			</g>
			<g>
				<path d="M214.1,70.8h-12.2c-4.2,0-7.6-3.4-7.6-7.6V39.5h2c0,0.7,4.1,2.5,11.7,2.5c7.6,0,11.7-1.8,11.7-2.5h2v23.6
					C221.7,67.4,218.3,70.8,214.1,70.8z M196.3,42v21.1c0,3.1,2.5,5.6,5.6,5.6h12.2c3.1,0,5.6-2.5,5.6-5.6V42c-2.6,1.4-7.3,2-11.7,2
					C203.5,44.1,198.8,43.4,196.3,42z"/>
			</g>
		</g>
		<g>
			<path d="M208,44.1c-6.6,0-13.7-1.5-13.7-4.7c0-3.2,7.1-4.7,13.7-4.7s13.7,1.5,13.7,4.7C221.7,42.6,214.6,44.1,208,44.1z
				 M208,36.7c-7.7,0-11.7,1.9-11.7,2.7c0,0.8,4,2.7,11.7,2.7c7.7,0,11.7-1.9,11.7-2.7C219.7,38.6,215.7,36.7,208,36.7z"/>
		</g>
	</g>
	<g>
		<g>
			<polygon class="st0" points="162.5,168.8 162.5,168.8 162.5,168.8 			"/>
			<polygon class="st0" points="137.1,168.8 137.1,168.8 137.1,168.8 			"/>
			<path class="st1" d="M149.8,172.3c-7,0-12.7-1.6-12.7-3.5v23.6c0,3.7,3,6.6,6.6,6.6h12.2c3.7,0,6.6-3,6.6-6.6v-23.6
				C162.5,170.7,156.8,172.3,149.8,172.3z"/>
		</g>
		<path class="st2" d="M157.7,171.5v22.7c0,1.9-0.8,3.6-2.1,4.8h0.3c3.7,0,6.6-3,6.6-6.6v-23.6C162.5,169.9,160.6,170.9,157.7,171.5
			z"/>
		<ellipse class="st2" cx="149.8" cy="168.6" rx="12.7" ry="3.7"/>
		<path class="st1" d="M138.5,170.3c2.1-1.2,6.4-2,11.3-2c4.9,0,9.2,0.8,11.3,2c0.9-0.5,1.4-1.1,1.4-1.7c0-2-5.7-3.7-12.7-3.7
			c-7,0-12.7,1.7-12.7,3.7C137.1,169.2,137.6,169.8,138.5,170.3z"/>
		<g>
			<g>
				<path d="M155.9,200h-12.2c-4.2,0-7.6-3.4-7.6-7.6v-23.6h2c0,0.7,4.1,2.5,11.7,2.5s11.7-1.8,11.7-2.5h2v23.6
					C163.5,196.6,160.1,200,155.9,200z M138.1,171.3v21.1c0,3.1,2.5,5.6,5.6,5.6h12.2c3.1,0,5.6-2.5,5.6-5.6v-21.1
					c-2.6,1.4-7.3,2-11.7,2S140.6,172.6,138.1,171.3z"/>
			</g>
		</g>
		<g>
			<path d="M149.8,173.3c-6.6,0-13.7-1.5-13.7-4.7c0-3.2,7.1-4.7,13.7-4.7s13.7,1.5,13.7,4.7C163.5,171.8,156.4,173.3,149.8,173.3z
				 M149.8,165.9c-7.7,0-11.7,1.9-11.7,2.7c0,0.8,4,2.7,11.7,2.7c7.7,0,11.7-1.9,11.7-2.7C161.5,167.8,157.5,165.9,149.8,165.9z"/>
		</g>
	</g>
	<g>
		<g>
			<polygon class="st0" points="242,87.4 242,87.4 242,87.4 			"/>
			<polygon class="st0" points="216.6,87.4 216.6,87.4 216.6,87.4 			"/>
			<path class="st4" d="M229.3,91c-7,0-12.7-1.6-12.7-3.5v23.6c0,3.7,3,6.6,6.6,6.6h12.2c3.7,0,6.6-3,6.6-6.6V87.4
				C242,89.4,236.3,91,229.3,91z"/>
		</g>
		<path class="st5" d="M237.2,90.2v22.7c0,1.9-0.8,3.6-2.1,4.8h0.3c3.7,0,6.6-3,6.6-6.6V87.4C242,88.6,240.2,89.5,237.2,90.2z"/>
		<ellipse class="st5" cx="229.3" cy="87.3" rx="12.7" ry="3.7"/>
		<path class="st4" d="M218,89c2.1-1.2,6.4-2,11.3-2c4.9,0,9.2,0.8,11.3,2c0.9-0.5,1.4-1.1,1.4-1.7c0-2-5.7-3.7-12.7-3.7
			c-7,0-12.7,1.7-12.7,3.7C216.6,87.9,217.1,88.5,218,89z"/>
		<g>
			<g>
				<path d="M241.1,87.6l0-0.2l1.5-0.1l0.4-0.1l0,0.2h-2h1L241.1,87.6z M242.1,87.4L242.1,87.4h0.9H242.1z"/>
			</g>
			<g>
				<path d="M235.4,118.7h-12.2c-4.2,0-7.6-3.4-7.6-7.6V87.4h2c0,0.7,4.1,2.5,11.7,2.5c7.6,0,11.7-1.8,11.7-2.5h2v23.6
					C243,115.3,239.6,118.7,235.4,118.7z M217.6,89.9v21.1c0,3.1,2.5,5.6,5.6,5.6h12.2c3.1,0,5.6-2.5,5.6-5.6V89.9
					c-2.6,1.4-7.3,2-11.7,2C224.9,92,220.2,91.3,217.6,89.9z"/>
			</g>
		</g>
		<g>
			<path d="M229.3,92c-6.6,0-13.7-1.5-13.7-4.7c0-3.2,7.1-4.7,13.7-4.7S243,84,243,87.3C243,90.5,235.9,92,229.3,92z M229.3,84.5
				c-7.7,0-11.7,1.9-11.7,2.7c0,0.8,4,2.7,11.7,2.7c7.7,0,11.7-1.9,11.7-2.7C241,86.4,237,84.5,229.3,84.5z"/>
		</g>
	</g>
	<g>
		<g>
			<polygon class="st0" points="105.8,132.8 105.8,132.8 105.8,132.8 			"/>
			<polygon class="st0" points="80.4,132.8 80.4,132.8 80.4,132.8 			"/>
			<path class="st4" d="M93.1,136.4c-7,0-12.7-1.6-12.7-3.5v23.6c0,3.7,3,6.6,6.6,6.6h12.2c3.7,0,6.6-3,6.6-6.6v-23.6
				C105.8,134.8,100.1,136.4,93.1,136.4z"/>
		</g>
		<path class="st5" d="M101,135.6v22.7c0,1.9-0.8,3.6-2.1,4.8h0.3c3.7,0,6.6-3,6.6-6.6v-23.6C105.8,134,103.9,135,101,135.6z"/>
		<ellipse class="st5" cx="93.1" cy="132.7" rx="12.7" ry="3.7"/>
		<path class="st4" d="M81.8,134.4c2.1-1.2,6.4-2,11.3-2c4.9,0,9.2,0.8,11.3,2c0.9-0.5,1.4-1.1,1.4-1.7c0-2-5.7-3.7-12.7-3.7
			c-7,0-12.7,1.7-12.7,3.7C80.4,133.3,80.9,133.9,81.8,134.4z"/>
		<g>
			<g>
				<polygon points="106.8,132.8 104.8,132.8 106.8,132.8 				"/>
			</g>
			<g>
				<polygon points="81.4,132.8 79.4,132.8 81.4,132.8 				"/>
			</g>
			<g>
				<path d="M99.2,164.1H87c-4.2,0-7.6-3.4-7.6-7.6v-23.6h2c0,0.7,4.1,2.5,11.7,2.5c7.6,0,11.7-1.8,11.7-2.5h2v23.6
					C106.8,160.7,103.4,164.1,99.2,164.1z M81.4,135.3v21.1c0,3.1,2.5,5.6,5.6,5.6h12.2c3.1,0,5.6-2.5,5.6-5.6v-21.1
					c-2.6,1.4-7.3,2-11.7,2C88.6,137.4,83.9,136.7,81.4,135.3z"/>
			</g>
		</g>
		<g>
			<path d="M93.1,137.4c-6.6,0-13.7-1.5-13.7-4.7s7.1-4.7,13.7-4.7s13.7,1.5,13.7,4.7S99.7,137.4,93.1,137.4z M93.1,130
				c-7.7,0-11.7,1.9-11.7,2.7s4,2.7,11.7,2.7s11.7-1.9,11.7-2.7S100.8,130,93.1,130z"/>
		</g>
	</g>
	<g>
		<g>
			<polygon class="st0" points="163.5,4.9 163.5,4.9 163.5,4.9 			"/>
			<polygon class="st0" points="138.1,4.9 138.1,4.9 138.1,4.9 			"/>
			<path class="st0" d="M150.8,8.4c-7,0-12.7-1.6-12.7-3.5v23.6c0,3.7,3,6.6,6.6,6.6h12.2c3.7,0,6.6-3,6.6-6.6V4.9
				C163.5,6.8,157.8,8.4,150.8,8.4z"/>
		</g>
		<path class="st3" d="M158.7,7.6v22.7c0,1.9-0.8,3.6-2.1,4.8h0.3c3.7,0,6.6-3,6.6-6.6V4.9C163.5,6,161.6,7,158.7,7.6z"/>
		<ellipse class="st3" cx="150.8" cy="4.7" rx="12.7" ry="3.7"/>
		<path class="st0" d="M139.5,6.4c2.1-1.2,6.4-2,11.3-2c4.9,0,9.2,0.8,11.3,2c0.9-0.5,1.4-1.1,1.4-1.7c0-2-5.7-3.7-12.7-3.7
			c-7,0-12.7,1.7-12.7,3.7C138.1,5.3,138.6,5.9,139.5,6.4z"/>
		<g>
			<g>
				<path d="M162.5,5l0-0.2l1.5-0.1l0.4-0.1l0,0.2h-2h1L162.5,5z M163.6,4.9L163.6,4.9h0.9H163.6z"/>
			</g>
			<g>
				<path d="M156.9,36.1h-12.2c-4.2,0-7.6-3.4-7.6-7.6V4.9h2c0,0.7,4.1,2.5,11.7,2.5c7.6,0,11.7-1.8,11.7-2.5h2v23.6
					C164.5,32.7,161.1,36.1,156.9,36.1z M139.1,7.4v21.1c0,3.1,2.5,5.6,5.6,5.6h12.2c3.1,0,5.6-2.5,5.6-5.6V7.4
					c-2.6,1.4-7.3,2-11.7,2C146.3,9.4,141.6,8.7,139.1,7.4z"/>
			</g>
		</g>
		<g>
			<path d="M150.8,9.4c-6.6,0-13.7-1.5-13.7-4.7S144.2,0,150.8,0s13.7,1.5,13.7,4.7S157.4,9.4,150.8,9.4z M150.8,2
				c-7.7,0-11.7,1.9-11.7,2.7s4,2.7,11.7,2.7c7.7,0,11.7-1.9,11.7-2.7S158.5,2,150.8,2z"/>
		</g>
	</g>
	<g>
		<g>
			<polygon class="st0" points="83.4,87 83.4,87 83.4,87 			"/>
			<polygon class="st0" points="58,87 58,87 58,87 			"/>
			<path class="st0" d="M70.7,90.5C63.7,90.5,58,89,58,87v23.6c0,3.7,3,6.6,6.6,6.6h12.2c3.7,0,6.6-3,6.6-6.6V87
				C83.4,89,77.7,90.5,70.7,90.5z"/>
		</g>
		<path class="st3" d="M78.6,89.8v22.7c0,1.9-0.8,3.6-2.1,4.8h0.3c3.7,0,6.6-3,6.6-6.6V87C83.4,88.1,81.5,89.1,78.6,89.8z"/>
		<ellipse class="st3" cx="70.7" cy="86.8" rx="12.7" ry="3.7"/>
		<path class="st0" d="M59.4,88.5c2.1-1.2,6.4-2,11.3-2c4.9,0,9.2,0.8,11.3,2c0.9-0.5,1.4-1.1,1.4-1.7c0-2-5.7-3.7-12.7-3.7
			c-7,0-12.7,1.7-12.7,3.7C58,87.5,58.5,88,59.4,88.5z"/>
		<g>
			<g>
				<path d="M82.4,87.2l0-0.2l1.5-0.1l0.4-0.1l0,0.2h-2h1L82.4,87.2z M83.5,87L83.5,87h0.9H83.5z"/>
			</g>
			<g>
				<path d="M76.8,118.3H64.6c-4.2,0-7.6-3.4-7.6-7.6V87h2c0,0.7,4.1,2.5,11.7,2.5s11.7-1.8,11.7-2.5h2v23.6
					C84.4,114.8,81,118.3,76.8,118.3z M59,89.5v21.1c0,3.1,2.5,5.6,5.6,5.6h12.2c3.1,0,5.6-2.5,5.6-5.6V89.5c-2.6,1.4-7.3,2-11.7,2
					C66.2,91.5,61.5,90.9,59,89.5z"/>
			</g>
		</g>
		<g>
			<path d="M70.7,91.5c-6.6,0-13.7-1.5-13.7-4.7c0-3.2,7.1-4.7,13.7-4.7s13.7,1.5,13.7,4.7C84.4,90.1,77.3,91.5,70.7,91.5z
				 M70.7,84.1C63,84.1,59,86,59,86.8c0,0.8,4,2.7,11.7,2.7c7.7,0,11.7-1.9,11.7-2.7C82.4,86,78.4,84.1,70.7,84.1z"/>
		</g>
	</g>
	<g>
		<g>
			<polygon class="st0" points="221.7,132.4 221.7,132.4 221.7,132.4 			"/>
			<polygon class="st0" points="196.3,132.4 196.3,132.4 196.3,132.4 			"/>
			<path class="st0" d="M209,136c-7,0-12.7-1.6-12.7-3.5v23.6c0,3.7,3,6.6,6.6,6.6h12.2c3.7,0,6.6-3,6.6-6.6v-23.6
				C221.7,134.4,216,136,209,136z"/>
		</g>
		<path class="st3" d="M216.9,135.2v22.7c0,1.9-0.8,3.6-2.1,4.8h0.3c3.7,0,6.6-3,6.6-6.6v-23.6C221.7,133.6,219.8,134.5,216.9,135.2
			z"/>
		<ellipse class="st3" cx="209" cy="132.3" rx="12.7" ry="3.7"/>
		<path class="st0" d="M197.7,134c2.1-1.2,6.4-2,11.3-2c4.9,0,9.2,0.8,11.3,2c0.9-0.5,1.4-1.1,1.4-1.7c0-2-5.7-3.7-12.7-3.7
			c-7,0-12.7,1.7-12.7,3.7C196.3,132.9,196.8,133.4,197.7,134z"/>
		<g>
			<g>
				<path d="M215.1,163.7h-12.2c-4.2,0-7.6-3.4-7.6-7.6v-23.6h2c0,0.7,4.1,2.5,11.7,2.5c7.6,0,11.7-1.8,11.7-2.5h2v23.6
					C222.7,160.3,219.3,163.7,215.1,163.7z M197.3,134.9v21.1c0,3.1,2.5,5.6,5.6,5.6h12.2c3.1,0,5.6-2.5,5.6-5.6v-21.1
					c-2.6,1.4-7.3,2-11.7,2C204.5,137,199.8,136.3,197.3,134.9z"/>
			</g>
		</g>
		<g>
			<path d="M209,137c-6.6,0-13.7-1.5-13.7-4.7c0-3.2,7.1-4.7,13.7-4.7s13.7,1.5,13.7,4.7C222.7,135.5,215.6,137,209,137z M209,129.5
				c-7.7,0-11.7,1.9-11.7,2.7c0,0.8,4,2.7,11.7,2.7c7.7,0,11.7-1.9,11.7-2.7C220.7,131.4,216.7,129.5,209,129.5z"/>
		</g>
	</g>
	<g>
		<rect x="149.2" y="35.1" width="2" height="32.7"/>
	</g>
	<g>
		<rect x="148.7" y="122.2" width="2" height="41.8"/>
	</g>
	<g>
		<rect x="177.4" y="101.9" transform="matrix(0.7071 -0.7071 0.7071 0.7071 -37.8163 163.4238)" width="2" height="50.9"/>
	</g>
	<g>
		<rect x="165.8" y="98.7" transform="matrix(0.9998 -1.855149e-02 1.855149e-02 0.9998 -1.8162 3.5598)" width="50.4" height="2"/>
	</g>
	<g>
		<rect x="147.7" y="74.5" transform="matrix(0.7071 -0.7071 0.7071 0.7071 -1.9807 146.102)" width="55.3" height="2"/>
	</g>
	<g>
		<rect x="119.4" y="47.8" transform="matrix(0.7071 -0.7071 0.7071 0.7071 -13.9712 105.5217)" width="2" height="43.6"/>
	</g>
	<g>
		<rect x="83.3" y="99.2" width="48.3" height="2"/>
	</g>
	<g>
		<rect x="97.6" y="124.5" transform="matrix(0.7071 -0.7071 0.7071 0.7071 -51.7049 126.201)" width="57.8" height="2"/>
	</g>
	<path class="st4" d="M141.8,67.9h20.6c0.7,0,1.1,0.7,0.8,1.3l-11,24.1c-0.3,0.6,0.2,1.3,0.8,1.3h15.2c0.8,0,1.2,0.9,0.7,1.5
		l-28.8,38.5c-0.6,0.8-1.9,0.2-1.6-0.8l8.4-28.6c0.2-0.6-0.3-1.2-0.9-1.2H130l10.9-35.5C141,68.1,141.3,67.9,141.8,67.9z"/>
	<g>
		<path class="st5" d="M153.7,104.1c0.2-0.6-0.3-1.2-0.9-1.2h-5.2l-9.1,30.8c-0.3,1,1,1.6,1.6,0.8l7.6-10.2L153.7,104.1z"/>
		<path class="st5" d="M145.7,74.2c0.1-0.4,0.5-0.6,0.9-0.6h14.7l2-4.4c0.3-0.6-0.2-1.3-0.8-1.3h-20.6c-0.4,0-0.8,0.3-0.9,0.6
			L130,104h6.5L145.7,74.2z"/>
	</g>
	<g>
		<path d="M139.4,135.9c-0.3,0-0.6-0.1-0.9-0.2c-0.8-0.4-1.2-1.3-1-2.2L146,105h-17.4l11.3-36.7c0.2-0.8,1-1.3,1.8-1.3h20.6
			c0.7,0,1.3,0.3,1.6,0.9c0.4,0.5,0.4,1.2,0.1,1.8l-11,24h15.1c0.7,0,1.4,0.4,1.7,1.1c0.3,0.7,0.3,1.4-0.2,2l-28.8,38.5
			C140.6,135.6,140,135.9,139.4,135.9z M131.3,103h14.8c0.6,0,1.2,0.3,1.5,0.8c0.4,0.5,0.5,1.1,0.3,1.7l-8.3,28.2l28.5-38.1H153
			c-0.7,0-1.3-0.3-1.6-0.9c-0.4-0.5-0.4-1.2-0.1-1.8l11-24h-20.5L131.3,103z"/>
	</g>
</g>
</svg>
