<?xml version="1.0" encoding="utf-8"?>
<!-- Generator: Adobe Illustrator 24.3.0, SVG Export Plug-In . SVG Version: 6.00 Build 0)  -->
<svg version="1.1" id="Capa_1" xmlns="http://www.w3.org/2000/svg" xmlns:xlink="http://www.w3.org/1999/xlink" x="0px" y="0px"
	 viewBox="0 0 300 200" style="enable-background:new 0 0 300 200;" xml:space="preserve">
<style type="text/css">
	.st0{fill:#5F7993;}
	.st1{fill:#17B5C8;}
	.st2{fill:#11828F;}
	.st3{fill:#405162;}
	.st4{fill:#A6D100;}
	.st5{fill:#89AB00;}
	.st6{fill:#FFFFFF;}
	.st7{fill:none;stroke:#17B5C8;stroke-width:2;stroke-miterlimit:10;}
</style>
<g>
	<path class="st4" d="M251,199.1H48.3c-3.8,0-6.9-3.1-6.9-6.9v-73.8c0-3.8,3.1-6.9,6.9-6.9H251c3.8,0,6.9,3.1,6.9,6.9v73.8
		C257.9,196.1,254.8,199.1,251,199.1z"/>
	<path class="st5" d="M61.1,192.2v-80.7H48.4c-3.8,0-7,3.1-7,7v73.7c0,3.8,3.1,7,7,7H68C64.2,199.1,61.1,196,61.1,192.2z"/>
	<path class="st1" d="M249.7,111.5h-92.2c-4.5,0-8.1-3.6-8.1-8.1V32c0-4.5,3.6-8.1,8.1-8.1h92.2c4.5,0,8.1,3.6,8.1,8.1v71.3
		C257.9,107.9,254.2,111.5,249.7,111.5z"/>
	<path class="st2" d="M163.7,103.3V23.9h-6.1c-4.5,0-8.2,3.7-8.2,8.2v71.2c0,4.5,3.7,8.2,8.2,8.2h14.3
		C167.4,111.5,163.7,107.8,163.7,103.3z"/>
	<g>
		<path d="M251.1,200.1H48.2c-4.3,0-7.8-3.5-7.8-7.8v-74c0-4.3,3.5-7.8,7.8-7.8h202.8c4.3,0,7.8,3.5,7.8,7.8v74
			C258.9,196.6,255.4,200.1,251.1,200.1z M48.2,112.5c-3.2,0-5.8,2.6-5.8,5.8v74c0,3.2,2.6,5.8,5.8,5.8h202.8c3.2,0,5.8-2.6,5.8-5.8
			v-74c0-3.2-2.6-5.8-5.8-5.8H48.2z"/>
	</g>
	<g>
		<path d="M249.8,112.5h-92.4c-5,0-9.1-4.1-9.1-9.1V32c0-5,4.1-9.1,9.1-9.1h92.4c5,0,9.1,4.1,9.1,9.1v71.5
			C258.9,108.4,254.8,112.5,249.8,112.5z M157.4,24.9c-3.9,0-7.1,3.2-7.1,7.1v71.5c0,3.9,3.2,7.1,7.1,7.1h92.4
			c3.9,0,7.1-3.2,7.1-7.1V32c0-3.9-3.2-7.1-7.1-7.1H157.4z"/>
	</g>
	<g>
		<path d="M244.6,24.9h-33.8c-0.5,0-1-0.4-1-1V7.2c0-3.9,3.2-7,7-7h21.7c3.9,0,7,3.2,7,7v16.7C245.6,24.4,245.1,24.9,244.6,24.9z
			 M211.8,22.9h31.8V7.2c0-2.8-2.3-5.1-5.1-5.1h-21.7c-2.8,0-5.1,2.3-5.1,5.1V22.9z"/>
	</g>
	<g>
		<path d="M196.6,24.9h-33.8c-0.5,0-1-0.4-1-1V7.2c0-3.9,3.2-7,7-7h21.7c3.9,0,7,3.2,7,7v16.7C197.6,24.4,197.1,24.9,196.6,24.9z
			 M163.8,22.9h31.8V7.2c0-2.8-2.3-5.1-5.1-5.1h-21.7c-2.8,0-5.1,2.3-5.1,5.1V22.9z"/>
	</g>
	<g>
		<path d="M136.1,112.5h-33.8c-0.5,0-1-0.4-1-1V93.9c0-3.9,3.2-7,7-7H130c3.9,0,7,3.2,7,7v17.7C137.1,112.1,136.6,112.5,136.1,112.5
			z M103.3,110.5h31.8V93.9c0-2.8-2.3-5.1-5.1-5.1h-21.7c-2.8,0-5.1,2.3-5.1,5.1V110.5z"/>
	</g>
	<g>
		<path d="M88.1,112.5H54.3c-0.5,0-1-0.4-1-1V93.9c0-3.9,3.2-7,7-7H82c3.9,0,7,3.2,7,7v17.7C89,112.1,88.6,112.5,88.1,112.5z
			 M55.2,110.5h31.8V93.9c0-2.8-2.3-5.1-5.1-5.1H60.3c-2.8,0-5.1,2.3-5.1,5.1V110.5z"/>
	</g>
	<g>
		<path d="M69.2,126.5h-15c-0.5,0-1-0.4-1-1c0-0.5,0.4-1,1-1h15c0.5,0,1,0.4,1,1C70.2,126.1,69.8,126.5,69.2,126.5z"/>
	</g>
	<g>
		<path d="M151.9,126.5H80.4c-0.5,0-1-0.4-1-1c0-0.5,0.4-1,1-1h71.4c0.5,0,1,0.4,1,1C152.8,126.1,152.4,126.5,151.9,126.5z"/>
	</g>
	<g>
		<path d="M243.5,54.8c-0.5,0-1-0.4-1-1V37c0-0.5,0.4-1,1-1c0.5,0,1,0.4,1,1v16.8C244.5,54.4,244.1,54.8,243.5,54.8z"/>
	</g>
	<g>
		<path d="M243.5,100.3c-0.5,0-1-0.4-1-1V63.2c0-0.5,0.4-1,1-1c0.5,0,1,0.4,1,1v36.2C244.5,99.9,244.1,100.3,243.5,100.3z"/>
	</g>
</g>
</svg>
