<?xml version="1.0" encoding="utf-8"?>
<!-- Generator: Adobe Illustrator 24.3.0, SVG Export Plug-In . SVG Version: 6.00 Build 0)  -->
<svg version="1.1" id="Capa_1" xmlns="http://www.w3.org/2000/svg" xmlns:xlink="http://www.w3.org/1999/xlink" x="0px" y="0px"
	 viewBox="0 0 300 200" style="enable-background:new 0 0 300 200;" xml:space="preserve">
<style type="text/css">
	.st0{fill:#5F7993;}
	.st1{fill:#17B5C8;}
	.st2{fill:#11828F;}
	.st3{fill:#405162;}
	.st4{fill:#A6D100;}
	.st5{fill:#89AB00;}
	.st6{fill:#FFFFFF;}
	.st7{fill:none;stroke:#17B5C8;stroke-width:2;stroke-miterlimit:10;}
</style>
<g>
	<g>
		<path class="st1" d="M181.8,94.4h-2c-2.4,0-4.6-1.5-5.4-3.7c-0.2-0.5-0.4-1-0.6-1.5c-1-2.2-0.5-4.8,1.2-6.5l1.5-1.4
			c0.3-0.3,0.5-0.7,0.5-1.1s-0.2-0.8-0.5-1.1l-5.2-5.2c-0.3-0.3-0.7-0.5-1.1-0.5c-0.4,0-0.8,0.2-1.1,0.5l-1.5,1.4
			c-1.1,1.1-2.6,1.7-4.1,1.7c-0.8,0-1.6-0.2-2.4-0.5c-0.5-0.2-1-0.4-1.5-0.6c-2.2-0.8-3.7-3-3.8-5.4v-2c0-0.9-0.7-1.6-1.6-1.6h-7.4
			c-0.9,0-1.6,0.7-1.6,1.6v2c0,2.4-1.5,4.5-3.8,5.4c-0.5,0.2-1,0.4-1.5,0.6c-0.8,0.3-1.6,0.5-2.4,0.5c-1.5,0-3-0.6-4.1-1.7l-1.5-1.4
			c-0.3-0.3-0.7-0.5-1.1-0.5c-0.4,0-0.8,0.2-1.1,0.5l-5.2,5.2c-0.3,0.3-0.5,0.7-0.5,1.1c0,0.4,0.2,0.8,0.5,1.1l1.5,1.4
			c1.7,1.7,2.2,4.3,1.2,6.5c-0.2,0.5-0.4,1-0.6,1.5c-0.9,2.2-3,3.7-5.4,3.7h-2c-0.9,0-1.6,0.7-1.6,1.6v7.4c0,0.9,0.7,1.6,1.6,1.6h2
			c2.4,0,4.6,1.5,5.4,3.7c0.2,0.5,0.4,1,0.6,1.5c1,2.2,0.5,4.8-1.2,6.5l-1.5,1.4c-0.6,0.6-0.6,1.6,0,2.2l5.2,5.2
			c0.3,0.3,0.7,0.5,1.1,0.5c0.4,0,0.8-0.2,1.1-0.5l1.5-1.4c1.1-1.1,2.6-1.7,4.1-1.7c0.8,0,1.6,0.2,2.4,0.5c0.5,0.2,1,0.4,1.5,0.6
			c2.2,0.8,3.7,3,3.8,5.4v2c0,0.9,0.7,1.6,1.6,1.6h7.4c0.9,0,1.6-0.7,1.6-1.6v-2c0-2.4,1.5-4.5,3.8-5.4c0.5-0.2,1-0.4,1.5-0.6
			c0.8-0.3,1.6-0.5,2.4-0.5c1.5,0,3,0.6,4.1,1.7l1.5,1.4c0.3,0.3,0.7,0.5,1.1,0.5c0.4,0,0.8-0.2,1.1-0.5l5.2-5.2
			c0.6-0.6,0.6-1.6,0-2.2l-1.5-1.4c-1.7-1.7-2.2-4.3-1.2-6.5c0.2-0.5,0.4-1,0.6-1.5c0.9-2.2,3-3.7,5.4-3.7h2c0.9,0,1.6-0.7,1.6-1.6
			V96C183.4,95.1,182.7,94.4,181.8,94.4z M165.1,99.9c0,0.3,0,0.6,0,0.9c0,0.3-0.1,0.6-0.1,1c-0.4,2.4-1.2,4.7-2.5,6.8
			c-0.3,0.4-0.6,0.8-0.9,1.1c-1.3,1.2-2.7,2.2-4.3,3.1l-0.1,0h0c-0.3,0.1-0.5,0.2-0.8,0.4l-0.2,0.1c-0.2,0.1-0.3,0.1-0.5,0.2
			c-0.2,0.1-0.5,0.2-0.7,0.3l-0.1,0c-0.2,0.1-0.4,0.1-0.6,0.2c-0.3,0.1-0.6,0.2-0.9,0.2l-0.2,0c-0.1,0-0.2,0.1-0.3,0.1
			c-0.4,0.1-0.8,0.1-1.2,0.2c-0.1,0-0.1,0-0.2,0c-0.5,0.1-1,0.1-1.5,0.1c-0.2,0-0.3,0-0.5,0c-0.1,0-0.2,0-0.3,0l-0.2,0
			c-0.3,0-0.7,0-1-0.1c-0.6-0.1-1.2-0.2-1.8-0.3h0l-0.1,0c-5.3-1.4-9.5-5.5-10.8-10.7c-1-3.9-0.4-7.9,1.6-11.3
			c2-3.4,5.3-5.9,9.2-6.9c0.5-0.1,1.1-0.2,1.6-0.3c0.2,0,0.4,0,0.6-0.1c0.4,0,0.7-0.1,1.1-0.1c0.1,0,0.1,0,0.2,0c0.1,0,0.2,0,0.3,0
			c3.2,0,6.4,1.1,9,3l0.3,0.2c0.2,0.2,0.4,0.3,0.6,0.5c0.2,0.1,0.3,0.3,0.5,0.5l0.1,0.1c0.1,0.1,0.2,0.2,0.3,0.3
			c0.2,0.2,0.5,0.5,0.7,0.8c0.1,0.1,0.1,0.1,0.2,0.2c0.6,0.7,1.1,1.4,1.5,2.2l0,0.1c0.3,0.5,0.5,1.1,0.8,1.6
			c0.1,0.2,0.2,0.5,0.3,0.7c0.1,0.3,0.2,0.7,0.3,1l0,0.1c0.1,0.2,0.1,0.5,0.2,0.7c0.1,0.4,0.1,0.8,0.2,1.3c0,0.4,0.1,0.8,0.1,1.2
			l0,0.2c0,0.1,0,0.3,0,0.5C165.1,99.7,165.1,99.9,165.1,99.9z"/>
		<path class="st2" d="M183.3,95.3c-0.2-0.6-0.8-1-1.5-1h-2c-2.4,0-4.6-1.5-5.4-3.7c-0.2-0.5-0.4-1-0.6-1.5c-1-2.2-0.5-4.8,1.2-6.5
			l1.5-1.4c0,0,0,0,0,0l-0.5-2l-5.9-5.9c0,0,0,0,0,0c-0.4,0-0.8,0.2-1.1,0.5l-1.5,1.4c-1.1,1.1-2.6,1.7-4.1,1.7
			c-0.8,0-1.6-0.2-2.4-0.5c-0.5-0.2-1-0.4-1.5-0.6c-1-0.4-1.9-1.1-2.5-1.9l-0.2,0c0,0,29.2,24.9,3.9,49c0.1,0,0.2-0.1,0.3-0.1
			c0.8-0.3,1.6-0.5,2.4-0.5c1.5,0,3,0.6,4.1,1.7l1.5,1.4c0.3,0.3,0.7,0.5,1.1,0.5c0.4,0,0.8-0.2,1.1-0.5l5.2-5.2
			c0.6-0.6,0.6-1.6,0-2.2l-1.5-1.4c-1.7-1.7-2.2-4.3-1.2-6.5c0.2-0.5,0.4-1,0.6-1.5c0.9-2.2,3-3.7,5.4-3.7h2c0.3,0,0.6-0.1,0.8-0.2
			L183.3,95.3z"/>
		<g>
			<path d="M154,133.4h-7.4c-1.4,0-2.6-1.2-2.6-2.6v-2c0-2-1.3-3.8-3.1-4.5c-0.5-0.2-1.1-0.4-1.6-0.6c-1.8-0.8-4-0.4-5.4,1l-1.4,1.4
				c-1,1-2.7,1-3.7,0l-5.2-5.2c-1-1-1-2.6,0-3.6l1.5-1.4c1.4-1.4,1.8-3.5,1-5.3c-0.2-0.5-0.5-1-0.7-1.6c-0.7-1.8-2.5-3.1-4.5-3.1h-2
				c-1.4,0-2.6-1.2-2.6-2.6V96c0-1.4,1.2-2.6,2.6-2.6h2c2,0,3.8-1.2,4.5-3.1c0.2-0.5,0.4-1,0.7-1.6c0.8-1.8,0.4-3.9-1-5.3l-1.5-1.4
				c-0.5-0.5-0.8-1.1-0.8-1.8c0-0.7,0.3-1.3,0.8-1.8l5.2-5.2c1-1,2.7-1,3.7,0l1.5,1.4c1.4,1.4,3.6,1.8,5.4,1c0.5-0.2,1-0.4,1.6-0.6
				c1.9-0.7,3.1-2.5,3.1-4.5v-2c0-1.4,1.2-2.6,2.6-2.6h7.4c1.4,0,2.6,1.2,2.6,2.6v2c0,2,1.3,3.8,3.1,4.5c0.5,0.2,1.1,0.4,1.6,0.6
				c1.8,0.8,4,0.4,5.4-1l1.5-1.4c1-1,2.7-1,3.7,0l5.3,5.2c0.5,0.5,0.8,1.1,0.8,1.8c0,0.7-0.3,1.3-0.8,1.8l-1.5,1.4
				c-1.4,1.4-1.8,3.5-1,5.3c0.2,0.5,0.5,1,0.7,1.6c0.7,1.8,2.5,3.1,4.5,3.1h2c1.4,0,2.6,1.2,2.6,2.6v7.4c0,1.4-1.2,2.6-2.6,2.6h-2
				c-2,0-3.8,1.2-4.5,3.1c-0.2,0.5-0.4,1-0.7,1.6c-0.8,1.8-0.4,3.9,1,5.3l1.4,1.4c0.5,0.5,0.8,1.1,0.8,1.8c0,0.7-0.3,1.3-0.8,1.8
				l-5.2,5.2c-1,1-2.7,1-3.7,0l-1.5-1.4c-1.4-1.4-3.6-1.8-5.4-1c-0.5,0.2-1,0.5-1.6,0.7c-1.9,0.7-3.1,2.5-3.1,4.5v2
				C156.6,132.3,155.4,133.4,154,133.4z M137.3,121.3c1,0,1.9,0.2,2.8,0.6c0.5,0.2,1,0.4,1.5,0.6c2.6,1,4.4,3.5,4.4,6.3v2
				c0,0.3,0.3,0.6,0.6,0.6h7.4c0.3,0,0.6-0.3,0.6-0.6v-2c0-2.8,1.8-5.3,4.4-6.3c0.5-0.2,1-0.4,1.5-0.6c0.9-0.4,1.8-0.6,2.8-0.6
				c1.8,0,3.5,0.7,4.8,2l1.5,1.4c0.2,0.2,0.6,0.2,0.8,0l5.2-5.2c0.1-0.1,0.2-0.3,0.2-0.4c0-0.2-0.1-0.3-0.2-0.4l-1.5-1.4
				c-2-2-2.5-5-1.4-7.6c0.2-0.5,0.4-1,0.6-1.4c1-2.6,3.6-4.3,6.4-4.4h2c0.3,0,0.6-0.3,0.6-0.6V96c0-0.3-0.3-0.6-0.6-0.6h-2
				c-2.8,0-5.4-1.8-6.4-4.4c-0.2-0.5-0.4-1-0.6-1.4c-1.2-2.5-0.6-5.6,1.4-7.6l1.5-1.4c0.1-0.1,0.2-0.3,0.2-0.4
				c0-0.2-0.1-0.3-0.2-0.4l-5.2-5.2c-0.2-0.2-0.6-0.2-0.9,0l-1.4,1.4c-1.3,1.3-3,2-4.8,2c-1,0-1.9-0.2-2.8-0.6
				c-0.5-0.2-1-0.4-1.5-0.6c-2.6-1-4.4-3.5-4.4-6.3v-2c0-0.3-0.3-0.6-0.6-0.6h-7.4c-0.3,0-0.6,0.3-0.6,0.6v2c0,2.8-1.8,5.3-4.4,6.3
				c-0.5,0.2-1,0.4-1.5,0.6c-0.9,0.4-1.8,0.6-2.8,0.6c-1.8,0-3.5-0.7-4.8-2l-1.5-1.4c-0.2-0.2-0.6-0.2-0.8,0l-5.2,5.2
				c-0.1,0.1-0.2,0.3-0.2,0.4c0,0.2,0.1,0.3,0.2,0.4l1.5,1.4c2,2,2.5,5,1.4,7.6c-0.2,0.5-0.4,1-0.6,1.4c-1,2.6-3.6,4.3-6.4,4.4h-2
				c-0.3,0-0.6,0.3-0.6,0.6v7.4c0,0.3,0.3,0.6,0.6,0.6h2c2.8,0,5.4,1.8,6.4,4.4c0.2,0.5,0.4,1,0.6,1.4c1.2,2.5,0.6,5.6-1.4,7.6
				l-1.5,1.4c-0.2,0.2-0.2,0.6,0,0.8l5.2,5.2c0.2,0.2,0.6,0.2,0.8,0l1.5-1.4C133.7,122,135.4,121.3,137.3,121.3z M150.1,115.6
				c-0.2,0-0.4,0-0.6,0c-0.1,0-0.2,0-0.2,0l-0.2,0c-0.4,0-0.7,0-1.1-0.1c-0.6-0.1-1.2-0.2-1.8-0.3l-0.2,0
				c-5.7-1.5-10.1-5.8-11.6-11.4c-1.1-4.1-0.5-8.4,1.7-12.1c2.2-3.7,5.7-6.3,9.8-7.3c0.6-0.1,1.2-0.2,1.7-0.3c0.2,0,0.4,0,0.6-0.1
				c0.4,0,0.8-0.1,1.2-0.1l0.1,0c0.2,0,0.3,0,0.4,0c3.4,0,6.8,1.1,9.6,3.2l0.3,0.2c0.2,0.2,0.5,0.4,0.7,0.6c0.2,0.2,0.4,0.3,0.5,0.5
				l0.1,0.1c0.1,0.1,0.2,0.2,0.3,0.3c0.3,0.3,0.5,0.5,0.8,0.8c0.1,0.1,0.1,0.1,0.2,0.2c0.6,0.7,1.1,1.5,1.6,2.3l0.1,0.1
				c0.3,0.5,0.6,1.1,0.8,1.7c0.1,0.3,0.2,0.5,0.3,0.7c0.1,0.4,0.2,0.7,0.3,1.1l0,0.1c0.1,0.2,0.1,0.5,0.2,0.7
				c0.1,0.4,0.2,0.8,0.2,1.3c0.1,0.4,0.1,0.8,0.1,1.3l0,0.2c0,0.2,0,0.4,0,0.5c0,0,0,0.1,0,0.2l0,0.1c0,0.3,0,0.6,0,1
				c0,0.3-0.1,0.7-0.1,1c-0.4,2.6-1.3,5-2.7,7.2c-0.3,0.5-0.7,0.9-1.1,1.3c-1.3,1.3-2.8,2.3-4.5,3.2l-0.2,0.1
				c-0.2,0.1-0.4,0.2-0.6,0.3l-0.2,0.1c-0.2,0.1-0.4,0.2-0.6,0.2c-0.2,0.1-0.5,0.2-0.7,0.3l-0.1,0c-0.2,0.1-0.4,0.1-0.6,0.2
				c-0.3,0.1-0.6,0.2-0.9,0.2l-0.2,0c-0.1,0-0.2,0.1-0.4,0.1c-0.4,0.1-0.9,0.2-1.3,0.2c-0.1,0-0.2,0-0.2,0
				C151.1,115.5,150.6,115.6,150.1,115.6z M146.5,113.1l0.1,0c0.5,0.1,1.1,0.2,1.6,0.3c0.3,0,0.6,0,0.9,0.1l0.2,0c0.1,0,0.2,0,0.3,0
				c0.5,0,1.1,0,1.7-0.1l0.1,0c0.5-0.1,0.8-0.1,1.2-0.2c0.1,0,0.2,0,0.3-0.1l0.2,0c0.3-0.1,0.6-0.1,0.8-0.2c0.2-0.1,0.4-0.1,0.5-0.2
				l0.1,0c0.2-0.1,0.4-0.2,0.7-0.2c0.1-0.1,0.3-0.1,0.4-0.2l0.2-0.1c0.2-0.1,0.5-0.2,0.7-0.3l0.2-0.1c1.4-0.8,2.7-1.7,3.9-2.8
				c0.3-0.3,0.5-0.6,0.8-0.9c1.2-2,2-4.1,2.4-6.4c0-0.3,0.1-0.6,0.1-0.9c0-0.3,0-0.6,0-0.8h0l0-0.3c0-0.1,0-0.2,0-0.3l0-0.3
				c0-0.4,0-0.8-0.1-1.1c-0.1-0.5-0.1-0.8-0.2-1.2c0-0.2-0.1-0.4-0.2-0.6l0-0.1c-0.1-0.3-0.2-0.6-0.3-0.9c-0.1-0.2-0.2-0.4-0.2-0.7
				c-0.2-0.5-0.4-1-0.7-1.5l-0.1-0.1c-0.4-0.7-0.8-1.3-1.4-2l-0.1-0.1c-0.2-0.3-0.5-0.5-0.7-0.7c-0.1-0.1-0.2-0.2-0.3-0.3l0.6-0.8
				l-0.7,0.7c-0.2-0.1-0.3-0.3-0.5-0.4c-0.2-0.2-0.4-0.3-0.6-0.5l-0.2-0.2c-2.4-1.8-5.4-2.8-8.4-2.8c-0.1,0-0.1,0-0.2,0l-0.2,0
				c-0.3,0-0.7,0-1,0.1c-0.2,0-0.4,0-0.5,0.1c-0.5,0.1-1,0.2-1.5,0.3c-3.6,0.9-6.7,3.2-8.6,6.4c-1.9,3.2-2.4,7-1.5,10.6
				C137.7,108,141.6,111.9,146.5,113.1z"/>
		</g>
	</g>
	<g>
		<g>
			<polygon class="st0" points="105.1,39.5 105.1,39.5 105.1,39.5 			"/>
			<polygon class="st0" points="79.4,39.5 79.4,39.5 79.4,39.5 			"/>
			<path class="st1" d="M92.2,43.1c-7.1,0-12.8-1.6-12.8-3.5v23.6c0,3.7,3,6.6,6.7,6.6h12.3c3.7,0,6.7-3,6.7-6.6V39.5
				C105.1,41.5,99.3,43.1,92.2,43.1z"/>
		</g>
		<path class="st2" d="M100.2,42.3V65c0,1.9-0.8,3.6-2.1,4.8h0.3c3.7,0,6.7-3,6.7-6.6V39.5C105.1,40.7,103.2,41.7,100.2,42.3z"/>
		<ellipse class="st2" cx="92.2" cy="39.4" rx="12.8" ry="3.7"/>
		<path class="st1" d="M80.8,41.1c2.1-1.2,6.4-2,11.4-2c5,0,9.3,0.8,11.4,2c0.9-0.5,1.4-1.1,1.4-1.7c0-2-5.7-3.7-12.8-3.7
			c-7.1,0-12.8,1.7-12.8,3.7C79.4,40,79.9,40.6,80.8,41.1z"/>
		<g>
			<g>
				<path d="M104.1,39.7l0-0.2l1.5-0.1l0.4-0.1l0,0.2h-2h1L104.1,39.7z M105.1,39.5L105.1,39.5h0.9H105.1z"/>
			</g>
			<g>
				<polygon points="80.4,39.5 78.4,39.5 80.4,39.5 				"/>
			</g>
			<g>
				<path d="M98.4,70.8H86.1c-4.2,0-7.7-3.4-7.7-7.6V39.5h2c0,0.7,4.1,2.5,11.8,2.5s11.8-1.8,11.8-2.5h2v23.6
					C106.1,67.4,102.6,70.8,98.4,70.8z M80.4,42v21.1c0,3.1,2.6,5.6,5.7,5.6h12.3c3.1,0,5.7-2.5,5.7-5.6V42c-2.6,1.4-7.3,2-11.8,2
					S83,43.4,80.4,42z"/>
			</g>
		</g>
		<g>
			<path d="M92.2,44.1c-6.7,0-13.8-1.5-13.8-4.7c0-3.2,7.2-4.7,13.8-4.7s13.8,1.5,13.8,4.7C106.1,42.6,98.9,44.1,92.2,44.1z
				 M92.2,36.7c-7.8,0-11.8,1.9-11.8,2.7c0,0.8,4,2.7,11.8,2.7c7.8,0,11.8-1.9,11.8-2.7C104.1,38.6,100.1,36.7,92.2,36.7z"/>
		</g>
	</g>
	<g>
		<g>
			<polygon class="st0" points="221.4,39.5 221.4,39.5 221.4,39.5 			"/>
			<polygon class="st0" points="195.7,39.5 195.7,39.5 195.7,39.5 			"/>
			<path class="st1" d="M208.6,43.1c-7.1,0-12.8-1.6-12.8-3.5v23.6c0,3.7,3,6.6,6.7,6.6h12.3c3.7,0,6.7-3,6.7-6.6V39.5
				C221.4,41.5,215.7,43.1,208.6,43.1z"/>
		</g>
		<path class="st2" d="M216.6,42.3V65c0,1.9-0.8,3.6-2.1,4.8h0.3c3.7,0,6.7-3,6.7-6.6V39.5C221.4,40.7,219.5,41.7,216.6,42.3z"/>
		<ellipse class="st2" cx="208.6" cy="39.4" rx="12.8" ry="3.7"/>
		<path class="st1" d="M197.2,41.1c2.1-1.2,6.4-2,11.4-2c5,0,9.3,0.8,11.4,2c0.9-0.5,1.4-1.1,1.4-1.7c0-2-5.7-3.7-12.8-3.7
			c-7.1,0-12.8,1.7-12.8,3.7C195.7,40,196.3,40.6,197.2,41.1z"/>
		<g>
			<g>
				<path d="M220.4,39.7l0-0.2l1.5-0.1l0.4-0.1l0,0.2h-2h1L220.4,39.7z M221.5,39.5L221.5,39.5h0.9H221.5z"/>
			</g>
			<g>
				<polygon points="196.7,39.5 194.7,39.5 196.7,39.5 				"/>
			</g>
			<g>
				<path d="M214.7,70.8h-12.3c-4.2,0-7.7-3.4-7.7-7.6V39.5h2c0,0.7,4.1,2.5,11.8,2.5s11.8-1.8,11.8-2.5h2v23.6
					C222.4,67.4,219,70.8,214.7,70.8z M196.7,42v21.1c0,3.1,2.6,5.6,5.7,5.6h12.3c3.1,0,5.7-2.5,5.7-5.6V42c-2.6,1.4-7.3,2-11.8,2
					S199.3,43.4,196.7,42z"/>
			</g>
		</g>
		<g>
			<path d="M208.6,44.1c-6.7,0-13.8-1.5-13.8-4.7c0-3.2,7.2-4.7,13.8-4.7s13.8,1.5,13.8,4.7C222.4,42.6,215.2,44.1,208.6,44.1z
				 M208.6,36.7c-7.8,0-11.8,1.9-11.8,2.7c0,0.8,4,2.7,11.8,2.7c7.8,0,11.8-1.9,11.8-2.7C220.4,38.6,216.4,36.7,208.6,36.7z"/>
		</g>
	</g>
	<g>
		<g>
			<polygon class="st0" points="162.6,168.8 162.6,168.8 162.6,168.8 			"/>
			<polygon class="st0" points="136.9,168.8 136.9,168.8 136.9,168.8 			"/>
			<path class="st1" d="M149.8,172.3c-7.1,0-12.8-1.6-12.8-3.5v23.6c0,3.7,3,6.6,6.7,6.6h12.3c3.7,0,6.7-3,6.7-6.6v-23.6
				C162.6,170.7,156.9,172.3,149.8,172.3z"/>
		</g>
		<path class="st2" d="M157.8,171.5v22.7c0,1.9-0.8,3.6-2.1,4.8h0.3c3.7,0,6.7-3,6.7-6.6v-23.6C162.6,169.9,160.7,170.9,157.8,171.5
			z"/>
		<ellipse class="st2" cx="149.8" cy="168.6" rx="12.8" ry="3.7"/>
		<path class="st1" d="M138.4,170.3c2.1-1.2,6.4-2,11.4-2c5,0,9.3,0.8,11.4,2c0.9-0.5,1.4-1.1,1.4-1.7c0-2-5.7-3.7-12.8-3.7
			c-7.1,0-12.8,1.7-12.8,3.7C136.9,169.2,137.5,169.8,138.4,170.3z"/>
		<g>
			<g>
				<path d="M161.6,168.9l0-0.2l1.5-0.1l0.5-0.1l0,0.2h-2h1L161.6,168.9z M162.7,168.8L162.7,168.8h0.9H162.7z"/>
			</g>
			<g>
				<path d="M155.9,200h-12.3c-4.2,0-7.7-3.4-7.7-7.6v-23.6h2c0,0.7,4.2,2.5,11.8,2.5s11.8-1.8,11.8-2.5h2v23.6
					C163.6,196.6,160.2,200,155.9,200z M137.9,171.3v21.1c0,3.1,2.6,5.6,5.7,5.6h12.3c3.1,0,5.7-2.5,5.7-5.6v-21.1
					c-2.6,1.4-7.3,2-11.8,2S140.5,172.6,137.9,171.3z"/>
			</g>
		</g>
		<g>
			<path d="M149.8,173.3c-6.7,0-13.8-1.5-13.8-4.7c0-3.2,7.2-4.7,13.8-4.7s13.8,1.5,13.8,4.7C163.6,171.8,156.5,173.3,149.8,173.3z
				 M149.8,165.9c-7.8,0-11.8,1.9-11.8,2.7c0,0.8,4,2.7,11.8,2.7c7.8,0,11.8-1.9,11.8-2.7C161.6,167.8,157.6,165.9,149.8,165.9z"/>
		</g>
	</g>
	<g>
		<g>
			<polygon class="st0" points="242.9,87.4 242.9,87.4 242.9,87.4 			"/>
			<polygon class="st0" points="217.3,87.4 217.3,87.4 217.3,87.4 			"/>
			<path class="st4" d="M230.1,91c-7.1,0-12.8-1.6-12.8-3.5v23.6c0,3.7,3,6.6,6.7,6.6h12.3c3.7,0,6.7-3,6.7-6.6V87.4
				C242.9,89.4,237.2,91,230.1,91z"/>
		</g>
		<path class="st5" d="M238.1,90.2v22.7c0,1.9-0.8,3.6-2.1,4.8h0.3c3.7,0,6.7-3,6.7-6.6V87.4C242.9,88.6,241.1,89.5,238.1,90.2z"/>
		<ellipse class="st5" cx="230.1" cy="87.3" rx="12.8" ry="3.7"/>
		<path class="st4" d="M218.7,89c2.1-1.2,6.4-2,11.4-2c5,0,9.3,0.8,11.4,2c0.9-0.5,1.4-1.1,1.4-1.7c0-2-5.7-3.7-12.8-3.7
			c-7.1,0-12.8,1.7-12.8,3.7C217.3,87.9,217.8,88.5,218.7,89z"/>
		<g>
			<g>
				<path d="M242,87.6l0-0.2l1.5-0.1l0.5-0.1l0,0.2h-2h1L242,87.6z M243,87.4L243,87.4h0.9H243z"/>
			</g>
			<g>
				<path d="M236.3,118.7H224c-4.2,0-7.7-3.4-7.7-7.6V87.4h2c0,0.7,4.2,2.5,11.8,2.5s11.8-1.8,11.8-2.5h2v23.6
					C243.9,115.3,240.5,118.7,236.3,118.7z M218.3,89.9v21.1c0,3.1,2.6,5.6,5.7,5.6h12.3c3.1,0,5.7-2.5,5.7-5.6V89.9
					c-2.6,1.4-7.3,2-11.8,2S220.9,91.3,218.3,89.9z"/>
			</g>
		</g>
		<g>
			<path d="M230.1,92c-6.7,0-13.8-1.5-13.8-4.7s7.2-4.7,13.8-4.7s13.8,1.5,13.8,4.7S236.8,92,230.1,92z M230.1,84.5
				c-7.8,0-11.8,1.9-11.8,2.7s4,2.7,11.8,2.7c7.8,0,11.8-1.9,11.8-2.7S237.9,84.5,230.1,84.5z"/>
		</g>
	</g>
	<g>
		<g>
			<polygon class="st0" points="105.3,132.8 105.3,132.8 105.3,132.8 			"/>
			<polygon class="st0" points="79.7,132.8 79.7,132.8 79.7,132.8 			"/>
			<path class="st4" d="M92.5,136.4c-7.1,0-12.8-1.6-12.8-3.5v23.6c0,3.7,3,6.6,6.7,6.6h12.3c3.7,0,6.7-3,6.7-6.6v-23.6
				C105.3,134.8,99.6,136.4,92.5,136.4z"/>
		</g>
		<path class="st5" d="M100.5,135.6v22.7c0,1.9-0.8,3.6-2.1,4.8h0.3c3.7,0,6.7-3,6.7-6.6v-23.6C105.3,134,103.5,135,100.5,135.6z"/>
		<ellipse class="st5" cx="92.5" cy="132.7" rx="12.8" ry="3.7"/>
		<path class="st4" d="M81.1,134.4c2.1-1.2,6.4-2,11.4-2c5,0,9.3,0.8,11.4,2c0.9-0.5,1.4-1.1,1.4-1.7c0-2-5.7-3.7-12.8-3.7
			c-7.1,0-12.8,1.7-12.8,3.7C79.7,133.3,80.2,133.9,81.1,134.4z"/>
		<g>
			<g>
				<polygon points="106.3,132.8 104.3,132.8 106.3,132.8 				"/>
			</g>
			<g>
				<polygon points="80.7,132.8 78.7,132.8 80.7,132.8 				"/>
			</g>
			<g>
				<path d="M98.7,164.1H86.4c-4.2,0-7.7-3.4-7.7-7.6v-23.6h2c0,0.7,4.1,2.5,11.8,2.5s11.8-1.8,11.8-2.5h2v23.6
					C106.3,160.7,102.9,164.1,98.7,164.1z M80.7,135.3v21.1c0,3.1,2.6,5.6,5.7,5.6h12.3c3.1,0,5.7-2.5,5.7-5.6v-21.1
					c-2.6,1.4-7.3,2-11.8,2S83.3,136.7,80.7,135.3z"/>
			</g>
		</g>
		<g>
			<path d="M92.5,137.4c-6.7,0-13.8-1.5-13.8-4.7c0-3.2,7.2-4.7,13.8-4.7s13.8,1.5,13.8,4.7C106.3,135.9,99.2,137.4,92.5,137.4z
				 M92.5,130c-7.8,0-11.8,1.9-11.8,2.7c0,0.8,4,2.7,11.8,2.7s11.8-1.9,11.8-2.7C104.3,131.9,100.3,130,92.5,130z"/>
		</g>
	</g>
	<g>
		<g>
			<polygon class="st0" points="163.6,4.9 163.6,4.9 163.6,4.9 			"/>
			<polygon class="st0" points="137.9,4.9 137.9,4.9 137.9,4.9 			"/>
			<path class="st0" d="M150.8,8.4c-7.1,0-12.8-1.6-12.8-3.5v23.6c0,3.7,3,6.6,6.7,6.6h12.3c3.7,0,6.7-3,6.7-6.6V4.9
				C163.6,6.8,157.9,8.4,150.8,8.4z"/>
		</g>
		<path class="st3" d="M158.8,7.6v22.7c0,1.9-0.8,3.6-2.1,4.8h0.3c3.7,0,6.7-3,6.7-6.6V4.9C163.6,6,161.7,7,158.8,7.6z"/>
		<ellipse class="st3" cx="150.8" cy="4.7" rx="12.8" ry="3.7"/>
		<path class="st0" d="M139.4,6.4c2.1-1.2,6.4-2,11.4-2c5,0,9.3,0.8,11.4,2c0.9-0.5,1.4-1.1,1.4-1.7c0-2-5.7-3.7-12.8-3.7
			c-7.1,0-12.8,1.7-12.8,3.7C137.9,5.3,138.5,5.9,139.4,6.4z"/>
		<g>
			<g>
				<path d="M162.6,5.1l0-0.2l1.5-0.1l0.5-0.1l0,0.2h-2h1L162.6,5.1z M163.7,4.9L163.7,4.9h0.9H163.7z"/>
			</g>
			<g>
				<path d="M156.9,36.1h-12.3c-4.2,0-7.7-3.4-7.7-7.6V4.9h2c0,0.7,4.1,2.5,11.8,2.5s11.8-1.8,11.8-2.5h2v23.6
					C164.6,32.7,161.2,36.1,156.9,36.1z M138.9,7.4v21.1c0,3.1,2.6,5.6,5.7,5.6h12.3c3.1,0,5.7-2.5,5.7-5.6V7.4
					c-2.6,1.4-7.3,2-11.8,2S141.5,8.7,138.9,7.4z"/>
			</g>
		</g>
		<g>
			<path d="M150.8,9.4c-6.7,0-13.8-1.5-13.8-4.7S144.1,0,150.8,0s13.8,1.5,13.8,4.7S157.5,9.4,150.8,9.4z M150.8,2
				c-7.8,0-11.8,1.9-11.8,2.7s4,2.7,11.8,2.7c7.8,0,11.8-1.9,11.8-2.7S158.6,2,150.8,2z"/>
		</g>
	</g>
	<g>
		<g>
			<polygon class="st0" points="82.7,87 82.7,87 82.7,87 			"/>
			<polygon class="st0" points="57.1,87 57.1,87 57.1,87 			"/>
			<path class="st0" d="M69.9,90.5c-7.1,0-12.8-1.6-12.8-3.5v23.6c0,3.7,3,6.6,6.7,6.6H76c3.7,0,6.7-3,6.7-6.6V87
				C82.7,89,77,90.5,69.9,90.5z"/>
		</g>
		<path class="st3" d="M77.9,89.8v22.7c0,1.9-0.8,3.6-2.1,4.8H76c3.7,0,6.7-3,6.7-6.6V87C82.7,88.1,80.8,89.1,77.9,89.8z"/>
		<ellipse class="st3" cx="69.9" cy="86.8" rx="12.8" ry="3.7"/>
		<path class="st0" d="M58.5,88.5c2.1-1.2,6.4-2,11.4-2c5,0,9.3,0.8,11.4,2c0.9-0.5,1.4-1.1,1.4-1.7c0-2-5.7-3.7-12.8-3.7
			c-7.1,0-12.8,1.7-12.8,3.7C57.1,87.5,57.6,88,58.5,88.5z"/>
		<g>
			<g>
				<path d="M81.8,87.2l0-0.2l1.5-0.1l0.5-0.1l0,0.2h-2h1L81.8,87.2z M82.8,87L82.8,87h0.9H82.8z"/>
			</g>
			<g>
				<polygon points="58.1,87 56.1,87 58.1,87 				"/>
			</g>
			<g>
				<path d="M76,118.3H63.7c-4.2,0-7.7-3.4-7.7-7.6V87h2c0,0.7,4.1,2.5,11.8,2.5s11.8-1.8,11.8-2.5h2v23.6
					C83.7,114.8,80.3,118.3,76,118.3z M58.1,89.5v21.1c0,3.1,2.6,5.6,5.7,5.6H76c3.1,0,5.7-2.5,5.7-5.6V89.5c-2.6,1.4-7.3,2-11.8,2
					S60.7,90.9,58.1,89.5z"/>
			</g>
		</g>
		<g>
			<path d="M69.9,91.5c-6.7,0-13.8-1.5-13.8-4.7s7.2-4.7,13.8-4.7s13.8,1.5,13.8,4.7S76.6,91.5,69.9,91.5z M69.9,84.1
				c-7.8,0-11.8,1.9-11.8,2.7s4,2.7,11.8,2.7c7.8,0,11.8-1.9,11.8-2.7S77.7,84.1,69.9,84.1z"/>
		</g>
	</g>
	<g>
		<g>
			<polygon class="st0" points="222.4,132.4 222.4,132.4 222.4,132.4 			"/>
			<polygon class="st0" points="196.7,132.4 196.7,132.4 196.7,132.4 			"/>
			<path class="st0" d="M209.6,136c-7.1,0-12.8-1.6-12.8-3.5v23.6c0,3.7,3,6.6,6.7,6.6h12.3c3.7,0,6.7-3,6.7-6.6v-23.6
				C222.4,134.4,216.7,136,209.6,136z"/>
		</g>
		<path class="st3" d="M217.6,135.2v22.7c0,1.9-0.8,3.6-2.1,4.8h0.3c3.7,0,6.7-3,6.7-6.6v-23.6C222.4,133.6,220.5,134.5,217.6,135.2
			z"/>
		<ellipse class="st3" cx="209.6" cy="132.3" rx="12.8" ry="3.7"/>
		<path class="st0" d="M198.2,134c2.1-1.2,6.4-2,11.4-2c5,0,9.3,0.8,11.4,2c0.9-0.5,1.4-1.1,1.4-1.7c0-2-5.7-3.7-12.8-3.7
			c-7.1,0-12.8,1.7-12.8,3.7C196.7,132.9,197.3,133.4,198.2,134z"/>
		<g>
			<g>
				<path d="M221.4,132.6l0-0.2l1.5-0.1l0.5-0.1l0,0.2h-2h1L221.4,132.6z M222.5,132.4L222.5,132.4h0.9H222.5z"/>
			</g>
			<g>
				<path d="M215.7,163.7h-12.3c-4.2,0-7.7-3.4-7.7-7.6v-23.6h2c0,0.7,4.2,2.5,11.8,2.5s11.8-1.8,11.8-2.5h2v23.6
					C223.4,160.3,220,163.7,215.7,163.7z M197.7,134.9v21.1c0,3.1,2.6,5.6,5.7,5.6h12.3c3.1,0,5.7-2.5,5.7-5.6v-21.1
					c-2.6,1.4-7.3,2-11.8,2S200.3,136.3,197.7,134.9z"/>
			</g>
		</g>
		<g>
			<path d="M209.6,137c-6.7,0-13.8-1.5-13.8-4.7c0-3.2,7.2-4.7,13.8-4.7s13.8,1.5,13.8,4.7C223.4,135.5,216.2,137,209.6,137z
				 M209.6,129.5c-7.8,0-11.8,1.9-11.8,2.7c0,0.8,4,2.7,11.8,2.7c7.8,0,11.8-1.9,11.8-2.7C221.4,131.4,217.4,129.5,209.6,129.5z"/>
		</g>
	</g>
	<g>
		<rect x="149.2" y="35.1" width="2" height="31.1"/>
	</g>
	<g>
		<rect x="148.7" y="132.2" width="2" height="31.8"/>
	</g>
	<g>
		<polygon points="196.1,146.1 173.2,123.4 174.6,122 197.5,144.7 		"/>
	</g>
	<g>
		<rect x="183" y="98.2" width="33.8" height="2"/>
	</g>
	<g>
		<polygon points="175.1,77.3 173.7,75.9 194.7,55.2 196.1,56.6 		"/>
	</g>
	<g>
		<polygon points="126.2,77.1 103.8,54.9 105.2,53.5 127.7,75.7 		"/>
	</g>
	<g>
		<rect x="82.6" y="99.2" width="34.8" height="2"/>
	</g>
	<g>
		<polygon points="106.3,146.6 104.9,145.2 127.3,123.1 128.7,124.5 		"/>
	</g>
</g>
</svg>
