<?xml version="1.0" encoding="UTF-8" standalone="no"?>
<!-- Generator: Adobe Illustrator 24.3.0, SVG Export Plug-In . SVG Version: 6.00 Build 0)  -->

<svg
   version="1.1"
   id="Capa_1"
   x="0px"
   y="0px"
   viewBox="0 0 300 200"
   style="enable-background:new 0 0 300 200;"
   xml:space="preserve"
   sodipodi:docname="issue.svg"
   inkscape:version="1.1.2 (0a00cf5339, 2022-02-04)"
   xmlns:inkscape="http://www.inkscape.org/namespaces/inkscape"
   xmlns:sodipodi="http://sodipodi.sourceforge.net/DTD/sodipodi-0.dtd"
   xmlns="http://www.w3.org/2000/svg"
   xmlns:svg="http://www.w3.org/2000/svg"
   xmlns:rdf="http://www.w3.org/1999/02/22-rdf-syntax-ns#"
   xmlns:cc="http://creativecommons.org/ns#"
   xmlns:dc="http://purl.org/dc/elements/1.1/"><metadata
   id="metadata2743"><rdf:RDF><cc:Work
       rdf:about=""><dc:format>image/svg+xml</dc:format><dc:type
         rdf:resource="http://purl.org/dc/dcmitype/StillImage" /></cc:Work></rdf:RDF></metadata><defs
   id="defs2741">
	
	
	
	
	
	
	
	
	
	
	
	
	
	
	
	
</defs><sodipodi:namedview
   pagecolor="#ffffff"
   bordercolor="#666666"
   borderopacity="1"
   objecttolerance="10"
   gridtolerance="10"
   guidetolerance="10"
   inkscape:pageopacity="0"
   inkscape:pageshadow="2"
   inkscape:window-width="1920"
   inkscape:window-height="1011"
   id="namedview2739"
   showgrid="false"
   inkscape:pagecheckerboard="true"
   inkscape:zoom="2.1637468"
   inkscape:cx="184.40235"
   inkscape:cy="93.58766"
   inkscape:window-x="0"
   inkscape:window-y="32"
   inkscape:window-maximized="1"
   inkscape:current-layer="Capa_1" />
<style
   type="text/css"
   id="style2680">
	.st0{fill:#5F7993;}
	.st1{fill:#17B5C8;}
	.st2{fill:#11828F;}
	.st3{fill:#405162;}
	.st4{fill:#A6D100;}
	.st5{fill:#89AB00;}
	.st6{fill:#FFFFFF;}
	.st7{fill:none;stroke:#17B5C8;stroke-width:2;stroke-miterlimit:10;}
</style>

<g
   id="g1817"
   transform="translate(14.872104)"><path
     id="path6311"
     style="fill:#405162;fill-opacity:0.988833;stroke:#000000;stroke-width:3.66425;stroke-linecap:round;stroke-linejoin:round"
     d="m 86.995902,26.682979 c 4.579852,-3.094086 9.473453,-5.759037 14.623088,-7.937153 5.14965,-2.178117 10.55535,-3.8694 16.1594,-5.016155 5.60405,-1.146754 11.40645,-1.748979 17.34951,-1.748979 47.54448,2e-6 86.08688,38.542416 86.08688,86.086887 0,47.544471 -38.54241,86.086881 -86.08688,86.086881 -47.544475,0 -86.086889,-38.54241 -86.086889,-86.086881 0,-5.943059 0.602225,-11.745462 1.748979,-17.349511 1.146755,-5.604048 2.838038,-11.009745 5.016155,-16.159391 2.178117,-5.149647 4.843067,-10.043244 7.937154,-14.623096"
     sodipodi:nodetypes="cssssssssc" /><path
     id="path6311-7"
     style="fill:#5f7993;fill-opacity:0.988833;stroke-width:2.89301;stroke-linecap:round;stroke-linejoin:round"
     d="m 219.47812,97.955524 c 0,46.581056 -36.87113,78.868016 -83.45213,78.791386 -43.227339,-0.0711 -73.280234,-30.18069 -73.644667,-76.76033 -0.340965,-43.580055 31.83139,-80.142874 73.671227,-80.426533 46.57999,-0.315795 83.42557,31.81442 83.42557,78.395477 z"
     sodipodi:nodetypes="sssss" /><circle
     style="fill:#ffffff;fill-opacity:0.988833;stroke:#000000;stroke-width:3.56163;stroke-linecap:round;stroke-linejoin:round"
     id="path1285"
     cx="135.62968"
     cy="97.457283"
     r="67.593109" /><g
     id="g1128"
     transform="matrix(0.71070819,0,0,0.71070819,40.082838,28.51994)"><path
       id="path7015"
       style="fill:#89ab00;fill-opacity:0.988833;stroke:#000000;stroke-width:2.33753;stroke-linecap:round;stroke-linejoin:round"
       d="m 152.95066,158.57396 a 15.320176,15.320176 0 0 1 -15.32018,15.32017 15.320176,15.320176 0 0 1 -15.32017,-15.32017 15.320176,15.320176 0 0 1 15.32017,-15.32019 15.320176,15.320176 0 0 1 15.32018,15.32019 z" /><path
       style="fill:#a6d100;stroke:#000000;stroke-width:2.49581;stroke-linecap:butt;stroke-linejoin:miter;stroke-miterlimit:4;stroke-dasharray:none;stroke-opacity:1"
       d="m 155.63188,88.962491 c 3.52453,-16.755238 11.65932,-48.749411 3.80627,-58.751268 -7.79095,-8.778036 -35.04132,-9.706995 -43.12899,0.615398 -8.08767,10.322394 11.65692,107.015279 11.65692,107.015279 l 16.96807,0.55144 6.93878,-28.72706"
       id="path7072"
       sodipodi:nodetypes="cczccc" /></g></g></svg>
