<?xml version="1.0" encoding="utf-8"?>
<!-- Generator: Adobe Illustrator 24.3.0, SVG Export Plug-In . SVG Version: 6.00 Build 0)  -->
<svg version="1.1" id="Capa_1" xmlns="http://www.w3.org/2000/svg" xmlns:xlink="http://www.w3.org/1999/xlink" x="0px" y="0px"
	 viewBox="0 0 300 200" style="enable-background:new 0 0 300 200;" xml:space="preserve">
<style type="text/css">
	.st0{fill:#5F7993;}
	.st1{fill:#17B5C8;}
	.st2{fill:#11828F;}
	.st3{fill:#405162;}
	.st4{fill:#A6D100;}
	.st5{fill:#89AB00;}
	.st6{fill:#FFFFFF;}
	.st7{fill:none;stroke:#17B5C8;stroke-width:2;stroke-miterlimit:10;}
</style>
<g>
	<path class="st1" d="M180.9,199h1.9h37.3c19.3,0,31.7-20.5,22.8-37.7l-24.4-46.7c-3-1.3-6.4-2-9.9-2c-11.9,0-21.3,5.7-24.6,19.3
		c-1.9,7.7-12.6,20.1-24.8,20.1c-11.2,0-20.7-7.3-24.1-17.4l-0.4-0.1l-14,26.8c-8.9,17.1,3.5,37.7,22.8,37.7H180.9z"/>
	<path class="st2" d="M135.2,149.6c3.3,10.1,12.8,17.4,24.1,17.4c12.2,0,22.9-12.3,24.8-20.1c3.4-13.7,12.7-19.3,24.6-19.3
		c3.5,0,6.8,0.7,9.9,2c0,0,4.4,2,10.1,4.3l-10.1-19.3c-3-1.3-6.4-2-9.9-2c-11.9,0-21.3,5.7-24.6,19.3c-1.9,7.7-12.6,20.1-24.8,20.1
		c-11.2,0-20.7-7.3-24.1-17.4l-0.4-0.1l-3.5,6.6C133.1,145.8,135.2,149.6,135.2,149.6z"/>
	<path class="st0" d="M197.9,16.7h-32.1c-4.3,0-7.8-3.5-7.8-7.8v0c0-4.3,3.5-7.8,7.8-7.8h32.1c4.3,0,7.8,3.5,7.8,7.8v0
		C205.7,13.2,202.2,16.7,197.9,16.7z"/>
	<path class="st3" d="M169,8.8c0-4.3,3.5-7.8,7.8-7.8h-11c-4.3,0-7.8,3.5-7.8,7.8c0,4.3,3.5,7.8,7.8,7.8h11
		C172.5,16.7,169,13.2,169,8.8z"/>
	<path class="st4" d="M95.3,88.2c0-4.9-3.9-8.8-8.6-8.8s-8.5,3.5-8.6,8.8c-0.1,3.1-3.8,8.7-8.5,8.7c-4.5,0-8.2-3.5-8.6-8v92
		c0,8.2,6.6,14.8,14.8,14.8h4.8c8.2,0,14.8-6.6,14.8-14.8L95.3,88.2L95.3,88.2z"/>
	<path class="st5" d="M95.3,88.2c0-4.9-3.9-8.8-8.6-8.8s-8.5,3.5-8.6,8.8c-0.1,3.1-3.8,8.7-8.5,8.7c-4.5,0-8.2-3.5-8.6-8v21.2
		c0.4,4.5,4.1,8,8.6,8c4.8,0,8.5-5.6,8.5-8.7c0.1-5.3,3.9-8.8,8.6-8.8s8.6,4,8.6,8.8l0,0L95.3,88.2L95.3,88.2z"/>
	<path class="st0" d="M94.1,62.5H62c-4.3,0-7.8-3.5-7.8-7.8v0c0-4.3,3.5-7.8,7.8-7.8h32.1c4.3,0,7.8,3.5,7.8,7.8v0
		C102,59,98.5,62.5,94.1,62.5z"/>
	<path class="st3" d="M66.5,54.6c0-4.3,3.5-7.8,7.8-7.8H62c-4.3,0-7.8,3.5-7.8,7.8s3.5,7.8,7.8,7.8h12.3C70,62.5,66.5,59,66.5,54.6z
		"/>
	<g>
		<path d="M94.1,63.5H62c-4.9,0-8.8-4-8.8-8.8s4-8.8,8.8-8.8h32.1c4.9,0,8.8,4,8.8,8.8S99,63.5,94.1,63.5z M62,47.8
			c-3.8,0-6.8,3.1-6.8,6.8c0,3.8,3.1,6.8,6.8,6.8h32.1c3.8,0,6.8-3.1,6.8-6.8c0-3.8-3.1-6.8-6.8-6.8H62z"/>
	</g>
	<g>
		<path d="M197.9,17.7h-32.1c-4.9,0-8.8-4-8.8-8.8s4-8.8,8.8-8.8h32.1c4.9,0,8.8,4,8.8,8.8S202.8,17.7,197.9,17.7z M165.8,2
			c-3.8,0-6.8,3.1-6.8,6.8s3.1,6.8,6.8,6.8h32.1c3.8,0,6.8-3.1,6.8-6.8S201.7,2,197.9,2H165.8z"/>
	</g>
	<g>
		<path d="M80.6,196.7h-4.8c-8.7,0-15.8-7.1-15.8-15.8V61.7h36.3v119.2C96.4,189.6,89.3,196.7,80.6,196.7z M62,63.7v117.2
			c0,7.6,6.2,13.8,13.8,13.8h4.8c7.6,0,13.8-6.2,13.8-13.8V63.7H62z"/>
	</g>
	<g>
		<path d="M220.1,200h-76.5c-9.4,0-18-4.8-22.8-12.9c-4.9-8.1-5.2-17.9-0.8-26.2l40.5-77.7c3-5.8,4.6-12.3,4.6-18.9V15.7h33.6v48.7
			c0,6.5,1.6,13.1,4.6,18.9l40.5,77.7c4.4,8.4,4.1,18.2-0.8,26.2C238,195.2,229.5,200,220.1,200z M167.1,17.7v46.7
			c0,6.9-1.7,13.7-4.9,19.8l-40.5,77.7c-4,7.7-3.8,16.8,0.8,24.3c4.5,7.5,12.4,11.9,21.1,11.9h76.5c8.7,0,16.6-4.5,21.1-11.9
			c4.5-7.5,4.8-16.5,0.8-24.3l-40.5-77.7c-3.2-6.1-4.9-12.9-4.9-19.8V17.7H167.1z"/>
	</g>
	<g>
		<path d="M82.8,37c-4.6,0-8.3-3.7-8.3-8.3c0-4.6,3.7-8.3,8.3-8.3c4.6,0,8.3,3.7,8.3,8.3C91.1,33.3,87.4,37,82.8,37z M82.8,22.5
			c-3.5,0-6.3,2.8-6.3,6.3s2.8,6.3,6.3,6.3s6.3-2.8,6.3-6.3S86.3,22.5,82.8,22.5z"/>
	</g>
	<g>
		<path d="M172.4,114.6c-3.2,0-5.8-2.6-5.8-5.9s2.6-5.9,5.8-5.9s5.8,2.6,5.8,5.9S175.6,114.6,172.4,114.6z M172.4,104.9
			c-2.1,0-3.8,1.7-3.8,3.9s1.7,3.9,3.8,3.9c2.1,0,3.8-1.7,3.8-3.9S174.5,104.9,172.4,104.9z"/>
	</g>
	<g>
		<path d="M96,12.1c-3.2,0-5.8-2.6-5.8-5.9s2.6-5.9,5.8-5.9s5.8,2.6,5.8,5.9S99.2,12.1,96,12.1z M96,2.4c-2.1,0-3.8,1.7-3.8,3.9
			c0,2.1,1.7,3.9,3.8,3.9c2.1,0,3.8-1.7,3.8-3.9C99.9,4.1,98.1,2.4,96,2.4z"/>
	</g>
	<g>
		<path d="M69.2,11.9c-1.9,0-3.4-1.5-3.4-3.4S67.3,5,69.2,5s3.4,1.5,3.4,3.4S71,11.9,69.2,11.9z M69.2,7c-0.8,0-1.4,0.6-1.4,1.4
			c0,0.8,0.6,1.4,1.4,1.4s1.4-0.6,1.4-1.4C70.6,7.7,69.9,7,69.2,7z"/>
	</g>
	<g>
		<path d="M182,93.5c-1.9,0-3.4-1.5-3.4-3.4s1.5-3.4,3.4-3.4c1.9,0,3.4,1.5,3.4,3.4S183.9,93.5,182,93.5z M182,88.7
			c-0.8,0-1.4,0.6-1.4,1.4c0,0.8,0.6,1.4,1.4,1.4s1.4-0.6,1.4-1.4C183.4,89.3,182.8,88.7,182,88.7z"/>
	</g>
	<g>
		<path d="M159.2,141.3c-4.9,0-8.9-4-8.9-8.9s4-8.9,8.9-8.9s8.9,4,8.9,8.9S164.1,141.3,159.2,141.3z M159.2,125.5
			c-3.8,0-6.9,3.1-6.9,6.9s3.1,6.9,6.9,6.9s6.9-3.1,6.9-6.9S163,125.5,159.2,125.5z"/>
	</g>
	<g>
		<path d="M220.1,200h-76.5c-9.4,0-18-4.8-22.8-12.9c-4.9-8.1-5.2-17.9-0.8-26.2l14.3-27.5l1.7,0.4l0.2,0.5
			c3.3,10,12.6,16.7,23.1,16.7c11.4,0,21.9-11.6,23.8-19.3c3.2-13.1,12.1-20.1,25.6-20.1c3.5,0,7,0.7,10.3,2.1l0.3,0.1l24.6,47.1
			c4.4,8.4,4.1,18.2-0.8,26.2C238,195.2,229.5,200,220.1,200z M134.8,136.6l-13.1,25.2c-4,7.7-3.7,16.8,0.8,24.3
			c4.5,7.5,12.4,11.9,21.1,11.9h76.5c8.7,0,16.6-4.5,21.1-11.9c4.5-7.5,4.8-16.5,0.8-24.3l-24.2-46.4c-2.9-1.2-6-1.8-9.1-1.8
			c-12.5,0-20.7,6.4-23.7,18.6c-2.1,8.5-13.2,20.9-25.7,20.9C148.4,153,138.8,146.5,134.8,136.6z"/>
	</g>
	<g>
		<path d="M80.6,196.7h-4.8c-8.7,0-15.8-7.1-15.8-15.8v-92l2-0.1c0.4,4,3.6,7.1,7.6,7.1c4.2,0,7.5-5.2,7.5-7.7
			c0.1-5.7,4.2-9.8,9.6-9.8c5.2,0,9.4,4.2,9.6,9.5l0,0v93C96.4,189.6,89.3,196.7,80.6,196.7z M62,94.1v86.8
			c0,7.6,6.2,13.8,13.8,13.8h4.8c7.6,0,13.8-6.2,13.8-13.8V88.5l0-0.4c0-4.3-3.4-7.8-7.6-7.8c-4.4,0-7.5,3.2-7.6,7.9
			c-0.1,3.4-4.1,9.7-9.5,9.7C66.5,97.9,63.8,96.4,62,94.1z"/>
	</g>
</g>
</svg>
