<?xml version="1.0" encoding="UTF-8" standalone="no"?>
<!-- Generator: Adobe Illustrator 24.3.0, SVG Export Plug-In . SVG Version: 6.00 Build 0)  -->

<svg
   xmlns:dc="http://purl.org/dc/elements/1.1/"
   xmlns:cc="http://creativecommons.org/ns#"
   xmlns:rdf="http://www.w3.org/1999/02/22-rdf-syntax-ns#"
   xmlns:svg="http://www.w3.org/2000/svg"
   xmlns="http://www.w3.org/2000/svg"
   xmlns:sodipodi="http://sodipodi.sourceforge.net/DTD/sodipodi-0.dtd"
   xmlns:inkscape="http://www.inkscape.org/namespaces/inkscape"
   version="1.1"
   id="Capa_1"
   x="0px"
   y="0px"
   viewBox="0 0 300 200"
   style="enable-background:new 0 0 300 200;"
   xml:space="preserve"
   sodipodi:docname="launcher.svg"
   inkscape:version="0.92.5 (2060ec1f9f, 2020-04-08)"><metadata
   id="metadata2743"><rdf:RDF><cc:Work
       rdf:about=""><dc:format>image/svg+xml</dc:format><dc:type
         rdf:resource="http://purl.org/dc/dcmitype/StillImage" /><dc:title></dc:title></cc:Work></rdf:RDF></metadata><defs
   id="defs2741">
	
	
	
	
	
	
	
	
	
	
	
	
	
	
	
	
</defs><sodipodi:namedview
   pagecolor="#ffffff"
   bordercolor="#666666"
   borderopacity="1"
   objecttolerance="10"
   gridtolerance="10"
   guidetolerance="10"
   inkscape:pageopacity="0"
   inkscape:pageshadow="2"
   inkscape:window-width="1920"
   inkscape:window-height="1016"
   id="namedview2739"
   showgrid="false"
   inkscape:pagecheckerboard="true"
   inkscape:zoom="3.06"
   inkscape:cx="150"
   inkscape:cy="100"
   inkscape:window-x="0"
   inkscape:window-y="27"
   inkscape:window-maximized="1"
   inkscape:current-layer="Capa_1" />
<style
   type="text/css"
   id="style2680">
	.st0{fill:#5F7993;}
	.st1{fill:#17B5C8;}
	.st2{fill:#11828F;}
	.st3{fill:#405162;}
	.st4{fill:#A6D100;}
	.st5{fill:#89AB00;}
	.st6{fill:#FFFFFF;}
	.st7{fill:none;stroke:#17B5C8;stroke-width:2;stroke-miterlimit:10;}
</style>
<rect
   style="opacity:1;fill:#ffffff;fill-opacity:1;fill-rule:nonzero;stroke:none;stroke-width:0.5669291;stroke-linecap:round;stroke-linejoin:round;stroke-miterlimit:4;stroke-dasharray:none;stroke-dashoffset:0;stroke-opacity:1"
   id="rect5692"
   width="187.90849"
   height="176.79738"
   x="16.666666"
   y="22.222223"
   ry="20.3092" /><path
   style="fill:#5f7993"
   inkscape:connector-curvature="0"
   id="path2682"
   d="M 280.4,58.6 268.2,46.5 c -4.2,-4.2 -11.1,-4.2 -15.3,0 l -4,4 27.5,27.2 4,-4 c 4.2,-4.2 4.2,-11 0,-15.1 z"
   class="st0" /><path
   style="fill:#405162"
   inkscape:connector-curvature="0"
   id="path2684"
   d="m 272.9,61 c -9.5,0 -18,-4.2 -23.7,-10.8 l -0.3,0.3 27.5,27.2 4,-4 c 3.8,-3.8 4.2,-9.7 1,-13.9 -2.7,0.7 -5.6,1.2 -8.5,1.2 z"
   class="st3" /><polygon
   style="fill:#a6d100"
   id="polygon2686"
   points="168.8,157.6 172.4,167.6 182.2,170.9 271.1,82.8 257.7,69.5 "
   class="st4" /><polygon
   style="fill:#17b5c8"
   id="polygon2688"
   points="159,154.3 168.8,157.6 257.7,69.5 243.6,55.6 154.7,143.7 "
   class="st1" /><path
   style="fill:#a6d100"
   inkscape:connector-curvature="0"
   id="path2690"
   d="M 202.8,50.9 152.4,1 v 29.7 c -0.1,0 -0.2,0 -0.2,0 -37.3,0 -67.6,30 -67.6,66.9 0,7.1 1.1,14 3.2,20.4 8.7,-27 34.2,-46.5 64.4,-46.5 0.1,0 0.2,0 0.2,0 v 29.3 z"
   class="st4" /><path
   style="fill:#89ab00"
   inkscape:connector-curvature="0"
   id="path2692"
   d="m 174.4,78.9 c -3.8,-5.8 -14.9,-19.2 -36.7,-18.5 -26.9,0.8 -49.2,27.4 -52.8,44.2 0.4,3.5 1,6.9 1.9,10.2 2.5,-5.2 17.2,-34 37.6,-37.7 0.2,0 0.4,-0.1 0.6,-0.1 8.3,-3.6 17.4,-5.6 27.1,-5.6 0.1,0 0.2,0 0.2,0 v 29.3 z"
   class="st5" /><g
   id="g2696">
		<path
   inkscape:connector-curvature="0"
   id="path2694"
   d="M 186.9,200 H 34.8 C 24.2,200 15.5,191.4 15.5,180.9 V 40 c 0,-10.5 8.7,-19.1 19.3,-19.1 h 76 c 0.6,0 1,0.4 1,1 0,0.6 -0.4,1 -1,1 h -76 c -9.5,0 -17.3,7.7 -17.3,17.1 v 140.9 c 0,9.4 7.8,17.1 17.3,17.1 h 152.1 c 9.5,0 17.3,-7.7 17.3,-17.1 v -32.1 c 0,-0.5 0.4,-1 1,-1 0.6,0 1,0.4 1,1 v 32.1 c 0,10.5 -8.6,19.1 -19.3,19.1 z" />
	</g><g
   id="g2700">
		<path
   inkscape:connector-curvature="0"
   id="path2698"
   d="m 162.9,175 c -0.3,0 -0.5,-0.1 -0.7,-0.3 l -10.6,-10.5 c -0.4,-0.4 -0.4,-1 0,-1.4 0.4,-0.4 1,-0.4 1.4,0 l 10.6,10.5 c 0.4,0.4 0.4,1 0,1.4 -0.2,0.2 -0.4,0.3 -0.7,0.3 z" />
	</g><g
   id="g2704">
		<path
   inkscape:connector-curvature="0"
   id="path2702"
   d="m 276.3,78.7 c -0.3,0 -0.5,-0.1 -0.7,-0.3 L 248.1,51.2 c -0.2,-0.2 -0.3,-0.4 -0.3,-0.7 0,-0.3 0.1,-0.5 0.3,-0.7 l 4,-4 c 4.6,-4.6 12.1,-4.6 16.7,0 l 7.2,7.1 c 0.4,0.4 0.4,1 0,1.4 -0.4,0.4 -1,0.4 -1.4,0 l -7.2,-7.1 c -3.8,-3.8 -10,-3.8 -13.9,0 l -3.3,3.3 26.1,25.8 3.3,-3.3 c 1.9,-1.8 2.9,-4.3 2.9,-6.9 0,-2.6 -1,-5 -2.9,-6.9 -0.4,-0.4 -0.4,-1 0,-1.4 0.4,-0.4 1,-0.4 1.4,0 2.2,2.2 3.5,5.1 3.5,8.3 0,3.1 -1.2,6.1 -3.5,8.3 l -4,4 c -0.1,0.2 -0.4,0.3 -0.7,0.3 z" />
	</g><g
   id="g2708">
		<path
   inkscape:connector-curvature="0"
   id="path2706"
   d="m 271.1,83.8 c -0.3,0 -0.5,-0.1 -0.7,-0.3 L 242.9,56.3 c -0.4,-0.4 -0.4,-1 0,-1.4 l 5.2,-5.2 c 0.4,-0.4 1,-0.4 1.4,0 L 277.1,77 c 0.4,0.4 0.4,1 0,1.4 l -5.2,5.2 c -0.3,0.1 -0.5,0.2 -0.8,0.2 z m -26,-28.2 26.1,25.8 3.8,-3.8 -26.1,-25.8 z" />
	</g><path
   style="fill:#11828f"
   inkscape:connector-curvature="0"
   id="path2710"
   d="m 244.1,83 13.5,-13.4 -14,-13.9 -4.4,4.3 c 2.6,7.3 4.2,15 4.9,23 z"
   class="st2" /><path
   style="fill:#89ab00"
   inkscape:connector-curvature="0"
   id="path2712"
   d="m 244.6,92.1 c 0,6.4 -0.6,12.7 -1.8,18.8 L 271.1,82.8 257.7,69.5 244.1,83 c 0.3,3 0.5,6 0.5,9.1 z"
   class="st5" /><g
   id="g2716">
		<path
   inkscape:connector-curvature="0"
   id="path2714"
   d="m 168.8,158.6 c -0.1,0 -0.2,0 -0.3,-0.1 l -9.8,-3.3 c -0.3,-0.1 -0.5,-0.3 -0.6,-0.6 L 153.8,144 c -0.1,-0.4 -0.1,-0.8 0.2,-1.1 l 12.3,-12.2 c 0.4,-0.4 1,-0.4 1.4,0 0.4,0.4 0.4,1 0,1.4 l -11.9,11.7 3.9,9.6 8.7,2.9 87.8,-86.9 -12.6,-12.4 -65.5,64.9 c -0.4,0.4 -1,0.4 -1.4,0 -0.4,-0.4 -0.4,-1 0,-1.4 l 66.2,-65.6 c 0.4,-0.4 1,-0.4 1.4,0 l 14,13.9 c 0.4,0.4 0.4,1 0,1.4 l -88.9,88 c -0.1,0.3 -0.4,0.4 -0.6,0.4 z" />
	</g><g
   id="g2720">
		<path
   inkscape:connector-curvature="0"
   id="path2718"
   d="m 182.2,171.9 c -0.1,0 -0.2,0 -0.3,-0.1 l -9.8,-3.3 c -0.3,-0.1 -0.5,-0.3 -0.6,-0.6 l -3.6,-10 c -0.1,-0.4 0,-0.8 0.2,-1 l 88.9,-88 c 0.4,-0.4 1,-0.4 1.4,0 l 13.4,13.3 c 0.4,0.4 0.4,1 0,1.4 l -88.9,88 c -0.2,0.2 -0.4,0.3 -0.7,0.3 z m -9,-5.1 8.8,2.9 87.8,-86.9 -12,-11.9 -87.8,86.9 z" />
	</g><g
   id="g2730">
		<g
   id="g2724">
			<path
   inkscape:connector-curvature="0"
   id="path2722"
   d="m 168.8,158.6 c -0.3,0 -0.5,-0.1 -0.7,-0.3 -0.2,-0.2 -0.3,-0.5 -0.3,-0.7 0,-0.2 0.1,-0.5 0.3,-0.7 0.4,-0.4 1,-0.4 1.4,0 0.2,0.2 0.3,0.5 0.3,0.7 0,0.2 -0.1,0.5 -0.3,0.7 v 0 c -0.2,0.2 -0.5,0.3 -0.7,0.3 z" />
		</g>
		<g
   id="g2728">
			<path
   inkscape:connector-curvature="0"
   id="path2726"
   d="m 150.1,177 c -0.3,0 -0.5,-0.1 -0.7,-0.3 -0.2,-0.2 -0.3,-0.5 -0.3,-0.9 L 154,144 c 0.1,-0.4 0.4,-0.8 0.9,-0.8 0.4,-0.1 0.9,0.2 1,0.6 l 3.9,9.7 9.3,3.1 c 0.3,0.1 0.5,0.3 0.6,0.6 l 3.5,9.6 9.1,3 c 0.2,0 0.5,0.1 0.7,0.3 l 0.1,0.1 c 0.3,0.3 0.4,0.7 0.2,1 -0.2,0.3 -0.4,0.6 -0.8,0.7 l -32.3,5 c 0,0.1 -0.1,0.1 -0.1,0.1 z m 5.3,-29.1 -4.1,26.8 27,-4.2 -6.1,-2.1 c -0.3,-0.1 -0.5,-0.3 -0.6,-0.6 l -3.5,-9.6 -9.3,-3.1 c -0.3,-0.1 -0.5,-0.3 -0.6,-0.6 z" />
		</g>
	</g><g
   id="g2734">
		<path
   inkscape:connector-curvature="0"
   id="path2732"
   d="m 87.7,119 c -0.4,0 -0.8,-0.3 -1,-0.7 -2.2,-6.7 -3.3,-13.7 -3.3,-20.7 0,-37.2 30.4,-67.5 67.9,-67.9 V 1 c 0,-0.4 0.2,-0.8 0.6,-0.9 0.4,-0.2 0.8,-0.1 1.1,0.2 l 50.4,49.9 c 0.4,0.4 0.4,1 0,1.4 L 153,101.5 c -0.3,0.3 -0.7,0.4 -1.1,0.2 -0.4,-0.2 -0.6,-0.5 -0.6,-0.9 V 72.5 c -28.8,0.4 -53.9,18.7 -62.7,45.8 0,0.4 -0.4,0.7 -0.9,0.7 z m 64.5,-87.3 c -36.8,0 -66.7,29.6 -66.7,65.9 0,5.8 0.8,11.6 2.3,17.1 9.9,-26.6 35.4,-44.3 64.3,-44.3 h 0.2 c 0.6,0 1.1,0.4 1.1,1 v 26.9 l 48,-47.5 -48,-47.5 v 27.3 c 0,0.3 -0.1,0.5 -0.3,0.7 -0.2,0.2 -0.4,0.3 -0.7,0.3 z" />
	</g>
</svg>