<?xml version="1.0" encoding="utf-8"?>
<!-- Generator: Adobe Illustrator 24.3.0, SVG Export Plug-In . SVG Version: 6.00 Build 0)  -->
<svg version="1.1" id="Capa_1" xmlns="http://www.w3.org/2000/svg" xmlns:xlink="http://www.w3.org/1999/xlink" x="0px" y="0px"
	 viewBox="0 0 300 200" style="enable-background:new 0 0 300 200;" xml:space="preserve">
<style type="text/css">
	.st0{fill:#5F7993;}
	.st1{fill:#17B5C8;}
	.st2{fill:#11828F;}
	.st3{fill:#405162;}
	.st4{fill:#A6D100;}
	.st5{fill:#89AB00;}
	.st6{fill:#FFFFFF;}
	.st7{fill:none;stroke:#17B5C8;stroke-width:2;stroke-miterlimit:10;}
</style>
<g>
	<g>
		<path class="st4" d="M249.5,160.6c-0.3,0-0.7,0-1,0c-21.2,0-38.4,17.2-38.4,38.4h39.4V160.6z"/>
	</g>
	<g>
		<path class="st1" d="M248.5,120.2c0.3,0,0.7,0,1,0V81.8c-0.3,0-0.7,0-1,0c-64.7,0-117.2,52.5-117.2,117.2h38.4
			C169.7,155.5,205,120.2,248.5,120.2z"/>
	</g>
	<g>
		<path class="st0" d="M248.5,44.1c0.3,0,0.7,0,1,0V1c-0.3,0-0.7,0-1,0c-109.4,0-198,88.7-198,198h43.1
			C93.6,113.4,162.9,44.1,248.5,44.1z"/>
	</g>
	<path class="st3" d="M133.4,39c0-0.4,0-0.8,0-1.1C83.2,73.8,50.5,132.6,50.5,199h43.1c0-43.6,18-83,47.1-111.2
		C135.9,72.4,133.4,56,133.4,39z"/>
	<path class="st2" d="M157.3,125.4c-16.3,20.1-26,45.7-26,73.6h38.4c0-15.4,4.5-29.8,12.1-42C172.4,147.5,164.2,136.9,157.3,125.4z"
		/>
	<path class="st5" d="M213.8,182.4c-2.4,5-3.8,10.7-3.8,16.6h39.4v-0.2C236.9,194.7,224.9,189.2,213.8,182.4z"/>
	<g>
		<g>
			<path d="M249.5,200h-39.4c-0.5,0-1-0.4-1-1c0-21.7,17.7-39.4,39.4-39.4c0.2,0,0.5,0,0.7,0l0.3,0c0.5,0,1,0.5,1,1V199
				C250.5,199.6,250,200,249.5,200z M211.1,198h37.4v-36.4C228.2,161.6,211.6,177.8,211.1,198z"/>
		</g>
	</g>
	<g>
		<g>
			<path d="M169.7,200h-38.4c-0.5,0-1-0.4-1-1c0-65.2,53-118.2,118.2-118.2c0.2,0,0.4,0,0.6,0l0.4,0c0.5,0,1,0.4,1,1v38.4
				c0,0.3-0.1,0.5-0.3,0.7c-0.2,0.2-0.4,0.3-0.7,0.3l-0.4,0c-0.2,0-0.3,0-0.5,0c-42.9,0-77.8,34.9-77.8,77.8
				C170.7,199.6,170.2,200,169.7,200z M132.3,198h36.4c0.5-43.5,36.1-78.8,79.8-78.8V82.8C184.7,82.8,132.8,134.4,132.3,198z"/>
		</g>
	</g>
	<g>
		<g>
			<path d="M93.6,200H50.5c-0.5,0-1-0.4-1-1c0-109.7,89.3-199,199-199c0.2,0,0.4,0,0.6,0l0.4,0c0.5,0,1,0.4,1,1v43.1
				c0,0.3-0.1,0.5-0.3,0.7c-0.2,0.2-0.4,0.3-0.7,0.3c0,0,0,0,0,0l-1,0c-84.9,0-154,69.1-154,154C94.5,199.6,94.1,200,93.6,200z
				 M51.5,198h41.1c0.5-85.5,70.3-154.9,155.9-154.9l0-41.1C140.2,2,52,89.8,51.5,198z"/>
		</g>
	</g>
</g>
</svg>
