<?xml version="1.0" encoding="UTF-8" standalone="no"?>
<!-- Generator: Adobe Illustrator 24.3.0, SVG Export Plug-In . SVG Version: 6.00 Build 0)  -->

<svg
   xmlns:dc="http://purl.org/dc/elements/1.1/"
   xmlns:cc="http://creativecommons.org/ns#"
   xmlns:rdf="http://www.w3.org/1999/02/22-rdf-syntax-ns#"
   xmlns:svg="http://www.w3.org/2000/svg"
   xmlns="http://www.w3.org/2000/svg"
   xmlns:sodipodi="http://sodipodi.sourceforge.net/DTD/sodipodi-0.dtd"
   xmlns:inkscape="http://www.inkscape.org/namespaces/inkscape"
   version="1.1"
   id="Capa_1"
   x="0px"
   y="0px"
   viewBox="0 0 300 200"
   style="enable-background:new 0 0 300 200;"
   xml:space="preserve"
   sodipodi:docname="mail-domain.svg"
   inkscape:version="0.92.5 (2060ec1f9f, 2020-04-08)"><metadata
   id="metadata3596"><rdf:RDF><cc:Work
       rdf:about=""><dc:format>image/svg+xml</dc:format><dc:type
         rdf:resource="http://purl.org/dc/dcmitype/StillImage" /></cc:Work></rdf:RDF></metadata><defs
   id="defs3594" /><sodipodi:namedview
   pagecolor="#ffffff"
   bordercolor="#666666"
   borderopacity="1"
   objecttolerance="10"
   gridtolerance="10"
   guidetolerance="10"
   inkscape:pageopacity="0"
   inkscape:pageshadow="2"
   inkscape:window-width="1920"
   inkscape:window-height="1016"
   id="namedview3592"
   showgrid="false"
   inkscape:zoom="4.265"
   inkscape:cx="150"
   inkscape:cy="100"
   inkscape:window-x="0"
   inkscape:window-y="27"
   inkscape:window-maximized="1"
   inkscape:current-layer="Capa_1" />
<style
   type="text/css"
   id="style3535">
	.st0{fill:#5F7993;}
	.st1{fill:#17B5C8;}
	.st2{fill:#11828F;}
	.st3{fill:#405162;}
	.st4{fill:#A6D100;}
	.st5{fill:#89AB00;}
	.st6{fill:#FFFFFF;}
	.st7{fill:none;stroke:#17B5C8;stroke-width:2;stroke-miterlimit:10;}
</style>
<path
   style="fill:#ffffff;stroke:none;stroke-width:1px;stroke-linecap:butt;stroke-linejoin:miter;stroke-opacity:1"
   d="M 125.90856,36.576788 126.84642,122.15709 241.4,123.1 241.50059,66.822978 C 235.57235,53.313045 233.45934,37.215747 208.20633,36.811254 Z"
   id="path3598"
   inkscape:connector-curvature="0"
   sodipodi:nodetypes="cccccc" /><g
   id="g3589">
	<path
   class="st1"
   d="M178.6,122.8v41.9c0,10.2,4.1,20.1,11.3,27.3l7,7h-23.3h-6.4h-28.6l7-7c7.2-7.2,11.3-17.1,11.3-27.3v-41.9   H178.6z"
   id="path3537" />
	<path
   class="st2"
   d="M189.9,192c-5.2-5.2-8.7-11.7-10.3-18.8c-10,11.9-23.6,20.6-39.2,24.2l-1.6,1.6h28.6h6.4h23.3L189.9,192z"
   id="path3539" />
	<path
   class="st0"
   d="M129.3,37.2h-5.4c-9.4,0-18,3.8-24.1,10.1h19.3l-0.4,0.4h0.9v46.9H90v12.7h72.7v14.8h0.5v-51   C163.2,52.4,148,37.2,129.3,37.2z"
   id="path3541" />
	<path
   class="st3"
   d="M129.3,37.2h-5.4c-9.4,0-18,3.8-24.1,10.1h19.3l-0.4,0.4h0.9V48c17,1.9,30.1,16.3,30.1,33.7v25.5h12.9v14.8   h0.5v-51C163.2,52.4,148,37.2,129.3,37.2z"
   id="path3543" />
	<path
   class="st4"
   d="M166.2,5.9h25.7c1.5,0,2.7,1.2,2.7,2.7v13.3c0,1.5-1.2,2.7-2.7,2.7h-25.7V5.9z"
   id="path3545" />
	<path
   class="st5"
   d="M191.9,5.9h-8.1c1.5,0,2.7,1.2,2.7,2.7V22c0,1.5-1.2,2.7-2.7,2.7h8.1c1.5,0,2.7-1.2,2.7-2.7V8.6   C194.6,7.1,193.4,5.9,191.9,5.9z"
   id="path3547" />
	<path
   class="st1"
   d="M162.7,107.2H75.9c-1.8,0-3.2,1.4-3.2,3.2v8.5c0,1.8,1.4,3.2,3.2,3.2h86.8V107.2z"
   id="path3549" />
	<rect
   x="151.8"
   y="107.2"
   class="st2"
   width="10.9"
   height="14.8"
   id="rect3551" />
	<g
   id="g3555">
		<path
   d="M162.7,123.1H75.8c-2.3,0-4.1-1.8-4.1-4.1v-8.6c0-2.3,1.8-4.1,4.1-4.1h14.5c0.5,0,1,0.4,1,1c0,0.5-0.4,1-1,1H75.8    c-1.2,0-2.1,1-2.1,2.1v8.6c0,1.2,1,2.1,2.1,2.1h86.9c0.5,0,1,0.4,1,1C163.7,122.6,163.3,123.1,162.7,123.1z"
   id="path3553" />
	</g>
	<g
   id="g3559">
		<path
   d="M119.6,95.5H58.6c-0.5,0-1-0.4-1-1V47.6c0-0.5,0.4-1,1-1h61.1c0.5,0,1,0.4,1,1v46.9C120.6,95.1,120.2,95.5,119.6,95.5z     M59.6,93.5h59.1v-45H59.6V93.5z"
   id="path3557" />
	</g>
	<g
   id="g3563">
		<path
   d="M166.2,38.3c-0.5,0-1-0.4-1-1V1c0-0.5,0.4-1,1-1s1,0.4,1,1v36.4C167.2,37.9,166.8,38.3,166.2,38.3z"
   id="path3561" />
	</g>
	<g
   id="g3567">
		<path
   d="M191.9,25.6h-25.7c-0.5,0-1-0.4-1-1V5.9c0-0.5,0.4-1,1-1h25.7c2,0,3.7,1.6,3.7,3.7V22C195.6,24,194,25.6,191.9,25.6z     M167.2,23.7h24.7c0.9,0,1.7-0.8,1.7-1.7V8.6c0-0.9-0.8-1.7-1.7-1.7h-24.7V23.7z"
   id="path3565" />
	</g>
	<g
   id="g3571">
		<path
   d="M88.9,78.4c-0.3,0-0.5-0.1-0.7-0.3L58,47.9c-0.3-0.3-0.4-0.7-0.2-1.1c0.2-0.4,0.5-0.6,0.9-0.6h60.4c0.4,0,0.8,0.2,0.9,0.6    c0.2,0.4,0.1,0.8-0.2,1.1L89.6,78.1C89.4,78.3,89.2,78.4,88.9,78.4z M61.1,48.2L88.9,76l27.8-27.8H61.1z"
   id="path3569" />
	</g>
	<g
   id="g3575">
		<path
   d="M162.6,108.5c-0.5,0-1-0.4-1-1V71.1c0-18.2-14.8-32.9-32.9-32.9c-0.5,0-1-0.4-1-1c0-0.5,0.4-1,1-1    c19.3,0,34.9,15.7,34.9,34.9v36.4C163.6,108,163.1,108.5,162.6,108.5z"
   id="path3573" />
	</g>
	<g
   id="g3579">
		<path
   d="M241.4,123.1h-78.7c-0.5,0-1-0.4-1-1v-13.8h-11.9c-0.5,0-1-0.4-1-1c0-0.5,0.4-1,1-1h12.9c0.5,0,1,0.4,1,1v13.8h76.7v-50    c0-9.9-4.4-19.2-12.1-25.5c-0.4-0.3-0.5-1-0.1-1.4c0.3-0.4,1-0.5,1.4-0.1c8.2,6.7,12.8,16.5,12.8,27v51    C242.4,122.6,242,123.1,241.4,123.1z"
   id="path3577" />
	</g>
	<g
   id="g3583">
		<path
   d="M137.6,108.2H90c-0.5,0-1-0.4-1-1V94.5c0-0.5,0.4-1,1-1h28.7v-45c-0.3,0-0.5-0.2-0.6-0.3H99.8c-0.4,0-0.8-0.2-0.9-0.6    c-0.2-0.4-0.1-0.8,0.2-1.1c6.6-6.7,15.4-10.3,24.8-10.3h83.6c0.5,0,1,0.4,1,1c0,0.5-0.4,1-1,1h-83.6c-8,0-15.6,2.8-21.6,8.1h16.8    c0.3,0,0.6,0.1,0.8,0.4c0.4,0.1,0.7,0.5,0.7,1v46.9c0,0.5-0.4,1-1,1H91v10.7h46.7c0.5,0,1,0.4,1,1    C138.6,107.8,138.2,108.2,137.6,108.2z"
   id="path3581" />
	</g>
	<g
   id="g3587">
		<path
   d="M196.9,200h-58.2c-0.4,0-0.8-0.2-0.9-0.6c-0.2-0.4-0.1-0.8,0.2-1.1l7-7c7.1-7.1,11-16.5,11-26.6v-41.9c0-0.5,0.4-1,1-1    h21.5c0.5,0,1,0.4,1,1v41.9c0,10,3.9,19.5,11,26.6l7,7c0.3,0.3,0.4,0.7,0.2,1.1C197.7,199.8,197.3,200,196.9,200z M141.1,198h53.5    l-5.4-5.4c-7.5-7.5-11.6-17.4-11.6-28v-40.9H158v40.9c0,10.6-4.1,20.5-11.6,28L141.1,198z"
   id="path3585" />
	</g>
</g>
</svg>