<?xml version="1.0" encoding="utf-8"?>
<!-- Generator: Adobe Illustrator 24.3.0, SVG Export Plug-In . SVG Version: 6.00 Build 0)  -->
<svg version="1.1" id="Capa_1" xmlns="http://www.w3.org/2000/svg" xmlns:xlink="http://www.w3.org/1999/xlink" x="0px" y="0px"
	 viewBox="0 0 300 200" style="enable-background:new 0 0 300 200;" xml:space="preserve">
<style type="text/css">
	.st0{fill:#5F7993;}
	.st1{fill:#17B5C8;}
	.st2{fill:#11828F;}
	.st3{fill:#405162;}
	.st4{fill:#A6D100;}
	.st5{fill:#89AB00;}
	.st6{fill:#FFFFFF;}
	.st7{fill:none;stroke:#17B5C8;stroke-width:2;stroke-miterlimit:10;}
</style>
<g>
	<path class="st1" d="M8.3,1h234.8c4.1,0,7.3,3.3,7.3,7.3v132.2c0,4.1-3.3,7.3-7.3,7.3H8.3c-4.1,0-7.3-3.3-7.3-7.3V8.3
		C1,4.3,4.3,1,8.3,1z"/>
	<path class="st1" d="M8.3,1h234.8c4.1,0,7.3,3.3,7.3,7.3v132.2c0,4.1-3.3,7.3-7.3,7.3H8.3c-4.1,0-7.3-3.3-7.3-7.3V8.3
		C1,4.3,4.3,1,8.3,1z"/>
	<path class="st2" d="M242.8,1h-16.1c4.3,0,7.7,3.4,7.7,7.6v131.7c0,4.2-3.4,7.6-7.7,7.6h16.1c4.3,0,7.7-3.4,7.7-7.6V8.6
		C250.5,4.4,247,1,242.8,1z"/>
	<path class="st4" d="M268.8,28.8h-18.4v111.5c0,4.2-3.4,7.6-7.7,7.6H27.1v20.2c0,4.2,3.4,7.6,7.7,7.6h234.1c4.3,0,7.7-3.4,7.7-7.6
		V36.4C276.5,32.2,273.1,28.8,268.8,28.8z"/>
	<path class="st5" d="M250.5,28.8v111.5c0,4.2-3.4,7.6-7.7,7.6H27.1v13.8h227.6c4.3,0,7.7-3.4,7.7-7.6V28.8H250.5z"/>
	<path class="st0" d="M291.3,52.1h-14.8v115.9c0,4.2-3.4,7.6-7.7,7.6H49.5v15.8c0,4.2,3.4,7.6,7.7,7.6h234.1c4.3,0,7.7-3.4,7.7-7.6
		V59.7C299,55.5,295.6,52.1,291.3,52.1z"/>
	<path class="st3" d="M276.5,52.1v115.9c0,4.2-3.4,7.6-7.7,7.6H49.5v10.3h227.6c4.3,0,7.7-3.4,7.7-7.6V52.1H276.5z"/>
	<g>
		<path d="M243.2,148.9H8.3c-4.6,0-8.3-3.7-8.3-8.3V8.3C0,3.7,3.7,0,8.3,0h234.9c4.6,0,8.3,3.7,8.3,8.3v132.4
			C251.5,145.2,247.8,148.9,243.2,148.9z M8.3,2C4.8,2,2,4.8,2,8.3v132.4c0,3.5,2.8,6.3,6.3,6.3h234.9c3.5,0,6.3-2.8,6.3-6.3V8.3
			c0-3.5-2.8-6.3-6.3-6.3H8.3z"/>
	</g>
	<g>
		<path d="M268.8,176.7H34.7c-4.8,0-8.7-3.9-8.7-8.6v-20.2c0-0.5,0.4-1,1-1h215.7c3.7,0,6.7-3,6.7-6.6V28.8c0-0.5,0.4-1,1-1h18.4
			c4.8,0,8.7,3.9,8.7,8.6v131.7C277.5,172.8,273.6,176.7,268.8,176.7z M28,148.9v19.2c0,3.6,3,6.6,6.7,6.6h234.1
			c3.7,0,6.7-3,6.7-6.6V36.4c0-3.6-3-6.6-6.7-6.6h-17.4v110.5c0,4.7-3.9,8.6-8.7,8.6H28z"/>
	</g>
	<g>
		<path d="M291.3,200H57.2c-4.8,0-8.7-3.9-8.7-8.6v-15.8c0-0.5,0.4-1,1-1h219.3c3.7,0,6.7-3,6.7-6.6V52.1c0-0.5,0.4-1,1-1h14.8
			c4.8,0,8.7,3.9,8.7,8.6v131.7C300,196.1,296.1,200,291.3,200z M50.5,176.7v14.8c0,3.6,3,6.6,6.7,6.6h234.1c3.7,0,6.7-3,6.7-6.6
			V59.7c0-3.6-3-6.6-6.7-6.6h-13.8v115c0,4.7-3.9,8.6-8.7,8.6H50.5z"/>
	</g>
	<g>
		<path class="st6" d="M65.6,79.6H34.3c-5.8,0-10.5-4.7-10.5-10.5V38.4c0-5.8,4.7-10.5,10.5-10.5h31.4c5.8,0,10.5,4.7,10.5,10.5
			v30.7C76.2,74.9,71.5,79.6,65.6,79.6z"/>
		<path d="M65.7,80.6H34.2c-6.3,0-11.5-5.1-11.5-11.4V38.3c0-6.3,5.1-11.4,11.5-11.4h31.5c6.3,0,11.5,5.1,11.5,11.4v30.9
			C77.2,75.5,72,80.6,65.7,80.6z M34.2,28.9c-5.2,0-9.5,4.2-9.5,9.4v30.9c0,5.2,4.2,9.4,9.5,9.4h31.5c5.2,0,9.5-4.2,9.5-9.4V38.3
			c0-5.2-4.2-9.4-9.5-9.4H34.2z"/>
	</g>
	<g>
		<path d="M225.9,58.4H122.3c-0.5,0-1-0.4-1-1c0-0.5,0.4-1,1-1h103.6c0.5,0,1,0.4,1,1C226.9,58,226.5,58.4,225.9,58.4z"/>
	</g>
	<g>
		<path d="M189.1,79.4h-66.8c-0.5,0-1-0.4-1-1s0.4-1,1-1h66.8c0.5,0,1,0.4,1,1S189.6,79.4,189.1,79.4z"/>
	</g>
	<g>
		<path d="M225.9,102.5H122.3c-0.5,0-1-0.4-1-1c0-0.5,0.4-1,1-1h103.6c0.5,0,1,0.4,1,1C226.9,102,226.5,102.5,225.9,102.5z"/>
	</g>
</g>
</svg>
