<?xml version="1.0" encoding="utf-8"?>
<!-- Generator: Adobe Illustrator 24.3.0, SVG Export Plug-In . SVG Version: 6.00 Build 0)  -->
<svg version="1.1" id="Capa_1" xmlns="http://www.w3.org/2000/svg" xmlns:xlink="http://www.w3.org/1999/xlink" x="0px" y="0px"
	 viewBox="0 0 300 200" style="enable-background:new 0 0 300 200;" xml:space="preserve">
<style type="text/css">
	.st0{fill:#5F7993;}
	.st1{fill:#17B5C8;}
	.st2{fill:#11828F;}
	.st3{fill:#405162;}
	.st4{fill:#A6D100;}
	.st5{fill:#89AB00;}
	.st6{fill:#FFFFFF;}
	.st7{fill:none;stroke:#17B5C8;stroke-width:2;stroke-miterlimit:10;}
</style>
<g>
	<path class="st4" d="M107.9,1C96.4,1,87,10.4,87,21.9v16.1C87,49.6,96.4,59,107.9,59s20.9-9.4,20.9-20.9V21.9
		C128.8,10.4,119.5,1,107.9,1z M116.9,38.1c0,5-4,9-9,9c-5,0-9-4-9-9V21.9c0-5,4-9,9-9c5,0,9,4,9,9V38.1z"/>
	<path class="st0" d="M72.2,71.5c-11.5,0-20.9,9.4-20.9,20.9v16.1c0,11.5,9.4,20.9,20.9,20.9s20.9-9.4,20.9-20.9V92.4
		C93.1,80.8,83.7,71.5,72.2,71.5z M81.2,108.5c0,5-4,9-9,9s-9-4-9-9V92.4c0-5,4-9,9-9s9,4,9,9V108.5z"/>
	<path class="st4" d="M159.1,71.5c-11.5,0-20.9,9.4-20.9,20.9v16.1c0,11.5,9.4,20.9,20.9,20.9S180,120,180,108.5V92.4
		C180,80.8,170.6,71.5,159.1,71.5z M168.1,108.5c0,5-4,9-9,9s-9-4-9-9V92.4c0-5,4-9,9-9s9,4,9,9V108.5z"/>
	<path class="st1" d="M194.8,1c-11.5,0-20.9,9.4-20.9,20.9v16.1c0,11.5,9.4,20.9,20.9,20.9s20.9-9.4,20.9-20.9V21.9
		C215.7,10.4,206.4,1,194.8,1z M203.8,38.1c0,5-4,9-9,9s-9-4-9-9V21.9c0-5,4-9,9-9s9,4,9,9V38.1z"/>
	<path class="st4" d="M107.9,1C96.4,1,87,10.4,87,21.9v16.1C87,49.6,96.4,59,107.9,59s20.9-9.4,20.9-20.9V21.9
		C128.8,10.4,119.5,1,107.9,1z M116.9,38.1c0,5-4,9-9,9c-5,0-9-4-9-9V21.9c0-5,4-9,9-9c5,0,9,4,9,9V38.1z"/>
	<path class="st0" d="M72.2,71.5c-11.5,0-20.9,9.4-20.9,20.9v16.1c0,11.5,9.4,20.9,20.9,20.9s20.9-9.4,20.9-20.9V92.4
		C93.1,80.8,83.7,71.5,72.2,71.5z M81.2,108.5c0,5-4,9-9,9s-9-4-9-9V92.4c0-5,4-9,9-9s9,4,9,9V108.5z"/>
	<path class="st4" d="M159.1,71.5c-11.5,0-20.9,9.4-20.9,20.9v16.1c0,11.5,9.4,20.9,20.9,20.9S180,120,180,108.5V92.4
		C180,80.8,170.6,71.5,159.1,71.5z M168.1,108.5c0,5-4,9-9,9s-9-4-9-9V92.4c0-5,4-9,9-9s9,4,9,9V108.5z"/>
	<path class="st1" d="M194.8,1c-11.5,0-20.9,9.4-20.9,20.9v16.1c0,11.5,9.4,20.9,20.9,20.9s20.9-9.4,20.9-20.9V21.9
		C215.7,10.4,206.4,1,194.8,1z M203.8,38.1c0,5-4,9-9,9s-9-4-9-9V21.9c0-5,4-9,9-9s9,4,9,9V38.1z"/>
	<g>
		<path class="st5" d="M112,52.1c5,0,9-4,9-9V27c0-3.3-1.8-6.2-4.4-7.8c0.3,0.9,0.4,1.8,0.4,2.7v16.1c0,5-4,9-9,9
			c-1.7,0-3.2-0.5-4.6-1.2C104.5,49.4,107.9,52.1,112,52.1z"/>
		<path class="st5" d="M91,43.1V27C91,15.4,100.4,6,112,6c5.4,0,10.4,2.1,14.1,5.5C122.5,5.3,115.7,1,107.9,1
			C96.4,1,87,10.4,87,21.9v16.1c0,6.1,2.6,11.5,6.8,15.4C92.1,50.4,91,46.9,91,43.1z"/>
	</g>
	<g>
		<path class="st3" d="M76.2,122.5c5,0,9-4,9-9V97.4c0-3.3-1.8-6.2-4.4-7.8c0.3,0.9,0.4,1.8,0.4,2.7v16.1c0,5-4,9-9,9
			c-1.7,0-3.2-0.5-4.6-1.2C68.8,119.9,72.2,122.5,76.2,122.5z"/>
		<path class="st3" d="M55.3,113.5V97.4c0-11.5,9.4-20.9,20.9-20.9c5.4,0,10.4,2.1,14.1,5.5c-3.6-6.3-10.4-10.6-18.1-10.6
			c-11.5,0-20.9,9.4-20.9,20.9v16.1c0,6.1,2.6,11.5,6.8,15.4C56.3,120.8,55.3,117.3,55.3,113.5z"/>
	</g>
	<g>
		<path class="st5" d="M163.1,122.5c5,0,9-4,9-9V97.4c0-3.3-1.8-6.2-4.4-7.8c0.3,0.9,0.4,1.8,0.4,2.7v16.1c0,5-4,9-9,9
			c-1.7,0-3.2-0.5-4.6-1.2C155.7,119.9,159.1,122.5,163.1,122.5z"/>
		<path class="st5" d="M142.2,113.5V97.4c0-11.5,9.4-20.9,20.9-20.9c5.4,0,10.4,2.1,14.1,5.5c-3.6-6.3-10.4-10.6-18.1-10.6
			c-11.5,0-20.9,9.4-20.9,20.9v16.1c0,6.1,2.6,11.5,6.8,15.4C143.2,120.8,142.2,117.3,142.2,113.5z"/>
	</g>
	<g>
		<path class="st2" d="M198.9,52.1c5,0,9-4,9-9V27c0-3.3-1.8-6.2-4.4-7.8c0.3,0.9,0.4,1.8,0.4,2.7v16.1c0,5-4,9-9,9
			c-1.7,0-3.2-0.5-4.6-1.2C191.4,49.4,194.9,52.1,198.9,52.1z"/>
		<path class="st2" d="M178,43.1V27C178,15.4,187.3,6,198.9,6c5.4,0,10.4,2.1,14.1,5.5C209.4,5.3,202.6,1,194.8,1
			c-11.5,0-20.9,9.4-20.9,20.9v16.1c0,6.1,2.6,11.5,6.8,15.4C179,50.4,178,46.9,178,43.1z"/>
	</g>
	<path class="st4" d="M242.9,59c-3.3,0-6-2.7-6-6V13l-5.9,0.1c-3.3,0-6-2.7-6-6s2.7-6,6-6h11.9c3.3,0,6,2.7,6,6v45.9
		C248.9,56.3,246.2,59,242.9,59z"/>
	<path class="st0" d="M156.2,199c-3.3,0-6-2.7-6-6V153l-5.9,0.1c-3.3,0-6-2.7-6-6c0-3.3,2.7-6,6-6h11.9c3.3,0,6,2.7,6,6V193
		C162.2,196.3,159.5,199,156.2,199z"/>
	<path class="st0" d="M156,59c-3.3,0-6-2.7-6-6V13l-5.9,0.1c-3.3,0-6-2.7-6-6s2.7-6,6-6H156c3.3,0,6,2.7,6,6v45.9
		C162,56.3,159.3,59,156,59z"/>
	<path class="st1" d="M69,59c-3.3,0-6-2.7-6-6V13l-5.9,0.1c-3.3,0-6-2.7-6-6s2.7-6,6-6H69c3.3,0,6,2.7,6,6v45.9
		C75.1,56.3,72.4,59,69,59z"/>
	<path class="st1" d="M69,199c-3.3,0-6-2.7-6-6V153l-5.9,0.1c-3.3,0-6-2.7-6-6c0-3.3,2.7-6,6-6H69c3.3,0,6,2.7,6,6V193
		C75.1,196.3,72.4,199,69,199z"/>
	<path class="st1" d="M242.4,128.3c-3.3,0-6-2.7-6-6V82.4l-5.9,0.1c-3.3,0-6-2.7-6-6c0-3.3,2.7-6,6-6h11.9c3.3,0,6,2.7,6,6v45.9
		C248.5,125.6,245.8,128.3,242.4,128.3z"/>
	<path class="st5" d="M242.9,1H231c-2.4,0-4.4,1.4-5.4,3.4c0.1,0,0.2,0,0.4,0h11.9c3.3,0,6,2.7,6,6v45.9c0,1-0.2,1.8-0.6,2.7
		c3.1-0.2,5.7-2.8,5.7-6V7C248.9,3.7,246.2,1,242.9,1z"/>
	<path class="st3" d="M156.2,141h-11.9c-2.4,0-4.4,1.4-5.4,3.4c0.1,0,0.2,0,0.4,0h11.9c3.3,0,6,2.7,6,6v45.9c0,1-0.2,1.8-0.6,2.6
		c3.1-0.2,5.7-2.8,5.7-6v-45.9C162.2,143.7,159.5,141,156.2,141z"/>
	<path class="st3" d="M156,1H144c-2.4,0-4.4,1.4-5.4,3.4c0.1,0,0.2,0,0.4,0h11.9c3.3,0,6,2.7,6,6v45.9c0,1-0.2,1.8-0.6,2.7
		c3.1-0.2,5.7-2.8,5.7-6V7C162,3.7,159.3,1,156,1z"/>
	<path class="st2" d="M69,1H57.1c-2.4,0-4.4,1.4-5.4,3.4c0.1,0,0.2,0,0.4,0H64c3.3,0,6,2.7,6,6v45.9c0,1-0.2,1.8-0.6,2.7
		c3.1-0.2,5.7-2.8,5.7-6V7C75.1,3.7,72.4,1,69,1z"/>
	<path class="st2" d="M69,141H57.1c-2.4,0-4.4,1.4-5.4,3.4c0.1,0,0.2,0,0.4,0H64c3.3,0,6,2.7,6,6v45.9c0,1-0.2,1.8-0.6,2.6
		c3.1-0.2,5.7-2.8,5.7-6v-45.9C75.1,143.7,72.4,141,69,141z"/>
	<path class="st2" d="M242.4,70.4h-11.9c-2.4,0-4.4,1.4-5.4,3.4c0.1,0,0.2,0,0.4,0h11.9c3.3,0,6,2.7,6,6v45.9c0,1-0.2,1.8-0.6,2.7
		c3.1-0.2,5.7-2.8,5.7-6V76.4C248.5,73.1,245.8,70.4,242.4,70.4z"/>
	<g>
		<path d="M69,60c-3.9,0-7-3.2-7-7V14l-4.9,0.1c-3.9,0-7.1-3.2-7.1-7s3.2-7,7-7H69c3.9,0,7,3.2,7,7v45.9C76.1,56.8,72.9,60,69,60z
			 M63,12c0.3,0,0.5,0.1,0.7,0.3c0.2,0.2,0.3,0.5,0.3,0.7v39.9c0,2.8,2.2,5,5,5c2.8,0,5-2.2,5-5V7c0-2.8-2.2-5-5-5H57.1
			c-2.8,0-5,2.2-5,5s2.2,5,5,5L63,12C63,12,63,12,63,12z"/>
	</g>
	<g>
		<path d="M69,200c-3.9,0-7-3.2-7-7V154l-4.9,0.1c-3.9,0-7.1-3.2-7.1-7c0-3.9,3.2-7,7-7H69c3.9,0,7,3.2,7,7V193
			C76.1,196.8,72.9,200,69,200z M63,152c0.3,0,0.5,0.1,0.7,0.3c0.2,0.2,0.3,0.5,0.3,0.7V193c0,2.8,2.2,5,5,5c2.8,0,5-2.2,5-5v-45.9
			c0-2.8-2.2-5-5-5H57.1c-2.8,0-5,2.2-5,5s2.2,5,5,5L63,152C63,152,63,152,63,152z"/>
	</g>
	<g>
		<path d="M156.2,200c-3.9,0-7-3.2-7-7V154l-4.9,0.1c-3.9,0-7.1-3.2-7.1-7c0-3.9,3.2-7,7-7h11.9c3.9,0,7,3.2,7,7V193
			C163.2,196.8,160.1,200,156.2,200z M150.1,152c0.3,0,0.5,0.1,0.7,0.3c0.2,0.2,0.3,0.5,0.3,0.7V193c0,2.8,2.2,5,5,5
			c2.8,0,5-2.2,5-5v-45.9c0-2.8-2.2-5-5-5h-11.9c-2.8,0-5,2.2-5,5s2.2,5,5,5L150.1,152C150.1,152,150.1,152,150.1,152z"/>
	</g>
	<g>
		<path d="M242.4,129.3c-3.9,0-7-3.2-7-7V83.4l-4.9,0.1c-3.9,0-7.1-3.2-7.1-7s3.2-7,7-7h11.9c3.9,0,7,3.2,7,7v45.9
			C249.5,126.2,246.3,129.3,242.4,129.3z M236.4,81.3c0.3,0,0.5,0.1,0.7,0.3c0.2,0.2,0.3,0.5,0.3,0.7v39.9c0,2.8,2.2,5,5,5
			c2.8,0,5-2.2,5-5V76.4c0-2.8-2.2-5-5-5h-11.9c-2.8,0-5,2.2-5,5c0,2.8,2.2,5,5,5L236.4,81.3C236.4,81.3,236.4,81.3,236.4,81.3z"/>
	</g>
	<g>
		<path d="M242.9,60c-3.9,0-7-3.2-7-7V14l-4.9,0.1c-3.9,0-7.1-3.2-7.1-7s3.2-7,7-7h11.9c3.9,0,7,3.2,7,7v45.9
			C249.9,56.8,246.8,60,242.9,60z M236.8,12c0.3,0,0.5,0.1,0.7,0.3c0.2,0.2,0.3,0.5,0.3,0.7v39.9c0,2.8,2.2,5,5,5c2.8,0,5-2.2,5-5V7
			c0-2.8-2.2-5-5-5H231c-2.8,0-5,2.2-5,5s2.2,5,5,5L236.8,12C236.8,12,236.8,12,236.8,12z"/>
	</g>
	<g>
		<path d="M107.9,60C95.8,60,86,50.1,86,38.1V21.9C86,9.8,95.8,0,107.9,0s21.9,9.8,21.9,21.9v16.1C129.8,50.1,120,60,107.9,60z
			 M107.9,2C97,2,88,11,88,21.9v16.1C88,49,97,58,107.9,58s19.9-8.9,19.9-19.9V21.9C127.8,11,118.9,2,107.9,2z M107.9,48.1
			c-5.5,0-10-4.5-10-10V21.9c0-5.5,4.5-10,10-10s10,4.5,10,10v16.1C117.9,43.6,113.5,48.1,107.9,48.1z M107.9,13.9c-4.4,0-8,3.6-8,8
			v16.1c0,4.4,3.6,8,8,8c4.4,0,8-3.6,8-8V21.9C115.9,17.5,112.3,13.9,107.9,13.9z"/>
	</g>
	<g>
		<path d="M72.2,130.4c-12.1,0-21.9-9.8-21.9-21.9V92.4c0-12.1,9.8-21.9,21.9-21.9s21.9,9.8,21.9,21.9v16.1
			C94.1,120.6,84.3,130.4,72.2,130.4z M72.2,72.5c-11,0-19.9,8.9-19.9,19.9v16.1c0,11,8.9,19.9,19.9,19.9s19.9-8.9,19.9-19.9V92.4
			C92.1,81.4,83.1,72.5,72.2,72.5z M72.2,118.5c-5.5,0-10-4.5-10-10V92.4c0-5.5,4.5-10,10-10s10,4.5,10,10v16.1
			C82.2,114,77.7,118.5,72.2,118.5z M72.2,84.4c-4.4,0-8,3.6-8,8v16.1c0,4.4,3.6,8,8,8s8-3.6,8-8V92.4C80.1,88,76.6,84.4,72.2,84.4z
			"/>
	</g>
	<g>
		<path d="M159.1,130.4c-12.1,0-21.9-9.8-21.9-21.9V92.4c0-12.1,9.8-21.9,21.9-21.9S181,80.3,181,92.4v16.1
			C181,120.6,171.2,130.4,159.1,130.4z M159.1,72.5c-11,0-19.9,8.9-19.9,19.9v16.1c0,11,8.9,19.9,19.9,19.9c11,0,19.9-8.9,19.9-19.9
			V92.4C179,81.4,170,72.5,159.1,72.5z M159.1,118.5c-5.5,0-10-4.5-10-10V92.4c0-5.5,4.5-10,10-10c5.5,0,10,4.5,10,10v16.1
			C169.1,114,164.6,118.5,159.1,118.5z M159.1,84.4c-4.4,0-8,3.6-8,8v16.1c0,4.4,3.6,8,8,8s8-3.6,8-8V92.4
			C167.1,88,163.5,84.4,159.1,84.4z"/>
	</g>
	<g>
		<path d="M156,60c-3.9,0-7-3.2-7-7V14l-4.9,0.1c-3.9,0-7.1-3.2-7.1-7s3.2-7,7-7H156c3.9,0,7,3.2,7,7v45.9C163,56.8,159.8,60,156,60
			z M149.9,12c0.3,0,0.5,0.1,0.7,0.3c0.2,0.2,0.3,0.5,0.3,0.7v39.9c0,2.8,2.2,5,5,5c2.8,0,5-2.2,5-5V7c0-2.8-2.2-5-5-5H144
			c-2.8,0-5,2.2-5,5s2.2,5,5,5L149.9,12C149.9,12,149.9,12,149.9,12z"/>
	</g>
	<g>
		<path d="M194.8,60c-12.1,0-21.9-9.8-21.9-21.9V21.9c0-12.1,9.8-21.9,21.9-21.9c12.1,0,21.9,9.8,21.9,21.9v16.1
			C216.8,50.1,206.9,60,194.8,60z M194.8,2C183.9,2,175,11,175,21.9v16.1c0,11,8.9,19.9,19.9,19.9c11,0,19.9-8.9,19.9-19.9V21.9
			C214.7,11,205.8,2,194.8,2z M194.8,48.1c-5.5,0-10-4.5-10-10V21.9c0-5.5,4.5-10,10-10c5.5,0,10,4.5,10,10v16.1
			C204.9,43.6,200.4,48.1,194.8,48.1z M194.8,13.9c-4.4,0-8,3.6-8,8v16.1c0,4.4,3.6,8,8,8c4.4,0,8-3.6,8-8V21.9
			C202.8,17.5,199.2,13.9,194.8,13.9z"/>
	</g>
</g>
</svg>
