<?xml version="1.0" encoding="utf-8"?>
<!-- Generator: Adobe Illustrator 24.3.0, SVG Export Plug-In . SVG Version: 6.00 Build 0)  -->
<svg version="1.1" id="Capa_1" xmlns="http://www.w3.org/2000/svg" xmlns:xlink="http://www.w3.org/1999/xlink" x="0px" y="0px"
	 viewBox="0 0 300 200" style="enable-background:new 0 0 300 200;" xml:space="preserve">
<style type="text/css">
	.st0{fill:#5F7993;}
	.st1{fill:#17B5C8;}
	.st2{fill:#11828F;}
	.st3{fill:#405162;}
	.st4{fill:#A6D100;}
	.st5{fill:#89AB00;}
	.st6{fill:#FFFFFF;}
	.st7{fill:none;stroke:#17B5C8;stroke-width:2;stroke-miterlimit:10;}
</style>
<g>
	<path class="st4" d="M131.3,199c-3.3,0-6.1-2.7-6.1-6.1v-38.2l-5.9,0.1c-3.3,0-6.1-2.7-6.1-6.1c0-3.3,2.7-6.1,6.1-6.1h12
		c3.3,0,6.1,2.7,6.1,6.1v44.2C137.4,196.3,134.6,199,131.3,199z"/>
	<path class="st5" d="M135.4,195.6c-3.3,0-6.1-2.7-6.1-6.1v-38.2l-5.9,0.1c-3.3,0-6.1-2.7-6.1-6.1c0-0.9,0.2-1.7,0.5-2.5
		c-2.6,0.7-4.6,3-4.6,5.9c0,3.3,2.7,6.1,6.1,6.1l5.9-0.1v38.2c0,3.3,2.7,6.1,6.1,6.1c2.5,0,4.6-1.5,5.5-3.6
		C136.4,195.5,135.9,195.6,135.4,195.6z"/>
	<path class="st0" d="M126.7,52c-12.7,0-22.3-9.5-22.3-22.1v-0.2c0-12.7,9.6-22.3,22.4-22.3c6.1,0,10.7,1.5,14.6,4.8
		c0.9,0.7,1.9,2.2,1.9,4.1c0,3-2.4,5.4-5.4,5.4c-1.3,0-2.5-0.4-3.5-1.2c-2.5-1.9-4.8-2.8-7.7-2.8c-5.9,0-10.5,5.2-10.5,11.8v0.2
		c0,7,4.5,12,11,12c3,0,5.4-0.9,8-2.9c0.5-0.4,1.7-1.2,3.3-1.2c2.8,0,5,2.3,5,5.1c0,1.4-0.6,2.7-1.7,3.8C137.8,50.2,133,52,126.7,52
		z"/>
	<path class="st0" d="M126.7,52c-12.7,0-22.3-9.5-22.3-22.1v-0.2c0-12.7,9.6-22.3,22.4-22.3c6.1,0,10.7,1.5,14.6,4.8
		c0.9,0.7,1.9,2.2,1.9,4.1c0,3-2.4,5.4-5.4,5.4c-1.3,0-2.5-0.4-3.5-1.2c-2.5-1.9-4.8-2.8-7.7-2.8c-5.9,0-10.5,5.2-10.5,11.8v0.2
		c0,7,4.5,12,11,12c3,0,5.4-0.9,8-2.9c0.5-0.4,1.7-1.2,3.3-1.2c2.8,0,5,2.3,5,5.1c0,1.4-0.6,2.7-1.7,3.8C137.8,50.2,133,52,126.7,52
		z"/>
	<g>
		<path class="st3" d="M134.5,20.5c1,0.8,2.2,1.2,3.5,1.2c0.9,0,1.8-0.2,2.5-0.6c-0.3-0.2-0.6-0.3-0.9-0.6c-2.5-1.9-4.8-2.8-7.7-2.8
			c-0.8,0-1.6,0.1-2.4,0.3C131.3,18.4,132.8,19.2,134.5,20.5z"/>
		<path class="st3" d="M140.4,38.7c0.2-0.1,0.4-0.3,0.7-0.5c-0.7-0.4-1.6-0.7-2.5-0.7c-1.6,0-2.8,0.8-3.3,1.2
			c-1.8,1.4-3.5,2.3-5.4,2.7c0.8,0.2,1.6,0.3,2.5,0.3C135.4,41.6,137.8,40.7,140.4,38.7z"/>
		<path class="st3" d="M109.5,29.8v-0.2c0-11.9,8.5-21,20-22.2c-0.9-0.1-1.7-0.1-2.7-0.1c-12.8,0-22.4,9.6-22.4,22.3v0.2
			c0,12.6,9.6,22.1,22.3,22.1c0.9,0,1.8,0,2.6-0.1C117.9,50.7,109.5,41.6,109.5,29.8z"/>
	</g>
	<path class="st1" d="M92.1,50.1L72.5,5.9c-1-2.2-3-4.8-7.1-4.8h-0.7c-3.2,0-5.7,1.7-7.1,4.9L38,50c-0.5,1.1-0.7,1.9-0.7,2.6
		c0,3.2,2.5,5.7,5.6,5.7c2.5,0,4.6-1.4,5.6-3.8l3.9-9.3h24.8l3.8,8.9c1.2,2.7,3.2,4.2,5.8,4.2c3.2,0,5.8-2.6,5.8-5.8
		C92.7,51.8,92.5,51,92.1,50.1z M57.2,34l7.6-18.2L72.5,34H57.2z"/>
	<path class="st1" d="M92.1,50.1L72.5,5.9c-1-2.2-3-4.8-7.1-4.8h-0.7c-3.2,0-5.7,1.7-7.1,4.9L38,50c-0.5,1.1-0.7,1.9-0.7,2.6
		c0,3.2,2.5,5.7,5.6,5.7c2.5,0,4.6-1.4,5.6-3.8l3.9-9.3h24.8l3.8,8.9c1.2,2.7,3.2,4.2,5.8,4.2c3.2,0,5.8-2.6,5.8-5.8
		C92.7,51.8,92.5,51,92.1,50.1z M57.2,34l7.6-18.2L72.5,34H57.2z"/>
	<g>
		<path class="st2" d="M92.1,50.1L72.5,5.9c-1-2.2-3-4.8-7.1-4.8h-0.7c-2.1,0-3.9,0.7-5.3,2.1c0.4-0.1,0.8-0.1,1.2-0.1h0.7
			c4,0,6.1,2.6,7.1,4.8L88,52.1c0.4,0.9,0.6,1.7,0.6,2.4c0,1.5-0.5,2.8-1.4,3.8c3.1-0.2,5.4-2.7,5.4-5.8
			C92.7,51.8,92.5,51,92.1,50.1z"/>
	</g>
	<path class="st4" d="M206.3,20.1v-0.2c0-5.2-1.7-9.6-4.8-12.8c-3.7-3.7-9.3-5.7-16.3-5.7h-19.5c-3.4,0-6.1,2.7-6.1,6.1v44.3
		c0,3.4,2.7,6.1,6.1,6.1c3.4,0,6.1-2.7,6.1-6.1V39.5h10l12,15.3c1.1,1.4,2.9,3.2,6,3.2c2.8,0,5.8-2.1,5.8-5.6c0-2-0.9-3.3-2-4.7
		L195,37.1l0.1,0C202.5,34,206.3,28.3,206.3,20.1z M193.8,20.7c0,4.8-3.6,7.9-9.4,7.9H172V12.6h12.2c6.2,0,9.6,2.8,9.6,7.9V20.7z"/>
	<path class="st4" d="M206.3,20.1v-0.2c0-5.2-1.7-9.6-4.8-12.8c-3.7-3.7-9.3-5.7-16.3-5.7h-19.5c-3.4,0-6.1,2.7-6.1,6.1v44.3
		c0,3.4,2.7,6.1,6.1,6.1c3.4,0,6.1-2.7,6.1-6.1V39.5h10l12,15.3c1.1,1.4,2.9,3.2,6,3.2c2.8,0,5.8-2.1,5.8-5.6c0-2-0.9-3.3-2-4.7
		L195,37.1l0.1,0C202.5,34,206.3,28.3,206.3,20.1z M193.8,20.7c0,4.8-3.6,7.9-9.4,7.9H172V12.6h12.2c6.2,0,9.6,2.8,9.6,7.9V20.7z"/>
	<path class="st5" d="M165.4,51.8V7.6c0-3.4,2.7-6.1,6.1-6.1h-5.8c-3.4,0-6.1,2.7-6.1,6.1v44.3c0,3.4,2.7,6.1,6.1,6.1
		c1,0,2-0.3,2.9-0.7C166.7,56.2,165.4,54.2,165.4,51.8z"/>
	<path class="st1" d="M256.4,51.7c-2.2,0-3.9-0.9-5.6-3L242,37.2l-8.7,11.5c-1.1,1.3-2.8,3.1-5.2,3.1c-3.2,0-5.6-2.2-5.6-5.2
		c0-1.5,0.5-2.8,1.7-4.1l11-13l-10.1-11.6c-1.4-1.6-2-3.1-2-4.6c0-3.2,2.3-5.5,5.5-5.5c2.2,0,3.9,0.9,5.6,3l8.1,10.8l8.1-10.6
		c1.2-1.4,2.9-3.2,5.3-3.2c3.2,0,5.6,2.2,5.6,5.2c0,1.4-0.5,2.7-1.6,4l-10.5,12.3l10.8,12.4c1.4,1.6,2,3.1,2,4.6
		C261.9,49.4,259.6,51.7,256.4,51.7z"/>
	<path class="st1" d="M256.4,51.7c-2.2,0-3.9-0.9-5.6-3L242,37.2l-8.7,11.5c-1.1,1.3-2.8,3.1-5.2,3.1c-3.2,0-5.6-2.2-5.6-5.2
		c0-1.5,0.5-2.8,1.7-4.1l11-13l-10.1-11.6c-1.4-1.6-2-3.1-2-4.6c0-3.2,2.3-5.5,5.5-5.5c2.2,0,3.9,0.9,5.6,3l8.1,10.8l8.1-10.6
		c1.2-1.4,2.9-3.2,5.3-3.2c3.2,0,5.6,2.2,5.6,5.2c0,1.4-0.5,2.7-1.6,4l-10.5,12.3l10.8,12.4c1.4,1.6,2,3.1,2,4.6
		C261.9,49.4,259.6,51.7,256.4,51.7z"/>
	<path class="st2" d="M227.5,46.5c0-1.5,0.5-2.8,1.7-4.1l11-13l-10.1-11.6c-1.4-1.6-2-3.1-2-4.6c0-2.3,1.2-4.1,3.1-5
		c-0.8-0.4-1.7-0.5-2.6-0.5c-3.2,0-5.5,2.3-5.5,5.5c0,1.6,0.6,3,2,4.6l10.1,11.6l-11,13c-1.1,1.3-1.7,2.6-1.7,4.1
		c0,3,2.4,5.2,5.6,5.2c0.9,0,1.7-0.2,2.4-0.6C228.7,50.3,227.5,48.6,227.5,46.5z"/>
	<path class="st4" d="M55.9,127.9c-3.1,0-5-0.5-6.6-1.1c-1.4-0.5-3.8-1.9-3.8-5c0-2.7,2.1-4.9,4.7-4.9c0.9,0,1.5,0.2,2,0.3
		c0.9,0.3,1.6,0.5,2.5,0.5c2.1,0,3.2-0.4,4.4-2.5l0.5-1.1L44.9,80.1c-0.3-0.8-0.7-2-0.7-2.8c0-3.3,2.5-5.8,5.9-5.8
		c2.8,0,4.7,1.4,5.8,4.5l9.4,25.2l9-25.1c1.2-3.1,3.1-4.6,5.8-4.6c3.2,0,5.7,2.4,5.7,5.5c0,1-0.3,2.2-0.5,2.8l-15,36.1
		C66.6,124.9,63,127.9,55.9,127.9z"/>
	<path class="st4" d="M55.9,127.9c-3.1,0-5-0.5-6.6-1.1c-1.4-0.5-3.8-1.9-3.8-5c0-2.7,2.1-4.9,4.7-4.9c0.9,0,1.5,0.2,2,0.3
		c0.9,0.3,1.6,0.5,2.5,0.5c2.1,0,3.2-0.4,4.4-2.5l0.5-1.1L44.9,80.1c-0.3-0.8-0.7-2-0.7-2.8c0-3.3,2.5-5.8,5.9-5.8
		c2.8,0,4.7,1.4,5.8,4.5l9.4,25.2l9-25.1c1.2-3.1,3.1-4.6,5.8-4.6c3.2,0,5.7,2.4,5.7,5.5c0,1-0.3,2.2-0.5,2.8l-15,36.1
		C66.6,124.9,63,127.9,55.9,127.9z"/>
	<path class="st5" d="M54,126.8c-1.4-0.5-3.8-1.9-3.8-5c0-2,1.1-3.6,2.6-4.4c-0.2-0.1-0.4-0.1-0.6-0.2c-0.5-0.2-1.1-0.3-2-0.3
		c-2.6,0-4.7,2.1-4.7,4.9c0,3.1,2.4,4.5,3.8,5c1.6,0.6,3.5,1.1,6.6,1.1c0.8,0,1.6,0,2.3-0.1C56.4,127.6,55.1,127.2,54,126.8z"/>
	<path class="st5" d="M59.1,115.2c-0.6,1.1-1.2,1.8-1.9,2.1c0.8,0.2,1.4,0.4,2.3,0.4c2.1,0,3.2-0.4,4.4-2.5l0.5-1.1L49.7,80.1
		c-0.3-0.8-0.7-2-0.7-2.8c0-2.5,1.4-4.5,3.6-5.4c-0.7-0.3-1.5-0.4-2.4-0.4c-3.4,0-5.9,2.5-5.9,5.8c0,0.8,0.3,2,0.7,2.8l14.7,33.9
		L59.1,115.2z"/>
	<path class="st0" d="M232.7,127.9c-3.1,0-5-0.5-6.6-1.1c-1.4-0.5-3.8-1.9-3.8-5c0-2.7,2.1-4.9,4.7-4.9c0.9,0,1.5,0.2,2,0.3
		c0.9,0.3,1.6,0.5,2.5,0.5c2.1,0,3.2-0.4,4.4-2.5l0.5-1.1l-14.7-33.9c-0.3-0.8-0.7-2-0.7-2.8c0-3.3,2.5-5.8,5.9-5.8
		c2.8,0,4.7,1.4,5.8,4.5l9.4,25.2l9-25.1c1.2-3.1,3.1-4.6,5.8-4.6c3.2,0,5.7,2.4,5.7,5.5c0,1-0.3,2.2-0.5,2.8l-15,36.1
		C243.5,124.9,239.8,127.9,232.7,127.9z"/>
	<path class="st3" d="M231.3,126.8c-1.4-0.5-3.8-1.9-3.8-5c0-2,1.1-3.6,2.6-4.4c-0.2-0.1-0.4-0.1-0.6-0.2c-0.5-0.2-1.1-0.3-2-0.3
		c-2.6,0-4.7,2.1-4.7,4.9c0,3.1,2.4,4.5,3.8,5c1.6,0.6,3.5,1.1,6.6,1.1c0.8,0,1.6,0,2.3-0.1C233.7,127.6,232.4,127.2,231.3,126.8z"
		/>
	<path class="st3" d="M236.4,115.2c-0.6,1.1-1.2,1.8-1.9,2.1c0.8,0.2,1.4,0.4,2.3,0.4c2.1,0,3.2-0.4,4.4-2.5l0.5-1.1L227,80.1
		c-0.3-0.8-0.7-2-0.7-2.8c0-2.5,1.4-4.5,3.6-5.4c-0.7-0.3-1.5-0.4-2.4-0.4c-3.4,0-5.9,2.5-5.9,5.8c0,0.8,0.3,2,0.7,2.8l14.7,33.9
		L236.4,115.2z"/>
	<path class="st1" d="M125.7,127.9c-3.4,0-6.1-2.7-6.1-6.1V82.7h-12c-3.1,0-5.6-2.5-5.6-5.6c0-3.1,2.5-5.6,5.6-5.6h36.1
		c3.1,0,5.6,2.5,5.6,5.6c0,3.1-2.5,5.6-5.6,5.6h-12v39.1C131.8,125.2,129.1,127.9,125.7,127.9z"/>
	<path class="st1" d="M125.7,127.9c-3.4,0-6.1-2.7-6.1-6.1V82.7h-12c-3.1,0-5.6-2.5-5.6-5.6c0-3.1,2.5-5.6,5.6-5.6h36.1
		c3.1,0,5.6,2.5,5.6,5.6c0,3.1-2.5,5.6-5.6,5.6h-12v39.1C131.8,125.2,129.1,127.9,125.7,127.9z"/>
	<path class="st2" d="M129.8,124.5c-3.4,0-6.1-2.7-6.1-6.1V79.3h-12c-3.1,0-5.6-2.5-5.6-5.6c0-0.7,0.1-1.5,0.4-2.1
		c-2.6,0.5-4.5,2.8-4.5,5.5c0,3.1,2.5,5.6,5.6,5.6h12v39.1c0,3.4,2.7,6.1,6.1,6.1c2.5,0,4.6-1.4,5.6-3.6
		C130.8,124.5,130.3,124.5,129.8,124.5z"/>
	<path class="st1" d="M65.3,199c-3.4,0-6.1-2.7-6.1-6.1v-39.1h-12c-3.1,0-5.6-2.5-5.6-5.6c0-3.1,2.5-5.6,5.6-5.6h36.1
		c3.1,0,5.6,2.5,5.6,5.6c0,3.1-2.5,5.6-5.6,5.6h-12v39.1C71.4,196.3,68.7,199,65.3,199z"/>
	<path class="st2" d="M69.2,195.6c-3.4,0-6.1-2.7-6.1-6.1v-39.1h-12c-3.1,0-5.6-2.5-5.6-5.6c0-0.7,0.1-1.5,0.4-2.1
		c-2.6,0.5-4.5,2.8-4.5,5.5c0,3.1,2.5,5.6,5.6,5.6h12v39.1c0,3.4,2.7,6.1,6.1,6.1c2.5,0,4.6-1.4,5.6-3.6
		C70.2,195.5,69.7,195.6,69.2,195.6z"/>
	<g>
		<path d="M131.3,200c-3.9,0-7.1-3.2-7.1-7.1v-37.2l-4.9,0.1c-3.9,0-7.1-3.2-7.1-7.1s3.2-7.1,7.1-7.1h12c3.9,0,7.1,3.2,7.1,7.1v44.2
			C138.4,196.8,135.2,200,131.3,200z M125.2,153.7c0.3,0,0.5,0.1,0.7,0.3c0.2,0.2,0.3,0.5,0.3,0.7v38.2c0,2.8,2.3,5.1,5.1,5.1
			c2.8,0,5.1-2.3,5.1-5.1v-44.2c0-2.8-2.3-5.1-5.1-5.1h-12c-2.8,0-5.1,2.3-5.1,5.1c0,2.8,2.3,5.1,5.1,5.1L125.2,153.7
			C125.2,153.7,125.2,153.7,125.2,153.7z"/>
	</g>
	<g>
		<path d="M126.7,53c-13.3,0-23.3-10-23.3-23.1v-0.2c0-13.3,10.1-23.3,23.5-23.3c6.3,0,11.2,1.6,15.3,5.1c0.5,0.4,2.2,2,2.2,4.9
			c0,3.6-2.8,6.4-6.5,6.4c-1.5,0-2.9-0.5-4.1-1.4c-2.3-1.8-4.4-2.5-7-2.5c-5.3,0-9.5,4.7-9.5,10.8v0.2c0,6.4,4.1,10.9,10,10.9
			c2.7,0,5-0.8,7.4-2.7c0.7-0.5,2.1-1.4,3.9-1.4c3.4,0,6.1,2.7,6.1,6.1c0,1.7-0.7,3.3-2,4.5C138.3,51.2,133.2,53,126.7,53z
			 M126.9,8.4c-12.2,0-21.4,9.1-21.4,21.3v0.2c0,12,9.1,21.1,21.3,21.1c6,0,10.6-1.7,14.5-5.3c0.9-0.8,1.4-1.9,1.4-3
			c0-2.3-1.8-4.1-4-4.1c-1.2,0-2.2,0.6-2.7,1c-2.7,2.2-5.4,3.1-8.6,3.1c-7.1,0-12-5.3-12-13v-0.2c0-7.2,5.1-12.8,11.5-12.8
			c3.2,0,5.6,0.9,8.3,3c0.8,0.6,1.8,1,2.8,1c2.5,0,4.4-1.9,4.4-4.3c0-1.5-0.8-2.7-1.5-3.3C137.2,9.9,132.7,8.4,126.9,8.4z"/>
	</g>
	<g>
		<path d="M86.9,59.4c-3,0-5.4-1.7-6.8-4.8l-3.5-8.3H53.1l-3.7,8.6c-1.2,2.8-3.7,4.4-6.6,4.4c-3.7,0-6.6-2.9-6.6-6.7
			c0-0.9,0.2-1.8,0.8-3L56.6,5.5C58.2,1.9,61.1,0,64.7,0h0.7c3.6,0,6.4,1.9,8,5.4L93,49.7c0.5,1.1,0.7,2,0.7,2.8
			C93.7,56.3,90.7,59.4,86.9,59.4z M52.5,44.2h24.8c0.4,0,0.8,0.2,0.9,0.6l3.8,8.9c1,2.4,2.7,3.6,4.9,3.6c2.7,0,4.7-2.1,4.7-4.8
			c0-0.6-0.2-1.2-0.5-2c0,0,0,0,0,0L71.5,6.3C70.3,3.5,68.2,2,65.4,2h-0.7c-2.8,0-5,1.5-6.2,4.2L38.9,50.5c-0.4,1-0.6,1.6-0.6,2.2
			c0,2.6,2,4.7,4.6,4.7c2.1,0,3.8-1.2,4.7-3.2l3.9-9.3C51.7,44.5,52,44.2,52.5,44.2z M72.5,35H57.2c-0.3,0-0.7-0.2-0.9-0.5
			c-0.2-0.3-0.2-0.6-0.1-1l7.6-18.2c0.2-0.4,0.5-0.6,0.9-0.6s0.8,0.2,0.9,0.6l7.6,18.2c0.1,0.3,0.1,0.7-0.1,1
			C73.2,34.8,72.8,35,72.5,35z M58.8,33H71l-6.1-14.5L58.8,33z"/>
	</g>
	<g>
		<path d="M199.9,58.9c-4,0-6.1-2.7-6.8-3.6l-11.7-14.9h-8.5v11.3c0,4-3.1,7.1-7.1,7.1c-4,0-7.1-3.1-7.1-7.1V7.6
			c0-4,3.1-7.1,7.1-7.1h19.5c7.2,0,13.1,2.1,17,6c3.3,3.3,5.1,8,5.1,13.5v0.2c0,8.2-3.6,14.1-10.7,17.4l7.8,9.4
			c1.2,1.5,2.3,3,2.3,5.4C206.7,56.4,203.2,58.9,199.9,58.9z M171.8,38.4h10c0.3,0,0.6,0.1,0.8,0.4l12,15.3c1,1.3,2.5,2.8,5.2,2.8
			c2.3,0,4.7-1.7,4.7-4.6c0-1.7-0.7-2.8-1.8-4.1l-8.6-10.5c-0.2-0.3-0.3-0.6-0.2-0.9s0.3-0.6,0.6-0.7l0.1,0
			c7-2.9,10.5-8.3,10.5-16.1v-0.2c0-4.9-1.6-9.1-4.5-12c-3.5-3.5-8.9-5.4-15.6-5.4h-19.5c-2.8,0-5.1,2.2-5.1,5.1v44.3
			c0,2.8,2.2,5.1,5.1,5.1c2.8,0,5.1-2.2,5.1-5.1V39.5C170.8,38.9,171.2,38.4,171.8,38.4z M184.4,29.6H172c-0.6,0-1-0.5-1-1V12.6
			c0-0.6,0.5-1,1-1h12.2c6.8,0,10.6,3.3,10.6,9v0.2C194.8,26.1,190.7,29.6,184.4,29.6z M173,27.5h11.4c5.2,0,8.3-2.6,8.3-6.8v-0.2
			c0-5.7-4.7-6.9-8.6-6.9H173V27.5z"/>
	</g>
	<g>
		<path d="M256.4,52.8c-2.5,0-4.5-1.1-6.4-3.4l-8-10.5l-7.9,10.4c-1.2,1.5-3.2,3.5-6,3.5c-3.8,0-6.6-2.7-6.6-6.2
			c0-1.8,0.6-3.3,1.9-4.8l10.5-12.4l-9.5-10.9c-1.6-1.8-2.3-3.5-2.3-5.3c0-3.8,2.8-6.6,6.5-6.6c2.5,0,4.5,1,6.4,3.4l7.3,9.7l7.3-9.5
			c1.3-1.6,3.3-3.6,6.1-3.6c3.8,0,6.6,2.7,6.6,6.2c0,1.6-0.6,3.1-1.8,4.7l-10,11.7l10.2,11.7c1.6,1.8,2.3,3.5,2.3,5.3
			C262.9,50,260.2,52.8,256.4,52.8z M242,36.1c0.3,0,0.6,0.1,0.8,0.4l8.8,11.5c1.5,1.9,2.9,2.6,4.8,2.6c2.7,0,4.5-1.9,4.5-4.5
			c0-1.3-0.5-2.5-1.8-4l-10.8-12.4c-0.3-0.4-0.3-1,0-1.3l10.5-12.3c0.9-1.2,1.3-2.2,1.3-3.4c0-2.4-2-4.2-4.6-4.2
			c-2,0-3.4,1.5-4.5,2.8L243.1,22c-0.2,0.3-0.5,0.4-0.8,0.4c0,0,0,0,0,0c-0.3,0-0.6-0.2-0.8-0.4l-8.1-10.8c-1.5-1.8-2.9-2.6-4.7-2.6
			c-2.6,0-4.5,1.9-4.5,4.5c0,1.3,0.5,2.5,1.8,4l10,11.6c0.3,0.4,0.3,0.9,0,1.3l-11,13c-1,1.2-1.4,2.2-1.4,3.5c0,2.4,2,4.2,4.6,4.2
			c2,0,3.5-1.6,4.4-2.7l8.7-11.4C241.4,36.3,241.7,36.1,242,36.1z"/>
	</g>
	<g>
		<path d="M55.9,128.9c-3.3,0-5.3-0.6-7-1.2c-2.8-1-4.5-3.2-4.5-5.9c0-3.3,2.5-5.9,5.7-5.9c1.1,0,1.8,0.2,2.4,0.4
			c0.8,0.2,1.4,0.4,2.2,0.4c1.9,0,2.5-0.2,3.5-2l0.3-0.6L44,80.5c-0.3-0.9-0.7-2.2-0.8-3.2c0-3.9,3-6.8,7-6.8c3.3,0,5.5,1.7,6.7,5.2
			l8.4,22.6l8.1-22.5c1.6-4.4,4.6-5.3,6.7-5.3c3.8,0,6.7,2.9,6.7,6.6c0,1.1-0.4,2.6-0.6,3.2l-15,36.1
			C67.4,125.6,63.4,128.9,55.9,128.9z M50.2,117.9c-2.1,0-3.7,1.7-3.7,3.9c0,2.4,1.7,3.5,3.1,4c1.5,0.5,3.3,1.1,6.3,1.1
			c6.7,0,9.9-2.8,13.5-11.3l15-36.1c0.2-0.5,0.5-1.6,0.5-2.4c0-2.5-2-4.5-4.7-4.5c-2.2,0-3.8,1.3-4.8,4l-9,25.1
			c-0.1,0.4-0.5,0.7-1,0.7c0,0,0,0,0,0c-0.4,0-0.8-0.3-1-0.7L55,76.4c-1-2.7-2.4-3.9-4.8-3.9c-2.8,0-4.9,2-4.9,4.8
			c0,0.6,0.3,1.6,0.6,2.4l14.6,33.9c0.1,0.3,0.1,0.5,0,0.8l-0.5,1.1c-1.4,2.7-2.9,3.1-5.3,3.1c-1.1,0-1.9-0.2-2.8-0.5
			C51.4,118.1,51,117.9,50.2,117.9z"/>
	</g>
	<g>
		<path d="M232.7,128.9c-3.3,0-5.3-0.6-7-1.2c-2.8-1-4.5-3.2-4.5-5.9c0-3.3,2.5-5.9,5.7-5.9c1.1,0,1.8,0.2,2.4,0.4
			c0.8,0.2,1.4,0.4,2.2,0.4c1.9,0,2.5-0.2,3.5-2l0.3-0.6l-14.5-33.5c-0.3-0.9-0.7-2.2-0.8-3.2c0-3.9,3-6.8,7-6.8
			c3.3,0,5.5,1.7,6.7,5.2l8.4,22.6l8.1-22.5c1.6-4.4,4.6-5.3,6.7-5.3c3.8,0,6.7,2.9,6.7,6.6c0,1.1-0.4,2.6-0.6,3.2l-15,36.1
			C244.3,125.6,240.2,128.9,232.7,128.9z M227,117.9c-2.1,0-3.7,1.7-3.7,3.9c0,2.4,1.7,3.5,3.1,4c1.5,0.5,3.3,1.1,6.3,1.1
			c6.7,0,9.9-2.8,13.5-11.3l15-36.1c0.2-0.5,0.5-1.6,0.5-2.4c0-2.5-2-4.5-4.7-4.5c-2.2,0-3.8,1.3-4.8,4l-9,25.1
			c-0.1,0.4-0.5,0.7-1,0.7c0,0,0,0,0,0c-0.4,0-0.8-0.3-1-0.7l-9.4-25.2c-1-2.7-2.4-3.9-4.8-3.9c-2.8,0-4.9,2-4.9,4.8
			c0,0.6,0.3,1.6,0.6,2.4l14.6,33.9c0.1,0.3,0.1,0.5,0,0.8l-0.5,1.1c-1.4,2.7-2.9,3.1-5.3,3.1c-1.1,0-1.9-0.2-2.8-0.5
			C228.3,118.1,227.8,117.9,227,117.9z"/>
	</g>
	<g>
		<path d="M125.7,128.9c-4,0-7.1-3.1-7.1-7.1V83.7h-10.9c-3.7,0-6.6-3-6.6-6.6c0-3.7,3-6.6,6.6-6.6h36.1c3.7,0,6.6,3,6.6,6.6
			c0,3.7-3,6.6-6.6,6.6h-10.9v38.1C132.8,125.8,129.7,128.9,125.7,128.9z M107.7,72.5c-2.5,0-4.6,2.1-4.6,4.6c0,2.5,2.1,4.6,4.6,4.6
			h12c0.6,0,1,0.5,1,1v39.1c0,2.8,2.2,5.1,5.1,5.1c2.8,0,5.1-2.2,5.1-5.1V82.7c0-0.6,0.5-1,1-1h12c2.5,0,4.6-2.1,4.6-4.6
			c0-2.5-2.1-4.6-4.6-4.6H107.7z"/>
	</g>
	<g>
		<path d="M65.3,200c-4,0-7.1-3.1-7.1-7.1v-38.1H47.2c-3.7,0-6.6-3-6.6-6.6c0-3.7,3-6.6,6.6-6.6h36.1c3.7,0,6.6,3,6.6,6.6
			c0,3.7-3,6.6-6.6,6.6H72.4v38.1C72.4,196.9,69.3,200,65.3,200z M47.2,143.6c-2.5,0-4.6,2.1-4.6,4.6c0,2.5,2.1,4.6,4.6,4.6h12
			c0.6,0,1,0.5,1,1v39.1c0,2.8,2.2,5.1,5.1,5.1c2.8,0,5.1-2.2,5.1-5.1v-39.1c0-0.6,0.5-1,1-1h12c2.5,0,4.6-2.1,4.6-4.6
			c0-2.5-2.1-4.6-4.6-4.6H47.2z"/>
	</g>
</g>
</svg>
