<?xml version="1.0" encoding="utf-8"?>
<!-- Generator: Adobe Illustrator 24.3.0, SVG Export Plug-In . SVG Version: 6.00 Build 0)  -->
<svg version="1.1" id="Capa_1" xmlns="http://www.w3.org/2000/svg" xmlns:xlink="http://www.w3.org/1999/xlink" x="0px" y="0px"
	 viewBox="0 0 300 200" style="enable-background:new 0 0 300 200;" xml:space="preserve">
<style type="text/css">
	.st0{fill:#5F7993;}
	.st1{fill:#17B5C8;}
	.st2{fill:#11828F;}
	.st3{fill:#405162;}
	.st4{fill:#A6D100;}
	.st5{fill:#89AB00;}
	.st6{fill:#FFFFFF;}
	.st7{fill:none;stroke:#17B5C8;stroke-width:2;stroke-miterlimit:10;}
</style>
<g>
	<path class="st1" d="M71.7,156H49.5c-1.7,0-3.1-1.4-3.1-3.1v-0.1c0-1.7,1.4-3.1,3.1-3.1h22.2c1.7,0,3.1,1.4,3.1,3.1v0.1
		C74.8,154.6,73.4,156,71.7,156z"/>
	<path class="st1" d="M71.7,167.8H49.5c-1.7,0-3.1-1.4-3.1-3.1v-0.1c0-1.7,1.4-3.1,3.1-3.1h22.2c1.7,0,3.1,1.4,3.1,3.1v0.1
		C74.8,166.4,73.4,167.8,71.7,167.8z"/>
	<path class="st0" d="M106.3,156H84.1c-1.7,0-3.1-1.4-3.1-3.1v-0.1c0-1.7,1.4-3.1,3.1-3.1h22.2c1.7,0,3.1,1.4,3.1,3.1v0.1
		C109.4,154.6,108,156,106.3,156z"/>
	<path class="st0" d="M106.3,167.8H84.1c-1.7,0-3.1-1.4-3.1-3.1v-0.1c0-1.7,1.4-3.1,3.1-3.1h22.2c1.7,0,3.1,1.4,3.1,3.1v0.1
		C109.4,166.4,108,167.8,106.3,167.8z"/>
	<path class="st2" d="M71.6,149.6h-5.4c1.8,0,3.2,1.4,3.2,3.2c0,1.8-1.4,3.2-3.2,3.2h5.4c1.8,0,3.2-1.4,3.2-3.2
		C74.8,151.1,73.4,149.6,71.6,149.6z"/>
	<path class="st2" d="M71.6,161.4h-5.4c1.8,0,3.2,1.4,3.2,3.2c0,1.8-1.4,3.2-3.2,3.2h5.4c1.8,0,3.2-1.4,3.2-3.2
		C74.8,162.8,73.4,161.4,71.6,161.4z"/>
	<path class="st3" d="M106.2,149.6h-5.4c1.8,0,3.2,1.4,3.2,3.2c0,1.8-1.4,3.2-3.2,3.2h5.4c1.8,0,3.2-1.4,3.2-3.2
		C109.4,151.1,108,149.6,106.2,149.6z"/>
	<path class="st3" d="M106.2,161.4h-5.4c1.8,0,3.2,1.4,3.2,3.2c0,1.8-1.4,3.2-3.2,3.2h5.4c1.8,0,3.2-1.4,3.2-3.2
		C109.4,162.8,108,161.4,106.2,161.4z"/>
	<path class="st0" d="M103.3,198.3h-7.1c-2.7,0-5.2-1.6-6.4-4.1l-4-8.4H72.5l-4,8.4c-1.2,2.5-3.7,4.1-6.4,4.1H55H103.3z"/>
	<path class="st4" d="M40.1,177v1.2c0,4,3.2,7.2,7.2,7.2H110c4,0,7.2-3.2,7.2-7.2V177H40.1z"/>
	<path class="st5" d="M106.2,177v1.2c0,4-3.2,7.2-7.2,7.2h11c4,0,7.2-3.2,7.2-7.2V177H106.2z"/>
	<g>
		<path class="st0" d="M251.7,68.7h-60c-4.5,0-8.2-3.7-8.2-8.2V26.9c0-4.5,3.7-8.2,8.2-8.2h60c4.5,0,8.2,3.7,8.2,8.2v33.5
			C259.9,65,256.3,68.7,251.7,68.7z"/>
		<path d="M251.8,69.7h-60.2c-5,0-9.1-4.1-9.1-9.1V26.8c0-5,4.1-9.1,9.1-9.1h60.2c5,0,9.1,4.1,9.1,9.1v33.7
			C260.9,65.6,256.8,69.7,251.8,69.7z M191.6,19.7c-3.9,0-7.1,3.2-7.1,7.1v33.7c0,3.9,3.2,7.1,7.1,7.1h60.2c3.9,0,7.1-3.2,7.1-7.1
			V26.8c0-3.9-3.2-7.1-7.1-7.1H191.6z"/>
	</g>
	<path class="st0" d="M251.7,68.7h-60c-4.5,0-8.2-3.7-8.2-8.2V26.9c0-4.5,3.7-8.2,8.2-8.2h60c4.5,0,8.2,3.7,8.2,8.2v33.5
		C259.9,65,256.3,68.7,251.7,68.7z"/>
	<path class="st3" d="M251.6,18.7H239c4.6,0,8.4,3.7,8.4,8.4v33.3c0,4.6-3.7,8.4-8.4,8.4h12.5c4.6,0,8.4-3.7,8.4-8.4V27.1
		C259.9,22.5,256.2,18.7,251.6,18.7z"/>
	<g>
		<circle class="st6" cx="77" cy="34.8" r="33.8"/>
		<path d="M77,69.5c-19.2,0-34.8-15.6-34.8-34.8S57.8,0,77,0c19.2,0,34.8,15.6,34.8,34.8S96.1,69.5,77,69.5z M77,2
			C58.9,2,44.2,16.7,44.2,34.8S58.9,67.5,77,67.5s32.8-14.7,32.8-32.8S95,2,77,2z"/>
	</g>
	<g>
		<g>
			<path class="st0" d="M242,139.3C242,139.3,242,139.3,242,139.3L242,139.3L242,139.3z"/>
			<path class="st0" d="M191.8,139.3L191.8,139.3C191.8,139.3,191.8,139.3,191.8,139.3L191.8,139.3z"/>
			<path class="st1" d="M216.9,146.3c-13.9,0-25.1-3.1-25.1-7v46.6c0,7.2,5.9,13.1,13.1,13.1h24c7.2,0,13.1-5.9,13.1-13.1v-46.6
				C242,143.2,230.8,146.3,216.9,146.3z"/>
		</g>
		<path class="st2" d="M232.5,144.8v44.7c0,3.8-1.6,7.1-4.1,9.5h0.5c7.2,0,13.1-5.9,13.1-13.1v-46.6
			C242,141.5,238.3,143.5,232.5,144.8z"/>
		<ellipse class="st2" cx="216.9" cy="139" rx="25.1" ry="7.3"/>
		<path class="st1" d="M194.6,142.3c4.2-2.3,12.6-4,22.3-4c9.7,0,18.1,1.6,22.3,4c1.8-1,2.8-2.1,2.8-3.4c0-4-11.2-7.3-25.1-7.3
			c-13.9,0-25.1,3.3-25.1,7.3C191.8,140.2,192.8,141.3,194.6,142.3z"/>
		<g>
			<g>
				<path d="M243,139.3h-2l2-0.1L243,139.3z M242.2,139.3l-0.1,0l0.8,0H242.2z"/>
			</g>
			<g>
				<polygon points="192.8,139.4 190.8,139.3 190.8,139.2 191.6,139.3 192.8,139.1 192.8,139.3 				"/>
			</g>
			<g>
				<path d="M228.9,200h-24c-7.8,0-14.1-6.3-14.1-14.1v-46.6h2c0,2.5,9.2,6,24.1,6c14.9,0,24.1-3.5,24.1-6h2v46.6
					C243,193.7,236.7,200,228.9,200z M192.8,142.5v43.4c0,6.7,5.4,12.1,12.1,12.1h24c6.7,0,12.1-5.4,12.1-12.1v-43.4
					c-4.2,3.1-14.4,4.8-24.1,4.8S197,145.6,192.8,142.5z"/>
			</g>
		</g>
		<g>
			<path d="M216.9,147.3c-12.6,0-26.1-2.9-26.1-8.3s13.4-8.3,26.1-8.3c12.6,0,26.1,2.9,26.1,8.3S229.6,147.3,216.9,147.3z
				 M216.9,132.7c-14.9,0-24.1,3.7-24.1,6.3s9.2,6.3,24.1,6.3c14.9,0,24.1-3.7,24.1-6.3S231.8,132.7,216.9,132.7z"/>
		</g>
	</g>
	<g>
		<path class="st4" d="M76.8,68.4c5.2,0,10.1-1.2,14.5-3.3c1.8-0.9,3.4-1.9,5-3c0,0,0,0,0,0l-10.6-5.3c-2-1-3.2-2.9-3.2-5.1v-5
			c-1.7,1.8-4,2.9-6.4,2.9c-2.5,0-4.7-1.1-6.4-2.9l0,0l0,4.9c0,2.1-1.1,4-3,5l-9.6,5.2c0,0.1,0,0.1,0,0.2c2.4,1.7,5,3.2,7.8,4.3
			C68.5,67.6,72.6,68.4,76.8,68.4z"/>
		<path class="st1" d="M69.7,46.6c1.7,1.8,4,2.9,6.5,2.9c2.5,0,4.7-1.1,6.4-2.9l0,0l0.3-0.4c0.3-0.3,0.6-0.8,1-1.3
			c1.4-2,2.6-4.3,3.4-6.8l0.2-0.7l0.7-0.2c0.9-0.3,1.6-1.2,1.6-2.1v-4.8c0-0.6-0.3-1.2-0.8-1.7l-0.4-0.4l0-7.7c0,0,0.4-3.3-1.9-5.9
			c-2-2.2-5.3-3.3-10-3.3c-4.7,0-8,1.1-10,3.4c-2.3,2.6-1.9,5.9-1.9,5.9l0,0.2v7.5l-0.4,0.4c-0.5,0.4-0.8,1-0.8,1.7v4.8
			c0,0.8,0.4,1.5,1,1.9l0.5,0.3l0.1,0.5c1.1,4.8,4,8.4,4.1,8.4L69.7,46.6L69.7,46.6z"/>
		<path class="st2" d="M70.3,12.2c3.4,0.3,15,2.3,18.2,13.6l0-5.3c0,0,0.4-3.3-1.9-5.9c-2-2.2-5.3-3.3-10-3.3
			C74.2,11.2,72.1,11.6,70.3,12.2z"/>
		<path class="st5" d="M82.5,46.6c-1.7,1.8-4,2.9-6.4,2.9c-2.5,0-4.7-1.1-6.4-2.9l0,0l0,4.9c0,0,0,0,0,0c1.4,1,3.7,2,6.8,2
			c3,0,4.9-1.1,6.1-2.2V46.6z"/>
		<g>
			<path d="M76.1,50.5c-2.6,0-5.1-1.1-7-3.1c-0.1-0.1-0.2-0.1-0.2-0.2l-0.3-0.4c0,0-3.1-3.7-4.3-8.8l0-0.1l-0.1-0.1
				c-0.9-0.6-1.5-1.6-1.5-2.7v-4.8c0-0.9,0.4-1.8,1.1-2.4l0.1-0.1l0-7.2c0-0.1-0.4-3.7,2.1-6.6c2.2-2.5,5.8-3.7,10.7-3.7
				c4.9,0,8.5,1.2,10.7,3.7c2.4,2.7,2.2,6.1,2.2,6.6l0,7.2l0.1,0.1c0.7,0.6,1.1,1.5,1.1,2.4v4.8c0,1.4-0.9,2.7-2.3,3.1l-0.2,0.1
				l-0.1,0.2c-0.8,2.6-2,5-3.5,7.1c-0.4,0.5-0.7,1-1.1,1.4l-0.2,0.2c0,0.1-0.1,0.1-0.1,0.2C81.3,49.4,78.7,50.5,76.1,50.5z
				 M70.3,45.8c0,0,0.1,0.1,0.1,0.1c1.6,1.7,3.7,2.6,5.7,2.6c2,0,4-0.9,5.6-2.5c0,0,0.1-0.1,0.1-0.1l0.3-0.4
				c0.3-0.3,0.6-0.7,0.9-1.2c1.4-2,2.5-4.2,3.2-6.5l0.2-0.7c0.1-0.3,0.3-0.5,0.7-0.6l0.7-0.2c0.5-0.2,0.9-0.7,0.9-1.2v-4.8
				c0-0.4-0.1-0.7-0.4-0.9L87.9,29c-0.2-0.2-0.3-0.5-0.3-0.7l0-7.7c0,0,0-0.1,0-0.1c0,0,0.3-2.9-1.7-5.2c-1.8-2-4.9-3-9.2-3
				c-4.4,0-7.5,1-9.2,3c-2,2.2-1.7,5.1-1.7,5.1l0,0.2l0,7.6c0,0.3-0.1,0.5-0.3,0.7L65,29.4c-0.3,0.3-0.4,0.6-0.4,0.9v4.8
				c0,0.4,0.2,0.8,0.6,1.1l0.5,0.3c0.2,0.1,0.4,0.4,0.4,0.6l0.1,0.5c1.1,4.6,3.8,8,3.9,8L70.3,45.8z"/>
		</g>
		<g>
			<path d="M76.8,69.4c-4.3,0-8.4-0.8-12.4-2.3c-2.8-1.1-5.5-2.6-8-4.4c-0.3-0.2-0.5-0.6-0.4-1l0-0.2c0.1-0.3,0.2-0.6,0.5-0.7
				l9.6-5.2c1.5-0.8,2.5-2.4,2.5-4.2l0-4.9c0-0.3,0.1-0.5,0.3-0.7c0.4-0.4,1.1-0.4,1.4,0c1.6,1.7,3.6,2.6,5.7,2.6
				c2.1,0,4.1-0.9,5.7-2.6c0.3-0.3,0.7-0.4,1.1-0.2c0.4,0.2,0.6,0.5,0.6,0.9v5c0,1.8,1,3.4,2.6,4.2l10.6,5.3
				c0.2,0.1,0.4,0.3,0.5,0.6c0.1,0.4,0,0.9-0.4,1.1c-1.6,1.2-3.4,2.2-5.2,3.1C87.1,68.2,82.1,69.4,76.8,69.4z M58.8,61.9
				c2,1.3,4.1,2.5,6.4,3.3c3.7,1.4,7.6,2.2,11.7,2.2c4.9,0,9.7-1.1,14.1-3.2c1.2-0.6,2.4-1.2,3.5-2l-9.1-4.6c-2.3-1.1-3.7-3.4-3.7-6
				v-2.8c-3.3,2.3-7.6,2.3-10.9,0l0,2.8c0,2.5-1.3,4.7-3.5,5.9L58.8,61.9z"/>
		</g>
	</g>
	<g>
		<path class="st4" d="M170.7,165.2l-18.9-18.9c-1.5-1.5-4.1-1.5-5.6,0c-1.5,1.5-1.5,4.1,0,5.6l9.3,9.3h-22.2c-2.2,0-4,1.8-4,4v0
			c0,2.2,1.8,4,4,4h22.3l-9.5,9.5c-1.5,1.5-1.5,4.1,0,5.6c1.5,1.5,4.1,1.5,5.6,0l18.9-18.9L170.7,165.2L170.7,165.2z"/>
		<path d="M148.9,186.4c-1.3,0-2.6-0.5-3.5-1.5c-1.9-1.9-1.9-5.1,0-7l7.8-7.8h-20c-2.7,0-5-2.2-5-5c0-2.7,2.2-5,5-5h19.8l-7.7-7.7
			c-1.9-1.9-1.9-5.1,0-7c1.9-1.9,5.1-1.9,7,0l18.9,18.9c0.3,0.3,0.3,0.6,0.3,1c0,0.2-0.1,0.4-0.3,0.6l-18.9,18.9
			C151.5,185.9,150.3,186.4,148.9,186.4z M133.3,162.2c-1.6,0-3,1.3-3,3s1.3,3,3,3h22.3c0.4,0,0.8,0.2,0.9,0.6
			c0.2,0.4,0.1,0.8-0.2,1.1l-9.5,9.5c-1.2,1.2-1.2,3,0,4.2c1.1,1.1,3.1,1.1,4.2,0l18.3-18.3L151,147c-1.2-1.2-3-1.2-4.2,0
			c-1.2,1.2-1.2,3,0,4.2l9.3,9.3c0.3,0.3,0.4,0.7,0.2,1.1c-0.2,0.4-0.5,0.6-0.9,0.6H133.3z"/>
	</g>
	<g>
		<path class="st5" d="M131.5,165.2c0-1.7,1.1-3.1,2.7-3.5c-0.3-0.1-0.7-0.1-1-0.1c-2,0-3.7,1.6-3.7,3.7c0,2,1.6,3.7,3.7,3.7
			c0.3,0,0.7-0.1,1-0.1C132.6,168.3,131.5,166.9,131.5,165.2z"/>
	</g>
	<g>
		<path class="st5" d="M147.6,147.7c1.2-1.2,3-1.4,4.4-0.6c-0.2-0.3-0.4-0.6-0.6-0.8c-1.4-1.4-3.7-1.4-5.2,0c-1.4,1.4-1.4,3.7,0,5.2
			c0.2,0.2,0.5,0.4,0.8,0.6C146.2,150.6,146.4,148.8,147.6,147.7z"/>
	</g>
	<g>
		<path class="st5" d="M147.6,182.6c-1.2-1.2-1.4-3-0.6-4.4c-0.3,0.2-0.6,0.4-0.8,0.6c-1.4,1.4-1.4,3.7,0,5.2c1.4,1.4,3.7,1.4,5.2,0
			c0.2-0.2,0.4-0.5,0.6-0.8C150.6,184,148.8,183.8,147.6,182.6z"/>
	</g>
	<g>
		<path d="M148.9,186.4c-1.3,0-2.6-0.5-3.5-1.5c-1.9-1.9-1.9-5.1,0-7l7.8-7.8h-20c-2.7,0-5-2.2-5-5c0-2.7,2.2-5,5-5h19.8l-7.7-7.7
			c-1.9-1.9-1.9-5.1,0-7c1.9-1.9,5.1-1.9,7,0l18.9,18.9c0.3,0.3,0.3,0.6,0.3,1c0,0.2-0.1,0.4-0.3,0.6l-18.9,18.9
			C151.5,185.9,150.3,186.4,148.9,186.4z M133.3,162.2c-1.6,0-3,1.3-3,3s1.3,3,3,3h22.3c0.4,0,0.8,0.2,0.9,0.6
			c0.2,0.4,0.1,0.8-0.2,1.1l-9.5,9.5c-1.2,1.2-1.2,3,0,4.2c1.1,1.1,3.1,1.1,4.2,0l18.3-18.3L151,147c-1.2-1.2-3-1.2-4.2,0
			c-1.2,1.2-1.2,3,0,4.2l9.3,9.3c0.3,0.3,0.4,0.7,0.2,1.1c-0.2,0.4-0.5,0.6-0.9,0.6H133.3z"/>
	</g>
	<g>
		<path class="st4" d="M218.9,122.2l18.9-18.9c1.5-1.5,1.5-4.1,0-5.6c-1.5-1.5-4.1-1.5-5.6,0l-9.3,9.3V84.8c0-2.2-1.8-4-4-4h0
			c-2.2,0-4,1.8-4,4v22.3l-9.5-9.5c-1.5-1.5-4.1-1.5-5.6,0c-1.5,1.5-1.5,4.1,0,5.6l18.9,18.9L218.9,122.2L218.9,122.2z"/>
		<path d="M218.9,123.2c-0.1,0-0.2,0-0.3,0c-0.2,0-0.4-0.1-0.6-0.3L199.2,104c-1.9-1.9-1.9-5.1,0-7c1.9-1.9,5.1-1.9,7,0l7.8,7.8v-20
			c0-2.7,2.2-5,5-5c2.7,0,5,2.2,5,5v19.8l7.7-7.7c1.9-1.9,5.1-1.9,7,0c1.9,1.9,1.9,5.1,0,7l-18.9,18.9
			C219.4,123.1,219.2,123.2,218.9,123.2z M202.7,97.5c-0.8,0-1.5,0.3-2.1,0.9c-1.2,1.2-1.2,3.1,0,4.2l18.3,18.3l18.3-18.3
			c1.2-1.2,1.2-3,0-4.2c-1.2-1.2-3.1-1.2-4.2,0l-9.3,9.3c-0.3,0.3-0.7,0.4-1.1,0.2c-0.4-0.2-0.6-0.5-0.6-0.9V84.8c0-1.6-1.3-3-3-3
			s-3,1.3-3,3v22.3c0,0.4-0.2,0.8-0.6,0.9c-0.4,0.2-0.8,0.1-1.1-0.2l-9.5-9.5C204.2,97.8,203.4,97.5,202.7,97.5z"/>
	</g>
	<g>
		<path class="st5" d="M218.9,83c1.7,0,3.1,1.1,3.5,2.7c0.1-0.3,0.1-0.7,0.1-1c0-2-1.6-3.7-3.7-3.7c-2,0-3.7,1.6-3.7,3.7
			c0,0.3,0.1,0.7,0.1,1C215.8,84.1,217.2,83,218.9,83z"/>
	</g>
	<g>
		<path class="st5" d="M236.4,99.1c1.2,1.2,1.4,3,0.6,4.4c0.3-0.2,0.6-0.4,0.8-0.6c1.4-1.4,1.4-3.7,0-5.2c-1.4-1.4-3.7-1.4-5.2,0
			c-0.2,0.2-0.4,0.5-0.6,0.8C233.5,97.8,235.3,98,236.4,99.1z"/>
	</g>
	<g>
		<path class="st5" d="M201.5,99.1c1.2-1.2,3-1.4,4.4-0.6c-0.2-0.3-0.4-0.6-0.6-0.8c-1.4-1.4-3.7-1.4-5.2,0c-1.4,1.4-1.4,3.7,0,5.2
			c0.2,0.2,0.5,0.4,0.8,0.6C200.1,102.1,200.3,100.3,201.5,99.1z"/>
	</g>
	<g>
		<path d="M218.9,123.2c-0.1,0-0.2,0-0.3,0c-0.2,0-0.4-0.1-0.6-0.3L199.2,104c-1.9-1.9-1.9-5.1,0-7c1.9-1.9,5.1-1.9,7,0l7.8,7.8v-20
			c0-2.7,2.2-5,5-5c2.7,0,5,2.2,5,5v19.8l7.7-7.7c1.9-1.9,5.1-1.9,7,0c1.9,1.9,1.9,5.1,0,7l-18.9,18.9
			C219.4,123.1,219.2,123.2,218.9,123.2z M202.7,97.5c-0.8,0-1.5,0.3-2.1,0.9c-1.2,1.2-1.2,3.1,0,4.2l18.3,18.3l18.3-18.3
			c1.2-1.2,1.2-3,0-4.2c-1.2-1.2-3.1-1.2-4.2,0l-9.3,9.3c-0.3,0.3-0.7,0.4-1.1,0.2c-0.4-0.2-0.6-0.5-0.6-0.9V84.8c0-1.6-1.3-3-3-3
			s-3,1.3-3,3v22.3c0,0.4-0.2,0.8-0.6,0.9c-0.4,0.2-0.8,0.1-1.1-0.2l-9.5-9.5C204.2,97.8,203.4,97.5,202.7,97.5z"/>
	</g>
	<g>
		<path class="st1" d="M171.8,43.9L152.8,25c-1.5-1.5-4.1-1.5-5.6,0c-1.5,1.5-1.5,4.1,0,5.6l9.3,9.3h-22.2c-2.2,0-4,1.8-4,4v0
			c0,2.2,1.8,4,4,4h22.3l-9.5,9.5c-1.5,1.5-1.5,4.1,0,5.6c1.5,1.5,4.1,1.5,5.6,0l18.9-18.9L171.8,43.9L171.8,43.9z"/>
		<path d="M150,65.1c-1.3,0-2.6-0.5-3.5-1.5c-1.9-1.9-1.9-5.1,0-7l7.8-7.8h-20c-2.7,0-5-2.2-5-5c0-2.7,2.2-5,5-5h19.8l-7.7-7.7
			c-1.9-1.9-1.9-5.1,0-7c0.9-0.9,2.2-1.5,3.5-1.5s2.6,0.5,3.5,1.5l18.9,18.9c0.3,0.3,0.3,0.6,0.3,1c0,0.2-0.1,0.4-0.3,0.6
			l-18.9,18.9C152.6,64.6,151.3,65.1,150,65.1z M134.3,41c-1.6,0-3,1.3-3,3s1.3,3,3,3h22.3c0.4,0,0.8,0.2,0.9,0.6
			c0.2,0.4,0.1,0.8-0.2,1.1l-9.5,9.5c-1.2,1.2-1.2,3,0,4.2c1.1,1.1,3.1,1.1,4.2,0L170.4,44l-18.3-18.3c-1.1-1.1-3.1-1.1-4.2,0
			c-1.2,1.2-1.2,3,0,4.2l9.3,9.3c0.3,0.3,0.4,0.7,0.2,1.1c-0.2,0.4-0.5,0.6-0.9,0.6H134.3z"/>
	</g>
	<g>
		<path class="st2" d="M132.5,44c0-1.7,1.1-3.1,2.7-3.5c-0.3-0.1-0.7-0.1-1-0.1c-2,0-3.7,1.6-3.7,3.7c0,2,1.6,3.7,3.7,3.7
			c0.3,0,0.7-0.1,1-0.1C133.7,47,132.5,45.6,132.5,44z"/>
	</g>
	<g>
		<path class="st2" d="M148.7,26.4c1.2-1.2,3-1.4,4.4-0.6c-0.2-0.3-0.4-0.6-0.6-0.8c-1.4-1.4-3.7-1.4-5.2,0c-1.4,1.4-1.4,3.7,0,5.2
			c0.2,0.2,0.5,0.4,0.8,0.6C147.3,29.4,147.5,27.6,148.7,26.4z"/>
	</g>
	<g>
		<path class="st2" d="M148.7,61.4c-1.2-1.2-1.4-3-0.6-4.4c-0.3,0.2-0.6,0.4-0.8,0.6c-1.4,1.4-1.4,3.7,0,5.2c1.4,1.4,3.7,1.4,5.2,0
			c0.2-0.2,0.4-0.5,0.6-0.8C151.6,62.8,149.9,62.6,148.7,61.4z"/>
	</g>
	<g>
		<path d="M150,65.1c-1.3,0-2.6-0.5-3.5-1.5c-1.9-1.9-1.9-5.1,0-7l7.8-7.8h-20c-2.7,0-5-2.2-5-5c0-2.7,2.2-5,5-5h19.8l-7.7-7.7
			c-1.9-1.9-1.9-5.1,0-7c0.9-0.9,2.2-1.5,3.5-1.5s2.6,0.5,3.5,1.5l18.9,18.9c0.3,0.3,0.3,0.6,0.3,1c0,0.2-0.1,0.4-0.3,0.6
			l-18.9,18.9C152.6,64.6,151.3,65.1,150,65.1z M134.3,41c-1.6,0-3,1.3-3,3s1.3,3,3,3h22.3c0.4,0,0.8,0.2,0.9,0.6
			c0.2,0.4,0.1,0.8-0.2,1.1l-9.5,9.5c-1.2,1.2-1.2,3,0,4.2c1.1,1.1,3.1,1.1,4.2,0L170.4,44l-18.3-18.3c-1.1-1.1-3.1-1.1-4.2,0
			c-1.2,1.2-1.2,3,0,4.2l9.3,9.3c0.3,0.3,0.4,0.7,0.2,1.1c-0.2,0.4-0.5,0.6-0.9,0.6H134.3z"/>
	</g>
	<g>
		<path class="st0" d="M79.5,122.8l18.9-18.9c1.5-1.5,1.5-4.1,0-5.6c-1.5-1.5-4.1-1.5-5.6,0l-9.3,9.3V85.4c0-2.2-1.8-4-4-4h0
			c-2.2,0-4,1.8-4,4v22.3l-9.5-9.5c-1.5-1.5-4.1-1.5-5.6,0c-1.5,1.5-1.5,4.1,0,5.6l18.9,18.9L79.5,122.8L79.5,122.8z"/>
		<path d="M79.5,123.8c-0.1,0-0.2,0-0.3,0c-0.2,0-0.4-0.1-0.6-0.3l-18.9-18.9c-1.9-1.9-1.9-5.1,0-7c1.9-1.9,5.1-1.9,7,0l7.8,7.8v-20
			c0-2.7,2.2-5,5-5s5,2.2,5,5v19.8l7.7-7.7c1.9-1.9,5.1-1.9,7,0c1.9,1.9,1.9,5.1,0,7l-18.9,18.9C80,123.7,79.8,123.8,79.5,123.8z
			 M63.3,98.1c-0.8,0-1.5,0.3-2.1,0.9c-1.2,1.2-1.2,3,0,4.2l18.3,18.3l18.3-18.3c1.2-1.2,1.2-3.1,0-4.2c-1.2-1.2-3-1.2-4.2,0
			l-9.3,9.3c-0.3,0.3-0.7,0.4-1.1,0.2c-0.4-0.2-0.6-0.5-0.6-0.9V85.4c0-1.6-1.3-3-3-3s-3,1.3-3,3v22.3c0,0.4-0.2,0.8-0.6,0.9
			c-0.4,0.2-0.8,0.1-1.1-0.2L65.4,99C64.8,98.4,64.1,98.1,63.3,98.1z"/>
	</g>
	<g>
		<path class="st3" d="M79.5,83.6c1.7,0,3.1,1.1,3.5,2.7c0.1-0.3,0.1-0.7,0.1-1c0-2-1.6-3.7-3.7-3.7c-2,0-3.7,1.6-3.7,3.7
			c0,0.3,0.1,0.7,0.1,1C76.4,84.7,77.8,83.6,79.5,83.6z"/>
	</g>
	<g>
		<path class="st3" d="M97.1,99.7c1.2,1.2,1.4,3,0.6,4.4c0.3-0.2,0.6-0.4,0.8-0.6c1.4-1.4,1.4-3.7,0-5.2c-1.4-1.4-3.7-1.4-5.2,0
			c-0.2,0.2-0.4,0.5-0.6,0.8C94.1,98.3,95.9,98.5,97.1,99.7z"/>
	</g>
	<g>
		<path class="st3" d="M62.1,99.7c1.2-1.2,3-1.4,4.4-0.6c-0.2-0.3-0.4-0.6-0.6-0.8c-1.4-1.4-3.7-1.4-5.2,0c-1.4,1.4-1.4,3.7,0,5.2
			c0.2,0.2,0.5,0.4,0.8,0.6C60.7,102.7,60.9,100.9,62.1,99.7z"/>
	</g>
	<g>
		<path d="M79.5,123.8c-0.1,0-0.2,0-0.3,0c-0.2,0-0.4-0.1-0.6-0.3l-18.9-18.9c-1.9-1.9-1.9-5.1,0-7c1.9-1.9,5.1-1.9,7,0l7.8,7.8v-20
			c0-2.7,2.2-5,5-5s5,2.2,5,5v19.8l7.7-7.7c1.9-1.9,5.1-1.9,7,0c1.9,1.9,1.9,5.1,0,7l-18.9,18.9C80,123.7,79.8,123.8,79.5,123.8z
			 M63.3,98.1c-0.8,0-1.5,0.3-2.1,0.9c-1.2,1.2-1.2,3,0,4.2l18.3,18.3l18.3-18.3c1.2-1.2,1.2-3.1,0-4.2c-1.2-1.2-3-1.2-4.2,0
			l-9.3,9.3c-0.3,0.3-0.7,0.4-1.1,0.2c-0.4-0.2-0.6-0.5-0.6-0.9V85.4c0-1.6-1.3-3-3-3s-3,1.3-3,3v22.3c0,0.4-0.2,0.8-0.6,0.9
			c-0.4,0.2-0.8,0.1-1.1-0.2L65.4,99C64.8,98.4,64.1,98.1,63.3,98.1z"/>
	</g>
	<g>
		<path d="M251.8,69.7h-60.2c-5,0-9.1-4.1-9.1-9.1V26.8c0-5,4.1-9.1,9.1-9.1h60.2c5,0,9.1,4.1,9.1,9.1v33.7
			C260.9,65.6,256.8,69.7,251.8,69.7z M191.6,19.7c-3.9,0-7.1,3.2-7.1,7.1v33.7c0,3.9,3.2,7.1,7.1,7.1h60.2c3.9,0,7.1-3.2,7.1-7.1
			V26.8c0-3.9-3.2-7.1-7.1-7.1H191.6z"/>
	</g>
	<g>
		<polyline class="st6" points="189.7,33.4 189.7,27.4 217.8,27.4 217.8,59.5 189.7,59.5 189.7,39.2 		"/>
		<path d="M217.8,60.5h-28.1c-0.5,0-1-0.4-1-1V39.2c0-0.5,0.4-1,1-1c0.5,0,1,0.4,1,1v19.3h26.1V28.3h-26.1v5c0,0.5-0.4,1-1,1
			c-0.5,0-1-0.4-1-1v-6c0-0.5,0.4-1,1-1h28.1c0.5,0,1,0.4,1,1v32.1C218.8,60,218.4,60.5,217.8,60.5z"/>
	</g>
	<circle class="st1" cx="203.9" cy="41.2" r="7.3"/>
	<circle class="st1" cx="203.9" cy="41.2" r="7.3"/>
	<path class="st2" d="M203.9,33.9c-0.8,0-1.7,0.2-2.4,0.4c2.8,1,4.9,3.7,4.9,6.9c0,3.2-2,5.9-4.9,6.9c0.8,0.3,1.6,0.4,2.4,0.4
		c4,0,7.3-3.3,7.3-7.3C211.2,37.2,207.9,33.9,203.9,33.9z"/>
	<g>
		<path d="M203.9,49.5c-4.6,0-8.3-3.7-8.3-8.3s3.7-8.3,8.3-8.3s8.3,3.7,8.3,8.3S208.5,49.5,203.9,49.5z M203.9,34.9
			c-3.5,0-6.3,2.8-6.3,6.3c0,3.5,2.8,6.3,6.3,6.3c3.5,0,6.3-2.8,6.3-6.3C210.2,37.7,207.4,34.9,203.9,34.9z"/>
	</g>
	<path class="st4" d="M211.2,55.5c0-4-3.3-7.3-7.3-7.3c-4,0-7.3,3.3-7.3,7.3"/>
	<path class="st5" d="M203.9,48.2c-0.7,0-1.4,0.1-2.1,0.3c3,0.9,5.2,3.7,5.2,7h4.2C211.2,51.5,207.9,48.2,203.9,48.2z"/>
	<g>
		<path d="M211.2,56.5c-0.5,0-1-0.4-1-1c0-3.5-2.8-6.3-6.3-6.3c-3.5,0-6.3,2.8-6.3,6.3c0,0.5-0.4,1-1,1s-1-0.4-1-1
			c0-4.6,3.7-8.3,8.3-8.3s8.3,3.7,8.3,8.3C212.2,56.1,211.7,56.5,211.2,56.5z"/>
	</g>
	<g>
		<path d="M253.9,31.8h-30.2c-0.5,0-1-0.4-1-1s0.4-1,1-1h30.2c0.5,0,1,0.4,1,1S254.4,31.8,253.9,31.8z"/>
	</g>
	<g>
		<path d="M253.9,48.9h-30.2c-0.5,0-1-0.4-1-1c0-0.5,0.4-1,1-1h30.2c0.5,0,1,0.4,1,1C254.9,48.5,254.4,48.9,253.9,48.9z"/>
	</g>
	<g>
		<path d="M253.9,40.4h-7.4c-0.5,0-1-0.4-1-1s0.4-1,1-1h7.4c0.5,0,1,0.4,1,1S254.4,40.4,253.9,40.4z"/>
	</g>
	<g>
		<path d="M242.1,40.4h-18.5c-0.5,0-1-0.4-1-1s0.4-1,1-1h18.5c0.5,0,1,0.4,1,1S242.7,40.4,242.1,40.4z"/>
	</g>
	<g>
		<path d="M242.1,57.2h-18.5c-0.5,0-1-0.4-1-1s0.4-1,1-1h18.5c0.5,0,1,0.4,1,1S242.7,57.2,242.1,57.2z"/>
	</g>
	<g>
		<path d="M117,140.6H40.6c-0.5,0-1-0.4-1-1s0.4-1,1-1H117c0.5,0,1,0.4,1,1S117.5,140.6,117,140.6z"/>
	</g>
	<g>
		<path d="M71.7,157H49.4c-2.3,0-4.1-1.8-4.1-4.1v-0.2c0-2.3,1.8-4.1,4.1-4.1h22.3c2.3,0,4.1,1.8,4.1,4.1v0.2
			C75.8,155.2,74,157,71.7,157z M49.4,150.6c-1.2,0-2.1,0.9-2.1,2.1v0.2c0,1.2,0.9,2.1,2.1,2.1h22.3c1.2,0,2.1-0.9,2.1-2.1v-0.2
			c0-1.2-0.9-2.1-2.1-2.1H49.4z"/>
	</g>
	<g>
		<path d="M71.7,168.8H49.4c-2.3,0-4.1-1.8-4.1-4.1v-0.2c0-2.3,1.8-4.1,4.1-4.1h22.3c2.3,0,4.1,1.8,4.1,4.1v0.2
			C75.8,166.9,74,168.8,71.7,168.8z M49.4,162.4c-1.2,0-2.1,0.9-2.1,2.1v0.2c0,1.2,0.9,2.1,2.1,2.1h22.3c1.2,0,2.1-0.9,2.1-2.1v-0.2
			c0-1.2-0.9-2.1-2.1-2.1H49.4z"/>
	</g>
	<path class="st3" d="M89.8,194.3l-4-8.4H72.5l-1.4,2.9c6.2,0.5,11.5,4.2,14.1,9.5h11C93.5,198.3,91,196.7,89.8,194.3z"/>
	<g>
		<path d="M106.3,157H84c-2.3,0-4.1-1.8-4.1-4.1v-0.2c0-2.3,1.8-4.1,4.1-4.1h22.3c2.3,0,4.1,1.8,4.1,4.1v0.2
			C110.4,155.2,108.6,157,106.3,157z M84,150.6c-1.2,0-2.1,0.9-2.1,2.1v0.2c0,1.2,0.9,2.1,2.1,2.1h22.3c1.2,0,2.1-0.9,2.1-2.1v-0.2
			c0-1.2-0.9-2.1-2.1-2.1H84z"/>
	</g>
	<g>
		<path d="M106.3,168.8H84c-2.3,0-4.1-1.8-4.1-4.1v-0.2c0-2.3,1.8-4.1,4.1-4.1h22.3c2.3,0,4.1,1.8,4.1,4.1v0.2
			C110.4,166.9,108.6,168.8,106.3,168.8z M84,162.4c-1.2,0-2.1,0.9-2.1,2.1v0.2c0,1.2,0.9,2.1,2.1,2.1h22.3c1.2,0,2.1-0.9,2.1-2.1
			v-0.2c0-1.2-0.9-2.1-2.1-2.1H84z"/>
	</g>
	<g>
		<path d="M103.3,199.3H55c-0.5,0-1-0.4-1-1c0-0.5,0.4-1,1-1h7.1c2.4,0,4.5-1.4,5.5-3.5l4-8.4c0.2-0.3,0.5-0.6,0.9-0.6h13.3
			c0.4,0,0.7,0.2,0.9,0.6l4,8.4c1,2.1,3.2,3.5,5.5,3.5h7.1c0.5,0,1,0.4,1,1C104.3,198.9,103.9,199.3,103.3,199.3z M67.4,197.3H91
			c-0.8-0.7-1.5-1.6-2-2.7l-3.7-7.8H73.1l-3.7,7.8C68.9,195.7,68.2,196.6,67.4,197.3z"/>
	</g>
	<g>
		<path d="M117.1,178H58.3c-0.5,0-1-0.4-1-1c0-0.5,0.4-1,1-1h57.9v-36c0-3.4-2.8-6.2-6.2-6.2H47.2c-3.4,0-6.2,2.8-6.2,6.2v36h8
			c0.5,0,1,0.4,1,1c0,0.5-0.4,1-1,1h-9c-0.5,0-1-0.4-1-1v-37c0-4.5,3.7-8.2,8.2-8.2H110c4.5,0,8.2,3.7,8.2,8.2v37
			C118.1,177.6,117.7,178,117.1,178z"/>
	</g>
	<g>
		<path d="M110,186.4H47.2c-4.5,0-8.2-3.7-8.2-8.2V177c0-0.5,0.4-1,1-1c0.5,0,1,0.4,1,1v1.2c0,3.4,2.8,6.2,6.2,6.2H110
			c3.4,0,6.2-2.8,6.2-6.2V177c0-0.5,0.4-1,1-1s1,0.4,1,1v1.2C118.1,182.7,114.5,186.4,110,186.4z"/>
	</g>
	<g>
		<path d="M51.3,153.8h-1c-0.5,0-1-0.4-1-1c0-0.5,0.4-1,1-1h1c0.5,0,1,0.4,1,1C52.3,153.4,51.9,153.8,51.3,153.8z"/>
	</g>
	<g>
		<path d="M51.3,165.6h-1c-0.5,0-1-0.4-1-1c0-0.5,0.4-1,1-1h1c0.5,0,1,0.4,1,1C52.3,165.1,51.9,165.6,51.3,165.6z"/>
	</g>
	<g>
		<path d="M56.4,165.6h-1c-0.5,0-1-0.4-1-1c0-0.5,0.4-1,1-1h1c0.5,0,1,0.4,1,1C57.4,165.1,57,165.6,56.4,165.6z"/>
	</g>
</g>
</svg>
