<?xml version="1.0" encoding="utf-8"?>
<!-- Generator: Adobe Illustrator 24.3.0, SVG Export Plug-In . SVG Version: 6.00 Build 0)  -->
<svg version="1.1" id="Capa_1" xmlns="http://www.w3.org/2000/svg" xmlns:xlink="http://www.w3.org/1999/xlink" x="0px" y="0px"
	 viewBox="0 0 300 200" style="enable-background:new 0 0 300 200;" xml:space="preserve">
<style type="text/css">
	.st0{fill:#5F7993;}
	.st1{fill:#17B5C8;}
	.st2{fill:#11828F;}
	.st3{fill:#405162;}
	.st4{fill:#A6D100;}
	.st5{fill:#89AB00;}
	.st6{fill:#FFFFFF;}
	.st7{fill:none;stroke:#17B5C8;stroke-width:2;stroke-miterlimit:10;}
</style>
<g>
	<path class="st0" d="M227.2,5.7l-26.8-4.7c-2.2-0.4-4.3,1.1-4.7,3.3c-0.4,2.2,1.1,4.3,3.3,4.7l13.3,2.3L60.8,119.1
		c-1.8,1.3-2.3,3.8-1,5.6l0,0c1.3,1.8,3.8,2.3,5.6,1L217,17.9l-2.3,13.4c-0.4,2.2,1.1,4.3,3.3,4.7c2.2,0.4,4.3-1.1,4.7-3.3l4.7-26.8
		L227.2,5.7L227.2,5.7z"/>
	<path class="st0" d="M227.2,5.7l-26.8-4.7c-2.2-0.4-4.3,1.1-4.7,3.3c-0.4,2.2,1.1,4.3,3.3,4.7l13.3,2.3L60.8,119.1
		c-1.8,1.3-2.3,3.8-1,5.6l0,0c1.3,1.8,3.8,2.3,5.6,1L217,17.9l-2.3,13.4c-0.4,2.2,1.1,4.3,3.3,4.7c2.2,0.4,4.3-1.1,4.7-3.3l4.7-26.8
		L227.2,5.7L227.2,5.7z"/>
	<g>
		<path class="st3" d="M197.3,8.3c0.5,0.4,1.1,0.6,1.7,0.8l8.7,1.5l0.5-0.4L197.3,8.3z"/>
		<path class="st3" d="M212.9,16.7L61.4,124.6c-0.4,0.3-0.8,0.4-1.2,0.6c1.3,1.5,3.6,1.8,5.3,0.6L212.1,21.3L212.9,16.7z"/>
		<path class="st3" d="M227.2,5.8L227.2,5.8l-4-0.8l-4.6,26.5c-0.3,1.6-1.4,2.8-2.9,3.2c0.6,0.6,1.4,1.1,2.3,1.3
			c2.2,0.4,4.3-1.1,4.7-3.3L227.2,5.8L227.2,5.8z"/>
	</g>
	<rect x="62.5" y="147.3" class="st1" width="34.6" height="51.7"/>
	<rect x="97.2" y="127.2" class="st4" width="34.3" height="71.8"/>
	<rect x="131.9" y="105.6" class="st1" width="35" height="93.4"/>
	<rect x="166.9" y="81.5" class="st4" width="34.5" height="117.5"/>
	<polyline class="st1" points="214,59.7 201.6,59.7 201.6,199 236.6,199 236.6,59.7 214,59.7 	"/>
	<g>
		<path d="M64,127.5c-1.6,0-3.2-0.7-4.1-2.1c-1.6-2.3-1.1-5.4,1.2-7l65.8-46.9c0.5-0.3,1.1-0.2,1.4,0.2c0.3,0.5,0.2,1.1-0.2,1.4
			L62.2,120c-1.4,1-1.7,2.9-0.7,4.2c1,1.4,2.9,1.7,4.2,0.7L217.3,17c0.3-0.2,0.8-0.3,1.1,0c0.3,0.2,0.5,0.6,0.5,1l-2.3,13.4
			c-0.1,0.8,0,1.6,0.5,2.3c0.5,0.7,1.2,1.1,2,1.2c0.8,0.1,1.6,0,2.3-0.5c0.7-0.5,1.1-1.2,1.2-2L227,6.6l-25.9-4.5
			c-1.6-0.3-3.2,0.8-3.5,2.5c-0.1,0.8,0,1.6,0.5,2.3s1.2,1.1,2,1.2l13.3,2.3c0.4,0.1,0.7,0.4,0.8,0.8c0.1,0.4-0.1,0.8-0.4,1
			L138.1,66c-0.5,0.3-1.1,0.2-1.4-0.2c-0.3-0.5-0.2-1.1,0.2-1.4l73.7-52.4L199.7,10c-1.3-0.2-2.5-1-3.3-2.1
			c-0.8-1.1-1.1-2.4-0.8-3.8c0.5-2.7,3.1-4.6,5.8-4.1l26.8,4.7c0.4,0.1,0.7,0.3,0.8,0.7c0.1,0.2,0.2,0.4,0.1,0.6l-4.7,26.8
			c-0.2,1.3-1,2.5-2.1,3.3c-1.1,0.8-2.4,1.1-3.8,0.8c-1.3-0.2-2.5-1-3.3-2.1c-0.8-1.1-1.1-2.4-0.8-3.8l1.9-11L66.9,126.6
			C66,127.2,65,127.5,64,127.5z"/>
	</g>
	<path class="st5" d="M97.2,180.8V199h34.3v-27.8C120.5,175.5,109.1,178.7,97.2,180.8z"/>
	<path class="st2" d="M66.3,183.5c-1.3,0-2.5,0-3.8,0V199h34.6v-18.2C87.1,182.6,76.8,183.5,66.3,183.5z"/>
	<g>
		<path d="M97.1,200H62.5c-0.6,0-1-0.5-1-1v-19.4c0-0.6,0.5-1,1-1s1,0.5,1,1V198h32.6v-49.7H63.5v23.2c0,0.6-0.5,1-1,1s-1-0.5-1-1
			v-24.3c0-0.6,0.5-1,1-1h34.6c0.6,0,1,0.5,1,1V199C98.1,199.5,97.6,200,97.1,200z"/>
	</g>
	<g>
		<path d="M131.5,200H97.2c-0.6,0-1-0.5-1-1v-71.8c0-0.6,0.5-1,1-1h34.3c0.6,0,1,0.5,1,1V199C132.5,199.5,132,200,131.5,200z
			 M98.2,198h32.3v-69.8H98.2V198z"/>
	</g>
	<path class="st5" d="M166.9,152.4V199h34.5v-77.4C191.3,133.3,179.7,143.7,166.9,152.4z"/>
	<path class="st2" d="M131.9,171v28h35v-46.6C156,159.9,144.3,166.1,131.9,171z"/>
	<g>
		<path d="M166.9,200h-35c-0.6,0-1-0.5-1-1v-93.4c0-0.6,0.5-1,1-1h35c0.6,0,1,0.5,1,1V199C167.9,199.5,167.4,200,166.9,200z
			 M132.9,198h33v-91.4h-33V198z"/>
	</g>
	<path class="st2" d="M201.6,121.4V199h35V59.7h-0.4C228.8,82.6,216.9,103.5,201.6,121.4z"/>
	<g>
		<path d="M201.4,200h-34.5c-0.6,0-1-0.5-1-1V81.5c0-0.6,0.5-1,1-1h34.5c0.6,0,1,0.5,1,1V199C202.4,199.5,201.9,200,201.4,200z
			 M167.9,198h32.5V82.5h-32.5V198z"/>
	</g>
	<g>
		<path d="M236.6,200h-35c-0.6,0-1-0.5-1-1V59.7c0-0.6,0.5-1,1-1H214c0.6,0,1,0.5,1,1c0,0.6-0.5,1-1,1h-11.4V198h33V60.7h-11.1
			c-0.6,0-1-0.5-1-1c0-0.6,0.5-1,1-1h12.1c0.6,0,1,0.5,1,1V199C237.6,199.5,237.1,200,236.6,200z"/>
	</g>
	<g>
		<path d="M253.1,199.9H46.9c-0.6,0-1-0.5-1-1s0.5-1,1-1h206.3c0.6,0,1,0.5,1,1S253.7,199.9,253.1,199.9z"/>
	</g>
</g>
</svg>
