<?xml version="1.0" encoding="UTF-8" standalone="no"?>
<!-- Generator: Adobe Illustrator 24.3.0, SVG Export Plug-In . SVG Version: 6.00 Build 0)  -->

<svg
   xmlns:dc="http://purl.org/dc/elements/1.1/"
   xmlns:cc="http://creativecommons.org/ns#"
   xmlns:rdf="http://www.w3.org/1999/02/22-rdf-syntax-ns#"
   xmlns:svg="http://www.w3.org/2000/svg"
   xmlns="http://www.w3.org/2000/svg"
   xmlns:sodipodi="http://sodipodi.sourceforge.net/DTD/sodipodi-0.dtd"
   xmlns:inkscape="http://www.inkscape.org/namespaces/inkscape"
   version="1.1"
   id="Capa_1"
   x="0px"
   y="0px"
   viewBox="0 0 300 200"
   style="enable-background:new 0 0 300 200;"
   xml:space="preserve"
   sodipodi:docname="network-discovery.svg"
   inkscape:version="0.92.5 (2060ec1f9f, 2020-04-08)"><metadata
   id="metadata4146"><rdf:RDF><cc:Work
       rdf:about=""><dc:format>image/svg+xml</dc:format><dc:type
         rdf:resource="http://purl.org/dc/dcmitype/StillImage" /><dc:title></dc:title></cc:Work></rdf:RDF></metadata><defs
   id="defs4144" /><sodipodi:namedview
   pagecolor="#ffffff"
   bordercolor="#666666"
   borderopacity="1"
   objecttolerance="10"
   gridtolerance="10"
   guidetolerance="10"
   inkscape:pageopacity="0"
   inkscape:pageshadow="2"
   inkscape:window-width="1920"
   inkscape:window-height="1025"
   id="namedview4142"
   showgrid="false"
   inkscape:pagecheckerboard="true"
   inkscape:zoom="2.22"
   inkscape:cx="128.37838"
   inkscape:cy="88.848543"
   inkscape:window-x="0"
   inkscape:window-y="29"
   inkscape:window-maximized="1"
   inkscape:current-layer="Capa_1" />
<style
   type="text/css"
   id="style3871">
	.st0{fill:#5F7993;}
	.st1{fill:#17B5C8;}
	.st2{fill:#11828F;}
	.st3{fill:#405162;}
	.st4{fill:#A6D100;}
	.st5{fill:#89AB00;}
	.st6{fill:#FFFFFF;}
	.st7{fill:none;stroke:#17B5C8;stroke-width:2;stroke-miterlimit:10;}
</style>
<circle
   style="opacity:1;fill:#ffffff;fill-opacity:1;fill-rule:nonzero;stroke:none;stroke-width:20.51527596;stroke-linecap:round;stroke-linejoin:round;stroke-miterlimit:4;stroke-dasharray:none;stroke-dashoffset:0;stroke-opacity:1"
   id="path3589"
   cx="150.67567"
   cy="97.522514"
   r="74.549553" /><g
   id="g1384"
   transform="matrix(0.57075646,0,0,0.54229652,61.595052,31.437103)"><rect
     ry="3.4909904"
     y="168.35587"
     x="187.38739"
     height="30.855862"
     width="84.234238"
     id="rect4693-2"
     style="opacity:1;fill:#ffffff;fill-opacity:1;fill-rule:nonzero;stroke:none;stroke-width:2.26771665;stroke-linecap:round;stroke-linejoin:round;stroke-miterlimit:4;stroke-dasharray:none;stroke-dashoffset:0;stroke-opacity:1" /><rect
     ry="3.4909904"
     y="137.27478"
     x="187.38739"
     height="30.855862"
     width="84.234238"
     id="rect4693-56"
     style="opacity:1;fill:#ffffff;fill-opacity:1;fill-rule:nonzero;stroke:none;stroke-width:2.26771665;stroke-linecap:round;stroke-linejoin:round;stroke-miterlimit:4;stroke-dasharray:none;stroke-dashoffset:0;stroke-opacity:1" /><rect
     ry="3.4909904"
     y="106.1937"
     x="187.61261"
     height="30.855862"
     width="84.234238"
     id="rect4693-3"
     style="opacity:1;fill:#ffffff;fill-opacity:1;fill-rule:nonzero;stroke:none;stroke-width:2.26771665;stroke-linecap:round;stroke-linejoin:round;stroke-miterlimit:4;stroke-dasharray:none;stroke-dashoffset:0;stroke-opacity:1" /><rect
     ry="3.4909904"
     y="168.46846"
     x="27.927923"
     height="30.855862"
     width="84.234238"
     id="rect4693-5"
     style="opacity:1;fill:#ffffff;fill-opacity:1;fill-rule:nonzero;stroke:none;stroke-width:2.26771665;stroke-linecap:round;stroke-linejoin:round;stroke-miterlimit:4;stroke-dasharray:none;stroke-dashoffset:0;stroke-opacity:1" /><rect
     ry="3.4909904"
     y="137.38737"
     x="28.153152"
     height="30.855862"
     width="84.234238"
     id="rect4693-7"
     style="opacity:1;fill:#ffffff;fill-opacity:1;fill-rule:nonzero;stroke:none;stroke-width:2.26771665;stroke-linecap:round;stroke-linejoin:round;stroke-miterlimit:4;stroke-dasharray:none;stroke-dashoffset:0;stroke-opacity:1" /><rect
     ry="3.4909904"
     y="106.08108"
     x="28.153152"
     height="30.855862"
     width="84.234238"
     id="rect4693"
     style="opacity:1;fill:#ffffff;fill-opacity:1;fill-rule:nonzero;stroke:none;stroke-width:2.26771665;stroke-linecap:round;stroke-linejoin:round;stroke-miterlimit:4;stroke-dasharray:none;stroke-dashoffset:0;stroke-opacity:1" /><ellipse
     ry="6.4189191"
     rx="6.5315313"
     cy="80.292793"
     cx="151.35133"
     id="path4691"
     style="opacity:1;fill:#ffffff;fill-opacity:1;fill-rule:nonzero;stroke:none;stroke-width:2.26771665;stroke-linecap:round;stroke-linejoin:round;stroke-miterlimit:4;stroke-dasharray:none;stroke-dashoffset:0;stroke-opacity:1" /><g
     id="g4139">
	<circle
   id="circle3873"
   r="6.5999999"
   cy="152.8"
   cx="44"
   class="st4"
   style="fill:#a6d100" />
	<circle
   id="circle3875"
   r="6.5999999"
   cy="121.7"
   cx="44"
   class="st0"
   style="fill:#5f7993" />
	<circle
   id="circle3877"
   r="6.5999999"
   cy="183.39999"
   cx="44"
   class="st0"
   style="fill:#5f7993" />
	<path
   id="path3879"
   d="m 40.7,156.3 c 0,-3.6 2.9,-6.6 6.6,-6.6 1,0 1.9,0.2 2.8,0.6 -1,-2.4 -3.3,-4.2 -6.1,-4.2 -3.6,0 -6.6,2.9 -6.6,6.6 0,2.6 1.5,4.9 3.8,5.9 -0.3,-0.6 -0.5,-1.4 -0.5,-2.3 z"
   class="st5"
   inkscape:connector-curvature="0"
   style="fill:#89ab00" />
	<path
   id="path3881"
   d="m 40.7,125.3 c 0,-3.6 2.9,-6.6 6.6,-6.6 1,0 1.9,0.2 2.8,0.6 -1,-2.4 -3.3,-4.2 -6.1,-4.2 -3.6,0 -6.6,2.9 -6.6,6.6 0,2.6 1.5,4.9 3.8,5.9 -0.3,-0.7 -0.5,-1.5 -0.5,-2.3 z"
   class="st3"
   inkscape:connector-curvature="0"
   style="fill:#405162" />
	<path
   id="path3883"
   d="m 40.7,186.9 c 0,-3.6 2.9,-6.6 6.6,-6.6 1,0 1.9,0.2 2.8,0.6 -1,-2.4 -3.3,-4.2 -6.1,-4.2 -3.6,0 -6.6,2.9 -6.6,6.6 0,2.6 1.5,4.9 3.8,5.9 -0.3,-0.6 -0.5,-1.4 -0.5,-2.3 z"
   class="st3"
   inkscape:connector-curvature="0"
   style="fill:#405162" />
	<path
   id="path3885"
   d="m 99.4,161.6 h -31 c -1.1,0 -1.9,-0.9 -1.9,-1.9 v -14 c 0,-1.1 0.9,-1.9 1.9,-1.9 h 31 c 1.1,0 1.9,0.9 1.9,1.9 v 14 c 0,1.1 -0.9,1.9 -1.9,1.9 z"
   class="st1"
   inkscape:connector-curvature="0"
   style="fill:#17b5c8" />
	<path
   id="path3887"
   d="m 99.4,130.4 h -31 c -1.1,0 -1.9,-0.9 -1.9,-1.9 v -14 c 0,-1.1 0.9,-1.9 1.9,-1.9 h 31 c 1.1,0 1.9,0.9 1.9,1.9 v 14 c 0,1.1 -0.9,1.9 -1.9,1.9 z"
   class="st1"
   inkscape:connector-curvature="0"
   style="fill:#17b5c8" />
	<path
   id="path3889"
   d="m 99.4,192.3 h -31 c -1.1,0 -1.9,-0.9 -1.9,-1.9 v -14 c 0,-1.1 0.9,-1.9 1.9,-1.9 h 31 c 1.1,0 1.9,0.9 1.9,1.9 v 14 c 0,1 -0.9,1.9 -1.9,1.9 z"
   class="st1"
   inkscape:connector-curvature="0"
   style="fill:#17b5c8" />
	<path
   id="path3891"
   d="m 67.1,129.9 c 2.8,-7.9 9,-14.3 16.8,-17.3 H 68.4 c -1.1,0 -1.9,0.9 -1.9,1.9 v 14 c -0.1,0.5 0.2,1 0.6,1.4 z"
   class="st2"
   inkscape:connector-curvature="0"
   style="fill:#11828f" />
	<path
   id="path3893"
   d="M 80.2,143.8 H 68.4 c -1.1,0 -1.9,0.9 -1.9,1.9 v 14 c 0,0.3 0.1,0.6 0.2,0.9 2.2,-7.2 7.1,-13.2 13.5,-16.8 z"
   class="st2"
   inkscape:connector-curvature="0"
   style="fill:#11828f" />
	<path
   id="path3895"
   d="m 67.3,192 c 3.3,-8.4 10.3,-15 19.1,-17.5 h -18 c -1.1,0 -1.9,0.9 -1.9,1.9 v 14 c -0.1,0.6 0.3,1.2 0.8,1.6 z"
   class="st2"
   inkscape:connector-curvature="0"
   style="fill:#11828f" />
	<path
   id="path3897"
   d="m 152.6,13.4 c 17.7,0 33.5,7.7 43.8,19.8 2.1,2.5 5.6,3.1 8.4,1.4 v 0 c 3.3,-2.1 4.1,-6.7 1.5,-9.7 -12.7,-14.6 -32,-24 -53.6,-24 -21.6,0 -40.9,9.3 -53.6,24 -2.6,3 -1.9,7.6 1.5,9.7 v 0 c 2.7,1.7 6.3,1.1 8.4,-1.4 10.1,-12 25.9,-19.8 43.6,-19.8 z"
   class="st0"
   inkscape:connector-curvature="0"
   style="fill:#5f7993" />
	<path
   id="path3899"
   d="m 152.6,13.4 c 17.7,0 33.5,7.7 43.8,19.8 2.1,2.5 5.6,3.1 8.4,1.4 v 0 c 3.3,-2.1 4.1,-6.7 1.5,-9.7 -12.7,-14.6 -32,-24 -53.6,-24 -21.6,0 -40.9,9.3 -53.6,24 -2.6,3 -1.9,7.6 1.5,9.7 v 0 c 2.7,1.7 6.3,1.1 8.4,-1.4 10.1,-12 25.9,-19.8 43.6,-19.8 z"
   class="st0"
   inkscape:connector-curvature="0"
   style="fill:#5f7993" />
	<path
   id="path3901"
   d="m 150.6,36 c 9.9,0 18.7,4.3 24.5,11 2,2.3 5.2,2.8 7.8,1.2 v 0 c 3.1,-2 3.8,-6.3 1.3,-9.1 C 176.1,30 164,24.2 150.5,24.2 c -12.6,0 -23.9,5 -31.9,13.1 -2.7,2.7 -2.2,7.3 1,9.3 v 0 c 2.4,1.5 5.5,1.2 7.4,-0.9 6,-5.9 14.3,-9.7 23.6,-9.7 z"
   class="st1"
   inkscape:connector-curvature="0"
   style="fill:#17b5c8" />
	<path
   id="path3903"
   d="m 150.6,36 c 9.9,0 18.7,4.3 24.5,11 2,2.3 5.2,2.8 7.8,1.2 v 0 c 3.1,-2 3.8,-6.3 1.3,-9.1 C 176.1,30 164,24.2 150.5,24.2 c -12.6,0 -23.9,5 -31.9,13.1 -2.7,2.7 -2.2,7.3 1,9.3 v 0 c 2.4,1.5 5.5,1.2 7.4,-0.9 6,-5.9 14.3,-9.7 23.6,-9.7 z"
   class="st1"
   inkscape:connector-curvature="0"
   style="fill:#17b5c8" />
	<path
   id="path3905"
   d="m 152.6,60.2 c 2.3,0 4.5,0.3 6.5,0.7 1.6,0.4 3.4,0.1 4.8,-0.8 v 0 c 4.3,-2.7 3.8,-9.1 -0.8,-11.2 -3.1,-1.4 -6.7,-2.2 -10.5,-2.2 -3.8,0 -7.4,0.8 -10.5,2.2 -4.6,2.1 -5.1,8.5 -0.8,11.2 v 0 c 1.4,0.9 3.2,1.2 4.8,0.8 1.9,-0.4 4.1,-0.7 6.5,-0.7 z"
   class="st4"
   inkscape:connector-curvature="0"
   style="fill:#a6d100" />
	<path
   id="path3907"
   d="m 152.6,60.2 c 2.3,0 4.5,0.3 6.5,0.7 1.6,0.4 3.4,0.1 4.8,-0.8 v 0 c 4.3,-2.7 3.8,-9.1 -0.8,-11.2 -3.1,-1.4 -6.7,-2.2 -10.5,-2.2 -3.8,0 -7.4,0.8 -10.5,2.2 -4.6,2.1 -5.1,8.5 -0.8,11.2 v 0 c 1.4,0.9 3.2,1.2 4.8,0.8 1.9,-0.4 4.1,-0.7 6.5,-0.7 z"
   class="st4"
   inkscape:connector-curvature="0"
   style="fill:#a6d100" />
	<g
   id="g3913">
		<path
   id="path3909"
   d="m 174.9,17.8 c 8.4,3.5 15.8,8.8 21.4,15.4 1.9,2.2 4.9,2.9 7.5,1.8 -7.4,-8.2 -17.4,-14.4 -28.9,-17.2 z"
   class="st3"
   inkscape:connector-curvature="0"
   style="fill:#405162" />
		<path
   id="path3911"
   d="m 107.2,27.6 c 12.7,-14.6 32,-24 53.6,-24 6.4,0 12.6,0.8 18.5,2.4 C 171.1,2.8 162,1 152.6,1 131,1 111.7,10.3 99,25 c -2.6,3 -1.9,7.6 1.5,9.7 v 0 c 1.9,1.2 4.1,1.2 6,0.4 -1.3,-2.4 -1.2,-5.4 0.7,-7.5 z"
   class="st3"
   inkscape:connector-curvature="0"
   style="fill:#405162" />
	</g>
	<g
   id="g3919">
		<path
   id="path3915"
   d="m 126.9,40 c 8,-8 19.3,-13.1 31.9,-13.1 3.4,0 6.7,0.4 9.9,1.1 -5.5,-2.4 -11.7,-3.7 -18.1,-3.7 -12.6,0 -23.9,5 -31.9,13.1 -2.7,2.7 -2.2,7.3 1,9.3 1.9,1.2 4.1,1.2 6,0.2 -1,-2.2 -0.7,-5 1.2,-6.9 z"
   class="st2"
   inkscape:connector-curvature="0"
   style="fill:#11828f" />
		<path
   id="path3917"
   d="m 164.8,39.2 c 4,1.9 7.5,4.6 10.3,7.8 1.8,2.1 4.7,2.7 7.2,1.5 -4.5,-4.7 -10.6,-8.1 -17.5,-9.3 z"
   class="st2"
   inkscape:connector-curvature="0"
   style="fill:#11828f" />
	</g>
	<path
   id="path3921"
   d="m 150.3,51.6 c 3.1,-1.4 6.7,-2.2 10.5,-2.2 1.2,0 2.3,0.1 3.4,0.2 -0.3,-0.2 -0.7,-0.5 -1.1,-0.7 -3.1,-1.4 -6.7,-2.2 -10.5,-2.2 -3.8,0 -7.4,0.8 -10.5,2.2 -4.6,2.1 -5.1,8.5 -0.8,11.2 1.4,0.9 3.2,1.2 4.8,0.8 0.4,-0.1 0.9,-0.2 1.3,-0.3 -1.8,-3 -0.7,-7.3 2.9,-9 z"
   class="st5"
   inkscape:connector-curvature="0"
   style="fill:#89ab00" />
	<g
   id="g3925">
		<path
   id="path3923"
   d="m 109.6,138.2 c -0.5,0 -1,-0.4 -1,-1 0,-0.6 0.4,-1 1,-1 1.1,0 2,-0.9 2,-2 v -24.8 c 0,-1.1 -0.9,-2 -2,-2 H 31.4 c -1.1,0 -2,0.9 -2,2 v 24.8 c 0,1.1 0.9,2 2,2 0.5,0 1,0.4 1,1 0,0.6 -0.4,1 -1,1 -2.2,0 -4,-1.8 -4,-4 v -24.8 c 0,-2.2 1.8,-4 4,-4 h 78.2 c 2.2,0 4,1.8 4,4 v 24.8 c 0,2.2 -1.8,4 -4,4 z"
   inkscape:connector-curvature="0" />
	</g>
	<g
   id="g3929">
		<path
   id="path3927"
   d="m 101.4,138.2 h -4.5 c -0.5,0 -1,-0.4 -1,-1 0,-0.6 0.4,-1 1,-1 h 4.5 c 0.5,0 1,0.4 1,1 0,0.6 -0.5,1 -1,1 z"
   inkscape:connector-curvature="0" />
	</g>
	<g
   id="g3933">
		<path
   id="path3931"
   d="m 109.6,169.1 c -0.5,0 -1,-0.4 -1,-1 0,-0.5 0.4,-1 1,-1 1.1,0 2,-0.9 2,-2 v -24.8 c 0,-1.1 -0.9,-2 -2,-2 h -3.4 c -0.5,0 -1,-0.4 -1,-1 0,-0.6 0.4,-1 1,-1 h 3.4 c 2.2,0 4,1.8 4,4 v 24.8 c 0,2.2 -1.8,4 -4,4 z"
   inkscape:connector-curvature="0" />
	</g>
	<g
   id="g3937">
		<path
   id="path3935"
   d="m 31.4,169.1 c -2.2,0 -4,-1.8 -4,-4 v -24.8 c 0,-2.2 1.8,-4 4,-4 h 60.3 c 0.5,0 1,0.4 1,1 0,0.6 -0.4,1 -1,1 H 31.4 c -1.1,0 -2,0.9 -2,2 v 24.8 c 0,1.1 0.9,2 2,2 0.5,0 1,0.4 1,1 0,0.6 -0.4,1 -1,1 z"
   inkscape:connector-curvature="0" />
	</g>
	<g
   id="g3941">
		<path
   id="path3939"
   d="m 101.5,169.1 h -4.8 c -0.5,0 -1,-0.4 -1,-1 0,-0.5 0.4,-1 1,-1 h 4.8 c 0.5,0 1,0.4 1,1 0,0.6 -0.4,1 -1,1 z"
   inkscape:connector-curvature="0" />
	</g>
	<g
   id="g3945">
		<path
   id="path3943"
   d="M 109.6,200 H 31.4 c -2.2,0 -4,-1.8 -4,-4 v -24.9 c 0,-2.2 1.8,-4 4,-4 h 60.3 c 0.5,0 1,0.4 1,1 0,0.5 -0.4,1 -1,1 H 31.4 c -1.1,0 -2,0.9 -2,2 V 196 c 0,1.1 0.9,2 2,2 h 78.2 c 1.1,0 2,-0.9 2,-2 v -24.9 c 0,-1.1 -0.9,-2 -2,-2 H 107 c -0.5,0 -1,-0.4 -1,-1 0,-0.5 0.4,-1 1,-1 h 2.6 c 2.2,0 4,1.8 4,4 V 196 c 0,2.2 -1.8,4 -4,4 z"
   inkscape:connector-curvature="0" />
	</g>
	<g
   id="g3949">
		<path
   id="path3947"
   d="M 99.4,162.6 H 68.3 c -1.6,0 -2.9,-1.3 -2.9,-2.9 v -14 c 0,-1.6 1.3,-2.9 2.9,-2.9 h 31.1 c 1.6,0 2.9,1.3 2.9,2.9 v 14 c 0,1.6 -1.3,2.9 -2.9,2.9 z M 68.3,144.8 c -0.5,0 -0.9,0.4 -0.9,0.9 v 14 c 0,0.5 0.4,0.9 0.9,0.9 h 31.1 c 0.5,0 0.9,-0.4 0.9,-0.9 v -14 c 0,-0.5 -0.4,-0.9 -0.9,-0.9 z"
   inkscape:connector-curvature="0" />
	</g>
	<g
   id="g3953">
		<path
   id="path3951"
   d="m 74.7,158.1 c -0.5,0 -1,-0.4 -1,-1 V 149 c 0,-0.5 0.4,-1 1,-1 0.5,0 1,0.4 1,1 v 8.1 c 0,0.5 -0.5,1 -1,1 z"
   inkscape:connector-curvature="0" />
	</g>
	<g
   id="g3957">
		<path
   id="path3955"
   d="m 81.1,158.1 c -0.5,0 -1,-0.4 -1,-1 V 149 c 0,-0.5 0.4,-1 1,-1 0.5,0 1,0.4 1,1 v 8.1 c 0,0.5 -0.5,1 -1,1 z"
   inkscape:connector-curvature="0" />
	</g>
	<g
   id="g3961">
		<path
   id="path3959"
   d="m 86.8,157.9 c -0.5,0 -1,-0.4 -1,-1 v -8.1 c 0,-0.5 0.4,-1 1,-1 0.5,0 1,0.4 1,1 v 8.1 c 0,0.6 -0.4,1 -1,1 z"
   inkscape:connector-curvature="0" />
	</g>
	<g
   id="g3965">
		<path
   id="path3963"
   d="m 93.2,157.9 c -0.5,0 -1,-0.4 -1,-1 v -8.1 c 0,-0.5 0.4,-1 1,-1 0.5,0 1,0.4 1,1 v 8.1 c 0,0.6 -0.5,1 -1,1 z"
   inkscape:connector-curvature="0" />
	</g>
	<g
   id="g3969">
		<path
   id="path3967"
   d="M 99.4,131.4 H 68.3 c -1.6,0 -2.9,-1.3 -2.9,-2.9 v -14 c 0,-1.6 1.3,-2.9 2.9,-2.9 h 31.1 c 1.6,0 2.9,1.3 2.9,2.9 v 14 c 0,1.6 -1.3,2.9 -2.9,2.9 z M 68.3,113.5 c -0.5,0 -0.9,0.4 -0.9,0.9 v 14 c 0,0.5 0.4,0.9 0.9,0.9 h 31.1 c 0.5,0 0.9,-0.4 0.9,-0.9 v -14 c 0,-0.5 -0.4,-0.9 -0.9,-0.9 z"
   inkscape:connector-curvature="0" />
	</g>
	<g
   id="g3973">
		<path
   id="path3971"
   d="m 81.1,126.9 c -0.5,0 -1,-0.4 -1,-1 v -8.1 c 0,-0.5 0.4,-1 1,-1 0.5,0 1,0.4 1,1 v 8.1 c 0,0.5 -0.5,1 -1,1 z"
   inkscape:connector-curvature="0" />
	</g>
	<g
   id="g3977">
		<path
   id="path3975"
   d="m 86.8,126.7 c -0.5,0 -1,-0.4 -1,-1 v -8.1 c 0,-0.5 0.4,-1 1,-1 0.5,0 1,0.4 1,1 v 8.1 c 0,0.5 -0.4,1 -1,1 z"
   inkscape:connector-curvature="0" />
	</g>
	<g
   id="g3981">
		<path
   id="path3979"
   d="m 93.2,126.7 c -0.5,0 -1,-0.4 -1,-1 v -8.1 c 0,-0.5 0.4,-1 1,-1 0.5,0 1,0.4 1,1 v 8.1 c 0,0.5 -0.5,1 -1,1 z"
   inkscape:connector-curvature="0" />
	</g>
	<g
   id="g3985">
		<path
   id="path3983"
   d="M 99.4,193.2 H 68.3 c -1.6,0 -2.9,-1.3 -2.9,-2.9 v -14 c 0,-1.6 1.3,-2.9 2.9,-2.9 h 31.1 c 1.6,0 2.9,1.3 2.9,2.9 v 14 c 0,1.7 -1.3,2.9 -2.9,2.9 z M 68.3,175.4 c -0.5,0 -0.9,0.4 -0.9,0.9 v 14 c 0,0.5 0.4,0.9 0.9,0.9 h 31.1 c 0.5,0 0.9,-0.4 0.9,-0.9 v -14 c 0,-0.5 -0.4,-0.9 -0.9,-0.9 z"
   inkscape:connector-curvature="0" />
	</g>
	<g
   id="g3989">
		<path
   id="path3987"
   d="m 86.8,188.5 c -0.5,0 -1,-0.4 -1,-1 v -8.1 c 0,-0.5 0.4,-1 1,-1 0.5,0 1,0.4 1,1 v 8.1 c 0,0.6 -0.4,1 -1,1 z"
   inkscape:connector-curvature="0" />
	</g>
	<g
   id="g3993">
		<path
   id="path3991"
   d="m 93.2,188.5 c -0.5,0 -1,-0.4 -1,-1 v -8.1 c 0,-0.5 0.4,-1 1,-1 0.5,0 1,0.4 1,1 v 8.1 c 0,0.6 -0.5,1 -1,1 z"
   inkscape:connector-curvature="0" />
	</g>
	<g
   id="g3997">
		<path
   id="path3995"
   d="m 44,129.3 c -4.2,0 -7.5,-3.4 -7.5,-7.5 0,-4.2 3.4,-7.5 7.5,-7.5 4.1,0 7.5,3.4 7.5,7.5 0,1.1 -0.2,2.2 -0.7,3.2 -0.2,0.5 -0.8,0.7 -1.3,0.5 -0.5,-0.2 -0.7,-0.8 -0.5,-1.3 0.3,-0.7 0.5,-1.5 0.5,-2.3 0,-3.1 -2.5,-5.6 -5.6,-5.6 -3.1,0 -5.6,2.5 -5.6,5.6 0,3.1 2.5,5.6 5.6,5.6 0.8,0 1.5,-0.1 2.2,-0.4 0.5,-0.2 1.1,0 1.3,0.5 0.2,0.5 0,1.1 -0.5,1.3 -0.9,0.2 -1.9,0.4 -2.9,0.4 z"
   inkscape:connector-curvature="0" />
	</g>
	<g
   id="g4001">
		<path
   id="path3999"
   d="m 44,160.4 c -4.2,0 -7.5,-3.4 -7.5,-7.5 0,-4.2 3.4,-7.5 7.5,-7.5 4.1,0 7.5,3.4 7.5,7.5 0,1.1 -0.2,2.2 -0.7,3.2 -0.2,0.5 -0.8,0.7 -1.3,0.5 -0.5,-0.2 -0.7,-0.8 -0.5,-1.3 0.3,-0.7 0.5,-1.5 0.5,-2.3 0,-3.1 -2.5,-5.6 -5.6,-5.6 -3.1,0 -5.6,2.5 -5.6,5.6 0,3.1 2.5,5.6 5.6,5.6 0.8,0 1.5,-0.1 2.2,-0.4 0.5,-0.2 1.1,0 1.3,0.5 0.2,0.5 0,1.1 -0.5,1.3 -0.9,0.2 -1.9,0.4 -2.9,0.4 z"
   inkscape:connector-curvature="0" />
	</g>
	<g
   id="g4005">
		<path
   id="path4003"
   d="m 44,190.8 c -4.2,0 -7.5,-3.4 -7.5,-7.5 0,-4.1 3.4,-7.5 7.5,-7.5 4.1,0 7.5,3.4 7.5,7.5 0,1.1 -0.2,2.2 -0.7,3.2 -0.2,0.5 -0.8,0.7 -1.3,0.5 -0.5,-0.2 -0.7,-0.8 -0.5,-1.3 0.3,-0.7 0.5,-1.5 0.5,-2.3 0,-3.1 -2.5,-5.6 -5.6,-5.6 -3.1,0 -5.6,2.5 -5.6,5.6 0,3.1 2.5,5.6 5.6,5.6 0.8,0 1.5,-0.1 2.2,-0.4 0.5,-0.2 1.1,0 1.3,0.5 0.2,0.5 0,1.1 -0.5,1.3 -0.9,0.2 -1.9,0.4 -2.9,0.4 z"
   inkscape:connector-curvature="0" />
	</g>
	<circle
   id="circle4007"
   r="6.5999999"
   cy="152.8"
   cx="202.89999"
   class="st4"
   style="fill:#a6d100" />
	<circle
   id="circle4009"
   r="6.5999999"
   cy="121.7"
   cx="202.89999"
   class="st0"
   style="fill:#5f7993" />
	<circle
   id="circle4011"
   r="6.5999999"
   cy="183.39999"
   cx="202.89999"
   class="st0"
   style="fill:#5f7993" />
	<path
   id="path4013"
   d="m 199.7,156.3 c 0,-3.6 2.9,-6.6 6.6,-6.6 1,0 1.9,0.2 2.8,0.6 -1,-2.4 -3.3,-4.2 -6.1,-4.2 -3.6,0 -6.6,2.9 -6.6,6.6 0,2.6 1.5,4.9 3.8,5.9 -0.3,-0.6 -0.5,-1.4 -0.5,-2.3 z"
   class="st5"
   inkscape:connector-curvature="0"
   style="fill:#89ab00" />
	<path
   id="path4015"
   d="m 199.7,125.3 c 0,-3.6 2.9,-6.6 6.6,-6.6 1,0 1.9,0.2 2.8,0.6 -1,-2.4 -3.3,-4.2 -6.1,-4.2 -3.6,0 -6.6,2.9 -6.6,6.6 0,2.6 1.5,4.9 3.8,5.9 -0.3,-0.7 -0.5,-1.5 -0.5,-2.3 z"
   class="st3"
   inkscape:connector-curvature="0"
   style="fill:#405162" />
	<path
   id="path4017"
   d="m 199.7,186.9 c 0,-3.6 2.9,-6.6 6.6,-6.6 1,0 1.9,0.2 2.8,0.6 -1,-2.4 -3.3,-4.2 -6.1,-4.2 -3.6,0 -6.6,2.9 -6.6,6.6 0,2.6 1.5,4.9 3.8,5.9 -0.3,-0.6 -0.5,-1.4 -0.5,-2.3 z"
   class="st3"
   inkscape:connector-curvature="0"
   style="fill:#405162" />
	<path
   id="path4019"
   d="m 258.3,161.6 h -31 c -1.1,0 -1.9,-0.9 -1.9,-1.9 v -14 c 0,-1.1 0.9,-1.9 1.9,-1.9 h 31 c 1.1,0 1.9,0.9 1.9,1.9 v 14 c 0.1,1.1 -0.8,1.9 -1.9,1.9 z"
   class="st1"
   inkscape:connector-curvature="0"
   style="fill:#17b5c8" />
	<path
   id="path4021"
   d="m 258.3,130.4 h -31 c -1.1,0 -1.9,-0.9 -1.9,-1.9 v -14 c 0,-1.1 0.9,-1.9 1.9,-1.9 h 31 c 1.1,0 1.9,0.9 1.9,1.9 v 14 c 0.1,1.1 -0.8,1.9 -1.9,1.9 z"
   class="st1"
   inkscape:connector-curvature="0"
   style="fill:#17b5c8" />
	<path
   id="path4023"
   d="m 258.3,192.3 h -31 c -1.1,0 -1.9,-0.9 -1.9,-1.9 v -14 c 0,-1.1 0.9,-1.9 1.9,-1.9 h 31 c 1.1,0 1.9,0.9 1.9,1.9 v 14 c 0.1,1 -0.8,1.9 -1.9,1.9 z"
   class="st1"
   inkscape:connector-curvature="0"
   style="fill:#17b5c8" />
	<path
   id="path4025"
   d="m 226,129.9 c 2.8,-7.9 9,-14.3 16.8,-17.3 h -15.5 c -1.1,0 -1.9,0.9 -1.9,1.9 v 14 c 0,0.5 0.2,1 0.6,1.4 z"
   class="st2"
   inkscape:connector-curvature="0"
   style="fill:#11828f" />
	<path
   id="path4027"
   d="m 239.2,143.8 h -11.9 c -1.1,0 -1.9,0.9 -1.9,1.9 v 14 c 0,0.3 0.1,0.6 0.2,0.9 2.2,-7.2 7.2,-13.2 13.6,-16.8 z"
   class="st2"
   inkscape:connector-curvature="0"
   style="fill:#11828f" />
	<path
   id="path4029"
   d="m 226.3,192 c 3.3,-8.4 10.3,-15 19.1,-17.5 h -18.1 c -1.1,0 -1.9,0.9 -1.9,1.9 v 14 c 0,0.6 0.3,1.2 0.9,1.6 z"
   class="st2"
   inkscape:connector-curvature="0"
   style="fill:#11828f" />
	<g
   id="g4033">
		<path
   id="path4031"
   d="m 268.6,138.2 c -0.5,0 -1,-0.4 -1,-1 0,-0.6 0.4,-1 1,-1 1.1,0 2,-0.9 2,-2 v -24.8 c 0,-1.1 -0.9,-2 -2,-2 h -78.2 c -1.1,0 -2,0.9 -2,2 v 24.8 c 0,1.1 0.9,2 2,2 0.5,0 1,0.4 1,1 0,0.6 -0.4,1 -1,1 -2.2,0 -4,-1.8 -4,-4 v -24.8 c 0,-2.2 1.8,-4 4,-4 h 78.2 c 2.2,0 4,1.8 4,4 v 24.8 c 0,2.2 -1.8,4 -4,4 z"
   inkscape:connector-curvature="0" />
	</g>
	<g
   id="g4037">
		<path
   id="path4035"
   d="m 260.3,138.2 h -4.5 c -0.5,0 -1,-0.4 -1,-1 0,-0.6 0.4,-1 1,-1 h 4.5 c 0.5,0 1,0.4 1,1 0,0.6 -0.4,1 -1,1 z"
   inkscape:connector-curvature="0" />
	</g>
	<g
   id="g4041">
		<path
   id="path4039"
   d="m 268.6,169.1 c -0.5,0 -1,-0.4 -1,-1 0,-0.5 0.4,-1 1,-1 1.1,0 2,-0.9 2,-2 v -24.8 c 0,-1.1 -0.9,-2 -2,-2 h -3.4 c -0.5,0 -1,-0.4 -1,-1 0,-0.6 0.4,-1 1,-1 h 3.4 c 2.2,0 4,1.8 4,4 v 24.8 c 0,2.2 -1.8,4 -4,4 z"
   inkscape:connector-curvature="0" />
	</g>
	<g
   id="g4045">
		<path
   id="path4043"
   d="m 190.4,169.1 c -2.2,0 -4,-1.8 -4,-4 v -24.8 c 0,-2.2 1.8,-4 4,-4 h 60.3 c 0.5,0 1,0.4 1,1 0,0.6 -0.4,1 -1,1 h -60.3 c -1.1,0 -2,0.9 -2,2 v 24.8 c 0,1.1 0.9,2 2,2 0.5,0 1,0.4 1,1 0,0.6 -0.4,1 -1,1 z"
   inkscape:connector-curvature="0" />
	</g>
	<g
   id="g4049">
		<path
   id="path4047"
   d="m 260.5,169.1 h -4.8 c -0.5,0 -1,-0.4 -1,-1 0,-0.5 0.4,-1 1,-1 h 4.8 c 0.5,0 1,0.4 1,1 0,0.6 -0.4,1 -1,1 z"
   inkscape:connector-curvature="0" />
	</g>
	<g
   id="g4053">
		<path
   id="path4051"
   d="m 268.6,200 h -78.2 c -2.2,0 -4,-1.8 -4,-4 v -24.9 c 0,-2.2 1.8,-4 4,-4 h 60.3 c 0.5,0 1,0.4 1,1 0,0.5 -0.4,1 -1,1 h -60.3 c -1.1,0 -2,0.9 -2,2 V 196 c 0,1.1 0.9,2 2,2 h 78.2 c 1.1,0 2,-0.9 2,-2 v -24.9 c 0,-1.1 -0.9,-2 -2,-2 H 266 c -0.5,0 -1,-0.4 -1,-1 0,-0.5 0.4,-1 1,-1 h 2.6 c 2.2,0 4,1.8 4,4 V 196 c 0,2.2 -1.8,4 -4,4 z"
   inkscape:connector-curvature="0" />
	</g>
	<g
   id="g4057">
		<path
   id="path4055"
   d="m 258.4,162.6 h -31.1 c -1.6,0 -2.9,-1.3 -2.9,-2.9 v -14 c 0,-1.6 1.3,-2.9 2.9,-2.9 h 31.1 c 1.6,0 2.9,1.3 2.9,2.9 v 14 c -0.1,1.6 -1.4,2.9 -2.9,2.9 z m -31.1,-17.8 c -0.5,0 -0.9,0.4 -0.9,0.9 v 14 c 0,0.5 0.4,0.9 0.9,0.9 h 31.1 c 0.5,0 0.9,-0.4 0.9,-0.9 v -14 c 0,-0.5 -0.4,-0.9 -0.9,-0.9 z"
   inkscape:connector-curvature="0" />
	</g>
	<g
   id="g4061">
		<path
   id="path4059"
   d="m 233.7,158.1 c -0.5,0 -1,-0.4 -1,-1 V 149 c 0,-0.5 0.4,-1 1,-1 0.5,0 1,0.4 1,1 v 8.1 c 0,0.5 -0.5,1 -1,1 z"
   inkscape:connector-curvature="0" />
	</g>
	<g
   id="g4065">
		<path
   id="path4063"
   d="m 240,158.1 c -0.5,0 -1,-0.4 -1,-1 V 149 c 0,-0.5 0.4,-1 1,-1 0.5,0 1,0.4 1,1 v 8.1 c 0,0.5 -0.4,1 -1,1 z"
   inkscape:connector-curvature="0" />
	</g>
	<g
   id="g4069">
		<path
   id="path4067"
   d="m 245.8,157.9 c -0.5,0 -1,-0.4 -1,-1 v -8.1 c 0,-0.5 0.4,-1 1,-1 0.5,0 1,0.4 1,1 v 8.1 c 0,0.6 -0.4,1 -1,1 z"
   inkscape:connector-curvature="0" />
	</g>
	<g
   id="g4073">
		<path
   id="path4071"
   d="m 252.2,157.9 c -0.5,0 -1,-0.4 -1,-1 v -8.1 c 0,-0.5 0.4,-1 1,-1 0.5,0 1,0.4 1,1 v 8.1 c 0,0.6 -0.5,1 -1,1 z"
   inkscape:connector-curvature="0" />
	</g>
	<g
   id="g4077">
		<path
   id="path4075"
   d="m 258.4,131.4 h -31.1 c -1.6,0 -2.9,-1.3 -2.9,-2.9 v -14 c 0,-1.6 1.3,-2.9 2.9,-2.9 h 31.1 c 1.6,0 2.9,1.3 2.9,2.9 v 14 c -0.1,1.6 -1.4,2.9 -2.9,2.9 z m -31.1,-17.9 c -0.5,0 -0.9,0.4 -0.9,0.9 v 14 c 0,0.5 0.4,0.9 0.9,0.9 h 31.1 c 0.5,0 0.9,-0.4 0.9,-0.9 v -14 c 0,-0.5 -0.4,-0.9 -0.9,-0.9 z"
   inkscape:connector-curvature="0" />
	</g>
	<g
   id="g4081">
		<path
   id="path4079"
   d="m 240,126.9 c -0.5,0 -1,-0.4 -1,-1 v -8.1 c 0,-0.5 0.4,-1 1,-1 0.5,0 1,0.4 1,1 v 8.1 c 0,0.5 -0.4,1 -1,1 z"
   inkscape:connector-curvature="0" />
	</g>
	<g
   id="g4085">
		<path
   id="path4083"
   d="m 245.8,126.7 c -0.5,0 -1,-0.4 -1,-1 v -8.1 c 0,-0.5 0.4,-1 1,-1 0.5,0 1,0.4 1,1 v 8.1 c 0,0.5 -0.4,1 -1,1 z"
   inkscape:connector-curvature="0" />
	</g>
	<g
   id="g4089">
		<path
   id="path4087"
   d="m 252.2,126.7 c -0.5,0 -1,-0.4 -1,-1 v -8.1 c 0,-0.5 0.4,-1 1,-1 0.5,0 1,0.4 1,1 v 8.1 c 0,0.5 -0.5,1 -1,1 z"
   inkscape:connector-curvature="0" />
	</g>
	<g
   id="g4093">
		<path
   id="path4091"
   d="m 258.4,193.2 h -31.1 c -1.6,0 -2.9,-1.3 -2.9,-2.9 v -14 c 0,-1.6 1.3,-2.9 2.9,-2.9 h 31.1 c 1.6,0 2.9,1.3 2.9,2.9 v 14 c -0.1,1.7 -1.4,2.9 -2.9,2.9 z m -31.1,-17.8 c -0.5,0 -0.9,0.4 -0.9,0.9 v 14 c 0,0.5 0.4,0.9 0.9,0.9 h 31.1 c 0.5,0 0.9,-0.4 0.9,-0.9 v -14 c 0,-0.5 -0.4,-0.9 -0.9,-0.9 z"
   inkscape:connector-curvature="0" />
	</g>
	<g
   id="g4097">
		<path
   id="path4095"
   d="m 245.8,188.5 c -0.5,0 -1,-0.4 -1,-1 v -8.1 c 0,-0.5 0.4,-1 1,-1 0.5,0 1,0.4 1,1 v 8.1 c 0,0.6 -0.4,1 -1,1 z"
   inkscape:connector-curvature="0" />
	</g>
	<g
   id="g4101">
		<path
   id="path4099"
   d="m 252.2,188.5 c -0.5,0 -1,-0.4 -1,-1 v -8.1 c 0,-0.5 0.4,-1 1,-1 0.5,0 1,0.4 1,1 v 8.1 c 0,0.6 -0.5,1 -1,1 z"
   inkscape:connector-curvature="0" />
	</g>
	<g
   id="g4105">
		<path
   id="path4103"
   d="m 202.9,129.3 c -4.2,0 -7.5,-3.4 -7.5,-7.5 0,-4.2 3.4,-7.5 7.5,-7.5 4.2,0 7.5,3.4 7.5,7.5 0,1.1 -0.2,2.2 -0.7,3.2 -0.2,0.5 -0.8,0.7 -1.3,0.5 -0.5,-0.2 -0.7,-0.8 -0.5,-1.3 0.3,-0.7 0.5,-1.5 0.5,-2.3 0,-3.1 -2.5,-5.6 -5.6,-5.6 -3.1,0 -5.6,2.5 -5.6,5.6 0,3.1 2.5,5.6 5.6,5.6 0.8,0 1.5,-0.1 2.2,-0.4 0.5,-0.2 1.1,0 1.3,0.5 0.2,0.5 0,1.1 -0.5,1.3 -0.9,0.2 -1.8,0.4 -2.9,0.4 z"
   inkscape:connector-curvature="0" />
	</g>
	<g
   id="g4109">
		<path
   id="path4107"
   d="m 202.9,160.4 c -4.2,0 -7.5,-3.4 -7.5,-7.5 0,-4.2 3.4,-7.5 7.5,-7.5 4.2,0 7.5,3.4 7.5,7.5 0,1.1 -0.2,2.2 -0.7,3.2 -0.2,0.5 -0.8,0.7 -1.3,0.5 -0.5,-0.2 -0.7,-0.8 -0.5,-1.3 0.3,-0.7 0.5,-1.5 0.5,-2.3 0,-3.1 -2.5,-5.6 -5.6,-5.6 -3.1,0 -5.6,2.5 -5.6,5.6 0,3.1 2.5,5.6 5.6,5.6 0.8,0 1.5,-0.1 2.2,-0.4 0.5,-0.2 1.1,0 1.3,0.5 0.2,0.5 0,1.1 -0.5,1.3 -0.9,0.2 -1.8,0.4 -2.9,0.4 z"
   inkscape:connector-curvature="0" />
	</g>
	<g
   id="g4113">
		<path
   id="path4111"
   d="m 202.9,190.8 c -4.2,0 -7.5,-3.4 -7.5,-7.5 0,-4.1 3.4,-7.5 7.5,-7.5 4.2,0 7.5,3.4 7.5,7.5 0,1.1 -0.2,2.2 -0.7,3.2 -0.2,0.5 -0.8,0.7 -1.3,0.5 -0.5,-0.2 -0.7,-0.8 -0.5,-1.3 0.3,-0.7 0.5,-1.5 0.5,-2.3 0,-3.1 -2.5,-5.6 -5.6,-5.6 -3.1,0 -5.6,2.5 -5.6,5.6 0,3.1 2.5,5.6 5.6,5.6 0.8,0 1.5,-0.1 2.2,-0.4 0.5,-0.2 1.1,0 1.3,0.5 0.2,0.5 0,1.1 -0.5,1.3 -0.9,0.2 -1.8,0.4 -2.9,0.4 z"
   inkscape:connector-curvature="0" />
	</g>
	<g
   id="g4117">
		<path
   id="path4115"
   d="m 103.8,36.6 c -1.3,0 -2.7,-0.4 -3.9,-1.1 C 98.1,34.3 96.8,32.4 96.5,30.3 96.2,28.2 96.8,26 98.2,24.4 111.6,8.9 131.5,0 152.6,0 c 21.1,0 41,8.9 54.4,24.3 1.4,1.6 2,3.8 1.7,5.9 -0.3,2.2 -1.6,4.1 -3.4,5.2 -3.1,2 -7.2,1.3 -9.7,-1.6 -10.5,-12.4 -26.2,-19.5 -43,-19.5 -16.8,0 -32.5,7.1 -43,19.5 -1.5,1.8 -3.7,2.8 -5.8,2.8 z M 152.6,2 c -20.6,0 -39.8,8.6 -52.9,23.6 -1,1.2 -1.5,2.8 -1.3,4.3 0.2,1.6 1.2,3 2.5,3.8 2.3,1.4 5.3,0.9 7.1,-1.2 10.9,-12.8 27.1,-20.2 44.5,-20.2 17.4,0 33.6,7.4 44.5,20.2 1.8,2.1 4.8,2.6 7.1,1.2 1.4,-0.8 2.3,-2.2 2.5,-3.8 0.2,-1.6 -0.2,-3.2 -1.3,-4.3 C 192.4,10.6 173.1,2 152.6,2 Z"
   inkscape:connector-curvature="0" />
	</g>
	<g
   id="g4121">
		<path
   id="path4119"
   d="m 179.7,50.1 c -2,0 -4,-0.9 -5.4,-2.5 -5.9,-6.8 -14.5,-10.7 -23.8,-10.7 -8.6,0 -16.9,3.5 -22.7,9.5 -2.2,2.3 -5.9,2.8 -8.7,1 -1.8,-1.1 -3,-3 -3.2,-5.1 -0.2,-2.1 0.5,-4.2 2,-5.8 8.6,-8.6 20.2,-13.4 32.6,-13.4 13.3,0 25.8,5.6 34.4,15.3 1.4,1.5 2,3.6 1.7,5.6 -0.3,2 -1.5,3.8 -3.2,4.9 -1.1,0.9 -2.4,1.2 -3.7,1.2 z M 150.6,35 c 9.8,0 19,4.2 25.3,11.4 1.7,1.9 4.4,2.4 6.5,1.1 1.3,-0.8 2.1,-2.1 2.3,-3.6 0.2,-1.5 -0.2,-2.9 -1.2,-4 -8.2,-9.3 -20.2,-14.6 -32.9,-14.6 -11.9,0 -23,4.5 -31.2,12.8 -1.1,1.1 -1.6,2.6 -1.4,4.1 0.2,1.5 1,2.9 2.3,3.7 2,1.2 4.6,0.9 6.2,-0.7 6.1,-6.5 14.9,-10.2 24.1,-10.2 z"
   inkscape:connector-curvature="0" />
	</g>
	<g
   id="g4125">
		<path
   id="path4123"
   d="m 144.6,62.1 c -1.3,0 -2.7,-0.4 -3.8,-1.1 -2.3,-1.4 -3.6,-3.9 -3.4,-6.7 0.2,-2.8 1.8,-5.1 4.3,-6.2 6.7,-3 15.1,-3 21.8,0 2.5,1.1 4.1,3.5 4.3,6.2 0.2,2.7 -1.1,5.2 -3.4,6.7 -1.7,1 -3.6,1.4 -5.6,0.9 -3.9,-0.9 -8.6,-0.9 -12.5,0 -0.5,0.1 -1.1,0.2 -1.7,0.2 z m 8,-14.4 c -3.5,0 -7,0.7 -10.1,2.1 -1.8,0.8 -3,2.5 -3.2,4.6 -0.1,2 0.8,3.8 2.5,4.9 1.2,0.8 2.7,1 4,0.7 4.2,-1 9.2,-1 13.4,0 1.4,0.3 2.8,0.1 4,-0.7 1.7,-1.1 2.6,-2.9 2.5,-4.9 -0.1,-2 -1.3,-3.7 -3.2,-4.6 -2.9,-1.3 -6.4,-2.1 -9.9,-2.1 z"
   inkscape:connector-curvature="0" />
	</g>
	<g
   id="g4129">
		<path
   id="path4127"
   d="m 151.3,87.8 c -4.2,0 -7.6,-3.4 -7.6,-7.6 0,-4.2 3.4,-7.6 7.6,-7.6 4.2,0 7.6,3.4 7.6,7.6 0,4.2 -3.4,7.6 -7.6,7.6 z m 0,-13.3 c -3.1,0 -5.7,2.5 -5.7,5.7 0,3.2 2.5,5.7 5.7,5.7 3.1,0 5.7,-2.5 5.7,-5.7 0,-3.2 -2.6,-5.7 -5.7,-5.7 z"
   inkscape:connector-curvature="0" />
	</g>
	<g
   id="g4133">
		<path
   id="path4131"
   d="m 151.3,152.1 c -0.5,0 -1,-0.4 -1,-1 V 86.8 c 0,-0.5 0.4,-1 1,-1 0.6,0 1,0.4 1,1 v 64.4 c 0,0.5 -0.5,0.9 -1,0.9 z"
   inkscape:connector-curvature="0" />
	</g>
	<g
   id="g4137">
		<path
   id="path4135"
   d="m 187.4,153.6 h -74.8 c -0.5,0 -1,-0.4 -1,-1 0,-0.5 0.4,-1 1,-1 h 74.8 c 0.5,0 1,0.4 1,1 -0.1,0.6 -0.5,1 -1,1 z"
   inkscape:connector-curvature="0" />
	</g>
</g></g>
<ellipse
   ry="81.211327"
   rx="80.683182"
   cy="95.124306"
   cx="150.22456"
   id="path3566"
   style="opacity:1;fill:none;fill-opacity:1;fill-rule:nonzero;stroke:#a6d100;stroke-width:21.48265839;stroke-linecap:round;stroke-linejoin:round;stroke-miterlimit:4;stroke-dasharray:none;stroke-dashoffset:0;stroke-opacity:1" /><path
   sodipodi:nodetypes="cssscsc"
   class="st2"
   d="m 157.66176,165.31345 c 3.19413,0.51559 6.3882,0.7734 9.58233,0.7734 37.5921,0 63.91818,-31.96667 63.91818,-71.4094 0,-39.442733 -26.3261,-71.409401 -63.91818,-71.409401 -3.19413,0 -6.3882,0.257807 -9.58233,0.773399 32.92384,4.898101 58.47664,34.544612 58.47664,70.636002 0,36.09139 -25.5528,65.7379 -58.47664,70.636 z"
   id="path2810"
   inkscape:connector-curvature="0"
   style="fill:#89ab00;stroke-width:2.51675224" /><path
   sodipodi:nodetypes="scssscs"
   class="st2"
   d="m 70.444296,94.67745 c 0,-47.677811 39.541894,-86.7980666 85.997204,-90.6693418 -2.64877,-0.2037514 -5.29754,-0.4075027 -7.9463,-0.4075027 -50.326583,0 -91.076849,40.7502655 -91.076849,91.0768445 0,50.32658 40.750266,91.07684 91.076849,91.07684 2.64876,0 5.29753,-0.20375 7.9463,-0.4075 -46.45531,-3.87127 -85.997204,-42.99153 -85.997204,-90.66934 z"
   id="path2812"
   inkscape:connector-curvature="0"
   style="fill:#89ab00;stroke-width:2.03751326" /><path
   style="fill:#5f7993;stroke-width:2.03751326"
   inkscape:connector-curvature="0"
   id="path2816"
   d="m 298.45617,243.00842 -0.61125,0.61125 c -7.9463,7.9463 -20.98639,7.9463 -28.93269,0 L 226.3282,201.03564 c -3.66752,-3.66752 -3.66752,-9.78006 0,-13.44758 l 16.09636,-16.09636 c 3.66752,-3.66752 9.78006,-3.66752 13.44759,0 l 42.58402,42.58403 c 7.94631,8.15005 7.94631,20.98639 0,28.93269 z"
   class="st0" /><path
   style="fill:#5f7993;stroke-width:2.03751326"
   inkscape:connector-curvature="0"
   id="path2818"
   d="m 298.45617,243.00842 -0.61125,0.61125 c -7.9463,7.9463 -20.98639,7.9463 -28.93269,0 L 226.3282,201.03564 c -3.66752,-3.66752 -3.66752,-9.78006 0,-13.44758 l 16.09636,-16.09636 c 3.66752,-3.66752 9.78006,-3.66752 13.44759,0 l 42.58402,42.58403 c 7.94631,8.15005 7.94631,20.98639 0,28.93269 z"
   class="st0" /><path
   style="fill:#405162;stroke-width:2.03751326"
   inkscape:connector-curvature="0"
   id="path2820"
   d="m 298.65993,214.27948 -14.2626,-14.26259 c 7.9463,7.9463 7.9463,20.78263 0,28.52518 l -1.01875,1.01876 c -7.94631,7.9463 -20.78264,7.9463 -28.52519,0 L 226.53196,201.2394 c 0,0 0,0 0,0 l 42.78777,42.78777 c 7.94631,7.94631 20.78264,7.94631 28.52519,0 l 1.01876,-1.01875 c 7.74255,-7.9463 7.74255,-20.78264 -0.20375,-28.72894 z"
   class="st3" /><g
   id="g2824"
   transform="matrix(2.0375133,0,0,2.0375133,-218.25719,-120.07645)"><path
     d="m 180.1,151.1 c -25.2,0 -45.7,-20.5 -45.7,-45.7 0,-25.2 20.5,-45.7 45.7,-45.7 25.2,0 45.7,20.5 45.7,45.7 0,25.2 -20.5,45.7 -45.7,45.7 z m 0,-89.4 c -24.1,0 -43.7,19.6 -43.7,43.7 0,24.1 19.6,43.7 43.7,43.7 24.1,0 43.7,-19.6 43.7,-43.7 0,-24.1 -19.6,-43.7 -43.7,-43.7 z"
     id="path2822"
     inkscape:connector-curvature="0" /></g><g
   id="g2828"
   transform="matrix(2.3880732,0,0,2.3880732,-278.58636,-159.77106)"><path
     d="m 199.1,86.3 c -0.2,0 -0.5,-0.1 -0.7,-0.3 -1,-1 -2.2,-1.9 -3.3,-2.7 -0.5,-0.3 -0.6,-0.9 -0.3,-1.4 0.3,-0.5 0.9,-0.6 1.4,-0.3 1.3,0.9 2.5,1.8 3.6,2.9 0.4,0.4 0.4,1 0,1.4 -0.2,0.3 -0.5,0.4 -0.7,0.4 z"
     id="path2826"
     inkscape:connector-curvature="0" /></g><g
   id="g2832"
   transform="matrix(2.3880732,0,0,2.3880732,-278.58636,-159.77106)"><path
     d="m 201.3,88.7 c -0.3,0 -0.6,-0.1 -0.8,-0.4 -0.7,-0.8 -1.4,-1.6 -2.2,-2.3 -0.4,-0.4 -0.4,-1 0,-1.4 0.4,-0.4 1,-0.4 1.4,0 0.8,0.8 1.6,1.6 2.3,2.5 0.4,0.4 0.3,1 -0.1,1.4 -0.1,0.1 -0.4,0.2 -0.6,0.2 z"
     id="path2830"
     inkscape:connector-curvature="0" /></g><g
   id="g2836"
   transform="matrix(2.4933311,0,0,2.4933311,-300.32718,-168.07406)"><path
     d="m 180.1,134 c -15.8,0 -28.7,-12.9 -28.7,-28.7 0,-15.8 12.9,-28.7 28.7,-28.7 3.7,0 7.3,0.7 10.8,2.1 0.5,0.2 0.8,0.8 0.5,1.3 -0.2,0.5 -0.8,0.7 -1.3,0.5 -3.2,-1.3 -6.6,-1.9 -10,-1.9 -14.7,0 -26.7,12 -26.7,26.7 0,14.7 12,26.7 26.7,26.7 14.7,0 26.7,-12 26.7,-26.7 0,-4.5 -1.1,-8.9 -3.3,-12.8 -0.3,-0.5 -0.1,-1.1 0.4,-1.3 0.5,-0.3 1.1,-0.1 1.3,0.4 2.3,4.2 3.5,9 3.5,13.8 0,15.8 -12.8,28.6 -28.6,28.6 z"
     id="path2834"
     inkscape:connector-curvature="0" /></g><g
   id="g2840"
   transform="matrix(2.0375133,0,0,2.0375133,-218.25719,-120.07645)"><path
     d="m 246.2,182.5 c -2.8,0 -5.6,-1.1 -7.7,-3.2 l -21,-21 c -2.2,-2.2 -2.2,-5.7 0,-7.9 l 8,-8 c 2.2,-2.2 5.7,-2.2 7.9,0 l 21,21 c 4.3,4.3 4.3,11.2 0,15.4 l -0.5,0.5 c -2.1,2.1 -4.9,3.2 -7.7,3.2 z m -16.7,-39.7 c -0.9,0 -1.8,0.4 -2.6,1.1 l -8,8 c -1.4,1.4 -1.4,3.7 0,5.1 l 21,21 c 3.5,3.5 9.1,3.5 12.6,0 l 0.5,-0.5 c 3.5,-3.5 3.5,-9.1 0,-12.6 l -21,-21 c -0.7,-0.7 -1.6,-1.1 -2.5,-1.1 z"
     id="path2838"
     inkscape:connector-curvature="0" /></g><g
   id="g2844"
   transform="matrix(2.0375133,0,0,2.0375133,-218.25719,-120.07645)"><path
     d="m 219.2,151.2 c -0.3,0 -0.5,-0.1 -0.7,-0.3 L 208,140.5 c -0.2,-0.2 -0.3,-0.5 -0.3,-0.7 0,-0.3 0.1,-0.5 0.4,-0.7 2.5,-2.1 4.8,-4.4 6.7,-7 0.2,-0.2 0.4,-0.4 0.7,-0.4 0.3,0 0.6,0.1 0.8,0.3 l 10.6,10.6 c 0.4,0.4 0.4,1 0,1.4 l -7,7 c -0.2,0.1 -0.5,0.2 -0.7,0.2 z m -9.1,-11.4 9,9 5.6,-5.6 -9.1,-9.1 c -1.6,2 -3.5,4 -5.5,5.7 z"
     id="path2842"
     inkscape:connector-curvature="0" /></g></svg>