<?xml version="1.0" encoding="UTF-8" standalone="no"?>
<!-- Generator: Adobe Illustrator 24.3.0, SVG Export Plug-In . SVG Version: 6.00 Build 0)  -->

<svg
   xmlns:dc="http://purl.org/dc/elements/1.1/"
   xmlns:cc="http://creativecommons.org/ns#"
   xmlns:rdf="http://www.w3.org/1999/02/22-rdf-syntax-ns#"
   xmlns:svg="http://www.w3.org/2000/svg"
   xmlns="http://www.w3.org/2000/svg"
   xmlns:sodipodi="http://sodipodi.sourceforge.net/DTD/sodipodi-0.dtd"
   xmlns:inkscape="http://www.inkscape.org/namespaces/inkscape"
   version="1.1"
   id="Capa_1"
   x="0px"
   y="0px"
   viewBox="0 0 300 200"
   style="enable-background:new 0 0 300 200;"
   xml:space="preserve"
   sodipodi:docname="networks.svg"
   inkscape:version="0.92.5 (2060ec1f9f, 2020-04-08)"><metadata
   id="metadata4146"><rdf:RDF><cc:Work
       rdf:about=""><dc:format>image/svg+xml</dc:format><dc:type
         rdf:resource="http://purl.org/dc/dcmitype/StillImage" /><dc:title></dc:title></cc:Work></rdf:RDF></metadata><defs
   id="defs4144" /><sodipodi:namedview
   pagecolor="#ffffff"
   bordercolor="#666666"
   borderopacity="1"
   objecttolerance="10"
   gridtolerance="10"
   guidetolerance="10"
   inkscape:pageopacity="0"
   inkscape:pageshadow="2"
   inkscape:window-width="1920"
   inkscape:window-height="1016"
   id="namedview4142"
   showgrid="false"
   inkscape:pagecheckerboard="true"
   inkscape:zoom="4.44"
   inkscape:cx="145.04505"
   inkscape:cy="65.990991"
   inkscape:window-x="0"
   inkscape:window-y="27"
   inkscape:window-maximized="1"
   inkscape:current-layer="Capa_1" />
<style
   type="text/css"
   id="style3871">
	.st0{fill:#5F7993;}
	.st1{fill:#17B5C8;}
	.st2{fill:#11828F;}
	.st3{fill:#405162;}
	.st4{fill:#A6D100;}
	.st5{fill:#89AB00;}
	.st6{fill:#FFFFFF;}
	.st7{fill:none;stroke:#17B5C8;stroke-width:2;stroke-miterlimit:10;}
</style>
<rect
   style="opacity:1;fill:#ffffff;fill-opacity:1;fill-rule:nonzero;stroke:none;stroke-width:2.26771665;stroke-linecap:round;stroke-linejoin:round;stroke-miterlimit:4;stroke-dasharray:none;stroke-dashoffset:0;stroke-opacity:1"
   id="rect4693-2"
   width="84.234238"
   height="30.855862"
   x="187.38739"
   y="168.35587"
   ry="3.4909904" /><rect
   style="opacity:1;fill:#ffffff;fill-opacity:1;fill-rule:nonzero;stroke:none;stroke-width:2.26771665;stroke-linecap:round;stroke-linejoin:round;stroke-miterlimit:4;stroke-dasharray:none;stroke-dashoffset:0;stroke-opacity:1"
   id="rect4693-56"
   width="84.234238"
   height="30.855862"
   x="187.38739"
   y="137.27478"
   ry="3.4909904" /><rect
   style="opacity:1;fill:#ffffff;fill-opacity:1;fill-rule:nonzero;stroke:none;stroke-width:2.26771665;stroke-linecap:round;stroke-linejoin:round;stroke-miterlimit:4;stroke-dasharray:none;stroke-dashoffset:0;stroke-opacity:1"
   id="rect4693-3"
   width="84.234238"
   height="30.855862"
   x="187.61261"
   y="106.1937"
   ry="3.4909904" /><rect
   style="opacity:1;fill:#ffffff;fill-opacity:1;fill-rule:nonzero;stroke:none;stroke-width:2.26771665;stroke-linecap:round;stroke-linejoin:round;stroke-miterlimit:4;stroke-dasharray:none;stroke-dashoffset:0;stroke-opacity:1"
   id="rect4693-5"
   width="84.234238"
   height="30.855862"
   x="27.927923"
   y="168.46846"
   ry="3.4909904" /><rect
   style="opacity:1;fill:#ffffff;fill-opacity:1;fill-rule:nonzero;stroke:none;stroke-width:2.26771665;stroke-linecap:round;stroke-linejoin:round;stroke-miterlimit:4;stroke-dasharray:none;stroke-dashoffset:0;stroke-opacity:1"
   id="rect4693-7"
   width="84.234238"
   height="30.855862"
   x="28.153152"
   y="137.38737"
   ry="3.4909904" /><rect
   style="opacity:1;fill:#ffffff;fill-opacity:1;fill-rule:nonzero;stroke:none;stroke-width:2.26771665;stroke-linecap:round;stroke-linejoin:round;stroke-miterlimit:4;stroke-dasharray:none;stroke-dashoffset:0;stroke-opacity:1"
   id="rect4693"
   width="84.234238"
   height="30.855862"
   x="28.153152"
   y="106.08108"
   ry="3.4909904" /><ellipse
   style="opacity:1;fill:#ffffff;fill-opacity:1;fill-rule:nonzero;stroke:none;stroke-width:2.26771665;stroke-linecap:round;stroke-linejoin:round;stroke-miterlimit:4;stroke-dasharray:none;stroke-dashoffset:0;stroke-opacity:1"
   id="path4691"
   cx="151.35133"
   cy="80.292793"
   rx="6.5315313"
   ry="6.4189191" /><g
   id="g4139">
	<circle
   class="st4"
   cx="44"
   cy="152.8"
   r="6.6"
   id="circle3873" />
	<circle
   class="st0"
   cx="44"
   cy="121.7"
   r="6.6"
   id="circle3875" />
	<circle
   class="st0"
   cx="44"
   cy="183.4"
   r="6.6"
   id="circle3877" />
	<path
   class="st5"
   d="M40.7,156.3c0-3.6,2.9-6.6,6.6-6.6c1,0,1.9,0.2,2.8,0.6c-1-2.4-3.3-4.2-6.1-4.2c-3.6,0-6.6,2.9-6.6,6.6   c0,2.6,1.5,4.9,3.8,5.9C40.9,158,40.7,157.2,40.7,156.3z"
   id="path3879" />
	<path
   class="st3"
   d="M40.7,125.3c0-3.6,2.9-6.6,6.6-6.6c1,0,1.9,0.2,2.8,0.6c-1-2.4-3.3-4.2-6.1-4.2c-3.6,0-6.6,2.9-6.6,6.6   c0,2.6,1.5,4.9,3.8,5.9C40.9,126.9,40.7,126.1,40.7,125.3z"
   id="path3881" />
	<path
   class="st3"
   d="M40.7,186.9c0-3.6,2.9-6.6,6.6-6.6c1,0,1.9,0.2,2.8,0.6c-1-2.4-3.3-4.2-6.1-4.2c-3.6,0-6.6,2.9-6.6,6.6   c0,2.6,1.5,4.9,3.8,5.9C40.9,188.6,40.7,187.8,40.7,186.9z"
   id="path3883" />
	<path
   class="st1"
   d="M99.4,161.6h-31c-1.1,0-1.9-0.9-1.9-1.9v-14c0-1.1,0.9-1.9,1.9-1.9h31c1.1,0,1.9,0.9,1.9,1.9v14   C101.3,160.8,100.4,161.6,99.4,161.6z"
   id="path3885" />
	<path
   class="st1"
   d="M99.4,130.4h-31c-1.1,0-1.9-0.9-1.9-1.9v-14c0-1.1,0.9-1.9,1.9-1.9h31c1.1,0,1.9,0.9,1.9,1.9v14   C101.3,129.6,100.4,130.4,99.4,130.4z"
   id="path3887" />
	<path
   class="st1"
   d="M99.4,192.3h-31c-1.1,0-1.9-0.9-1.9-1.9v-14c0-1.1,0.9-1.9,1.9-1.9h31c1.1,0,1.9,0.9,1.9,1.9v14   C101.3,191.4,100.4,192.3,99.4,192.3z"
   id="path3889" />
	<path
   class="st2"
   d="M67.1,129.9c2.8-7.9,9-14.3,16.8-17.3H68.4c-1.1,0-1.9,0.9-1.9,1.9v14C66.4,129,66.7,129.5,67.1,129.9z"
   id="path3891" />
	<path
   class="st2"
   d="M80.2,143.8H68.4c-1.1,0-1.9,0.9-1.9,1.9v14c0,0.3,0.1,0.6,0.2,0.9C68.9,153.4,73.8,147.4,80.2,143.8z"
   id="path3893" />
	<path
   class="st2"
   d="M67.3,192c3.3-8.4,10.3-15,19.1-17.5H68.4c-1.1,0-1.9,0.9-1.9,1.9v14C66.4,191,66.8,191.6,67.3,192z"
   id="path3895" />
	<path
   class="st0"
   d="M152.6,13.4c17.7,0,33.5,7.7,43.8,19.8c2.1,2.5,5.6,3.1,8.4,1.4l0,0c3.3-2.1,4.1-6.7,1.5-9.7   c-12.7-14.6-32-24-53.6-24c-21.6,0-40.9,9.3-53.6,24c-2.6,3-1.9,7.6,1.5,9.7l0,0c2.7,1.7,6.3,1.1,8.4-1.4   C119.1,21.2,134.9,13.4,152.6,13.4z"
   id="path3897" />
	<path
   class="st0"
   d="M152.6,13.4c17.7,0,33.5,7.7,43.8,19.8c2.1,2.5,5.6,3.1,8.4,1.4l0,0c3.3-2.1,4.1-6.7,1.5-9.7   c-12.7-14.6-32-24-53.6-24c-21.6,0-40.9,9.3-53.6,24c-2.6,3-1.9,7.6,1.5,9.7l0,0c2.7,1.7,6.3,1.1,8.4-1.4   C119.1,21.2,134.9,13.4,152.6,13.4z"
   id="path3899" />
	<path
   class="st1"
   d="M150.6,36c9.9,0,18.7,4.3,24.5,11c2,2.3,5.2,2.8,7.8,1.2l0,0c3.1-2,3.8-6.3,1.3-9.1   c-8.1-9.1-20.2-14.9-33.7-14.9c-12.6,0-23.9,5-31.9,13.1c-2.7,2.7-2.2,7.3,1,9.3l0,0c2.4,1.5,5.5,1.2,7.4-0.9   C133,39.8,141.3,36,150.6,36z"
   id="path3901" />
	<path
   class="st1"
   d="M150.6,36c9.9,0,18.7,4.3,24.5,11c2,2.3,5.2,2.8,7.8,1.2l0,0c3.1-2,3.8-6.3,1.3-9.1   c-8.1-9.1-20.2-14.9-33.7-14.9c-12.6,0-23.9,5-31.9,13.1c-2.7,2.7-2.2,7.3,1,9.3l0,0c2.4,1.5,5.5,1.2,7.4-0.9   C133,39.8,141.3,36,150.6,36z"
   id="path3903" />
	<path
   class="st4"
   d="M152.6,60.2c2.3,0,4.5,0.3,6.5,0.7c1.6,0.4,3.4,0.1,4.8-0.8v0c4.3-2.7,3.8-9.1-0.8-11.2   c-3.1-1.4-6.7-2.2-10.5-2.2c-3.8,0-7.4,0.8-10.5,2.2c-4.6,2.1-5.1,8.5-0.8,11.2v0c1.4,0.9,3.2,1.2,4.8,0.8   C148,60.5,150.2,60.2,152.6,60.2z"
   id="path3905" />
	<path
   class="st4"
   d="M152.6,60.2c2.3,0,4.5,0.3,6.5,0.7c1.6,0.4,3.4,0.1,4.8-0.8v0c4.3-2.7,3.8-9.1-0.8-11.2   c-3.1-1.4-6.7-2.2-10.5-2.2c-3.8,0-7.4,0.8-10.5,2.2c-4.6,2.1-5.1,8.5-0.8,11.2v0c1.4,0.9,3.2,1.2,4.8,0.8   C148,60.5,150.2,60.2,152.6,60.2z"
   id="path3907" />
	<g
   id="g3913">
		<path
   class="st3"
   d="M174.9,17.8c8.4,3.5,15.8,8.8,21.4,15.4c1.9,2.2,4.9,2.9,7.5,1.8C196.4,26.8,186.4,20.6,174.9,17.8z"
   id="path3909" />
		<path
   class="st3"
   d="M107.2,27.6c12.7-14.6,32-24,53.6-24c6.4,0,12.6,0.8,18.5,2.4c-8.2-3.2-17.3-5-26.7-5    c-21.6,0-40.9,9.3-53.6,24c-2.6,3-1.9,7.6,1.5,9.7l0,0c1.9,1.2,4.1,1.2,6,0.4C105.2,32.7,105.3,29.7,107.2,27.6z"
   id="path3911" />
	</g>
	<g
   id="g3919">
		<path
   class="st2"
   d="M126.9,40c8-8,19.3-13.1,31.9-13.1c3.4,0,6.7,0.4,9.9,1.1c-5.5-2.4-11.7-3.7-18.1-3.7    c-12.6,0-23.9,5-31.9,13.1c-2.7,2.7-2.2,7.3,1,9.3c1.9,1.2,4.1,1.2,6,0.2C124.7,44.7,125,41.9,126.9,40z"
   id="path3915" />
		<path
   class="st2"
   d="M164.8,39.2c4,1.9,7.5,4.6,10.3,7.8c1.8,2.1,4.7,2.7,7.2,1.5C177.8,43.8,171.7,40.4,164.8,39.2z"
   id="path3917" />
	</g>
	<path
   class="st5"
   d="M150.3,51.6c3.1-1.4,6.7-2.2,10.5-2.2c1.2,0,2.3,0.1,3.4,0.2c-0.3-0.2-0.7-0.5-1.1-0.7   c-3.1-1.4-6.7-2.2-10.5-2.2c-3.8,0-7.4,0.8-10.5,2.2c-4.6,2.1-5.1,8.5-0.8,11.2c1.4,0.9,3.2,1.2,4.8,0.8c0.4-0.1,0.9-0.2,1.3-0.3   C145.6,57.6,146.7,53.3,150.3,51.6z"
   id="path3921" />
	<g
   id="g3925">
		<path
   d="M109.6,138.2c-0.5,0-1-0.4-1-1s0.4-1,1-1c1.1,0,2-0.9,2-2v-24.8c0-1.1-0.9-2-2-2H31.4c-1.1,0-2,0.9-2,2v24.8    c0,1.1,0.9,2,2,2c0.5,0,1,0.4,1,1s-0.4,1-1,1c-2.2,0-4-1.8-4-4v-24.8c0-2.2,1.8-4,4-4h78.2c2.2,0,4,1.8,4,4v24.8    C113.6,136.4,111.8,138.2,109.6,138.2z"
   id="path3923" />
	</g>
	<g
   id="g3929">
		<path
   d="M101.4,138.2h-4.5c-0.5,0-1-0.4-1-1s0.4-1,1-1h4.5c0.5,0,1,0.4,1,1S101.9,138.2,101.4,138.2z"
   id="path3927" />
	</g>
	<g
   id="g3933">
		<path
   d="M109.6,169.1c-0.5,0-1-0.4-1-1c0-0.5,0.4-1,1-1c1.1,0,2-0.9,2-2v-24.8c0-1.1-0.9-2-2-2h-3.4c-0.5,0-1-0.4-1-1s0.4-1,1-1    h3.4c2.2,0,4,1.8,4,4v24.8C113.6,167.3,111.8,169.1,109.6,169.1z"
   id="path3931" />
	</g>
	<g
   id="g3937">
		<path
   d="M31.4,169.1c-2.2,0-4-1.8-4-4v-24.8c0-2.2,1.8-4,4-4h60.3c0.5,0,1,0.4,1,1s-0.4,1-1,1H31.4c-1.1,0-2,0.9-2,2v24.8    c0,1.1,0.9,2,2,2c0.5,0,1,0.4,1,1C32.4,168.7,32,169.1,31.4,169.1z"
   id="path3935" />
	</g>
	<g
   id="g3941">
		<path
   d="M101.5,169.1h-4.8c-0.5,0-1-0.4-1-1c0-0.5,0.4-1,1-1h4.8c0.5,0,1,0.4,1,1C102.5,168.7,102.1,169.1,101.5,169.1z"
   id="path3939" />
	</g>
	<g
   id="g3945">
		<path
   d="M109.6,200H31.4c-2.2,0-4-1.8-4-4v-24.9c0-2.2,1.8-4,4-4h60.3c0.5,0,1,0.4,1,1c0,0.5-0.4,1-1,1H31.4c-1.1,0-2,0.9-2,2V196    c0,1.1,0.9,2,2,2h78.2c1.1,0,2-0.9,2-2v-24.9c0-1.1-0.9-2-2-2H107c-0.5,0-1-0.4-1-1c0-0.5,0.4-1,1-1h2.6c2.2,0,4,1.8,4,4V196    C113.6,198.2,111.8,200,109.6,200z"
   id="path3943" />
	</g>
	<g
   id="g3949">
		<path
   d="M99.4,162.6H68.3c-1.6,0-2.9-1.3-2.9-2.9v-14c0-1.6,1.3-2.9,2.9-2.9h31.1c1.6,0,2.9,1.3,2.9,2.9v14    C102.3,161.3,101,162.6,99.4,162.6z M68.3,144.8c-0.5,0-0.9,0.4-0.9,0.9v14c0,0.5,0.4,0.9,0.9,0.9h31.1c0.5,0,0.9-0.4,0.9-0.9v-14    c0-0.5-0.4-0.9-0.9-0.9H68.3z"
   id="path3947" />
	</g>
	<g
   id="g3953">
		<path
   d="M74.7,158.1c-0.5,0-1-0.4-1-1V149c0-0.5,0.4-1,1-1c0.5,0,1,0.4,1,1v8.1C75.7,157.6,75.2,158.1,74.7,158.1z"
   id="path3951" />
	</g>
	<g
   id="g3957">
		<path
   d="M81.1,158.1c-0.5,0-1-0.4-1-1V149c0-0.5,0.4-1,1-1c0.5,0,1,0.4,1,1v8.1C82.1,157.6,81.6,158.1,81.1,158.1z"
   id="path3955" />
	</g>
	<g
   id="g3961">
		<path
   d="M86.8,157.9c-0.5,0-1-0.4-1-1v-8.1c0-0.5,0.4-1,1-1c0.5,0,1,0.4,1,1v8.1C87.8,157.5,87.4,157.9,86.8,157.9z"
   id="path3959" />
	</g>
	<g
   id="g3965">
		<path
   d="M93.2,157.9c-0.5,0-1-0.4-1-1v-8.1c0-0.5,0.4-1,1-1c0.5,0,1,0.4,1,1v8.1C94.2,157.5,93.7,157.9,93.2,157.9z"
   id="path3963" />
	</g>
	<g
   id="g3969">
		<path
   d="M99.4,131.4H68.3c-1.6,0-2.9-1.3-2.9-2.9v-14c0-1.6,1.3-2.9,2.9-2.9h31.1c1.6,0,2.9,1.3,2.9,2.9v14    C102.3,130.1,101,131.4,99.4,131.4z M68.3,113.5c-0.5,0-0.9,0.4-0.9,0.9v14c0,0.5,0.4,0.9,0.9,0.9h31.1c0.5,0,0.9-0.4,0.9-0.9v-14    c0-0.5-0.4-0.9-0.9-0.9H68.3z"
   id="path3967" />
	</g>
	<g
   id="g3973">
		<path
   d="M81.1,126.9c-0.5,0-1-0.4-1-1v-8.1c0-0.5,0.4-1,1-1c0.5,0,1,0.4,1,1v8.1C82.1,126.4,81.6,126.9,81.1,126.9z"
   id="path3971" />
	</g>
	<g
   id="g3977">
		<path
   d="M86.8,126.7c-0.5,0-1-0.4-1-1v-8.1c0-0.5,0.4-1,1-1c0.5,0,1,0.4,1,1v8.1C87.8,126.2,87.4,126.7,86.8,126.7z"
   id="path3975" />
	</g>
	<g
   id="g3981">
		<path
   d="M93.2,126.7c-0.5,0-1-0.4-1-1v-8.1c0-0.5,0.4-1,1-1c0.5,0,1,0.4,1,1v8.1C94.2,126.2,93.7,126.7,93.2,126.7z"
   id="path3979" />
	</g>
	<g
   id="g3985">
		<path
   d="M99.4,193.2H68.3c-1.6,0-2.9-1.3-2.9-2.9v-14c0-1.6,1.3-2.9,2.9-2.9h31.1c1.6,0,2.9,1.3,2.9,2.9v14    C102.3,192,101,193.2,99.4,193.2z M68.3,175.4c-0.5,0-0.9,0.4-0.9,0.9v14c0,0.5,0.4,0.9,0.9,0.9h31.1c0.5,0,0.9-0.4,0.9-0.9v-14    c0-0.5-0.4-0.9-0.9-0.9H68.3z"
   id="path3983" />
	</g>
	<g
   id="g3989">
		<path
   d="M86.8,188.5c-0.5,0-1-0.4-1-1v-8.1c0-0.5,0.4-1,1-1c0.5,0,1,0.4,1,1v8.1C87.8,188.1,87.4,188.5,86.8,188.5z"
   id="path3987" />
	</g>
	<g
   id="g3993">
		<path
   d="M93.2,188.5c-0.5,0-1-0.4-1-1v-8.1c0-0.5,0.4-1,1-1c0.5,0,1,0.4,1,1v8.1C94.2,188.1,93.7,188.5,93.2,188.5z"
   id="path3991" />
	</g>
	<g
   id="g3997">
		<path
   d="M44,129.3c-4.2,0-7.5-3.4-7.5-7.5c0-4.2,3.4-7.5,7.5-7.5s7.5,3.4,7.5,7.5c0,1.1-0.2,2.2-0.7,3.2c-0.2,0.5-0.8,0.7-1.3,0.5    c-0.5-0.2-0.7-0.8-0.5-1.3c0.3-0.7,0.5-1.5,0.5-2.3c0-3.1-2.5-5.6-5.6-5.6s-5.6,2.5-5.6,5.6s2.5,5.6,5.6,5.6    c0.8,0,1.5-0.1,2.2-0.4c0.5-0.2,1.1,0,1.3,0.5c0.2,0.5,0,1.1-0.5,1.3C46,129.1,45,129.3,44,129.3z"
   id="path3995" />
	</g>
	<g
   id="g4001">
		<path
   d="M44,160.4c-4.2,0-7.5-3.4-7.5-7.5c0-4.2,3.4-7.5,7.5-7.5s7.5,3.4,7.5,7.5c0,1.1-0.2,2.2-0.7,3.2c-0.2,0.5-0.8,0.7-1.3,0.5    c-0.5-0.2-0.7-0.8-0.5-1.3c0.3-0.7,0.5-1.5,0.5-2.3c0-3.1-2.5-5.6-5.6-5.6s-5.6,2.5-5.6,5.6c0,3.1,2.5,5.6,5.6,5.6    c0.8,0,1.5-0.1,2.2-0.4c0.5-0.2,1.1,0,1.3,0.5c0.2,0.5,0,1.1-0.5,1.3C46,160.2,45,160.4,44,160.4z"
   id="path3999" />
	</g>
	<g
   id="g4005">
		<path
   d="M44,190.8c-4.2,0-7.5-3.4-7.5-7.5s3.4-7.5,7.5-7.5s7.5,3.4,7.5,7.5c0,1.1-0.2,2.2-0.7,3.2c-0.2,0.5-0.8,0.7-1.3,0.5    c-0.5-0.2-0.7-0.8-0.5-1.3c0.3-0.7,0.5-1.5,0.5-2.3c0-3.1-2.5-5.6-5.6-5.6s-5.6,2.5-5.6,5.6s2.5,5.6,5.6,5.6    c0.8,0,1.5-0.1,2.2-0.4c0.5-0.2,1.1,0,1.3,0.5c0.2,0.5,0,1.1-0.5,1.3C46,190.6,45,190.8,44,190.8z"
   id="path4003" />
	</g>
	<circle
   class="st4"
   cx="202.9"
   cy="152.8"
   r="6.6"
   id="circle4007" />
	<circle
   class="st0"
   cx="202.9"
   cy="121.7"
   r="6.6"
   id="circle4009" />
	<circle
   class="st0"
   cx="202.9"
   cy="183.4"
   r="6.6"
   id="circle4011" />
	<path
   class="st5"
   d="M199.7,156.3c0-3.6,2.9-6.6,6.6-6.6c1,0,1.9,0.2,2.8,0.6c-1-2.4-3.3-4.2-6.1-4.2c-3.6,0-6.6,2.9-6.6,6.6   c0,2.6,1.5,4.9,3.8,5.9C199.9,158,199.7,157.2,199.7,156.3z"
   id="path4013" />
	<path
   class="st3"
   d="M199.7,125.3c0-3.6,2.9-6.6,6.6-6.6c1,0,1.9,0.2,2.8,0.6c-1-2.4-3.3-4.2-6.1-4.2c-3.6,0-6.6,2.9-6.6,6.6   c0,2.6,1.5,4.9,3.8,5.9C199.9,126.9,199.7,126.1,199.7,125.3z"
   id="path4015" />
	<path
   class="st3"
   d="M199.7,186.9c0-3.6,2.9-6.6,6.6-6.6c1,0,1.9,0.2,2.8,0.6c-1-2.4-3.3-4.2-6.1-4.2c-3.6,0-6.6,2.9-6.6,6.6   c0,2.6,1.5,4.9,3.8,5.9C199.9,188.6,199.7,187.8,199.7,186.9z"
   id="path4017" />
	<path
   class="st1"
   d="M258.3,161.6h-31c-1.1,0-1.9-0.9-1.9-1.9v-14c0-1.1,0.9-1.9,1.9-1.9h31c1.1,0,1.9,0.9,1.9,1.9v14   C260.3,160.8,259.4,161.6,258.3,161.6z"
   id="path4019" />
	<path
   class="st1"
   d="M258.3,130.4h-31c-1.1,0-1.9-0.9-1.9-1.9v-14c0-1.1,0.9-1.9,1.9-1.9h31c1.1,0,1.9,0.9,1.9,1.9v14   C260.3,129.6,259.4,130.4,258.3,130.4z"
   id="path4021" />
	<path
   class="st1"
   d="M258.3,192.3h-31c-1.1,0-1.9-0.9-1.9-1.9v-14c0-1.1,0.9-1.9,1.9-1.9h31c1.1,0,1.9,0.9,1.9,1.9v14   C260.3,191.4,259.4,192.3,258.3,192.3z"
   id="path4023" />
	<path
   class="st2"
   d="M226,129.9c2.8-7.9,9-14.3,16.8-17.3h-15.5c-1.1,0-1.9,0.9-1.9,1.9v14C225.4,129,225.6,129.5,226,129.9z"
   id="path4025" />
	<path
   class="st2"
   d="M239.2,143.8h-11.9c-1.1,0-1.9,0.9-1.9,1.9v14c0,0.3,0.1,0.6,0.2,0.9C227.8,153.4,232.8,147.4,239.2,143.8z"
   id="path4027" />
	<path
   class="st2"
   d="M226.3,192c3.3-8.4,10.3-15,19.1-17.5h-18.1c-1.1,0-1.9,0.9-1.9,1.9v14C225.4,191,225.7,191.6,226.3,192z"
   id="path4029" />
	<g
   id="g4033">
		<path
   d="M268.6,138.2c-0.5,0-1-0.4-1-1s0.4-1,1-1c1.1,0,2-0.9,2-2v-24.8c0-1.1-0.9-2-2-2h-78.2c-1.1,0-2,0.9-2,2v24.8    c0,1.1,0.9,2,2,2c0.5,0,1,0.4,1,1s-0.4,1-1,1c-2.2,0-4-1.8-4-4v-24.8c0-2.2,1.8-4,4-4h78.2c2.2,0,4,1.8,4,4v24.8    C272.6,136.4,270.8,138.2,268.6,138.2z"
   id="path4031" />
	</g>
	<g
   id="g4037">
		<path
   d="M260.3,138.2h-4.5c-0.5,0-1-0.4-1-1s0.4-1,1-1h4.5c0.5,0,1,0.4,1,1S260.9,138.2,260.3,138.2z"
   id="path4035" />
	</g>
	<g
   id="g4041">
		<path
   d="M268.6,169.1c-0.5,0-1-0.4-1-1c0-0.5,0.4-1,1-1c1.1,0,2-0.9,2-2v-24.8c0-1.1-0.9-2-2-2h-3.4c-0.5,0-1-0.4-1-1s0.4-1,1-1    h3.4c2.2,0,4,1.8,4,4v24.8C272.6,167.3,270.8,169.1,268.6,169.1z"
   id="path4039" />
	</g>
	<g
   id="g4045">
		<path
   d="M190.4,169.1c-2.2,0-4-1.8-4-4v-24.8c0-2.2,1.8-4,4-4h60.3c0.5,0,1,0.4,1,1s-0.4,1-1,1h-60.3c-1.1,0-2,0.9-2,2v24.8    c0,1.1,0.9,2,2,2c0.5,0,1,0.4,1,1C191.4,168.7,191,169.1,190.4,169.1z"
   id="path4043" />
	</g>
	<g
   id="g4049">
		<path
   d="M260.5,169.1h-4.8c-0.5,0-1-0.4-1-1c0-0.5,0.4-1,1-1h4.8c0.5,0,1,0.4,1,1C261.5,168.7,261.1,169.1,260.5,169.1z"
   id="path4047" />
	</g>
	<g
   id="g4053">
		<path
   d="M268.6,200h-78.2c-2.2,0-4-1.8-4-4v-24.9c0-2.2,1.8-4,4-4h60.3c0.5,0,1,0.4,1,1c0,0.5-0.4,1-1,1h-60.3c-1.1,0-2,0.9-2,2    V196c0,1.1,0.9,2,2,2h78.2c1.1,0,2-0.9,2-2v-24.9c0-1.1-0.9-2-2-2H266c-0.5,0-1-0.4-1-1c0-0.5,0.4-1,1-1h2.6c2.2,0,4,1.8,4,4V196    C272.6,198.2,270.8,200,268.6,200z"
   id="path4051" />
	</g>
	<g
   id="g4057">
		<path
   d="M258.4,162.6h-31.1c-1.6,0-2.9-1.3-2.9-2.9v-14c0-1.6,1.3-2.9,2.9-2.9h31.1c1.6,0,2.9,1.3,2.9,2.9v14    C261.2,161.3,259.9,162.6,258.4,162.6z M227.3,144.8c-0.5,0-0.9,0.4-0.9,0.9v14c0,0.5,0.4,0.9,0.9,0.9h31.1c0.5,0,0.9-0.4,0.9-0.9    v-14c0-0.5-0.4-0.9-0.9-0.9H227.3z"
   id="path4055" />
	</g>
	<g
   id="g4061">
		<path
   d="M233.7,158.1c-0.5,0-1-0.4-1-1V149c0-0.5,0.4-1,1-1c0.5,0,1,0.4,1,1v8.1C234.7,157.6,234.2,158.1,233.7,158.1z"
   id="path4059" />
	</g>
	<g
   id="g4065">
		<path
   d="M240,158.1c-0.5,0-1-0.4-1-1V149c0-0.5,0.4-1,1-1c0.5,0,1,0.4,1,1v8.1C241,157.6,240.6,158.1,240,158.1z"
   id="path4063" />
	</g>
	<g
   id="g4069">
		<path
   d="M245.8,157.9c-0.5,0-1-0.4-1-1v-8.1c0-0.5,0.4-1,1-1c0.5,0,1,0.4,1,1v8.1C246.8,157.5,246.4,157.9,245.8,157.9z"
   id="path4067" />
	</g>
	<g
   id="g4073">
		<path
   d="M252.2,157.9c-0.5,0-1-0.4-1-1v-8.1c0-0.5,0.4-1,1-1c0.5,0,1,0.4,1,1v8.1C253.2,157.5,252.7,157.9,252.2,157.9z"
   id="path4071" />
	</g>
	<g
   id="g4077">
		<path
   d="M258.4,131.4h-31.1c-1.6,0-2.9-1.3-2.9-2.9v-14c0-1.6,1.3-2.9,2.9-2.9h31.1c1.6,0,2.9,1.3,2.9,2.9v14    C261.2,130.1,259.9,131.4,258.4,131.4z M227.3,113.5c-0.5,0-0.9,0.4-0.9,0.9v14c0,0.5,0.4,0.9,0.9,0.9h31.1c0.5,0,0.9-0.4,0.9-0.9    v-14c0-0.5-0.4-0.9-0.9-0.9H227.3z"
   id="path4075" />
	</g>
	<g
   id="g4081">
		<path
   d="M240,126.9c-0.5,0-1-0.4-1-1v-8.1c0-0.5,0.4-1,1-1c0.5,0,1,0.4,1,1v8.1C241,126.4,240.6,126.9,240,126.9z"
   id="path4079" />
	</g>
	<g
   id="g4085">
		<path
   d="M245.8,126.7c-0.5,0-1-0.4-1-1v-8.1c0-0.5,0.4-1,1-1c0.5,0,1,0.4,1,1v8.1C246.8,126.2,246.4,126.7,245.8,126.7z"
   id="path4083" />
	</g>
	<g
   id="g4089">
		<path
   d="M252.2,126.7c-0.5,0-1-0.4-1-1v-8.1c0-0.5,0.4-1,1-1c0.5,0,1,0.4,1,1v8.1C253.2,126.2,252.7,126.7,252.2,126.7z"
   id="path4087" />
	</g>
	<g
   id="g4093">
		<path
   d="M258.4,193.2h-31.1c-1.6,0-2.9-1.3-2.9-2.9v-14c0-1.6,1.3-2.9,2.9-2.9h31.1c1.6,0,2.9,1.3,2.9,2.9v14    C261.2,192,259.9,193.2,258.4,193.2z M227.3,175.4c-0.5,0-0.9,0.4-0.9,0.9v14c0,0.5,0.4,0.9,0.9,0.9h31.1c0.5,0,0.9-0.4,0.9-0.9    v-14c0-0.5-0.4-0.9-0.9-0.9H227.3z"
   id="path4091" />
	</g>
	<g
   id="g4097">
		<path
   d="M245.8,188.5c-0.5,0-1-0.4-1-1v-8.1c0-0.5,0.4-1,1-1c0.5,0,1,0.4,1,1v8.1C246.8,188.1,246.4,188.5,245.8,188.5z"
   id="path4095" />
	</g>
	<g
   id="g4101">
		<path
   d="M252.2,188.5c-0.5,0-1-0.4-1-1v-8.1c0-0.5,0.4-1,1-1c0.5,0,1,0.4,1,1v8.1C253.2,188.1,252.7,188.5,252.2,188.5z"
   id="path4099" />
	</g>
	<g
   id="g4105">
		<path
   d="M202.9,129.3c-4.2,0-7.5-3.4-7.5-7.5c0-4.2,3.4-7.5,7.5-7.5c4.2,0,7.5,3.4,7.5,7.5c0,1.1-0.2,2.2-0.7,3.2    c-0.2,0.5-0.8,0.7-1.3,0.5c-0.5-0.2-0.7-0.8-0.5-1.3c0.3-0.7,0.5-1.5,0.5-2.3c0-3.1-2.5-5.6-5.6-5.6c-3.1,0-5.6,2.5-5.6,5.6    s2.5,5.6,5.6,5.6c0.8,0,1.5-0.1,2.2-0.4c0.5-0.2,1.1,0,1.3,0.5c0.2,0.5,0,1.1-0.5,1.3C204.9,129.1,204,129.3,202.9,129.3z"
   id="path4103" />
	</g>
	<g
   id="g4109">
		<path
   d="M202.9,160.4c-4.2,0-7.5-3.4-7.5-7.5c0-4.2,3.4-7.5,7.5-7.5c4.2,0,7.5,3.4,7.5,7.5c0,1.1-0.2,2.2-0.7,3.2    c-0.2,0.5-0.8,0.7-1.3,0.5c-0.5-0.2-0.7-0.8-0.5-1.3c0.3-0.7,0.5-1.5,0.5-2.3c0-3.1-2.5-5.6-5.6-5.6c-3.1,0-5.6,2.5-5.6,5.6    c0,3.1,2.5,5.6,5.6,5.6c0.8,0,1.5-0.1,2.2-0.4c0.5-0.2,1.1,0,1.3,0.5c0.2,0.5,0,1.1-0.5,1.3C204.9,160.2,204,160.4,202.9,160.4z"
   id="path4107" />
	</g>
	<g
   id="g4113">
		<path
   d="M202.9,190.8c-4.2,0-7.5-3.4-7.5-7.5s3.4-7.5,7.5-7.5c4.2,0,7.5,3.4,7.5,7.5c0,1.1-0.2,2.2-0.7,3.2    c-0.2,0.5-0.8,0.7-1.3,0.5c-0.5-0.2-0.7-0.8-0.5-1.3c0.3-0.7,0.5-1.5,0.5-2.3c0-3.1-2.5-5.6-5.6-5.6c-3.1,0-5.6,2.5-5.6,5.6    s2.5,5.6,5.6,5.6c0.8,0,1.5-0.1,2.2-0.4c0.5-0.2,1.1,0,1.3,0.5c0.2,0.5,0,1.1-0.5,1.3C204.9,190.6,204,190.8,202.9,190.8z"
   id="path4111" />
	</g>
	<g
   id="g4117">
		<path
   d="M103.8,36.6c-1.3,0-2.7-0.4-3.9-1.1c-1.8-1.2-3.1-3.1-3.4-5.2c-0.3-2.1,0.3-4.3,1.7-5.9C111.6,8.9,131.5,0,152.6,0    s41,8.9,54.4,24.3c1.4,1.6,2,3.8,1.7,5.9c-0.3,2.2-1.6,4.1-3.4,5.2c-3.1,2-7.2,1.3-9.7-1.6c-10.5-12.4-26.2-19.5-43-19.5    s-32.5,7.1-43,19.5C108.1,35.6,105.9,36.6,103.8,36.6z M152.6,2c-20.6,0-39.8,8.6-52.9,23.6c-1,1.2-1.5,2.8-1.3,4.3    c0.2,1.6,1.2,3,2.5,3.8c2.3,1.4,5.3,0.9,7.1-1.2c10.9-12.8,27.1-20.2,44.5-20.2s33.6,7.4,44.5,20.2c1.8,2.1,4.8,2.6,7.1,1.2    c1.4-0.8,2.3-2.2,2.5-3.8c0.2-1.6-0.2-3.2-1.3-4.3C192.4,10.6,173.1,2,152.6,2z"
   id="path4115" />
	</g>
	<g
   id="g4121">
		<path
   d="M179.7,50.1c-2,0-4-0.9-5.4-2.5c-5.9-6.8-14.5-10.7-23.8-10.7c-8.6,0-16.9,3.5-22.7,9.5c-2.2,2.3-5.9,2.8-8.7,1    c-1.8-1.1-3-3-3.2-5.1c-0.2-2.1,0.5-4.2,2-5.8c8.6-8.6,20.2-13.4,32.6-13.4c13.3,0,25.8,5.6,34.4,15.3c1.4,1.5,2,3.6,1.7,5.6    c-0.3,2-1.5,3.8-3.2,4.9C182.3,49.8,181,50.1,179.7,50.1z M150.6,35c9.8,0,19,4.2,25.3,11.4c1.7,1.9,4.4,2.4,6.5,1.1    c1.3-0.8,2.1-2.1,2.3-3.6c0.2-1.5-0.2-2.9-1.2-4c-8.2-9.3-20.2-14.6-32.9-14.6c-11.9,0-23,4.5-31.2,12.8c-1.1,1.1-1.6,2.6-1.4,4.1    c0.2,1.5,1,2.9,2.3,3.7c2,1.2,4.6,0.9,6.2-0.7C132.6,38.7,141.4,35,150.6,35z"
   id="path4119" />
	</g>
	<g
   id="g4125">
		<path
   d="M144.6,62.1c-1.3,0-2.7-0.4-3.8-1.1c-2.3-1.4-3.6-3.9-3.4-6.7c0.2-2.8,1.8-5.1,4.3-6.2c6.7-3,15.1-3,21.8,0    c2.5,1.1,4.1,3.5,4.3,6.2c0.2,2.7-1.1,5.2-3.4,6.7c-1.7,1-3.6,1.4-5.6,0.9c-3.9-0.9-8.6-0.9-12.5,0    C145.8,62,145.2,62.1,144.6,62.1z M152.6,47.7c-3.5,0-7,0.7-10.1,2.1c-1.8,0.8-3,2.5-3.2,4.6c-0.1,2,0.8,3.8,2.5,4.9    c1.2,0.8,2.7,1,4,0.7c4.2-1,9.2-1,13.4,0c1.4,0.3,2.8,0.1,4-0.7c1.7-1.1,2.6-2.9,2.5-4.9c-0.1-2-1.3-3.7-3.2-4.6    C159.6,48.5,156.1,47.7,152.6,47.7z"
   id="path4123" />
	</g>
	<g
   id="g4129">
		<path
   d="M151.3,87.8c-4.2,0-7.6-3.4-7.6-7.6s3.4-7.6,7.6-7.6c4.2,0,7.6,3.4,7.6,7.6S155.5,87.8,151.3,87.8z M151.3,74.5    c-3.1,0-5.7,2.5-5.7,5.7s2.5,5.7,5.7,5.7c3.1,0,5.7-2.5,5.7-5.7S154.4,74.5,151.3,74.5z"
   id="path4127" />
	</g>
	<g
   id="g4133">
		<path
   d="M151.3,152.1c-0.5,0-1-0.4-1-1V86.8c0-0.5,0.4-1,1-1s1,0.4,1,1v64.4C152.3,151.7,151.8,152.1,151.3,152.1z"
   id="path4131" />
	</g>
	<g
   id="g4137">
		<path
   d="M187.4,153.6h-74.8c-0.5,0-1-0.4-1-1c0-0.5,0.4-1,1-1h74.8c0.5,0,1,0.4,1,1C188.3,153.2,187.9,153.6,187.4,153.6z"
   id="path4135" />
	</g>
</g>
</svg>