<?xml version="1.0" encoding="utf-8"?>
<!-- Generator: Adobe Illustrator 24.3.0, SVG Export Plug-In . SVG Version: 6.00 Build 0)  -->
<svg version="1.1" id="Capa_1" xmlns="http://www.w3.org/2000/svg" xmlns:xlink="http://www.w3.org/1999/xlink" x="0px" y="0px"
	 viewBox="0 0 300 200" style="enable-background:new 0 0 300 200;" xml:space="preserve">
<style type="text/css">
	.st0{fill:#5F7993;}
	.st1{fill:#17B5C8;}
	.st2{fill:#11828F;}
	.st3{fill:#405162;}
	.st4{fill:#A6D100;}
	.st5{fill:#89AB00;}
	.st6{fill:#FFFFFF;}
	.st7{fill:none;stroke:#17B5C8;stroke-width:2;stroke-miterlimit:10;}
</style>
<ellipse class="st1" cx="146.1" cy="127" rx="10.8" ry="10.7"/>
<path class="st2" d="M146.1,116.3c-1.2,0-2.4,0.2-3.5,0.6c4.3,1.4,7.3,5.4,7.3,10.1s-3.1,8.7-7.3,10.1c1.1,0.4,2.3,0.6,3.5,0.6
	c6,0,10.8-4.8,10.8-10.7S152,116.3,146.1,116.3z"/>
<g>
	<polygon class="st1" points="137.5,82.6 133.5,78.7 115.3,83.2 118.8,96.1 174.8,81.2 172.1,73.5 	"/>
	<path d="M118.8,97.1c-0.2,0-0.3,0-0.5-0.1c-0.2-0.1-0.4-0.3-0.5-0.6l-3.5-12.9c-0.1-0.3,0-0.5,0.1-0.8c0.1-0.2,0.4-0.4,0.6-0.5
		l18.2-4.5c0.3-0.1,0.7,0,0.9,0.3l3.6,3.5l34-8.9c0.5-0.1,1,0.1,1.2,0.6l2.7,7.6c0.1,0.3,0.1,0.5-0.1,0.8c-0.1,0.2-0.4,0.4-0.6,0.5
		l-56,15C119,97.1,118.9,97.1,118.8,97.1z M116.6,83.9l3,11l54-14.4l-2-5.8l-33.7,8.8c-0.3,0.1-0.7,0-1-0.3l-3.6-3.5L116.6,83.9z"/>
</g>
<g>
	<polygon class="st0" points="100.7,72.2 172.2,53.6 176.5,72.4 137.5,82.6 133.5,78.7 115.3,83.2 	"/>
	<path d="M115.3,84.2c-0.2,0-0.4-0.1-0.6-0.2l-14.7-11.1c-0.3-0.2-0.5-0.6-0.4-1c0.1-0.4,0.4-0.7,0.7-0.8l71.5-18.5
		c0.3-0.1,0.5,0,0.8,0.1c0.2,0.1,0.4,0.4,0.5,0.6l4.3,18.8c0.1,0.5-0.2,1-0.7,1.2l-39,10.2c-0.3,0.1-0.7,0-1-0.3l-3.6-3.5l-17.6,4.4
		C115.5,84.2,115.4,84.2,115.3,84.2z M102.9,72.6l12.7,9.5l17.7-4.4c0.3-0.1,0.7,0,0.9,0.3l3.6,3.5l37.5-9.8l-3.9-16.8L102.9,72.6z"
		/>
</g>
<path class="st4" d="M235.7,39.5c-20.9,0-37.8-16.8-37.8-37.5c0,0,0-0.1,0-0.1h-49h-0.3h-49c0,0,0,0.1,0,0.1
	c0,20.7-16.9,37.5-37.8,37.5c-0.3,0-0.5,0-0.8,0v2.2c0,129.7,82.1,156.4,87.5,158.1v0.1c0,0,0.1,0,0.1,0c0.1,0,0.1,0,0.1,0v-0.1
	c5.5-1.6,87.5-28.4,87.5-158.1v-2.2C236.2,39.5,236,39.5,235.7,39.5z M148.8,185.1c-15.4-6.3-70-35.5-73.5-133.4
	c17.6-4.7,31.6-18.4,36.5-35.9h74c4.9,17.5,18.9,31.2,36.5,35.9C218.8,149.6,164.2,178.8,148.8,185.1z"/>
<path class="st5" d="M106.7,1.2h-6c0,0,0,0.1,0,0.1c0,20.7-16.9,37.5-37.8,37.5c-0.3,0-0.5,0-0.8,0v2.2c0,1.5,0,3,0,4.5
	C72.2,43.9,110.1,35.3,106.7,1.2z"/>
<path class="st5" d="M237.5,39.4l-0.6-0.5c-0.1,0-0.1,0-0.2,0c-19.1,0-36-19.4-38.6-37.6l-5.1,0h-1.5c1.9,16.7,9.5,37.1,45.9,43
	c0-1,0-2.1,0-3.1V39.4z"/>
<g>
	<path class="st5" d="M115.2,179.7l-4.4-3C110.9,176.8,112.4,178,115.2,179.7z"/>
	<path class="st5" d="M183.7,179.5l-0.2,0.1C183.5,179.6,183.6,179.6,183.7,179.5C183.7,179.5,183.7,179.5,183.7,179.5z"/>
	<path class="st5" d="M115.2,179.7l24.2,16.4c4.9,2.3,8.2,3.4,9.2,3.6v0.1c0,0,0.1,0,0.1,0c0.1,0,0.1,0,0.1,0v-0.1
		c0.6-0.2,2-0.6,4.1-1.4l30.4-18.7C151.9,197.8,125.3,185.9,115.2,179.7z"/>
</g>
<g>
	<path d="M149.6,200.3c-0.2,0-0.4-0.1-0.6-0.2c0,0,0,0,0,0c-3.7-1.2-18.8-6.5-35.6-21.2c-23-20-38.7-47.8-46.5-82.6
		c-0.1-0.5,0.2-1.1,0.8-1.2c0.5-0.1,1.1,0.2,1.2,0.8c7.8,34.4,23.2,61.8,45.9,81.5c17.1,14.9,32.8,20.1,35.1,20.8
		c6.1-1.9,54-18.4,75.9-84.2c0.2-0.5,0.7-0.8,1.3-0.6c0.5,0.2,0.8,0.7,0.6,1.3c-22.1,66.3-70.4,83.4-77.1,85.4
		c-0.2,0.1-0.4,0.2-0.7,0.2C149.8,200.3,149.7,200.3,149.6,200.3z M149.8,185.4c-0.1,0-0.3,0-0.4-0.1
		c-16.5-6.8-70.6-36.4-74.1-134.3c0-0.5,0.3-0.9,0.7-1c17.3-4.6,31-18.1,35.8-35.2c0.1-0.4,0.5-0.7,1-0.7h74c0.4,0,0.8,0.3,1,0.7
		c4.8,17.1,18.5,30.6,35.8,35.2c0.5,0.1,0.8,0.5,0.7,1c-3.5,97.8-57.6,127.5-74.1,134.3C150.1,185.4,149.9,185.4,149.8,185.4z
		 M77.3,51.8c3.7,95.3,55.9,124.6,72.5,131.6c16.6-6.9,68.8-36.3,72.5-131.6c-17.3-4.9-31.1-18.5-36.2-35.6h-72.5
		C108.4,33.3,94.7,46.9,77.3,51.8z M232.1,95.7c-0.1,0-0.1,0-0.2,0c-0.5-0.1-0.9-0.6-0.8-1.2c3.6-16.3,5.4-34.3,5.4-53.4v-1.2
		c-21-0.1-38.1-16.9-38.6-37.6h-96.3C101.2,23,84.1,39.8,63.1,39.9v1.2c0,14.4,1,28.2,3.1,41.1c0.1,0.5-0.3,1.1-0.8,1.1
		c-0.5,0.1-1.1-0.3-1.1-0.8c-2.1-12.9-3.1-26.9-3.1-41.4v-2.2c0-0.3,0.1-0.5,0.3-0.7c0.2-0.2,0.4-0.3,0.7-0.3l0.3,0
		c0.1,0,0.3,0,0.4,0c20.3,0,36.8-16.4,36.8-36.5c0-0.5,0.4-1.1,1-1.1h98.3c0.6,0,1,0.4,1,1c0,0,0,0.1,0,0.1
		c0,20.1,16.5,36.5,36.8,36.5c0.1,0,0.3,0,0.4,0l0.3,0c0.3,0,0.5,0.1,0.7,0.3c0.2,0.2,0.3,0.4,0.3,0.7v2.2c0,19.3-1.8,37.4-5.5,53.9
		C232.9,95.4,232.5,95.7,232.1,95.7z"/>
</g>
<g>
	<path d="M115.3,84.2c-0.2,0-0.4-0.1-0.6-0.2l-14.7-11.1c-0.3-0.2-0.5-0.6-0.4-1c0.1-0.4,0.4-0.7,0.7-0.8l71.5-18.5
		c0.3-0.1,0.5,0,0.8,0.1c0.2,0.1,0.4,0.4,0.5,0.6l4.3,18.8c0.1,0.5-0.2,1-0.7,1.2l-39,10.2c-0.3,0.1-0.7,0-1-0.3l-3.6-3.5l-17.6,4.4
		C115.5,84.2,115.4,84.2,115.3,84.2z M102.9,72.6l12.7,9.5l17.7-4.4c0.3-0.1,0.7,0,0.9,0.3l3.6,3.5l37.5-9.8l-3.9-16.8L102.9,72.6z"
		/>
</g>
<path class="st2" d="M157.3,85.9l17.2-5.7l-0.4-1.1l-2.9-5.1L153,79.3c0,0-2.2,6.1-6.5,9.5L157.3,85.9z"/>
<g>
	<path d="M146.1,138.7c-6.5,0-11.8-5.3-11.8-11.7s5.3-11.7,11.8-11.7c6.5,0,11.8,5.3,11.8,11.7S152.6,138.7,146.1,138.7z
		 M146.1,117.3c-5.4,0-9.8,4.4-9.8,9.7c0,5.4,4.4,9.7,9.8,9.7s9.8-4.4,9.8-9.7C155.9,121.7,151.5,117.3,146.1,117.3z"/>
</g>
<polygon class="st3" points="115.3,83.2 133.5,78.7 137.5,82.6 176.5,72.4 175.3,67.3 141.3,76.4 136.6,70.2 110.6,77 109.1,78.5 
	"/>
<g>
	<path d="M118.8,97.1c-0.2,0-0.3,0-0.5-0.1c-0.2-0.1-0.4-0.3-0.5-0.6l-3.5-12.9c-0.1-0.3,0-0.5,0.1-0.8c0.1-0.2,0.4-0.4,0.6-0.5
		l18.2-4.5c0.3-0.1,0.7,0,0.9,0.3l3.6,3.5l34-8.9c0.5-0.1,1,0.1,1.2,0.6l2.7,7.6c0.1,0.3,0.1,0.5-0.1,0.8c-0.1,0.2-0.4,0.4-0.6,0.5
		l-56,15C119,97.1,118.9,97.1,118.8,97.1z M116.6,83.9l3,11l54-14.4l-2-5.8l-33.7,8.8c-0.3,0.1-0.7,0-1-0.3l-3.6-3.5L116.6,83.9z"/>
</g>
<g>
	<path d="M115.3,96.7c-7,0-12.7-5.7-12.7-12.6c0-3,1.1-5.9,3.1-8.2c0.3-0.4,0.9-0.5,1.4-0.1l9,6.8c0.2,0.1,0.3,0.3,0.4,0.5l3.2,12
		c0.1,0.5-0.2,1.1-0.7,1.2C117.7,96.5,116.5,96.7,115.3,96.7z M106.6,77.8c-1.3,1.8-2,4-2,6.2c0,5.9,4.8,10.6,10.7,10.6
		c0.7,0,1.4-0.1,2.1-0.2l-2.9-10.7L106.6,77.8z"/>
</g>
<g>
	<path d="M140.9,118.6c-0.2,0-0.4,0-0.5-0.1c-0.3-0.2-0.5-0.5-0.5-0.9V90.3c0-0.4,0.3-0.8,0.7-1l10.3-2.8c0.3-0.1,0.6,0,0.9,0.2
		c0.2,0.2,0.4,0.5,0.4,0.8v30c0,0.3-0.2,0.7-0.5,0.9c-0.3,0.2-0.7,0.2-1,0c-1.4-0.8-3-1.1-4.6-1.1c-1.7,0-3.3,0.4-4.8,1.2
		C141.2,118.6,141,118.6,140.9,118.6z M141.9,91v25.1c2.6-1,5.6-1,8.3-0.1V88.8L141.9,91z"/>
</g>
<g>
	<path d="M186.1,132.1h-30c-0.3,0-0.6-0.2-0.8-0.4c-0.2-0.3-0.2-0.6-0.1-0.9c0.5-1.2,0.7-2.4,0.7-3.7c0-1.5-0.3-2.9-1-4.3
		c-0.2-0.3-0.1-0.7,0-1s0.5-0.5,0.8-0.5h30.3c0.6,0,1,0.4,1,1v8.8C187.1,131.6,186.6,132.1,186.1,132.1z M157.5,130.1h27.6v-6.8
		h-27.8c0.4,1.2,0.6,2.5,0.6,3.7C157.9,128.1,157.7,129.1,157.5,130.1z"/>
</g>
</svg>
