<?xml version="1.0" encoding="UTF-8" standalone="no"?>
<!-- Generator: Adobe Illustrator 24.3.0, SVG Export Plug-In . SVG Version: 6.00 Build 0)  -->

<svg
   xmlns:dc="http://purl.org/dc/elements/1.1/"
   xmlns:cc="http://creativecommons.org/ns#"
   xmlns:rdf="http://www.w3.org/1999/02/22-rdf-syntax-ns#"
   xmlns:svg="http://www.w3.org/2000/svg"
   xmlns="http://www.w3.org/2000/svg"
   xmlns:sodipodi="http://sodipodi.sourceforge.net/DTD/sodipodi-0.dtd"
   xmlns:inkscape="http://www.inkscape.org/namespaces/inkscape"
   version="1.1"
   id="Capa_1"
   x="0px"
   y="0px"
   viewBox="0 0 300 200"
   style="enable-background:new 0 0 300 200;"
   xml:space="preserve"
   sodipodi:docname="pam-search.svg"
   inkscape:version="0.92.5 (2060ec1f9f, 2020-04-08)"><metadata
   id="metadata8447"><rdf:RDF><cc:Work
       rdf:about=""><dc:format>image/svg+xml</dc:format><dc:type
         rdf:resource="http://purl.org/dc/dcmitype/StillImage" /><dc:title></dc:title></cc:Work></rdf:RDF></metadata><defs
   id="defs8445">
	
<clipPath
   clipPathUnits="userSpaceOnUse"
   id="clipPath6701"><path
     style="fill:#ffffff;stroke:none;stroke-width:1px;stroke-linecap:butt;stroke-linejoin:miter;stroke-opacity:1"
     d="M 158.21996,170.04377 130.25607,131.12702 126.47137,107.45526 151.9324,56.349028 173.75079,51.093504 172.1051,14.075398 30.354512,14.242494 37.622597,168.99606 Z"
     id="path6703"
     inkscape:connector-curvature="0"
     sodipodi:nodetypes="ccccccccc" /></clipPath><clipPath
   clipPathUnits="userSpaceOnUse"
   id="clipPath6713"><rect
     style="opacity:1;fill:#ffffff;fill-opacity:1;fill-rule:nonzero;stroke:none;stroke-width:1.31328118;stroke-linecap:round;stroke-linejoin:round;stroke-miterlimit:4;stroke-dasharray:none;stroke-dashoffset:0;stroke-opacity:1"
     id="rect6715"
     width="38.483765"
     height="28.862825"
     x="143.52164"
     y="113.73481" /></clipPath></defs><sodipodi:namedview
   pagecolor="#ffffff"
   bordercolor="#666666"
   borderopacity="1"
   objecttolerance="10"
   gridtolerance="10"
   guidetolerance="10"
   inkscape:pageopacity="0"
   inkscape:pageshadow="2"
   inkscape:window-width="1920"
   inkscape:window-height="1025"
   id="namedview8443"
   showgrid="false"
   inkscape:zoom="2.22"
   inkscape:cx="203.1537"
   inkscape:cy="83.236191"
   inkscape:window-x="0"
   inkscape:window-y="29"
   inkscape:window-maximized="1"
   inkscape:current-layer="Capa_1"
   inkscape:pagecheckerboard="true" />
<style
   type="text/css"
   id="style8378">
	.st0{fill:#5F7993;}
	.st1{fill:#17B5C8;}
	.st2{fill:#11828F;}
	.st3{fill:#405162;}
	.st4{fill:#A6D100;}
	.st5{fill:#89AB00;}
	.st6{fill:#FFFFFF;}
	.st7{fill:none;stroke:#17B5C8;stroke-width:2;stroke-miterlimit:10;}
</style>

















<path
   style="fill:#a6d100;stroke:none;stroke-width:1px;stroke-linecap:butt;stroke-linejoin:miter;stroke-opacity:1"
   d="m 36.865925,45.993792 c -0.783356,21.777267 3.118958,42.483523 9.755697,62.564768 17.618687,45.67052 38.093132,46.91196 56.871318,59.41978 12.15429,-7.87046 25.71433,-13.82911 35.47102,-24.96032 l -5.46454,-10.7915 C 122.14829,146.6812 112.36788,151.17981 102.88378,155.2621 73.139628,143.95223 66.963498,123.89546 56.869369,105.29279 49.624728,88.605261 48.308883,71.368769 46.621622,54.166667 52.402403,52.570833 58.183183,49.474271 63.963964,44.481982 69.340006,39.004056 72.680506,32.890023 74.662162,26.351351 l 57.156778,0.530057 c 2.31188,6.951926 5.17132,13.538818 10.63602,18.388862 5.50433,4.078204 11.18815,7.512849 17.11715,9.573831 3.37701,-2.051552 5.95228,-3.350187 10.13427,-4.703631 l -0.11944,-4.527403 c -8.606,-0.651524 -15.52322,-3.923568 -21.0509,-9.351806 -5.74513,-5.341638 -7.43605,-12.102251 -9.02644,-18.898048 H 66.181812 c -0.589603,7.862217 -3.919653,13.51907 -8.186316,19.461111 -6.731551,4.770506 -13.761047,7.902311 -21.129571,9.169468 z"
   id="path6667"
   inkscape:connector-curvature="0"
   sodipodi:nodetypes="cccccccccccccccccccc" /><ellipse
   style="fill:#17b5c8;stroke-width:0.7614516"
   class="st1"
   cx="100.06641"
   cy="112.31622"
   rx="8.2236776"
   ry="8.1475315"
   id="ellipse8380" /><path
   style="fill:#11828f;stroke-width:0.7614516"
   inkscape:connector-curvature="0"
   class="st2"
   d="m 100.06641,104.1687 c -0.91374,0 -1.82749,0.15229 -2.66508,0.45687 3.27424,1.06603 5.55859,4.11184 5.55859,7.69066 0,3.57882 -2.3605,6.62463 -5.55859,7.69066 0.83759,0.30458 1.75134,0.45687 2.66508,0.45687 4.56871,0 8.22367,-3.65496 8.22367,-8.14753 0,-4.49256 -3.73111,-8.14753 -8.22367,-8.14753 z"
   id="path8382" /><g
   id="g8388"
   transform="matrix(0.76145159,0,0,0.76145159,-11.18167,15.611874)">
	<polygon
   style="fill:#17b5c8"
   class="st1"
   points="137.5,82.6 133.5,78.7 115.3,83.2 118.8,96.1 174.8,81.2 172.1,73.5 "
   id="polygon8384" />
	<path
   inkscape:connector-curvature="0"
   d="m 118.8,97.1 c -0.2,0 -0.3,0 -0.5,-0.1 -0.2,-0.1 -0.4,-0.3 -0.5,-0.6 l -3.5,-12.9 c -0.1,-0.3 0,-0.5 0.1,-0.8 0.1,-0.2 0.4,-0.4 0.6,-0.5 l 18.2,-4.5 c 0.3,-0.1 0.7,0 0.9,0.3 l 3.6,3.5 34,-8.9 c 0.5,-0.1 1,0.1 1.2,0.6 l 2.7,7.6 c 0.1,0.3 0.1,0.5 -0.1,0.8 -0.1,0.2 -0.4,0.4 -0.6,0.5 l -56,15 c 0.1,0 0,0 -0.1,0 z m -2.2,-13.2 3,11 54,-14.4 -2,-5.8 -33.7,8.8 c -0.3,0.1 -0.7,0 -1,-0.3 l -3.6,-3.5 z"
   id="path8386" />
</g><g
   id="g8394"
   transform="matrix(0.76145159,0,0,0.76145159,-11.18167,15.611874)">
	<polygon
   style="fill:#5f7993"
   class="st0"
   points="100.7,72.2 172.2,53.6 176.5,72.4 137.5,82.6 133.5,78.7 115.3,83.2 "
   id="polygon8390" />
	<path
   inkscape:connector-curvature="0"
   d="m 115.3,84.2 c -0.2,0 -0.4,-0.1 -0.6,-0.2 L 100,72.9 c -0.3,-0.2 -0.5,-0.6 -0.4,-1 0.1,-0.4 0.4,-0.7 0.7,-0.8 l 71.5,-18.5 c 0.3,-0.1 0.5,0 0.8,0.1 0.2,0.1 0.4,0.4 0.5,0.6 l 4.3,18.8 c 0.1,0.5 -0.2,1 -0.7,1.2 l -39,10.2 c -0.3,0.1 -0.7,0 -1,-0.3 l -3.6,-3.5 -17.6,4.4 c 0,0.1 -0.1,0.1 -0.2,0.1 z m -12.4,-11.6 12.7,9.5 17.7,-4.4 c 0.3,-0.1 0.7,0 0.9,0.3 l 3.6,3.5 37.5,-9.8 -3.9,-16.8 z"
   id="path8392" />
</g><path
   style="fill:#89ab00;stroke-width:0.7614516"
   inkscape:connector-curvature="0"
   class="st5"
   d="m 70.06521,16.525616 h -4.5687 c 0,0 0,0.07615 0,0.07615 0,15.762048 -12.86854,28.554435 -28.78287,28.554435 -0.22844,0 -0.38073,0 -0.60917,0 v 1.675193 c 0,1.142178 0,2.284355 0,3.426532 7.69066,-1.218322 36.54968,-7.766806 33.96074,-33.732305 z"
   id="path8398" /><path
   style="fill:#89ab00;stroke-width:0.7614516"
   inkscape:connector-curvature="0"
   class="st5"
   d="m 169.66308,45.613067 -0.45687,-0.380726 h -0.15229 c -16.77334,0 -27.41226,-14.772161 -29.39203,-28.63058 h -3.8834 -1.14218 c 1.44026,12.737035 6.23994,31.430189 34.95063,32.742418 V 46.98368 45.613067 Z"
   id="path8400"
   sodipodi:nodetypes="ccsccccccc" /><g
   id="g8408"
   transform="matrix(0.76145159,0,0,0.76145159,-11.18167,15.611874)">
	<path
   style="fill:#89ab00"
   inkscape:connector-curvature="0"
   class="st5"
   d="m 115.2,179.7 -4.4,-3 c 0.1,0.1 1.6,1.3 4.4,3 z"
   id="path8402" />
	<path
   style="fill:#89ab00"
   inkscape:connector-curvature="0"
   class="st5"
   d="m 183.7,179.5 -0.2,0.1 c 0,0 0.1,0 0.2,-0.1 0,0 0,0 0,0 z"
   id="path8404" />
	<path
   style="fill:#89ab00"
   inkscape:connector-curvature="0"
   class="st5"
   d="m 115.2,179.7 24.2,16.4 c 4.9,2.3 8.2,3.4 9.2,3.6 v 0.1 h 0.1 0.1 v -0.1 c 0.6,-0.2 2,-0.6 4.1,-1.4 10.80423,-5.82048 22.95791,-10.81052 30.4,-18.7 -28.80656,16.27241 -61.98991,8.55384 -68.1,0.1 z"
   id="path8406"
   sodipodi:nodetypes="cccccccccc" />
</g><path
   id="path8410"
   d="m 102.73149,168.13063 c -0.15229,0 -0.30458,-0.0761 -0.45687,-0.15229 v 0 C 99.457246,167.0646 87.959327,163.0289 75.16694,151.83556 57.653554,136.60653 45.698764,115.43818 39.759441,88.939662 c -0.07615,-0.380726 0.152291,-0.837597 0.609162,-0.913742 0.380725,-0.07614 0.837596,0.152291 0.913742,0.609161 5.939322,26.193939 17.665676,47.057709 34.950628,62.058309 13.020822,11.34562 24.975607,15.30517 26.726947,15.83819 4.64486,-1.44676 16.10456,-4.63951 36.00404,-23.51356 0.2649,-0.12735 0.50487,-0.15872 0.73651,0.10618 0.12734,0.37752 0.28524,0.2499 -0.0499,0.59575 -15.25931,15.74735 -31.05591,22.73548 -36.15764,24.25839 -0.15229,0.0761 -0.30458,0.15229 -0.53302,0.15229 z m 0.15229,-11.34563 c -0.0761,0 -0.22844,0 -0.30458,-0.0761 -12.563954,-5.17787 -53.758485,-27.71683 -56.423565,-102.262945 0,-0.380726 0.228435,-0.685306 0.533016,-0.761452 13.173112,-3.502677 23.604999,-13.782273 27.259967,-26.803095 0.07614,-0.304581 0.380726,-0.533017 0.761451,-0.533017 h 56.347421 c 0.30458,0 0.60916,0.228436 0.76145,0.533017 3.65497,13.020822 14.08685,23.300418 27.25997,26.803095 0.38072,0.07615 0.60916,0.380726 0.53301,0.761452 -2.66508,74.469965 -43.85961,97.085075 -56.42356,102.262945 -0.0761,0.0761 -0.22844,0.0761 -0.30458,0.0761 z M 47.678538,55.055066 c 2.817371,72.566334 42.565144,94.876864 55.205242,100.207034 6.32004,-2.62701 19.41701,-9.53719 31.28614,-24.8614 11.86913,-15.32421 22.51042,-39.062467 23.9191,-75.345634 C 144.91591,51.323954 134.40787,40.968212 130.52447,27.94739 H 75.319231 C 71.359682,40.968212 60.927796,51.323954 47.678538,55.055066 Z M 169.65214,50.858021 h -0.15229 c -0.38072,-0.07615 -0.6853,-0.456871 -0.60916,-0.913742 0.23291,-2.537647 -0.0289,-2.109602 0.0109,-3.036745 V 45.993792 C 152.91115,45.917647 139.89033,33.125261 139.5096,17.363213 H 66.181812 C 65.877231,33.125261 52.856409,45.917647 36.865925,45.993792 v 0.913742 c 0,10.964903 0.761452,21.472935 2.3605,31.295661 0.07615,0.380725 -0.228435,0.837596 -0.609161,0.837596 -0.380726,0.07615 -0.837597,-0.228435 -0.837597,-0.609161 -1.599048,-9.822725 -2.3605,-20.483048 -2.3605,-31.524096 v -1.675193 c 0,-0.228436 0.07614,-0.380726 0.228436,-0.533016 0.15229,-0.152291 0.30458,-0.228436 0.533016,-0.228436 h 0.228435 0.304581 c 15.457467,0 28.021419,-12.487806 28.021419,-27.792983 0,-0.380726 0.30458,-0.837597 0.761451,-0.837597 H 140.3472 c 0.45687,0 0.76145,0.304581 0.76145,0.761452 v 0.07615 c 0,15.305177 12.56395,27.792983 28.02142,27.792983 h 0.30458 0.22843 c 0.22844,0 0.38073,0.07614 0.53302,0.228436 0.15229,0.15229 0.22843,0.30458 0.22843,0.533016 v 1.675193 c 0,-0.51315 -0.0811,0.883871 -0.0871,3.417471 -0.0761,0.304581 -0.38073,0.533016 -0.68531,0.533016 z"
   inkscape:connector-curvature="0"
   style="stroke-width:0.7614516"
   sodipodi:nodetypes="sccccccccccscsssccccssccccsccsccccccccccccscccsscscssssssscscssccc"
   clip-path="url(#clipPath6701)" /><g
   id="g8416"
   transform="matrix(0.76145159,0,0,0.76145159,-11.18167,15.611874)">
	<path
   inkscape:connector-curvature="0"
   d="m 115.3,84.2 c -0.2,0 -0.4,-0.1 -0.6,-0.2 L 100,72.9 c -0.3,-0.2 -0.5,-0.6 -0.4,-1 0.1,-0.4 0.4,-0.7 0.7,-0.8 l 71.5,-18.5 c 0.3,-0.1 0.5,0 0.8,0.1 0.2,0.1 0.4,0.4 0.5,0.6 l 4.3,18.8 c 0.1,0.5 -0.2,1 -0.7,1.2 l -39,10.2 c -0.3,0.1 -0.7,0 -1,-0.3 l -3.6,-3.5 -17.6,4.4 c 0,0.1 -0.1,0.1 -0.2,0.1 z m -12.4,-11.6 12.7,9.5 17.7,-4.4 c 0.3,-0.1 0.7,0 0.9,0.3 l 3.6,3.5 37.5,-9.8 -3.9,-16.8 z"
   id="path8414" />
</g><path
   style="fill:#11828f;stroke-width:0.7614516"
   inkscape:connector-curvature="0"
   class="st2"
   d="m 108.59467,81.020566 13.09696,-4.340274 -0.30458,-0.837597 -2.20821,-3.883403 -13.85842,4.035693 c 0,0 -1.67519,4.644855 -4.94943,7.23379 z"
   id="path8418" /><g
   id="g8422"
   transform="matrix(0.76145159,0,0,0.76145159,-11.18167,15.611874)">
	<path
   inkscape:connector-curvature="0"
   d="m 146.1,138.7 c -6.5,0 -11.8,-5.3 -11.8,-11.7 0,-6.4 5.3,-11.7 11.8,-11.7 6.5,0 11.8,5.3 11.8,11.7 0,6.4 -5.3,11.7 -11.8,11.7 z m 0,-21.4 c -5.4,0 -9.8,4.4 -9.8,9.7 0,5.4 4.4,9.7 9.8,9.7 5.4,0 9.8,-4.4 9.8,-9.7 0,-5.3 -4.4,-9.7 -9.8,-9.7 z"
   id="path8420" />
</g><polygon
   style="fill:#405162"
   class="st3"
   points="115.3,83.2 133.5,78.7 137.5,82.6 176.5,72.4 175.3,67.3 141.3,76.4 136.6,70.2 110.6,77 109.1,78.5 "
   id="polygon8424"
   transform="matrix(0.76145159,0,0,0.76145159,-11.18167,15.611874)" /><g
   id="g8428"
   transform="matrix(0.76145159,0,0,0.76145159,-11.18167,15.611874)">
	<path
   inkscape:connector-curvature="0"
   d="m 118.8,97.1 c -0.2,0 -0.3,0 -0.5,-0.1 -0.2,-0.1 -0.4,-0.3 -0.5,-0.6 l -3.5,-12.9 c -0.1,-0.3 0,-0.5 0.1,-0.8 0.1,-0.2 0.4,-0.4 0.6,-0.5 l 18.2,-4.5 c 0.3,-0.1 0.7,0 0.9,0.3 l 3.6,3.5 34,-8.9 c 0.5,-0.1 1,0.1 1.2,0.6 l 2.7,7.6 c 0.1,0.3 0.1,0.5 -0.1,0.8 -0.1,0.2 -0.4,0.4 -0.6,0.5 l -56,15 c 0.1,0 0,0 -0.1,0 z m -2.2,-13.2 3,11 54,-14.4 -2,-5.8 -33.7,8.8 c -0.3,0.1 -0.7,0 -1,-0.3 l -3.6,-3.5 z"
   id="path8426" />
</g><g
   id="g8432"
   transform="matrix(0.76145159,0,0,0.76145159,-11.18167,15.611874)">
	<path
   inkscape:connector-curvature="0"
   d="m 115.3,96.7 c -7,0 -12.7,-5.7 -12.7,-12.6 0,-3 1.1,-5.9 3.1,-8.2 0.3,-0.4 0.9,-0.5 1.4,-0.1 l 9,6.8 c 0.2,0.1 0.3,0.3 0.4,0.5 l 3.2,12 c 0.1,0.5 -0.2,1.1 -0.7,1.2 -1.3,0.2 -2.5,0.4 -3.7,0.4 z m -8.7,-18.9 c -1.3,1.8 -2,4 -2,6.2 0,5.9 4.8,10.6 10.7,10.6 0.7,0 1.4,-0.1 2.1,-0.2 l -2.9,-10.7 z"
   id="path8430" />
</g><g
   id="g8436"
   transform="matrix(0.76145159,0,0,0.76145159,-11.18167,15.611874)">
	<path
   inkscape:connector-curvature="0"
   d="m 140.9,118.6 c -0.2,0 -0.4,0 -0.5,-0.1 -0.3,-0.2 -0.5,-0.5 -0.5,-0.9 V 90.3 c 0,-0.4 0.3,-0.8 0.7,-1 l 10.3,-2.8 c 0.3,-0.1 0.6,0 0.9,0.2 0.2,0.2 0.4,0.5 0.4,0.8 v 30 c 0,0.3 -0.2,0.7 -0.5,0.9 -0.3,0.2 -0.7,0.2 -1,0 -1.4,-0.8 -3,-1.1 -4.6,-1.1 -1.7,0 -3.3,0.4 -4.8,1.2 -0.1,0.1 -0.3,0.1 -0.4,0.1 z m 1,-27.6 v 25.1 c 2.6,-1 5.6,-1 8.3,-0.1 V 88.8 Z"
   id="path8434" />
</g><g
   id="g8440"
   transform="matrix(0.76145159,0,0,0.76145159,-11.18167,15.611874)"
   clip-path="url(#clipPath6713)">
	<path
   inkscape:connector-curvature="0"
   d="m 186.1,132.1 h -30 c -0.3,0 -0.6,-0.2 -0.8,-0.4 -0.2,-0.3 -0.2,-0.6 -0.1,-0.9 0.5,-1.2 0.7,-2.4 0.7,-3.7 0,-1.5 -0.3,-2.9 -1,-4.3 -0.2,-0.3 -0.1,-0.7 0,-1 0.1,-0.3 0.5,-0.5 0.8,-0.5 H 186 c 0.6,0 1,0.4 1,1 v 8.8 c 0.1,0.5 -0.4,1 -0.9,1 z m -28.6,-2 h 27.6 v -6.8 h -27.8 c 0.4,1.2 0.6,2.5 0.6,3.7 0,1.1 -0.2,2.1 -0.4,3.1 z"
   id="path8438" />
</g><g
   id="g6013"
   transform="translate(-9.1623576,-1.8987771)"><path
     style="fill:#17b5c8"
     inkscape:connector-curvature="0"
     id="path5176"
     d="m 186.70316,58.771168 c -25.5,0 -46.2,20.7 -46.2,46.200002 0,25.5 20.7,46.2 46.2,46.2 25.5,0 46.2,-20.7 46.2,-46.2 0,-25.500002 -20.7,-46.200002 -46.2,-46.200002 z m 0,74.800002 c -15.8,0 -28.6,-12.8 -28.6,-28.6 0,-15.800002 12.8,-28.600002 28.6,-28.600002 15.8,0 28.6,12.8 28.6,28.600002 0,15.8 -12.8,28.6 -28.6,28.6 z"
     class="st1" /><g
     transform="translate(14.903152,-2.7288323)"
     id="g5182"><path
       style="fill:#11828f"
       inkscape:connector-curvature="0"
       id="path5178"
       d="m 175.8,136 c 1.3,0.2 2.7,0.3 4,0.3 15.8,0 28.6,-12.8 28.6,-28.6 0,-15.8 -12.8,-28.6 -28.6,-28.6 -1.4,0 -2.7,0.1 -4,0.3 13.9,2 24.6,13.9 24.6,28.3 0,14.4 -10.7,26.4 -24.6,28.3 z"
       class="st2" /><path
       style="fill:#11828f"
       inkscape:connector-curvature="0"
       id="path5180"
       d="m 133.6,107.7 c 0,-24.2 18.6,-44 42.2,-46 -1.3,-0.1 -2.7,-0.2 -4,-0.2 -25.5,0 -46.2,20.7 -46.2,46.2 0,25.5 20.7,46.2 46.2,46.2 1.4,0 2.7,-0.1 4,-0.2 -23.6,-2 -42.2,-21.8 -42.2,-46 z"
       class="st2" /></g><path
     style="fill:#5f7993"
     inkscape:connector-curvature="0"
     id="path5184"
     d="m 262.90316,180.07117 -0.8,0.8 c -3.9,3.9 -10.3,3.9 -14.2,0 l -21.9,-21.9 c -1.8,-1.8 -1.8,-4.8 0,-6.6 l 8.4,-8.4 c 1.8,-1.8 4.8,-1.8 6.6,0 l 21.9,21.9 c 4,3.9 4,10.2 0,14.2 z"
     class="st0" /><path
     style="fill:#5f7993"
     inkscape:connector-curvature="0"
     id="path5186"
     d="m 262.90316,180.07117 -0.8,0.8 c -3.9,3.9 -10.3,3.9 -14.2,0 l -21.9,-21.9 c -1.8,-1.8 -1.8,-4.8 0,-6.6 l 8.4,-8.4 c 1.8,-1.8 4.8,-1.8 6.6,0 l 21.9,21.9 c 4,3.9 4,10.2 0,14.2 z"
     class="st0" /><path
     style="fill:#405162"
     inkscape:connector-curvature="0"
     id="path5188"
     d="m 262.80316,165.67117 -7.3,-7.3 c 4,4 4,10.5 0,14.5 l -0.5,0.5 c -4,4 -10.5,4 -14.5,0 l -14.4,-14.4 c 0,0 0,0 0,0 l 21.7,21.7 c 4,4 10.5,4 14.5,0 l 0.5,-0.5 c 4,-4 4,-10.5 0,-14.5 z"
     class="st3" /><g
     transform="translate(14.903152,-2.7288323)"
     id="g5192"><path
       d="m 171.8,155 c -26.1,0 -47.3,-21.2 -47.3,-47.3 0,-26.1 21.2,-47.3 47.3,-47.3 26.1,0 47.2,21.2 47.2,47.3 0,26.1 -21.2,47.3 -47.2,47.3 z m 0,-92.5 c -24.9,0 -45.2,20.3 -45.2,45.2 0,24.9 20.3,45.2 45.2,45.2 24.9,0 45.2,-20.3 45.2,-45.2 0,-24.9 -20.3,-45.2 -45.2,-45.2 z"
       id="path5190"
       inkscape:connector-curvature="0" /></g><g
     transform="translate(14.903152,-2.7288323)"
     id="g5196"><path
       d="m 191.4,87.9 c -0.3,0 -0.5,-0.1 -0.7,-0.3 -1.1,-1 -2.2,-1.9 -3.5,-2.8 -0.5,-0.3 -0.6,-1 -0.3,-1.4 0.3,-0.5 1,-0.6 1.4,-0.3 1.3,0.9 2.6,1.9 3.7,3 0.4,0.4 0.4,1 0,1.4 0,0.3 -0.3,0.4 -0.6,0.4 z"
       id="path5194"
       inkscape:connector-curvature="0" /></g><g
     transform="translate(14.903152,-2.7288323)"
     id="g5200"><path
       d="m 193.7,90.4 c -0.3,0 -0.6,-0.1 -0.8,-0.4 -0.7,-0.8 -1.5,-1.6 -2.2,-2.4 -0.4,-0.4 -0.4,-1 0,-1.4 0.4,-0.4 1,-0.4 1.4,0 0.8,0.8 1.7,1.7 2.4,2.6 0.4,0.4 0.3,1.1 -0.1,1.4 -0.2,0.1 -0.4,0.2 -0.7,0.2 z"
       id="path5198"
       inkscape:connector-curvature="0" /></g><g
     transform="translate(14.903152,-2.7288323)"
     id="g5204"><path
       d="m 171.8,137.3 c -16.3,0 -29.6,-13.3 -29.6,-29.6 0,-16.3 13.3,-29.6 29.6,-29.6 3.9,0 7.6,0.7 11.1,2.2 0.5,0.2 0.8,0.8 0.6,1.3 -0.2,0.5 -0.8,0.8 -1.3,0.6 -3.3,-1.3 -6.8,-2 -10.4,-2 -15.2,0 -27.6,12.4 -27.6,27.6 0,15.2 12.4,27.6 27.6,27.6 15.2,0 27.6,-12.4 27.6,-27.6 0,-4.6 -1.2,-9.2 -3.4,-13.3 -0.3,-0.5 -0.1,-1.1 0.4,-1.4 0.5,-0.3 1.1,-0.1 1.4,0.4 2.4,4.3 3.6,9.3 3.6,14.2 0,16.3 -13.3,29.6 -29.6,29.6 z"
       id="path5202"
       inkscape:connector-curvature="0" /></g><g
     transform="translate(14.903152,-2.7288323)"
     id="g5208"><path
       d="m 240.2,187.4 c -2.9,0 -5.8,-1.1 -8,-3.3 l -21.7,-21.7 c -2.3,-2.3 -2.3,-5.9 0,-8.2 l 8.3,-8.3 c 1.1,-1.1 2.5,-1.7 4.1,-1.7 1.5,0 3,0.6 4.1,1.7 l 21.7,21.7 c 2.1,2.1 3.3,5 3.3,8 0,3 -1.2,5.8 -3.3,8 l -0.5,0.5 c -2.3,2.2 -5.1,3.3 -8,3.3 z m -17.3,-41 c -1,0 -1.9,0.4 -2.6,1.1 l -8.3,8.3 c -1.5,1.5 -1.5,3.8 0,5.3 l 21.7,21.7 c 3.6,3.6 9.5,3.6 13.1,0 l 0.5,-0.5 c 0,0 0,0 0,0 1.7,-1.7 2.7,-4.1 2.7,-6.5 0,-2.5 -1,-4.8 -2.7,-6.5 l -21.7,-21.7 c -0.8,-0.8 -1.7,-1.2 -2.7,-1.2 z"
       id="path5206"
       inkscape:connector-curvature="0" /></g><g
     transform="translate(14.903152,-2.7288323)"
     id="g5212"><path
       d="m 212.2,155.1 c -0.3,0 -0.5,-0.1 -0.7,-0.3 L 200.6,144 c -0.2,-0.2 -0.3,-0.5 -0.3,-0.8 0,-0.3 0.1,-0.6 0.4,-0.7 2.6,-2.1 4.9,-4.6 7,-7.3 0.2,-0.2 0.5,-0.4 0.7,-0.4 0.3,0 0.6,0.1 0.8,0.3 l 11,11 c 0.2,0.2 0.3,0.5 0.3,0.7 0,0.2 -0.1,0.5 -0.3,0.7 l -7.3,7.3 c -0.2,0.2 -0.4,0.3 -0.7,0.3 z m -9.3,-11.8 9.3,9.3 5.8,-5.8 -9.4,-9.4 c -1.7,2.1 -3.7,4.1 -5.7,5.9 z"
       id="path5210"
       inkscape:connector-curvature="0" /></g></g></svg>