<?xml version="1.0" encoding="UTF-8" standalone="no"?>
<!-- Generator: Adobe Illustrator 24.3.0, SVG Export Plug-In . SVG Version: 6.00 Build 0)  -->

<svg
   xmlns:dc="http://purl.org/dc/elements/1.1/"
   xmlns:cc="http://creativecommons.org/ns#"
   xmlns:rdf="http://www.w3.org/1999/02/22-rdf-syntax-ns#"
   xmlns:svg="http://www.w3.org/2000/svg"
   xmlns="http://www.w3.org/2000/svg"
   xmlns:sodipodi="http://sodipodi.sourceforge.net/DTD/sodipodi-0.dtd"
   xmlns:inkscape="http://www.inkscape.org/namespaces/inkscape"
   version="1.1"
   id="Capa_1"
   x="0px"
   y="0px"
   viewBox="0 0 300 200"
   style="enable-background:new 0 0 300 200;"
   xml:space="preserve"
   sodipodi:docname="pam-monitor.svg"
   inkscape:version="0.92.5 (2060ec1f9f, 2020-04-08)"><metadata
   id="metadata8447"><rdf:RDF><cc:Work
       rdf:about=""><dc:format>image/svg+xml</dc:format><dc:type
         rdf:resource="http://purl.org/dc/dcmitype/StillImage" /><dc:title /></cc:Work></rdf:RDF></metadata><defs
   id="defs8445" /><sodipodi:namedview
   pagecolor="#ffffff"
   bordercolor="#666666"
   borderopacity="1"
   objecttolerance="10"
   gridtolerance="10"
   guidetolerance="10"
   inkscape:pageopacity="0"
   inkscape:pageshadow="2"
   inkscape:window-width="1920"
   inkscape:window-height="1043"
   id="namedview8443"
   showgrid="false"
   inkscape:zoom="2.22"
   inkscape:cx="69.594595"
   inkscape:cy="93.629669"
   inkscape:window-x="0"
   inkscape:window-y="1080"
   inkscape:window-maximized="1"
   inkscape:current-layer="Capa_1" />
<style
   type="text/css"
   id="style8378">
	.st0{fill:#5F7993;}
	.st1{fill:#17B5C8;}
	.st2{fill:#11828F;}
	.st3{fill:#405162;}
	.st4{fill:#A6D100;}
	.st5{fill:#89AB00;}
	.st6{fill:#FFFFFF;}
	.st7{fill:none;stroke:#17B5C8;stroke-width:2;stroke-miterlimit:10;}
</style>

















<g
   id="g9994"
   transform="translate(140.54054,-7.6576577)"><ellipse
     id="ellipse8380"
     ry="8.1475315"
     rx="8.2236776"
     cy="112.31622"
     cx="-67.591255"
     class="st1"
     style="fill:#17b5c8;stroke-width:0.7614516" /><path
     id="path8382"
     d="m -67.59125,104.1687 c -0.91374,0 -1.82749,0.15229 -2.66508,0.45687 3.27424,1.06603 5.55859,4.11184 5.55859,7.69066 0,3.57882 -2.3605,6.62463 -5.55859,7.69066 0.83759,0.30458 1.75134,0.45687 2.66508,0.45687 4.56871,0 8.22367,-3.65496 8.22367,-8.14753 0,-4.49256 -3.73111,-8.14753 -8.22367,-8.14753 z"
     class="st2"
     inkscape:connector-curvature="0"
     style="fill:#11828f;stroke-width:0.7614516" /><g
     transform="matrix(0.76145159,0,0,0.76145159,-178.83933,15.611874)"
     id="g8388">
	<polygon
   id="polygon8384"
   points="174.8,81.2 172.1,73.5 137.5,82.6 133.5,78.7 115.3,83.2 118.8,96.1 "
   class="st1"
   style="fill:#17b5c8" />
	<path
   id="path8386"
   d="m 118.8,97.1 c -0.2,0 -0.3,0 -0.5,-0.1 -0.2,-0.1 -0.4,-0.3 -0.5,-0.6 l -3.5,-12.9 c -0.1,-0.3 0,-0.5 0.1,-0.8 0.1,-0.2 0.4,-0.4 0.6,-0.5 l 18.2,-4.5 c 0.3,-0.1 0.7,0 0.9,0.3 l 3.6,3.5 34,-8.9 c 0.5,-0.1 1,0.1 1.2,0.6 l 2.7,7.6 c 0.1,0.3 0.1,0.5 -0.1,0.8 -0.1,0.2 -0.4,0.4 -0.6,0.5 l -56,15 c 0.1,0 0,0 -0.1,0 z m -2.2,-13.2 3,11 54,-14.4 -2,-5.8 -33.7,8.8 c -0.3,0.1 -0.7,0 -1,-0.3 l -3.6,-3.5 z"
   inkscape:connector-curvature="0" />
</g><g
     transform="matrix(0.76145159,0,0,0.76145159,-178.83933,15.611874)"
     id="g8394">
	<polygon
   id="polygon8390"
   points="133.5,78.7 115.3,83.2 100.7,72.2 172.2,53.6 176.5,72.4 137.5,82.6 "
   class="st0"
   style="fill:#5f7993" />
	<path
   id="path8392"
   d="m 115.3,84.2 c -0.2,0 -0.4,-0.1 -0.6,-0.2 L 100,72.9 c -0.3,-0.2 -0.5,-0.6 -0.4,-1 0.1,-0.4 0.4,-0.7 0.7,-0.8 l 71.5,-18.5 c 0.3,-0.1 0.5,0 0.8,0.1 0.2,0.1 0.4,0.4 0.5,0.6 l 4.3,18.8 c 0.1,0.5 -0.2,1 -0.7,1.2 l -39,10.2 c -0.3,0.1 -0.7,0 -1,-0.3 l -3.6,-3.5 -17.6,4.4 c 0,0.1 -0.1,0.1 -0.2,0.1 z m -12.4,-11.6 12.7,9.5 17.7,-4.4 c 0.3,-0.1 0.7,0 0.9,0.3 l 3.6,3.5 37.5,-9.8 -3.9,-16.8 z"
   inkscape:connector-curvature="0" />
</g><path
     id="path8396"
     d="m 0.63481,45.689212 c -15.91434,0 -28.78287,-12.792387 -28.78287,-28.554435 0,0 0,-0.07615 0,-0.07615 h -37.31113 -0.22843 -37.31113 c 0,0 0,0.07615 0,0.07615 0,15.762048 -12.86853,28.554435 -28.78287,28.554435 -0.22844,0 -0.38073,0 -0.60916,0 v 1.675193 c 0,98.760275 62.51517,119.091035 66.62701,120.385505 v 0.0761 c 0,0 0.0762,0 0.0762,0 0.0761,0 0.0761,0 0.0761,0 v -0.0761 C -61.42348,166.53158 1.01555,146.12468 1.01555,47.364405 v -1.675193 c 0,0 -0.15229,0 -0.38073,0 z M -65.53533,156.55657 c -11.72636,-4.79715 -53.30161,-27.03153 -55.9667,-101.577649 13.40155,-3.578822 24.06187,-14.010709 27.79299,-27.336112 h 56.34742 c 3.73111,13.325403 14.39143,23.75729 27.79298,27.336112 -2.66508,74.546119 -44.24034,96.780499 -55.96669,101.577649 z"
     class="st4"
     inkscape:connector-curvature="0"
     style="fill:#a6d100;stroke-width:0.7614516" /><path
     id="path8398"
     d="m -97.59245,16.525616 h -4.5687 c 0,0 0,0.07615 0,0.07615 0,15.762048 -12.86854,28.554435 -28.78287,28.554435 -0.22844,0 -0.38073,0 -0.60917,0 v 1.675193 c 0,1.142178 0,2.284355 0,3.426532 7.69066,-1.218322 36.54968,-7.766806 33.96074,-33.732305 z"
     class="st5"
     inkscape:connector-curvature="0"
     style="fill:#89ab00;stroke-width:0.7614516" /><path
     id="path8400"
     d="M 2.00542,45.613067 1.54855,45.232341 c -0.0761,0 -0.0761,0 -0.15229,0 -14.54372,0 -27.41226,-14.772161 -29.39203,-28.63058 h -3.8834 -1.14218 c 1.44676,12.716242 7.23379,28.249854 34.95063,32.742418 0,-0.761451 0,-1.599048 0,-2.360499 v -1.370613 z"
     class="st5"
     inkscape:connector-curvature="0"
     style="fill:#89ab00;stroke-width:0.7614516" /><g
     transform="matrix(0.76145159,0,0,0.76145159,-178.83933,15.611874)"
     id="g8408">
	<path
   id="path8402"
   d="m 115.2,179.7 -4.4,-3 c 0.1,0.1 1.6,1.3 4.4,3 z"
   class="st5"
   inkscape:connector-curvature="0"
   style="fill:#89ab00" />
	<path
   id="path8404"
   d="m 183.7,179.5 -0.2,0.1 c 0,0 0.1,0 0.2,-0.1 0,0 0,0 0,0 z"
   class="st5"
   inkscape:connector-curvature="0"
   style="fill:#89ab00" />
	<path
   id="path8406"
   d="m 115.2,179.7 24.2,16.4 c 4.9,2.3 8.2,3.4 9.2,3.6 v 0.1 c 0,0 0.1,0 0.1,0 0.1,0 0.1,0 0.1,0 v -0.1 c 0.6,-0.2 2,-0.6 4.1,-1.4 l 30.4,-18.7 c -31.4,18.2 -58,6.3 -68.1,0.1 z"
   class="st5"
   inkscape:connector-curvature="0"
   style="fill:#89ab00" />
</g><g
     transform="matrix(0.76145159,0,0,0.76145159,-178.83933,15.611874)"
     id="g8412">
	<path
   id="path8410"
   d="m 149.6,200.3 c -0.2,0 -0.4,-0.1 -0.6,-0.2 0,0 0,0 0,0 -3.7,-1.2 -18.8,-6.5 -35.6,-21.2 -23,-20 -38.7,-47.8 -46.5,-82.6 -0.1,-0.5 0.2,-1.1 0.8,-1.2 0.5,-0.1 1.1,0.2 1.2,0.8 7.8,34.4 23.2,61.8 45.9,81.5 17.1,14.9 32.8,20.1 35.1,20.8 6.1,-1.9 54,-18.4 75.9,-84.2 0.2,-0.5 0.7,-0.8 1.3,-0.6 0.5,0.2 0.8,0.7 0.6,1.3 -22.1,66.3 -70.4,83.4 -77.1,85.4 -0.2,0.1 -0.4,0.2 -0.7,0.2 -0.1,0 -0.2,0 -0.3,0 z m 0.2,-14.9 c -0.1,0 -0.3,0 -0.4,-0.1 C 132.9,178.5 78.8,148.9 75.3,51 c 0,-0.5 0.3,-0.9 0.7,-1 17.3,-4.6 31,-18.1 35.8,-35.2 0.1,-0.4 0.5,-0.7 1,-0.7 h 74 c 0.4,0 0.8,0.3 1,0.7 4.8,17.1 18.5,30.6 35.8,35.2 0.5,0.1 0.8,0.5 0.7,1 -3.5,97.8 -57.6,127.5 -74.1,134.3 -0.1,0.1 -0.3,0.1 -0.4,0.1 z M 77.3,51.8 c 3.7,95.3 55.9,124.6 72.5,131.6 16.6,-6.9 68.8,-36.3 72.5,-131.6 C 205,46.9 191.2,33.3 186.1,16.2 H 113.6 C 108.4,33.3 94.7,46.9 77.3,51.8 Z m 154.8,43.9 c -0.1,0 -0.1,0 -0.2,0 -0.5,-0.1 -0.9,-0.6 -0.8,-1.2 3.6,-16.3 5.4,-34.3 5.4,-53.4 V 39.9 C 215.5,39.8 198.4,23 197.9,2.3 H 101.6 C 101.2,23 84.1,39.8 63.1,39.9 v 1.2 c 0,14.4 1,28.2 3.1,41.1 0.1,0.5 -0.3,1.1 -0.8,1.1 C 64.9,83.4 64.3,83 64.3,82.5 62.2,69.6 61.2,55.6 61.2,41.1 v -2.2 c 0,-0.3 0.1,-0.5 0.3,-0.7 0.2,-0.2 0.4,-0.3 0.7,-0.3 h 0.3 c 0.1,0 0.3,0 0.4,0 20.3,0 36.8,-16.4 36.8,-36.5 0,-0.5 0.4,-1.1 1,-1.1 H 199 c 0.6,0 1,0.4 1,1 0,0 0,0.1 0,0.1 0,20.1 16.5,36.5 36.8,36.5 0.1,0 0.3,0 0.4,0 h 0.3 c 0.3,0 0.5,0.1 0.7,0.3 0.2,0.2 0.3,0.4 0.3,0.7 v 2.2 c 0,19.3 -1.8,37.4 -5.5,53.9 -0.1,0.4 -0.5,0.7 -0.9,0.7 z"
   inkscape:connector-curvature="0" />
</g><g
     transform="matrix(0.76145159,0,0,0.76145159,-178.83933,15.611874)"
     id="g8416">
	<path
   id="path8414"
   d="m 115.3,84.2 c -0.2,0 -0.4,-0.1 -0.6,-0.2 L 100,72.9 c -0.3,-0.2 -0.5,-0.6 -0.4,-1 0.1,-0.4 0.4,-0.7 0.7,-0.8 l 71.5,-18.5 c 0.3,-0.1 0.5,0 0.8,0.1 0.2,0.1 0.4,0.4 0.5,0.6 l 4.3,18.8 c 0.1,0.5 -0.2,1 -0.7,1.2 l -39,10.2 c -0.3,0.1 -0.7,0 -1,-0.3 l -3.6,-3.5 -17.6,4.4 c 0,0.1 -0.1,0.1 -0.2,0.1 z m -12.4,-11.6 12.7,9.5 17.7,-4.4 c 0.3,-0.1 0.7,0 0.9,0.3 l 3.6,3.5 37.5,-9.8 -3.9,-16.8 z"
   inkscape:connector-curvature="0" />
</g><path
     id="path8418"
     d="m -59.06299,81.020566 13.09696,-4.340274 -0.30458,-0.837597 -2.20821,-3.883403 -13.85842,4.035693 c 0,0 -1.67519,4.644855 -4.94943,7.23379 z"
     class="st2"
     inkscape:connector-curvature="0"
     style="fill:#11828f;stroke-width:0.7614516" /><g
     transform="matrix(0.76145159,0,0,0.76145159,-178.83933,15.611874)"
     id="g8422">
	<path
   id="path8420"
   d="m 146.1,138.7 c -6.5,0 -11.8,-5.3 -11.8,-11.7 0,-6.4 5.3,-11.7 11.8,-11.7 6.5,0 11.8,5.3 11.8,11.7 0,6.4 -5.3,11.7 -11.8,11.7 z m 0,-21.4 c -5.4,0 -9.8,4.4 -9.8,9.7 0,5.4 4.4,9.7 9.8,9.7 5.4,0 9.8,-4.4 9.8,-9.7 0,-5.3 -4.4,-9.7 -9.8,-9.7 z"
   inkscape:connector-curvature="0" />
</g><polygon
     transform="matrix(0.76145159,0,0,0.76145159,-178.83933,15.611874)"
     id="polygon8424"
     points="133.5,78.7 137.5,82.6 176.5,72.4 175.3,67.3 141.3,76.4 136.6,70.2 110.6,77 109.1,78.5 115.3,83.2 "
     class="st3"
     style="fill:#405162" /><g
     transform="matrix(0.76145159,0,0,0.76145159,-178.83933,15.611874)"
     id="g8428">
	<path
   id="path8426"
   d="m 118.8,97.1 c -0.2,0 -0.3,0 -0.5,-0.1 -0.2,-0.1 -0.4,-0.3 -0.5,-0.6 l -3.5,-12.9 c -0.1,-0.3 0,-0.5 0.1,-0.8 0.1,-0.2 0.4,-0.4 0.6,-0.5 l 18.2,-4.5 c 0.3,-0.1 0.7,0 0.9,0.3 l 3.6,3.5 34,-8.9 c 0.5,-0.1 1,0.1 1.2,0.6 l 2.7,7.6 c 0.1,0.3 0.1,0.5 -0.1,0.8 -0.1,0.2 -0.4,0.4 -0.6,0.5 l -56,15 c 0.1,0 0,0 -0.1,0 z m -2.2,-13.2 3,11 54,-14.4 -2,-5.8 -33.7,8.8 c -0.3,0.1 -0.7,0 -1,-0.3 l -3.6,-3.5 z"
   inkscape:connector-curvature="0" />
</g><g
     transform="matrix(0.76145159,0,0,0.76145159,-178.83933,15.611874)"
     id="g8432">
	<path
   id="path8430"
   d="m 115.3,96.7 c -7,0 -12.7,-5.7 -12.7,-12.6 0,-3 1.1,-5.9 3.1,-8.2 0.3,-0.4 0.9,-0.5 1.4,-0.1 l 9,6.8 c 0.2,0.1 0.3,0.3 0.4,0.5 l 3.2,12 c 0.1,0.5 -0.2,1.1 -0.7,1.2 -1.3,0.2 -2.5,0.4 -3.7,0.4 z m -8.7,-18.9 c -1.3,1.8 -2,4 -2,6.2 0,5.9 4.8,10.6 10.7,10.6 0.7,0 1.4,-0.1 2.1,-0.2 l -2.9,-10.7 z"
   inkscape:connector-curvature="0" />
</g><g
     transform="matrix(0.76145159,0,0,0.76145159,-178.83933,15.611874)"
     id="g8436">
	<path
   id="path8434"
   d="m 140.9,118.6 c -0.2,0 -0.4,0 -0.5,-0.1 -0.3,-0.2 -0.5,-0.5 -0.5,-0.9 V 90.3 c 0,-0.4 0.3,-0.8 0.7,-1 l 10.3,-2.8 c 0.3,-0.1 0.6,0 0.9,0.2 0.2,0.2 0.4,0.5 0.4,0.8 v 30 c 0,0.3 -0.2,0.7 -0.5,0.9 -0.3,0.2 -0.7,0.2 -1,0 -1.4,-0.8 -3,-1.1 -4.6,-1.1 -1.7,0 -3.3,0.4 -4.8,1.2 -0.1,0.1 -0.3,0.1 -0.4,0.1 z m 1,-27.6 v 25.1 c 2.6,-1 5.6,-1 8.3,-0.1 V 88.8 Z"
   inkscape:connector-curvature="0" />
</g><g
     transform="matrix(0.76145159,0,0,0.76145159,-178.83933,15.611874)"
     id="g8440">
	<path
   id="path8438"
   d="m 186.1,132.1 h -30 c -0.3,0 -0.6,-0.2 -0.8,-0.4 -0.2,-0.3 -0.2,-0.6 -0.1,-0.9 0.5,-1.2 0.7,-2.4 0.7,-3.7 0,-1.5 -0.3,-2.9 -1,-4.3 -0.2,-0.3 -0.1,-0.7 0,-1 0.1,-0.3 0.5,-0.5 0.8,-0.5 H 186 c 0.6,0 1,0.4 1,1 v 8.8 c 0.1,0.5 -0.4,1 -0.9,1 z m -28.6,-2 h 27.6 v -6.8 h -27.8 c 0.4,1.2 0.6,2.5 0.6,3.7 0,1.1 -0.2,2.1 -0.4,3.1 z"
   inkscape:connector-curvature="0" />
</g></g><g
   id="g9961"
   transform="matrix(1.1660962,0,0,1.1660962,-38.934706,-38.120959)"><g
     transform="translate(46.396396,-9.009009)"
     id="g9907"><circle
       style="opacity:1;fill:none;fill-opacity:1;fill-rule:nonzero;stroke:#000000;stroke-width:2.9434011;stroke-linecap:round;stroke-linejoin:round;stroke-miterlimit:4;stroke-dasharray:none;stroke-dashoffset:0;stroke-opacity:1"
       id="path9075"
       cx="136.48648"
       cy="170.72072"
       r="77.17588" /><circle
       style="opacity:1;fill:none;fill-opacity:1;fill-rule:nonzero;stroke:#000000;stroke-width:3.34471631;stroke-linecap:round;stroke-linejoin:round;stroke-miterlimit:4;stroke-dasharray:none;stroke-dashoffset:0;stroke-opacity:1"
       id="path9077"
       cx="136.48648"
       cy="170.72072"
       r="45.443695" /><path
       style="opacity:1;fill:#17b5c8;fill-opacity:1;fill-rule:nonzero;stroke:#000000;stroke-width:0.42562249;stroke-linecap:round;stroke-linejoin:round;stroke-miterlimit:4;stroke-dasharray:none;stroke-dashoffset:0;stroke-opacity:1"
       d="m 131.28378,246.17099 c -3.56946,-0.3558 -5.7337,-0.63159 -7.88288,-1.00452 -24.755283,-4.29559 -46.029729,-21.0143 -56.161648,-44.13511 -2.896564,-6.6099 -4.727767,-13.25397 -5.802754,-21.05388 -0.561262,-4.07242 -0.56657,-14.28727 -0.0096,-18.46847 1.694909,-12.72365 6.278253,-24.52844 13.392034,-34.49229 12.282052,-17.20275 30.803688,-28.375821 51.847738,-31.276848 3.64619,-0.502646 12.04097,-0.686264 16.02368,-0.350483 14.82534,1.249919 28.52036,6.628241 40.50785,15.908281 3.23071,2.50103 10.09949,9.34453 12.53225,12.48611 9.40429,12.14438 14.7158,25.47755 16.06033,40.31532 0.30019,3.31273 0.30147,9.95334 0.003,13.28829 -1.17497,13.10944 -5.8352,25.89081 -13.34348,36.59648 -4.76238,6.79045 -11.50147,13.60721 -18.05351,18.2616 -10.2041,7.24871 -22.0995,11.89469 -34.58554,13.50806 -2.66272,0.34406 -12.44361,0.62513 -14.52703,0.41746 z m 9.82975,-28.47774 c 21.17062,-2.13016 38.18995,-17.95686 41.88993,-38.95451 0.5877,-3.33526 0.80204,-9.63068 0.43708,-12.83784 -1.00475,-8.82958 -4.01212,-16.53076 -9.191,-23.53603 -1.90437,-2.57597 -6.78544,-7.46654 -9.36995,-9.38818 -14.33972,-10.66193 -33.5195,-12.44116 -49.28081,-4.57159 -14.71431,7.34682 -24.408192,21.35523 -26.08067,37.68859 -1.56054,15.2402 4.753126,30.85543 16.42525,40.62361 9.90508,8.28937 22.5746,12.24329 35.17017,10.97595 z"
       id="path9758"
       inkscape:connector-curvature="0" /><path
       style="opacity:1;fill:#5f7993;fill-opacity:1;fill-rule:nonzero;stroke:#000000;stroke-width:3.12994838;stroke-linecap:round;stroke-linejoin:round;stroke-miterlimit:4;stroke-dasharray:none;stroke-dashoffset:0;stroke-opacity:1"
       d="m 150.62047,171.63981 c 0,7.69157 -6.23525,13.92682 -13.92682,13.92682 -7.69157,0 -13.92682,-6.23525 -13.92682,-13.92682 0,-7.69157 6.23525,-13.92693 13.92682,-13.92693 1.92289,0 3.75477,0.38971 5.42095,1.09446 l 62.34901,-42.21767 -54.93758,49.6292 c 0.70474,1.66617 1.09444,3.49805 1.09444,5.42094 z"
       id="path9762"
       inkscape:connector-curvature="0"
       sodipodi:nodetypes="sssscccs" /><path
       style="fill:#11778e;stroke:none;stroke-width:1px;stroke-linecap:butt;stroke-linejoin:miter;stroke-opacity:1"
       d="M 90.990991,230.63063 C 64.881067,211.15328 61.613172,189.7485 61.036036,168.91892 60.4589,148.08933 68.304249,131.23727 84.459459,116.21622 100.61467,101.19516 122.15822,92.736176 145.4955,95.495495 c -20.1489,5.000495 -41.14653,14.970825 -53.603608,29.729735 -12.457075,14.7589 -17.253078,24.85282 -17.792793,43.46847 -0.539715,18.61564 4.779935,41.53134 16.891892,61.93693 z"
       id="path9769"
       inkscape:connector-curvature="0"
       sodipodi:nodetypes="czzczzc" /><path
       style="fill:none;stroke:#000000;stroke-width:1.46090698px;stroke-linecap:butt;stroke-linejoin:miter;stroke-opacity:1"
       d="m 135.82595,245.20346 v -16.94793 0"
       id="path1223-3"
       inkscape:connector-curvature="0" /><path
       style="fill:none;stroke:#000000;stroke-width:1.46090698px;stroke-linecap:butt;stroke-linejoin:miter;stroke-opacity:1"
       d="m 107.1334,220.60765 -8.792568,14.48879 v 0"
       id="path1223-56-2"
       inkscape:connector-curvature="0"
       inkscape:transform-center-x="1.286964"
       inkscape:transform-center-y="2.0365707" /><path
       style="fill:none;stroke:#000000;stroke-width:1.46090698px;stroke-linecap:butt;stroke-linejoin:miter;stroke-opacity:1"
       d="m 135.62419,100.74251 v 16.94792 0"
       id="path1223-5"
       inkscape:connector-curvature="0" /><path
       style="fill:none;stroke:#000000;stroke-width:1.46090698px;stroke-linecap:butt;stroke-linejoin:miter;stroke-opacity:1"
       d="m 164.31674,220.40589 8.79257,14.48879 v 0"
       id="path1223-56-1"
       inkscape:connector-curvature="0"
       inkscape:transform-center-x="-1.2869675"
       inkscape:transform-center-y="2.0365683" /><path
       style="fill:none;stroke:#000000;stroke-width:1.46090698px;stroke-linecap:butt;stroke-linejoin:miter;stroke-opacity:1"
       d="m 98.340832,111.45484 8.792578,14.48879 v 0"
       id="path1223-56-1-2"
       inkscape:connector-curvature="0"
       inkscape:transform-center-x="-1.2869635"
       inkscape:transform-center-y="2.036571" /><path
       style="fill:none;stroke:#000000;stroke-width:1.46090698px;stroke-linecap:butt;stroke-linejoin:miter;stroke-opacity:1"
       d="m 88.191307,201.86732 -14.488794,8.79256 v 0"
       id="path1223-56-1-2-7-0"
       inkscape:connector-curvature="0"
       inkscape:transform-center-x="2.0365701"
       inkscape:transform-center-y="1.2869548" /><path
       style="fill:none;stroke:#000000;stroke-width:1.46090698px;stroke-linecap:butt;stroke-linejoin:miter;stroke-opacity:1"
       d="m 197.74762,210.65983 -14.48879,-8.79256 v 0"
       id="path1223-56-1-2-7-9"
       inkscape:connector-curvature="0"
       inkscape:transform-center-x="2.0365682"
       inkscape:transform-center-y="-1.2869567" /><path
       style="fill:none;stroke:#000000;stroke-width:1.46090698px;stroke-linecap:butt;stroke-linejoin:miter;stroke-opacity:1"
       d="m 88.393069,143.87693 -14.488792,-8.79255 v 0"
       id="path1223-56-1-2-7-9-3"
       inkscape:connector-curvature="0"
       inkscape:transform-center-x="2.0365702"
       inkscape:transform-center-y="-1.2869587" /><path
       style="fill:none;stroke:#000000;stroke-width:1.46090698px;stroke-linecap:butt;stroke-linejoin:miter;stroke-opacity:1"
       d="M 83.24874,169.11712 H 66.300811 v 0"
       id="path1223-36"
       inkscape:connector-curvature="0" /></g><path
     inkscape:connector-curvature="0"
     id="path1223"
     d="m 251.75411,161.4863 h -16.94793 v 0"
     style="fill:none;stroke:#000000;stroke-width:1.46090698px;stroke-linecap:butt;stroke-linejoin:miter;stroke-opacity:1" /><path
     inkscape:transform-center-y="2.0365714"
     inkscape:transform-center-x="1.2869619"
     inkscape:connector-curvature="0"
     id="path1223-56"
     d="m 216.71384,99.79498 -8.79257,14.48879 v 0"
     style="fill:none;stroke:#000000;stroke-width:1.46090698px;stroke-linecap:butt;stroke-linejoin:miter;stroke-opacity:1" /><path
     inkscape:transform-center-y="1.2869592"
     inkscape:transform-center-x="2.0365753"
     inkscape:connector-curvature="0"
     id="path1223-56-1-2-7"
     d="m 240.71825,124.16285 -14.4888,8.79255 v 0"
     style="fill:none;stroke:#000000;stroke-width:1.46090698px;stroke-linecap:butt;stroke-linejoin:miter;stroke-opacity:1" /></g></svg>