<?xml version="1.0" encoding="UTF-8" standalone="no"?>
<!-- Generator: Adobe Illustrator 24.3.0, SVG Export Plug-In . SVG Version: 6.00 Build 0)  -->

<svg
   xmlns:dc="http://purl.org/dc/elements/1.1/"
   xmlns:cc="http://creativecommons.org/ns#"
   xmlns:rdf="http://www.w3.org/1999/02/22-rdf-syntax-ns#"
   xmlns:svg="http://www.w3.org/2000/svg"
   xmlns="http://www.w3.org/2000/svg"
   xmlns:sodipodi="http://sodipodi.sourceforge.net/DTD/sodipodi-0.dtd"
   xmlns:inkscape="http://www.inkscape.org/namespaces/inkscape"
   version="1.1"
   id="Capa_1"
   x="0px"
   y="0px"
   viewBox="0 0 300 200"
   style="enable-background:new 0 0 300 200;"
   xml:space="preserve"
   sodipodi:docname="pam-actions.svg"
   inkscape:version="0.92.5 (2060ec1f9f, 2020-04-08)"><metadata
   id="metadata1883"><rdf:RDF><cc:Work
       rdf:about=""><dc:format>image/svg+xml</dc:format><dc:type
         rdf:resource="http://purl.org/dc/dcmitype/StillImage" /><dc:title></dc:title></cc:Work></rdf:RDF></metadata><defs
   id="defs1881" /><sodipodi:namedview
   pagecolor="#ffffff"
   bordercolor="#666666"
   borderopacity="1"
   objecttolerance="10"
   gridtolerance="10"
   guidetolerance="10"
   inkscape:pageopacity="0"
   inkscape:pageshadow="2"
   inkscape:window-width="1920"
   inkscape:window-height="1025"
   id="namedview1879"
   showgrid="false"
   inkscape:zoom="3.0016683"
   inkscape:cx="148.39404"
   inkscape:cy="89.52343"
   inkscape:window-x="0"
   inkscape:window-y="29"
   inkscape:window-maximized="1"
   inkscape:current-layer="Capa_1"
   showguides="true"
   inkscape:guide-bbox="true" />
<style
   type="text/css"
   id="style1814">
	.st0{fill:#5F7993;}
	.st1{fill:#17B5C8;}
	.st2{fill:#11828F;}
	.st3{fill:#405162;}
	.st4{fill:#A6D100;}
	.st5{fill:#89AB00;}
	.st6{fill:#FFFFFF;}
	.st7{fill:none;stroke:#17B5C8;stroke-width:2;stroke-miterlimit:10;}
</style>

















<g
   id="g2287"
   transform="matrix(1.3759406,0,0,1.3759406,-64.507025,-38.024923)"><path
     transform="scale(-1,1)"
     d="m -114.41327,74.124265 a 52.137672,52.137672 0 0 1 -0.22822,57.175715"
     sodipodi:open="true"
     sodipodi:end="0.58434445"
     sodipodi:start="5.7068237"
     sodipodi:ry="52.137672"
     sodipodi:rx="52.137672"
     sodipodi:cy="102.53809"
     sodipodi:cx="-158.12816"
     sodipodi:type="arc"
     id="path2149-1-9"
     style="opacity:1;fill:none;fill-opacity:1;fill-rule:nonzero;stroke:#11778e;stroke-width:6.61417341;stroke-linecap:round;stroke-linejoin:round;stroke-miterlimit:4;stroke-dasharray:none;stroke-dashoffset:0;stroke-opacity:1" /><path
     transform="scale(-1,1)"
     d="m -95.027469,58.56154 a 76.124336,78.62294 0 0 1 0.752254,87.79594"
     sodipodi:open="true"
     sodipodi:end="0.58355507"
     sodipodi:start="5.6819318"
     sodipodi:ry="78.62294"
     sodipodi:rx="76.124336"
     sodipodi:cy="103.0367"
     sodipodi:cx="-157.80167"
     sodipodi:type="arc"
     id="path2151-8-2"
     style="opacity:1;fill:none;fill-opacity:1;fill-rule:nonzero;stroke:#405162;stroke-width:6.61417341;stroke-linecap:round;stroke-linejoin:round;stroke-miterlimit:4;stroke-dasharray:none;stroke-dashoffset:0;stroke-opacity:1" /><path
     transform="scale(-1,1)"
     d="M -74.548416,44.378693 A 100.80588,105.2748 0 0 1 -72.26871,158.49002"
     sodipodi:open="true"
     sodipodi:end="0.55205792"
     sodipodi:start="5.6894063"
     sodipodi:ry="105.2748"
     sodipodi:rx="100.80588"
     sodipodi:cy="103.27965"
     sodipodi:cx="-158.09958"
     sodipodi:type="arc"
     id="path2151-6-7-0"
     style="opacity:1;fill:none;fill-opacity:1;fill-rule:nonzero;stroke:#89ab00;stroke-width:6.61417341;stroke-linecap:round;stroke-linejoin:round;stroke-miterlimit:4;stroke-dasharray:none;stroke-dashoffset:0;stroke-opacity:1" /><g
     transform="matrix(1.7611461,0,0,1.7611461,-243.35478,-9.676413)"
     id="g2001"><path
       inkscape:connector-curvature="0"
       id="path2126"
       d="m 219.84134,48.480561 15.72438,-0.235571 7.71496,8.539458 v 0 c 0,0 -0.17668,6.065963 -1.06007,9.128383 -0.88339,3.06243 -8.87327,17.45513 -14.97845,17.62038 -6.10518,0.16525 -12.93674,-11.78999 -13.82013,-13.96902 -0.8834,-2.17904 -1.88458,-14.252063 -1.88458,-14.252063 l 4.53475,-2.29682 z"
       style="fill:#ffffff;stroke:none;stroke-width:1px;stroke-linecap:butt;stroke-linejoin:miter;stroke-opacity:1" /><g
       id="g1935"
       transform="matrix(0.19905771,0,0,0.19905771,197.50294,46.647821)"><ellipse
         id="ellipse1816"
         ry="10.7"
         rx="10.8"
         cy="127"
         cx="146.10001"
         class="st1"
         style="fill:#17b5c8" /><path
         id="path1818"
         d="m 146.1,116.3 c -1.2,0 -2.4,0.2 -3.5,0.6 4.3,1.4 7.3,5.4 7.3,10.1 0,4.7 -3.1,8.7 -7.3,10.1 1.1,0.4 2.3,0.6 3.5,0.6 6,0 10.8,-4.8 10.8,-10.7 0,-5.9 -4.9,-10.7 -10.8,-10.7 z"
         class="st2"
         inkscape:connector-curvature="0"
         style="fill:#11828f" /><g
         id="g1824">
	<polygon
   id="polygon1820"
   points="174.8,81.2 172.1,73.5 137.5,82.6 133.5,78.7 115.3,83.2 118.8,96.1 "
   class="st1"
   style="fill:#17b5c8" />
	<path
   id="path1822"
   d="m 118.8,97.1 c -0.2,0 -0.3,0 -0.5,-0.1 -0.2,-0.1 -0.4,-0.3 -0.5,-0.6 l -3.5,-12.9 c -0.1,-0.3 0,-0.5 0.1,-0.8 0.1,-0.2 0.4,-0.4 0.6,-0.5 l 18.2,-4.5 c 0.3,-0.1 0.7,0 0.9,0.3 l 3.6,3.5 34,-8.9 c 0.5,-0.1 1,0.1 1.2,0.6 l 2.7,7.6 c 0.1,0.3 0.1,0.5 -0.1,0.8 -0.1,0.2 -0.4,0.4 -0.6,0.5 l -56,15 c 0.1,0 0,0 -0.1,0 z m -2.2,-13.2 3,11 54,-14.4 -2,-5.8 -33.7,8.8 c -0.3,0.1 -0.7,0 -1,-0.3 l -3.6,-3.5 z"
   inkscape:connector-curvature="0" />
</g><g
         id="g1830">
	<polygon
   id="polygon1826"
   points="133.5,78.7 115.3,83.2 100.7,72.2 172.2,53.6 176.5,72.4 137.5,82.6 "
   class="st0"
   style="fill:#5f7993" />
	<path
   id="path1828"
   d="m 115.3,84.2 c -0.2,0 -0.4,-0.1 -0.6,-0.2 L 100,72.9 c -0.3,-0.2 -0.5,-0.6 -0.4,-1 0.1,-0.4 0.4,-0.7 0.7,-0.8 l 71.5,-18.5 c 0.3,-0.1 0.5,0 0.8,0.1 0.2,0.1 0.4,0.4 0.5,0.6 l 4.3,18.8 c 0.1,0.5 -0.2,1 -0.7,1.2 l -39,10.2 c -0.3,0.1 -0.7,0 -1,-0.3 l -3.6,-3.5 -17.6,4.4 c 0,0.1 -0.1,0.1 -0.2,0.1 z m -12.4,-11.6 12.7,9.5 17.7,-4.4 c 0.3,-0.1 0.7,0 0.9,0.3 l 3.6,3.5 37.5,-9.8 -3.9,-16.8 z"
   inkscape:connector-curvature="0" />
</g><path
         id="path1832"
         d="m 235.7,39.5 c -20.9,0 -37.8,-16.8 -37.8,-37.5 0,0 0,-0.1 0,-0.1 h -49 -0.3 -49 c 0,0 0,0.1 0,0.1 0,20.7 -16.9,37.5 -37.8,37.5 -0.3,0 -0.5,0 -0.8,0 v 2.2 c 0,129.7 82.1,156.4 87.5,158.1 v 0.1 c 0,0 0.1,0 0.1,0 0.1,0 0.1,0 0.1,0 v -0.1 c 5.5,-1.6 87.5,-28.4 87.5,-158.1 v -2.2 c 0,0 -0.2,0 -0.5,0 z M 148.8,185.1 C 133.4,178.8 78.8,149.6 75.3,51.7 92.9,47 106.9,33.3 111.8,15.8 h 74 c 4.9,17.5 18.9,31.2 36.5,35.9 -3.5,97.9 -58.1,127.1 -73.5,133.4 z"
         class="st4"
         inkscape:connector-curvature="0"
         style="fill:#a6d100" /><path
         id="path1834"
         d="m 106.7,1.2 h -6 c 0,0 0,0.1 0,0.1 0,20.7 -16.9,37.5 -37.8,37.5 -0.3,0 -0.5,0 -0.8,0 V 41 c 0,1.5 0,3 0,4.5 10.1,-1.6 48,-10.2 44.6,-44.3 z"
         class="st5"
         inkscape:connector-curvature="0"
         style="fill:#89ab00" /><path
         id="path1836"
         d="m 237.5,39.4 -0.6,-0.5 c -0.1,0 -0.1,0 -0.2,0 -19.1,0 -36,-19.4 -38.6,-37.6 h -5.1 -1.5 c 1.9,16.7 9.5,37.1 45.9,43 0,-1 0,-2.1 0,-3.1 v -1.8 z"
         class="st5"
         inkscape:connector-curvature="0"
         style="fill:#89ab00" /><g
         id="g1844">
	<path
   id="path1838"
   d="m 115.2,179.7 -4.4,-3 c 0.1,0.1 1.6,1.3 4.4,3 z"
   class="st5"
   inkscape:connector-curvature="0"
   style="fill:#89ab00" />
	<path
   id="path1840"
   d="m 183.7,179.5 -0.2,0.1 c 0,0 0.1,0 0.2,-0.1 0,0 0,0 0,0 z"
   class="st5"
   inkscape:connector-curvature="0"
   style="fill:#89ab00" />
	<path
   id="path1842"
   d="m 115.2,179.7 24.2,16.4 c 4.9,2.3 8.2,3.4 9.2,3.6 v 0.1 c 0,0 0.1,0 0.1,0 0.1,0 0.1,0 0.1,0 v -0.1 c 0.6,-0.2 2,-0.6 4.1,-1.4 l 30.4,-18.7 c -31.4,18.2 -58,6.3 -68.1,0.1 z"
   class="st5"
   inkscape:connector-curvature="0"
   style="fill:#89ab00" />
</g><g
         id="g1848">
	<path
   id="path1846"
   d="m 149.6,200.3 c -0.2,0 -0.4,-0.1 -0.6,-0.2 0,0 0,0 0,0 -3.7,-1.2 -18.8,-6.5 -35.6,-21.2 -23,-20 -38.7,-47.8 -46.5,-82.6 -0.1,-0.5 0.2,-1.1 0.8,-1.2 0.5,-0.1 1.1,0.2 1.2,0.8 7.8,34.4 23.2,61.8 45.9,81.5 17.1,14.9 32.8,20.1 35.1,20.8 6.1,-1.9 54,-18.4 75.9,-84.2 0.2,-0.5 0.7,-0.8 1.3,-0.6 0.5,0.2 0.8,0.7 0.6,1.3 -22.1,66.3 -70.4,83.4 -77.1,85.4 -0.2,0.1 -0.4,0.2 -0.7,0.2 -0.1,0 -0.2,0 -0.3,0 z m 0.2,-14.9 c -0.1,0 -0.3,0 -0.4,-0.1 C 132.9,178.5 78.8,148.9 75.3,51 c 0,-0.5 0.3,-0.9 0.7,-1 17.3,-4.6 31,-18.1 35.8,-35.2 0.1,-0.4 0.5,-0.7 1,-0.7 h 74 c 0.4,0 0.8,0.3 1,0.7 4.8,17.1 18.5,30.6 35.8,35.2 0.5,0.1 0.8,0.5 0.7,1 -3.5,97.8 -57.6,127.5 -74.1,134.3 -0.1,0.1 -0.3,0.1 -0.4,0.1 z M 77.3,51.8 c 3.7,95.3 55.9,124.6 72.5,131.6 16.6,-6.9 68.8,-36.3 72.5,-131.6 C 205,46.9 191.2,33.3 186.1,16.2 H 113.6 C 108.4,33.3 94.7,46.9 77.3,51.8 Z m 154.8,43.9 c -0.1,0 -0.1,0 -0.2,0 -0.5,-0.1 -0.9,-0.6 -0.8,-1.2 3.6,-16.3 5.4,-34.3 5.4,-53.4 V 39.9 C 215.5,39.8 198.4,23 197.9,2.3 H 101.6 C 101.2,23 84.1,39.8 63.1,39.9 v 1.2 c 0,14.4 1,28.2 3.1,41.1 0.1,0.5 -0.3,1.1 -0.8,1.1 C 64.9,83.4 64.3,83 64.3,82.5 62.2,69.6 61.2,55.6 61.2,41.1 v -2.2 c 0,-0.3 0.1,-0.5 0.3,-0.7 0.2,-0.2 0.4,-0.3 0.7,-0.3 h 0.3 c 0.1,0 0.3,0 0.4,0 20.3,0 36.8,-16.4 36.8,-36.5 0,-0.5 0.4,-1.1 1,-1.1 H 199 c 0.6,0 1,0.4 1,1 0,0 0,0.1 0,0.1 0,20.1 16.5,36.5 36.8,36.5 0.1,0 0.3,0 0.4,0 h 0.3 c 0.3,0 0.5,0.1 0.7,0.3 0.2,0.2 0.3,0.4 0.3,0.7 v 2.2 c 0,19.3 -1.8,37.4 -5.5,53.9 -0.1,0.4 -0.5,0.7 -0.9,0.7 z"
   inkscape:connector-curvature="0" />
</g><g
         id="g1852">
	<path
   id="path1850"
   d="m 115.3,84.2 c -0.2,0 -0.4,-0.1 -0.6,-0.2 L 100,72.9 c -0.3,-0.2 -0.5,-0.6 -0.4,-1 0.1,-0.4 0.4,-0.7 0.7,-0.8 l 71.5,-18.5 c 0.3,-0.1 0.5,0 0.8,0.1 0.2,0.1 0.4,0.4 0.5,0.6 l 4.3,18.8 c 0.1,0.5 -0.2,1 -0.7,1.2 l -39,10.2 c -0.3,0.1 -0.7,0 -1,-0.3 l -3.6,-3.5 -17.6,4.4 c 0,0.1 -0.1,0.1 -0.2,0.1 z m -12.4,-11.6 12.7,9.5 17.7,-4.4 c 0.3,-0.1 0.7,0 0.9,0.3 l 3.6,3.5 37.5,-9.8 -3.9,-16.8 z"
   inkscape:connector-curvature="0" />
</g><path
         id="path1854"
         d="m 157.3,85.9 17.2,-5.7 -0.4,-1.1 -2.9,-5.1 -18.2,5.3 c 0,0 -2.2,6.1 -6.5,9.5 z"
         class="st2"
         inkscape:connector-curvature="0"
         style="fill:#11828f" /><g
         id="g1858">
	<path
   id="path1856"
   d="m 146.1,138.7 c -6.5,0 -11.8,-5.3 -11.8,-11.7 0,-6.4 5.3,-11.7 11.8,-11.7 6.5,0 11.8,5.3 11.8,11.7 0,6.4 -5.3,11.7 -11.8,11.7 z m 0,-21.4 c -5.4,0 -9.8,4.4 -9.8,9.7 0,5.4 4.4,9.7 9.8,9.7 5.4,0 9.8,-4.4 9.8,-9.7 0,-5.3 -4.4,-9.7 -9.8,-9.7 z"
   inkscape:connector-curvature="0" />
</g><polygon
         id="polygon1860"
         points="133.5,78.7 137.5,82.6 176.5,72.4 175.3,67.3 141.3,76.4 136.6,70.2 110.6,77 109.1,78.5 115.3,83.2 "
         class="st3"
         style="fill:#405162" /><g
         id="g1864">
	<path
   id="path1862"
   d="m 118.8,97.1 c -0.2,0 -0.3,0 -0.5,-0.1 -0.2,-0.1 -0.4,-0.3 -0.5,-0.6 l -3.5,-12.9 c -0.1,-0.3 0,-0.5 0.1,-0.8 0.1,-0.2 0.4,-0.4 0.6,-0.5 l 18.2,-4.5 c 0.3,-0.1 0.7,0 0.9,0.3 l 3.6,3.5 34,-8.9 c 0.5,-0.1 1,0.1 1.2,0.6 l 2.7,7.6 c 0.1,0.3 0.1,0.5 -0.1,0.8 -0.1,0.2 -0.4,0.4 -0.6,0.5 l -56,15 c 0.1,0 0,0 -0.1,0 z m -2.2,-13.2 3,11 54,-14.4 -2,-5.8 -33.7,8.8 c -0.3,0.1 -0.7,0 -1,-0.3 l -3.6,-3.5 z"
   inkscape:connector-curvature="0" />
</g><g
         id="g1868">
	<path
   id="path1866"
   d="m 115.3,96.7 c -7,0 -12.7,-5.7 -12.7,-12.6 0,-3 1.1,-5.9 3.1,-8.2 0.3,-0.4 0.9,-0.5 1.4,-0.1 l 9,6.8 c 0.2,0.1 0.3,0.3 0.4,0.5 l 3.2,12 c 0.1,0.5 -0.2,1.1 -0.7,1.2 -1.3,0.2 -2.5,0.4 -3.7,0.4 z m -8.7,-18.9 c -1.3,1.8 -2,4 -2,6.2 0,5.9 4.8,10.6 10.7,10.6 0.7,0 1.4,-0.1 2.1,-0.2 l -2.9,-10.7 z"
   inkscape:connector-curvature="0" />
</g><g
         id="g1872">
	<path
   id="path1870"
   d="m 140.9,118.6 c -0.2,0 -0.4,0 -0.5,-0.1 -0.3,-0.2 -0.5,-0.5 -0.5,-0.9 V 90.3 c 0,-0.4 0.3,-0.8 0.7,-1 l 10.3,-2.8 c 0.3,-0.1 0.6,0 0.9,0.2 0.2,0.2 0.4,0.5 0.4,0.8 v 30 c 0,0.3 -0.2,0.7 -0.5,0.9 -0.3,0.2 -0.7,0.2 -1,0 -1.4,-0.8 -3,-1.1 -4.6,-1.1 -1.7,0 -3.3,0.4 -4.8,1.2 -0.1,0.1 -0.3,0.1 -0.4,0.1 z m 1,-27.6 v 25.1 c 2.6,-1 5.6,-1 8.3,-0.1 V 88.8 Z"
   inkscape:connector-curvature="0" />
</g><g
         id="g1876">
	<path
   id="path1874"
   d="m 186.1,132.1 h -30 c -0.3,0 -0.6,-0.2 -0.8,-0.4 -0.2,-0.3 -0.2,-0.6 -0.1,-0.9 0.5,-1.2 0.7,-2.4 0.7,-3.7 0,-1.5 -0.3,-2.9 -1,-4.3 -0.2,-0.3 -0.1,-0.7 0,-1 0.1,-0.3 0.5,-0.5 0.8,-0.5 H 186 c 0.6,0 1,0.4 1,1 v 8.8 c 0.1,0.5 -0.4,1 -0.9,1 z m -28.6,-2 h 27.6 v -6.8 h -27.8 c 0.4,1.2 0.6,2.5 0.6,3.7 0,1.1 -0.2,2.1 -0.4,3.1 z"
   inkscape:connector-curvature="0" />
</g></g></g><path
     d="m 198.12902,73.808324 a 52.137672,52.137672 0 0 1 -0.22821,57.175716"
     sodipodi:open="true"
     sodipodi:end="0.58434445"
     sodipodi:start="5.7068237"
     sodipodi:ry="52.137672"
     sodipodi:rx="52.137672"
     sodipodi:cy="102.22215"
     sodipodi:cx="154.41414"
     sodipodi:type="arc"
     id="path2149"
     style="opacity:1;fill:none;fill-opacity:1;fill-rule:nonzero;stroke:#11778e;stroke-width:6.61417341;stroke-linecap:round;stroke-linejoin:round;stroke-miterlimit:4;stroke-dasharray:none;stroke-dashoffset:0;stroke-opacity:1" /><path
     d="m 217.51483,58.245615 a 76.124336,78.62294 0 0 1 0.75225,87.795935"
     sodipodi:open="true"
     sodipodi:end="0.58355507"
     sodipodi:start="5.6819318"
     sodipodi:ry="78.62294"
     sodipodi:rx="76.124336"
     sodipodi:cy="102.72077"
     sodipodi:cx="154.74063"
     sodipodi:type="arc"
     id="path2151"
     style="opacity:1;fill:none;fill-opacity:1;fill-rule:nonzero;stroke:#405162;stroke-width:6.61417341;stroke-linecap:round;stroke-linejoin:round;stroke-miterlimit:4;stroke-dasharray:none;stroke-dashoffset:0;stroke-opacity:1" /><path
     d="m 237.99388,44.062752 a 100.80588,105.2748 0 0 1 2.27971,114.111328"
     sodipodi:open="true"
     sodipodi:end="0.55205792"
     sodipodi:start="5.6894063"
     sodipodi:ry="105.2748"
     sodipodi:rx="100.80588"
     sodipodi:cy="102.96371"
     sodipodi:cx="154.44272"
     sodipodi:type="arc"
     id="path2151-6"
     style="opacity:1;fill:none;fill-opacity:1;fill-rule:nonzero;stroke:#89ab00;stroke-width:6.61417341;stroke-linecap:round;stroke-linejoin:round;stroke-miterlimit:4;stroke-dasharray:none;stroke-dashoffset:0;stroke-opacity:1" /><path
     transform="scale(-1,1)"
     d="m -111.4925,73.851163 a 52.137672,52.137672 0 0 1 -0.22821,57.175717"
     sodipodi:open="true"
     sodipodi:end="0.58434445"
     sodipodi:start="5.7068237"
     sodipodi:ry="52.137672"
     sodipodi:rx="52.137672"
     sodipodi:cy="102.26499"
     sodipodi:cx="-155.20738"
     sodipodi:type="arc"
     id="path2149-1"
     style="opacity:1;fill:none;fill-opacity:1;fill-rule:nonzero;stroke:#17b5c8;stroke-width:6.61417341;stroke-linecap:round;stroke-linejoin:round;stroke-miterlimit:4;stroke-dasharray:none;stroke-dashoffset:0;stroke-opacity:1" /><path
     transform="scale(-1,1)"
     d="m -92.106693,58.288454 a 76.124336,78.62294 0 0 1 0.752255,87.795936"
     sodipodi:open="true"
     sodipodi:end="0.58355507"
     sodipodi:start="5.6819318"
     sodipodi:ry="78.62294"
     sodipodi:rx="76.124336"
     sodipodi:cy="102.76361"
     sodipodi:cx="-154.88089"
     sodipodi:type="arc"
     id="path2151-8"
     style="opacity:1;fill:none;fill-opacity:1;fill-rule:nonzero;stroke:#5f7993;stroke-width:6.61417341;stroke-linecap:round;stroke-linejoin:round;stroke-miterlimit:4;stroke-dasharray:none;stroke-dashoffset:0;stroke-opacity:1" /><path
     transform="scale(-1,1)"
     d="m -71.627639,44.105599 a 100.80588,105.2748 0 0 1 2.279706,114.111331"
     sodipodi:open="true"
     sodipodi:end="0.55205792"
     sodipodi:start="5.6894063"
     sodipodi:ry="105.2748"
     sodipodi:rx="100.80588"
     sodipodi:cy="103.00655"
     sodipodi:cx="-155.1788"
     sodipodi:type="arc"
     id="path2151-6-7"
     style="opacity:1;fill:none;fill-opacity:1;fill-rule:nonzero;stroke:#a6d100;stroke-width:6.61417341;stroke-linecap:round;stroke-linejoin:round;stroke-miterlimit:4;stroke-dasharray:none;stroke-dashoffset:0;stroke-opacity:1" /><path
     d="m 199.76426,73.546735 a 52.137672,52.137672 0 0 1 -0.22821,57.175715"
     sodipodi:open="true"
     sodipodi:end="0.58434445"
     sodipodi:start="5.7068237"
     sodipodi:ry="52.137672"
     sodipodi:rx="52.137672"
     sodipodi:cy="101.96056"
     sodipodi:cx="156.04938"
     sodipodi:type="arc"
     id="path2149-2"
     style="opacity:1;fill:none;fill-opacity:1;fill-rule:nonzero;stroke:#17b5c8;stroke-width:6.61417341;stroke-linecap:round;stroke-linejoin:round;stroke-miterlimit:4;stroke-dasharray:none;stroke-dashoffset:0;stroke-opacity:1" /><path
     d="m 219.15007,57.984026 a 76.124336,78.62294 0 0 1 0.75225,87.795934"
     sodipodi:open="true"
     sodipodi:end="0.58355507"
     sodipodi:start="5.6819318"
     sodipodi:ry="78.62294"
     sodipodi:rx="76.124336"
     sodipodi:cy="102.45918"
     sodipodi:cx="156.37587"
     sodipodi:type="arc"
     id="path2151-3"
     style="opacity:1;fill:none;fill-opacity:1;fill-rule:nonzero;stroke:#5f7993;stroke-width:6.61417341;stroke-linecap:round;stroke-linejoin:round;stroke-miterlimit:4;stroke-dasharray:none;stroke-dashoffset:0;stroke-opacity:1" /><path
     d="m 239.62912,43.801163 a 100.80588,105.2748 0 0 1 2.27971,114.111327"
     sodipodi:open="true"
     sodipodi:end="0.55205792"
     sodipodi:start="5.6894063"
     sodipodi:ry="105.2748"
     sodipodi:rx="100.80588"
     sodipodi:cy="102.70212"
     sodipodi:cx="156.07796"
     sodipodi:type="arc"
     id="path2151-6-75"
     style="opacity:1;fill:none;fill-opacity:1;fill-rule:nonzero;stroke:#a6d100;stroke-width:6.61417341;stroke-linecap:round;stroke-linejoin:round;stroke-miterlimit:4;stroke-dasharray:none;stroke-dashoffset:0;stroke-opacity:1" /></g></svg>