<?xml version="1.0" encoding="utf-8"?>
<!-- Generator: Adobe Illustrator 24.3.0, SVG Export Plug-In . SVG Version: 6.00 Build 0)  -->
<svg version="1.1" id="Capa_1" xmlns="http://www.w3.org/2000/svg" xmlns:xlink="http://www.w3.org/1999/xlink" x="0px" y="0px"
	 viewBox="0 0 300 200" style="enable-background:new 0 0 300 200;" xml:space="preserve">
<style type="text/css">
	.st0{fill:#5F7993;}
	.st1{fill:#17B5C8;}
	.st2{fill:#11828F;}
	.st3{fill:#405162;}
	.st4{fill:#A6D100;}
	.st5{fill:#89AB00;}
	.st6{fill:#FFFFFF;}
	.st7{fill:none;stroke:#17B5C8;stroke-width:2;stroke-miterlimit:10;}
</style>
<g>
	<path class="st4" d="M102.1,93.8L55.8,47.3c-3.8-3.8-9.9-3.8-13.7,0c-3.8,3.8-3.8,10,0,13.8L65,84H10.7C5.3,84,1,88.4,1,93.8v0
		c0,5.4,4.3,9.7,9.7,9.7h54.6l-23.2,23.3c-3.8,3.8-3.8,10,0,13.8c3.8,3.8,9.9,3.8,13.7,0l46.3-46.5l-0.2-0.2L102.1,93.8z"/>
	<path d="M49,144.4c-2.9,0-5.5-1.1-7.6-3.1c-2-2-3.1-4.7-3.1-7.6s1.1-5.6,3.1-7.6l21.5-21.6H10.7C4.8,104.5,0,99.7,0,93.8
		S4.8,83,10.7,83h51.9L41.4,61.8c-2-2-3.1-4.7-3.1-7.6s1.1-5.6,3.1-7.6c2-2,4.7-3.1,7.6-3.1c2.9,0,5.5,1.1,7.6,3.1L102.8,93
		c0.2,0.2,0.3,0.4,0.3,0.7c0,0.1,0,0.1,0,0.2c0,0.3,0,0.6-0.3,0.9l-46.3,46.5C54.5,143.3,51.8,144.4,49,144.4z M10.7,85
		C5.9,85,2,88.9,2,93.8s3.9,8.7,8.7,8.7h54.6c0.4,0,0.8,0.2,0.9,0.6c0.2,0.4,0.1,0.8-0.2,1.1l-23.2,23.3c-1.6,1.7-2.5,3.8-2.5,6.2
		s0.9,4.5,2.5,6.2c1.6,1.7,3.8,2.6,6.2,2.6c2.3,0,4.5-0.9,6.2-2.6l45.7-45.9L55.1,48c-1.6-1.7-3.8-2.6-6.2-2.6
		c-2.3,0-4.5,0.9-6.2,2.6c-3.4,3.4-3.4,9,0,12.4l22.8,23c0.3,0.3,0.4,0.7,0.2,1.1C65.7,84.8,65.4,85,65,85H10.7z"/>
</g>
<g>
	<path class="st5" d="M6.2,93.8c0-4.1,2.7-7.6,6.5-8.6c-0.8-0.2-1.6-0.3-2.4-0.3c-4.9,0-8.9,4-8.9,9c0,5,4,9,8.9,9
		c0.8,0,1.7-0.1,2.4-0.3C9,101.4,6.2,97.9,6.2,93.8z"/>
</g>
<g>
	<path class="st5" d="M45.7,50.7c2.9-2.9,7.3-3.4,10.7-1.5c-0.4-0.7-0.9-1.4-1.5-2c-3.5-3.5-9.1-3.5-12.6,0c-3.5,3.5-3.5,9.2,0,12.7
		c0.6,0.6,1.3,1.1,2,1.5C42.3,58,42.8,53.6,45.7,50.7z"/>
</g>
<g>
	<path class="st5" d="M45.7,136.6c-2.9-2.9-3.4-7.3-1.5-10.7c-0.7,0.4-1.4,0.9-2,1.5c-3.5,3.5-3.5,9.2,0,12.7
		c3.5,3.5,9.1,3.5,12.6,0c0.6-0.6,1.1-1.3,1.5-2C53,140,48.6,139.5,45.7,136.6z"/>
</g>
<path class="st0" d="M293,24.3l-16.6-11.4c-2.6-1.8-5.7-2.7-8.8-2.7h-1.8c3.6,0,6.6,3,6.6,6.6v149.1c0,3.7-3,6.6-6.6,6.6H117.5
	c-3.6,0-6.6-3-6.6-6.6v0.4c0,3.9,1.9,7.5,5.1,9.7l17.9,12.3c2.3,1.6,5,2.4,7.7,2.4h143.7c7.5,0,13.6-6.1,13.6-13.7V35.6
	C299,31.1,296.8,26.8,293,24.3z"/>
<path class="st1" d="M265.9,172.5H117.5c-3.7,0-6.6-3-6.6-6.6V16.7c0-3.7,3-6.6,6.6-6.6h148.4c3.7,0,6.6,3,6.6,6.6v149.1
	C272.5,169.5,269.5,172.5,265.9,172.5z"/>
<path class="st2" d="M271.4,102.1c0,0-1,69.7-70.5,69.7h67.9c2.2-1.1,3.7-3.3,3.7-5.9v-63.8H271.4z"/>
<path class="st2" d="M271.4,80.4h1.1V16.7c0-2.7-1.6-5.1-4-6.1h-67.6C270.4,10.6,271.4,80.4,271.4,80.4z"/>
<g>
	<path d="M265.9,173.5H117.5c-4.2,0-7.6-3.4-7.6-7.6V16.7c0-4.2,3.4-7.6,7.6-7.6h148.4c4.2,0,7.6,3.4,7.6,7.6v149.1
		C273.5,170,270.1,173.5,265.9,173.5z M117.5,11.1c-3.1,0-5.6,2.5-5.6,5.6v149.1c0,3.1,2.5,5.6,5.6,5.6h148.4c3.1,0,5.6-2.5,5.6-5.6
		V16.7c0-3.1-2.5-5.6-5.6-5.6H117.5z"/>
</g>
<path class="st3" d="M293.8,24.9v148c0,6.7-5.4,12.2-12.1,12.2H129.2l4.7,3.2c2.3,1.6,5,2.4,7.7,2.4h143.7c7.5,0,13.6-6.1,13.6-13.7
	V35.6C299,31.4,297,27.5,293.8,24.9z"/>
<g>
	<path d="M285.3,191.7H141.6c-3,0-5.8-0.9-8.3-2.6l-17.9-12.3c-3.4-2.4-5.5-6.3-5.5-10.5v-0.4c0-0.6,0.4-1,1-1s1,0.4,1,1
		c0,3.1,2.5,5.6,5.6,5.6h148.4c3.1,0,5.6-2.5,5.6-5.6V16.7c0-3.1-2.5-5.6-5.6-5.6c-0.6,0-1-0.4-1-1s0.4-1,1-1h1.8
		c3.4,0,6.6,1,9.4,2.9l16.6,11.4c4,2.7,6.4,7.3,6.4,12.1V177C300,185.1,293.4,191.7,285.3,191.7z M113.9,172.6
		c0.7,1,1.6,1.9,2.6,2.6l17.9,12.3c2.1,1.5,4.6,2.2,7.2,2.2h143.7c7,0,12.7-5.7,12.7-12.7V35.6c0-4.2-2.1-8.1-5.5-10.5l0,0
		l-16.6-11.4c-1.4-0.9-2.8-1.6-4.4-2c1.2,1.4,2,3.1,2,5.1v149.1c0,4.2-3.4,7.6-7.6,7.6H117.5C116.2,173.5,114.9,173.1,113.9,172.6z"
		/>
</g>
<g>
	<path d="M49,144.4c-2.9,0-5.5-1.1-7.6-3.1c-2-2-3.1-4.7-3.1-7.6s1.1-5.6,3.1-7.6l21.5-21.6H10.7C4.8,104.5,0,99.7,0,93.8
		S4.8,83,10.7,83h51.9L41.4,61.8c-2-2-3.1-4.7-3.1-7.6s1.1-5.6,3.1-7.6c2-2,4.7-3.1,7.6-3.1c2.9,0,5.5,1.1,7.6,3.1L102.8,93
		c0.2,0.2,0.3,0.4,0.3,0.7c0,0.1,0,0.1,0,0.2c0,0.3,0,0.6-0.3,0.9l-46.3,46.5C54.5,143.3,51.8,144.4,49,144.4z M10.7,85
		C5.9,85,2,88.9,2,93.8s3.9,8.7,8.7,8.7h54.6c0.4,0,0.8,0.2,0.9,0.6c0.2,0.4,0.1,0.8-0.2,1.1l-23.2,23.3c-1.6,1.7-2.5,3.8-2.5,6.2
		s0.9,4.5,2.5,6.2c1.6,1.7,3.8,2.6,6.2,2.6c2.3,0,4.5-0.9,6.2-2.6l45.7-45.9L55.1,48c-1.6-1.7-3.8-2.6-6.2-2.6
		c-2.3,0-4.5,0.9-6.2,2.6c-3.4,3.4-3.4,9,0,12.4l22.8,23c0.3,0.3,0.4,0.7,0.2,1.1C65.7,84.8,65.4,85,65,85H10.7z"/>
</g>
</svg>
