<?xml version="1.0" encoding="utf-8"?>
<!-- Generator: Adobe Illustrator 24.3.0, SVG Export Plug-In . SVG Version: 6.00 Build 0)  -->
<svg version="1.1" id="Capa_1" xmlns="http://www.w3.org/2000/svg" xmlns:xlink="http://www.w3.org/1999/xlink" x="0px" y="0px"
	 viewBox="0 0 300 200" style="enable-background:new 0 0 300 200;" xml:space="preserve">
<style type="text/css">
	.st0{fill:#5F7993;}
	.st1{fill:#17B5C8;}
	.st2{fill:#11828F;}
	.st3{fill:#405162;}
	.st4{fill:#A6D100;}
	.st5{fill:#89AB00;}
	.st6{fill:#FFFFFF;}
	.st7{fill:none;stroke:#17B5C8;stroke-width:2;stroke-miterlimit:10;}
</style>
<g>
	<path class="st0" d="M85.7,158.8H6c-2.7,0-5-2.2-5-5V92.6c0-2.7,2.2-5,5-5h79.7c2.7,0,5,2.2,5,5v61.2
		C90.6,156.5,88.4,158.8,85.7,158.8z"/>
	<path class="st3" d="M11.2,153.8V92.6c0-2.7,2.2-5,4.9-5H6c-2.7,0-4.9,2.2-4.9,5v61.2c0,2.7,2.2,5,4.9,5h10.2
		C13.4,158.8,11.2,156.5,11.2,153.8z"/>
	<path class="st0" d="M27.2,87.6V71.1c0-10.4,8.4-18.8,18.7-18.8c10.3,0,18.7,8.4,18.7,18.8v16.5h8.6V69c0-15.2-12.2-27.4-27.3-27.4
		S18.6,53.8,18.6,69v18.7H27.2z"/>
	<rect x="18.6" y="80.8" class="st3" width="8.6" height="6.9"/>
	<rect x="64.5" y="80.8" class="st3" width="8.6" height="6.9"/>
	<g>
		<path d="M85.7,159.8H6c-3.3,0-5.9-2.7-5.9-6V92.6c0-3.3,2.7-6,5.9-6h33.5c0.5,0,1,0.4,1,1s-0.4,1-1,1H6c-2.2,0-3.9,1.8-3.9,4v61.2
			c0,2.2,1.8,4,3.9,4h79.7c2.2,0,3.9-1.8,3.9-4V92.6c0-2.2-1.8-4-3.9-4H53c-0.5,0-1-0.4-1-1s0.4-1,1-1h32.7c3.3,0,5.9,2.7,5.9,6
			v61.2C91.6,157.1,89,159.8,85.7,159.8z"/>
	</g>
	<g>
		<path d="M48,88.6h-4.3c-0.5,0-1-0.4-1-1s0.4-1,1-1H48c0.5,0,1,0.4,1,1S48.6,88.6,48,88.6z"/>
	</g>
	<g>
		<path d="M73.1,88.6h-8.6c-0.5,0-1-0.4-1-1V71.1c0-7.2-4.3-13.7-10.9-16.4c-0.5-0.2-0.7-0.8-0.5-1.3c0.2-0.5,0.8-0.8,1.3-0.5
			c7.4,3.1,12.1,10.3,12.1,18.3v15.5h6.6V69c0-14.6-11.8-26.4-26.3-26.4S19.6,54.4,19.6,69v17.7h6.6V71.1c0-7.8,4.5-14.8,11.5-18
			c0.5-0.2,1.1,0,1.3,0.5c0.2,0.5,0,1.1-0.5,1.3c-6.3,2.9-10.4,9.2-10.4,16.2v16.5c0,0.6-0.4,1-1,1h-8.6c-0.5,0-1-0.4-1-1V69
			c0-15.7,12.7-28.4,28.2-28.4S74.1,53.3,74.1,69v18.7C74.1,88.2,73.6,88.6,73.1,88.6z"/>
	</g>
	<g>
		<path d="M48,53.5c0,0-0.1,0-0.1,0c-1.3-0.2-2.6-0.2-3.9,0c-0.6,0.1-1-0.3-1.1-0.9c-0.1-0.5,0.3-1,0.9-1.1c1.4-0.1,2.9-0.1,4.4,0
			c0.5,0.1,0.9,0.6,0.9,1.1C49,53.1,48.5,53.5,48,53.5z"/>
	</g>
	<g>
		<path class="st6" d="M54.2,115.5c0-4.7-3.7-8.4-8.4-8.4c-4.6,0-8.4,3.8-8.4,8.4c0,3.4,2,6.3,4.8,7.6l-2,15.6h11.1l-2-15.6
			C52.2,121.8,54.2,118.9,54.2,115.5z"/>
		<path d="M51.4,139.7H40.3c-0.3,0-0.6-0.1-0.7-0.3c-0.2-0.2-0.3-0.5-0.2-0.8l1.9-14.9c-2.9-1.7-4.7-4.8-4.7-8.2
			c0-5.2,4.2-9.4,9.4-9.4c5.2,0,9.4,4.2,9.4,9.4c0,3.4-1.8,6.5-4.7,8.2l1.9,14.9c0,0.3-0.1,0.6-0.2,0.8
			C51.9,139.5,51.7,139.7,51.4,139.7z M41.4,137.7h8.8l-1.8-14.4c-0.1-0.4,0.2-0.8,0.6-1c2.6-1.2,4.2-3.9,4.2-6.7
			c0-4.1-3.3-7.4-7.4-7.4c-4.1,0-7.4,3.3-7.4,7.4c0,2.9,1.7,5.5,4.2,6.7c0.4,0.2,0.6,0.6,0.6,1L41.4,137.7z"/>
	</g>
</g>
<g>
	<path class="st1" d="M189.9,158.8h-79.7c-2.7,0-5-2.2-5-5V92.6c0-2.7,2.2-5,5-5h79.7c2.7,0,5,2.2,5,5v61.2
		C194.8,156.5,192.6,158.8,189.9,158.8z"/>
	<path class="st2" d="M115.4,153.8V92.6c0-2.7,2.2-5,4.9-5h-10.2c-2.7,0-4.9,2.2-4.9,5v61.2c0,2.7,2.2,5,4.9,5h10.2
		C117.6,158.8,115.4,156.5,115.4,153.8z"/>
	<path class="st1" d="M131.4,87.6V71.1c0-10.4,8.4-18.8,18.7-18.8c10.3,0,18.7,8.4,18.7,18.8v16.5h8.6V69
		c0-15.2-12.2-27.4-27.3-27.4c-15.1,0-27.3,12.3-27.3,27.4v18.7H131.4z"/>
	<rect x="122.8" y="80.8" class="st2" width="8.6" height="6.9"/>
	<rect x="168.7" y="80.8" class="st2" width="8.6" height="6.9"/>
	<g>
		<path d="M189.9,159.8h-79.7c-3.3,0-5.9-2.7-5.9-6V92.6c0-3.3,2.7-6,5.9-6h33.5c0.5,0,1,0.4,1,1s-0.4,1-1,1h-33.5
			c-2.2,0-3.9,1.8-3.9,4v61.2c0,2.2,1.8,4,3.9,4h79.7c2.2,0,3.9-1.8,3.9-4V92.6c0-2.2-1.8-4-3.9-4h-32.7c-0.5,0-1-0.4-1-1s0.4-1,1-1
			h32.7c3.3,0,5.9,2.7,5.9,6v61.2C195.8,157.1,193.2,159.8,189.9,159.8z"/>
	</g>
	<g>
		<path d="M152.2,88.6H148c-0.5,0-1-0.4-1-1s0.4-1,1-1h4.3c0.5,0,1,0.4,1,1S152.8,88.6,152.2,88.6z"/>
	</g>
	<g>
		<path d="M177.3,88.6h-8.6c-0.5,0-1-0.4-1-1V71.1c0-7.2-4.3-13.7-10.9-16.4c-0.5-0.2-0.7-0.8-0.5-1.3c0.2-0.5,0.8-0.8,1.3-0.5
			c7.4,3.1,12.1,10.3,12.1,18.3v15.5h6.6V69c0-14.6-11.8-26.4-26.3-26.4S123.8,54.4,123.8,69v17.7h6.6V71.1c0-7.8,4.5-14.8,11.5-18
			c0.5-0.2,1.1,0,1.3,0.5c0.2,0.5,0,1.1-0.5,1.3c-6.3,2.9-10.4,9.2-10.4,16.2v16.5c0,0.6-0.4,1-1,1h-8.6c-0.5,0-1-0.4-1-1V69
			c0-15.7,12.7-28.4,28.2-28.4s28.2,12.8,28.2,28.4v18.7C178.3,88.2,177.8,88.6,177.3,88.6z"/>
	</g>
	<g>
		<path d="M152.3,53.5c0,0-0.1,0-0.1,0c-1.3-0.2-2.6-0.2-3.9,0c-0.5,0.1-1-0.3-1.1-0.9c-0.1-0.5,0.3-1,0.9-1.1
			c1.4-0.1,2.9-0.1,4.4,0c0.5,0.1,0.9,0.6,0.9,1.1C153.2,53.1,152.8,53.5,152.3,53.5z"/>
	</g>
	<g>
		<path class="st6" d="M158.3,120.8c-0.1-0.3-0.1-0.7-0.2-1c0,0,0-0.1,0-0.1c-0.1-0.4-0.2-0.7-0.4-1c0-0.1,0-0.1-0.1-0.1
			c-0.1-0.3-0.3-0.6-0.5-0.9c0,0,0,0,0,0c-0.8-1.3-2-2.4-3.5-3l0.9-7.4h-9l0.9,7.4c-1.4,0.7-2.6,1.7-3.5,3c0,0,0,0,0,0
			c-0.2,0.3-0.4,0.6-0.5,0.9c0,0.1,0,0.1-0.1,0.2c-0.1,0.3-0.3,0.7-0.4,1c0,0,0,0.1,0,0.1c-0.1,0.3-0.2,0.6-0.2,1c0,0.1,0,0.2,0,0.3
			c0,0.4-0.1,0.7-0.1,1.1c0,0,0,0,0,0s0,0,0,0c0,0.4,0,0.7,0.1,1.1c0,0.1,0,0.2,0,0.3c0.1,0.3,0.1,0.7,0.2,1c0,0,0,0.1,0,0.1
			c0.1,0.4,0.2,0.7,0.4,1c0,0.1,0,0.1,0.1,0.1c0.2,0.3,0.3,0.6,0.5,0.9c0,0,0,0,0,0c0.8,1.3,2,2.4,3.5,3l-1,7.5h9l-1-7.5
			c1.4-0.7,2.6-1.7,3.5-3c0,0,0,0,0,0c0.2-0.3,0.4-0.6,0.5-0.9c0-0.1,0-0.1,0.1-0.2c0.1-0.3,0.3-0.7,0.4-1c0,0,0-0.1,0-0.1
			c0.1-0.3,0.2-0.6,0.2-1c0-0.1,0-0.2,0-0.3c0-0.4,0.1-0.7,0.1-1.1c0,0,0,0,0,0s0,0,0,0c0-0.4,0-0.7-0.1-1.1
			C158.3,121,158.3,120.9,158.3,120.8z"/>
		<path d="M154.6,138.3h-9.1c-0.3,0-0.6-0.1-0.7-0.3c-0.2-0.2-0.3-0.5-0.2-0.8l0.9-6.8c-1.3-0.7-2.4-1.8-3.2-3.1
			c-0.2-0.4-0.4-0.7-0.6-1.1l-0.1-0.2c-0.2-0.4-0.3-0.8-0.4-1.2c0,0,0-0.1,0-0.1c-0.1-0.3-0.2-0.7-0.2-1.1l0-0.3
			c-0.1-0.5-0.1-0.9-0.1-1.2c0-0.4,0-0.8,0.1-1.2l0-0.3c0.1-0.4,0.1-0.7,0.2-1.1c0,0,0-0.1,0-0.1c0.1-0.4,0.2-0.7,0.4-1.1l0.1-0.1
			c0.2-0.4,0.4-0.7,0.6-1.1c0.8-1.3,1.9-2.4,3.2-3.1l-0.9-6.7c0-0.3,0.1-0.6,0.2-0.8c0.2-0.2,0.5-0.3,0.7-0.3h9
			c0.3,0,0.6,0.1,0.7,0.3c0.2,0.2,0.3,0.5,0.2,0.8l-0.9,6.7c1.3,0.7,2.4,1.8,3.2,3.1c0.2,0.4,0.4,0.7,0.6,1.1l0.1,0.2
			c0.2,0.4,0.3,0.8,0.4,1.1c0,0,0,0.1,0,0.1c0.1,0.3,0.2,0.7,0.2,1.1c0,0,0,0,0,0l-1,0.2l1-0.1l0,0.3c0.1,0.5,0.1,0.9,0.1,1.2
			c0,0.4,0,0.8-0.1,1.2l0,0.3c-0.1,0.4-0.1,0.7-0.2,1.1c0,0,0,0.1,0,0.1c-0.1,0.4-0.3,0.8-0.4,1.2l-0.1,0.1
			c-0.2,0.4-0.4,0.8-0.6,1.1c-0.8,1.3-1.9,2.4-3.2,3.1l0.9,6.8c0,0.3-0.1,0.6-0.2,0.8C155.1,138.2,154.8,138.3,154.6,138.3z
			 M146.6,136.3h6.8l-0.8-6.4c-0.1-0.4,0.2-0.8,0.6-1c1.2-0.6,2.3-1.5,3-2.7c0.2-0.3,0.3-0.6,0.5-0.8l1,0.3l-0.9-0.4
			c0.1-0.3,0.3-0.6,0.3-0.9c0.1-0.4,0.2-0.6,0.2-0.9l0-0.2c0-0.4,0.1-0.7,0.1-1s0-0.6-0.1-1l0-0.2l1-0.2l-1,0.2
			c0-0.3-0.1-0.6-0.2-0.8c0,0,0-0.1,0-0.1c-0.1-0.3-0.2-0.6-0.3-0.9l0.9-0.5l-0.9,0.4c-0.1-0.3-0.3-0.5-0.4-0.8
			c-0.8-1.2-1.8-2.1-3.1-2.7c-0.4-0.2-0.6-0.6-0.6-1l0.8-6.3h-6.8l0.8,6.3c0.1,0.4-0.2,0.8-0.6,1c-1.2,0.6-2.3,1.5-3,2.7
			c-0.2,0.3-0.3,0.6-0.5,0.8c0,0-0.1,0.1-0.1,0.1c-0.1,0.3-0.3,0.6-0.3,0.9c-0.1,0.4-0.2,0.6-0.2,0.9l0,0.2c-0.1,0.4-0.1,0.7-0.1,1
			c0,0.3,0,0.6,0.1,1l0,0.2c0,0.3,0.1,0.6,0.2,0.9c0,0,0,0.1,0,0.1c0.1,0.3,0.2,0.6,0.3,0.9l-0.8,0.6l0.9-0.4
			c0.1,0.3,0.3,0.6,0.4,0.8c0.8,1.2,1.8,2.1,3.1,2.7c0.4,0.2,0.6,0.6,0.6,1L146.6,136.3z"/>
	</g>
</g>
<g>
	<path class="st4" d="M294.1,158.8h-79.7c-2.7,0-5-2.2-5-5V92.6c0-2.7,2.2-5,5-5h79.7c2.7,0,5,2.2,5,5v61.2
		C299,156.5,296.8,158.8,294.1,158.8z"/>
	<path class="st5" d="M219.6,153.8V92.6c0-2.7,2.2-5,4.9-5h-10.2c-2.7,0-4.9,2.2-4.9,5v61.2c0,2.7,2.2,5,4.9,5h10.2
		C221.8,158.8,219.6,156.5,219.6,153.8z"/>
	<path class="st4" d="M235.6,87.6V71.1c0-10.4,8.4-18.8,18.7-18.8c10.3,0,18.7,8.4,18.7,18.8v16.5h8.6V69
		c0-15.2-12.2-27.4-27.3-27.4S227,53.8,227,69v18.7H235.6z"/>
	<rect x="227" y="80.8" class="st5" width="8.6" height="6.9"/>
	<rect x="272.9" y="80.8" class="st5" width="8.6" height="6.9"/>
	<g>
		<path d="M294.1,159.8h-79.7c-3.3,0-5.9-2.7-5.9-6V92.6c0-3.3,2.7-6,5.9-6h33.5c0.5,0,1,0.4,1,1s-0.4,1-1,1h-33.5
			c-2.2,0-3.9,1.8-3.9,4v61.2c0,2.2,1.8,4,3.9,4h79.7c2.2,0,3.9-1.8,3.9-4V92.6c0-2.2-1.8-4-3.9-4h-32.7c-0.5,0-1-0.4-1-1s0.4-1,1-1
			h32.7c3.3,0,5.9,2.7,5.9,6v61.2C300,157.1,297.4,159.8,294.1,159.8z"/>
	</g>
	<g>
		<path d="M256.5,88.6h-4.3c-0.5,0-1-0.4-1-1s0.4-1,1-1h4.3c0.5,0,1,0.4,1,1S257,88.6,256.5,88.6z"/>
	</g>
	<g>
		<path d="M281.5,88.6h-8.6c-0.5,0-1-0.4-1-1V71.1c0-7.2-4.3-13.7-10.9-16.4c-0.5-0.2-0.7-0.8-0.5-1.3c0.2-0.5,0.8-0.8,1.3-0.5
			c7.4,3.1,12.1,10.3,12.1,18.3v15.5h6.6V69c0-14.6-11.8-26.4-26.3-26.4C239.8,42.5,228,54.4,228,69v17.7h6.6V71.1
			c0-7.8,4.5-14.8,11.6-18c0.5-0.2,1.1,0,1.3,0.5c0.2,0.5,0,1.1-0.5,1.3c-6.3,2.9-10.4,9.2-10.4,16.2v16.5c0,0.6-0.4,1-1,1H227
			c-0.5,0-1-0.4-1-1V69c0-15.7,12.7-28.4,28.2-28.4c15.6,0,28.3,12.8,28.3,28.4v18.7C282.5,88.2,282.1,88.6,281.5,88.6z"/>
	</g>
	<g>
		<path d="M256.5,53.5c0,0-0.1,0-0.1,0c-1.3-0.2-2.6-0.2-3.9,0c-0.6,0.1-1-0.3-1.1-0.9c-0.1-0.5,0.3-1,0.9-1.1
			c1.4-0.1,2.9-0.1,4.4,0c0.5,0.1,0.9,0.6,0.9,1.1C257.4,53.1,257,53.5,256.5,53.5z"/>
	</g>
	<g>
		<path class="st6" d="M258.6,129.1l-0.8-6c2.8-1.3,4.8-4.2,4.8-7.6c0-4.7-3.7-8.4-8.4-8.4c-4.6,0-8.4,3.8-8.4,8.4
			c0,3.4,2,6.3,4.8,7.6l-0.8,6h-8.8v9.8h26.2v-9.8H258.6z"/>
		<path d="M267.3,139.9h-26.2c-0.5,0-1-0.4-1-1v-9.8c0-0.6,0.4-1,1-1h7.9l0.6-4.4c-2.9-1.7-4.7-4.8-4.7-8.2c0-5.2,4.2-9.4,9.4-9.4
			c5.2,0,9.4,4.2,9.4,9.4c0,3.4-1.8,6.5-4.7,8.2l0.6,4.4h7.9c0.5,0,1,0.4,1,1v9.8C268.3,139.5,267.9,139.9,267.3,139.9z
			 M242.2,137.9h24.2v-7.8h-7.8c-0.5,0-0.9-0.4-1-0.9l-0.8-6c-0.1-0.4,0.2-0.8,0.6-1c2.6-1.2,4.2-3.9,4.2-6.7c0-4.1-3.3-7.4-7.4-7.4
			c-4.1,0-7.4,3.3-7.4,7.4c0,2.9,1.7,5.5,4.2,6.7c0.4,0.2,0.6,0.6,0.6,1l-0.8,6c-0.1,0.5-0.5,0.9-1,0.9h-7.8V137.9z"/>
	</g>
</g>
</svg>
