<?xml version="1.0" encoding="utf-8"?>
<!-- Generator: Adobe Illustrator 24.3.0, SVG Export Plug-In . SVG Version: 6.00 Build 0)  -->
<svg version="1.1" id="Capa_1" xmlns="http://www.w3.org/2000/svg" xmlns:xlink="http://www.w3.org/1999/xlink" x="0px" y="0px"
	 viewBox="0 0 300 200" style="enable-background:new 0 0 300 200;" xml:space="preserve">
<style type="text/css">
	.st0{fill:#5F7993;}
	.st1{fill:#17B5C8;}
	.st2{fill:#11828F;}
	.st3{fill:#405162;}
	.st4{fill:#A6D100;}
	.st5{fill:#89AB00;}
	.st6{fill:#FFFFFF;}
	.st7{fill:none;stroke:#17B5C8;stroke-width:2;stroke-miterlimit:10;}
</style>
<path class="st1" d="M35.2,119.1c-3.2,0-5.7-2.7-5.4-6c0.3-2.8,2.8-4.9,5.7-4.9l36.3,0V87.8H35.4c-2.9,0-5.4-2.1-5.7-4.9
	c-0.3-3.2,2.2-6,5.4-6h36.6V11.8C71.7,6,67,1.3,61.2,1.3H11.5C5.7,1.3,1,6,1,11.8v177c0,5.8,4.7,10.5,10.5,10.5h49.6
	c5.8,0,10.5-4.7,10.5-10.5v-69.7H35.2z"/>
<path class="st2" d="M11.2,188.8v-177C11.2,6,16,1.3,21.8,1.3H11.5C5.7,1.3,1,6,1,11.8v177c0,5.8,4.7,10.5,10.5,10.5h10.2
	C16,199.3,11.2,194.6,11.2,188.8z"/>
<g>
	<path d="M61.2,200.3H11.5c-6.4,0-11.5-5.2-11.5-11.5v-177C0,5.4,5.2,0.3,11.5,0.3h49.6c6.4,0,11.5,5.2,11.5,11.5v65.1
		c0,0.5-0.4,1-1,1H35.2c-1.3,0-2.5,0.5-3.3,1.5c-0.9,0.9-1.3,2.2-1.1,3.4c0.2,2.2,2.3,4,4.7,4h36.3c0.5,0,1,0.4,1,1v20.4
		c0,0.5-0.4,1-1,1H35.4c-2.4,0-4.5,1.8-4.7,4c-0.1,1.3,0.3,2.5,1.1,3.4c0.8,0.9,2,1.5,3.3,1.5h36.6c0.5,0,1,0.4,1,1v69.7
		C72.7,195.1,67.5,200.3,61.2,200.3z M11.5,2.3C6.3,2.3,2,6.5,2,11.8v177c0,5.3,4.3,9.5,9.6,9.5h49.6c5.3,0,9.6-4.3,9.6-9.5v-68.7
		H35.2c-1.8,0-3.6-0.8-4.8-2.1c-1.2-1.3-1.8-3.1-1.6-5c0.3-3.3,3.2-5.8,6.7-5.8h35.3V88.8H35.4c-3.4,0-6.3-2.5-6.7-5.8
		c-0.2-1.8,0.4-3.6,1.6-5c1.2-1.3,3-2.1,4.8-2.1h35.6V11.8c0-5.3-4.3-9.5-9.6-9.5H11.5z"/>
</g>
<g>
	<rect x="246.2" y="92.4" class="st0" width="53.8" height="11.7"/>
	<rect x="246.2" y="92.4" class="st3" width="22.3" height="11.7"/>
	<path class="st4" d="M210.9,137.2h-57.3v-78h57.3c10.1,0,18.3,8.2,18.3,18.3v41.4C229.2,129,221,137.2,210.9,137.2z"/>
	<path class="st5" d="M210.7,59.2h-12c10.2,0,18.5,8.3,18.5,18.4v41.1c0,10.2-8.3,18.4-18.5,18.4h12c10.2,0,18.5-8.3,18.5-18.4V77.6
		C229.2,67.4,220.9,59.2,210.7,59.2z"/>
	<path class="st1" d="M142.3,87.8h-41.2c-3,0-5.4-2.4-5.4-5.4v-0.1c0-3,2.4-5.4,5.4-5.4h41.2V87.8z"/>
	<path class="st1" d="M142.3,119.1h-41.2c-3,0-5.4-2.4-5.4-5.4v-0.1c0-3,2.4-5.4,5.4-5.4h41.2V119.1z"/>
	<rect x="129.8" y="76.9" class="st2" width="12.5" height="10.9"/>
	<rect x="129.8" y="108.2" class="st2" width="12.5" height="10.9"/>
	<g>
		<path d="M211,138.1h-57.4c-0.5,0-1-0.4-1-1v-78c0-0.5,0.4-1,1-1H211c10.6,0,19.2,8.6,19.2,19.1V119
			C230.2,129.6,221.6,138.1,211,138.1z M154.6,136.2H211c9.5,0,17.2-7.7,17.2-17.1V77.3c0-9.4-7.7-17.1-17.2-17.1h-56.4V136.2z"/>
	</g>
	<g>
		<path d="M153.8,133.6h-7.5c-2.8,0-5.1-2.3-5.1-5V68.7c0-2.8,2.3-5,5.1-5h7.5c0.5,0,1,0.4,1,1v67.9
			C154.8,133.2,154.4,133.6,153.8,133.6z M146.4,65.7c-1.7,0-3.1,1.4-3.1,3.1v59.8c0,1.7,1.4,3.1,3.1,3.1h6.5V65.7H146.4z"/>
	</g>
	<g>
		<path d="M236.9,118.8h-7.5c-0.5,0-1-0.4-1-1V78.1c0-0.5,0.4-1,1-1h7.5c5.6,0,10.1,4.5,10.1,10v21.6
			C247,114.3,242.4,118.8,236.9,118.8z M230.4,116.8h6.5c4.5,0,8.1-3.6,8.1-8.1V87.1c0-4.4-3.6-8.1-8.1-8.1h-6.5V116.8z"/>
	</g>
	<g>
		<path d="M142.3,88.8h-41.2c-3.5,0-6.4-2.8-6.4-6.3v-0.2c0-3.5,2.9-6.3,6.4-6.3h41.2c0.5,0,1,0.4,1,1v10.9
			C143.3,88.3,142.9,88.8,142.3,88.8z M101.1,77.9c-2.4,0-4.4,2-4.4,4.4v0.2c0,2.4,2,4.4,4.4,4.4h40.2v-8.9H101.1z"/>
	</g>
	<g>
		<path d="M142.3,120.1h-41.2c-3.5,0-6.4-2.8-6.4-6.3v-0.2c0-3.5,2.9-6.3,6.4-6.3h41.2c0.5,0,1,0.4,1,1v10.9
			C143.3,119.6,142.9,120.1,142.3,120.1z M101.1,109.2c-2.4,0-4.4,2-4.4,4.4v0.2c0,2.4,2,4.4,4.4,4.4h40.2v-8.9H101.1z"/>
	</g>
	<g>
		<path d="M299,105.1h-52.8c-0.5,0-1-0.4-1-1V92.4c0-0.5,0.4-1,1-1H299c0.5,0,1,0.4,1,1s-0.4,1-1,1h-51.8v9.7H299c0.5,0,1,0.4,1,1
			C300,104.7,299.6,105.1,299,105.1z"/>
	</g>
	<g>
		<path d="M167.5,120.9c-0.5,0-1-0.4-1-1V78.8c0-0.5,0.4-1,1-1s1,0.4,1,1v41.1C168.5,120.5,168.1,120.9,167.5,120.9z"/>
	</g>
	<g>
		<path d="M180,111.8c-0.5,0-1-0.4-1-1V85c0-0.5,0.4-1,1-1s1,0.4,1,1v25.8C181,111.4,180.5,111.8,180,111.8z"/>
	</g>
</g>
</svg>
