<?xml version="1.0" encoding="UTF-8" standalone="no"?>
<!-- Generator: Adobe Illustrator 24.3.0, SVG Export Plug-In . SVG Version: 6.00 Build 0)  -->

<svg
   xmlns:dc="http://purl.org/dc/elements/1.1/"
   xmlns:cc="http://creativecommons.org/ns#"
   xmlns:rdf="http://www.w3.org/1999/02/22-rdf-syntax-ns#"
   xmlns:svg="http://www.w3.org/2000/svg"
   xmlns="http://www.w3.org/2000/svg"
   xmlns:sodipodi="http://sodipodi.sourceforge.net/DTD/sodipodi-0.dtd"
   xmlns:inkscape="http://www.inkscape.org/namespaces/inkscape"
   version="1.1"
   id="Capa_1"
   x="0px"
   y="0px"
   viewBox="0 0 300 200"
   style="enable-background:new 0 0 300 200;"
   xml:space="preserve"
   sodipodi:docname="printers.svg"
   inkscape:version="0.92.5 (2060ec1f9f, 2020-04-08)"><metadata
   id="metadata2107"><rdf:RDF><cc:Work
       rdf:about=""><dc:format>image/svg+xml</dc:format><dc:type
         rdf:resource="http://purl.org/dc/dcmitype/StillImage" /><dc:title></dc:title></cc:Work></rdf:RDF></metadata><defs
   id="defs2105" /><sodipodi:namedview
   pagecolor="#ffffff"
   bordercolor="#666666"
   borderopacity="1"
   objecttolerance="10"
   gridtolerance="10"
   guidetolerance="10"
   inkscape:pageopacity="0"
   inkscape:pageshadow="2"
   inkscape:window-width="1920"
   inkscape:window-height="1016"
   id="namedview2103"
   showgrid="false"
   inkscape:pagecheckerboard="true"
   inkscape:zoom="3.1395541"
   inkscape:cx="150"
   inkscape:cy="100"
   inkscape:window-x="0"
   inkscape:window-y="27"
   inkscape:window-maximized="1"
   inkscape:current-layer="Capa_1" />
<style
   type="text/css"
   id="style2034">
	.st0{fill:#5F7993;}
	.st1{fill:#17B5C8;}
	.st2{fill:#11828F;}
	.st3{fill:#405162;}
	.st4{fill:#A6D100;}
	.st5{fill:#89AB00;}
	.st6{fill:#FFFFFF;}
	.st7{fill:none;stroke:#17B5C8;stroke-width:2;stroke-miterlimit:10;}
</style>
<rect
   style="opacity:1;fill:#ffffff;fill-opacity:1;fill-rule:nonzero;stroke:none;stroke-width:2.26771665;stroke-linecap:round;stroke-linejoin:round;stroke-miterlimit:4;stroke-dasharray:none;stroke-dashoffset:0;stroke-opacity:1"
   id="rect2652"
   width="96.829048"
   height="121.0363"
   x="101.60678"
   y="77.689636"
   ry="14.344212"
   rx="0" /><g
   id="g2100">
	<path
   class="st1"
   d="M51.9,116.5v22.6c0,6.4,5.2,11.6,11.6,11.6h38v-18.5h97v18.5h38c6.4,0,11.6-5.2,11.6-11.6v-22.6H51.9z"
   id="path2036" />
	<path
   class="st4"
   d="M248.1,48.4c0-6.4-5.2-11.6-11.6-11.6h-173c-6.4,0-11.6,5.2-11.6,11.6v68h196.2V48.4z"
   id="path2038" />
	<path
   class="st0"
   d="M198.8,36.8V11.6c0-5.9-4.8-10.6-10.6-10.6h-76.4c-5.9,0-10.6,4.8-10.6,10.6v25.2H198.8z"
   id="path2040" />
	<g
   id="g2044">
		<path
   d="M198.8,37.8h-97.7c-0.5,0-1-0.4-1-1V11.6c0-6.4,5.2-11.6,11.6-11.6h76.4c6.4,0,11.6,5.2,11.6,11.6v25.2    C199.8,37.4,199.4,37.8,198.8,37.8z M102.1,35.9h95.7V11.6c0-5.3-4.3-9.7-9.7-9.7h-76.4c-5.3,0-9.7,4.3-9.7,9.7V35.9z"
   id="path2042" />
	</g>
	<g
   id="g2048">
		<path
   d="M187.1,200h-74.1c-6.8,0-12.4-5.6-12.4-12.4v-55.5c0-0.5,0.4-1,1-1h97c0.5,0,1,0.4,1,1v55.5    C199.5,194.4,193.9,200,187.1,200z M102.5,133.1v54.5c0,5.8,4.7,10.4,10.4,10.4h74.1c5.8,0,10.4-4.7,10.4-10.4v-54.5H102.5z"
   id="path2046" />
	</g>
	<g
   id="g2052">
		<path
   d="M207.9,132.9H91.5c-0.5,0-1-0.4-1-1s0.4-1,1-1h116.5c0.5,0,1,0.4,1,1S208.5,132.9,207.9,132.9z"
   id="path2050" />
	</g>
	<g
   id="g2058">
		<circle
   class="st6"
   cx="192.8"
   cy="93.1"
   r="7.2"
   id="circle2054" />
		<path
   d="M192.8,101.4c-4.5,0-8.2-3.7-8.2-8.2c0-4.5,3.7-8.2,8.2-8.2s8.2,3.7,8.2,8.2C201,97.7,197.3,101.4,192.8,101.4z     M192.8,86.9c-3.4,0-6.2,2.8-6.2,6.2c0,3.4,2.8,6.2,6.2,6.2s6.2-2.8,6.2-6.2C199,89.7,196.2,86.9,192.8,86.9z"
   id="path2056" />
	</g>
	<g
   id="g2064">
		<circle
   class="st6"
   cx="224.3"
   cy="93.1"
   r="7.2"
   id="circle2060" />
		<path
   d="M224.3,101.4c-4.5,0-8.2-3.7-8.2-8.2c0-4.5,3.7-8.2,8.2-8.2s8.2,3.7,8.2,8.2C232.5,97.7,228.8,101.4,224.3,101.4z     M224.3,86.9c-3.4,0-6.2,2.8-6.2,6.2c0,3.4,2.8,6.2,6.2,6.2s6.2-2.8,6.2-6.2C230.5,89.7,227.7,86.9,224.3,86.9z"
   id="path2062" />
	</g>
	<g
   id="g2070">
		<path
   class="st6"
   d="M224.3,70.8h-33.2c-4.9,0-8.9-4-8.9-8.9v-0.3c0-4.9,4-8.9,8.9-8.9h33.2c4.9,0,8.9,4,8.9,8.9v0.3    C233.2,66.8,229.2,70.8,224.3,70.8z"
   id="path2066" />
		<path
   d="M224.4,71.8H191c-5.4,0-9.8-4.4-9.8-9.8v-0.4c0-5.4,4.4-9.8,9.8-9.8h33.4c5.4,0,9.8,4.4,9.8,9.8V62    C234.2,67.4,229.8,71.8,224.4,71.8z M191,53.7c-4.3,0-7.8,3.5-7.8,7.8V62c0,4.3,3.5,7.8,7.8,7.8h33.4c4.3,0,7.8-3.5,7.8-7.8v-0.4    c0-4.3-3.5-7.8-7.8-7.8H191z"
   id="path2068" />
	</g>
	<g
   id="g2074">
		<path
   d="M182.9,150H117c-0.5,0-1-0.4-1-1c0-0.5,0.4-1,1-1h65.9c0.5,0,1,0.4,1,1C183.9,149.5,183.4,150,182.9,150z"
   id="path2072" />
	</g>
	<g
   id="g2078">
		<path
   d="M182.9,166.3H117c-0.5,0-1-0.4-1-1s0.4-1,1-1h65.9c0.5,0,1,0.4,1,1S183.4,166.3,182.9,166.3z"
   id="path2076" />
	</g>
	<g
   id="g2082">
		<path
   d="M182.9,182.7h-25.7c-0.5,0-1-0.4-1-1c0-0.5,0.4-1,1-1h25.7c0.5,0,1,0.4,1,1C183.9,182.2,183.4,182.7,182.9,182.7z"
   id="path2080" />
	</g>
	<g
   id="g2086">
		<path
   d="M248.1,117.5h-94.6c-0.5,0-1-0.4-1-1s0.4-1,1-1h93.6V48.4c0-5.8-4.8-10.6-10.6-10.6h-173c-5.8,0-10.6,4.8-10.6,10.6v67.1    H127c0.5,0,1,0.4,1,1s-0.4,1-1,1H51.9c-0.5,0-1-0.4-1-1v-68c0-6.9,5.6-12.6,12.6-12.6h173c6.9,0,12.6,5.6,12.6,12.6v68    C249.1,117,248.6,117.5,248.1,117.5z"
   id="path2084" />
	</g>
	<g
   id="g2090">
		<path
   d="M142.6,117.5h-4.7c-0.5,0-1-0.4-1-1s0.4-1,1-1h4.7c0.5,0,1,0.4,1,1S143.1,117.5,142.6,117.5z"
   id="path2088" />
	</g>
	<g
   id="g2094">
		<path
   d="M142.6,117.5h-4.7c-0.5,0-1-0.4-1-1s0.4-1,1-1h4.7c0.5,0,1,0.4,1,1S143.1,117.5,142.6,117.5z"
   id="path2092" />
	</g>
	<g
   id="g2098">
		<path
   d="M236.5,151.6h-38c-0.5,0-1-0.4-1-1v-17.5h-95v17.5c0,0.5-0.4,1-1,1h-38c-6.9,0-12.6-5.6-12.6-12.6v-22.6c0-0.5,0.4-1,1-1    H127c0.5,0,1,0.4,1,1s-0.4,1-1,1H52.9v21.6c0,5.8,4.8,10.6,10.6,10.6h37v-17.5c0-0.5,0.4-1,1-1h97c0.5,0,1,0.4,1,1v17.5h37    c5.8,0,10.6-4.8,10.6-10.6v-21.6h-93.6c-0.5,0-1-0.4-1-1s0.4-1,1-1h94.6c0.5,0,1,0.4,1,1v22.6C249.1,146,243.4,151.6,236.5,151.6z    "
   id="path2096" />
	</g>
</g>
</svg>