<?xml version="1.0" encoding="utf-8"?>
<!-- Generator: Adobe Illustrator 24.3.0, SVG Export Plug-In . SVG Version: 6.00 Build 0)  -->
<svg version="1.1" id="Capa_1" xmlns="http://www.w3.org/2000/svg" xmlns:xlink="http://www.w3.org/1999/xlink" x="0px" y="0px"
	 viewBox="0 0 300 200" style="enable-background:new 0 0 300 200;" xml:space="preserve">
<style type="text/css">
	.st0{fill:#5F7993;}
	.st1{fill:#17B5C8;}
	.st2{fill:#11828F;}
	.st3{fill:#405162;}
	.st4{fill:#A6D100;}
	.st5{fill:#89AB00;}
	.st6{fill:#FFFFFF;}
	.st7{fill:none;stroke:#17B5C8;stroke-width:2;stroke-miterlimit:10;}
</style>
<g>
	<polygon class="st3" points="92.4,84.6 154.7,51.6 216.5,84.6 154.7,120 	"/>
	<polygon class="st0" points="154.7,64.1 205.1,91.1 216.5,84.6 154.7,51.6 92.4,84.6 103.8,91.1 	"/>
	<polygon class="st4" points="175.7,141 154.7,120 157.1,118.6 154.4,120 154.4,199 217.2,164.6 217.2,118 	"/>
	<polygon class="st1" points="134.7,140.3 92.1,118.1 92.1,164.9 154.4,199 154.4,120.3 	"/>
	<polygon class="st5" points="175.7,141 154.7,120 157.1,118.6 154.4,120 154.4,131.1 154.7,131.1 175.7,152.1 217.2,129 217.2,118 
			"/>
	<polygon class="st2" points="134.7,140.3 92.1,118.1 92.1,129.1 134.7,151.3 154.4,131.3 154.4,120.3 	"/>
	<g>
		<path d="M154.7,121c-0.2,0-0.3,0-0.5-0.1L91.9,85.5c-0.3-0.2-0.5-0.5-0.5-0.9c0-0.4,0.2-0.7,0.5-0.9l62.3-33.1
			c0.3-0.2,0.6-0.2,0.9,0l61.8,33.1c0.3,0.2,0.5,0.5,0.5,0.9c0,0.4-0.2,0.7-0.5,0.9l-61.8,35.4C155,121,154.8,121,154.7,121z
			 M94.4,84.7l60.2,34.2l59.7-34.2l-59.7-32L94.4,84.7z"/>
	</g>
	<g>
		<path d="M134.7,141.3c-0.2,0-0.3,0-0.5-0.1l-63.8-33.3c-0.3-0.1-0.5-0.4-0.5-0.7c-0.1-0.3,0-0.6,0.3-0.9l21.5-22.3
			c0.3-0.3,0.8-0.4,1.2-0.2l62.3,35.4c0.3,0.2,0.5,0.4,0.5,0.7c0,0.3-0.1,0.6-0.3,0.8l-20,20.3C135.2,141.2,134.9,141.3,134.7,141.3
			z M72.5,106.7l62,32.4l18.6-18.8L92.5,85.9L72.5,106.7z"/>
	</g>
	<g>
		<path d="M154.4,200c-0.2,0-0.3,0-0.5-0.1l-62.3-34.1c-0.3-0.2-0.5-0.5-0.5-0.9v-46.8c0-0.4,0.2-0.7,0.5-0.9c0.3-0.2,0.7-0.2,1,0
			l41.9,21.9l19.2-19.5c0.3-0.3,0.7-0.4,1.1-0.2c0.4,0.2,0.6,0.5,0.6,0.9V199c0,0.4-0.2,0.7-0.5,0.9C154.8,200,154.6,200,154.4,200z
			 M93.1,164.3l60.3,33v-74.6l-18,18.3c-0.3,0.3-0.8,0.4-1.2,0.2l-41.1-21.5V164.3z"/>
	</g>
	<g>
		<path d="M175.7,142.1c-0.3,0-0.5-0.1-0.7-0.3l-21-21c-0.2-0.2-0.3-0.5-0.3-0.8c0-0.3,0.2-0.6,0.5-0.7L216,83.8
			c0.4-0.2,0.9-0.2,1.2,0.2l22.1,21.5c0.2,0.2,0.3,0.5,0.3,0.9c0,0.3-0.2,0.6-0.5,0.7l-62.8,34.9C176,142,175.9,142.1,175.7,142.1z
			 M156.3,120.2l19.6,19.6l61-33.8l-20.5-20.1L156.3,120.2z"/>
	</g>
	<g>
		<path d="M154.4,200c-0.2,0-0.4,0-0.5-0.1c-0.3-0.2-0.5-0.5-0.5-0.9v-79c0-0.4,0.2-0.8,0.6-0.9c0.4-0.2,0.8-0.1,1.1,0.2l20.7,20.5
			l40.9-22.7c0.3-0.2,0.7-0.2,1,0c0.3,0.2,0.5,0.5,0.5,0.9v46.6c0,0.4-0.2,0.7-0.5,0.9l-62.8,34.4C154.7,200,154.6,200,154.4,200z
			 M155.4,122.4v74.9l60.8-33.3v-44.3l-40,22.2c-0.4,0.2-0.9,0.2-1.2-0.2L155.4,122.4z"/>
	</g>
	<g>
		<path d="M216.5,85.6c-0.2,0-0.3,0-0.5-0.1l-61.8-33.1c-0.3-0.1-0.5-0.4-0.5-0.7c-0.1-0.3,0-0.6,0.3-0.8l20-21.8
			c0.3-0.3,0.8-0.4,1.2-0.2l63.1,34.4c0.3,0.2,0.5,0.4,0.5,0.7c0,0.3-0.1,0.6-0.3,0.9l-21.3,20.5C217,85.6,216.7,85.6,216.5,85.6z
			 M156.3,51.3l60,32.1L236,64.4L174.9,31L156.3,51.3z"/>
	</g>
	<g>
		<path d="M92.4,85.6c-0.3,0-0.5-0.1-0.7-0.3L71.9,65.6c-0.2-0.2-0.3-0.5-0.3-0.8s0.2-0.6,0.5-0.7l60.5-34.9
			c0.4-0.2,0.9-0.2,1.2,0.2l21.5,21.5c0.2,0.2,0.3,0.5,0.3,0.9c0,0.3-0.2,0.6-0.5,0.7L92.8,85.5C92.7,85.6,92.5,85.6,92.4,85.6z
			 M74.3,65.1l18.3,18.3L153,51.3l-20-20L74.3,65.1z"/>
	</g>
	<g>
		<circle class="st6" cx="155.6" cy="36.2" r="34.5"/>
		<path d="M155.6,71.7c-19.6,0-35.5-15.9-35.5-35.5s15.9-35.5,35.5-35.5s35.5,15.9,35.5,35.5S175.2,71.7,155.6,71.7z M155.6,2.7
			c-18.5,0-33.5,15-33.5,33.5s15,33.5,33.5,33.5s33.5-15,33.5-33.5S174.1,2.7,155.6,2.7z"/>
	</g>
	<g>
		<circle class="st6" cx="155.6" cy="134.8" r="34.5"/>
		<path d="M155.6,170.3c-19.6,0-35.5-15.9-35.5-35.5s15.9-35.5,35.5-35.5s35.5,15.9,35.5,35.5S175.2,170.3,155.6,170.3z
			 M155.6,101.3c-18.5,0-33.5,15-33.5,33.5s15,33.5,33.5,33.5s33.5-15,33.5-33.5S174.1,101.3,155.6,101.3z"/>
	</g>
	<g>
		<circle class="st6" cx="65" cy="84.3" r="34.5"/>
		<path d="M65,119.8c-19.6,0-35.5-15.9-35.5-35.5S45.4,48.8,65,48.8s35.5,15.9,35.5,35.5S84.6,119.8,65,119.8z M65,50.8
			c-18.5,0-33.5,15-33.5,33.5s15,33.5,33.5,33.5s33.5-15,33.5-33.5S83.5,50.8,65,50.8z"/>
	</g>
	<g>
		<circle class="st6" cx="235" cy="84.3" r="34.5"/>
		<path d="M235,119.8c-19.6,0-35.5-15.9-35.5-35.5s15.9-35.5,35.5-35.5s35.5,15.9,35.5,35.5S254.6,119.8,235,119.8z M235,50.8
			c-18.5,0-33.5,15-33.5,33.5s15,33.5,33.5,33.5s33.5-15,33.5-33.5S253.5,50.8,235,50.8z"/>
	</g>
	<g>
		<path class="st4" d="M155.5,67.2c4.8,0,9.3-1.1,13.4-3c1.6-0.8,3.2-1.7,4.6-2.8c0,0,0,0,0,0l-9.8-4.9c-1.8-0.9-2.9-2.7-2.9-4.7
			v-4.6c-1.6,1.7-3.7,2.7-5.9,2.7c-2.3,0-4.3-1-5.9-2.7l0,0l0,4.5c0,1.9-1.1,3.7-2.8,4.6l-8.8,4.8c0,0.1,0,0.1,0,0.2
			c2.2,1.6,4.6,2.9,7.2,3.9C147.9,66.5,151.6,67.2,155.5,67.2z"/>
		<path class="st1" d="M148.9,47.1c1.6,1.7,3.7,2.7,6,2.7c2.3,0,4.3-1,6-2.7l0,0l0.3-0.4c0.3-0.3,0.6-0.7,0.9-1.2
			c1.3-1.9,2.4-4,3.1-6.3l0.2-0.6l0.6-0.2c0.9-0.3,1.5-1.1,1.5-2v-4.4c0-0.6-0.2-1.1-0.7-1.5l-0.4-0.4l0-7.1c0,0,0.3-3.1-1.8-5.5
			c-1.8-2-4.9-3.1-9.2-3.1c-4.3,0-7.4,1-9.2,3.1c-2.1,2.4-1.7,5.4-1.7,5.5l0,0.2v7l-0.4,0.4c-0.5,0.4-0.7,0.9-0.7,1.5v4.4
			c0,0.7,0.4,1.4,1,1.7l0.4,0.3l0.1,0.5c1,4.5,3.7,7.7,3.8,7.8L148.9,47.1L148.9,47.1z"/>
		<path class="st0" d="M144.4,65.1c-11.6-4.5-19.8-15.7-19.8-28.8c0-10.7,5.4-20.1,13.7-25.6l-2.8-3.5c-9.3,6.4-15.4,17.1-15.4,29.2
			c0,14.5,8.7,26.9,21.1,32.4L144.4,65.1z"/>
		<path class="st1" d="M185.7,29.9c-3-13.9-15.4-24.4-30.2-24.4c-6.4,0-12.3,1.9-17.2,5.2l-2.8-3.5c5.7-3.9,12.6-6.2,20-6.2
			c16.8,0,30.9,11.7,34.5,27.5L185.7,29.9z"/>
		<g>
			<path class="st4" d="M168.9,64.2c10.3-5,17.5-15.6,17.5-27.8c0-2.2-0.2-4.4-0.7-6.5l4.3-1.4c0.6,2.5,0.9,5.2,0.9,7.9
				c0,13.7-7.8,25.6-19.2,31.5L168.9,64.2z"/>
			<path d="M171.6,68.8c-0.3,0-0.6-0.1-0.8-0.4l-2.7-3.7c-0.2-0.2-0.2-0.5-0.2-0.8c0.1-0.3,0.3-0.5,0.5-0.7
				c10.3-4.9,16.9-15.5,16.9-26.9c0-2.1-0.2-4.2-0.7-6.2c-0.1-0.5,0.2-1,0.7-1.2l4.3-1.4c0.3-0.1,0.6-0.1,0.8,0.1
				c0.2,0.1,0.4,0.4,0.5,0.7c0.6,2.6,0.9,5.4,0.9,8.1c0,13.7-7.6,26.1-19.8,32.4C171.9,68.8,171.8,68.8,171.6,68.8z M170.4,64.5
				l1.5,2c11.1-6,17.9-17.5,17.9-30.2c0-2.2-0.2-4.4-0.6-6.6l-2.4,0.8c0.3,1.9,0.5,3.8,0.5,5.8C187.4,48.1,180.8,59,170.4,64.5z"/>
		</g>
		<path class="st2" d="M149.5,15.4c3.1,0.3,13.8,2.1,16.8,12.5l0-4.9c0,0,0.3-3.1-1.8-5.5c-1.8-2-4.9-3.1-9.2-3.1
			C153.1,14.5,151.1,14.8,149.5,15.4z"/>
		<path class="st5" d="M160.8,47.1c-1.6,1.7-3.7,2.7-5.9,2.7c-2.3,0-4.3-1-5.9-2.7l0,0l0,4.5c0,0,0,0,0,0c1.3,0.9,3.4,1.9,6.3,1.9
			c2.8,0,4.5-1,5.6-2V47.1z"/>
		<g>
			<path d="M154.9,50.8c-2.4,0-4.7-1-6.5-2.8c-0.1-0.1-0.2-0.1-0.2-0.2l-0.3-0.3c0,0-2.9-3.4-4-8.2l0-0.1l-0.1-0.1
				c-0.9-0.6-1.4-1.5-1.4-2.6v-4.4c0-0.9,0.4-1.7,1-2.3l0.1-0.1l0-6.6c0-0.3-0.3-3.6,2-6.2c2-2.3,5.4-3.5,10-3.5
				c4.6,0,7.9,1.2,9.9,3.4c2.3,2.5,2.1,5.7,2,6.2l0,6.6l0.1,0.1c0.7,0.6,1,1.4,1,2.3v4.4c0,1.3-0.9,2.5-2.2,2.9l-0.1,0l0,0.1
				c-0.8,2.4-1.9,4.6-3.3,6.6c-0.3,0.5-0.7,0.9-1,1.3l-0.2,0.2c0,0.1-0.1,0.1-0.1,0.2C159.7,49.8,157.3,50.8,154.9,50.8z
				 M149.5,46.3C149.6,46.4,149.6,46.4,149.5,46.3c1.6,1.6,3.4,2.5,5.3,2.5c1.8,0,3.7-0.8,5.1-2.2c0,0,0.1-0.1,0.1-0.1l0.3-0.4
				c0.3-0.3,0.6-0.7,0.9-1.1c1.3-1.8,2.3-3.8,3-6l0.2-0.6c0.1-0.3,0.3-0.6,0.7-0.7l0.6-0.2c0.5-0.1,0.8-0.6,0.8-1v-4.4
				c0-0.3-0.1-0.6-0.4-0.8l-0.4-0.4c-0.2-0.2-0.3-0.5-0.3-0.7l0-7.1c0,0,0-0.1,0-0.1c0,0,0.3-2.7-1.5-4.7c-1.6-1.8-4.5-2.7-8.4-2.7
				c-4,0-6.8,0.9-8.5,2.8c-1.8,2-1.5,4.6-1.5,4.7l0,0.2l0,7c0,0.3-0.1,0.6-0.3,0.7l-0.4,0.4c-0.2,0.2-0.4,0.5-0.4,0.8v4.4
				c0,0.4,0.2,0.7,0.5,0.9l0.4,0.3c0.2,0.1,0.4,0.4,0.4,0.6l0.1,0.5c1,4.2,3.5,7.3,3.5,7.4L149.5,46.3z"/>
		</g>
		<g>
			<path class="st6" d="M144.4,65.1c3.4,1.3,7.2,2.1,11.1,2.1c4.8,0,9.3-1.1,13.4-3l2.7,3.7c-4.8,2.5-10.3,3.9-16.1,3.9
				c-5.1,0-9.9-1.1-14.2-3L144.4,65.1z"/>
			<path d="M155.5,72.7c-5.1,0-10-1-14.6-3.1c-0.3-0.1-0.5-0.4-0.6-0.7c-0.1-0.3,0-0.6,0.2-0.9l3.1-3.6c0.3-0.3,0.7-0.4,1.1-0.3
				c3.4,1.3,7,2,10.7,2c4.5,0,8.9-1,12.9-2.9c0.4-0.2,1-0.1,1.2,0.3l2.7,3.7c0.2,0.2,0.2,0.5,0.2,0.8c-0.1,0.3-0.3,0.5-0.5,0.7
				C166.9,71.4,161.4,72.7,155.5,72.7z M143,68.3c4,1.6,8.2,2.4,12.5,2.4c5.1,0,10-1.1,14.6-3.2l-1.5-2c-4.1,1.9-8.5,2.8-13.1,2.8
				c-3.7,0-7.3-0.6-10.8-1.9L143,68.3z"/>
		</g>
		<g>
			<path d="M171.6,68.8c-0.3,0-0.6-0.1-0.8-0.4l-2.7-3.7c-0.2-0.2-0.2-0.5-0.2-0.8c0.1-0.3,0.3-0.5,0.5-0.7
				c10.3-4.9,16.9-15.5,16.9-26.9c0-2.1-0.2-4.2-0.7-6.2c-0.1-0.5,0.2-1,0.7-1.2l4.3-1.4c0.3-0.1,0.6-0.1,0.8,0.1
				c0.2,0.1,0.4,0.4,0.5,0.7c0.6,2.6,0.9,5.4,0.9,8.1c0,13.7-7.6,26.1-19.8,32.4C171.9,68.8,171.8,68.8,171.6,68.8z M170.4,64.5
				l1.5,2c11.1-6,17.9-17.5,17.9-30.2c0-2.2-0.2-4.4-0.6-6.6l-2.4,0.8c0.3,1.9,0.5,3.8,0.5,5.8C187.4,48.1,180.8,59,170.4,64.5z"/>
		</g>
		<g>
			<path d="M185.7,30.9c-0.2,0-0.3,0-0.5-0.1c-0.2-0.1-0.4-0.4-0.5-0.7c-2.9-13.7-15.2-23.6-29.2-23.6c-6,0-11.7,1.7-16.6,5.1
				c-0.4,0.3-1,0.2-1.3-0.2l-2.8-3.5c-0.2-0.2-0.2-0.5-0.2-0.8c0-0.3,0.2-0.5,0.4-0.7C141,2.2,148.2,0,155.5,0
				c17.1,0,31.7,11.6,35.4,28.2c0.1,0.5-0.2,1-0.7,1.2l-4.3,1.4C185.9,30.9,185.8,30.9,185.7,30.9z M155.5,4.5
				c14.6,0,27.4,10.1,30.9,24.1l2.4-0.8C184.9,12.6,171.4,2,155.5,2c-6.6,0-13,1.9-18.5,5.4l1.6,2C143.7,6.2,149.5,4.5,155.5,4.5z"
				/>
		</g>
		<g>
			<path d="M141.3,69.7c-0.1,0-0.3,0-0.4-0.1c-13.2-5.8-21.7-18.9-21.7-33.3c0-12,5.9-23.2,15.8-30c0.4-0.3,1-0.2,1.4,0.2l2.8,3.5
				c0.2,0.2,0.3,0.5,0.2,0.8c0,0.3-0.2,0.5-0.4,0.7c-8.3,5.6-13.2,14.8-13.2,24.8c0,12.3,7.7,23.4,19.1,27.9
				c0.3,0.1,0.5,0.4,0.6,0.7c0.1,0.3,0,0.7-0.2,0.9l-3.1,3.6C141.9,69.6,141.6,69.7,141.3,69.7z M135.4,8.6
				c-8.9,6.5-14.2,16.8-14.2,27.8c0,13.4,7.8,25.5,19.9,31.1l1.7-2c-11.5-5-19.1-16.6-19.1-29.2c0-10.3,4.9-19.9,13.2-25.8
				L135.4,8.6z"/>
		</g>
		<g>
			<path d="M155.5,68.2c-4,0-7.8-0.7-11.5-2.1c-2.6-1-5.1-2.4-7.4-4.1c-0.3-0.2-0.5-0.6-0.4-1l0-0.2c0.1-0.3,0.2-0.6,0.5-0.7
				l8.8-4.8c1.4-0.8,2.2-2.2,2.2-3.8l0-4.5c0-0.3,0.1-0.5,0.3-0.7c0.4-0.4,1.1-0.4,1.5,0c1.5,1.5,3.3,2.4,5.2,2.4
				c1.9,0,3.7-0.8,5.2-2.4c0.3-0.3,0.7-0.4,1.1-0.2c0.4,0.2,0.6,0.5,0.6,0.9v4.6c0,1.6,0.9,3.1,2.4,3.8l9.8,4.9
				c0.3,0.1,0.5,0.4,0.5,0.7c0.1,0.4,0,0.8-0.4,1.1c-1.5,1.1-3.1,2-4.8,2.8C165,67.1,160.4,68.2,155.5,68.2z M139.1,61.2
				c1.8,1.2,3.7,2.2,5.7,3c3.4,1.3,7,2,10.7,2c4.5,0,8.9-1,12.9-2.9c1.1-0.5,2.1-1.1,3.1-1.7l-8.3-4.2c-2.1-1.1-3.5-3.2-3.5-5.6
				v-2.5c-3,2-6.9,2-9.9,0l0,2.4c0,2.3-1.3,4.4-3.3,5.5L139.1,61.2z"/>
		</g>
	</g>
	<g>
		<path class="st4" d="M68.7,110.4h-4.9c-1.4,0-2.5-1.1-2.5-2.5v0c0-1.4,1.1-2.5,2.5-2.5h4.9c1.4,0,2.5,1.1,2.5,2.5v0
			C71.2,109.2,70.1,110.4,68.7,110.4z"/>
		<path class="st5" d="M70.1,105.3h-7.7c-0.6,0-1.1,0.5-1.1,1.1v1.5c0-0.6,0.5-1.1,1.1-1.1h7.7c0.6,0,1.1,0.5,1.1,1.1v-1.5
			C71.2,105.8,70.7,105.3,70.1,105.3z"/>
		<path class="st1" d="M89.9,86.5H42.2c-1.3,0-2.3-1-2.3-2.3v0c0-1.3,1-2.3,2.3-2.3h47.7c1.3,0,2.3,1,2.3,2.3v0
			C92.3,85.5,91.2,86.5,89.9,86.5z"/>
		<path class="st1" d="M89.9,86.5H42.2c-1.3,0-2.3-1-2.3-2.3v0c0-1.3,1-2.3,2.3-2.3h47.7c1.3,0,2.3,1,2.3,2.3v0
			C92.3,85.5,91.2,86.5,89.9,86.5z"/>
		<g>
			<path class="st0" d="M60.3,59.9c-9.8,2.6-17,11.4-17.2,22h17V61C60.1,60.6,60.2,60.2,60.3,59.9z"/>
			<path class="st0" d="M89.5,81.8C89.3,71,81.8,62.1,71.6,59.7c0.1,0.4,0.2,0.9,0.2,1.3v20.8H89.5z"/>
		</g>
		<path class="st3" d="M47.9,79.5c0.2-7.8,5.2-14.4,12.2-16.9V61c0-0.4,0.1-0.8,0.2-1.2c-9.8,2.6-17,11.4-17.2,22h4.8L47.9,79.5z"/>
		<path class="st3" d="M84.3,79.5c-0.2-7.8-5.2-14.4-12.2-16.9V61c0-0.4-0.1-0.8-0.2-1.2c9.8,2.6,17,11.4,17.2,22h-4.8L84.3,79.5z"
			/>
		<path class="st1" d="M71.9,81.8V61c0-2.3-1.9-4.2-4.2-4.2h-3.4c-2.3,0-4.2,1.9-4.2,4.2v20.8H71.9z"/>
		<rect x="60.1" y="79.1" class="st2" width="11.8" height="2.8"/>
		<g>
			<path d="M66.2,73.5c-0.6,0-1-0.4-1-1V56.9c0-0.6,0.4-1,1-1c0.6,0,1,0.4,1,1v15.7C67.2,73.1,66.7,73.5,66.2,73.5z"/>
		</g>
		<g>
			<path class="st6" d="M80.4,74.4c1.2,0,2.2-1,2.2-2.2v-6.5c-1.3-1.3-2.8-2.4-4.3-3.4v9.9C78.2,73.4,79.2,74.4,80.4,74.4z"/>
			<path d="M80.4,75.4c-1.7,0-3.2-1.4-3.2-3.2v-9.9c0-0.4,0.2-0.7,0.5-0.9c0.3-0.2,0.7-0.2,1,0c1.6,1,3.2,2.2,4.5,3.5
				c0.2,0.2,0.3,0.4,0.3,0.7v6.5C83.6,74,82.1,75.4,80.4,75.4z M79.2,64.2v8c0,0.6,0.5,1.2,1.2,1.2s1.2-0.5,1.2-1.2v-6.1
				C80.8,65.4,80,64.8,79.2,64.2z"/>
		</g>
		<g>
			<path class="st6" d="M52.1,74.4c1.2,0,2.2-1,2.2-2.2v-9.9c-1.6,1-3,2.1-4.3,3.4v6.5C50,73.4,51,74.4,52.1,74.4z"/>
			<path d="M52.1,75.4c-1.8,0-3.2-1.4-3.2-3.2v-6.5c0-0.3,0.1-0.5,0.3-0.7c1.4-1.3,2.9-2.5,4.5-3.5c0.3-0.2,0.7-0.2,1,0
				c0.3,0.2,0.5,0.5,0.5,0.9v9.9C55.3,74,53.9,75.4,52.1,75.4z M51,66.2v6.1c0,0.6,0.5,1.2,1.2,1.2s1.2-0.5,1.2-1.2v-8
				C52.5,64.8,51.7,65.5,51,66.2z"/>
		</g>
		<g>
			<path d="M71.9,82.8H60.1c-0.6,0-1-0.4-1-1V61c0-2.9,2.3-5.2,5.2-5.2h3.4c2.9,0,5.2,2.3,5.2,5.2v20.8
				C72.9,82.4,72.4,82.8,71.9,82.8z M61.1,80.8h9.7V61c0-1.7-1.4-3.2-3.2-3.2h-3.4c-1.7,0-3.2,1.4-3.2,3.2V80.8z"/>
		</g>
		<g>
			<g>
				<path d="M60.1,82.8h-17c-0.3,0-0.5-0.1-0.7-0.3c-0.2-0.2-0.3-0.5-0.3-0.7c0.2-10.7,7.6-20.2,18-22.9c0.3-0.1,0.7,0,1,0.3
					c0.3,0.3,0.3,0.6,0.2,1c-0.1,0.3-0.1,0.6-0.1,0.9v20.8C61.1,82.4,60.7,82.8,60.1,82.8z M44.1,80.8h15V61.3
					C50.7,64.1,44.7,71.9,44.1,80.8z"/>
			</g>
			<g>
				<path d="M89.5,82.8H71.9c-0.6,0-1-0.4-1-1V61c0-0.3-0.1-0.7-0.2-1c-0.1-0.3,0-0.7,0.2-1c0.2-0.3,0.6-0.4,1-0.3
					c10.8,2.5,18.4,12,18.7,23.1c0,0.3-0.1,0.5-0.3,0.7C90.1,82.7,89.8,82.8,89.5,82.8z M72.9,80.8h15.6
					c-0.6-9.2-6.8-17.1-15.6-19.8V80.8z"/>
			</g>
		</g>
		<g>
			<path d="M68.7,111.4h-4.9c-1.9,0-3.5-1.6-3.5-3.5c0-1.9,1.6-3.5,3.5-3.5h4.9c1.9,0,3.5,1.6,3.5,3.5
				C72.2,109.8,70.6,111.4,68.7,111.4z M63.8,106.3c-0.8,0-1.5,0.7-1.5,1.5s0.7,1.5,1.5,1.5h4.9c0.8,0,1.5-0.7,1.5-1.5
				s-0.7-1.5-1.5-1.5H63.8z"/>
		</g>
		<g>
			<path d="M89.9,87.5H42.2c-1.8,0-3.3-1.5-3.3-3.3s1.5-3.3,3.3-3.3h47.7c1.8,0,3.3,1.5,3.3,3.3S91.8,87.5,89.9,87.5z M42.2,82.8
				c-0.7,0-1.3,0.6-1.3,1.3s0.6,1.3,1.3,1.3h47.7c0.7,0,1.3-0.6,1.3-1.3s-0.6-1.3-1.3-1.3H42.2z"/>
		</g>
		<g>
			<path d="M89.9,87.5H42.2c-1.8,0-3.3-1.5-3.3-3.3s1.5-3.3,3.3-3.3h47.7c1.8,0,3.3,1.5,3.3,3.3S91.8,87.5,89.9,87.5z M42.2,82.8
				c-0.7,0-1.3,0.6-1.3,1.3s0.6,1.3,1.3,1.3h47.7c0.7,0,1.3-0.6,1.3-1.3s-0.6-1.3-1.3-1.3H42.2z"/>
		</g>
		<g>
			<g>
				<path d="M61.3,110.4C61.2,110.4,61.2,110.4,61.3,110.4c-11-0.6-19.5-9.6-19.5-20.6v-3.3c0-0.6,0.4-1,1-1h2.6c0.6,0,1,0.4,1,1
					v2.3c0,8.5,6.6,15.7,15,16.4c0.3,0,0.6,0.2,0.7,0.4c0.2,0.2,0.2,0.5,0.2,0.8l0,2.8c0,0.3-0.1,0.6-0.3,0.8
					C61.8,110.3,61.5,110.4,61.3,110.4z M43.7,87.5v2.3c0,9.5,7.2,17.5,16.5,18.5v-1.2c-9-1.2-15.9-9.1-15.9-18.3v-1.3H43.7z"/>
			</g>
			<g>
				<path d="M71.2,110.4c-0.3,0-0.5-0.1-0.7-0.3c-0.2-0.2-0.3-0.5-0.3-0.8l0-2.8c-0.1-0.3,0-0.6,0.2-0.8c0.2-0.2,0.4-0.4,0.7-0.4
					c8.4-0.7,15-7.9,15-16.4v-2.3c0-0.6,0.4-1,1-1h2.6c0.6,0,1,0.4,1,1v3.3C90.7,100.7,82.2,109.8,71.2,110.4
					C71.2,110.4,71.2,110.4,71.2,110.4z M72.2,107.1v1.2c9.3-1,16.5-9,16.5-18.5v-2.3h-0.6v1.3C88.1,98,81.2,105.8,72.2,107.1z"/>
			</g>
		</g>
	</g>
	<path class="st1" d="M230.3,79.7h-14c-1.1,0-2-0.9-2-2v0c0-1.1,0.9-2,2-2h14c1.1,0,2,0.9,2,2v0C232.3,78.8,231.4,79.7,230.3,79.7z"
		/>
	<path class="st1" d="M230.3,87.2h-14c-1.1,0-2-0.9-2-2v0c0-1.1,0.9-2,2-2h14c1.1,0,2,0.9,2,2v0C232.3,86.3,231.4,87.2,230.3,87.2z"
		/>
	<path class="st0" d="M252.3,79.7h-14c-1.1,0-2-0.9-2-2v0c0-1.1,0.9-2,2-2h14c1.1,0,2,0.9,2,2v0C254.3,78.8,253.4,79.7,252.3,79.7z"
		/>
	<path class="st0" d="M252.3,87.2h-14c-1.1,0-2-0.9-2-2v0c0-1.1,0.9-2,2-2h14c1.1,0,2,0.9,2,2v0C254.3,86.3,253.4,87.2,252.3,87.2z"
		/>
	<path class="st2" d="M230.3,75.7h-3.4c1.1,0,2,0.9,2,2c0,1.1-0.9,2-2,2h3.4c1.1,0,2-0.9,2-2C232.3,76.6,231.4,75.7,230.3,75.7z"/>
	<path class="st2" d="M230.3,83.2h-3.4c1.1,0,2,0.9,2,2s-0.9,2-2,2h3.4c1.1,0,2-0.9,2-2S231.4,83.2,230.3,83.2z"/>
	<path class="st3" d="M252.2,75.7h-3.4c1.1,0,2,0.9,2,2c0,1.1-0.9,2-2,2h3.4c1.1,0,2-0.9,2-2C254.3,76.6,253.4,75.7,252.2,75.7z"/>
	<path class="st3" d="M252.2,83.2h-3.4c1.1,0,2,0.9,2,2s-0.9,2-2,2h3.4c1.1,0,2-0.9,2-2S253.4,83.2,252.2,83.2z"/>
	<path class="st0" d="M250.4,106.6h-4.5c-1.7,0-3.3-1-4.1-2.6l-2.5-5.3h-8.5l-2.5,5.3c-0.7,1.6-2.3,2.6-4.1,2.6h-4.5H250.4z"/>
	<path class="st4" d="M210.3,93.1v0.8c0,2.5,2,4.5,4.5,4.5h39.8c2.5,0,4.5-2,4.5-4.5v-0.8H210.3z"/>
	<path class="st5" d="M252.2,93.1v0.8c0,2.5-2,4.5-4.5,4.5h7c2.5,0,4.5-2,4.5-4.5v-0.8H252.2z"/>
	<g>
		<path d="M259.1,70.3h-48.4c-0.6,0-1-0.4-1-1s0.4-1,1-1h48.4c0.6,0,1,0.4,1,1S259.6,70.3,259.1,70.3z"/>
	</g>
	<g>
		<path d="M230.3,80.8h-14c-1.7,0-3-1.4-3-3c0-1.7,1.4-3,3-3h14c1.7,0,3,1.4,3,3C233.3,79.4,232,80.8,230.3,80.8z M216.3,76.7
			c-0.6,0-1,0.5-1,1c0,0.6,0.5,1,1,1h14c0.6,0,1-0.5,1-1c0-0.6-0.5-1-1-1H216.3z"/>
	</g>
	<g>
		<path d="M230.3,88.2h-14c-1.7,0-3-1.4-3-3s1.4-3,3-3h14c1.7,0,3,1.4,3,3S232,88.2,230.3,88.2z M216.3,84.2c-0.6,0-1,0.5-1,1
			c0,0.6,0.5,1,1,1h14c0.6,0,1-0.5,1-1c0-0.6-0.5-1-1-1H216.3z"/>
	</g>
	<path class="st3" d="M241.9,104l-2.5-5.3h-8.5l-0.9,1.9c3.9,0.3,7.3,2.7,8.9,6h7C244.2,106.6,242.6,105.6,241.9,104z"/>
	<g>
		<path d="M252.2,80.8h-14c-1.7,0-3-1.4-3-3c0-1.7,1.4-3,3-3h14c1.7,0,3,1.4,3,3C255.3,79.4,253.9,80.8,252.2,80.8z M238.2,76.7
			c-0.6,0-1,0.5-1,1c0,0.6,0.5,1,1,1h14c0.6,0,1-0.5,1-1c0-0.6-0.5-1-1-1H238.2z"/>
	</g>
	<g>
		<path d="M252.2,88.2h-14c-1.7,0-3-1.4-3-3s1.4-3,3-3h14c1.7,0,3,1.4,3,3S253.9,88.2,252.2,88.2z M238.2,84.2c-0.6,0-1,0.5-1,1
			c0,0.6,0.5,1,1,1h14c0.6,0,1-0.5,1-1c0-0.6-0.5-1-1-1H238.2z"/>
	</g>
	<g>
		<path d="M250.4,107.6h-30.6c-0.6,0-1-0.4-1-1s0.4-1,1-1h4.5c1.3,0,2.6-0.8,3.2-2l2.5-5.3c0.2-0.3,0.5-0.6,0.9-0.6h8.5
			c0.4,0,0.7,0.2,0.9,0.6l2.5,5.3c0.6,1.2,1.8,2,3.2,2h4.5c0.6,0,1,0.4,1,1S251,107.6,250.4,107.6z M228.5,105.6h13.2
			c-0.3-0.3-0.5-0.7-0.7-1.1l-2.3-4.7h-7.2l-2.3,4.7C229.1,104.8,228.8,105.2,228.5,105.6z"/>
	</g>
	<g>
		<path d="M259.2,94.1h-37.3c-0.6,0-1-0.4-1-1c0-0.6,0.4-1,1-1h36.3V69.6c0-1.9-1.6-3.5-3.5-3.5h-39.8c-1.9,0-3.5,1.6-3.5,3.5v22.5
			h4.7c0.6,0,1,0.4,1,1c0,0.6-0.4,1-1,1h-5.7c-0.6,0-1-0.4-1-1V69.6c0-3.1,2.5-5.5,5.5-5.5h39.8c3.1,0,5.5,2.5,5.5,5.5v23.5
			C260.2,93.6,259.7,94.1,259.2,94.1z"/>
	</g>
	<g>
		<path d="M254.6,99.4h-39.8c-3.1,0-5.5-2.5-5.5-5.5v-0.8c0-0.6,0.4-1,1-1s1,0.4,1,1v0.8c0,1.9,1.6,3.5,3.5,3.5h39.8
			c1.9,0,3.5-1.6,3.5-3.5v-0.8c0-0.6,0.4-1,1-1c0.6,0,1,0.4,1,1v0.8C260.2,96.9,257.7,99.4,254.6,99.4z"/>
	</g>
	<g>
		<path d="M217.4,78.7h-0.6c-0.6,0-1-0.4-1-1c0-0.6,0.4-1,1-1h0.6c0.6,0,1,0.4,1,1C218.4,78.3,218,78.7,217.4,78.7z"/>
	</g>
	<g>
		<path d="M217.4,86.2h-0.6c-0.6,0-1-0.4-1-1s0.4-1,1-1h0.6c0.6,0,1,0.4,1,1S218,86.2,217.4,86.2z"/>
	</g>
	<g>
		<path d="M220.7,86.2H220c-0.6,0-1-0.4-1-1s0.4-1,1-1h0.6c0.6,0,1,0.4,1,1S221.2,86.2,220.7,86.2z"/>
	</g>
	<g>
		<path class="st0" d="M169.5,150.7h-30.9c-4.5,0-8.2-3.7-8.2-8.2V128c0-4.5,3.7-8.2,8.2-8.2h30.9c4.5,0,8.2,3.7,8.2,8.2v14.5
			C177.7,147.1,174,150.7,169.5,150.7z"/>
		<path d="M169.4,151.8h-30.8c-5.1,0-9.3-4.2-9.3-9.3v-14.4c0-5.1,4.2-9.3,9.3-9.3h30.8c5.1,0,9.3,4.2,9.3,9.3v14.4
			C178.7,147.6,174.5,151.8,169.4,151.8z M138.6,120.8c-4,0-7.3,3.3-7.3,7.3v14.4c0,4,3.3,7.3,7.3,7.3h30.8c4,0,7.3-3.3,7.3-7.3
			v-14.4c0-4-3.3-7.3-7.3-7.3H138.6z"/>
	</g>
	<path class="st0" d="M169.5,150.7h-30.9c-4.5,0-8.2-3.7-8.2-8.2V128c0-4.5,3.7-8.2,8.2-8.2h30.9c4.5,0,8.2,3.7,8.2,8.2v14.5
		C177.7,147.1,174,150.7,169.5,150.7z"/>
	<path class="st3" d="M172.5,119.8h-7.8c2.9,0,5.2,2.3,5.2,5.2v20.6c0,2.9-2.3,5.2-5.2,5.2h7.8c2.9,0,5.2-2.3,5.2-5.2V125
		C177.7,122.1,175.4,119.8,172.5,119.8z"/>
	<g>
		<path d="M169.4,151.8h-30.8c-5.1,0-9.3-4.2-9.3-9.3v-14.4c0-5.1,4.2-9.3,9.3-9.3h30.8c5.1,0,9.3,4.2,9.3,9.3v14.4
			C178.7,147.6,174.5,151.8,169.4,151.8z M138.6,120.8c-4,0-7.3,3.3-7.3,7.3v14.4c0,4,3.3,7.3,7.3,7.3h30.8c4,0,7.3-3.3,7.3-7.3
			v-14.4c0-4-3.3-7.3-7.3-7.3H138.6z"/>
	</g>
	<g>
		<polyline class="st6" points="134.2,128.9 134.2,125.1 151.6,125.1 151.6,145.1 134.2,145.1 134.2,132.5 		"/>
		<path d="M151.6,146.1h-17.4c-0.6,0-1-0.4-1-1v-12.6c0-0.6,0.4-1,1-1c0.6,0,1,0.4,1,1v11.6h15.4v-17.9h-15.4v2.7c0,0.6-0.4,1-1,1
			c-0.6,0-1-0.4-1-1v-3.7c0-0.6,0.4-1,1-1h17.4c0.6,0,1,0.4,1,1v19.9C152.6,145.6,152.1,146.1,151.6,146.1z"/>
	</g>
	<circle class="st1" cx="143" cy="133.7" r="4.5"/>
	<circle class="st1" cx="143" cy="133.7" r="4.5"/>
	<path class="st2" d="M143,129.2c-0.5,0-1,0.1-1.5,0.3c1.8,0.6,3,2.3,3,4.3c0,2-1.3,3.6-3,4.3c0.5,0.2,1,0.3,1.5,0.3
		c2.5,0,4.5-2,4.5-4.5C147.5,131.2,145.5,129.2,143,129.2z"/>
	<g>
		<path d="M143,139.2c-3,0-5.5-2.5-5.5-5.5c0-3,2.5-5.5,5.5-5.5s5.5,2.5,5.5,5.5C148.5,136.8,146,139.2,143,139.2z M143,130.2
			c-1.9,0-3.5,1.6-3.5,3.5s1.6,3.5,3.5,3.5s3.5-1.6,3.5-3.5S144.9,130.2,143,130.2z"/>
	</g>
	<path class="st4" d="M147.5,142.6c0-2.5-2-4.5-4.5-4.5c-2.5,0-4.5,2-4.5,4.5"/>
	<path class="st5" d="M143,138.1c-0.5,0-0.9,0.1-1.3,0.2c1.9,0.6,3.2,2.3,3.2,4.3h2.6C147.5,140.1,145.5,138.1,143,138.1z"/>
	<g>
		<path d="M147.5,143.6c-0.6,0-1-0.4-1-1c0-1.9-1.6-3.5-3.5-3.5s-3.5,1.6-3.5,3.5c0,0.6-0.4,1-1,1c-0.6,0-1-0.4-1-1
			c0-3,2.5-5.5,5.5-5.5s5.5,2.5,5.5,5.5C148.5,143.2,148,143.6,147.5,143.6z"/>
	</g>
	<g>
		<path d="M173.9,128.3h-18.7c-0.6,0-1-0.4-1-1c0-0.6,0.4-1,1-1h18.7c0.6,0,1,0.4,1,1C174.9,127.9,174.5,128.3,173.9,128.3z"/>
	</g>
	<g>
		<path d="M173.9,138.9h-18.7c-0.6,0-1-0.4-1-1s0.4-1,1-1h18.7c0.6,0,1,0.4,1,1S174.5,138.9,173.9,138.9z"/>
	</g>
	<g>
		<path d="M173.9,133.6h-4.6c-0.6,0-1-0.4-1-1c0-0.6,0.4-1,1-1h4.6c0.6,0,1,0.4,1,1C174.9,133.2,174.5,133.6,173.9,133.6z"/>
	</g>
	<g>
		<path d="M166.7,133.6h-11.4c-0.6,0-1-0.4-1-1c0-0.6,0.4-1,1-1h11.4c0.6,0,1,0.4,1,1C167.7,133.2,167.2,133.6,166.7,133.6z"/>
	</g>
	<g>
		<path d="M166.7,144h-11.4c-0.6,0-1-0.4-1-1s0.4-1,1-1h11.4c0.6,0,1,0.4,1,1S167.2,144,166.7,144z"/>
	</g>
</g>
</svg>
