<?xml version="1.0" encoding="UTF-8" standalone="no"?>
<!-- Created with Inkscape (http://www.inkscape.org/) -->

<svg
   xmlns:dc="http://purl.org/dc/elements/1.1/"
   xmlns:cc="http://creativecommons.org/ns#"
   xmlns:rdf="http://www.w3.org/1999/02/22-rdf-syntax-ns#"
   xmlns:svg="http://www.w3.org/2000/svg"
   xmlns="http://www.w3.org/2000/svg"
   xmlns:sodipodi="http://sodipodi.sourceforge.net/DTD/sodipodi-0.dtd"
   xmlns:inkscape="http://www.inkscape.org/namespaces/inkscape"
   width="300"
   height="200"
   viewBox="0 0 79.374998 52.916668"
   version="1.1"
   id="svg8"
   sodipodi:docname="roles.svg"
   inkscape:version="0.92.3 (2405546, 2018-03-11)">
  <defs
     id="defs2">
    <inkscape:perspective
       sodipodi:type="inkscape:persp3d"
       inkscape:vp_x="0 : 26.458334 : 1"
       inkscape:vp_y="0 : 1000 : 0"
       inkscape:vp_z="79.374998 : 26.458334 : 1"
       inkscape:persp3d-origin="39.687499 : 17.638889 : 1"
       id="perspective929" />
    <clipPath
       clipPathUnits="userSpaceOnUse"
       id="clipPath8857">
      <rect
         style="opacity:1;fill:#637792;fill-opacity:1;fill-rule:nonzero;stroke:none;stroke-width:0.60000002;stroke-linecap:round;stroke-linejoin:round;stroke-miterlimit:4;stroke-dasharray:none;stroke-opacity:1"
         id="rect8859"
         width="45.120911"
         height="26.552826"
         x="27.119791"
         y="255.56435" />
    </clipPath>
  </defs>
  <sodipodi:namedview
     id="base"
     pagecolor="#ffffff"
     bordercolor="#666666"
     borderopacity="1.0"
     inkscape:pageopacity="0.0"
     inkscape:pageshadow="2"
     inkscape:zoom="3.6203869"
     inkscape:cx="157.00744"
     inkscape:cy="75.904298"
     inkscape:document-units="mm"
     inkscape:current-layer="layer1"
     showgrid="false"
     units="px"
     inkscape:measure-start="260.872,98.995"
     inkscape:measure-end="260.872,122.228"
     showguides="true"
     inkscape:guide-bbox="true"
     inkscape:window-width="1920"
     inkscape:window-height="1043"
     inkscape:window-x="0"
     inkscape:window-y="1080"
     inkscape:window-maximized="1"
     inkscape:snap-global="true">
    <sodipodi:guide
       position="12.29899,58.601072"
       orientation="1,0"
       id="guide3382"
       inkscape:locked="false" />
  </sodipodi:namedview>
  <metadata
     id="metadata5">
    <rdf:RDF>
      <cc:Work
         rdf:about="">
        <dc:format>image/svg+xml</dc:format>
        <dc:type
           rdf:resource="http://purl.org/dc/dcmitype/StillImage" />
        <dc:title />
      </cc:Work>
    </rdf:RDF>
  </metadata>
  <g
     inkscape:label="Layer 1"
     inkscape:groupmode="layer"
     id="layer1"
     transform="translate(0,-244.08332)">
    <g
       id="g7476"
       transform="matrix(2.3266371,0,0,2.3266371,6.5321322,-326.89995)">
      <path
         sodipodi:nodetypes="cccccccc"
         inkscape:connector-curvature="0"
         id="path3415-0"
         d="m 6.0978177,257.73757 c -2.161163,0.63769 -3.6395751,1.64778 -2.790526,3.9274 0.940565,2.16262 3.498664,4.11978 6.6145816,4.65088 2.2905927,0.0744 3.5139987,-1.44694 3.5139987,-1.44694 4.352222,-0.29841 13.12898,-2.17089 13.38388,-6.08268 -4.078816,-4.1595 -0.600846,-5.44365 -3.97877,-5.69955 -1.825901,-1.28954 -8.24926,-0.8823 -9.71517,-0.2067 -2.861353,1.23018 -6.2546254,2.06142 -7.0279943,4.85759 z"
         style="fill:#637792;stroke:#000000;stroke-width:0.26458332px;stroke-linecap:butt;stroke-linejoin:miter;stroke-opacity:1" />
      <path
         sodipodi:nodetypes="cccccccc"
         inkscape:connector-curvature="0"
         id="path3415"
         d="m 6.097818,257.2084 c -2.161163,0.63769 -3.639575,1.64778 -2.790526,3.9274 0.940565,2.16262 3.498664,4.11978 6.614582,4.65088 2.290592,0.0744 3.513998,-1.44694 3.513998,-1.44694 4.352222,-0.29841 13.12898,-2.17089 13.38388,-6.08268 -4.078816,-4.1595 -0.600846,-5.44365 -3.97877,-5.69955 -1.825901,-1.28954 -8.24926,-0.8823 -9.71517,-0.2067 -2.861353,1.23018 -6.254625,2.06142 -7.027994,4.85759 z"
         style="fill:#637792;stroke:#000000;stroke-width:0.26458332px;stroke-linecap:butt;stroke-linejoin:miter;stroke-opacity:1" />
      <path
         sodipodi:nodetypes="ccczcc"
         inkscape:connector-curvature="0"
         id="path3417"
         d="m 6.201173,257.00169 c 0.3433897,3.03171 2.8143063,4.57818 6.097817,5.4777 5.490758,1.29687 13.719507,-0.62835 14.520762,-4.22233 0.08328,-1.98477 0.0075,-4.08148 -1.111043,-5.94279 -1.11852,-1.86131 -4.518446,-5.11876 -9.378957,-4.82104 -5.365187,-0.091 -9.981246,5.03711 -10.128579,9.50846 z"
         style="fill:#22b9d8;stroke:#000000;stroke-width:0.26458332px;stroke-linecap:butt;stroke-linejoin:miter;stroke-opacity:1" />
      <path
         sodipodi:nodetypes="ccccc"
         inkscape:connector-curvature="0"
         id="path3419"
         d="m 7.033188,260.09189 c 0.262366,0.74418 1.114261,1.04744 1.957435,1.50121 1.635566,-5.66319 5.298905,-11.48823 12.451421,-13.94853 l -2.474198,-0.57103 c -6.668856,1.54894 -11.04026,7.6328 -11.934658,13.01835 z"
         style="fill:#9ec73c;stroke:#000000;stroke-width:0.26458332px;stroke-linecap:butt;stroke-linejoin:round;stroke-opacity:1" />
      <path
         sodipodi:nodetypes="cccccc"
         inkscape:connector-curvature="0"
         id="path3421"
         d="m 9.033434,261.5691 0.7902805,0.0532 c 1.5395575,-6.51972 5.0176845,-10.90066 11.5190965,-13.04127 l 0.09923,-0.93644 c -8.849365,2.95537 -11.373921,8.85153 -12.451421,13.94853 z"
         style="fill:#9ec73c;stroke:#000000;stroke-width:0.26458332px;stroke-linecap:butt;stroke-linejoin:round;stroke-opacity:1" />
      <path
         sodipodi:nodetypes="cccc"
         inkscape:connector-curvature="0"
         id="path7453"
         d="m 18.894764,247.16489 c 0.423048,0.0801 1.283991,0.3513 1.761748,0.43492 -3.811982,0.41436 -4.736489,1.07706 -8.357522,3.26985 1.919401,-1.82358 3.84491,-2.81933 6.595774,-3.70477 z"
         style="fill:#ffffff;stroke:none;stroke-width:0.26458332px;stroke-linecap:butt;stroke-linejoin:miter;stroke-opacity:1" />
    </g>
  </g>
</svg>
