<?xml version="1.0" encoding="utf-8"?>
<!-- Generator: Adobe Illustrator 24.3.0, SVG Export Plug-In . SVG Version: 6.00 Build 0)  -->
<svg version="1.1" id="Capa_1" xmlns="http://www.w3.org/2000/svg" xmlns:xlink="http://www.w3.org/1999/xlink" x="0px" y="0px"
	 viewBox="0 0 300 200" style="enable-background:new 0 0 300 200;" xml:space="preserve">
<style type="text/css">
	.st0{fill:#5F7993;}
	.st1{fill:#17B5C8;}
	.st2{fill:#11828F;}
	.st3{fill:#405162;}
	.st4{fill:#A6D100;}
	.st5{fill:#89AB00;}
	.st6{fill:#FFFFFF;}
	.st7{fill:none;stroke:#17B5C8;stroke-width:2;stroke-miterlimit:10;}
</style>
<g>
	<path class="st4" d="M164.9,199h-28.7c-2.3,0-4.1-1.8-4.1-4.1v-10.5c0-2.3,1.8-4.1,4.1-4.1h28.7c2.3,0,4.1,1.8,4.1,4.1v10.5
		C169,197.2,167.2,199,164.9,199z"/>
	<path class="st5" d="M164.9,180.3h-28.6c-2.3,0-4.1,1.8-4.1,4.1v5.4c0-2.3,1.8-4.1,4.1-4.1h28.6c2.3,0,4.1,1.8,4.1,4.1v-5.4
		C169,182.1,167.2,180.3,164.9,180.3z"/>
	<path class="st1" d="M242.9,110.7H57.1c-2.3,0-4.1-1.8-4.1-4.1v-9.2c0-2.3,1.8-4.1,4.1-4.1h185.7c2.3,0,4.1,1.8,4.1,4.1v9.2
		C246.9,108.9,245.1,110.7,242.9,110.7z"/>
	<path class="st1" d="M242.9,110.7H57.1c-2.3,0-4.1-1.8-4.1-4.1v-9.2c0-2.3,1.8-4.1,4.1-4.1h185.7c2.3,0,4.1,1.8,4.1,4.1v9.2
		C246.9,108.9,245.1,110.7,242.9,110.7z"/>
	<g>
		<path class="st0" d="M128.6,12.1c-36.2,9.7-62.9,42.3-63.7,81.3H128v-77C128,14.9,128.2,13.5,128.6,12.1z"/>
		<path class="st0" d="M236.8,93.4c-0.8-39.9-28.8-73.1-66.2-82c0.5,1.6,0.8,3.2,0.8,5v77H236.8z"/>
	</g>
	<path class="st3" d="M82.8,84.8c0.6-28.9,19.2-53.4,45.1-62.7v-5.7c0-1.5,0.2-3,0.6-4.4c-36.2,9.7-62.9,42.3-63.7,81.3h17.9
		L82.8,84.8z"/>
	<path class="st3" d="M217.5,84.8c-0.6-28.9-19.2-53.4-45.1-62.7v-5.7c0-1.5-0.2-3-0.6-4.4c36.2,9.7,62.9,42.3,63.7,81.3h-17.9
		L217.5,84.8z"/>
	<path class="st1" d="M171.4,93.4v-77C171.4,7.9,164.5,1,156,1h-12.6C134.9,1,128,7.9,128,16.4v77H171.4z"/>
	<rect x="128" y="83.1" class="st2" width="43.5" height="10.3"/>
	<g>
		<path d="M150.3,60c-0.5,0-1-0.4-1-1V1c0-0.5,0.4-1,1-1c0.5,0,1,0.4,1,1v58C151.3,59.5,150.8,60,150.3,60z"/>
	</g>
	<g>
		<path class="st6" d="M203,65.9c4.4,0,8-3.6,8-8V33.7c-4.8-4.7-10.2-8.9-16.1-12.4v36.6C195,62.3,198.5,65.9,203,65.9z"/>
		<path d="M203,66.9c-5,0-9-4-9-9V21.3c0-0.4,0.2-0.7,0.5-0.9c0.3-0.2,0.7-0.2,1,0c5.9,3.5,11.3,7.7,16.2,12.5
			c0.2,0.2,0.3,0.4,0.3,0.7v24.2C212,62.9,208,66.9,203,66.9z M195.9,23.1v34.8c0,3.9,3.2,7,7,7c3.9,0,7-3.2,7-7V34.1
			C205.7,30,201,26.3,195.9,23.1z"/>
	</g>
	<g>
		<path class="st6" d="M98.5,65.9c4.4,0,8-3.6,8-8V21.4c-5.8,3.5-11.2,7.7-16.1,12.5v24C90.5,62.3,94.1,65.9,98.5,65.9z"/>
		<path d="M98.5,66.9c-5,0-9-4-9-9v-24c0-0.3,0.1-0.5,0.3-0.7c4.9-4.8,10.4-9.1,16.2-12.6c0.3-0.2,0.7-0.2,1,0
			c0.3,0.2,0.5,0.5,0.5,0.9v36.5C107.5,62.9,103.5,66.9,98.5,66.9z M91.5,34.3v23.6c0,3.9,3.2,7,7,7c3.9,0,7-3.2,7-7V23.2
			C100.5,26.4,95.7,30.1,91.5,34.3z"/>
	</g>
	<g>
		<path d="M171.4,94.4H128c-0.5,0-1-0.4-1-1v-77C127,7.4,134.3,0,143.4,0H156c9.1,0,16.4,7.4,16.4,16.4v77
			C172.4,94,172,94.4,171.4,94.4z M128.9,92.4h41.5v-76C170.5,8.5,164,2,156,2h-12.6c-8,0-14.5,6.5-14.5,14.5V92.4z"/>
	</g>
	<g>
		<g>
			<path d="M128,94.4H64.9c-0.3,0-0.5-0.1-0.7-0.3c-0.2-0.2-0.3-0.4-0.3-0.7c0.8-38.5,27.3-72.3,64.4-82.3c0.3-0.1,0.7,0,1,0.3
				c0.3,0.3,0.3,0.6,0.2,1c-0.4,1.3-0.6,2.7-0.6,4.1v77C128.9,94,128.5,94.4,128,94.4z M65.9,92.4H127v-76c0-1,0.1-2,0.3-3
				C92.1,23.6,67.1,55.8,65.9,92.4z"/>
		</g>
		<g>
			<path d="M236.8,94.4h-65.3c-0.5,0-1-0.4-1-1v-77c0-1.6-0.3-3.1-0.8-4.7c-0.1-0.3,0-0.7,0.2-1c0.2-0.3,0.6-0.4,1-0.3
				c38.6,9.1,66.2,43.2,66.9,82.9c0,0.3-0.1,0.5-0.3,0.7C237.3,94.3,237.1,94.4,236.8,94.4z M172.4,92.4h63.3
				c-1.2-37.8-27.2-70.2-63.8-79.6c0.3,1.2,0.4,2.4,0.4,3.6V92.4z"/>
		</g>
	</g>
	<g>
		<path d="M165,200h-28.7c-2.8,0-5-2.3-5-5v-10.6c0-2.8,2.3-5,5-5H165c2.8,0,5,2.3,5,5V195C170,197.7,167.8,200,165,200z
			 M136.2,181.3c-1.7,0-3.1,1.4-3.1,3.1V195c0,1.7,1.4,3.1,3.1,3.1H165c1.7,0,3.1-1.4,3.1-3.1v-10.6c0-1.7-1.4-3.1-3.1-3.1H136.2z"
			/>
	</g>
	<g>
		<path d="M242.9,111.7H57.1c-2.8,0-5-2.3-5-5v-9.3c0-2.8,2.3-5,5-5h185.8c2.8,0,5,2.3,5,5v9.3C247.9,109.5,245.7,111.7,242.9,111.7
			z M57.1,94.4c-1.7,0-3.1,1.4-3.1,3.1v9.3c0,1.7,1.4,3.1,3.1,3.1h185.8c1.7,0,3.1-1.4,3.1-3.1v-9.3c0-1.7-1.4-3.1-3.1-3.1H57.1z"/>
	</g>
	<g>
		<path d="M242.9,111.7H57.1c-2.8,0-5-2.3-5-5v-9.3c0-2.8,2.3-5,5-5h185.8c2.8,0,5,2.3,5,5v9.3C247.9,109.5,245.7,111.7,242.9,111.7
			z M57.1,94.4c-1.7,0-3.1,1.4-3.1,3.1v9.3c0,1.7,1.4,3.1,3.1,3.1h185.8c1.7,0,3.1-1.4,3.1-3.1v-9.3c0-1.7-1.4-3.1-3.1-3.1H57.1z"/>
	</g>
	<g>
		<g>
			<path d="M132.2,196.4C132.2,196.4,132.2,196.4,132.2,196.4c-39-2.1-69.6-34.4-69.6-73.5v-12.1c0-0.5,0.4-1,1-1h9.7
				c0.5,0,1,0.4,1,1v8.4c0,16,6,31.3,16.8,43.1c10.8,11.7,25.5,18.9,41.3,20.2c0.3,0,0.6,0.2,0.7,0.4c0.2,0.2,0.2,0.5,0.2,0.8
				c-0.1,0.3-0.1,0.5-0.1,0.7v10.5c0,0.1,0,0.1,0,0.2l0,0.2c0,0.3-0.1,0.6-0.3,0.8C132.8,196.2,132.5,196.4,132.2,196.4z
				 M64.6,111.7v11.1c0,37.7,29.2,68.8,66.6,71.5v-9.9c0,0,0,0,0-0.1c-15.9-1.6-30.6-9-41.5-20.8c-11.2-12.1-17.4-27.9-17.4-44.4
				v-7.4H64.6z"/>
		</g>
		<g>
			<path d="M169,196.4c-0.3,0-0.5-0.1-0.7-0.3c-0.2-0.2-0.3-0.5-0.3-0.8l0-0.2c0-0.1,0-0.1,0-0.2v-10.5c0-0.2,0-0.5-0.1-0.7
				c-0.1-0.3,0-0.6,0.2-0.8c0.2-0.2,0.4-0.4,0.7-0.4c15.8-1.3,30.5-8.5,41.3-20.2c10.9-11.8,16.8-27.1,16.8-43.1v-8.4
				c0-0.5,0.4-1,1-1h9.7c0.5,0,1,0.4,1,1v12.1C238.6,161.9,208,194.2,169,196.4C169,196.4,169,196.4,169,196.4z M170,184.3
				C170,184.3,170,184.4,170,184.3l0,10c37.4-2.6,66.6-33.8,66.6-71.5v-11.1h-7.7v7.4c0,16.5-6.2,32.3-17.4,44.4
				C200.6,175.4,185.9,182.7,170,184.3z"/>
		</g>
	</g>
</g>
</svg>
