<?xml version="1.0" encoding="utf-8"?>
<!-- Generator: Adobe Illustrator 24.3.0, SVG Export Plug-In . SVG Version: 6.00 Build 0)  -->
<svg version="1.1" id="Capa_1" xmlns="http://www.w3.org/2000/svg" xmlns:xlink="http://www.w3.org/1999/xlink" x="0px" y="0px"
	 viewBox="0 0 300 200" style="enable-background:new 0 0 300 200;" xml:space="preserve">
<style type="text/css">
	.st0{fill:#5F7993;}
	.st1{fill:#17B5C8;}
	.st2{fill:#11828F;}
	.st3{fill:#405162;}
	.st4{fill:#A6D100;}
	.st5{fill:#89AB00;}
	.st6{fill:#FFFFFF;}
	.st7{fill:none;stroke:#17B5C8;stroke-width:2;stroke-miterlimit:10;}
</style>
<g>
	<path class="st4" d="M107.2,138.7v-2.2c-3.4-1.1-6.2-3.7-7.5-7c-0.3,0.2-0.7,0.3-1,0.5l-0.3,0.2c-0.3,0.1-0.5,0.2-0.8,0.4
		c-0.4,0.1-0.8,0.3-1.2,0.4l-0.2,0.1c-0.3,0.1-0.6,0.2-1,0.3c-0.5,0.1-1,0.3-1.5,0.4l-0.3,0.1c-0.2,0-0.4,0.1-0.5,0.1
		c-0.7,0.1-1.4,0.2-2,0.3c-0.2,0-0.2,0-0.3,0c-0.9,0.1-1.7,0.1-2.4,0.1c-0.3,0-0.5,0-0.8,0c-0.2,0-0.3,0-0.5,0l-0.3,0
		c-0.5,0-1.1,0-1.6-0.1c-1-0.1-1.9-0.3-2.9-0.6h0l-0.1,0c-8.8-2.3-15.6-9.1-17.9-17.9c-1.7-6.4-0.7-13.1,2.7-18.9
		c3.4-5.7,8.8-9.8,15.2-11.5c0.9-0.2,1.8-0.4,2.7-0.5c0.3,0,0.6-0.1,0.9-0.1c0.6-0.1,1.2-0.1,1.8-0.1c0.1,0,0.2,0,0.3,0
		c0.2,0,0.3,0,0.5,0c5.3,0,10.6,1.8,14.8,4.9l0.4,0.3c0.4,0.3,0.7,0.6,1,0.9c0.3,0.2,0.6,0.5,0.8,0.7l0.1,0.1
		c0.2,0.2,0.4,0.4,0.6,0.6c0.4,0.4,0.8,0.9,1.2,1.3c0.1,0.2,0.2,0.2,0.3,0.3c0.9,1.1,1.8,2.3,2.5,3.6l0.1,0.1
		c0.3,0.5,0.6,1.1,0.8,1.6c2.3-8.7,6.2-16.9,11.4-24.3l-3.5-3.5c-0.4-0.4-1-0.7-1.7-0.7c-0.6,0-1.2,0.2-1.7,0.7l-2.1,2.1
		c-1.6,1.6-3.8,2.5-6,2.5c-1.2,0-2.4-0.3-3.5-0.8c-0.7-0.3-1.5-0.6-2.2-0.9c-3.3-1.3-5.5-4.5-5.5-8v-3c0-1.3-1.1-2.3-2.3-2.3H82.8
		c-1.3,0-2.3,1.1-2.3,2.3v3c0,3.5-2.2,6.7-5.5,8c-0.7,0.3-1.5,0.6-2.2,0.9c-1.1,0.5-2.3,0.8-3.5,0.8c-2.3,0-4.4-0.9-6-2.5L61,69.2
		c-0.4-0.4-1-0.7-1.7-0.7c-0.6,0-1.2,0.2-1.7,0.7L50,76.9c-0.4,0.4-0.7,1-0.7,1.7c0,0.6,0.2,1.2,0.7,1.7l2.1,2.1
		c2.5,2.5,3.2,6.3,1.7,9.6c-0.3,0.7-0.6,1.5-0.9,2.2c-1.3,3.3-4.5,5.5-8,5.5h-3c-1.3,0-2.3,1.1-2.3,2.3v10.9c0,1.3,1.1,2.3,2.3,2.3
		h3c3.5,0,6.7,2.2,8,5.5c0.3,0.7,0.6,1.5,0.9,2.2c1.5,3.2,0.8,7-1.7,9.6l-2.1,2.1c-0.9,0.9-0.9,2.4,0,3.3l7.7,7.7
		c0.4,0.4,1,0.7,1.7,0.7c0.6,0,1.2-0.2,1.7-0.7l2.1-2.1c1.6-1.6,3.8-2.5,6-2.5c1.2,0,2.4,0.3,3.5,0.8c0.7,0.3,1.5,0.6,2.2,0.9
		c3.3,1.3,5.5,4.5,5.5,8v3c0,1.3,1.1,2.3,2.3,2.3h10.9c1.3,0,2.3-1.1,2.3-2.3v-3c0-3.5,2.2-6.7,5.5-8c0.8-0.3,1.5-0.6,2.2-0.9
		c1.1-0.5,2.3-0.8,3.5-0.8c0,0,0,0,0,0C107.2,140.3,107.2,139.5,107.2,138.7z"/>
	<g>
		<path class="st5" d="M115.7,83.7c1.8-3.8,4-7.5,6.5-11l-3.5-3.5c-0.4-0.4-1-0.7-1.7-0.7c-0.6,0-1.2,0.2-1.7,0.7l-2.1,2.1
			c-1.6,1.6-3.8,2.5-6,2.5c0,0,0,0,0,0C109.5,75.8,112.8,79.2,115.7,83.7z"/>
		<path class="st5" d="M107.2,138.7V137c-10.2,8-22.9,8.2-29.4,7.6c1.6,1.6,2.6,3.7,2.6,6.1v3c0,1.3,1.1,2.3,2.3,2.3h10.9
			c1.3,0,2.3-1.1,2.3-2.3v-3c0-3.5,2.2-6.7,5.5-8c0.8-0.3,1.5-0.6,2.2-0.9c1.1-0.5,2.3-0.8,3.5-0.8c0,0,0,0,0,0
			C107.2,140.3,107.2,139.5,107.2,138.7z"/>
	</g>
	<path class="st1" d="M115.4,40.5c1.1-0.3,2.3-0.5,3.5-0.6c0.4-0.1,0.8-0.1,1.2-0.1c0.8-0.1,1.5-0.1,2.3-0.1c0.1,0,0.3,0,0.4,0
		c0.2,0,0.4,0,0.6,0c6.9,0,13.6,2.3,19.1,6.4l0.6,0.4c0.5,0.4,0.9,0.7,1.3,1.1c0.4,0.3,0.7,0.6,1.1,1l0.1,0.1
		c0.3,0.2,0.5,0.5,0.7,0.7c0.4,0.4,0.7,0.8,1,1.2l9.7-4.7c1.2-0.5,2.5-0.9,3.7-1.3c3.4-5.8,9.5-9.7,16.3-10.1l2.2-2.2
		c0.6-0.6,1-1.5,1-2.4s-0.4-1.8-1-2.4l-11.2-11.2c-0.6-0.6-1.5-1-2.4-1c-0.9,0-1.8,0.4-2.4,1l-3.1,3.1c-2.3,2.3-5.4,3.6-8.7,3.6
		c-1.8,0-3.5-0.4-5.1-1.1c-1.1-0.5-2.1-0.9-3.2-1.3c-4.8-1.8-8-6.5-8-11.6V4.4c0-1.9-1.5-3.4-3.4-3.4h-15.8c-1.9,0-3.4,1.5-3.4,3.4
		v4.3c0,5.1-3.2,9.8-8,11.6c-1.1,0.4-2.2,0.9-3.2,1.3c-1.6,0.7-3.4,1.1-5.1,1.1c-3.3,0-6.4-1.3-8.7-3.6l-3.1-3.1
		c-0.6-0.6-1.5-1-2.4-1c-0.9,0-1.8,0.4-2.4,1L68.3,27.2c-0.6,0.6-1,1.5-1,2.4c0,0.9,0.4,1.8,1,2.4l3.1,3.1C75,38.8,76,44.4,73.9,49
		c0,0.1-0.1,0.1-0.1,0.2c2.5-1.9,5.6-3,8.9-3h10.9c2.8,0,5.4,0.8,7.7,2.1C105.2,44.6,110,41.9,115.4,40.5z"/>
	<path class="st2" d="M159.5,44.8c0.5-0.2,0.9-0.3,1.4-0.5c3.4-5.8,9.5-9.7,16.3-10.1l2.2-2.2c0,0,0,0,0.1-0.1l-1.1-4.2l-12.6-12.7
		c0,0,0,0,0,0c-0.9,0-1.8,0.4-2.4,1l-3.1,3.1c-2.3,2.3-5.4,3.6-8.7,3.6c-1.8,0-3.5-0.4-5.1-1.1c-1.1-0.5-2.1-0.9-3.2-1.3
		c-2.2-0.8-4-2.3-5.4-4.1l-0.4,0C137.4,16.3,150.5,27.6,159.5,44.8z"/>
	<path class="st1" d="M136.9,127.6c0,0.1,0.1,0.1,0.1,0.2c0.1-0.1,0.1-0.2,0.2-0.3C137.1,127.6,137,127.6,136.9,127.6z"/>
	<path d="M104.9,21.2c5.1-2,8.6-7,8.6-12.5V4.4c0-1.3,1.1-2.4,2.4-2.4h15.8c1.3,0,2.4,1.1,2.4,2.4v4.4c0,5.5,3.5,10.5,8.6,12.5
		c1.1,0.4,2.1,0.9,3.2,1.3c1.8,0.8,3.6,1.2,5.5,1.2c3.6,0,6.9-1.4,9.4-3.9l3.1-3.1c0.9-0.9,2.5-0.9,3.4,0L178.6,28
		c0.5,0.5,0.7,1.1,0.7,1.7c0,0.6-0.2,1.2-0.7,1.7l-3,3c0.9-0.1,1.8-0.2,2.8-0.2h0.2l1.4-1.4c0.8-0.8,1.3-1.9,1.3-3.1
		c0-1.2-0.5-2.3-1.3-3.1l-11.2-11.2c-0.8-0.8-1.9-1.3-3.1-1.3c-1.2,0-2.3,0.5-3.1,1.3l-3.1,3.1c-2.2,2.1-5,3.3-8,3.3
		c-1.6,0-3.2-0.3-4.7-1c-1.1-0.5-2.2-0.9-3.3-1.4c-4.4-1.7-7.3-6-7.4-10.6V4.4c0-2.4-2-4.4-4.4-4.4h-15.8c-2.4,0-4.4,2-4.4,4.4v4.3
		c0,4.7-3,9-7.4,10.6c-1.1,0.4-2.2,0.9-3.3,1.4c-1.5,0.7-3.1,1-4.7,1c-3,0-5.9-1.2-8-3.3L85,15.4c-0.8-0.8-1.9-1.3-3.1-1.3
		s-2.3,0.5-3.1,1.3L67.6,26.5c-0.8,0.8-1.3,1.9-1.3,3.1c0,1.2,0.5,2.3,1.3,3.1l3.1,3.1c3.3,3.3,4.2,8.5,2.3,12.8
		c-0.3,0.7-0.6,1.4-0.9,2.1c0.9-1,2-1.8,3.2-2.5c1.6-4.8,0.4-10.2-3.1-13.8L69,31.4c-0.5-0.5-0.7-1.1-0.7-1.7c0-0.6,0.3-1.3,0.7-1.7
		l11.2-11.2c0.9-0.9,2.5-0.9,3.4,0l3.1,3.1c2.5,2.5,5.9,3.9,9.4,3.9c1.9,0,3.8-0.4,5.5-1.2C102.7,22.1,103.8,21.7,104.9,21.2z"/>
	<g>
		<path class="st4" d="M194.6,199h-21c-2.3,0-4.1-1.8-4.1-4.1v-6.6c0-2.3,1.8-4.1,4.1-4.1h21c2.3,0,4.1,1.8,4.1,4.1v6.6
			C198.7,197.2,196.8,199,194.6,199z"/>
		<path class="st5" d="M195.4,184.2h-22.7c-1.8,0-3.2,1.5-3.2,3.2v4.3c0-1.8,1.5-3.2,3.2-3.2h22.7c1.8,0,3.2,1.5,3.2,3.2v-4.3
			C198.7,185.6,197.2,184.2,195.4,184.2z"/>
		<path class="st1" d="M256.3,129.1H110.9c-2.3,0-4.1-1.8-4.1-4.1v-5.6c0-2.3,1.8-4.1,4.1-4.1h145.4c2.3,0,4.1,1.8,4.1,4.1v5.6
			C260.4,127.3,258.5,129.1,256.3,129.1z"/>
		<path class="st1" d="M256.3,129.1H110.9c-2.3,0-4.1-1.8-4.1-4.1v-5.6c0-2.3,1.8-4.1,4.1-4.1h145.4c2.3,0,4.1,1.8,4.1,4.1v5.6
			C260.4,127.3,258.5,129.1,256.3,129.1z"/>
		<g>
			<path class="st0" d="M166.6,50.9c-28.6,7.7-49.8,33.5-50.5,64.4h50v-61C166.1,53.2,166.3,52,166.6,50.9z"/>
			<path class="st0" d="M252.3,115.4c-0.6-31.6-22.8-57.9-52.4-64.9c0.4,1.2,0.7,2.6,0.7,3.9v61H252.3z"/>
		</g>
		<path class="st3" d="M130.4,108.6c0.5-22.9,15.2-42.3,35.7-49.7v-4.5c0-1.2,0.2-2.4,0.5-3.5c-28.6,7.7-49.8,33.5-50.5,64.4h14.1
			L130.4,108.6z"/>
		<path class="st3" d="M237.1,108.6c-0.5-22.9-15.2-42.3-35.7-49.7v-4.5c0-1.2-0.2-2.4-0.5-3.5c28.6,7.7,49.8,33.5,50.5,64.4h-14.1
			L237.1,108.6z"/>
		<path class="st1" d="M200.6,115.4v-61c0-6.8-5.5-12.2-12.2-12.2h-10c-6.8,0-12.2,5.5-12.2,12.2v61H200.6z"/>
		<rect x="166.1" y="107.2" class="st2" width="34.4" height="8.1"/>
		<g>
			<path d="M183.8,89.1c-0.6,0-1-0.4-1-1V42.2c0-0.6,0.4-1,1-1c0.6,0,1,0.4,1,1v45.9C184.8,88.6,184.4,89.1,183.8,89.1z"/>
		</g>
		<g>
			<path class="st6" d="M225.6,93.6c3.5,0,6.4-2.8,6.4-6.4V68.1c-3.8-3.8-8.1-7.1-12.7-9.8v29C219.2,90.7,222,93.6,225.6,93.6z"/>
			<path d="M225.6,94.6c-4.1,0-7.4-3.3-7.4-7.4v-29c0-0.4,0.2-0.7,0.5-0.9s0.7-0.2,1,0c4.7,2.8,9,6.1,12.9,10
				c0.2,0.2,0.3,0.4,0.3,0.7v19.1C232.9,91.3,229.6,94.6,225.6,94.6z M220.2,60v27.2c0,3,2.4,5.4,5.4,5.4s5.4-2.4,5.4-5.4V68.5
				C227.6,65.3,224,62.5,220.2,60z"/>
		</g>
		<g>
			<path class="st6" d="M142.8,93.6c3.5,0,6.4-2.8,6.4-6.4V58.4c-4.6,2.8-8.9,6.1-12.7,9.9v19C136.4,90.7,139.3,93.6,142.8,93.6z"/>
			<path d="M142.8,94.6c-4.1,0-7.4-3.3-7.4-7.4v-19c0-0.3,0.1-0.5,0.3-0.7c3.9-3.8,8.2-7.2,12.9-10c0.3-0.2,0.7-0.2,1,0
				c0.3,0.2,0.5,0.5,0.5,0.9v28.9C150.1,91.3,146.8,94.6,142.8,94.6z M137.4,68.7v18.6c0,3,2.4,5.4,5.4,5.4s5.4-2.4,5.4-5.4V60.2
				C144.3,62.6,140.7,65.5,137.4,68.7z"/>
		</g>
		<g>
			<path d="M200.6,116.4h-34.4c-0.6,0-1-0.4-1-1v-61c0-7.3,5.9-13.2,13.2-13.2h10c7.3,0,13.2,5.9,13.2,13.2v61
				C201.6,115.9,201.1,116.4,200.6,116.4z M167.1,114.4h32.5v-60c0-6.2-5-11.2-11.2-11.2h-10c-6.2,0-11.2,5-11.2,11.2V114.4z"/>
		</g>
		<g>
			<g>
				<path d="M166.1,116.4h-50c-0.3,0-0.5-0.1-0.7-0.3c-0.2-0.2-0.3-0.4-0.3-0.7c0.6-30.6,21.7-57.5,51.2-65.4c0.3-0.1,0.7,0,1,0.3
					c0.3,0.3,0.3,0.6,0.2,1c-0.3,1-0.5,2.1-0.5,3.2v61C167.1,115.9,166.7,116.4,166.1,116.4z M117.2,114.4h47.9v-60
					c0-0.7,0.1-1.4,0.2-2.1C137.8,60.4,118.2,85.6,117.2,114.4z"/>
			</g>
			<g>
				<path d="M252.3,116.4h-51.8c-0.6,0-1-0.4-1-1v-61c0-1.2-0.2-2.4-0.6-3.6c-0.1-0.3,0-0.7,0.2-1c0.2-0.3,0.6-0.4,1-0.3
					c30.7,7.2,52.6,34.3,53.2,65.9c0,0.3-0.1,0.5-0.3,0.7C252.9,116.2,252.6,116.4,252.3,116.4z M201.6,114.4h49.7
					c-1-29.6-21.4-55-50-62.5c0.2,0.9,0.3,1.7,0.3,2.6V114.4z"/>
			</g>
		</g>
		<g>
			<path d="M194.6,200h-21c-2.8,0-5.1-2.3-5.1-5.1v-6.7c0-2.8,2.3-5.1,5.1-5.1h21c2.8,0,5.1,2.3,5.1,5.1v6.7
				C199.7,197.7,197.4,200,194.6,200z M173.6,185.2c-1.7,0-3.1,1.4-3.1,3.1v6.7c0,1.7,1.4,3.1,3.1,3.1h21c1.7,0,3.1-1.4,3.1-3.1
				v-6.7c0-1.7-1.4-3.1-3.1-3.1H173.6z"/>
		</g>
		<g>
			<path d="M256.3,130.1H110.9c-2.8,0-5.1-2.3-5.1-5.1v-5.6c0-2.8,2.3-5.1,5.1-5.1h145.4c2.8,0,5.1,2.3,5.1,5.1v5.6
				C261.4,127.8,259.1,130.1,256.3,130.1z M110.9,116.4c-1.7,0-3.1,1.4-3.1,3.1v5.6c0,1.7,1.4,3.1,3.1,3.1h145.4
				c1.7,0,3.1-1.4,3.1-3.1v-5.6c0-1.7-1.4-3.1-3.1-3.1H110.9z"/>
		</g>
		<g>
			<path d="M256.3,130.1H110.9c-2.8,0-5.1-2.3-5.1-5.1v-5.6c0-2.8,2.3-5.1,5.1-5.1h145.4c2.8,0,5.1,2.3,5.1,5.1v5.6
				C261.4,127.8,259.1,130.1,256.3,130.1z M110.9,116.4c-1.7,0-3.1,1.4-3.1,3.1v5.6c0,1.7,1.4,3.1,3.1,3.1h145.4
				c1.7,0,3.1-1.4,3.1-3.1v-5.6c0-1.7-1.4-3.1-3.1-3.1H110.9z"/>
		</g>
		<g>
			<g>
				<path d="M169.5,197.1C169.5,197.1,169.5,197.1,169.5,197.1c-31.1-1.7-55.3-27.4-55.3-58.4v-9.6c0-0.6,0.4-1,1-1h7.7
					c0.6,0,1,0.4,1,1v6.6c0,12.6,4.7,24.7,13.3,34c8.5,9.2,20.1,14.9,32.5,16c0.3,0,0.6,0.2,0.7,0.4c0.2,0.2,0.2,0.5,0.2,0.8
					c0,0.2-0.1,0.4-0.1,0.5v8.3c0,0,0,0.1,0,0.1l0,0.1c0,0.3-0.1,0.6-0.3,0.8C170.1,197,169.8,197.1,169.5,197.1z M116.2,130.1v8.6
					c0,29.6,22.9,54.2,52.3,56.4v-7.5c-12.6-1.3-24.2-7.1-32.8-16.5c-8.9-9.6-13.8-22.2-13.8-35.3v-5.6H116.2z"/>
			</g>
			<g>
				<path d="M198.6,197.1c-0.3,0-0.5-0.1-0.7-0.3c-0.2-0.2-0.3-0.5-0.3-0.8l0-0.1c0,0,0-0.1,0-0.1v-8.3c0-0.2,0-0.3-0.1-0.5
					c-0.1-0.3,0-0.6,0.2-0.8c0.2-0.2,0.4-0.4,0.7-0.4c12.5-1.1,24-6.7,32.5-16c8.6-9.3,13.3-21.3,13.3-34v-6.6c0-0.6,0.4-1,1-1h7.7
					c0.6,0,1,0.4,1,1v9.6C254,169.8,229.7,195.4,198.6,197.1C198.7,197.1,198.6,197.1,198.6,197.1z M199.7,187.6v7.5
					c29.4-2.2,52.3-26.7,52.3-56.4v-8.6h-5.7v5.6c0,13.1-4.9,25.7-13.8,35.3C223.9,180.4,212.2,186.2,199.7,187.6z"/>
			</g>
		</g>
	</g>
	<path d="M115.7,41.5c1.1-0.3,2.2-0.5,3.4-0.6c0.4-0.1,0.8-0.1,1.2-0.1c0.7-0.1,1.4-0.1,2.2-0.1c0.1,0,0.2,0,0.3,0l0.1,0
		c0.2,0,0.4,0,0.6,0c6.6,0,13.2,2.2,18.5,6.2l0.6,0.4c0.4,0.3,0.9,0.7,1.3,1.1c0.4,0.3,0.7,0.6,1,0.9l0.2,0.2
		c0.2,0.2,0.4,0.4,0.7,0.6c0.3,0.3,0.5,0.6,0.8,0.9l1.9-0.9c-0.4-0.5-0.9-1-1.3-1.4c-0.2-0.2-0.5-0.5-0.8-0.8l-0.1-0.1
		c-0.4-0.3-0.7-0.7-1.1-1c-0.4-0.4-0.9-0.8-1.4-1.1l-0.6-0.4c-5.6-4.2-12.7-6.6-19.7-6.6c-0.2,0-0.5,0-0.7,0l-0.1,0
		c-0.1,0-0.2,0-0.2,0c-0.8,0-1.6,0.1-2.4,0.1c-0.4,0-0.8,0.1-1.2,0.1c-1.2,0.2-2.4,0.4-3.6,0.7c-5.7,1.5-10.7,4.3-14.8,8.3
		c0.6,0.3,1.2,0.7,1.8,1.1C105.9,45.4,110.5,42.8,115.7,41.5z"/>
	<path d="M107.2,140c-1.4,0-2.7,0.3-3.9,0.9c-0.7,0.3-1.5,0.6-2.2,0.9c-3.7,1.4-6.1,5-6.1,8.9v3c0,0.7-0.6,1.3-1.3,1.3H82.8
		c-0.7,0-1.3-0.6-1.3-1.3v-3c0-3.9-2.5-7.5-6.1-8.9c-0.7-0.3-1.4-0.6-2.2-0.9c-1.3-0.6-2.6-0.9-3.9-0.9c-2.5,0-4.9,1-6.7,2.8
		l-2.1,2.1c-0.5,0.5-1.4,0.5-1.9,0l-7.7-7.7c-0.5-0.5-0.5-1.4,0-1.9l2.1-2.1c2.8-2.8,3.5-7.1,1.9-10.7c-0.3-0.7-0.6-1.4-0.9-2.2
		c-1.4-3.7-5-6.1-8.9-6.2h-3c-0.7,0-1.3-0.6-1.3-1.3V102c0-0.7,0.6-1.3,1.3-1.3h3c3.9,0,7.5-2.5,8.9-6.1c0.3-0.7,0.6-1.4,0.9-2.2
		c1.6-3.6,0.9-7.9-1.9-10.7l-2.1-2.1c-0.3-0.3-0.4-0.6-0.4-1c0-0.4,0.1-0.7,0.4-1l7.7-7.7c0.5-0.5,1.4-0.5,1.9,0l2.1,2.1
		c1.8,1.8,4.2,2.8,6.7,2.8c1.4,0,2.7-0.3,3.9-0.9c0.7-0.3,1.4-0.6,2.2-0.9c3.7-1.4,6.1-5,6.2-8.9v-3c0-0.7,0.6-1.3,1.3-1.3h10.9
		c0.7,0,1.3,0.6,1.3,1.3v3c0,3.9,2.5,7.5,6.1,8.9c0.7,0.3,1.5,0.6,2.2,0.9c1.2,0.6,2.6,0.9,3.9,0.9c2.5,0,4.9-1,6.7-2.8l2.1-2.1
		c0.5-0.5,1.4-0.5,1.9,0l3.6,3.6c0.4-0.6,0.8-1.1,1.2-1.7l-3.4-3.4c-1.3-1.2-3.4-1.3-4.7,0l-2.1,2.1c-1.4,1.4-3.3,2.2-5.3,2.2
		c-1.1,0-2.1-0.2-3.1-0.7c-0.8-0.3-1.5-0.7-2.3-0.9c-2.9-1.1-4.9-3.9-4.9-7v-3c0-1.8-1.5-3.3-3.3-3.3H82.8c-1.8,0-3.3,1.5-3.3,3.3v3
		c0,3.1-2,5.9-4.9,7c-0.8,0.3-1.5,0.6-2.3,0.9c-1,0.4-2,0.7-3.1,0.7c-2,0-3.9-0.8-5.3-2.2l-2.1-2.1c-1.3-1.3-3.5-1.3-4.7,0l-7.7,7.7
		c-0.6,0.6-1,1.5-1,2.4s0.3,1.7,1,2.4l2.1,2.1c2.2,2.2,2.8,5.6,1.5,8.4c-0.3,0.8-0.7,1.5-0.9,2.3c-1.1,2.9-3.9,4.9-7,4.9h-3
		c-1.8,0-3.3,1.5-3.3,3.3v10.9c0,1.8,1.5,3.3,3.3,3.3h3c3.1,0,5.9,2,7,4.9c0.3,0.8,0.6,1.5,0.9,2.3c1.3,2.8,0.7,6.2-1.5,8.4
		l-2.1,2.1c-1.3,1.3-1.3,3.4,0,4.7l7.7,7.7c1.3,1.3,3.5,1.3,4.7,0l2.1-2.1c1.4-1.4,3.3-2.2,5.3-2.2c1.1,0,2.1,0.2,3.1,0.7
		c0.8,0.3,1.5,0.7,2.3,0.9c2.9,1.1,4.9,3.9,4.9,7v3c0,1.8,1.5,3.3,3.3,3.3h10.9c1.8,0,3.3-1.5,3.3-3.3v-3c0-3.1,2-5.9,4.9-7
		c0.8-0.3,1.5-0.6,2.3-1c1-0.4,2-0.7,3.1-0.7c0,0,0,0,0.1,0C107.3,141.4,107.3,140.7,107.2,140z"/>
	<path d="M99.5,129c-3.3,1.7-7.1,2.7-11,2.7c-13.3,0-24.1-10.8-24.1-24.1s10.8-24.1,24.1-24.1c9.9,0,18.4,6,22.1,14.5
		c0.2-1,0.5-1.9,0.8-2.9c-4.4-8.1-13-13.6-22.9-13.6c-14.4,0-26.1,11.7-26.1,26.1s11.7,26.1,26.1,26.1c4.3,0,8.3-1,11.9-2.9
		C100,130.2,99.7,129.6,99.5,129z"/>
</g>
</svg>
