<?xml version="1.0" encoding="UTF-8" standalone="no"?>
<!-- Generator: Adobe Illustrator 24.3.0, SVG Export Plug-In . SVG Version: 6.00 Build 0)  -->

<svg
   xmlns:dc="http://purl.org/dc/elements/1.1/"
   xmlns:cc="http://creativecommons.org/ns#"
   xmlns:rdf="http://www.w3.org/1999/02/22-rdf-syntax-ns#"
   xmlns:svg="http://www.w3.org/2000/svg"
   xmlns="http://www.w3.org/2000/svg"
   xmlns:sodipodi="http://sodipodi.sourceforge.net/DTD/sodipodi-0.dtd"
   xmlns:inkscape="http://www.inkscape.org/namespaces/inkscape"
   version="1.1"
   id="Capa_1"
   x="0px"
   y="0px"
   viewBox="0 0 300 200"
   style="enable-background:new 0 0 300 200;"
   xml:space="preserve"
   sodipodi:docname="scheduled-task.svg"
   inkscape:version="0.92.5 (2060ec1f9f, 2020-04-08)"><metadata
   id="metadata1104"><rdf:RDF><cc:Work
       rdf:about=""><dc:format>image/svg+xml</dc:format><dc:type
         rdf:resource="http://purl.org/dc/dcmitype/StillImage" /><dc:title /></cc:Work></rdf:RDF></metadata><defs
   id="defs1102" /><sodipodi:namedview
   pagecolor="#ffffff"
   bordercolor="#666666"
   borderopacity="1"
   objecttolerance="10"
   gridtolerance="10"
   guidetolerance="10"
   inkscape:pageopacity="0"
   inkscape:pageshadow="2"
   inkscape:window-width="1920"
   inkscape:window-height="1043"
   id="namedview1100"
   showgrid="false"
   inkscape:snap-global="false"
   showguides="false"
   inkscape:zoom="2.1325"
   inkscape:cx="41.692389"
   inkscape:cy="24.579469"
   inkscape:window-x="0"
   inkscape:window-y="1080"
   inkscape:window-maximized="1"
   inkscape:current-layer="Capa_1" />
<style
   type="text/css"
   id="style815">
	.st0{fill:#5F7993;}
	.st1{fill:#17B5C8;}
	.st2{fill:#11828F;}
	.st3{fill:#405162;}
	.st4{fill:#A6D100;}
	.st5{fill:#89AB00;}
	.st6{fill:#FFFFFF;}
	.st7{fill:none;stroke:#17B5C8;stroke-width:2;stroke-miterlimit:10;}
</style>
<rect
   style="opacity:1;fill:#ffffff;fill-opacity:1;fill-rule:nonzero;stroke:none;stroke-width:27.00329399;stroke-linecap:round;stroke-linejoin:round;stroke-miterlimit:4;stroke-dasharray:none;stroke-dashoffset:0;stroke-opacity:1"
   id="rect2055"
   width="157.68312"
   height="157.68312"
   x="71.505577"
   y="32.247158"
   ry="18.480148" /><path
   style="fill:#5f7993;stroke-width:5.58891726"
   id="path1363"
   d="m 208.9597,31.392905 h -5.58892 v -6.147809 c 0,-7.265593 -6.14781,-13.413402 -12.85451,-13.413402 -7.26559,0 -12.85451,6.147809 -12.85451,13.413402 v 6.147809 h -13.4134 v -6.147809 c 0,-7.265593 -6.14781,-13.413402 -12.85451,-13.413402 -6.7067,0 -12.85451,6.147809 -12.85451,13.413402 v 6.147809 h -13.4134 v -6.147809 c -0.5589,-7.265593 -6.7067,-13.413402 -13.9723,-13.413402 -7.26559,0 -12.854511,6.147809 -12.854511,13.413402 v 6.147809 h -6.706701 c -11.736726,0 -20.678993,9.501159 -20.678993,20.678993 V 169.99805 c 0,11.73673 9.501159,20.679 20.678993,20.679 H 209.51859 c 11.73672,0 20.67899,-9.50117 20.67899,-20.679 V 52.071898 c 0,-11.736725 -9.50116,-20.678993 -21.23788,-20.678993 z m -24.03235,-6.147809 c 0,-3.35335 2.79446,-6.147809 5.58892,-6.147809 3.35335,0 5.58892,2.794459 5.58892,6.147809 V 49.27744 c 0,3.353351 -2.79446,6.147809 -5.58892,6.147809 -3.35335,0 -5.58892,-2.794458 -5.58892,-6.147809 z m -39.68131,0 c 0,-3.35335 2.79446,-6.147809 5.58891,-6.147809 3.35336,0 5.58892,2.794459 5.58892,6.147809 V 49.27744 c 0,3.353351 -2.79446,6.147809 -5.58892,6.147809 -3.35335,0 -5.58891,-2.794458 -5.58891,-6.147809 z m -39.68132,0 c 0,-3.35335 2.79446,-6.147809 5.58892,-6.147809 2.79446,0 5.58892,2.794459 5.58892,6.147809 V 49.27744 c 0,3.353351 -2.79446,6.147809 -5.58892,6.147809 -2.79446,0 -5.58892,-2.794458 -5.58892,-6.147809 z M 217.90196,169.99805 c 0,4.47113 -3.91224,8.38338 -8.38337,8.38338 H 91.592428 c -4.471134,0 -8.383375,-3.91225 -8.383375,-8.38338 V 62.13195 H 217.90196 Z"
   class="st5"
   inkscape:connector-curvature="0" /><rect
   style="opacity:1;fill:#ffffff;fill-opacity:1;fill-rule:nonzero;stroke:#000000;stroke-width:2.30929136;stroke-linecap:round;stroke-linejoin:round;stroke-miterlimit:4;stroke-dasharray:none;stroke-dashoffset:0;stroke-opacity:1"
   id="rect2057"
   width="12.300629"
   height="34.538654"
   x="105.12372"
   y="19.803293"
   ry="8.5018225" /><rect
   style="opacity:1;fill:#ffffff;fill-opacity:1;fill-rule:nonzero;stroke:#000000;stroke-width:2.30929136;stroke-linecap:round;stroke-linejoin:round;stroke-miterlimit:4;stroke-dasharray:none;stroke-dashoffset:0;stroke-opacity:1"
   id="rect2057-5"
   width="12.300629"
   height="34.538654"
   x="145.01485"
   y="19.704762"
   ry="8.5018225" /><rect
   style="opacity:1;fill:#ffffff;fill-opacity:1;fill-rule:nonzero;stroke:#000000;stroke-width:2.30929136;stroke-linecap:round;stroke-linejoin:round;stroke-miterlimit:4;stroke-dasharray:none;stroke-dashoffset:0;stroke-opacity:1"
   id="rect2057-3"
   width="12.300629"
   height="34.538654"
   x="184.14551"
   y="19.940487"
   ry="8.5018225" /><path
   sodipodi:nodetypes="ccccccccccccccccccccc"
   inkscape:connector-curvature="0"
   id="path2331"
   d="M 71.812099,177.77268 72.046564,43.657802 c 1.919939,-6.589112 6.383911,-9.246535 11.72333,-10.550996 L 99.244689,32.637872 98.541288,19.976677 c 2.446042,-6.669175 8.007202,-8.240882 13.833532,-9.378664 6.79713,-0.152709 10.76397,3.940023 13.83353,9.378664 l -0.23447,13.364595 -7.20984,4.513482 0.41031,-10.609613 c -1.65971,-3.20346 -2.56447,-6.813438 -8.10375,-7.927902 -4.96931,0.543777 -6.2896,3.954647 -6.93142,7.898593 l -0.13189,19.270223 -5.993552,3.912661 -9.320047,5.685815 v 6.096132 l -5.861665,-0.234467 0.644783,108.909724 2.432592,5.33412 0.08793,13.30598 C 81.44086,188.16736 76.6805,183.78033 71.812099,177.77268 Z"
   style="fill:#405162;stroke:none;stroke-width:1px;stroke-linecap:butt;stroke-linejoin:miter;stroke-opacity:1" /><path
   style="opacity:1;fill:none;fill-opacity:1;fill-rule:nonzero;stroke:#000000;stroke-width:2.46803141;stroke-linecap:round;stroke-linejoin:round;stroke-miterlimit:4;stroke-dasharray:none;stroke-dashoffset:0;stroke-opacity:1"
   d="m 228.43829,132.24744 v 41.85686 c 0,8.31088 -6.69071,15.00157 -15.00158,15.00157 H 86.507144 c -8.310868,0 -14.963315,-6.69078 -15.001568,-15.00157 L 71.036643,72.223995 m 0.468933,-11.723329 v -13.25194 c 0,-8.31087 6.691336,-15.104354 15.001568,-15.001568 l 11.791985,0.145851 -0.0014,-10.861771 c -6.99e-4,-5.57947 5.448891,-10.781061 13.520681,-10.619644 8.07179,0.161419 13.35404,5.51395 13.70239,11.024573 l 0.65181,10.310991 h 11.70473 l 0.41887,-10.242616 c 0.19228,-4.701693 5.28469,-11.494872 12.14716,-11.444258 8.51239,0.06279 13.56374,6.762506 13.69995,11.487339 l 0.28043,9.728081 14.062,0.471454 -0.55307,-10.843437 c 0,0 1.22866,-11.071738 12.41192,-10.843437 11.18326,0.228301 13.11908,9.900529 13.11908,9.900529 l 0.38984,11.786345 h 9.58319 c 8.31087,0 15.00158,6.690698 15.00158,15.001568 v 63.427784"
   id="rect2112"
   inkscape:connector-curvature="0"
   sodipodi:nodetypes="cssssccsscsssccsssccczccssc" /><g
   id="g1097"
   transform="translate(-78.012047,-42.625903)">
	
	
	<g
   id="g901"
   transform="translate(120.98476,-20.63306)">
		<g
   id="g883">
			<polygon
   class="st0"
   points=""
   id="polygon877"
   style="fill:#5f7993" />
			<polygon
   class="st0"
   points=""
   id="polygon879"
   style="fill:#5f7993" />
			<path
   class="st1"
   d="m 149.8,172.3 c -7,0 -12.7,-1.6 -12.7,-3.5 v 23.6 c 0,3.7 3,6.6 6.6,6.6 h 12.2 c 3.7,0 6.6,-3 6.6,-6.6 v -23.6 c 0,1.9 -5.7,3.5 -12.7,3.5 z"
   id="path881"
   inkscape:connector-curvature="0"
   style="fill:#17b5c8" />
		</g>
		<path
   class="st2"
   d="m 157.7,171.5 v 22.7 c 0,1.9 -0.8,3.6 -2.1,4.8 h 0.3 c 3.7,0 6.6,-3 6.6,-6.6 v -23.6 c 0,1.1 -1.9,2.1 -4.8,2.7 z"
   id="path885"
   inkscape:connector-curvature="0"
   style="fill:#11828f" />
		<ellipse
   class="st2"
   cx="149.8"
   cy="168.60001"
   rx="12.7"
   ry="3.7"
   id="ellipse887"
   style="fill:#11828f" />
		<path
   class="st1"
   d="m 138.5,170.3 c 2.1,-1.2 6.4,-2 11.3,-2 4.9,0 9.2,0.8 11.3,2 0.9,-0.5 1.4,-1.1 1.4,-1.7 0,-2 -5.7,-3.7 -12.7,-3.7 -7,0 -12.7,1.7 -12.7,3.7 0,0.6 0.5,1.2 1.4,1.7 z"
   id="path889"
   inkscape:connector-curvature="0"
   style="fill:#17b5c8" />
		<g
   id="g895">
			<g
   id="g893">
				<path
   d="m 155.9,200 h -12.2 c -4.2,0 -7.6,-3.4 -7.6,-7.6 v -23.6 h 2 c 0,0.7 4.1,2.5 11.7,2.5 7.6,0 11.7,-1.8 11.7,-2.5 h 2 v 23.6 c 0,4.2 -3.4,7.6 -7.6,7.6 z m -17.8,-28.7 v 21.1 c 0,3.1 2.5,5.6 5.6,5.6 h 12.2 c 3.1,0 5.6,-2.5 5.6,-5.6 v -21.1 c -2.6,1.4 -7.3,2 -11.7,2 -4.4,0 -9.2,-0.7 -11.7,-2 z"
   id="path891"
   inkscape:connector-curvature="0" />
			</g>
		</g>
		<g
   id="g899">
			<path
   d="m 149.8,173.3 c -6.6,0 -13.7,-1.5 -13.7,-4.7 0,-3.2 7.1,-4.7 13.7,-4.7 6.6,0 13.7,1.5 13.7,4.7 0,3.2 -7.1,4.7 -13.7,4.7 z m 0,-7.4 c -7.7,0 -11.7,1.9 -11.7,2.7 0,0.8 4,2.7 11.7,2.7 7.7,0 11.7,-1.9 11.7,-2.7 0,-0.8 -4,-2.7 -11.7,-2.7 z"
   id="path897"
   inkscape:connector-curvature="0" />
		</g>
	</g>
	
	
	
	
	
	
	
	
	<g
   id="g1067"
   transform="translate(42.203986,61.430246)">
		<rect
   x="165.8"
   y="98.699997"
   transform="matrix(0.9998,-0.01855149,0.01855149,0.9998,-1.8162,3.5598)"
   width="50.400002"
   height="2"
   id="rect1065" />
	</g>
	
	
	
	
	<path
   class="st4"
   d="m 184.00399,129.33025 h 20.6 c 0.7,0 1.1,0.7 0.8,1.3 l -11,24.1 c -0.3,0.6 0.2,1.3 0.8,1.3 h 15.2 c 0.8,0 1.2,0.9 0.7,1.5 l -28.8,38.5 c -0.6,0.8 -1.9,0.2 -1.6,-0.8 l 8.4,-28.6 c 0.2,-0.6 -0.3,-1.2 -0.9,-1.2 h -16 l 10.9,-35.5 c 0.1,-0.4 0.4,-0.6 0.9,-0.6 z"
   id="path1085"
   inkscape:connector-curvature="0"
   style="fill:#a6d100" />
	<g
   id="g1091"
   transform="translate(42.203986,61.430246)">
		<path
   class="st5"
   d="m 153.7,104.1 c 0.2,-0.6 -0.3,-1.2 -0.9,-1.2 h -5.2 l -9.1,30.8 c -0.3,1 1,1.6 1.6,0.8 l 7.6,-10.2 z"
   id="path1087"
   inkscape:connector-curvature="0"
   style="fill:#89ab00" />
		<path
   class="st5"
   d="m 145.7,74.2 c 0.1,-0.4 0.5,-0.6 0.9,-0.6 h 14.7 l 2,-4.4 c 0.3,-0.6 -0.2,-1.3 -0.8,-1.3 h -20.6 c -0.4,0 -0.8,0.3 -0.9,0.6 L 130,104 h 6.5 z"
   id="path1089"
   inkscape:connector-curvature="0"
   style="fill:#89ab00" />
	</g>
	<g
   id="g1095"
   transform="translate(42.203986,61.430246)">
		<path
   d="m 139.4,135.9 c -0.3,0 -0.6,-0.1 -0.9,-0.2 -0.8,-0.4 -1.2,-1.3 -1,-2.2 L 146,105 h -17.4 l 11.3,-36.7 c 0.2,-0.8 1,-1.3 1.8,-1.3 h 20.6 c 0.7,0 1.3,0.3 1.6,0.9 0.4,0.5 0.4,1.2 0.1,1.8 l -11,24 h 15.1 c 0.7,0 1.4,0.4 1.7,1.1 0.3,0.7 0.3,1.4 -0.2,2 l -28.8,38.5 c -0.2,0.3 -0.8,0.6 -1.4,0.6 z M 131.3,103 h 14.8 c 0.6,0 1.2,0.3 1.5,0.8 0.4,0.5 0.5,1.1 0.3,1.7 l -8.3,28.2 28.5,-38.1 H 153 c -0.7,0 -1.3,-0.3 -1.6,-0.9 -0.4,-0.5 -0.4,-1.2 -0.1,-1.8 l 11,-24 h -20.5 z"
   id="path1093"
   inkscape:connector-curvature="0" />
	</g>
</g>
</svg>