<?xml version="1.0" encoding="UTF-8" standalone="no"?>
<!-- Generator: Adobe Illustrator 24.3.0, SVG Export Plug-In . SVG Version: 6.00 Build 0)  -->

<svg
   xmlns:dc="http://purl.org/dc/elements/1.1/"
   xmlns:cc="http://creativecommons.org/ns#"
   xmlns:rdf="http://www.w3.org/1999/02/22-rdf-syntax-ns#"
   xmlns:svg="http://www.w3.org/2000/svg"
   xmlns="http://www.w3.org/2000/svg"
   xmlns:sodipodi="http://sodipodi.sourceforge.net/DTD/sodipodi-0.dtd"
   xmlns:inkscape="http://www.inkscape.org/namespaces/inkscape"
   version="1.1"
   id="Capa_1"
   x="0px"
   y="0px"
   viewBox="0 0 300 200"
   style="enable-background:new 0 0 300 200;"
   xml:space="preserve"
   sodipodi:docname="scheduled-task.svg"
   inkscape:version="0.92.5 (2060ec1f9f, 2020-04-08)"><metadata
   id="metadata1104"><rdf:RDF><cc:Work
       rdf:about=""><dc:format>image/svg+xml</dc:format><dc:type
         rdf:resource="http://purl.org/dc/dcmitype/StillImage" /><dc:title /></cc:Work></rdf:RDF></metadata><defs
   id="defs1102" /><sodipodi:namedview
   pagecolor="#ffffff"
   bordercolor="#666666"
   borderopacity="1"
   objecttolerance="10"
   gridtolerance="10"
   guidetolerance="10"
   inkscape:pageopacity="0"
   inkscape:pageshadow="2"
   inkscape:window-width="1920"
   inkscape:window-height="1016"
   id="namedview1100"
   showgrid="false"
   inkscape:snap-global="false"
   showguides="false"
   inkscape:zoom="2.1325"
   inkscape:cx="39.816656"
   inkscape:cy="158.05839"
   inkscape:window-x="0"
   inkscape:window-y="27"
   inkscape:window-maximized="1"
   inkscape:current-layer="g2329" />
<style
   type="text/css"
   id="style815">
	.st0{fill:#5F7993;}
	.st1{fill:#17B5C8;}
	.st2{fill:#11828F;}
	.st3{fill:#405162;}
	.st4{fill:#A6D100;}
	.st5{fill:#89AB00;}
	.st6{fill:#FFFFFF;}
	.st7{fill:none;stroke:#17B5C8;stroke-width:2;stroke-miterlimit:10;}
</style>
<g
   id="g2329"
   transform="matrix(1.4218152,0,0,1.4218152,129.51001,21.340572)"><g
     id="g2241"><rect
       style="opacity:1;fill:#ffffff;fill-opacity:1;fill-rule:nonzero;stroke:none;stroke-width:18.99212646;stroke-linecap:round;stroke-linejoin:round;stroke-miterlimit:4;stroke-dasharray:none;stroke-dashoffset:0;stroke-opacity:1"
       id="rect2055"
       width="110.90269"
       height="110.90269"
       x="-53.539787"
       y="1.3713737"
       ry="12.997574" /><g
       transform="matrix(3.9308324,0,0,3.9308324,-61.031754,-12.987359)"
       id="g1413"><path
         inkscape:connector-curvature="0"
         class="st5"
         d="m 26.5,3.5 h -1 V 2.4 C 25.5,1.1 24.4,0 23.2,0 21.9,0 20.9,1.1 20.9,2.4 V 3.5 H 18.5 V 2.4 C 18.5,1.1 17.4,0 16.2,0 15,0 13.9,1.1 13.9,2.4 V 3.5 H 11.5 V 2.4 C 11.4,1.1 10.3,0 9,0 7.7,0 6.7,1.1 6.7,2.4 V 3.5 H 5.5 C 3.4,3.5 1.8,5.2 1.8,7.2 v 21.1 c 0,2.1 1.7,3.7 3.7,3.7 h 21.1 c 2.1,0 3.7,-1.7 3.7,-3.7 V 7.2 C 30.3,5.1 28.6,3.5 26.5,3.5 Z M 22.2,2.4 c 0,-0.6 0.5,-1.1 1,-1.1 0.6,0 1,0.5 1,1.1 v 4.3 c 0,0.6 -0.5,1.1 -1,1.1 -0.6,0 -1,-0.5 -1,-1.1 z m -7.1,0 c 0,-0.6 0.5,-1.1 1,-1.1 0.6,0 1,0.5 1,1.1 v 4.3 c 0,0.6 -0.5,1.1 -1,1.1 -0.6,0 -1,-0.5 -1,-1.1 z M 8,2.4 C 8,1.8 8.5,1.3 9,1.3 c 0.5,0 1,0.5 1,1.1 V 6.7 C 10,7.3 9.5,7.8 9,7.8 8.5,7.8 8,7.3 8,6.7 Z m 20.1,25.9 c 0,0.8 -0.7,1.5 -1.5,1.5 H 5.5 C 4.7,29.8 4,29.1 4,28.3 V 9 h 24.1 z"
         id="path1363"
         style="fill:#5f7993" /><rect
         x="5.9000001"
         y="12.8"
         class="st3"
         width="4"
         height="3.5999999"
         id="rect1365"
         style="fill:#405162" /><rect
         x="11.3"
         y="12.8"
         class="st0"
         width="4"
         height="3.5999999"
         id="rect1367"
         style="fill:#5f7993" /><rect
         x="16.700001"
         y="12.8"
         class="st3"
         width="4"
         height="3.5999999"
         id="rect1369"
         style="fill:#405162" /><rect
         x="22.1"
         y="12.8"
         class="st0"
         width="4"
         height="3.5999999"
         id="rect1371"
         style="fill:#5f7993" /><rect
         x="5.9000001"
         y="17.6"
         class="st3"
         width="4"
         height="3.5999999"
         id="rect1373"
         style="fill:#405162" /><rect
         x="11.3"
         y="17.6"
         class="st0"
         width="4"
         height="3.5999999"
         id="rect1375"
         style="fill:#5f7993" /><rect
         x="16.700001"
         y="17.6"
         class="st3"
         width="4"
         height="3.5999999"
         id="rect1377"
         style="fill:#405162" /><rect
         x="22.1"
         y="17.6"
         class="st0"
         width="4"
         height="3.5999999"
         id="rect1379"
         style="fill:#5f7993" /><rect
         x="5.9000001"
         y="22.4"
         class="st3"
         width="4"
         height="3.5999999"
         id="rect1381"
         style="fill:#405162" /><rect
         x="11.3"
         y="22.4"
         class="st0"
         width="4"
         height="3.5999999"
         id="rect1383"
         style="fill:#5f7993" /><rect
         x="16.700001"
         y="22.4"
         class="st3"
         width="4"
         height="3.5999999"
         id="rect1385"
         style="fill:#405162" /><rect
         x="22.1"
         y="22.4"
         class="st0"
         width="4"
         height="3.5999999"
         id="rect1387"
         style="fill:#5f7993" /><path
         inkscape:connector-curvature="0"
         class="st1"
         d="m 22.1,26 c 0,0 4,-0.5 4,-3.6 V 26 Z"
         id="path1389"
         style="fill:#17b5c8" /><path
         inkscape:connector-curvature="0"
         class="st1"
         d="m 22.1,21.2 c 0,0 4,-0.5 4,-3.6 v 3.6 z"
         id="path1391"
         style="fill:#17b5c8" /><path
         inkscape:connector-curvature="0"
         class="st1"
         d="m 22.1,16.4 c 0,0 4,-0.5 4,-3.6 v 3.6 z"
         id="path1393"
         style="fill:#17b5c8" /><path
         inkscape:connector-curvature="0"
         class="st4"
         d="m 16.7,26 c 0,0 4,-0.5 4,-3.6 V 26 Z"
         id="path1395"
         style="fill:#a6d100" /><path
         inkscape:connector-curvature="0"
         class="st4"
         d="m 16.7,21.2 c 0,0 4,-0.5 4,-3.6 v 3.6 z"
         id="path1397"
         style="fill:#a6d100" /><path
         inkscape:connector-curvature="0"
         class="st4"
         d="m 16.7,16.4 c 0,0 4,-0.5 4,-3.6 v 3.6 z"
         id="path1399"
         style="fill:#a6d100" /><path
         inkscape:connector-curvature="0"
         class="st1"
         d="m 11.3,26 c 0,0 4,-0.5 4,-3.6 V 26 Z"
         id="path1401"
         style="fill:#17b5c8" /><path
         inkscape:connector-curvature="0"
         class="st1"
         d="m 11.3,21.2 c 0,0 4,-0.5 4,-3.6 v 3.6 z"
         id="path1403"
         style="fill:#17b5c8" /><path
         inkscape:connector-curvature="0"
         class="st1"
         d="m 11.3,16.4 c 0,0 4,-0.5 4,-3.6 v 3.6 z"
         id="path1405"
         style="fill:#17b5c8" /><path
         inkscape:connector-curvature="0"
         class="st4"
         d="m 5.9,26 c 0,0 4,-0.5 4,-3.6 V 26 Z"
         id="path1407"
         style="fill:#a6d100" /><path
         inkscape:connector-curvature="0"
         class="st4"
         d="m 5.9,21.2 c 0,0 4,-0.5 4,-3.6 v 3.6 z"
         id="path1409"
         style="fill:#a6d100" /><path
         inkscape:connector-curvature="0"
         class="st4"
         d="m 5.9,16.4 c 0,0 4,-0.5 4,-3.6 v 3.6 z"
         id="path1411"
         style="fill:#a6d100" /></g><rect
       style="opacity:1;fill:#ffffff;fill-opacity:1;fill-rule:nonzero;stroke:#000000;stroke-width:1.88976383;stroke-linecap:round;stroke-linejoin:round;stroke-miterlimit:4;stroke-dasharray:none;stroke-dashoffset:0;stroke-opacity:1"
       id="rect2057"
       width="8.6513557"
       height="24.291943"
       x="-29.895266"
       y="-7.3807235"
       ry="5.9795551" /><rect
       style="opacity:1;fill:#ffffff;fill-opacity:1;fill-rule:nonzero;stroke:#000000;stroke-width:1.88976383;stroke-linecap:round;stroke-linejoin:round;stroke-miterlimit:4;stroke-dasharray:none;stroke-dashoffset:0;stroke-opacity:1"
       id="rect2057-5"
       width="8.6513557"
       height="24.291943"
       x="-1.8387837"
       y="-7.4500251"
       ry="5.9795551" /><rect
       style="opacity:1;fill:#ffffff;fill-opacity:1;fill-rule:nonzero;stroke:#000000;stroke-width:1.88976383;stroke-linecap:round;stroke-linejoin:round;stroke-miterlimit:4;stroke-dasharray:none;stroke-dashoffset:0;stroke-opacity:1"
       id="rect2057-3"
       width="8.6513557"
       height="24.291943"
       x="25.68284"
       y="-7.2842321"
       ry="5.9795551" /></g><path
     style="fill:#405162;stroke:none;stroke-width:0.70332628px;stroke-linecap:butt;stroke-linejoin:miter;stroke-opacity:1"
     d="m -53.324202,103.7233 0.164906,-94.3265211 c 1.350343,-4.6342955 4.489972,-6.5033311 8.245326,-7.4207927 l 10.88383,-0.3298136 -0.49472,-8.9049512 c 1.720363,-4.6906054 5.631671,-5.7960284 9.729485,-6.5962604 4.7806,-0.107404 7.570582,2.771121 9.729486,6.5962604 l -0.164909,9.3996709 -5.070875,3.1744504 0.288586,-7.4620199 c -1.167322,-2.2530777 -1.803659,-4.79207 -5.699581,-5.5759015 -3.495048,0.3824526 -4.423638,2.7814073 -4.875049,5.5552882 l -0.09276,13.5532545 -4.215423,2.751877 -6.555034,3.998983 v 4.28757 l -4.122663,-0.164907 0.453493,76.599076 1.710906,3.751627 0.06184,9.35844 c -3.204683,-0.93448 -6.552769,-4.01999 -9.976843,-8.24533 z"
     id="path2331"
     inkscape:connector-curvature="0"
     sodipodi:nodetypes="ccccccccccccccccccccc" /><path
     sodipodi:nodetypes="scsssccsssccczccssssssss"
     inkscape:connector-curvature="0"
     id="rect2112"
     d="m -42.98879,1.371373 8.293613,0.102581 -9.57e-4,-7.639369 c -4.92e-4,-3.924188 3.83235,-7.582603 9.509449,-7.469074 5.677099,0.11353 9.392248,3.878105 9.637253,7.753871 L -15.091,1.371373 h 8.232245 l 0.294604,-7.203901 c 0.135233,-3.306824 3.716861,-8.084645 8.543411,-8.049047 5.986993,0.04416 9.539738,4.756248 9.635535,8.079347 l 0.197238,6.842015 9.890175,0.331586 -0.38899,-7.626474 c 0,0 0.86415,-7.787044 8.72963,-7.626474 7.86548,0.16057 9.22699,6.963302 9.22699,6.963302 l 0.27419,8.289646 h 6.74011 c 5.84525,0 10.551,4.705744 10.551,10.550997 v 89.22086 c 0,5.84526 -4.70575,10.551 -10.551,10.551 H -42.98879 c -5.845252,0 -10.550997,-4.70574 -10.550997,-10.551 V 11.92237 c 0,-5.845253 4.706192,-10.623289 10.550997,-10.550997 z"
     style="opacity:1;fill:none;fill-opacity:1;fill-rule:nonzero;stroke:#000000;stroke-width:2.26771665;stroke-linecap:round;stroke-linejoin:round;stroke-miterlimit:4;stroke-dasharray:none;stroke-dashoffset:0;stroke-opacity:1" /><rect
     style="opacity:1;fill:#ffffff;fill-opacity:0.60591131;fill-rule:nonzero;stroke:#000000;stroke-width:1.59494465;stroke-linecap:round;stroke-linejoin:round;stroke-miterlimit:4;stroke-dasharray:none;stroke-dashoffset:0;stroke-opacity:1"
     id="rect5376"
     width="93.337097"
     height="57.717285"
     x="24.841482"
     y="67.773682"
     ry="10.012766" /></g><g
   id="g1097">
	
	
	<g
   id="g901"
   transform="translate(120.98476,-20.63306)">
		<g
   id="g883">
			<polygon
   class="st0"
   points=""
   id="polygon877"
   style="fill:#5f7993" />
			<polygon
   class="st0"
   points=""
   id="polygon879"
   style="fill:#5f7993" />
			<path
   class="st1"
   d="m 149.8,172.3 c -7,0 -12.7,-1.6 -12.7,-3.5 v 23.6 c 0,3.7 3,6.6 6.6,6.6 h 12.2 c 3.7,0 6.6,-3 6.6,-6.6 v -23.6 c 0,1.9 -5.7,3.5 -12.7,3.5 z"
   id="path881"
   inkscape:connector-curvature="0"
   style="fill:#17b5c8" />
		</g>
		<path
   class="st2"
   d="m 157.7,171.5 v 22.7 c 0,1.9 -0.8,3.6 -2.1,4.8 h 0.3 c 3.7,0 6.6,-3 6.6,-6.6 v -23.6 c 0,1.1 -1.9,2.1 -4.8,2.7 z"
   id="path885"
   inkscape:connector-curvature="0"
   style="fill:#11828f" />
		<ellipse
   class="st2"
   cx="149.8"
   cy="168.60001"
   rx="12.7"
   ry="3.7"
   id="ellipse887"
   style="fill:#11828f" />
		<path
   class="st1"
   d="m 138.5,170.3 c 2.1,-1.2 6.4,-2 11.3,-2 4.9,0 9.2,0.8 11.3,2 0.9,-0.5 1.4,-1.1 1.4,-1.7 0,-2 -5.7,-3.7 -12.7,-3.7 -7,0 -12.7,1.7 -12.7,3.7 0,0.6 0.5,1.2 1.4,1.7 z"
   id="path889"
   inkscape:connector-curvature="0"
   style="fill:#17b5c8" />
		<g
   id="g895">
			<g
   id="g893">
				<path
   d="m 155.9,200 h -12.2 c -4.2,0 -7.6,-3.4 -7.6,-7.6 v -23.6 h 2 c 0,0.7 4.1,2.5 11.7,2.5 7.6,0 11.7,-1.8 11.7,-2.5 h 2 v 23.6 c 0,4.2 -3.4,7.6 -7.6,7.6 z m -17.8,-28.7 v 21.1 c 0,3.1 2.5,5.6 5.6,5.6 h 12.2 c 3.1,0 5.6,-2.5 5.6,-5.6 v -21.1 c -2.6,1.4 -7.3,2 -11.7,2 -4.4,0 -9.2,-0.7 -11.7,-2 z"
   id="path891"
   inkscape:connector-curvature="0" />
			</g>
		</g>
		<g
   id="g899">
			<path
   d="m 149.8,173.3 c -6.6,0 -13.7,-1.5 -13.7,-4.7 0,-3.2 7.1,-4.7 13.7,-4.7 6.6,0 13.7,1.5 13.7,4.7 0,3.2 -7.1,4.7 -13.7,4.7 z m 0,-7.4 c -7.7,0 -11.7,1.9 -11.7,2.7 0,0.8 4,2.7 11.7,2.7 7.7,0 11.7,-1.9 11.7,-2.7 0,-0.8 -4,-2.7 -11.7,-2.7 z"
   id="path897"
   inkscape:connector-curvature="0" />
		</g>
	</g>
	
	
	
	
	
	
	
	
	<g
   id="g1067"
   transform="translate(42.203986,61.430246)">
		<rect
   x="165.8"
   y="98.699997"
   transform="matrix(0.9998,-0.01855149,0.01855149,0.9998,-1.8162,3.5598)"
   width="50.400002"
   height="2"
   id="rect1065" />
	</g>
	
	
	
	
	<path
   class="st4"
   d="m 184.00399,129.33025 h 20.6 c 0.7,0 1.1,0.7 0.8,1.3 l -11,24.1 c -0.3,0.6 0.2,1.3 0.8,1.3 h 15.2 c 0.8,0 1.2,0.9 0.7,1.5 l -28.8,38.5 c -0.6,0.8 -1.9,0.2 -1.6,-0.8 l 8.4,-28.6 c 0.2,-0.6 -0.3,-1.2 -0.9,-1.2 h -16 l 10.9,-35.5 c 0.1,-0.4 0.4,-0.6 0.9,-0.6 z"
   id="path1085"
   inkscape:connector-curvature="0"
   style="fill:#a6d100" />
	<g
   id="g1091"
   transform="translate(42.203986,61.430246)">
		<path
   class="st5"
   d="m 153.7,104.1 c 0.2,-0.6 -0.3,-1.2 -0.9,-1.2 h -5.2 l -9.1,30.8 c -0.3,1 1,1.6 1.6,0.8 l 7.6,-10.2 z"
   id="path1087"
   inkscape:connector-curvature="0"
   style="fill:#89ab00" />
		<path
   class="st5"
   d="m 145.7,74.2 c 0.1,-0.4 0.5,-0.6 0.9,-0.6 h 14.7 l 2,-4.4 c 0.3,-0.6 -0.2,-1.3 -0.8,-1.3 h -20.6 c -0.4,0 -0.8,0.3 -0.9,0.6 L 130,104 h 6.5 z"
   id="path1089"
   inkscape:connector-curvature="0"
   style="fill:#89ab00" />
	</g>
	<g
   id="g1095"
   transform="translate(42.203986,61.430246)">
		<path
   d="m 139.4,135.9 c -0.3,0 -0.6,-0.1 -0.9,-0.2 -0.8,-0.4 -1.2,-1.3 -1,-2.2 L 146,105 h -17.4 l 11.3,-36.7 c 0.2,-0.8 1,-1.3 1.8,-1.3 h 20.6 c 0.7,0 1.3,0.3 1.6,0.9 0.4,0.5 0.4,1.2 0.1,1.8 l -11,24 h 15.1 c 0.7,0 1.4,0.4 1.7,1.1 0.3,0.7 0.3,1.4 -0.2,2 l -28.8,38.5 c -0.2,0.3 -0.8,0.6 -1.4,0.6 z M 131.3,103 h 14.8 c 0.6,0 1.2,0.3 1.5,0.8 0.4,0.5 0.5,1.1 0.3,1.7 l -8.3,28.2 28.5,-38.1 H 153 c -0.7,0 -1.3,-0.3 -1.6,-0.9 -0.4,-0.5 -0.4,-1.2 -0.1,-1.8 l 11,-24 h -20.5 z"
   id="path1093"
   inkscape:connector-curvature="0" />
	</g>
</g>
</svg>