<?xml version="1.0" encoding="UTF-8" standalone="no"?>
<!-- Generator: Adobe Illustrator 24.3.0, SVG Export Plug-In . SVG Version: 6.00 Build 0)  -->

<svg
   xmlns:dc="http://purl.org/dc/elements/1.1/"
   xmlns:cc="http://creativecommons.org/ns#"
   xmlns:rdf="http://www.w3.org/1999/02/22-rdf-syntax-ns#"
   xmlns:svg="http://www.w3.org/2000/svg"
   xmlns="http://www.w3.org/2000/svg"
   xmlns:sodipodi="http://sodipodi.sourceforge.net/DTD/sodipodi-0.dtd"
   xmlns:inkscape="http://www.inkscape.org/namespaces/inkscape"
   version="1.1"
   id="Capa_1"
   x="0px"
   y="0px"
   viewBox="0 0 300 200"
   style="enable-background:new 0 0 300 200;"
   xml:space="preserve"
   sodipodi:docname="scheduled-job.svg"
   inkscape:version="0.92.5 (2060ec1f9f, 2020-04-08)"><metadata
   id="metadata1104"><rdf:RDF><cc:Work
       rdf:about=""><dc:format>image/svg+xml</dc:format><dc:type
         rdf:resource="http://purl.org/dc/dcmitype/StillImage" /><dc:title /></cc:Work></rdf:RDF></metadata><defs
   id="defs1102" /><sodipodi:namedview
   pagecolor="#ffffff"
   bordercolor="#666666"
   borderopacity="1"
   objecttolerance="10"
   gridtolerance="10"
   guidetolerance="10"
   inkscape:pageopacity="0"
   inkscape:pageshadow="2"
   inkscape:window-width="1920"
   inkscape:window-height="1016"
   id="namedview1100"
   showgrid="false"
   inkscape:snap-global="false"
   showguides="false"
   inkscape:zoom="2.1325"
   inkscape:cx="98.667769"
   inkscape:cy="176.81572"
   inkscape:window-x="0"
   inkscape:window-y="27"
   inkscape:window-maximized="1"
   inkscape:current-layer="Capa_1" />
<style
   type="text/css"
   id="style815">
	.st0{fill:#5F7993;}
	.st1{fill:#17B5C8;}
	.st2{fill:#11828F;}
	.st3{fill:#405162;}
	.st4{fill:#A6D100;}
	.st5{fill:#89AB00;}
	.st6{fill:#FFFFFF;}
	.st7{fill:none;stroke:#17B5C8;stroke-width:2;stroke-miterlimit:10;}
</style>
<g
   id="g2329"
   transform="matrix(1.4218152,0,0,1.4218152,129.51001,21.340572)"><g
     id="g2241"><rect
       style="opacity:1;fill:#ffffff;fill-opacity:1;fill-rule:nonzero;stroke:none;stroke-width:18.99212646;stroke-linecap:round;stroke-linejoin:round;stroke-miterlimit:4;stroke-dasharray:none;stroke-dashoffset:0;stroke-opacity:1"
       id="rect2055"
       width="110.90269"
       height="110.90269"
       x="-53.539787"
       y="1.3713737"
       ry="12.997574" /><g
       transform="matrix(3.9308324,0,0,3.9308324,-61.031754,-12.987359)"
       id="g1413"><path
         inkscape:connector-curvature="0"
         class="st5"
         d="m 26.5,3.5 h -1 V 2.4 C 25.5,1.1 24.4,0 23.2,0 21.9,0 20.9,1.1 20.9,2.4 V 3.5 H 18.5 V 2.4 C 18.5,1.1 17.4,0 16.2,0 15,0 13.9,1.1 13.9,2.4 V 3.5 H 11.5 V 2.4 C 11.4,1.1 10.3,0 9,0 7.7,0 6.7,1.1 6.7,2.4 V 3.5 H 5.5 C 3.4,3.5 1.8,5.2 1.8,7.2 v 21.1 c 0,2.1 1.7,3.7 3.7,3.7 h 21.1 c 2.1,0 3.7,-1.7 3.7,-3.7 V 7.2 C 30.3,5.1 28.6,3.5 26.5,3.5 Z M 22.2,2.4 c 0,-0.6 0.5,-1.1 1,-1.1 0.6,0 1,0.5 1,1.1 v 4.3 c 0,0.6 -0.5,1.1 -1,1.1 -0.6,0 -1,-0.5 -1,-1.1 z m -7.1,0 c 0,-0.6 0.5,-1.1 1,-1.1 0.6,0 1,0.5 1,1.1 v 4.3 c 0,0.6 -0.5,1.1 -1,1.1 -0.6,0 -1,-0.5 -1,-1.1 z M 8,2.4 C 8,1.8 8.5,1.3 9,1.3 c 0.5,0 1,0.5 1,1.1 V 6.7 C 10,7.3 9.5,7.8 9,7.8 8.5,7.8 8,7.3 8,6.7 Z m 20.1,25.9 c 0,0.8 -0.7,1.5 -1.5,1.5 H 5.5 C 4.7,29.8 4,29.1 4,28.3 V 9 h 24.1 z"
         id="path1363"
         style="fill:#5f7993" /><rect
         x="5.9000001"
         y="12.8"
         class="st3"
         width="4"
         height="3.5999999"
         id="rect1365"
         style="fill:#405162" /><rect
         x="11.3"
         y="12.8"
         class="st0"
         width="4"
         height="3.5999999"
         id="rect1367"
         style="fill:#5f7993" /><rect
         x="16.700001"
         y="12.8"
         class="st3"
         width="4"
         height="3.5999999"
         id="rect1369"
         style="fill:#405162" /><rect
         x="22.1"
         y="12.8"
         class="st0"
         width="4"
         height="3.5999999"
         id="rect1371"
         style="fill:#5f7993" /><rect
         x="5.9000001"
         y="17.6"
         class="st3"
         width="4"
         height="3.5999999"
         id="rect1373"
         style="fill:#405162" /><rect
         x="11.3"
         y="17.6"
         class="st0"
         width="4"
         height="3.5999999"
         id="rect1375"
         style="fill:#5f7993" /><rect
         x="16.700001"
         y="17.6"
         class="st3"
         width="4"
         height="3.5999999"
         id="rect1377"
         style="fill:#405162" /><rect
         x="22.1"
         y="17.6"
         class="st0"
         width="4"
         height="3.5999999"
         id="rect1379"
         style="fill:#5f7993" /><rect
         x="5.9000001"
         y="22.4"
         class="st3"
         width="4"
         height="3.5999999"
         id="rect1381"
         style="fill:#405162" /><rect
         x="11.3"
         y="22.4"
         class="st0"
         width="4"
         height="3.5999999"
         id="rect1383"
         style="fill:#5f7993" /><rect
         x="16.700001"
         y="22.4"
         class="st3"
         width="4"
         height="3.5999999"
         id="rect1385"
         style="fill:#405162" /><rect
         x="22.1"
         y="22.4"
         class="st0"
         width="4"
         height="3.5999999"
         id="rect1387"
         style="fill:#5f7993" /><path
         inkscape:connector-curvature="0"
         class="st1"
         d="m 22.1,26 c 0,0 4,-0.5 4,-3.6 V 26 Z"
         id="path1389"
         style="fill:#17b5c8" /><path
         inkscape:connector-curvature="0"
         class="st1"
         d="m 22.1,21.2 c 0,0 4,-0.5 4,-3.6 v 3.6 z"
         id="path1391"
         style="fill:#17b5c8" /><path
         inkscape:connector-curvature="0"
         class="st1"
         d="m 22.1,16.4 c 0,0 4,-0.5 4,-3.6 v 3.6 z"
         id="path1393"
         style="fill:#17b5c8" /><path
         inkscape:connector-curvature="0"
         class="st4"
         d="m 16.7,26 c 0,0 4,-0.5 4,-3.6 V 26 Z"
         id="path1395"
         style="fill:#a6d100" /><path
         inkscape:connector-curvature="0"
         class="st4"
         d="m 16.7,21.2 c 0,0 4,-0.5 4,-3.6 v 3.6 z"
         id="path1397"
         style="fill:#a6d100" /><path
         inkscape:connector-curvature="0"
         class="st4"
         d="m 16.7,16.4 c 0,0 4,-0.5 4,-3.6 v 3.6 z"
         id="path1399"
         style="fill:#a6d100" /><path
         inkscape:connector-curvature="0"
         class="st1"
         d="m 11.3,26 c 0,0 4,-0.5 4,-3.6 V 26 Z"
         id="path1401"
         style="fill:#17b5c8" /><path
         inkscape:connector-curvature="0"
         class="st1"
         d="m 11.3,21.2 c 0,0 4,-0.5 4,-3.6 v 3.6 z"
         id="path1403"
         style="fill:#17b5c8" /><path
         inkscape:connector-curvature="0"
         class="st1"
         d="m 11.3,16.4 c 0,0 4,-0.5 4,-3.6 v 3.6 z"
         id="path1405"
         style="fill:#17b5c8" /><path
         inkscape:connector-curvature="0"
         class="st4"
         d="m 5.9,26 c 0,0 4,-0.5 4,-3.6 V 26 Z"
         id="path1407"
         style="fill:#a6d100" /><path
         inkscape:connector-curvature="0"
         class="st4"
         d="m 5.9,21.2 c 0,0 4,-0.5 4,-3.6 v 3.6 z"
         id="path1409"
         style="fill:#a6d100" /><path
         inkscape:connector-curvature="0"
         class="st4"
         d="m 5.9,16.4 c 0,0 4,-0.5 4,-3.6 v 3.6 z"
         id="path1411"
         style="fill:#a6d100" /></g><rect
       style="opacity:1;fill:#ffffff;fill-opacity:1;fill-rule:nonzero;stroke:#000000;stroke-width:1.88976383;stroke-linecap:round;stroke-linejoin:round;stroke-miterlimit:4;stroke-dasharray:none;stroke-dashoffset:0;stroke-opacity:1"
       id="rect2057"
       width="8.6513557"
       height="24.291943"
       x="-29.895266"
       y="-7.3807235"
       ry="5.9795551" /><rect
       style="opacity:1;fill:#ffffff;fill-opacity:1;fill-rule:nonzero;stroke:#000000;stroke-width:1.88976383;stroke-linecap:round;stroke-linejoin:round;stroke-miterlimit:4;stroke-dasharray:none;stroke-dashoffset:0;stroke-opacity:1"
       id="rect2057-5"
       width="8.6513557"
       height="24.291943"
       x="-1.8387837"
       y="-7.4500251"
       ry="5.9795551" /><rect
       style="opacity:1;fill:#ffffff;fill-opacity:1;fill-rule:nonzero;stroke:#000000;stroke-width:1.88976383;stroke-linecap:round;stroke-linejoin:round;stroke-miterlimit:4;stroke-dasharray:none;stroke-dashoffset:0;stroke-opacity:1"
       id="rect2057-3"
       width="8.6513557"
       height="24.291943"
       x="25.68284"
       y="-7.2842321"
       ry="5.9795551" /></g><path
     style="fill:#405162;stroke:none;stroke-width:0.70332628px;stroke-linecap:butt;stroke-linejoin:miter;stroke-opacity:1"
     d="m -53.324202,103.7233 0.164906,-94.3265211 c 1.350343,-4.6342955 4.489972,-6.5033311 8.245326,-7.4207927 l 10.88383,-0.3298136 -0.49472,-8.9049512 c 1.720363,-4.6906054 5.631671,-5.7960284 9.729485,-6.5962604 4.7806,-0.107404 7.570582,2.771121 9.729486,6.5962604 l -0.164909,9.3996709 -5.070875,3.1744504 0.288586,-7.4620199 c -1.167322,-2.2530777 -1.803659,-4.79207 -5.699581,-5.5759015 -3.495048,0.3824526 -4.423638,2.7814073 -4.875049,5.5552882 l -0.09276,13.5532545 -4.215423,2.751877 -6.555034,3.998983 v 4.28757 l -4.122663,-0.164907 0.453493,76.599076 1.710906,3.751627 0.06184,9.35844 c -3.204683,-0.93448 -6.552769,-4.01999 -9.976843,-8.24533 z"
     id="path2331"
     inkscape:connector-curvature="0"
     sodipodi:nodetypes="ccccccccccccccccccccc" /><path
     sodipodi:nodetypes="scsssccsssccczccssssssss"
     inkscape:connector-curvature="0"
     id="rect2112"
     d="m -42.98879,1.371373 8.293613,0.102581 -9.57e-4,-7.639369 c -4.92e-4,-3.924188 3.83235,-7.582603 9.509449,-7.469074 5.677099,0.11353 9.392248,3.878105 9.637253,7.753871 L -15.091,1.371373 h 8.232245 l 0.294604,-7.203901 c 0.135233,-3.306824 3.716861,-8.084645 8.543411,-8.049047 5.986993,0.04416 9.539738,4.756248 9.635535,8.079347 l 0.197238,6.842015 9.890175,0.331586 -0.38899,-7.626474 c 0,0 0.86415,-7.787044 8.72963,-7.626474 7.86548,0.16057 9.22699,6.963302 9.22699,6.963302 l 0.27419,8.289646 h 6.74011 c 5.84525,0 10.551,4.705744 10.551,10.550997 v 89.22086 c 0,5.84526 -4.70575,10.551 -10.551,10.551 H -42.98879 c -5.845252,0 -10.550997,-4.70574 -10.550997,-10.551 V 11.92237 c 0,-5.845253 4.706192,-10.623289 10.550997,-10.550997 z"
     style="opacity:1;fill:none;fill-opacity:1;fill-rule:nonzero;stroke:#000000;stroke-width:2.26771665;stroke-linecap:round;stroke-linejoin:round;stroke-miterlimit:4;stroke-dasharray:none;stroke-dashoffset:0;stroke-opacity:1" /></g>
<rect
   style="opacity:1;fill:#ffffff;fill-opacity:0.45320201;fill-rule:nonzero;stroke:#000000;stroke-width:2.26771665;stroke-linecap:round;stroke-linejoin:round;stroke-miterlimit:4;stroke-dasharray:none;stroke-dashoffset:0;stroke-opacity:1"
   id="rect5376"
   width="96.131317"
   height="141.1489"
   x="191.32474"
   y="55.568581"
   ry="11.825247" /><g
   transform="matrix(0.60715475,0,0,0.60715475,147.7268,70.306201)"
   id="g5065"><g
     id="g4993"><g
       id="g4987"><polygon
         class="st1"
         points="94.2,1.3 94.2,32 145.3,32 145.3,1.4 "
         id="polygon4985"
         style="fill:#17b5c8" /></g><g
       id="g4991"><path
         inkscape:connector-curvature="0"
         class="st2"
         d="m 102,1.4 c 0,0 -2.2,2.6 -2.2,7.2 0,4.6 0,18.3 0,18.3 0,0 0.4,5 3.8,5.7 H 94.1 V 1.3 Z"
         id="path4989"
         style="fill:#11828f" /></g></g><g
     id="g5003"><g
       id="g4997"><polygon
         class="st0"
         points="174.6,59.6 174.6,90.4 205.9,90.4 205.9,59.7 "
         id="polygon4995"
         style="fill:#5f7993" /></g><g
       id="g5001"><path
         inkscape:connector-curvature="0"
         class="st3"
         d="m 182.4,59.7 c 0,0 -2.2,2.6 -2.2,7.2 0,4.6 0,18.3 0,18.3 0,0 0.4,5 3.8,5.7 h -9.5 V 59.6 Z"
         id="path4999"
         style="fill:#405162" /></g></g><g
     id="g5013"><g
       id="g5007"><polygon
         class="st4"
         points="97.5,75.9 119.3,97.7 141.4,75.6 119.7,53.9 "
         id="polygon5005"
         style="fill:#a6d100" /></g><g
       id="g5011"><path
         inkscape:connector-curvature="0"
         class="st5"
         d="m 103.1,70.5 c 0,0 0.3,3.4 3.5,6.7 3.2,3.3 12.9,12.9 12.9,12.9 0,0 3.8,3.2 6.7,1.3 L 119.5,98.1 97.4,76 Z"
         id="path5009"
         style="fill:#89ab00" /></g></g><g
     id="g5019"><path
       inkscape:connector-curvature="0"
       class="st1"
       d="m 99.8,194.6 c 0,0 0.2,2.8 1.8,4.5 h 36.6 l -0.3,-28.9 h -36.7 c -0.6,1.2 -1.5,3.2 -1.5,6.1 0.1,4.6 0.1,18.3 0.1,18.3 z"
       id="path5015"
       style="fill:#17b5c8" /><path
       inkscape:connector-curvature="0"
       class="st2"
       d="m 95.2,171 v 27.3 c 0,0.4 0.4,0.8 0.8,0.8 h 5.7 c -1.6,-1.7 -1.8,-4.5 -1.8,-4.5 0,0 0,-13.7 0,-18.3 0,-2.8 0.8,-4.9 1.5,-6.1 h -5.3 c -0.6,0 -0.9,0.3 -0.9,0.8 z"
       id="path5017"
       style="fill:#11828f" /></g><g
     id="g5025"><g
       id="g5023"><circle
         class="st4"
         cx="119.2"
         cy="133.2"
         r="16.200001"
         id="circle5021"
         style="fill:#a6d100" /></g></g><path
     inkscape:connector-curvature="0"
     class="st5"
     d="m 116.6,118.1 c -5.7,-0.5 -5.3,2.3 -9.8,4.6 -2.4,2.8 -3.9,6.5 -3.9,10.5 0,1.7 0.3,3.3 0.7,4.9 l 5.5,7.9 c 0.2,0.2 0.4,0.3 0.7,0.5 l 6.8,1.4 c -3.4,-2.9 -7.7,-6.8 -8.2,-14.6 -0.5,-7.9 8.2,-15.2 8.2,-15.2 z"
     id="path5027"
     style="fill:#89ab00" /><g
     id="g5031"><path
       inkscape:connector-curvature="0"
       d="M 146.3,33 H 93.5 V -0.1 h 52.8 z M 95.5,31.1 h 48.8 V 1.9 H 95.5 Z"
       id="path5029" /></g><g
     id="g5035"><path
       inkscape:connector-curvature="0"
       d="m 119.6,98.2 -23,-23 22.9,-22.9 22.9,22.9 z m -20.2,-23 20.1,20.1 20.1,-20.1 -20.1,-20.1 z"
       id="path5033" /></g><g
     id="g5039"><rect
       x="118.5"
       y="32.400002"
       width="2"
       height="22.1"
       id="rect5037" /></g><g
     id="g5043"><rect
       x="118.5"
       y="96.5"
       width="2"
       height="20.6"
       id="rect5041" /></g><g
     id="g5047"><rect
       x="118.5"
       y="148.5"
       width="2"
       height="20.6"
       id="rect5045" /></g><g
     id="g5051"><path
       inkscape:connector-curvature="0"
       d="m 119.4,150.2 c -9.4,0 -17,-7.6 -17,-17 0,-9.4 7.6,-17 17,-17 9.4,0 17,7.6 17,17 0,9.4 -7.6,17 -17,17 z m 0,-32 c -8.3,0 -15,6.7 -15,15 0,8.3 6.7,15 15,15 8.3,0 15,-6.7 15,-15 0,-8.2 -6.7,-15 -15,-15 z"
       id="path5049" /></g><g
     id="g5055"><path
       inkscape:connector-curvature="0"
       d="m 139.2,199.9 h -45 V 169 h 45.1 v 30.9 z m -43.1,-2 h 41.1 V 171 H 96.1 Z"
       id="path5053" /></g><g
     id="g5059"><path
       inkscape:connector-curvature="0"
       d="M 206.9,91.3 H 174 V 58.4 h 32.9 z M 176,89.4 h 28.9 v -29 H 176 Z"
       id="path5057" /></g><g
     id="g5063"><rect
       x="141.10001"
       y="74.300003"
       width="33.900002"
       height="2"
       id="rect5061" /></g></g></svg>