<?xml version="1.0" encoding="UTF-8" standalone="no"?>
<!-- Generator: Adobe Illustrator 24.3.0, SVG Export Plug-In . SVG Version: 6.00 Build 0)  -->

<svg
   xmlns:dc="http://purl.org/dc/elements/1.1/"
   xmlns:cc="http://creativecommons.org/ns#"
   xmlns:rdf="http://www.w3.org/1999/02/22-rdf-syntax-ns#"
   xmlns:svg="http://www.w3.org/2000/svg"
   xmlns="http://www.w3.org/2000/svg"
   xmlns:sodipodi="http://sodipodi.sourceforge.net/DTD/sodipodi-0.dtd"
   xmlns:inkscape="http://www.inkscape.org/namespaces/inkscape"
   version="1.1"
   id="Capa_1"
   x="0px"
   y="0px"
   viewBox="0 0 300 200"
   style="enable-background:new 0 0 300 200;"
   xml:space="preserve"
   sodipodi:docname="scheduled-job.svg"
   inkscape:version="0.92.5 (2060ec1f9f, 2020-04-08)"><metadata
   id="metadata1104"><rdf:RDF><cc:Work
       rdf:about=""><dc:format>image/svg+xml</dc:format><dc:type
         rdf:resource="http://purl.org/dc/dcmitype/StillImage" /><dc:title /></cc:Work></rdf:RDF></metadata><defs
   id="defs1102" /><sodipodi:namedview
   pagecolor="#ffffff"
   bordercolor="#666666"
   borderopacity="1"
   objecttolerance="10"
   gridtolerance="10"
   guidetolerance="10"
   inkscape:pageopacity="0"
   inkscape:pageshadow="2"
   inkscape:window-width="1920"
   inkscape:window-height="1016"
   id="namedview1100"
   showgrid="false"
   inkscape:snap-global="false"
   showguides="false"
   inkscape:zoom="2.1325"
   inkscape:cx="14.963197"
   inkscape:cy="176.81572"
   inkscape:window-x="0"
   inkscape:window-y="27"
   inkscape:window-maximized="1"
   inkscape:current-layer="Capa_1" />
<style
   type="text/css"
   id="style815">
	.st0{fill:#5F7993;}
	.st1{fill:#17B5C8;}
	.st2{fill:#11828F;}
	.st3{fill:#405162;}
	.st4{fill:#A6D100;}
	.st5{fill:#89AB00;}
	.st6{fill:#FFFFFF;}
	.st7{fill:none;stroke:#17B5C8;stroke-width:2;stroke-miterlimit:10;}
</style>

<rect
   style="opacity:1;fill:#ffffff;fill-opacity:1;fill-rule:nonzero;stroke:none;stroke-width:27.00329399;stroke-linecap:round;stroke-linejoin:round;stroke-miterlimit:4;stroke-dasharray:none;stroke-dashoffset:0;stroke-opacity:1"
   id="rect2055"
   width="157.68312"
   height="157.68312"
   x="71.505577"
   y="32.247162"
   ry="18.480148" /><path
   style="fill:#5f7993;stroke-width:5.58891726"
   id="path1363"
   d="m 208.9597,31.392909 h -5.58892 v -6.14781 c 0,-7.26559 -6.14781,-13.4134 -12.85451,-13.4134 -7.26559,0 -12.85451,6.14781 -12.85451,13.4134 v 6.14781 h -13.4134 v -6.14781 c 0,-7.26559 -6.14781,-13.4134 -12.85451,-13.4134 -6.7067,0 -12.85451,6.14781 -12.85451,13.4134 v 6.14781 h -13.4134 v -6.14781 c -0.5589,-7.26559 -6.7067,-13.4134 -13.9723,-13.4134 -7.26559,0 -12.85452,6.14781 -12.85452,13.4134 v 6.14781 h -6.7067 c -11.73672,0 -20.67899,9.50116 -20.67899,20.67899 V 169.99805 c 0,11.73673 9.50116,20.679 20.67899,20.679 h 117.92617 c 11.73672,0 20.67899,-9.50117 20.67899,-20.679 V 52.071899 c 0,-11.73672 -9.50116,-20.67899 -21.23788,-20.67899 z m -24.03235,-6.14781 c 0,-3.35335 2.79446,-6.14781 5.58892,-6.14781 3.35335,0 5.58892,2.79446 5.58892,6.14781 v 24.03235 c 0,3.35335 -2.79446,6.1478 -5.58892,6.1478 -3.35335,0 -5.58892,-2.79445 -5.58892,-6.1478 z m -39.68131,0 c 0,-3.35335 2.79446,-6.14781 5.58891,-6.14781 3.35336,0 5.58892,2.79446 5.58892,6.14781 v 24.03235 c 0,3.35335 -2.79446,6.1478 -5.58892,6.1478 -3.35335,0 -5.58891,-2.79445 -5.58891,-6.1478 z m -39.68132,0 c 0,-3.35335 2.79446,-6.14781 5.58892,-6.14781 2.79446,0 5.58892,2.79446 5.58892,6.14781 v 24.03235 c 0,3.35335 -2.79446,6.1478 -5.58892,6.1478 -2.79446,0 -5.58892,-2.79445 -5.58892,-6.1478 z M 217.90196,169.99805 c 0,4.47113 -3.91224,8.38338 -8.38337,8.38338 H 91.59242 c -4.47113,0 -8.38337,-3.91225 -8.38337,-8.38338 V 62.131959 h 134.69291 z"
   class="st5"
   inkscape:connector-curvature="0" /><rect
   style="opacity:1;fill:#ffffff;fill-opacity:1;fill-rule:nonzero;stroke:#000000;stroke-width:2.30929136;stroke-linecap:round;stroke-linejoin:round;stroke-miterlimit:4;stroke-dasharray:none;stroke-dashoffset:0;stroke-opacity:1"
   id="rect2057"
   width="12.300629"
   height="34.538654"
   x="105.12371"
   y="19.803299"
   ry="8.5018225" /><rect
   style="opacity:1;fill:#ffffff;fill-opacity:1;fill-rule:nonzero;stroke:#000000;stroke-width:2.30929136;stroke-linecap:round;stroke-linejoin:round;stroke-miterlimit:4;stroke-dasharray:none;stroke-dashoffset:0;stroke-opacity:1"
   id="rect2057-5"
   width="12.300629"
   height="34.538654"
   x="145.01483"
   y="19.704773"
   ry="8.5018225" /><rect
   style="opacity:1;fill:#ffffff;fill-opacity:1;fill-rule:nonzero;stroke:#000000;stroke-width:2.30929136;stroke-linecap:round;stroke-linejoin:round;stroke-miterlimit:4;stroke-dasharray:none;stroke-dashoffset:0;stroke-opacity:1"
   id="rect2057-3"
   width="12.300629"
   height="34.538654"
   x="184.14549"
   y="19.940491"
   ry="8.5018225" /><path
   sodipodi:nodetypes="ccccccccccccccccccccc"
   inkscape:connector-curvature="0"
   id="path2331"
   d="M 71.81209,177.77268 72.04656,43.657809 c 1.91994,-6.58911 6.38391,-9.24654 11.72333,-10.551 l 15.47479,-0.46893 -0.7034,-12.6612 c 2.44605,-6.66917 8.00721,-8.24088 13.83354,-9.37866 6.79713,-0.15271 10.76397,3.94002 13.83353,9.37866 l -0.23447,13.3646 -7.20984,4.51348 0.41031,-10.60961 c -1.65971,-3.20346 -2.56447,-6.81344 -8.10375,-7.92791 -4.96931,0.54378 -6.2896,3.95465 -6.93142,7.8986 l -0.13189,19.27022 -5.99356,3.91266 -9.32004,5.68582 v 6.09613 l -5.86167,-0.23447 0.64478,108.909721 2.4326,5.33412 0.0879,13.30598 c -4.55647,-1.32866 -9.31683,-5.71569 -14.18524,-11.72334 z"
   style="fill:#405162;stroke:none;stroke-width:1px;stroke-linecap:butt;stroke-linejoin:miter;stroke-opacity:1" /><path
   style="opacity:1;fill:none;fill-opacity:1;fill-rule:nonzero;stroke:#000000;stroke-width:2.46803141;stroke-linecap:round;stroke-linejoin:round;stroke-miterlimit:4;stroke-dasharray:none;stroke-dashoffset:0;stroke-opacity:1"
   d="m 228.43829,132.24744 v 41.85686 c 0,8.31088 -6.69071,15.00157 -15.00158,15.00157 H 86.50714 c -8.31087,0 -14.96332,-6.69078 -15.00157,-15.00157 L 71.03664,72.223999 m 0.46893,-11.72333 v -13.25194 c 0,-8.31087 6.69134,-15.10435 15.00157,-15.00157 l 11.79198,0.14585 -0.001,-10.86177 c -6.9e-4,-5.57947 5.4489,-10.78106 13.52069,-10.61964 8.07179,0.16142 13.35404,5.51395 13.70239,11.02457 l 0.65181,10.31099 h 11.70473 l 0.41887,-10.24261 c 0.19228,-4.7017 5.28469,-11.49487 12.14716,-11.44426 8.51239,0.0628 13.56374,6.76251 13.69995,11.48734 l 0.28043,9.72808 14.062,0.47145 -0.55307,-10.84343 c 0,0 1.22866,-11.07174 12.41192,-10.84344 11.18326,0.2283 13.11908,9.90053 13.11908,9.90053 l 0.38984,11.78634 h 9.58319 c 8.31087,0 15.00158,6.6907 15.00158,15.00157 v 63.427781"
   id="rect2112"
   inkscape:connector-curvature="0"
   sodipodi:nodetypes="cssssccsscsssccsssccczccssc" /><g
   transform="matrix(0.54619344,0,0,0.54619344,69.487648,65.14184)"
   id="g5065"><g
     id="g4993"><g
       id="g4987"><polygon
         class="st1"
         points="94.2,1.3 94.2,32 145.3,32 145.3,1.4 "
         id="polygon4985"
         style="fill:#17b5c8" /></g><g
       id="g4991"><path
         inkscape:connector-curvature="0"
         class="st2"
         d="m 102,1.4 c 0,0 -2.2,2.6 -2.2,7.2 0,4.6 0,18.3 0,18.3 0,0 0.4,5 3.8,5.7 H 94.1 V 1.3 Z"
         id="path4989"
         style="fill:#11828f" /></g></g><g
     id="g5003"><g
       id="g4997"><polygon
         class="st0"
         points="174.6,59.6 174.6,90.4 205.9,90.4 205.9,59.7 "
         id="polygon4995"
         style="fill:#5f7993" /></g><g
       id="g5001"><path
         inkscape:connector-curvature="0"
         class="st3"
         d="m 182.4,59.7 c 0,0 -2.2,2.6 -2.2,7.2 0,4.6 0,18.3 0,18.3 0,0 0.4,5 3.8,5.7 h -9.5 V 59.6 Z"
         id="path4999"
         style="fill:#405162" /></g></g><g
     id="g5013"><g
       id="g5007"><polygon
         class="st4"
         points="97.5,75.9 119.3,97.7 141.4,75.6 119.7,53.9 "
         id="polygon5005"
         style="fill:#a6d100" /></g><g
       id="g5011"><path
         inkscape:connector-curvature="0"
         class="st5"
         d="m 103.1,70.5 c 0,0 0.3,3.4 3.5,6.7 3.2,3.3 12.9,12.9 12.9,12.9 0,0 3.8,3.2 6.7,1.3 L 119.5,98.1 97.4,76 Z"
         id="path5009"
         style="fill:#89ab00" /></g></g><g
     id="g5019"><path
       inkscape:connector-curvature="0"
       class="st1"
       d="m 99.8,194.6 c 0,0 0.2,2.8 1.8,4.5 h 36.6 l -0.3,-28.9 h -36.7 c -0.6,1.2 -1.5,3.2 -1.5,6.1 0.1,4.6 0.1,18.3 0.1,18.3 z"
       id="path5015"
       style="fill:#17b5c8" /><path
       inkscape:connector-curvature="0"
       class="st2"
       d="m 95.2,171 v 27.3 c 0,0.4 0.4,0.8 0.8,0.8 h 5.7 c -1.6,-1.7 -1.8,-4.5 -1.8,-4.5 0,0 0,-13.7 0,-18.3 0,-2.8 0.8,-4.9 1.5,-6.1 h -5.3 c -0.6,0 -0.9,0.3 -0.9,0.8 z"
       id="path5017"
       style="fill:#11828f" /></g><g
     id="g5025"><g
       id="g5023"><circle
         class="st4"
         cx="119.2"
         cy="133.2"
         r="16.200001"
         id="circle5021"
         style="fill:#a6d100" /></g></g><path
     inkscape:connector-curvature="0"
     class="st5"
     d="m 116.6,118.1 c -5.7,-0.5 -5.3,2.3 -9.8,4.6 -2.4,2.8 -3.9,6.5 -3.9,10.5 0,1.7 0.3,3.3 0.7,4.9 l 5.5,7.9 c 0.2,0.2 0.4,0.3 0.7,0.5 l 6.8,1.4 c -3.4,-2.9 -7.7,-6.8 -8.2,-14.6 -0.5,-7.9 8.2,-15.2 8.2,-15.2 z"
     id="path5027"
     style="fill:#89ab00" /><g
     id="g5031"><path
       inkscape:connector-curvature="0"
       d="M 146.3,33 H 93.5 V -0.1 h 52.8 z M 95.5,31.1 h 48.8 V 1.9 H 95.5 Z"
       id="path5029" /></g><g
     id="g5035"><path
       inkscape:connector-curvature="0"
       d="m 119.6,98.2 -23,-23 22.9,-22.9 22.9,22.9 z m -20.2,-23 20.1,20.1 20.1,-20.1 -20.1,-20.1 z"
       id="path5033" /></g><g
     id="g5039"><rect
       x="118.5"
       y="32.400002"
       width="2"
       height="22.1"
       id="rect5037" /></g><g
     id="g5043"><rect
       x="118.5"
       y="96.5"
       width="2"
       height="20.6"
       id="rect5041" /></g><g
     id="g5047"><rect
       x="118.5"
       y="148.5"
       width="2"
       height="20.6"
       id="rect5045" /></g><g
     id="g5051"><path
       inkscape:connector-curvature="0"
       d="m 119.4,150.2 c -9.4,0 -17,-7.6 -17,-17 0,-9.4 7.6,-17 17,-17 9.4,0 17,7.6 17,17 0,9.4 -7.6,17 -17,17 z m 0,-32 c -8.3,0 -15,6.7 -15,15 0,8.3 6.7,15 15,15 8.3,0 15,-6.7 15,-15 0,-8.2 -6.7,-15 -15,-15 z"
       id="path5049" /></g><g
     id="g5055"><path
       inkscape:connector-curvature="0"
       d="m 139.2,199.9 h -45 V 169 h 45.1 v 30.9 z m -43.1,-2 h 41.1 V 171 H 96.1 Z"
       id="path5053" /></g><g
     id="g5059"><path
       inkscape:connector-curvature="0"
       d="M 206.9,91.3 H 174 V 58.4 h 32.9 z M 176,89.4 h 28.9 v -29 H 176 Z"
       id="path5057" /></g><g
     id="g5063"><rect
       x="141.10001"
       y="74.300003"
       width="33.900002"
       height="2"
       id="rect5061" /></g></g></svg>