<?xml version="1.0" encoding="utf-8"?>
<!-- Generator: Adobe Illustrator 24.3.0, SVG Export Plug-In . SVG Version: 6.00 Build 0)  -->
<svg version="1.1" id="Capa_1" xmlns="http://www.w3.org/2000/svg" xmlns:xlink="http://www.w3.org/1999/xlink" x="0px" y="0px"
	 viewBox="0 0 300 200" style="enable-background:new 0 0 300 200;" xml:space="preserve">
<style type="text/css">
	.st0{fill:#5F7993;}
	.st1{fill:#17B5C8;}
	.st2{fill:#11828F;}
	.st3{fill:#405162;}
	.st4{fill:#A6D100;}
	.st5{fill:#89AB00;}
	.st6{fill:#FFFFFF;}
	.st7{fill:none;stroke:#17B5C8;stroke-width:2;stroke-miterlimit:10;}
</style>
<path class="st1" d="M149.8,184.4c-15.3-6.3-69.6-35.5-73-133.4c17.5-4.7,31.4-18.4,36.3-35.9h73.5c4.9,17.5,18.7,31.2,36.3,35.9
	C219.4,148.9,165.1,178.1,149.8,184.4z"/>
<g>
	<path class="st2" d="M196.3,33.9c-4.4-5.4-7.8-11.8-9.7-18.7h-4.6C185.2,22.5,190.2,28.8,196.3,33.9z"/>
	<path class="st2" d="M215.3,48.4c-5,94.2-57.8,122.6-72.8,128.8c-5.6-2.3-16.3-7.6-27.8-18.1c14.1,15.5,28.4,22.7,35.1,25.4
		c15.3-6.3,69.6-35.5,73-133.4C220.2,50.4,217.7,49.4,215.3,48.4z"/>
</g>
<g>
	<path class="st6" d="M109.4,87.9c-1.8-0.4-5.5-0.8-5.5-3.4c0-1.5,1.7-2.4,3.6-2.4c2,0,3.4,1,4.4,2.1l3.2-2.4
		c-1.5-2.5-4.5-3.5-7.3-3.5c-4,0-8.2,2.1-8.2,6.6c0,4.1,3.1,5.3,6.6,6.1c1.8,0.4,5.2,0.9,5.2,3.3c0,1.9-2.3,2.7-4.4,2.7
		c-2.4,0-3.9-1.2-5.2-2.5l-3.1,2.5c2.1,2.9,4.8,3.8,8.3,3.8c4.3,0,8.7-1.9,8.7-6.8C115.7,90.1,113,88.8,109.4,87.9z"/>
	<rect x="134.1" y="106" class="st6" width="4.1" height="4.2"/>
	<path class="st6" d="M140.9,89.6c0-6.3-5-11.3-11.4-11.3c-6.4,0-11.4,5-11.4,11.3c0,6.3,5,11.3,11.4,11.3
		C135.9,100.9,140.9,95.9,140.9,89.6z M129.5,97.1c-4.4,0-7.1-3.1-7.1-7.5c0-4.4,2.7-7.5,7.1-7.5c4.4,0,7.1,3.1,7.1,7.5
		C136.5,94,133.8,97.1,129.5,97.1z"/>
	<rect x="168.3" y="65.7" class="st6" width="4.1" height="4.2"/>
	<path class="st6" d="M195,66v15c-2-1.6-4.5-2.6-7.3-2.6c-6.4,0-11.4,5-11.4,11.3c0,6.3,5,11.3,11.4,11.3c6.2,0,11.4-4.6,11.4-12.2
		V66H195z M187.7,97.1c-4.4,0-7.1-3.1-7.1-7.5c0-4.4,2.7-7.5,7.1-7.5c4.4,0,7.1,3.1,7.1,7.5C194.8,93.8,191.8,97.1,187.7,97.1z"/>
	<path class="st6" d="M160.6,78.9V74c0-3,0.5-4.9,3.5-4.9c0.6,0,1.1,0,1.6,0.2v-3.6c-0.7-0.1-1.3-0.1-1.9-0.1
		c-3.4,0-5.5,1.2-6.5,3.5c-1.2-0.3-3.1-0.6-4-0.6c-5.8,0-7.6,2.8-7.6,8.5v1.9h-4v3.5h4l0,19.5c0,3-0.5,4.9-3.5,4.9
		c-0.6,0-1.1-0.1-1.7-0.2v3.6c0.7,0.1,1.4,0.1,2,0.1c5.3,0,7.3-2.8,7.3-8.5V82.4h6.7v18h4.1v-18h7.8v18h4.1V78.9h-4.1H160.6z
		 M149.8,78.9v-2c0-3,0.5-4.9,3.8-4.9c0.9,0,2.1,0.2,2.9,0.6c0,0.5-0.1,0.9-0.1,1.4v4.8H149.8z"/>
</g>
<path class="st4" d="M235.1,39.5c-20.7,0-37.5-16.8-37.5-37.5c0,0,0-0.1,0-0.1H149h-0.3H100c0,0,0,0.1,0,0.1
	c0,20.7-16.8,37.5-37.5,37.5c-0.3,0-0.5,0-0.8,0v2.2c0,129.7,81.5,156.4,87,158.1v0.1c0,0,0.1,0,0.1,0c0.1,0,0.1,0,0.1,0v-0.1
	c5.4-1.6,87-28.4,87-158.1v-2.2C235.7,39.5,235.4,39.5,235.1,39.5z M148.8,185.1c-15.3-6.3-69.6-35.5-73-133.4
	C93.3,47,107.2,33.3,112,15.8h73.5c4.9,17.5,18.7,31.2,36.3,35.9C218.4,149.6,164.1,178.8,148.8,185.1z"/>
<path class="st5" d="M107,1.2h-6c0,0,0,0.1,0,0.1c0,20.7-16.8,37.5-37.5,37.5c-0.3,0-0.5,0-0.8,0v2.2c0,1.5,0,3,0,4.5
	C72.7,43.9,110.4,35.3,107,1.2z"/>
<path class="st5" d="M236.9,39.4l-0.6-0.5c-0.1,0-0.1,0-0.2,0c-18.9,0-35.8-19.4-38.4-37.6l-5,0h-1.4c1.9,16.7,9.4,37.1,45.6,43
	c0-1,0-2.1,0-3.1V39.4z"/>
<g>
	<path class="st5" d="M115.4,179.7l-4.3-3C111.1,176.8,112.6,178,115.4,179.7z"/>
	<path class="st5" d="M183.5,179.5l-0.2,0.1C183.3,179.6,183.4,179.6,183.5,179.5C183.4,179.5,183.4,179.5,183.5,179.5z"/>
	<path class="st5" d="M115.4,179.7l24.1,16.4c4.8,2.3,8.2,3.4,9.1,3.6v0.1c0,0,0.1,0,0.1,0c0.1,0,0.1,0,0.1,0v-0.1
		c0.6-0.2,2-0.6,4.1-1.4l30.2-18.7C151.8,197.8,125.5,185.9,115.4,179.7z"/>
</g>
<g>
	<path d="M149.6,200.3c-0.2,0-0.4-0.1-0.6-0.2c0,0,0,0,0,0c-3.7-1.2-18.6-6.5-35.4-21.2c-22.8-20-38.4-47.8-46.2-82.6
		c-0.1-0.5,0.2-1.1,0.8-1.2c0.5-0.1,1.1,0.2,1.2,0.8c7.7,34.4,23.1,61.8,45.6,81.5c17,14.9,32.6,20.1,34.9,20.8
		c6.1-1.9,53.6-18.4,75.4-84.2c0.2-0.5,0.7-0.8,1.3-0.6c0.5,0.2,0.8,0.7,0.6,1.3c-22,66.3-70,83.4-76.6,85.4
		c-0.2,0.1-0.5,0.2-0.7,0.2C149.7,200.3,149.7,200.3,149.6,200.3z M149.8,185.4c-0.1,0-0.3,0-0.4-0.1
		c-16.4-6.8-70.2-36.4-73.6-134.3c0-0.5,0.3-0.9,0.7-1c17.2-4.6,30.8-18.1,35.6-35.2c0.1-0.4,0.5-0.7,1-0.7h73.5
		c0.4,0,0.8,0.3,1,0.7c4.8,17.1,18.4,30.6,35.6,35.2c0.4,0.1,0.8,0.5,0.7,1c-3.5,97.8-57.2,127.5-73.6,134.3
		C150.1,185.4,149.9,185.4,149.8,185.4z M77.8,51.8c3.6,95.3,55.5,124.6,72,131.6c16.5-6.9,68.4-36.3,72-131.6
		c-17.2-4.9-30.9-18.5-36-35.6h-72C108.7,33.3,95,46.9,77.8,51.8z M231.5,95.7c-0.1,0-0.1,0-0.2,0c-0.5-0.1-0.9-0.6-0.8-1.2
		c3.6-16.3,5.4-34.3,5.4-53.4v-1.2c-20.8-0.1-37.8-16.9-38.3-37.6H102C101.5,23,84.5,39.8,63.7,39.9v1.2c0,14.4,1,28.2,3.1,41.1
		c0.1,0.5-0.3,1-0.8,1.1c-0.5,0.1-1.1-0.3-1.1-0.8c-2-12.9-3.1-26.9-3.1-41.4v-2.2c0-0.3,0.1-0.5,0.3-0.7c0.2-0.2,0.4-0.3,0.7-0.3
		l0.3,0c0.2,0,0.3,0,0.5,0c20.2,0,36.5-16.4,36.5-36.5c0-0.5,0.4-1.1,1-1.1h97.6c0.5,0,1,0.4,1,1c0,0,0,0.1,0,0.1
		c0,20.2,16.4,36.5,36.5,36.5c0.2,0,0.3,0,0.5,0l0.3,0c0.3,0,0.5,0.1,0.7,0.3c0.2,0.2,0.3,0.4,0.3,0.7v2.2c0,19.3-1.8,37.4-5.4,53.9
		C232.4,95.4,232,95.7,231.5,95.7z"/>
</g>
</svg>
