<?xml version="1.0" encoding="UTF-8" standalone="no"?>
<!-- Generator: Adobe Illustrator 24.3.0, SVG Export Plug-In . SVG Version: 6.00 Build 0)  -->

<svg
   version="1.1"
   id="Capa_1"
   x="0px"
   y="0px"
   viewBox="0 0 300 200"
   style="enable-background:new 0 0 300 200;"
   xml:space="preserve"
   sodipodi:docname="tools-user.svg"
   inkscape:version="1.1.2 (0a00cf5339, 2022-02-04)"
   xmlns:inkscape="http://www.inkscape.org/namespaces/inkscape"
   xmlns:sodipodi="http://sodipodi.sourceforge.net/DTD/sodipodi-0.dtd"
   xmlns="http://www.w3.org/2000/svg"
   xmlns:svg="http://www.w3.org/2000/svg"
   xmlns:rdf="http://www.w3.org/1999/02/22-rdf-syntax-ns#"
   xmlns:cc="http://creativecommons.org/ns#"
   xmlns:dc="http://purl.org/dc/elements/1.1/"><metadata
   id="metadata2525"><rdf:RDF><cc:Work
       rdf:about=""><dc:format>image/svg+xml</dc:format><dc:type
         rdf:resource="http://purl.org/dc/dcmitype/StillImage" /></cc:Work></rdf:RDF></metadata><defs
   id="defs2523">
	
	
	
	
	
	
	
	
	
	
	
	
	
	
	
	
	
	
	
	
	
	
	
	
	
	
	
</defs><sodipodi:namedview
   pagecolor="#ffffff"
   bordercolor="#666666"
   borderopacity="1"
   objecttolerance="10"
   gridtolerance="10"
   guidetolerance="10"
   inkscape:pageopacity="0"
   inkscape:pageshadow="2"
   inkscape:window-width="1920"
   inkscape:window-height="1043"
   id="namedview2521"
   showgrid="false"
   inkscape:zoom="2.1325"
   inkscape:cx="179.13247"
   inkscape:cy="109.96483"
   inkscape:window-x="0"
   inkscape:window-y="1080"
   inkscape:window-maximized="1"
   inkscape:current-layer="Capa_1"
   inkscape:pagecheckerboard="0" />
<style
   type="text/css"
   id="style2420">
	.st0{fill:#5F7993;}
	.st1{fill:#17B5C8;}
	.st2{fill:#11828F;}
	.st3{fill:#405162;}
	.st4{fill:#A6D100;}
	.st5{fill:#89AB00;}
	.st6{fill:#FFFFFF;}
	.st7{fill:none;stroke:#17B5C8;stroke-width:2;stroke-miterlimit:10;}
</style>

<g
   id="g22008"
   transform="matrix(0.61054203,0,0,0.61054203,58.285477,6.972121)"><ellipse
     ry="47.561447"
     rx="45.726276"
     cy="48.648647"
     cx="149.07802"
     id="path20590-2"
     style="opacity:1;fill:#ffffff;fill-opacity:1;fill-rule:nonzero;stroke:#000000;stroke-width:3.05187;stroke-linecap:round;stroke-linejoin:round;stroke-miterlimit:4;stroke-dasharray:none;stroke-dashoffset:0;stroke-opacity:1" /></g><g
   id="g3255"><path
     style="enable-background:new 0 0 300 200;fill:#5f7993"
     inkscape:connector-curvature="0"
     id="path20722"
     d="m 233.7,164.6 c -23.7,21.6 -52.9,34.3 -84.5,34.3 -30.8,0 -59.4,-12.1 -82.8,-32.8 5.1,-29.9 22.4,-55.3 46.3,-70.3 10.2,7.7 22.8,12.3 36.5,12.3 14.1,0 27.1,-4.8 37.4,-12.9 24,14.6 41.6,39.7 47.1,69.4 z"
     class="st1"
     transform="matrix(0.61054203,0,0,0.61054203,58.285477,6.972121)" /><path
     style="enable-background:new 0 0 300 200;fill:#405162"
     inkscape:connector-curvature="0"
     id="path20724"
     d="m 152.2,125.7 c 29.4,0 45.8,-11.7 51.8,-17.1 -5.3,-5.2 -11.1,-9.7 -17.4,-13.6 -10.3,8.1 -23.3,12.9 -37.4,12.9 -13.7,0 -26.4,-4.6 -36.5,-12.3 -6.1,3.9 -11.8,8.4 -17,13.5 5.8,4.4 25,16.6 56.5,16.6 z"
     class="st2"
     transform="matrix(0.61054203,0,0,0.61054203,58.285477,6.972121)" /><g
     id="g20728"
     style="enable-background:new 0 0 300 200"
     transform="matrix(0.61054203,0,0,0.61054203,58.285477,6.972121)"><path
       inkscape:connector-curvature="0"
       id="path20726"
       d="m 149.2,200 c -30.1,0 -59,-11.4 -83.5,-33.1 -0.3,-0.3 -0.4,-0.6 -0.4,-1 5.1,-29.6 22.1,-55.5 46.8,-71.1 0.4,-0.2 0.9,-0.2 1.2,0.1 10.4,7.9 22.8,12 35.8,12 13.5,0 26.2,-4.4 36.7,-12.7 0.4,-0.3 0.9,-0.3 1.2,-0.1 24.8,15.2 42.2,40.8 47.6,70.2 0.1,0.4 -0.1,0.8 -0.3,1 C 209.5,188 180,200 149.2,200 Z M 67.5,165.7 c 24,21 52.2,32.1 81.6,32.1 30.1,0 58.9,-11.6 83.3,-33.6 -5.4,-28.4 -22.1,-53 -45.9,-67.8 -10.8,8.3 -23.8,12.7 -37.5,12.7 -13.3,0 -25.9,-4.2 -36.6,-12 -23.5,15.1 -39.8,40.1 -44.9,68.6 z" /></g><g
     id="g2062"
     transform="matrix(0.57799327,0.4128623,-0.4128623,0.57799327,103.70511,7.2409243)"><path
       style="fill:none;stroke:#ffffff;stroke-width:10;stroke-linecap:butt;stroke-linejoin:miter;stroke-miterlimit:4;stroke-dasharray:none;stroke-opacity:1"
       d="M 251.01167,57.854928 C 238.67483,57.346153 226.66531,61.81882 217.06762,69.45113 204.81103,77.52715 190.08416,83.05822 175.13698,80.94704 151.42164,80.13213 127.44685,84.1526 103.97456,79.59516 86.24503,74.29303 72.367917,58.01157 52.84956,58.55805 40.440178,58.0866 27.234997,63.59339 20.372998,74.15962 c -3.215771,4.99855 0.283547,12.27905 6.464843,12.07421 8.597668,0.49071 17.370095,-0.38079 25.794922,0.57422 -0.339432,7.85935 1.141303,16.52489 -0.548828,23.87501 -10.1807,0.99569 -22.346128,-4.0634 -31.078125,3.15429 -4.839839,6.4742 1.558156,14.30241 7.183594,17.7168 12.947872,9.62946 32.007975,12.40539 45.759545,2.77759 13.398651,-7.89991 27.181181,-17.24055 43.254121,-15.99046 27.38607,-0.68338 54.97863,-2.50016 82.22461,0.56053 15.92894,5.06335 27.78981,20.3453 45.52344,20.15429 10.98252,1.19119 21.4013,-3.49124 29.80274,-10.23046 5.52211,-3.31183 10.23303,-12.11248 4.10351,-17.08789 -5.90389,-3.87064 -13.32403,-1.10408 -19.89453,-1.6211 -3.48685,-0.0546 -10.23159,2.82282 -11.54102,-1.89648 0.89089,-6.72511 -0.25319,-13.59854 0.74219,-20.25391 2.86283,-3.51924 8.66743,-0.6145 12.60742,-1.38868 6.54731,-0.35728 16.06579,1.44296 19.81446,-5.49218 3.03693,-6.10048 -1.95463,-11.99282 -6.83594,-15.1543 -6.41589,-5.07387 -14.47479,-8.344454 -22.73828,-8.076172 z"
       id="path4357-1"
       inkscape:connector-curvature="0" /><path
       style="fill:#17b5c8;stroke-width:1.8091"
       id="path3590"
       d="m 52.932795,64.257987 c -11.757458,-0.197629 -22.339946,5.052527 -29.178603,13.622449 -2.216218,2.676769 -0.29643,6.870565 3.32125,6.931366 l 24.419336,0.410485 c 2.351491,0.03965 4.307768,2.062691 4.268239,4.414192 l -0.39224,23.334041 c -0.03953,2.35148 -2.0627,4.30775 -4.414191,4.26822 l -24.419335,-0.41048 c -3.61768,-0.0608 -5.677336,4.06607 -3.552339,6.81582 6.72764,8.79798 17.305535,14.58479 29.427801,14.60762 7.600166,-0.0532 14.69721,-2.46697 20.733274,-6.34608 l 17.173366,-9.84368 c 7.124417,-4.04175 15.119797,-6.07858 23.259567,-5.94174 l 19.89724,0.33447 0.48346,-28.760539 -20.80166,-0.349684 C 105.37995,87.213646 97.81627,85.096265 91.187423,81.185198 L 72.193119,70.190751 v 0 C 66.646529,66.478814 59.98727,64.376575 52.932795,64.257987 Z"
       class="st1"
       inkscape:connector-curvature="0" /><path
       style="fill:#17b5c8;stroke-width:1.8091"
       id="path3590-3"
       d="m 246.52883,63.48827 c 11.75746,-0.19764 22.33994,5.052516 29.1786,13.622448 2.21622,2.676759 0.29642,6.870545 -3.32126,6.931356 l -24.41932,0.410475 c -2.35151,0.03965 -4.30778,2.062712 -4.26824,4.414191 l 0.39223,23.33404 c 0.0396,2.3515 2.0627,4.30776 4.41419,4.26824 l 24.41934,-0.41049 c 3.61767,-0.0608 5.67734,4.06606 3.55234,6.81582 -6.72764,8.79797 -17.30553,14.58478 -29.4278,14.60761 -7.60017,-0.0532 -14.69721,-2.46697 -20.73328,-6.34607 l -17.17337,-9.84369 c -7.12441,-4.04175 -15.11979,-6.07856 -23.25957,-5.94173 l -53.48997,-0.11542 -0.63343,-27.260855 54.54436,-1.399465 c 7.77802,-0.130801 15.34169,-2.248161 21.97054,-6.15925 L 227.2685,69.421034 v 0 c 5.54659,-3.711938 12.20585,-5.814165 19.26033,-5.932743 z"
       class="st1"
       inkscape:connector-curvature="0"
       sodipodi:nodetypes="scccssscccccsccccccs" /><path
       inkscape:connector-curvature="0"
       class="st2"
       d="m 185.87965,115.16957 -19.71636,0.33143 -0.15812,-9.40596 c 0,0 27.48221,-1.18571 40.15625,-0.67502 12.67404,0.51068 22.70327,15.90252 34.70547,19.50039 12.00219,3.5979 20.66483,-8.48944 20.66483,-8.48944 l 4.33817,-0.25385 7.05447,-0.11868 c 1.98972,-0.0335 3.45809,1.20842 4.0281,2.82726 0.0242,1.44705 -0.30704,3.26198 -1.71762,5.45692 -4.96746,5.87342 -11.77111,10.14929 -19.51871,12.08887 -10.38203,1.59883 -22.25777,-0.39416 -27.75734,-4.41865 -0.54874,-0.35264 -1.09747,-0.70528 -1.6462,-1.05793 l -17.17338,-9.84368 c -4.38682,-2.64029 -9.30109,-4.36703 -14.38105,-5.1863 v 0 l -0.18089,0.003 c -2.72542,-0.67794 -5.80348,-0.80713 -8.69763,-0.75848 z"
       id="path3596-6"
       style="fill:#11828f;stroke-width:1.8091"
       sodipodi:nodetypes="cccsccccccccccccccc" /><path
       inkscape:connector-curvature="0"
       class="st2"
       d="m 113.58196,115.93931 52.58133,-0.43831 -0.15812,-9.40596 c 0,0 -60.03094,-0.41598 -72.70498,0.0946 -12.67404,0.51069 -22.703269,15.90252 -34.705464,19.5004 C 46.592531,129.28793 37.9299,117.2006 37.9299,117.2006 l -4.338175,-0.25386 -7.054474,-0.11868 c -1.989724,-0.0335 -3.45808,1.20843 -4.028097,2.82726 -0.02433,1.44706 0.307036,3.26198 1.71762,5.45692 4.967452,5.87342 11.771108,10.14929 19.51871,12.08887 11.082956,2.91589 22.460019,-1.1146 27.757344,-4.41864 l 1.646198,-1.05794 17.173367,-9.84368 c 4.386827,-2.64029 9.301097,-4.36703 14.381057,-5.1863 v 0 l 0.18089,0.003 c 2.72542,-0.67795 5.80348,-0.80713 8.69763,-0.75848 z"
       id="path3596"
       style="fill:#11828f;stroke:none;stroke-width:1.8091"
       sodipodi:nodetypes="cccsccccccccccccccc" /><path
       style="fill:none;stroke:#000000;stroke-width:2;stroke-linecap:butt;stroke-linejoin:miter;stroke-miterlimit:4;stroke-dasharray:none;stroke-opacity:1"
       d="m 62.36468,65.900772 c 6.803387,1.533693 11.345822,5.450111 17.096305,8.398179 m 0,0 c 5.750483,2.948067 12.416588,7.311313 17.396235,9.297987 4.97965,1.986675 5.80769,2.363386 11.99741,3.299306 6.18971,0.93592 15.66014,0.763056 25.10499,0.797887 9.44484,0.03468 21.72955,-0.537268 31.54238,-0.769739 9.81282,-0.23247 18.8644,1.084222 27.33448,-0.628024 8.47006,-1.712257 17.90209,-6.563369 22.6451,-9.597943 4.74302,-3.034552 12.34733,-7.873345 16.6464,-9.897843 4.29907,-2.024508 18.33074,-3.957742 25.79443,-2.099552 7.46369,1.858199 13.90211,6.876064 17.39624,10.797663 3.49413,3.921589 0.58314,7.258845 -1.79961,8.3982 -2.38277,1.139343 -24.07533,0.538822 -25.19456,0.599855 -1.11923,0.06101 -4.47307,2.551382 -4.79896,4.199095 -0.3259,1.647702 -0.99515,23.628677 -0.29993,24.894627 0.69521,1.26595 4.30374,3.43287 5.39882,3.29929 1.0951,-0.13352 24.01665,-1.45688 25.49449,-0.89981 1.47784,0.55707 5.57607,3.03111 1.11594,8.35267 -4.46015,5.32154 -15.81219,11.0942 -19.51871,12.08887 -3.70652,0.99468 -17.93196,1.28288 -23.88808,-1.84557 -5.95612,-3.12845 -10.04172,-5.8992 -14.99676,-8.84808 -4.95505,-2.94888 -10.74803,-6.5873 -15.29669,-8.2482 -4.54868,-1.66092 -14.39144,-1.85073 -28.49384,-2.09957 -14.10242,-0.24885 -43.19317,0.39731 -55.48801,0.8998 -12.29484,0.5025 -12.2045,0.71102 -18.59598,2.39949 -6.39149,1.68845 -12.004407,5.21301 -17.696175,8.39817 -5.691764,3.18516 -9.757767,6.29493 -17.246271,9.59794 -7.488505,3.30302 -17.141846,1.35333 -24.144781,-0.8998 -7.002935,-2.25314 -14.028092,-8.30645 -15.642769,-10.67333 -1.614677,-2.36687 -3.390023,-6.42494 1.695783,-8.2226 5.085809,-1.79764 19.926679,-0.0224 23.994814,0 4.068136,0.0224 6.029355,-0.31078 6.14867,-4.19908 0.11931,-3.88829 -0.0367,-20.062591 0,-24.29475 0.0367,-4.23216 -0.970282,-3.35169 -3.299287,-3.599218 -2.329004,-0.247518 -21.112588,-0.562984 -26.007577,-0.4279 -4.894988,0.135136 -4.981679,-4.521159 -3.086134,-7.07049 1.895545,-2.54932 9.20382,-8.944074 15.896564,-11.097597 6.692744,-2.153533 7.371052,-2.280189 13.363188,-1.942718"
       id="path4357"
       inkscape:connector-curvature="0"
       sodipodi:nodetypes="ccczzzzzzzzzzzzzzzzzzzzzzzzzzzzzzzzzzzc" /></g><path
     style="fill:#ffffff;stroke:none;stroke-width:0.710304px;stroke-linecap:butt;stroke-linejoin:miter;stroke-opacity:1"
     d="m 128.70464,127.5797 13.3866,-5.78474 50.82445,-55.036475 20.11199,-8.951079 -4.80676,16.996303 -44.20237,50.401571 -7.77128,7.50395 0.19081,14.15071 -48.46292,50.20879 c -7.70277,0.85616 -15.6218,2.20674 -20.490997,-3.4154 -6.723165,-4.79302 -4.31944,-11.1622 -4.693952,-17.05158 z"
     id="path17376"
     sodipodi:nodetypes="cccccccccccc" /><g
     id="g17341"
     transform="matrix(0.71030381,0,0,0.71030381,53.677532,61.360756)"><g
       id="g1660"><path
         style="fill:#a6d100;stroke:#000000;stroke-width:2;stroke-linecap:butt;stroke-linejoin:round;stroke-miterlimit:4;stroke-dasharray:none;stroke-opacity:1"
         d="m 48.707786,162.98047 c -0.991039,22.08495 11.639706,22.62608 24.273858,23.31069 l 63.616536,-70.63736 3.09257,-17.820412 -12.1341,-9.124387 -16.20126,7.44346 z"
         id="path2097"
         sodipodi:nodetypes="ccccccc" /><path
         style="fill:#89ab00;stroke:none;stroke-width:1px;stroke-linecap:butt;stroke-linejoin:miter;stroke-opacity:1"
         d="m 72.645794,185.09296 c -18.493836,1.58202 -23.33191,-7.18394 -22.8958,-21.46366 2.849555,5.81074 6.132551,13.37573 17.641198,13.62642 l 61.435648,-68.33047 5.60819,-11.387838 4.30566,1.09686 -2.61171,16.545288 z"
         id="path3139"
         sodipodi:nodetypes="cccccccc" /><path
         style="fill:#ffffff;stroke:#000000;stroke-width:2;stroke-linecap:butt;stroke-linejoin:bevel;stroke-miterlimit:4;stroke-dasharray:none;stroke-opacity:1"
         d="m 127.55642,88.709001 73.11093,-77.363965 16.7022,-8.025555 -5.88905,15.363925 -71.78998,79.149982 c -5.95874,-1.266727 -9.10506,-5.141185 -12.1341,-9.124387 z"
         id="path4128"
         sodipodi:nodetypes="cccccc" /><path
         style="fill:none;stroke:#000000;stroke-width:1px;stroke-linecap:butt;stroke-linejoin:miter;stroke-opacity:1"
         d="M 207.49664,17.106512 217.36955,3.319481"
         id="path4323" /><path
         style="fill:#000000;fill-opacity:0.302601;stroke:none;stroke-width:1px;stroke-linecap:butt;stroke-linejoin:miter;stroke-opacity:1"
         d="m 197.63878,21.582264 18.0625,-16.707347 -15.24005,7.029811 z m 7.59969,-6.553208 8.15017,-8.007654"
         id="path4358-7"
         sodipodi:nodetypes="cccccc" /><path
         style="fill:#000000;fill-opacity:0.181298;stroke:none;stroke-width:1px;stroke-linecap:butt;stroke-linejoin:miter;stroke-opacity:1"
         d="m 211.15578,18.072906 -5.52869,5.571216 1.90922,-6.355985 7.92437,-10.4800928 z"
         id="path9082"
         sodipodi:nodetypes="ccccc" /><path
         style="fill:none;stroke:#000000;stroke-width:1px;stroke-linecap:butt;stroke-linejoin:miter;stroke-opacity:1"
         d="m 134.43503,97.537412 -5.60819,11.387838 -61.435648,68.33047"
         id="path13231"
         sodipodi:nodetypes="ccc" /><path
         style="fill:none;stroke:#000000;stroke-width:1px;stroke-linecap:butt;stroke-linejoin:miter;stroke-opacity:1"
         d="m 130.2405,94.082139 -13.31754,8.723741 -59.728423,65.26011"
         id="path13231-4"
         sodipodi:nodetypes="ccc" /><path
         style="fill:#000000;fill-opacity:0.147141;stroke:none;stroke-width:1px;stroke-linecap:butt;stroke-linejoin:miter;stroke-opacity:1"
         d="m 134.73223,95.339163 72.76438,-78.232651 -2.69086,8.09679 -65.63806,71.521529 z"
         id="path15184"
         sodipodi:nodetypes="ccccc" /></g></g><path
     style="fill:none;stroke:#000000;stroke-width:0.710304px;stroke-linecap:round;stroke-linejoin:miter;stroke-opacity:1"
     d="m 198.53587,79.801929 2.52729,-6.290353"
     id="path4323-8"
     sodipodi:nodetypes="cc" /><path
     style="fill:none;stroke:#000000;stroke-width:0.710304px;stroke-linecap:round;stroke-linejoin:round;stroke-opacity:1"
     d="m 193.59972,77.300751 7.12395,-3.78022"
     id="path4323-9"
     sodipodi:nodetypes="cc" /><path
     style="fill:none;stroke:#000000;stroke-width:0.710304px;stroke-linecap:round;stroke-linejoin:miter;stroke-opacity:1"
     d="m 193.52817,77.383039 2.83082,-8.063438"
     id="path4323-3"
     sodipodi:nodetypes="cc" /></g></svg>
