<?xml version="1.0" encoding="utf-8"?>
<!-- Generator: Adobe Illustrator 24.3.0, SVG Export Plug-In . SVG Version: 6.00 Build 0)  -->
<svg version="1.1" id="Capa_1" xmlns="http://www.w3.org/2000/svg" xmlns:xlink="http://www.w3.org/1999/xlink" x="0px" y="0px"
	 viewBox="0 0 300 200" style="enable-background:new 0 0 300 200;" xml:space="preserve">
<style type="text/css">
	.st0{fill:#5F7993;}
	.st1{fill:#17B5C8;}
	.st2{fill:#11828F;}
	.st3{fill:#405162;}
	.st4{fill:#A6D100;}
	.st5{fill:#89AB00;}
	.st6{fill:#FFFFFF;}
	.st7{fill:none;stroke:#17B5C8;stroke-width:2;stroke-miterlimit:10;}
</style>
<g>
	<path class="st4" d="M212,49.8h-10.1c-1.3,0-2.3,1-2.3,2.3s-1,2.3-2.3,2.3h-3.9c-1.3,0-2.3-1-2.3-2.3v-0.2c0-1.3-1-2.3-2.3-2.3H170
		c-0.1,0-0.3,0-0.4,0c-12.5,0.7-25,10.9-25,23.5c0,2.2,0.3,4.3,0.8,6.2c1.8-4.8,6.4-8.2,11.9-8.2c3.5,0,7.7,1.3,10.4,3.5
		c0.2,1,1.1,1.8,2.2,1.8h18.8c1.3,0,2.3-1,2.3-2.3v-3c0-1.3,1-2.3,2.3-2.3h3.9c1.3,0,2.3,1,2.3,2.3s1,2.3,2.3,2.3H212
		c1.3,0,2.3-1,2.3-2.3v-19C214.3,50.8,213.3,49.8,212,49.8z"/>
	<path d="M145.5,80.3C145.5,80.3,145.5,80.3,145.5,80.3c-0.5,0-0.8-0.3-1-0.7c-0.6-2.1-0.9-4.3-0.9-6.5c0-13.6,13.6-23.7,25.9-24.4
		c0.2,0,0.3,0,0.5,0h18.8c1.8,0,3.3,1.5,3.3,3.3v0.2c0,0.7,0.6,1.3,1.3,1.3h3.9c0.7,0,1.3-0.6,1.3-1.3c0-1.8,1.5-3.3,3.3-3.3H212
		c1.8,0,3.3,1.5,3.3,3.3v19c0,1.8-1.5,3.3-3.3,3.3h-10.1c-1.8,0-3.3-1.5-3.3-3.3c0-0.7-0.6-1.3-1.3-1.3h-3.9c-0.7,0-1.3,0.6-1.3,1.3
		v3c0,1.8-1.5,3.3-3.3,3.3H170c-1.4,0-2.7-0.9-3.1-2.2c-2.4-1.8-6.2-3.1-9.5-3.1c-4.8,0-9.2,3-10.9,7.5
		C146.3,80,145.9,80.3,145.5,80.3z M170,50.5c-0.1,0-0.1,0-0.2,0c0,0-0.1,0-0.1,0c-11.4,0.6-24,10-24,22.5c0,1.1,0.1,2.2,0.2,3.3
		c2.5-3.8,6.8-6.2,11.5-6.2c3.9,0,8.3,1.5,11,3.7c0.2,0.1,0.3,0.3,0.3,0.6c0.1,0.6,0.7,1,1.3,1h18.8c0.7,0,1.3-0.6,1.3-1.3v-3
		c0-1.8,1.5-3.3,3.3-3.3h3.9c1.8,0,3.3,1.5,3.3,3.3c0,0.7,0.6,1.3,1.3,1.3H212c0.7,0,1.3-0.6,1.3-1.3v-19c0-0.7-0.6-1.3-1.3-1.3
		h-10.1c-0.7,0-1.3,0.6-1.3,1.3c0,1.8-1.5,3.3-3.3,3.3h-3.9c-1.8,0-3.3-1.5-3.3-3.3v-0.2c0-0.7-0.6-1.3-1.3-1.3H170z"/>
</g>
<path class="st5" d="M180.1,73.2c-5.3-0.2-8.3-4.3-8.3-4.3c-10.2-11.3-23.9,3.2-26.9,6.6c0.1,1.3,0.4,2.5,0.7,3.7c0,0,0,0,0,0
	c1.8-4.7,6.4-8.1,11.8-8.1c2.1,0,4.5,0.5,6.6,1.3l0.6-0.1l0.3,0.5c1.1,0.5,2.1,1.1,2.9,1.8c0.2,1,1.1,1.8,2.2,1.8h18.8
	c1.3,0,2.3-1,2.3-2.3v-1.4C189,72.9,184.1,73.4,180.1,73.2z"/>
<g>
	<path class="st1" d="M128.7,65.2c0-6.5-3-12.3-7.8-16c-1.5-1.2-3.8-0.1-3.8,1.9v13.5c0,1.3-1.1,2.4-2.4,2.4h-12.9
		c-1.3,0-2.4-1.1-2.4-2.4l0-13.5c0-2-2.3-3.1-3.8-1.9c-4.8,3.8-7.9,9.7-7.8,16.4c0.1,4.2,1.5,8.1,3.7,11.4l5.6,9.4
		c2.3,3.9,3.5,8.3,3.5,12.8v11h15.9V98.7c0-4.3,1.1-8.5,3.2-12.2l5.9-10.6l0,0C127.6,72.8,128.7,69.1,128.7,65.2z"/>
	<path d="M116.7,111.2h-15.9c-0.5,0-1-0.4-1-1v-11c0-4.3-1.2-8.6-3.4-12.3l-5.6-9.4c-2.5-3.5-3.8-7.6-3.9-11.8
		c-0.1-6.7,2.9-13,8.2-17.2c1-0.8,2.3-0.9,3.5-0.4c1.2,0.6,1.9,1.7,1.9,3.1v13.5c0,0.8,0.6,1.4,1.4,1.4h12.9c0.8,0,1.4-0.6,1.4-1.4
		V51.1c0-1.3,0.7-2.5,1.9-3.1c1.2-0.6,2.5-0.4,3.5,0.4c5.2,4.1,8.1,10.2,8.1,16.8c0,3.9-1.1,7.7-3.1,11c0,0,0,0.1,0,0.1L120.7,87
		c-2,3.6-3,7.6-3,11.7v11.5C117.7,110.7,117.2,111.2,116.7,111.2z M101.7,109.2h14V98.7c0-4.4,1.1-8.8,3.3-12.7l5.8-10.5
		c0-0.1,0-0.1,0.1-0.2c1.9-3,2.8-6.5,2.8-10.1c0-6-2.7-11.5-7.4-15.2c-0.4-0.3-0.9-0.4-1.4-0.1c-0.5,0.2-0.8,0.7-0.8,1.3v13.5
		c0,1.9-1.5,3.4-3.4,3.4h-12.9c-1.9,0-3.4-1.5-3.4-3.4V51.1c0-0.6-0.3-1-0.8-1.3c-0.5-0.2-1-0.2-1.4,0.1c-4.8,3.8-7.5,9.5-7.4,15.6
		c0.1,3.8,1.3,7.6,3.6,10.8l5.7,9.5c2.4,4,3.7,8.6,3.7,13.3V109.2z"/>
</g>
<path class="st2" d="M100.7,99.2v10.9h5.2c0,0,0.4-15.2,0-22.2c-0.4-7-9-12.4-11.1-19c-2.1-6.6,4.5-11.5,4.5-11.5l0.1-2.4v-3.9
	c0-1.1-0.7-1.9-1.6-2.2c-0.8,0-1.8,0.2-3,1c-3.2,2.8-5.5,6.6-6.5,10.9c-0.5,5.7,1.5,12.1,2.7,15.3c0.2,0.3,0.4,0.6,0.6,0.9l5.6,9.4
	c1.5,2.4,2.5,5.1,3,7.9l0,0l0,0.1C100.6,95.9,100.7,97.6,100.7,99.2z"/>
<path class="st0" d="M231.1,15.2H68.3c-6.7,0-12.2,5.5-12.2,12.2v83.6c1-0.4,2-0.7,3.2-0.7h7.6c-3.7-2.2-2.8-9.2,2.5-9.2
	c0.5,0,0.9,0.1,1.3,0.2V35.6c0-3.8,3.1-6.9,6.9-6.9h144.2c3.8,0,6.9,3.1,6.9,6.9v74.7h13.1c0.5,0,1,0.1,1.5,0.1V27.3
	C243.3,20.6,237.8,15.2,231.1,15.2z"/>
<rect x="56.3" y="93.3" class="st3" width="14.4" height="16.2"/>
<rect x="229.4" y="93.6" class="st3" width="14.7" height="16.2"/>
<path class="st0" d="M241.1,199.3H58.3c-4.3,0-7.7-3.5-7.7-7.7V118c0-4.3,3.5-7.7,7.7-7.7h182.8c4.3,0,7.7,3.5,7.7,7.7v73.5
	C248.8,195.8,245.4,199.3,241.1,199.3z"/>
<path class="st3" d="M64,192.5v-75.8c0-2.5,0.9-4.7,2.3-6.5h-7.9c-4.3,0-7.9,3.5-7.9,7.9v73.3c0,4.3,3.5,7.9,7.9,7.9h8.1
	C65,197.5,64,195.1,64,192.5z"/>
<rect x="172.2" y="76.3" class="st6" width="16.6" height="34"/>
<g>
	<path d="M241.2,200.3h-183c-4.8,0-8.7-3.9-8.7-8.7v-10.8c0-0.5,0.4-1,1-1c0.5,0,1,0.4,1,1v10.8c0,3.7,3,6.7,6.7,6.7h183
		c3.7,0,6.7-3,6.7-6.7V118c0-3.7-3-6.7-6.7-6.7h-183c-3.7,0-6.7,3-6.7,6.7v51.2c0,0.5-0.4,1-1,1c-0.5,0-1-0.4-1-1V118
		c0-4.8,3.9-8.7,8.7-8.7h183c4.8,0,8.7,3.9,8.7,8.7v73.7C249.8,196.4,246,200.3,241.2,200.3z"/>
</g>
<g>
	<path d="M56.1,111.9c-0.2,0-0.4-0.1-0.5-0.2c-0.3-0.2-0.4-0.5-0.4-0.8V27.3c0-7.3,5.9-13.2,13.2-13.2h162.8
		c7.3,0,13.2,5.9,13.2,13.2v83.1c0,0.3-0.1,0.6-0.4,0.8c-0.2,0.2-0.5,0.3-0.8,0.2c-0.4-0.1-0.9-0.1-1.3-0.1h-13.1c-0.5,0-1-0.4-1-1
		s0.4-1,1-1h13.1c0.2,0,0.3,0,0.5,0v-82c0-6.2-5-11.2-11.2-11.2H68.3c-6.2,0-11.2,5-11.2,11.2v82.2c0.7-0.2,1.4-0.3,2.2-0.3h11.4
		c0.5,0,1,0.4,1,1s-0.4,1-1,1H59.3c-1,0-1.9,0.2-2.8,0.6C56.4,111.9,56.2,111.9,56.1,111.9z"/>
</g>
<g>
	<path d="M70.7,102.2c-0.5,0-1-0.4-1-1V35.6c0-4.4,3.6-7.9,7.9-7.9h144.2c4.4,0,7.9,3.6,7.9,7.9v62.6c0,0.5-0.4,1-1,1
		c-0.5,0-1-0.4-1-1V35.6c0-3.3-2.7-6-6-6H77.6c-3.3,0-6,2.7-6,6v65.6C71.7,101.7,71.2,102.2,70.7,102.2z"/>
</g>
<g>
	<path d="M181.2,16.1h-63c-0.5,0-1-0.4-1-1V7.9c0-4.2,3.4-7.7,7.7-7.7h49.6c4.2,0,7.7,3.4,7.7,7.7v7.2
		C182.2,15.7,181.7,16.1,181.2,16.1z M119.2,14.2h61V7.9c0-3.1-2.5-5.7-5.7-5.7h-49.6c-3.1,0-5.7,2.5-5.7,5.7V14.2z"/>
</g>
<g>
	<path d="M116.7,111.2h-15.9c-0.5,0-1-0.4-1-1v-11c0-4.3-1.2-8.6-3.4-12.3l-5.6-9.4c-2.5-3.5-3.8-7.6-3.9-11.8
		c-0.1-6.7,2.9-13,8.2-17.2c1-0.8,2.3-0.9,3.5-0.4c1.2,0.6,1.9,1.7,1.9,3.1v13.5c0,0.8,0.6,1.4,1.4,1.4h12.9c0.8,0,1.4-0.6,1.4-1.4
		V51.1c0-1.3,0.7-2.5,1.9-3.1c1.2-0.6,2.5-0.4,3.5,0.4c5.2,4.1,8.1,10.2,8.1,16.8c0,3.9-1.1,7.7-3.1,11c0,0,0,0.1,0,0.1L120.7,87
		c-2,3.6-3,7.6-3,11.7v11.5C117.7,110.7,117.2,111.2,116.7,111.2z M101.7,109.2h14V98.7c0-4.4,1.1-8.8,3.3-12.7l5.8-10.5
		c0-0.1,0-0.1,0.1-0.2c1.9-3,2.8-6.5,2.8-10.1c0-6-2.7-11.5-7.4-15.2c-0.4-0.3-0.9-0.4-1.4-0.1c-0.5,0.2-0.8,0.7-0.8,1.3v13.5
		c0,1.9-1.5,3.4-3.4,3.4h-12.9c-1.9,0-3.4-1.5-3.4-3.4V51.1c0-0.6-0.3-1-0.8-1.3c-0.5-0.2-1-0.2-1.4,0.1c-4.8,3.8-7.5,9.5-7.4,15.6
		c0.1,3.8,1.3,7.6,3.6,10.8l5.7,9.5c2.4,4,3.7,8.6,3.7,13.3V109.2z"/>
</g>
<g>
	<path d="M145.5,80.3C145.5,80.3,145.5,80.3,145.5,80.3c-0.5,0-0.8-0.3-1-0.7c-0.6-2.1-0.9-4.3-0.9-6.5c0-13.6,13.6-23.7,25.9-24.4
		c0.2,0,0.3,0,0.5,0h18.8c1.8,0,3.3,1.5,3.3,3.3v0.2c0,0.7,0.6,1.3,1.3,1.3h3.9c0.7,0,1.3-0.6,1.3-1.3c0-1.8,1.5-3.3,3.3-3.3H212
		c1.8,0,3.3,1.5,3.3,3.3v19c0,1.8-1.5,3.3-3.3,3.3h-10.1c-1.8,0-3.3-1.5-3.3-3.3c0-0.7-0.6-1.3-1.3-1.3h-3.9c-0.7,0-1.3,0.6-1.3,1.3
		v3c0,1.8-1.5,3.3-3.3,3.3H170c-1.4,0-2.7-0.9-3.1-2.2c-2.4-1.8-6.2-3.1-9.5-3.1c-4.8,0-9.2,3-10.9,7.5
		C146.3,80,145.9,80.3,145.5,80.3z M170,50.5c-0.1,0-0.1,0-0.2,0c0,0-0.1,0-0.1,0c-11.4,0.6-24,10-24,22.5c0,1.1,0.1,2.2,0.2,3.3
		c2.5-3.8,6.8-6.2,11.5-6.2c3.9,0,8.3,1.5,11,3.7c0.2,0.1,0.3,0.3,0.3,0.6c0.1,0.6,0.7,1,1.3,1h18.8c0.7,0,1.3-0.6,1.3-1.3v-3
		c0-1.8,1.5-3.3,3.3-3.3h3.9c1.8,0,3.3,1.5,3.3,3.3c0,0.7,0.6,1.3,1.3,1.3H212c0.7,0,1.3-0.6,1.3-1.3v-19c0-0.7-0.6-1.3-1.3-1.3
		h-10.1c-0.7,0-1.3,0.6-1.3,1.3c0,1.8-1.5,3.3-3.3,3.3h-3.9c-1.8,0-3.3-1.5-3.3-3.3v-0.2c0-0.7-0.6-1.3-1.3-1.3H170z"/>
</g>
<g>
	<path d="M188.7,111.2h-16.6c-0.5,0-1-0.4-1-1v-34c0-0.5,0.4-1,1-1h16.6c0.5,0,1,0.4,1,1v34C189.7,110.8,189.3,111.2,188.7,111.2z
		 M173.2,109.3h14.6v-32h-14.6V109.3z"/>
</g>
<g>
	<path class="st6" d="M128,178.5h5.5v5.7H128V178.5z M154.4,132.7c1.2,0,2.8,0.3,4,0.8l1.1-4.8c-1.6-0.4-4.2-0.8-5.5-0.8
		c-7.8,0-10.3,3.8-10.3,11.5v2.5h-5.5v4.8h5.5l0,26.3c0,4-0.7,6.5-4.8,6.5c-0.8,0-1.5-0.1-2.3-0.3v4.9c1,0.1,1.8,0.2,2.7,0.2
		c7.2,0,9.9-3.8,9.9-11.5v-26.1h9.2v-4.8h-9.2v-2.7C149.3,135.2,150.1,132.7,154.4,132.7z M98.2,149.2c-1.3-1.6-3.2-2.9-5.9-2.9
		c-2.6,0-4.8,1.2-4.8,3.2c0,3.5,5,4,7.4,4.5c4.8,1.2,8.4,3,8.4,8.4c0,6.5-6,9.1-11.7,9.1c-4.8,0-8.3-1.2-11.2-5.1l4.2-3.4
		c1.8,1.8,3.9,3.4,7,3.4c2.8,0,5.9-1.2,5.9-3.7c0-3.3-4.6-3.9-7-4.5c-4.7-1.2-8.9-2.7-8.9-8.3c0-6.1,5.6-8.9,11-8.9
		c3.9,0,7.8,1.3,9.9,4.8L98.2,149.2z M121.9,141.2c8.6,0,15.4,6.8,15.4,15.2c0,8.4-6.8,15.2-15.4,15.2c-8.6,0-15.4-6.8-15.4-15.2
		C106.4,148,113.2,141.2,121.9,141.2z M121.9,166.5c5.9,0,9.5-4.2,9.5-10.1c0-5.9-3.7-10.1-9.5-10.1c-5.9,0-9.5,4.2-9.5,10.1
		C112.3,162.3,116,166.5,121.9,166.5z"/>
	<path class="st6" d="M210.4,124.4v20.3c-2.7-2.2-6.1-3.5-9.9-3.5c-8.6,0-15.4,6.8-15.4,15.2c0,8.4,6.8,15.2,15.4,15.2
		c8.4,0,15.4-6.2,15.4-16.5v-30.7H210.4z M200.5,166.5c-5.9,0-9.5-4.2-9.5-10.1c0-5.9,3.7-10.1,9.5-10.1c5.9,0,9.5,4.2,9.5,10.1
		C210,162,206.1,166.5,200.5,166.5z M174.3,124.1h5.5v5.7h-5.5V124.1z M174.3,141.9h5.5v29h-5.5V141.9z M174.3,141.9h5.5v29h-5.5
		V141.9z"/>
	<g>
		<path class="st6" d="M163.9,141.9v-6.7c0-4,0.7-6.5,4.7-6.5c0.8,0,1.5,0.1,2.2,0.2v-4.9c-0.9-0.1-1.8-0.1-2.6-0.1
			c-7.2,0-9.9,3.8-9.9,11.5v35.5h5.5v-24.2h10.5v-4.8H163.9z"/>
	</g>
</g>
</svg>
