<?xml version="1.0" encoding="utf-8"?>
<!-- Generator: Adobe Illustrator 24.3.0, SVG Export Plug-In . SVG Version: 6.00 Build 0)  -->
<svg version="1.1" id="Capa_1" xmlns="http://www.w3.org/2000/svg" xmlns:xlink="http://www.w3.org/1999/xlink" x="0px" y="0px"
	 viewBox="0 0 300 200" style="enable-background:new 0 0 300 200;" xml:space="preserve">
<style type="text/css">
	.st0{fill:#5F7993;}
	.st1{fill:#17B5C8;}
	.st2{fill:#11828F;}
	.st3{fill:#405162;}
	.st4{fill:#A6D100;}
	.st5{fill:#89AB00;}
	.st6{fill:#FFFFFF;}
	.st7{fill:none;stroke:#17B5C8;stroke-width:2;stroke-miterlimit:10;}
</style>
<g>
	<path class="st4" d="M150.3,186.4c13.4,0,26.1-3.1,37.5-8.5c4.6-2.2,8.9-4.8,13-7.7c0,0,0,0,0,0l-27.5-13.8
		c-5.1-2.5-8.2-7.6-8.2-13.3v-12.9c-4.5,4.7-10.3,7.5-16.6,7.5c-6.3,0-12.2-2.8-16.7-7.5l-0.1,0l0,12.6c0,5.4-3,10.4-7.7,13
		l-24.8,13.4c0,0.1,0,0.3-0.1,0.4c6.1,4.5,12.9,8.2,20.1,11C128.9,184.4,139.4,186.4,150.3,186.4z"/>
	<path class="st1" d="M131.7,130.1c4.5,4.7,10.3,7.5,16.7,7.5c6.3,0,12.2-2.8,16.7-7.5l0,0l0.9-1c0.8-0.9,1.7-2,2.6-3.3
		c3.7-5.3,6.7-11.2,8.7-17.6l0.6-1.7l1.7-0.5c2.4-0.8,4.1-3,4.1-5.5V88c0-1.6-0.7-3.1-2-4.3l-1.2-1l0-20c0-0.1,1-8.7-5-15.3
		c-5.1-5.7-13.7-8.6-25.7-8.6c-12,0-20.7,2.9-25.8,8.7c-5.9,6.8-4.9,15.2-4.9,15.3l0,0.5v19.5l-1.2,1c-1.3,1.1-2,2.7-2,4.3v12.4
		c0,2,1,3.8,2.7,4.9l1.2,0.8l0.3,1.4c2.9,12.5,10.4,21.7,10.5,21.8L131.7,130.1L131.7,130.1z"/>
	<path class="st0" d="M119.2,180.6c-32.4-12.5-55.3-43.9-55.3-80.7c0-29.9,15.2-56.3,38.3-71.8l-7.9-9.9c-26,17.8-43,47.8-43,81.7
		c0,40.5,24.3,75.4,59.2,90.7L119.2,180.6z"/>
	<path class="st1" d="M234.9,81.9c-8.3-39.1-43-68.3-84.5-68.3c-17.8,0-34.4,5.4-48.1,14.6l-7.9-9.9C110.3,7.4,129.6,1,150.3,1
		c47.1,0,86.5,32.9,96.5,76.9L234.9,81.9z"/>
	<g>
		<path class="st4" d="M187.8,177.9c29-14,48.9-43.6,48.9-77.9c0-6.2-0.7-12.3-1.9-18.1l12-4c1.6,7.1,2.5,14.5,2.5,22.1
			c0,38.4-21.9,71.8-53.9,88.2L187.8,177.9z"/>
		<path d="M195.4,189.1c-0.3,0-0.6-0.1-0.8-0.4l-7.6-10.3c-0.2-0.2-0.2-0.5-0.2-0.8c0.1-0.3,0.3-0.5,0.5-0.7
			c29.4-14.2,48.4-44.4,48.4-77c0-6-0.6-12.1-1.9-17.9c-0.1-0.5,0.2-1,0.7-1.1l12-4c0.3-0.1,0.6-0.1,0.8,0.1
			c0.2,0.1,0.4,0.4,0.5,0.6c1.7,7.3,2.5,14.8,2.5,22.3c0,37.7-20.9,71.8-54.4,89C195.7,189.1,195.6,189.1,195.4,189.1z M189.3,178.2
			l6.4,8.6c32.5-17,52.6-50.2,52.6-86.9c0-7-0.7-14-2.2-20.8L236,82.6c1.2,5.7,1.7,11.5,1.7,17.4
			C237.8,132.9,218.8,163.5,189.3,178.2z"/>
	</g>
	<path class="st2" d="M133.5,41.2c8.8,0.8,38.7,5.8,47.1,35.1l0-13.6c0-0.1,1-8.7-5-15.3c-5.1-5.7-13.7-8.6-25.7-8.6
		C143.5,38.7,138,39.5,133.5,41.2z"/>
	<path class="st5" d="M165.1,130.2c-4.5,4.7-10.3,7.5-16.6,7.5c-6.3,0-12.2-2.8-16.7-7.5l-0.1,0l0,12.6c0,0,0,0,0,0
		c3.7,2.5,9.5,5.2,17.6,5.2c7.7,0,12.7-2.9,15.8-5.7V130.2z"/>
	<g>
		<path d="M148.4,138.7c-6.3,0-12.4-2.7-17.2-7.6c-0.1-0.1-0.2-0.1-0.3-0.3l-0.8-1c-0.1-0.1-7.8-9.4-10.7-22.2l-0.2-1l-0.9-0.6
			c-2-1.3-3.1-3.4-3.1-5.7V88c0-1.9,0.8-3.7,2.3-5l0.8-0.7l0-19.5c0-0.3-1.1-8.9,5.1-16c5.3-6,14.2-9,26.5-9c12.3,0,21.2,3,26.5,9
			c6.1,6.9,5.2,15.7,5.2,16.1l0,19.4l0.8,0.7c1.5,1.3,2.3,3.1,2.3,5v12.4c0,2.9-2,5.6-4.8,6.5l-1.2,0.4l-0.4,1.2
			c-2.1,6.5-5.1,12.5-8.9,17.9c-0.9,1.3-1.8,2.5-2.6,3.4l-0.7,0.8c0,0.1-0.1,0.2-0.2,0.3C161,135.9,154.8,138.7,148.4,138.7z
			 M132.3,129.3c0.1,0,0.1,0.1,0.2,0.2c4.5,4.7,10.1,7.2,16,7.2c5.7,0,11.3-2.5,15.8-7c0-0.1,0.1-0.1,0.1-0.2l0.9-1
			c0.8-0.9,1.6-2,2.5-3.2c3.7-5.2,6.6-11,8.6-17.4l0.6-1.7c0.1-0.3,0.3-0.5,0.6-0.6l1.7-0.5c2-0.6,3.4-2.5,3.4-4.6V88
			c0-1.3-0.6-2.6-1.6-3.6l-1.2-1c-0.2-0.2-0.3-0.5-0.3-0.7l0-20c0,0,0-0.1,0-0.1c0-0.3,0.8-8.4-4.7-14.6c-4.9-5.5-13.3-8.3-25-8.3
			c-11.8,0-20.2,2.8-25.1,8.4c-5.6,6.4-4.7,14.4-4.7,14.5l0,0.5l0,19.6c0,0.3-0.1,0.5-0.3,0.7l-1.2,1c-1,0.9-1.6,2.2-1.6,3.6v12.4
			c0,1.6,0.8,3.1,2.2,4l1.2,0.8c0.2,0.1,0.4,0.4,0.4,0.6l0.3,1.4c2.8,12.3,10.2,21.3,10.3,21.4L132.3,129.3z"/>
	</g>
	<g>
		<path d="M150.3,200c-14,0-27.5-2.8-40.2-8.4c-0.3-0.1-0.5-0.4-0.6-0.7c-0.1-0.3,0-0.6,0.2-0.9l8.7-10c0.3-0.3,0.7-0.4,1.1-0.3
			c9.8,3.8,20.1,5.7,30.7,5.7c13,0,25.4-2.8,37.1-8.4c0.4-0.2,0.9-0.1,1.2,0.3l7.6,10.3c0.2,0.2,0.2,0.5,0.2,0.8
			c-0.1,0.3-0.3,0.5-0.5,0.7C181.7,196.3,166.4,200,150.3,200z M112.2,190.3c12.1,5.1,24.9,7.7,38.2,7.7c15.3,0,30-3.4,43.6-10.2
			l-6.4-8.7c-11.7,5.5-24.2,8.3-37.2,8.3c-10.6,0-21-1.9-30.8-5.6L112.2,190.3z"/>
	</g>
	<g>
		<path d="M195.4,189.1c-0.3,0-0.6-0.1-0.8-0.4l-7.6-10.3c-0.2-0.2-0.2-0.5-0.2-0.8c0.1-0.3,0.3-0.5,0.5-0.7
			c29.4-14.2,48.4-44.4,48.4-77c0-6-0.6-12.1-1.9-17.9c-0.1-0.5,0.2-1,0.7-1.1l12-4c0.3-0.1,0.6-0.1,0.8,0.1
			c0.2,0.1,0.4,0.4,0.5,0.6c1.7,7.3,2.5,14.8,2.5,22.3c0,37.7-20.9,71.8-54.4,89C195.7,189.1,195.6,189.1,195.4,189.1z M189.3,178.2
			l6.4,8.6c32.5-17,52.6-50.2,52.6-86.9c0-7-0.7-14-2.2-20.8L236,82.6c1.2,5.7,1.7,11.5,1.7,17.4
			C237.8,132.9,218.8,163.5,189.3,178.2z"/>
	</g>
	<g>
		<path d="M234.9,82.9c-0.2,0-0.3,0-0.5-0.1c-0.2-0.1-0.4-0.4-0.5-0.7c-8.3-39.1-43.5-67.5-83.6-67.5c-17,0-33.5,5-47.6,14.5
			c-0.4,0.3-1,0.2-1.3-0.2l-7.9-9.9c-0.2-0.2-0.2-0.5-0.2-0.8c0-0.3,0.2-0.5,0.4-0.7C110.5,6,130,0,150.3,0
			c22.8,0,45.1,7.9,62.8,22.2c17.4,14.1,29.8,33.8,34.7,55.5c0.1,0.5-0.2,1-0.7,1.2l-12,4C235.1,82.9,235,82.9,234.9,82.9z
			 M150.3,12.6c20.1,0,39.8,7,55.3,19.7c15.1,12.3,25.6,29.4,29.9,48.3l10.1-3.4c-5-21-17-39.9-33.8-53.6C194.5,9.7,172.7,2,150.3,2
			c-19.6,0-38.4,5.7-54.5,16.6l6.6,8.3C116.7,17.5,133.2,12.6,150.3,12.6z"/>
	</g>
	<g>
		<path d="M110.5,191.6c-0.1,0-0.3,0-0.4-0.1c-36.3-16-59.8-51.9-59.8-91.6c0-33,16.2-63.8,43.5-82.5c0.4-0.3,1-0.2,1.3,0.2l7.9,9.9
			c0.2,0.2,0.2,0.5,0.2,0.8c0,0.3-0.2,0.5-0.4,0.7c-23.7,15.9-37.9,42.4-37.9,71c0,17.6,5.3,34.5,15.3,48.9
			c9.8,14.1,23.4,24.7,39.4,30.9c0.3,0.1,0.5,0.4,0.6,0.7c0.1,0.3,0,0.6-0.2,0.9l-8.7,10C111.1,191.5,110.8,191.6,110.5,191.6z
			 M94.2,19.7C67.9,38,52.3,68,52.3,100c0,38.6,22.7,73.7,57.9,89.5l7.3-8.4c-15.7-6.4-29.2-17.1-39-31.1
			c-10.3-14.7-15.7-32-15.7-50c0-28.8,14.1-55.7,37.9-72L94.2,19.7z"/>
	</g>
	<g>
		<path d="M150.3,187.4c-10.8,0-21.4-2-31.4-5.8c-7.2-2.8-14-6.5-20.3-11.1c-0.3-0.2-0.5-0.6-0.4-1l0-0.2c0-0.1,0-0.2,0-0.3
			c0.1-0.3,0.2-0.5,0.5-0.7l24.8-13.4c4.4-2.4,7.2-7.1,7.2-12.1l0-12.6c0-0.3,0.1-0.5,0.3-0.7c0.2-0.2,0.4-0.3,0.7-0.3
			c0.3,0,0.6,0.1,0.8,0.3c4.5,4.6,10.1,7.2,15.9,7.2c5.8,0,11.5-2.5,15.9-7.2c0.3-0.3,0.7-0.4,1.1-0.2c0.4,0.2,0.6,0.5,0.6,0.9v12.9
			c0,5.3,2.9,10,7.6,12.4l27.5,13.8c0.2,0.1,0.4,0.3,0.5,0.6c0.1,0.4,0,0.9-0.3,1.2c-4.1,3-8.5,5.6-13.1,7.8
			C176.4,184.5,163.6,187.4,150.3,187.4z M100.7,169.5c5.9,4.2,12.2,7.6,18.9,10.2c9.8,3.8,20.1,5.7,30.7,5.7
			c13,0,25.4-2.8,37.1-8.4c4-1.9,7.8-4.2,11.5-6.7l-26.1-13c-5.4-2.7-8.7-8.1-8.7-14.1v-10.6c-4.5,4-10,6.2-15.6,6.2
			c-5.7,0-11.2-2.2-15.7-6.2l0,10.4c0,5.8-3.2,11.1-8.2,13.9L100.7,169.5z"/>
	</g>
</g>
</svg>
