<?xml version="1.0" encoding="UTF-8" standalone="no"?>
<!-- Created with Inkscape (http://www.inkscape.org/) -->

<svg
   xmlns:dc="http://purl.org/dc/elements/1.1/"
   xmlns:cc="http://creativecommons.org/ns#"
   xmlns:rdf="http://www.w3.org/1999/02/22-rdf-syntax-ns#"
   xmlns:svg="http://www.w3.org/2000/svg"
   xmlns="http://www.w3.org/2000/svg"
   xmlns:xlink="http://www.w3.org/1999/xlink"
   xmlns:sodipodi="http://sodipodi.sourceforge.net/DTD/sodipodi-0.dtd"
   xmlns:inkscape="http://www.inkscape.org/namespaces/inkscape"
   width="300"
   height="200"
   viewBox="0 0 79.374998 52.916668"
   version="1.1"
   id="svg8"
   sodipodi:docname="user-domains.svg"
   inkscape:version="0.92.3 (2405546, 2018-03-11)">
  <defs
     id="defs2">
    <pattern
       inkscape:collect="always"
       xlink:href="#Checkerboard"
       id="pattern5419"
       patternTransform="matrix(-0.68951853,2.0444007,-2.3303935,-0.78597583,11.575521,291.04166)" />
    <pattern
       inkscape:isstock="true"
       inkscape:stockid="Checkerboard"
       id="Checkerboard"
       patternTransform="translate(0,0) scale(10,10)"
       height="2"
       width="2"
       patternUnits="userSpaceOnUse"
       inkscape:collect="always">
      <rect
         id="rect4644"
         height="1"
         width="1"
         y="0"
         x="0"
         style="fill:black;stroke:none" />
      <rect
         id="rect4646"
         height="1"
         width="1"
         y="1"
         x="1"
         style="fill:black;stroke:none" />
    </pattern>
    <inkscape:perspective
       sodipodi:type="inkscape:persp3d"
       inkscape:vp_x="0 : 26.458334 : 1"
       inkscape:vp_y="0 : 1000 : 0"
       inkscape:vp_z="79.374998 : 26.458334 : 1"
       inkscape:persp3d-origin="39.687499 : 17.638889 : 1"
       id="perspective929" />
    <clipPath
       clipPathUnits="userSpaceOnUse"
       id="clipPath8857">
      <rect
         style="opacity:1;fill:#637792;fill-opacity:1;fill-rule:nonzero;stroke:none;stroke-width:0.60000002;stroke-linecap:round;stroke-linejoin:round;stroke-miterlimit:4;stroke-dasharray:none;stroke-opacity:1"
         id="rect8859"
         width="45.120911"
         height="26.552826"
         x="27.119791"
         y="255.56435" />
    </clipPath>
  </defs>
  <sodipodi:namedview
     id="base"
     pagecolor="#ffffff"
     bordercolor="#666666"
     borderopacity="1.0"
     inkscape:pageopacity="0.0"
     inkscape:pageshadow="2"
     inkscape:zoom="2.5600001"
     inkscape:cx="105.37981"
     inkscape:cy="25.246669"
     inkscape:document-units="mm"
     inkscape:current-layer="layer1"
     showgrid="false"
     units="px"
     inkscape:measure-start="260.872,98.995"
     inkscape:measure-end="260.872,122.228"
     showguides="true"
     inkscape:guide-bbox="true"
     inkscape:window-width="1920"
     inkscape:window-height="1043"
     inkscape:window-x="0"
     inkscape:window-y="1080"
     inkscape:window-maximized="1"
     inkscape:snap-global="false" />
  <metadata
     id="metadata5">
    <rdf:RDF>
      <cc:Work
         rdf:about="">
        <dc:format>image/svg+xml</dc:format>
        <dc:type
           rdf:resource="http://purl.org/dc/dcmitype/StillImage" />
        <dc:title />
      </cc:Work>
    </rdf:RDF>
  </metadata>
  <g
     inkscape:label="Layer 1"
     inkscape:groupmode="layer"
     id="layer1"
     transform="translate(0,-244.08332)">
    <g
       style="stroke:#000000;stroke-width:0.19799399;stroke-miterlimit:4;stroke-dasharray:none"
       id="g3763"
       transform="matrix(3.030395,0,0,3.030395,-9.4211345,-500.00583)">
      <g
         style="stroke:#000000;stroke-width:0.19799399;stroke-miterlimit:4;stroke-dasharray:none"
         id="g3739">
        <path
           style="opacity:1;fill:#9ec73c;fill-opacity:1;fill-rule:nonzero;stroke:#000000;stroke-width:0.19799399;stroke-linecap:round;stroke-linejoin:round;stroke-miterlimit:4;stroke-dasharray:none;stroke-opacity:1"
           id="path3703"
           sodipodi:type="arc"
           sodipodi:cx="15.694117"
           sodipodi:cy="251.56693"
           sodipodi:rx="2.6992078"
           sodipodi:ry="2.6992078"
           sodipodi:start="2.8258975"
           sodipodi:end="2.8219531"
           sodipodi:open="true"
           d="m 13.128302,252.40497 a 2.6992078,2.6992078 0 0 1 1.725242,-3.40303 2.6992078,2.6992078 0 0 1 3.40473,1.72188 2.6992078,2.6992078 0 0 1 -1.718528,3.40643 2.6992078,2.6992078 0 0 1 -3.408119,-1.71517" />
        <path
           style="opacity:1;fill:#9ec73c;fill-opacity:1;fill-rule:nonzero;stroke:#000000;stroke-width:0.19799399;stroke-linecap:round;stroke-linejoin:round;stroke-miterlimit:4;stroke-dasharray:none;stroke-opacity:1"
           d="m 12.10097,255.27751 1.62261,-0.33409 c 0.678082,0.72878 1.335218,0.71457 1.972912,0.77791 0.637695,0.0634 1.45622,-0.1525 1.968164,-0.77217 l 1.772458,0.30641 c 0.937521,0.23641 0.873374,0.72863 0.855195,3.40751 l -8.953024,-0.0277 c 0.01695,-2.85817 -0.214096,-3.08554 0.761685,-3.35789 z"
           id="rect3705"
           inkscape:connector-curvature="0"
           sodipodi:nodetypes="cczccccc" />
        <path
           style="opacity:1;fill:#ffffff;fill-opacity:1;fill-rule:nonzero;stroke:none;stroke-width:0.19799399;stroke-linecap:round;stroke-linejoin:round;stroke-miterlimit:4;stroke-dasharray:none;stroke-opacity:1"
           d="m 13.40368,252.43364 c -0.462515,-1.41607 0.305425,-2.66343 1.741308,-3.2216 l 0.207998,0.57992 c -1.295951,0.56558 -1.583435,1.31739 -1.419929,2.35896 l -0.526051,0.29283"
           id="path3703-5"
           inkscape:connector-curvature="0"
           sodipodi:nodetypes="ccccc" />
      </g>
    </g>
    <path
       style="fill:#637792;stroke:#000000;stroke-width:0.26458332px;stroke-linecap:butt;stroke-linejoin:miter;stroke-opacity:1"
       d="m 25.796875,255.32811 c -4.506473,4.80931 -9.445924,9.08487 -6.99256,21.35566 2.165817,5.74218 5.312018,11.07206 15.178844,14.31141 l -1.477208,4.68189 c -13.074886,-4.49001 -15.51029,-10.52757 -18.142856,-16.53646 -3.984454,-13.74583 2.82667,-22.97122 8.787946,-28.15922 z"
       id="path3845"
       inkscape:connector-curvature="0"
       sodipodi:nodetypes="ccccccc" />
    <path
       style="fill:#22b9d8;stroke:#000000;stroke-width:0.26458332px;stroke-linecap:butt;stroke-linejoin:miter;stroke-opacity:1"
       d="m 29.104166,247.48511 2.362351,4.25223 c 6.524361,-1.32025 12.85048,-3.39098 22.017114,5.29166 4.099068,4.40972 5.254265,8.81945 5.480653,13.22917 l 4.819198,-0.47247 c -0.252567,-5.82842 -2.724511,-11.56437 -7.654018,-17.19792 -10.436833,-8.24772 -18.89897,-7.44476 -27.025298,-5.10267 z"
       id="path3847"
       inkscape:connector-curvature="0"
       sodipodi:nodetypes="ccccccc" />
    <path
       style="fill:#9ec73c;stroke:#000000;stroke-width:0.26458332px;stroke-linecap:butt;stroke-linejoin:miter;stroke-opacity:1"
       d="m 58.869791,273.84894 4.630208,0.66146 c -0.524568,5.69993 -3.094883,9.93861 -6.331101,13.70164 l -3.792331,-2.82597 c 2.958407,-3.76641 4.702734,-7.55639 5.493224,-11.53713 z"
       id="path3849"
       inkscape:connector-curvature="0"
       sodipodi:nodetypes="ccccc" />
    <path
       style="fill:url(#pattern5419);fill-opacity:1;stroke:#000000;stroke-width:0.26458332px;stroke-linecap:butt;stroke-linejoin:miter;stroke-opacity:1"
       d="m 51.383349,286.91938 2.675366,4.17842 c -4.91496,4.58314 -13.575286,6.41163 -19.284906,5.05174 l 1.135406,-4.69 c 7.162257,0.33045 10.629668,-0.62083 15.474134,-4.54016 z"
       id="path3851"
       inkscape:connector-curvature="0"
       sodipodi:nodetypes="ccccc" />
  </g>
</svg>
