<?xml version="1.0" encoding="UTF-8" standalone="no"?>
<!-- Generator: Adobe Illustrator 24.3.0, SVG Export Plug-In . SVG Version: 6.00 Build 0)  -->

<svg
   xmlns:dc="http://purl.org/dc/elements/1.1/"
   xmlns:cc="http://creativecommons.org/ns#"
   xmlns:rdf="http://www.w3.org/1999/02/22-rdf-syntax-ns#"
   xmlns:svg="http://www.w3.org/2000/svg"
   xmlns="http://www.w3.org/2000/svg"
   xmlns:sodipodi="http://sodipodi.sourceforge.net/DTD/sodipodi-0.dtd"
   xmlns:inkscape="http://www.inkscape.org/namespaces/inkscape"
   version="1.1"
   id="Capa_1"
   x="0px"
   y="0px"
   viewBox="0 0 300 200"
   style="enable-background:new 0 0 300 200;"
   xml:space="preserve"
   sodipodi:docname="users.svg"
   inkscape:version="0.92.5 (2060ec1f9f, 2020-04-08)"><metadata
   id="metadata20741"><rdf:RDF><cc:Work
       rdf:about=""><dc:format>image/svg+xml</dc:format><dc:type
         rdf:resource="http://purl.org/dc/dcmitype/StillImage" /></cc:Work></rdf:RDF></metadata><defs
   id="defs20739">
	
	
	
	
</defs><sodipodi:namedview
   pagecolor="#ffffff"
   bordercolor="#666666"
   borderopacity="1"
   objecttolerance="10"
   gridtolerance="10"
   guidetolerance="10"
   inkscape:pageopacity="0"
   inkscape:pageshadow="2"
   inkscape:window-width="1920"
   inkscape:window-height="1016"
   id="namedview20737"
   showgrid="false"
   inkscape:zoom="2.22"
   inkscape:cx="150"
   inkscape:cy="100"
   inkscape:window-x="0"
   inkscape:window-y="27"
   inkscape:window-maximized="1"
   inkscape:current-layer="Capa_1"
   inkscape:pagecheckerboard="true" />
<style
   type="text/css"
   id="style20720">
	.st0{fill:#5F7993;}
	.st1{fill:#17B5C8;}
	.st2{fill:#11828F;}
	.st3{fill:#405162;}
	.st4{fill:#A6D100;}
	.st5{fill:#89AB00;}
	.st6{fill:#FFFFFF;}
	.st7{fill:none;stroke:#17B5C8;stroke-width:2;stroke-miterlimit:10;}
</style>
<path
   style="fill:#17b5c8"
   inkscape:connector-curvature="0"
   id="path20722"
   d="m 233.7,164.6 c -23.7,21.6 -52.9,34.3 -84.5,34.3 -30.8,0 -59.4,-12.1 -82.8,-32.8 5.1,-29.9 22.4,-55.3 46.3,-70.3 10.2,7.7 22.8,12.3 36.5,12.3 14.1,0 27.1,-4.8 37.4,-12.9 24,14.6 41.6,39.7 47.1,69.4 z"
   class="st1" /><path
   style="fill:#11828f"
   inkscape:connector-curvature="0"
   id="path20724"
   d="m 152.2,125.7 c 29.4,0 45.8,-11.7 51.8,-17.1 -5.3,-5.2 -11.1,-9.7 -17.4,-13.6 -10.3,8.1 -23.3,12.9 -37.4,12.9 -13.7,0 -26.4,-4.6 -36.5,-12.3 -6.1,3.9 -11.8,8.4 -17,13.5 5.8,4.4 25,16.6 56.5,16.6 z"
   class="st2" /><g
   id="g20728">
		<path
   inkscape:connector-curvature="0"
   id="path20726"
   d="m 149.2,200 c -30.1,0 -59,-11.4 -83.5,-33.1 -0.3,-0.3 -0.4,-0.6 -0.4,-1 5.1,-29.6 22.1,-55.5 46.8,-71.1 0.4,-0.2 0.9,-0.2 1.2,0.1 10.4,7.9 22.8,12 35.8,12 13.5,0 26.2,-4.4 36.7,-12.7 0.4,-0.3 0.9,-0.3 1.2,-0.1 24.8,15.2 42.2,40.8 47.6,70.2 0.1,0.4 -0.1,0.8 -0.3,1 C 209.5,188 180,200 149.2,200 Z M 67.5,165.7 c 24,21 52.2,32.1 81.6,32.1 30.1,0 58.9,-11.6 83.3,-33.6 -5.4,-28.4 -22.1,-53 -45.9,-67.8 -10.8,8.3 -23.8,12.7 -37.5,12.7 -13.3,0 -25.9,-4.2 -36.6,-12 -23.5,15.1 -39.8,40.1 -44.9,68.6 z" />
	</g>
<ellipse
   ry="47.561447"
   rx="45.726276"
   cy="48.648647"
   cx="149.07802"
   id="path20590-2"
   style="opacity:1;fill:#ffffff;fill-opacity:1;fill-rule:nonzero;stroke:#000000;stroke-width:3.05187058;stroke-linecap:round;stroke-linejoin:round;stroke-miterlimit:4;stroke-dasharray:none;stroke-dashoffset:0;stroke-opacity:1" /></svg>