<?xml version="1.0" encoding="utf-8"?>
<!-- Generator: Adobe Illustrator 24.3.0, SVG Export Plug-In . SVG Version: 6.00 Build 0)  -->
<svg version="1.1" id="Capa_1" xmlns="http://www.w3.org/2000/svg" xmlns:xlink="http://www.w3.org/1999/xlink" x="0px" y="0px"
	 viewBox="0 0 300 200" style="enable-background:new 0 0 300 200;" xml:space="preserve">
<style type="text/css">
	.st0{fill:#5F7993;}
	.st1{fill:#17B5C8;}
	.st2{fill:#11828F;}
	.st3{fill:#405162;}
	.st4{fill:#A6D100;}
	.st5{fill:#89AB00;}
	.st6{fill:#FFFFFF;}
	.st7{fill:none;stroke:#17B5C8;stroke-width:2;stroke-miterlimit:10;}
</style>
<g>
	<path class="st1" d="M279.5,168.6H32.7c-6.7,0-12.2-5.5-12.2-12.2V13.2C20.5,6.5,25.9,1,32.7,1h234.7c6.7,0,12.2,5.5,12.2,12.2
		V168.6z"/>
	<path class="st2" d="M28.5,158c0,0,0-114,0-134.5c0-20.5,7.9-21.2,7.9-21.2L31.7,1c-0.8,0.1-1.5,0.2-2.2,0.4L25,3.7
		c-2.8,2.3-4.6,5.7-4.6,9.6v143.1c0,5.2,3.2,9.6,7.8,11.4h10.1C29.7,167.8,28.5,158,28.5,158z"/>
	<rect x="37" y="15.1" class="st0" width="228.1" height="139.7"/>
	<path class="st3" d="M56.1,132.6c0,0,0-50.5,0-82.5c0-32,10.7-33.5,10.7-33.5l-29.6-0.3v137.8h40.4
		C54.9,154.2,56.1,132.6,56.1,132.6z"/>
	<g>
		<path d="M279.5,169.6h-247c-7.2,0-13.1-5.9-13.1-13.1V13.1C19.5,5.9,25.3,0,32.5,0h234.9c7.2,0,13.1,5.9,13.1,13.1v155.6
			C280.5,169.2,280.1,169.6,279.5,169.6z M32.5,2c-6.1,0-11.1,5-11.1,11.1v143.5c0,6.1,5,11.1,11.1,11.1h246V13.1
			c0-6.1-5-11.1-11.1-11.1H32.5z"/>
	</g>
	<g>
		<path d="M264.9,155.5H36.8c-0.5,0-1-0.4-1-1V16.2c0-0.5,0.4-1,1-1h228.1c0.5,0,1,0.4,1,1v138.3
			C265.9,155.1,265.4,155.5,264.9,155.5z M37.8,153.6h226.1V17.2H37.8V153.6z"/>
	</g>
	<g>
		<rect x="227.2" y="37.4" class="st6" width="37.7" height="19.6"/>
		<path d="M264.9,57.9h-37.7c-0.5,0-1-0.4-1-1V37.4c0-0.5,0.4-1,1-1h37.7c0.5,0,1,0.4,1,1V57C265.9,57.5,265.4,57.9,264.9,57.9z
			 M228.2,56h35.7V38.3h-35.7V56z"/>
	</g>
	<g>
		<rect x="227.2" y="112" class="st6" width="37.7" height="19.6"/>
		<path d="M264.9,132.6h-37.7c-0.5,0-1-0.4-1-1V112c0-0.5,0.4-1,1-1h37.7c0.5,0,1,0.4,1,1v19.6C265.9,132.2,265.4,132.6,264.9,132.6
			z M228.2,130.6h35.7V113h-35.7V130.6z"/>
	</g>
	<rect x="124.7" y="34.5" class="st4" width="17" height="99.2"/>
	<rect x="134.3" y="116" class="st5" width="6.6" height="17.2"/>
	<rect x="124.7" y="34.9" class="st5" width="8.6" height="21.7"/>
	<g>
		<path d="M141.7,134.7h-17c-0.5,0-1-0.4-1-1V34.5c0-0.5,0.4-1,1-1h17c0.5,0,1,0.4,1,1v99.2C142.6,134.3,142.2,134.7,141.7,134.7z
			 M125.7,132.7h15V35.5h-15V132.7z"/>
	</g>
	
		<rect x="124.7" y="34.5" transform="matrix(6.123234e-17 -1 1 6.123234e-17 49.0462 217.3053)" class="st4" width="17" height="99.2"/>
	<rect x="161.9" y="75.8" class="st5" width="20.5" height="8.5"/>
	<rect x="83.7" y="84.1" class="st5" width="18.7" height="8.5"/>
	<g>
		<path d="M182.8,93.6H83.6c-0.5,0-1-0.4-1-1v-17c0-0.5,0.4-1,1-1h99.2c0.5,0,1,0.4,1,1v17C183.8,93.2,183.3,93.6,182.8,93.6z
			 M84.6,91.6h97.2v-15H84.6V91.6z"/>
	</g>
	
		<rect x="124.7" y="34.5" transform="matrix(0.7071 0.7071 -0.7071 0.7071 98.4949 -69.5285)" class="st4" width="17" height="99.2"/>
	<polygon class="st5" points="168.2,49.1 162.2,43.3 146.9,58.9 152.9,64.5 	"/>
	<polygon class="st5" points="116.9,112.4 110.2,106.8 98.2,119.1 104,124.6 112,117.3 	"/>
	<g>
		<path d="M104.1,126.2c-0.3,0-0.5-0.1-0.7-0.3l-12-12c-0.4-0.4-0.4-1,0-1.4l70.1-70.1c0.4-0.4,1-0.4,1.4,0l12,12
			c0.2,0.2,0.3,0.4,0.3,0.7s-0.1,0.5-0.3,0.7l-70.1,70.1C104.6,126.1,104.4,126.2,104.1,126.2z M93.5,113.2l10.6,10.6l68.7-68.7
			l-10.6-10.6L93.5,113.2z"/>
	</g>
	
		<rect x="124.7" y="34.5" transform="matrix(0.7071 -0.7071 0.7071 0.7071 -20.4823 118.8105)" class="st4" width="17" height="99.2"/>
	<polygon class="st5" points="93.6,53.6 92.2,55.2 106.4,69.4 113.2,63.3 98.2,49 	"/>
	<polygon class="st5" points="173.9,112.8 160.2,99.2 154.4,105.9 168,119.2 	"/>
	<g>
		<path d="M162.3,126.2c-0.3,0-0.5-0.1-0.7-0.3L91.4,55.8c-0.4-0.4-0.4-1,0-1.4l12-12c0.4-0.4,1-0.4,1.4,0l70.1,70.1
			c0.2,0.2,0.3,0.4,0.3,0.7c0,0.3-0.1,0.5-0.3,0.7l-12,12C162.8,126.1,162.5,126.2,162.3,126.2z M93.5,55.1l68.7,68.7l10.6-10.6
			l-68.7-68.7L93.5,55.1z"/>
	</g>
	<circle class="st4" cx="132.6" cy="86.1" r="30.3"/>
	<path class="st5" d="M102.3,86.1c0,7.3,2.6,14,6.9,19.2c7,5.9,15.6,6.9,15.6,6.9c-4.8-5.6-13.5-11.4-14.5-24.6
		c-1.2-14.4,14.5-29.8,14.5-29.8c-0.5-0.3-1.2-0.4-2.2-0.3C110.8,61.6,102.3,72.9,102.3,86.1z"/>
	<g>
		<path d="M132.6,117.4c-17.3,0-31.3-14-31.3-31.3s14-31.3,31.3-31.3s31.3,14,31.3,31.3S149.9,117.4,132.6,117.4z M132.6,56.8
			c-16.2,0-29.3,13.1-29.3,29.3s13.1,29.3,29.3,29.3s29.3-13.1,29.3-29.3S148.8,56.8,132.6,56.8z"/>
	</g>
	<g>
		<circle class="st6" cx="133" cy="85" r="10.8"/>
		<path d="M133,96.8c-6.5,0-11.8-5.3-11.8-11.8s5.3-11.8,11.8-11.8s11.8,5.3,11.8,11.8S139.5,96.8,133,96.8z M133,75.2
			c-5.4,0-9.8,4.4-9.8,9.8s4.4,9.8,9.8,9.8c5.4,0,9.8-4.4,9.8-9.8S138.4,75.2,133,75.2z"/>
	</g>
	<g>
		<path d="M70.1,200H47.3c-6.8,0-12.3-5.5-12.3-12.3v-18.8c0-0.5,0.4-1,1-1h45.4c0.5,0,1,0.4,1,1v18.8C82.4,194.5,76.9,200,70.1,200
			z M37,169.9v17.8c0,5.7,4.6,10.4,10.4,10.4h22.7c5.7,0,10.4-4.6,10.4-10.4v-17.8H37z"/>
	</g>
	<g>
		<path d="M255,200h-22.7c-6.8,0-12.3-5.5-12.3-12.3v-18.8c0-0.5,0.4-1,1-1h45.4c0.5,0,1,0.4,1,1v18.8
			C267.3,194.5,261.8,200,255,200z M221.9,169.9v17.8c0,5.7,4.6,10.4,10.4,10.4H255c5.7,0,10.4-4.6,10.4-10.4v-17.8H221.9z"/>
	</g>
</g>
</svg>
