<?xml version="1.0" encoding="UTF-8" standalone="no"?>
<!-- Generator: Adobe Illustrator 24.3.0, SVG Export Plug-In . SVG Version: 6.00 Build 0)  -->

<svg
   version="1.1"
   id="Capa_1"
   x="0px"
   y="0px"
   viewBox="0 0 300 200"
   style="enable-background:new 0 0 300 200;"
   xml:space="preserve"
   sodipodi:docname="wheel.svg"
   inkscape:version="1.1.2 (0a00cf5339, 2022-02-04)"
   xmlns:inkscape="http://www.inkscape.org/namespaces/inkscape"
   xmlns:sodipodi="http://sodipodi.sourceforge.net/DTD/sodipodi-0.dtd"
   xmlns="http://www.w3.org/2000/svg"
   xmlns:svg="http://www.w3.org/2000/svg"><defs
   id="defs5716"><filter
     id="drop-shadow-1"
     filterUnits="userSpaceOnUse"><feOffset
       dx="2.16"
       dy="2.16"
       id="feOffset826" /><feGaussianBlur
       result="blur"
       stdDeviation="5.39"
       id="feGaussianBlur828" /><feFlood
       flood-color="#010b26"
       flood-opacity=".25"
       id="feFlood830" /><feComposite
       in2="blur"
       operator="in"
       id="feComposite832"
       result="result1" /><feComposite
       in="SourceGraphic"
       in2="result1"
       id="feComposite834" /></filter></defs><sodipodi:namedview
   id="namedview5714"
   pagecolor="#ffffff"
   bordercolor="#666666"
   borderopacity="1.0"
   inkscape:pageshadow="2"
   inkscape:pageopacity="0.0"
   inkscape:pagecheckerboard="0"
   showgrid="false"
   inkscape:zoom="3.595"
   inkscape:cx="129.76356"
   inkscape:cy="97.496523"
   inkscape:window-width="1920"
   inkscape:window-height="1011"
   inkscape:window-x="0"
   inkscape:window-y="32"
   inkscape:window-maximized="1"
   inkscape:current-layer="Capa_1" />
<style
   type="text/css"
   id="style5651">
	.st0{fill:#5F7993;}
	.st1{fill:#17B5C8;}
	.st2{fill:#11828F;}
	.st3{fill:#405162;}
	.st4{fill:#A6D100;}
	.st5{fill:#89AB00;}
	.st6{fill:#FFFFFF;}
	.st7{fill:none;stroke:#17B5C8;stroke-width:2;stroke-miterlimit:10;}
</style>

<g
   id="g12657"
   transform="matrix(0.94261111,0,0,0.94261111,8.9898233,5.7482195)"><ellipse
     style="fill:#ffffff;stroke:#000000;stroke-width:1.65105;stroke-linecap:square;stroke-miterlimit:4;stroke-dasharray:none"
     id="path12101"
     ry="98.857841"
     rx="98.847549"
     cy="100.16259"
     cx="156.64746" /><path
     class="cls-33"
     d="m 96.210054,74.179871 c 3.220553,-7.516673 7.802456,-14.31118 13.435356,-20.076215 L 86.87106,31.332378 c -8.598384,8.7336 -15.571129,19.065183 -20.426543,30.518429 z"
     id="path839"
     style="fill:#a6d100;stroke-width:0.307305" /><path
     class="cls-33"
     d="m 110.73019,53.018871 c 5.76504,-5.632896 12.55955,-10.214808 20.07623,-13.435362 L 118.47735,9.8179776 C 107.0241,14.673391 96.692515,21.649207 87.95892,30.24452 l 22.77127,22.771277 z"
     id="path841"
     style="fill:#a6d100;stroke-width:0.307305" /><path
     class="cls-33"
     d="m 90.927483,99.292811 c 0.09527,-8.367907 1.751636,-16.357829 4.695613,-23.696265 L 65.860638,63.270555 c -4.514305,11.136722 -7.04035,23.290623 -7.138688,36.022256 z"
     id="path843"
     style="fill:#a6d100;stroke-width:0.307305" /><path
     class="cls-35"
     d="m 182.57189,39.583509 c 7.51667,3.220554 14.31117,7.802466 20.07621,13.435362 L 225.41938,30.247593 C 216.68578,21.649207 206.35419,14.676464 194.90095,9.8210506 L 182.57189,39.586582 Z"
     id="path845"
     style="fill:#17b5c8;stroke-width:0.307305" /><path
     class="cls-35"
     d="m 226.50417,31.332378 -22.77129,22.771278 c 5.6329,5.765035 10.21482,12.559542 13.43537,20.076215 L 246.93378,61.850807 C 242.07837,50.397561 235.10255,40.065978 226.50724,31.332378 Z"
     id="path847"
     style="fill:#17b5c8;stroke-width:0.307305" /><path
     class="cls-33"
     d="m 132.22616,38.993484 c 7.33844,-2.940905 15.32836,-4.597278 23.69627,-4.695616 V 2.0954108 c -12.73164,0.098337 -24.88554,2.6243819 -36.02226,7.1386878 z"
     id="path849"
     style="fill:#a6d100;stroke-width:0.307305" /><path
     class="cls-35"
     d="m 157.45588,34.300941 c 8.36791,0.09527 16.35783,1.751638 23.69626,4.695616 L 193.47813,9.2371717 C 182.34141,4.7197927 170.19058,2.1937482 157.45588,2.0954108 Z"
     id="path851"
     style="fill:#17b5c8;stroke-width:0.307305" /><path
     class="cls-32"
     d="m 95.620029,124.52557 c -2.94091,-7.33843 -4.597281,-15.32835 -4.695619,-23.69624 H 58.72195 c 0.09834,12.73162 2.624384,24.88551 7.138688,36.02223 z"
     id="path853"
     style="fill:#fba6ab;stroke-width:0.307305" /><path
     class="cls-34"
     d="m 217.16825,125.94532 c -3.22055,7.51667 -7.80247,14.31118 -13.43537,20.07622 l 22.77129,22.77128 c 8.59838,-8.73361 15.57113,-19.06518 20.42654,-30.51843 l -29.76553,-12.32907 z"
     id="path855"
     style="fill:#5f7993;stroke-width:0.307305" /><path
     class="cls-34"
     d="m 222.45082,100.82933 c -0.0952,8.36789 -1.75164,16.35781 -4.69562,23.69624 l 29.75939,12.32599 c 4.5143,-11.13672 7.04035,-23.28755 7.13869,-36.02223 h -32.20553 z"
     id="path857"
     style="fill:#5f7993;stroke-width:0.307305" /><path
     class="cls-35"
     d="m 217.7552,75.599619 c 2.94091,7.338436 4.59728,15.328358 4.69255,23.696265 h 32.20553 c -0.0983,-12.731633 -2.62439,-24.885534 -7.13869,-36.022256 z"
     id="path859"
     style="fill:#17b5c8;stroke-width:0.307305" /><path
     class="cls-34"
     d="m 202.64503,147.10633 c -5.76503,5.63288 -12.55647,10.2148 -20.07622,13.43535 l 12.32907,29.76553 c 11.45325,-4.85541 21.78483,-11.83122 30.51843,-20.42654 l -22.77128,-22.77128 z"
     id="path861"
     style="fill:#5f7993;stroke-width:0.307305" /><path
     class="cls-32"
     d="m 155.91935,165.82425 c -8.36791,-0.0952 -16.35783,-1.75163 -23.69626,-4.69562 l -12.32599,29.75939 c 11.13672,4.51431 23.28755,7.04035 36.02225,7.13869 v -32.20553 z"
     id="path863"
     style="fill:#fba6ab;stroke-width:0.307305" /><path
     class="cls-32"
     d="m 130.80642,160.54168 c -7.51668,-3.22055 -14.31119,-7.80247 -20.07623,-13.43535 L 87.95892,169.8776 c 8.733595,8.59839 19.06518,15.57113 30.51843,20.42655 l 12.32907,-29.76554 z"
     id="path865"
     style="fill:#fba6ab;stroke-width:0.307305" /><path
     class="cls-32"
     d="m 109.64541,146.01847 c -5.6329,-5.76504 -10.214803,-12.55648 -13.435356,-20.07622 l -29.765537,12.32906 c 4.855414,11.45325 11.831231,21.78484 20.426543,30.51843 l 22.77128,-22.77127 z"
     id="path867"
     style="fill:#fba6ab;stroke-width:0.307305" /><path
     class="cls-34"
     d="m 181.15214,161.12863 c -7.33843,2.94091 -15.32835,4.59729 -23.69626,4.69562 v 32.20553 c 12.73163,-0.0983 24.88553,-2.62438 36.02225,-7.13868 l -12.32599,-29.75939 z"
     id="path869"
     style="fill:#5f7993;stroke-width:0.307305" /><text
     class="cls-2"
     id="text883"
     style="font-size:9.33899px;font-family:Mukta-SemiBold, Mukta;fill:#a6d100;stroke-width:0.307305"
     x="124.06107"
     y="56.313179"><tspan
       x="124.06107"
       y="56.313179"
       id="tspan881"
       style="fill:#a6d100;stroke-width:0.307305">AM</tspan></text><path
     class="cls-9"
     d="m 135.39755,64.960731 h -5.53456 c -0.38106,-1.014106 -1.35215,-1.739344 -2.49839,-1.739344 -1.47813,0 -2.67662,1.198487 -2.67662,2.676623 0,1.478135 1.19849,2.676624 2.67662,2.676624 1.13396,0 2.09582,-0.706801 2.48917,-1.702469 h 2.16649 v 1.404383 h 1.53038 v -1.404383 h 1.84998 v 1.404383 h 1.53037 v -3.315817 h -1.53037 z m -7.97149,1.902216 c -0.53164,0 -0.96494,-0.430227 -0.96494,-0.964937 0,-0.534711 0.43023,-0.964936 0.96494,-0.964936 0.53471,0 0.96494,0.430225 0.96494,0.964936 0,0.53471 -0.43023,0.964937 -0.96494,0.964937 z"
     id="path885"
     style="fill:#a6d100;stroke-width:0.307305" /><text
     class="cls-10"
     id="text909"
     style="font-size:4.67718px;font-family:Mukta-Regular, Mukta;fill:#a6d100;stroke-width:0.307305"
     x="108.30556"
     y="79.440948"><tspan
       class="cls-24"
       x="108.30556"
       y="79.440948"
       id="tspan887"
       style="fill:#a6d100;stroke-width:0.307305">A</tspan><tspan
       class="cls-45"
       x="110.9699"
       y="79.440948"
       id="tspan889"
       style="fill:#a6d100;stroke-width:0.307305">C</tspan><tspan
       class="cls-57"
       x="113.46828"
       y="79.440948"
       id="tspan891"
       style="fill:#a6d100;stroke-width:0.307305">C</tspan><tspan
       x="116.03427"
       y="79.440948"
       id="tspan893"
       style="fill:#a6d100;stroke-width:0.307305">E</tspan><tspan
       class="cls-55"
       x="118.37901"
       y="79.440948"
       id="tspan895"
       style="fill:#a6d100;stroke-width:0.307305">S</tspan><tspan
       x="120.66843"
       y="79.440948"
       id="tspan897"
       style="fill:#a6d100;stroke-width:0.307305">S MAN</tspan><tspan
       class="cls-36"
       x="133.76268"
       y="79.440948"
       id="tspan899"
       style="fill:#a6d100;stroke-width:0.307305">A</tspan><tspan
       x="136.4516"
       y="79.440948"
       id="tspan901"
       style="fill:#a6d100;stroke-width:0.307305">GEMENT</tspan><tspan
       x="124.81705"
       y="85.052338"
       id="tspan903"
       style="fill:#a6d100;stroke-width:0.307305">&amp;</tspan><tspan
       class="cls-36"
       x="128.93185"
       y="85.052338"
       id="tspan905"
       style="fill:#a6d100;stroke-width:0.307305">S</tspan><tspan
       x="131.22435"
       y="85.052338"
       id="tspan907"
       style="fill:#a6d100;stroke-width:0.307305">SO</tspan></text><path
     class="cls-15"
     d="m 184.53556,61.254636 h 1.21386 v -1.213854 h -1.21386 z m 3.786,-0.248917 h -1.87149 v 0.952645 h -2.61823 v -0.952645 h -1.87149 c -0.6269,0 -1.13702,0.510126 -1.13702,1.137027 v 8.472391 c 0,0.626901 0.51012,1.137027 1.13702,1.137027 h 6.35814 c 0.62689,0 1.13702,-0.510126 1.13702,-1.137027 v -8.472391 c 0,-0.626901 -0.51013,-1.137027 -1.13702,-1.137027 z m -3.17754,2.203375 c 0.51936,0 0.94036,0.421008 0.94036,0.940352 0,0.519345 -0.421,0.940353 -0.94036,0.940353 -0.51934,0 -0.94034,-0.421008 -0.94034,-0.940353 0,-0.519344 0.421,-0.940352 0.94034,-0.940352 z m 0,2.295566 c 0.89734,0 1.65331,0.743677 1.86535,1.751636 h -3.72761 c 0.21205,-1.007959 0.96494,-1.751636 1.86226,-1.751636 z m 1.6656,3.484835 v 0.703728 h -3.32811 v -0.703728 z m 1.25073,1.742417 h -5.82957 v -0.703727 h 5.82957 z"
     id="path911"
     style="fill:#17b5c8;stroke-width:0.307305" /><text
     class="cls-4"
     id="text915"
     style="font-size:9.33899px;font-family:Mukta-SemiBold, Mukta;fill:#17b5c8;stroke-width:0.307305"
     x="178.07909"
     y="56.313179"><tspan
       x="178.07909"
       y="56.313179"
       id="tspan913"
       style="fill:#17b5c8;stroke-width:0.307305">IGA</tspan></text><text
     class="cls-16"
     id="text941"
     style="font-size:4.67718px;font-family:Mukta-Regular, Mukta;fill:#17b5c8;stroke-width:0.307305"
     x="161.82268"
     y="79.311882"><tspan
       x="161.82268"
       y="79.311882"
       id="tspan917"
       style="fill:#17b5c8;stroke-width:0.307305">IDENTI</tspan><tspan
       class="cls-22"
       x="174.99991"
       y="79.311882"
       id="tspan919"
       style="fill:#17b5c8;stroke-width:0.307305">T</tspan><tspan
       x="177.45834"
       y="79.311882"
       id="tspan921"
       style="fill:#17b5c8;stroke-width:0.307305">Y G</tspan><tspan
       class="cls-30"
       x="183.83183"
       y="79.311882"
       id="tspan923"
       style="fill:#17b5c8;stroke-width:0.307305">O</tspan><tspan
       x="186.96942"
       y="79.311882"
       id="tspan925"
       style="fill:#17b5c8;stroke-width:0.307305">VERNAN</tspan><tspan
       class="cls-19"
       x="203.55157"
       y="79.311882"
       id="tspan927"
       style="fill:#17b5c8;stroke-width:0.307305">C</tspan><tspan
       x="206.11757"
       y="79.311882"
       id="tspan929"
       style="fill:#17b5c8;stroke-width:0.307305">E</tspan><tspan
       x="167.89809"
       y="84.923264"
       id="tspan931"
       style="fill:#17b5c8;stroke-width:0.307305">ADMINI</tspan><tspan
       class="cls-55"
       x="182.94374"
       y="84.923264"
       id="tspan933"
       style="fill:#17b5c8;stroke-width:0.307305">S</tspan><tspan
       x="185.23315"
       y="84.923264"
       id="tspan935"
       style="fill:#17b5c8;stroke-width:0.307305">TR</tspan><tspan
       class="cls-58"
       x="190.08856"
       y="84.923264"
       id="tspan937"
       style="fill:#17b5c8;stroke-width:0.307305">A</tspan><tspan
       x="192.51935"
       y="84.923264"
       id="tspan939"
       style="fill:#17b5c8;stroke-width:0.307305">TION</tspan></text><text
     class="cls-1"
     id="text947"
     style="font-size:9.33899px;font-family:Mukta-SemiBold, Mukta;fill:#c67981;stroke-width:0.307305"
     x="121.78394"
     y="117.11345"><tspan
       class="cls-38"
       x="121.78394"
       y="117.11345"
       id="tspan943"
       style="stroke-width:0.307305">P</tspan><tspan
       x="126.34127"
       y="117.11345"
       id="tspan945"
       style="stroke-width:0.307305">AM</tspan></text><path
     class="cls-6"
     d="m 135.33915,130.1554 h -8.78583 v -1.32756 h 8.78583 z m 1.63487,-6.47184 c 0,-0.40872 -0.33189,-0.74061 -0.74061,-0.74061 -0.40871,0 -0.7406,0.33189 -0.7406,0.74061 0,0.2274 0.10449,0.43022 0.26735,0.56544 -0.17823,0.35033 -0.94342,1.69632 -2.05586,1.69632 -1.11245,0 -2.38162,-2.07123 -2.62439,-2.49838 0.34419,-0.0646 0.60232,-0.3657 0.60232,-0.72831 0,-0.40872 -0.33189,-0.74061 -0.7406,-0.74061 -0.40872,0 -0.74061,0.33189 -0.74061,0.74061 0,0.34725 0.2397,0.63611 0.56237,0.71601 -0.2274,0.40565 -1.47506,2.50761 -2.63053,2.50761 -1.08171,0 -1.95753,-1.36443 -2.2003,-1.7793 0.11063,-0.12906 0.18131,-0.29808 0.18131,-0.48246 0,-0.40872 -0.33189,-0.7406 -0.7406,-0.7406 -0.40872,0 -0.74061,0.33188 -0.74061,0.7406 0,0.40872 0.33189,0.7406 0.74061,0.7406 l 1.1739,3.85668 h 8.78584 l 1.13703,-3.8997 c 0.28886,-0.10141 0.49784,-0.37184 0.49784,-0.69758 z"
     id="path949"
     style="fill:#c67981;stroke-width:0.307305" /><text
     class="cls-7"
     id="text975"
     style="font-size:4.67718px;font-family:Mukta-Regular, Mukta;fill:#c67981;stroke-width:0.307305"
     x="111.58758"
     y="139.31313"><tspan
       x="111.58758"
       y="139.31313"
       id="tspan951"
       style="stroke-width:0.307305">PRIVIL</tspan><tspan
       class="cls-64"
       x="123.70768"
       y="139.31313"
       id="tspan953"
       style="stroke-width:0.307305">E</tspan><tspan
       x="126.02782"
       y="139.31313"
       id="tspan955"
       style="stroke-width:0.307305">GED</tspan><tspan
       class="cls-24"
       x="135.29921"
       y="139.31313"
       id="tspan957"
       style="stroke-width:0.307305">A</tspan><tspan
       class="cls-45"
       x="137.96661"
       y="139.31313"
       id="tspan959"
       style="stroke-width:0.307305">C</tspan><tspan
       class="cls-19"
       x="140.46193"
       y="139.31313"
       id="tspan961"
       style="stroke-width:0.307305">C</tspan><tspan
       x="143.03099"
       y="139.31313"
       id="tspan963"
       style="stroke-width:0.307305">E</tspan><tspan
       class="cls-36"
       x="145.37267"
       y="139.31313"
       id="tspan965"
       style="stroke-width:0.307305">S</tspan><tspan
       x="147.66515"
       y="139.31313"
       id="tspan967"
       style="stroke-width:0.307305">S</tspan><tspan
       x="116.18793"
       y="144.92451"
       id="tspan969"
       style="stroke-width:0.307305">MAN</tspan><tspan
       class="cls-36"
       x="125.88339"
       y="144.92451"
       id="tspan971"
       style="stroke-width:0.307305">A</tspan><tspan
       x="128.57231"
       y="144.92451"
       id="tspan973"
       style="stroke-width:0.307305">GEMENT</tspan></text><path
     class="cls-12"
     d="m 185.80473,121.40951 5.28257,8.63218 c 0.26735,0.43638 -0.0461,0.99567 -0.55929,0.99567 h -10.7741 c -0.51628,0 -0.82972,-0.57159 -0.55315,-1.00489 l 5.49153,-8.63218 c 0.26121,-0.40872 0.85738,-0.40257 1.10937,0.009 z m 0.10141,7.71334 c 0,-0.42407 -0.34111,-0.76518 -0.76518,-0.76518 -0.42409,0 -0.7652,0.34111 -0.7652,0.76518 0,0.42409 0.34111,0.76519 0.7652,0.76519 0.42407,0 0.76518,-0.3411 0.76518,-0.76519 z m -0.0646,-4.62801 c 0,-0.3872 -0.31345,-0.70065 -0.70065,-0.70065 -0.3872,0 -0.70066,0.31345 -0.70066,0.70065 0,0.3872 0.31346,3.03925 0.70066,3.03925 0.3872,0 0.70065,-2.65511 0.70065,-3.03925 z"
     id="path977"
     style="fill:#5f7993;stroke-width:0.307305" /><text
     class="cls-3"
     id="text981"
     style="font-size:9.33899px;font-family:Mukta-SemiBold, Mukta;fill:#5f7993;stroke-width:0.307305"
     x="178.63531"
     y="117.07654"><tspan
       x="178.63531"
       y="117.07654"
       id="tspan979"
       style="fill:#5f7993;stroke-width:0.307305">IRC</tspan></text><text
     class="cls-13"
     id="text1003"
     style="font-size:4.67718px;font-family:Mukta-Regular, Mukta;fill:#5f7993;stroke-width:0.307305"
     x="171.21083"
     y="139.31313"><tspan
       x="171.21083"
       y="139.31313"
       id="tspan983"
       style="fill:#5f7993;stroke-width:0.307305">IDENTI</tspan><tspan
       class="cls-22"
       x="184.38806"
       y="139.31313"
       id="tspan985"
       style="fill:#5f7993;stroke-width:0.307305">T</tspan><tspan
       x="186.8465"
       y="139.31313"
       id="tspan987"
       style="fill:#5f7993;stroke-width:0.307305">Y RISK</tspan><tspan
       x="170.03078"
       y="144.92451"
       id="tspan989"
       style="fill:#5f7993;stroke-width:0.307305">&amp;</tspan><tspan
       class="cls-44"
       x="174.1456"
       y="144.92451"
       id="tspan991"
       style="fill:#5f7993;stroke-width:0.307305">C</tspan><tspan
       x="176.64091"
       y="144.92451"
       id="tspan993"
       style="fill:#5f7993;stroke-width:0.307305">OMPI</tspan><tspan
       class="cls-48"
       x="187.26137"
       y="144.92451"
       id="tspan995"
       style="fill:#5f7993;stroke-width:0.307305">L</tspan><tspan
       x="189.44016"
       y="144.92451"
       id="tspan997"
       style="fill:#5f7993;stroke-width:0.307305">AN</tspan><tspan
       class="cls-53"
       x="195.34039"
       y="144.92451"
       id="tspan999"
       style="fill:#5f7993;stroke-width:0.307305">C</tspan><tspan
       x="197.90945"
       y="144.92451"
       id="tspan1001"
       style="fill:#5f7993;stroke-width:0.307305">E</tspan></text></g></svg>
