<?xml version="1.0" encoding="UTF-8" standalone="no"?>
<!-- Generator: Adobe Illustrator 24.3.0, SVG Export Plug-In . SVG Version: 6.00 Build 0)  -->

<svg
   version="1.1"
   id="Capa_1"
   x="0px"
   y="0px"
   viewBox="0 0 300 200"
   style="enable-background:new 0 0 300 200;"
   xml:space="preserve"
   sodipodi:docname="wheel.svg"
   inkscape:version="1.1.2 (0a00cf5339, 2022-02-04)"
   xmlns:inkscape="http://www.inkscape.org/namespaces/inkscape"
   xmlns:sodipodi="http://sodipodi.sourceforge.net/DTD/sodipodi-0.dtd"
   xmlns="http://www.w3.org/2000/svg"
   xmlns:svg="http://www.w3.org/2000/svg"><defs
   id="defs5716"><filter
     id="drop-shadow-1"
     filterUnits="userSpaceOnUse"><feOffset
       dx="2.16"
       dy="2.16"
       id="feOffset826" /><feGaussianBlur
       result="blur"
       stdDeviation="5.39"
       id="feGaussianBlur828" /><feFlood
       flood-color="#010b26"
       flood-opacity=".25"
       id="feFlood830" /><feComposite
       in2="blur"
       operator="in"
       id="feComposite832"
       result="result1" /><feComposite
       in="SourceGraphic"
       in2="result1"
       id="feComposite834" /></filter></defs><sodipodi:namedview
   id="namedview5714"
   pagecolor="#ffffff"
   bordercolor="#666666"
   borderopacity="1.0"
   inkscape:pageshadow="2"
   inkscape:pageopacity="0.0"
   inkscape:pagecheckerboard="0"
   showgrid="false"
   inkscape:zoom="3.595"
   inkscape:cx="129.76356"
   inkscape:cy="97.496523"
   inkscape:window-width="1920"
   inkscape:window-height="1011"
   inkscape:window-x="0"
   inkscape:window-y="32"
   inkscape:window-maximized="1"
   inkscape:current-layer="Capa_1" />
<style
   type="text/css"
   id="style5651">
	.st0{fill:#5F7993;}
	.st1{fill:#17B5C8;}
	.st2{fill:#11828F;}
	.st3{fill:#405162;}
	.st4{fill:#A6D100;}
	.st5{fill:#89AB00;}
	.st6{fill:#FFFFFF;}
	.st7{fill:none;stroke:#17B5C8;stroke-width:2;stroke-miterlimit:10;}
</style>

<ellipse
   style="fill:#ffffff;stroke:#000000;stroke-width:1.5563;stroke-linecap:square;stroke-miterlimit:4;stroke-dasharray:none"
   id="path12101"
   ry="93.184502"
   rx="93.174797"
   cy="100.16259"
   cx="156.64746" /><path
   class="cls-33"
   d="M 99.678489,75.67099 C 102.71422,68.585691 107.03317,62.181113 112.3428,56.746927 L 90.87545,35.282467 C 82.770517,43.514855 76.19793,53.25352 71.621163,64.049477 Z"
   id="path839"
   style="fill:#a6d100;stroke-width:0.289669" /><path
   class="cls-33"
   d="m 113.36533,55.724396 c 5.43419,-5.30963 11.83877,-9.628591 18.92408,-12.664321 L 120.66789,15.002754 C 109.87193,19.579521 100.13326,26.155003 91.900879,34.25704 l 21.464451,21.464459 z"
   id="path841"
   style="fill:#a6d100;stroke-width:0.289669" /><path
   class="cls-33"
   d="m 94.699079,99.342726 c 0.0898,-7.887682 1.651112,-15.419071 4.426137,-22.336362 L 71.070792,65.387748 c -4.255234,10.497597 -6.636312,21.954 -6.729006,33.954978 z"
   id="path843"
   style="fill:#a6d100;stroke-width:0.289669" /><path
   class="cls-35"
   d="m 181.08412,43.060075 c 7.08529,3.03573 13.48986,7.354691 18.92405,12.664321 L 221.47264,34.259937 C 213.24025,26.155003 203.50158,19.582418 192.70562,15.005651 l -11.6215,28.057321 z"
   id="path845"
   style="fill:#17b5c8;stroke-width:0.289669" /><path
   class="cls-35"
   d="m 222.49517,35.282467 -21.46447,21.46446 c 5.30963,5.434186 9.6286,11.838764 12.66433,18.924063 L 241.75235,64.049477 C 237.17558,53.25352 230.6001,43.514855 222.49806,35.282467 Z"
   id="path847"
   style="fill:#17b5c8;stroke-width:0.289669" /><path
   class="cls-33"
   d="m 133.62767,42.503911 c 6.9173,-2.77213 14.44868,-4.333446 22.33637,-4.42614 V 7.723377 c -12.00099,0.092694 -23.45739,2.473772 -33.95498,6.729006 z"
   id="path849"
   style="fill:#a6d100;stroke-width:0.289669" /><path
   class="cls-35"
   d="m 157.40949,38.080668 c 7.88768,0.0898 15.41907,1.651113 22.33635,4.426139 L 191.36446,14.45528 C 180.86686,10.197149 169.41335,7.8160709 157.40949,7.723377 Z"
   id="path851"
   style="fill:#17b5c8;stroke-width:0.289669" /><path
   class="cls-32"
   d="m 99.122325,123.12741 c -2.772134,-6.91729 -4.333448,-14.44868 -4.426143,-22.33634 H 64.341786 c 0.0927,12.00096 2.473773,23.45735 6.729006,33.95495 z"
   id="path853"
   style="fill:#405162;stroke-width:0.289669;fill-opacity:1" /><path
   class="cls-34"
   d="m 213.69503,124.46568 c -3.03573,7.08529 -7.3547,13.48987 -12.66433,18.92407 l 21.46447,21.46446 c 8.10493,-8.2324 14.67752,-17.97105 19.25428,-28.76701 l -28.05732,-11.62152 z"
   id="path855"
   style="fill:#89ab00;stroke-width:0.289669" /><path
   class="cls-34"
   d="m 218.67444,100.79107 c -0.0897,7.88766 -1.65112,15.41905 -4.42615,22.33634 l 28.05154,11.61861 c 4.25523,-10.4976 6.63631,-21.9511 6.729,-33.95495 h -30.35729 z"
   id="path857"
   style="fill:#89ab00;stroke-width:0.289669" /><path
   class="cls-35"
   d="m 214.24829,77.00926 c 2.77214,6.917292 4.33345,14.448681 4.42325,22.336363 h 30.35729 c -0.0926,-12.000979 -2.47377,-23.457381 -6.729,-33.954979 z"
   id="path859"
   style="fill:#17b5c8;stroke-width:0.289669" /><path
   class="cls-34"
   d="m 200.00528,144.41228 c -5.43418,5.30962 -11.83587,9.62858 -18.92407,12.66431 l 11.62152,28.05732 c 10.79596,-4.57676 20.53462,-11.15224 28.76701,-19.25428 l -21.46446,-21.46447 z"
   id="path861"
   style="fill:#89ab00;stroke-width:0.289669" /><path
   class="cls-32"
   d="m 155.96113,162.056 c -7.88768,-0.0897 -15.41907,-1.65111 -22.33635,-4.42614 l -11.61862,28.05153 c 10.4976,4.25524 21.95111,6.63631 33.95497,6.72901 v -30.35729 z"
   id="path863"
   style="fill:#405162;stroke-width:0.289669;fill-opacity:1" /><path
   class="cls-32"
   d="m 132.28941,157.07659 c -7.08531,-3.03573 -13.48989,-7.35469 -18.92408,-12.66431 l -21.464451,21.46445 c 8.232381,8.10494 17.971051,14.67752 28.767011,19.2543 l 11.62152,-28.05733 z"
   id="path865"
   style="fill:#405162;stroke-width:0.289669;fill-opacity:1" /><path
   class="cls-32"
   d="m 112.3428,143.38685 c -5.30963,-5.43419 -9.62858,-11.83588 -12.664311,-18.92407 l -28.057326,11.62151 c 4.576767,10.79596 11.15225,20.53463 19.254287,28.76701 l 21.46446,-21.46445 z"
   id="path867"
   style="fill:#405162;stroke-width:0.289669;fill-opacity:1" /><path
   class="cls-34"
   d="m 179.74584,157.62986 c -6.91728,2.77213 -14.44867,4.33345 -22.33635,4.42614 v 30.35729 c 12.00097,-0.0927 23.45737,-2.47377 33.95497,-6.729 l -11.61862,-28.05153 z"
   id="path869"
   style="fill:#89ab00;stroke-width:0.289669" /><text
   class="cls-2"
   id="text883"
   style="font-size:8.80304px;font-family:Mukta-SemiBold, Mukta;fill:#a6d100;stroke-width:0.289669"
   x="125.93117"
   y="58.829647"><tspan
     x="125.93117"
     y="58.829647"
     id="tspan881"
     style="fill:#a6d100;stroke-width:0.289669">AM</tspan></text><path
   class="cls-9"
   d="m 136.61706,66.980926 h -5.21694 c -0.35919,-0.955907 -1.27455,-1.639525 -2.35501,-1.639525 -1.3933,0 -2.52301,1.129707 -2.52301,2.523015 0,1.393306 1.12971,2.523015 2.52301,2.523015 1.06888,0 1.97554,-0.666238 2.34632,-1.604766 h 2.04216 v 1.323787 h 1.44255 v -1.323787 h 1.74381 v 1.323787 h 1.44255 v -3.125526 h -1.44255 z m -7.51402,1.79305 c -0.50113,0 -0.90956,-0.405537 -0.90956,-0.90956 0,-0.504025 0.40554,-0.90956 0.90956,-0.90956 0.50403,0 0.90957,0.405535 0.90957,0.90956 0,0.504023 -0.40554,0.90956 -0.90957,0.90956 z"
   id="path885"
   style="fill:#a6d100;stroke-width:0.289669" /><text
   class="cls-10"
   id="text909"
   style="font-size:4.40876px;font-family:Mukta-Regular, Mukta;fill:#a6d100;stroke-width:0.289669"
   x="111.07984"
   y="80.630142"><tspan
     class="cls-24"
     x="111.07984"
     y="80.630142"
     id="tspan887"
     style="fill:#a6d100;stroke-width:0.289669">A</tspan><tspan
     class="cls-45"
     x="113.59129"
     y="80.630142"
     id="tspan889"
     style="fill:#a6d100;stroke-width:0.289669">C</tspan><tspan
     class="cls-57"
     x="115.94628"
     y="80.630142"
     id="tspan891"
     style="fill:#a6d100;stroke-width:0.289669">C</tspan><tspan
     x="118.36501"
     y="80.630142"
     id="tspan893"
     style="fill:#a6d100;stroke-width:0.289669">E</tspan><tspan
     class="cls-55"
     x="120.5752"
     y="80.630142"
     id="tspan895"
     style="fill:#a6d100;stroke-width:0.289669">S</tspan><tspan
     x="122.73322"
     y="80.630142"
     id="tspan897"
     style="fill:#a6d100;stroke-width:0.289669">S MAN</tspan><tspan
     class="cls-36"
     x="135.076"
     y="80.630142"
     id="tspan899"
     style="fill:#a6d100;stroke-width:0.289669">A</tspan><tspan
     x="137.61061"
     y="80.630142"
     id="tspan901"
     style="fill:#a6d100;stroke-width:0.289669">GEMENT</tspan><tspan
     x="126.64376"
     y="85.919495"
     id="tspan903"
     style="fill:#a6d100;stroke-width:0.289669">&amp;</tspan><tspan
     class="cls-36"
     x="130.52242"
     y="85.919495"
     id="tspan905"
     style="fill:#a6d100;stroke-width:0.289669">S</tspan><tspan
     x="132.68335"
     y="85.919495"
     id="tspan907"
     style="fill:#a6d100;stroke-width:0.289669">SO</tspan></text><path
   class="cls-15"
   d="m 182.93509,63.48752 h 1.1442 v -1.144192 h -1.1442 z m 3.56873,-0.234632 h -1.76409 v 0.897974 h -2.46797 v -0.897974 h -1.76409 c -0.59092,0 -1.07177,0.48085 -1.07177,1.071774 v 7.98617 c 0,0.590924 0.48085,1.071774 1.07177,1.071774 h 5.99325 c 0.59092,0 1.07177,-0.48085 1.07177,-1.071774 v -7.98617 c 0,-0.590924 -0.48085,-1.071774 -1.07177,-1.071774 z m -2.99519,2.076926 c 0.48956,0 0.8864,0.396847 0.8864,0.886386 0,0.48954 -0.39684,0.886387 -0.8864,0.886387 -0.48953,0 -0.88637,-0.396847 -0.88637,-0.886387 0,-0.489539 0.39684,-0.886386 0.88637,-0.886386 z m 0,2.163826 c 0.84585,0 1.55843,0.700998 1.7583,1.651111 h -3.51368 c 0.19988,-0.950113 0.90956,-1.651111 1.75538,-1.651111 z m 1.57002,3.284844 v 0.663342 h -3.13712 v -0.663342 z m 1.17895,1.642422 h -5.49502 v -0.663341 h 5.49502 z"
   id="path911"
   style="fill:#17b5c8;stroke-width:0.289669" /><text
   class="cls-4"
   id="text915"
   style="font-size:8.80304px;font-family:Mukta-SemiBold, Mukta;fill:#17b5c8;stroke-width:0.289669"
   x="176.84915"
   y="58.829647"><tspan
     x="176.84915"
     y="58.829647"
     id="tspan913"
     style="fill:#17b5c8;stroke-width:0.289669">IGA</tspan></text><text
   class="cls-16"
   id="text941"
   style="font-size:4.40876px;font-family:Mukta-Regular, Mukta;fill:#17b5c8;stroke-width:0.289669"
   x="161.52568"
   y="80.508484"><tspan
     x="161.52568"
     y="80.508484"
     id="tspan917"
     style="fill:#17b5c8;stroke-width:0.289669">IDENTI</tspan><tspan
     class="cls-22"
     x="173.94669"
     y="80.508484"
     id="tspan919"
     style="fill:#17b5c8;stroke-width:0.289669">T</tspan><tspan
     x="176.26402"
     y="80.508484"
     id="tspan921"
     style="fill:#17b5c8;stroke-width:0.289669">Y G</tspan><tspan
     class="cls-30"
     x="182.27174"
     y="80.508484"
     id="tspan923"
     style="fill:#17b5c8;stroke-width:0.289669">O</tspan><tspan
     x="185.22928"
     y="80.508484"
     id="tspan925"
     style="fill:#17b5c8;stroke-width:0.289669">VERNAN</tspan><tspan
     class="cls-19"
     x="200.8598"
     y="80.508484"
     id="tspan927"
     style="fill:#17b5c8;stroke-width:0.289669">C</tspan><tspan
     x="203.27853"
     y="80.508484"
     id="tspan929"
     style="fill:#17b5c8;stroke-width:0.289669">E</tspan><tspan
     x="167.25243"
     y="85.797829"
     id="tspan931"
     style="fill:#17b5c8;stroke-width:0.289669">ADMINI</tspan><tspan
     class="cls-55"
     x="181.43463"
     y="85.797829"
     id="tspan933"
     style="fill:#17b5c8;stroke-width:0.289669">S</tspan><tspan
     x="183.59265"
     y="85.797829"
     id="tspan935"
     style="fill:#17b5c8;stroke-width:0.289669">TR</tspan><tspan
     class="cls-58"
     x="188.16942"
     y="85.797829"
     id="tspan937"
     style="fill:#17b5c8;stroke-width:0.289669">A</tspan><tspan
     x="190.46069"
     y="85.797829"
     id="tspan939"
     style="fill:#17b5c8;stroke-width:0.289669">TION</tspan></text><text
   class="cls-1"
   id="text947"
   style="font-size:8.80304px;font-family:Mukta-SemiBold, Mukta;fill:#405162;stroke-width:0.289669"
   x="123.78472"
   y="116.14066"><tspan
     class="cls-38"
     x="123.78472"
     y="116.14066"
     id="tspan943"
     style="stroke-width:0.289669;fill:#405162">P</tspan><tspan
     x="128.08051"
     y="116.14066"
     id="tspan945"
     style="stroke-width:0.289669;fill:#405162">AM</tspan></text><path
   class="cls-6"
   d="m 136.56201,128.43415 h -8.28162 v -1.25138 h 8.28162 z m 1.54105,-6.10043 c 0,-0.38527 -0.31285,-0.69811 -0.69811,-0.69811 -0.38526,0 -0.6981,0.31284 -0.6981,0.69811 0,0.21435 0.0985,0.40553 0.25201,0.53299 -0.168,0.33022 -0.88928,1.59897 -1.93788,1.59897 -1.04861,0 -2.24494,-1.95237 -2.47378,-2.355 0.32444,-0.0609 0.56776,-0.34472 0.56776,-0.68652 0,-0.38526 -0.31285,-0.6981 -0.6981,-0.6981 -0.38527,0 -0.69811,0.31284 -0.69811,0.6981 0,0.32733 0.22595,0.59961 0.5301,0.67492 -0.21435,0.38237 -1.39041,2.3637 -2.47957,2.3637 -1.01963,0 -1.84519,-1.28612 -2.07403,-1.67718 0.10428,-0.12166 0.17091,-0.28098 0.17091,-0.45478 0,-0.38526 -0.31284,-0.69809 -0.6981,-0.69809 -0.38526,0 -0.69811,0.31283 -0.69811,0.69809 0,0.38527 0.31285,0.6981 0.69811,0.6981 l 1.10653,3.63535 h 8.28163 l 1.07178,-3.6759 c 0.27228,-0.0956 0.46927,-0.3505 0.46927,-0.65755 z"
   id="path949"
   style="fill:#405162;stroke-width:0.289669" /><text
   class="cls-7"
   id="text975"
   style="font-size:4.40876px;font-family:Mukta-Regular, Mukta;fill:#405162;stroke-width:0.289669"
   x="114.17352"
   y="137.06631"><tspan
     x="114.17352"
     y="137.06631"
     id="tspan951"
     style="stroke-width:0.289669;fill:#405162">PRIVIL</tspan><tspan
     class="cls-64"
     x="125.59805"
     y="137.06631"
     id="tspan953"
     style="stroke-width:0.289669;fill:#405162">E</tspan><tspan
     x="127.78504"
     y="137.06631"
     id="tspan955"
     style="stroke-width:0.289669;fill:#405162">GED</tspan><tspan
     class="cls-24"
     x="136.52437"
     y="137.06631"
     id="tspan957"
     style="stroke-width:0.289669;fill:#405162">A</tspan><tspan
     class="cls-45"
     x="139.03868"
     y="137.06631"
     id="tspan959"
     style="stroke-width:0.289669;fill:#405162">C</tspan><tspan
     class="cls-19"
     x="141.39079"
     y="137.06631"
     id="tspan961"
     style="stroke-width:0.289669;fill:#405162">C</tspan><tspan
     x="143.81242"
     y="137.06631"
     id="tspan963"
     style="stroke-width:0.289669;fill:#405162">E</tspan><tspan
     class="cls-36"
     x="146.01971"
     y="137.06631"
     id="tspan965"
     style="stroke-width:0.289669;fill:#405162">S</tspan><tspan
     x="148.18063"
     y="137.06631"
     id="tspan967"
     style="stroke-width:0.289669;fill:#405162">S</tspan><tspan
     x="118.50986"
     y="142.35568"
     id="tspan969"
     style="stroke-width:0.289669;fill:#405162">MAN</tspan><tspan
     class="cls-36"
     x="127.64891"
     y="142.35568"
     id="tspan971"
     style="stroke-width:0.289669;fill:#405162">A</tspan><tspan
     x="130.18352"
     y="142.35568"
     id="tspan973"
     style="stroke-width:0.289669;fill:#405162">GEMENT</tspan></text><path
   class="cls-12"
   d="m 184.13143,120.19017 4.97941,8.13679 c 0.252,0.41134 -0.0435,0.93853 -0.5272,0.93853 h -10.15578 c -0.48666,0 -0.78211,-0.53879 -0.52141,-0.94722 l 5.17638,-8.13679 c 0.24622,-0.38526 0.80817,-0.37947 1.0457,0.008 z m 0.0956,7.27068 c 0,-0.39973 -0.32154,-0.72126 -0.72127,-0.72126 -0.39975,0 -0.72129,0.32153 -0.72129,0.72126 0,0.39975 0.32154,0.72128 0.72129,0.72128 0.39973,0 0.72127,-0.32153 0.72127,-0.72128 z m -0.0609,-4.36241 c 0,-0.36498 -0.29546,-0.66044 -0.66044,-0.66044 -0.36498,0 -0.66045,0.29546 -0.66045,0.66044 0,0.36498 0.29547,2.86483 0.66045,2.86483 0.36498,0 0.66044,-2.50274 0.66044,-2.86483 z"
   id="path977"
   style="fill:#89ab00;stroke-width:0.289669" /><text
   class="cls-3"
   id="text981"
   style="font-size:8.80304px;font-family:Mukta-SemiBold, Mukta;fill:#89ab00;stroke-width:0.289669"
   x="177.37346"
   y="116.10587"><tspan
     x="177.37346"
     y="116.10587"
     id="tspan979"
     style="fill:#89ab00;stroke-width:0.289669">IRC</tspan></text><text
   class="cls-13"
   id="text1003"
   style="font-size:4.40876px;font-family:Mukta-Regular, Mukta;fill:#89ab00;stroke-width:0.289669"
   x="170.37506"
   y="137.06631"><tspan
     x="170.37506"
     y="137.06631"
     id="tspan983"
     style="fill:#89ab00;stroke-width:0.289669">IDENTI</tspan><tspan
     class="cls-22"
     x="182.79605"
     y="137.06631"
     id="tspan985"
     style="fill:#89ab00;stroke-width:0.289669">T</tspan><tspan
     x="185.1134"
     y="137.06631"
     id="tspan987"
     style="fill:#89ab00;stroke-width:0.289669">Y RISK</tspan><tspan
     x="169.26273"
     y="142.35568"
     id="tspan989"
     style="fill:#89ab00;stroke-width:0.289669">&amp;</tspan><tspan
     class="cls-44"
     x="173.1414"
     y="142.35568"
     id="tspan991"
     style="fill:#89ab00;stroke-width:0.289669">C</tspan><tspan
     x="175.49352"
     y="142.35568"
     id="tspan993"
     style="fill:#89ab00;stroke-width:0.289669">OMPI</tspan><tspan
     class="cls-48"
     x="185.50447"
     y="142.35568"
     id="tspan995"
     style="fill:#89ab00;stroke-width:0.289669">L</tspan><tspan
     x="187.55821"
     y="142.35568"
     id="tspan997"
     style="fill:#89ab00;stroke-width:0.289669">AN</tspan><tspan
     class="cls-53"
     x="193.11984"
     y="142.35568"
     id="tspan999"
     style="fill:#89ab00;stroke-width:0.289669">C</tspan><tspan
     x="195.54147"
     y="142.35568"
     id="tspan1001"
     style="fill:#89ab00;stroke-width:0.289669">E</tspan></text></svg>
