<?xml version="1.0" encoding="utf-8"?>
<!-- Generator: Adobe Illustrator 24.3.0, SVG Export Plug-In . SVG Version: 6.00 Build 0)  -->
<svg version="1.1" id="Capa_1" xmlns="http://www.w3.org/2000/svg" xmlns:xlink="http://www.w3.org/1999/xlink" x="0px" y="0px"
	 viewBox="0 0 300 200" style="enable-background:new 0 0 300 200;" xml:space="preserve">
<style type="text/css">
	.st0{fill:#5F7993;}
	.st1{fill:#17B5C8;}
	.st2{fill:#11828F;}
	.st3{fill:#405162;}
	.st4{fill:#A6D100;}
	.st5{fill:#89AB00;}
	.st6{fill:#FFFFFF;}
	.st7{fill:none;stroke:#17B5C8;stroke-width:2;stroke-miterlimit:10;}
</style>
<g>
	<path class="st1" d="M119.2,180.6c-4.6-0.8-8.1-4.8-8.1-9.5v-7c0-3,1.4-5.7,3.6-7.5H86.8c-0.6,1.1-1.3,3-1.3,5.6
		c0,4.3,0,16.8,0,16.8s0.2,2.6,1.7,4.2h30.7C118.2,182.2,118.6,181.4,119.2,180.6z"/>
	<g>
		<path class="st1" d="M217.2,137h-2.8c-3.3,0-6.3-2.1-7.5-5.2c-0.3-0.7-0.6-1.4-0.9-2.1c-1.4-3-0.7-6.6,1.6-9l2-2
			c0.4-0.4,0.6-1,0.6-1.6s-0.2-1.1-0.6-1.6l-7.2-7.2c-0.4-0.4-1-0.6-1.6-0.6c-0.6,0-1.1,0.2-1.6,0.6l-2,2c-1.5,1.5-3.5,2.3-5.7,2.3
			c-1.2,0-2.3-0.2-3.3-0.7c-0.7-0.3-1.4-0.6-2.1-0.9c-3.1-1.2-5.2-4.2-5.2-7.5v-2.8c0-1.2-1-2.2-2.2-2.2h-10.2c-1.2,0-2.2,1-2.2,2.2
			v2.8c0,3.3-2.1,6.3-5.2,7.5c-0.7,0.3-1.4,0.6-2.1,0.9c-1.1,0.5-2.2,0.7-3.3,0.7c-2.1,0-4.1-0.8-5.7-2.3l-2-2
			c-0.4-0.4-1-0.6-1.6-0.6c-0.6,0-1.1,0.2-1.6,0.6l-7.2,7.2c-0.4,0.4-0.6,1-0.6,1.6c0,0.6,0.2,1.1,0.6,1.6l2,2c2.3,2.4,3,6,1.6,9
			c0,0,0,0.1-0.1,0.1c1.6-1.2,3.6-1.9,5.8-1.9h7c1.8,0,3.5,0.5,5,1.4c2.5-2.4,5.6-4.2,9.1-5.1c0.7-0.2,1.5-0.3,2.2-0.4
			c0.3,0,0.5-0.1,0.8-0.1c0.5,0,1-0.1,1.5-0.1c0.1,0,0.2,0,0.3,0c0.1,0,0.3,0,0.4,0c4.4,0,8.8,1.5,12.4,4.1l0.4,0.3
			c0.3,0.2,0.6,0.5,0.9,0.7c0.2,0.2,0.5,0.4,0.7,0.6l0.1,0.1c0.2,0.2,0.3,0.3,0.5,0.5c0.3,0.3,0.7,0.7,1,1.1
			c0.1,0.1,0.2,0.2,0.2,0.2c0.8,0.9,1.5,2,2.1,3l0.1,0.1c0.4,0.8,0.7,1.5,1,2.2c0.1,0.3,0.2,0.6,0.4,1c0.2,0.5,0.3,0.9,0.4,1.4
			l0,0.2c0.1,0.3,0.2,0.6,0.2,0.9c0.1,0.5,0.2,1.1,0.3,1.8c0.1,0.5,0.1,1.1,0.1,1.7l0,0.3c0,0.2,0,0.4,0,0.6c0,0.1,0,0.3,0,0.4
			c0,0.4,0,0.8-0.1,1.3c0,0.5-0.1,0.9-0.2,1.3c-0.5,3.4-1.7,6.6-3.5,9.5c-0.4,0.6-0.8,1.1-1.3,1.6c-0.2,0.2-0.3,0.3-0.5,0.5
			c1,1.5,1.5,3.3,1.5,5.2v7c0,2-0.6,3.9-1.7,5.5c1-0.4,2-0.6,3-0.6c2.1,0,4.1,0.8,5.7,2.3l2,2c0.4,0.4,1,0.6,1.6,0.6
			c0.6,0,1.1-0.2,1.6-0.6l7.2-7.2c0.9-0.9,0.9-2.3,0-3.1l-2-2c-2.3-2.4-3-6-1.6-9c0.3-0.7,0.6-1.4,0.9-2.1c1.2-3.1,4.2-5.2,7.5-5.2
			h2.8c1.2,0,2.2-1,2.2-2.2v-10.2C219.4,138,218.4,137,217.2,137z"/>
	</g>
	<path class="st2" d="M219.2,138.3c-0.3-0.8-1.1-1.3-2-1.3h-2.8c-3.3,0-6.3-2.1-7.5-5.2c-0.3-0.7-0.6-1.4-0.9-2.1
		c-1.4-3-0.7-6.6,1.6-9l2-2c0,0,0,0,0,0L209,116l-8.1-8.2c0,0,0,0,0,0c-0.6,0-1.1,0.2-1.6,0.6l-2,2c-1.5,1.5-3.5,2.3-5.7,2.3
		c-1.2,0-2.3-0.2-3.3-0.7c-0.7-0.3-1.4-0.6-2.1-0.9c-1.4-0.5-2.6-1.5-3.5-2.6l-0.2,0c0,0,41.7,33,6.9,66.6c0.1-0.1-0.1,1.4,0,1.4
		c1.1-0.5,1.1-0.7,2.3-0.7c2.1,0,4.1,0.8,5.7,2.3l2,2c0.4,0.4,1,0.6,1.6,0.6c0.6,0,1.1-0.2,1.6-0.6l7.2-7.2c0.9-0.9,0.9-2.3,0-3.1
		l-2-2c-2.3-2.4-3-6-1.6-9c0.3-0.7,0.6-1.4,0.9-2.1c1.2-3.1,4.2-5.2,7.5-5.2h2.8c0.4,0,0.8-0.1,1.1-0.3L219.2,138.3z"/>
	<g>
		<path d="M150.7,184.7c-0.2,0-0.4,0-0.6,0l-0.5,0c-0.4,0-0.8,0-1.1-0.1c-0.6-0.1-1.3-0.2-1.9-0.3l-0.2,0
			c-6.1-1.6-10.8-6.3-12.3-12.3c-1.1-4.4-0.5-9,1.8-13c2.3-3.9,6-6.7,10.5-7.9c0.6-0.2,1.2-0.3,1.9-0.3c0.2,0,0.4-0.1,0.6-0.1
			c0.4,0,0.8-0.1,1.2-0.1l0.1,0c0.2,0,0.3,0,0.5,0c3.7,0,7.3,1.2,10.2,3.4l0.3,0.2c0.3,0.2,0.5,0.4,0.7,0.6c0.2,0.2,0.4,0.3,0.6,0.5
			c0.2,0.2,0.3,0.3,0.5,0.5c0.3,0.3,0.5,0.6,0.8,0.9c0.1,0.1,0.1,0.2,0.2,0.2c0.6,0.8,1.2,1.6,1.7,2.5l0.1,0.1
			c0.3,0.6,0.6,1.2,0.8,1.8c0.1,0.3,0.2,0.5,0.3,0.8c0.1,0.4,0.3,0.8,0.4,1.2l0,0.1c0.1,0.2,0.1,0.5,0.2,0.8
			c0.1,0.4,0.2,0.9,0.2,1.4c0.1,0.5,0.1,0.9,0.1,1.4l0,0.2c0,0.2,0,0.4,0,0.6c0,0,0,0.1,0,0.2c0,0.4,0,0.8-0.1,1.1
			c0,0.4-0.1,0.7-0.1,1.1c-0.4,2.8-1.4,5.4-2.8,7.7c-0.3,0.5-0.7,1-1.2,1.4c-1.4,1.4-3,2.5-4.8,3.5l-0.2,0.1
			c-0.2,0.1-0.5,0.2-0.7,0.3l-0.2,0.1c-0.2,0.1-0.4,0.2-0.6,0.3c-0.3,0.1-0.5,0.2-0.8,0.3l-0.1,0c-0.2,0.1-0.4,0.2-0.7,0.2
			c-0.3,0.1-0.7,0.2-1,0.3l-0.2,0c-0.1,0-0.3,0.1-0.4,0.1c-0.5,0.1-0.9,0.2-1.4,0.2c-0.1,0-0.2,0-0.3,0
			C151.8,184.6,151.2,184.7,150.7,184.7z M146.9,182.1l0.1,0c0.6,0.1,1.2,0.3,1.8,0.3c0.3,0,0.6,0.1,0.9,0.1l0.2,0
			c0.1,0,0.2,0,0.3,0c0.2,0,0.3,0,0.5,0c0.4,0,0.9,0,1.5-0.1l0.1,0c0.5-0.1,0.9-0.1,1.3-0.2c0.1,0,0.2,0,0.3-0.1l0.2,0
			c0.3-0.1,0.6-0.1,0.9-0.2c0.2-0.1,0.4-0.1,0.6-0.2l0.1,0c0.2-0.1,0.5-0.2,0.7-0.3c0.2-0.1,0.3-0.1,0.4-0.2l0.2-0.1
			c0.3-0.1,0.5-0.2,0.8-0.4l0.2-0.1c1.5-0.9,2.9-1.9,4.2-3c0.3-0.3,0.6-0.6,0.8-1c1.3-2.1,2.2-4.5,2.5-6.9c0-0.3,0.1-0.6,0.1-1
			c0-0.3,0-0.6,0-0.9c0,0,0-0.1,0-0.2l0-0.1c0-0.1,0-0.3,0-0.4l0-0.3c0-0.4,0-0.8-0.1-1.2c-0.1-0.5-0.1-0.9-0.2-1.3
			c0-0.2-0.1-0.4-0.2-0.7l0-0.1c-0.1-0.3-0.2-0.7-0.3-1c-0.1-0.2-0.2-0.5-0.3-0.7c-0.2-0.5-0.5-1-0.8-1.6l-0.1-0.1
			c-0.4-0.7-0.9-1.5-1.5-2.1c0,0-0.1-0.1-0.1-0.2c-0.3-0.3-0.5-0.6-0.7-0.8c-0.1-0.1-0.2-0.2-0.3-0.3c-0.2-0.2-0.4-0.4-0.6-0.5
			c-0.2-0.2-0.4-0.3-0.6-0.5l-0.3-0.2c-2.6-1.9-5.8-3-9-3c-0.1,0-0.2,0-0.2,0l-0.3,0c-0.4,0-0.7,0-1.1,0.1c-0.2,0-0.4,0-0.6,0.1
			c-0.6,0.1-1.1,0.2-1.6,0.3c-3.9,1-7.2,3.5-9.2,6.9c-2,3.5-2.6,7.5-1.6,11.4C137.5,176.6,141.6,180.7,146.9,182.1z"/>
	</g>
	<g>
		<g>
			<polygon class="st1" points="80.4,1.3 80.4,29.6 127.3,29.6 127.3,1.4 			"/>
		</g>
		<g>
			<path class="st2" d="M87.5,1.4c0,0-2,2.4-2,6.6s0,16.8,0,16.8s0.4,4.5,3.5,5.2h-8.7V1.3L87.5,1.4z"/>
		</g>
	</g>
	<g>
		<g>
			<polygon class="st0" points="154.2,54.9 154.2,83.2 182.9,83.2 182.9,55 			"/>
		</g>
		<g>
			<path class="st3" d="M161.3,55c0,0-2,2.4-2,6.6s0,16.8,0,16.8s0.4,4.5,3.5,5.2h-8.7V54.9L161.3,55z"/>
		</g>
	</g>
	<g>
		<g>
			<polygon class="st4" points="83.4,70 103.4,90 123.7,69.6 103.8,49.7 			"/>
		</g>
		<g>
			<path class="st5" d="M88.5,65c0,0,0.2,3.1,3.2,6.1c3,3,11.9,11.9,11.9,11.9s3.5,2.9,6.2,1.2l-6.2,6.2L83.3,70L88.5,65z"/>
		</g>
	</g>
	<path class="st2" d="M81.2,157.2v25.1c0,0.4,0.3,0.7,0.7,0.7h5.2c-1.5-1.6-1.7-4.2-1.7-4.2s0-12.6,0-16.8c0-2.6,0.8-4.5,1.3-5.6
		h-4.9C81.5,156.5,81.2,156.8,81.2,157.2z"/>
	<g>
		<g>
			<circle class="st4" cx="103.3" cy="122.6" r="14.9"/>
		</g>
	</g>
	<path class="st5" d="M101,108.7c-5.3-0.5-4.9,2.1-9,4.3c-2.2,2.6-3.6,6-3.6,9.7c0,1.6,0.2,3.1,0.7,4.5l5,7.2
		c0.2,0.2,0.4,0.3,0.6,0.4l6.2,1.3c-3.1-2.7-7.1-6.3-7.5-13.4C92.9,115.4,101,108.7,101,108.7z"/>
	<g>
		<path d="M128.3,30.6H79.6V0h48.7V30.6z M81.6,28.6h44.6V2H81.6V28.6z"/>
	</g>
	<g>
		<path d="M103.6,90.5L82.4,69.3l21.2-21.2l21.2,21.2L103.6,90.5z M85.3,69.3l18.3,18.3L122,69.3L103.6,51L85.3,69.3z"/>
	</g>
	<g>
		<rect x="102.5" y="30" width="2" height="20.3"/>
	</g>
	<g>
		<rect x="102.5" y="88.8" width="2" height="18.9"/>
	</g>
	<g>
		<rect x="102.5" y="136.6" width="2" height="18.9"/>
	</g>
	<g>
		<path d="M103.5,138.3c-8.7,0-15.7-7-15.7-15.7s7-15.7,15.7-15.7s15.7,7,15.7,15.7S112.2,138.3,103.5,138.3z M103.5,108.9
			c-7.5,0-13.6,6.1-13.6,13.6s6.1,13.6,13.6,13.6c7.5,0,13.6-6.1,13.6-13.6S111.1,108.9,103.5,108.9z"/>
	</g>
	<g>
		<path d="M184,84.2h-30.5V53.8H184V84.2z M155.6,82.2h26.4V55.8h-26.4V82.2z"/>
	</g>
	<g>
		<rect x="123.4" y="68.3" width="31.1" height="2"/>
	</g>
	<g>
		<path d="M195.3,144.6c0-0.1,0-0.2,0-0.3c0-0.2,0-0.5,0-0.7l0-0.3c0-0.6-0.1-1.2-0.1-1.7c-0.1-0.7-0.2-1.3-0.3-1.8
			c-0.1-0.3-0.2-0.7-0.3-1l0-0.2c-0.1-0.5-0.3-1-0.5-1.5c-0.1-0.3-0.2-0.6-0.4-1c-0.3-0.8-0.7-1.5-1.1-2.3l-0.1-0.2
			c-0.6-1.1-1.4-2.2-2.2-3.2c-0.1-0.1-0.1-0.1-0.2-0.3c-0.3-0.4-0.7-0.8-1-1.1c-0.2-0.2-0.3-0.3-0.5-0.5l-0.1-0.1
			c-0.2-0.2-0.5-0.4-0.7-0.6c-0.3-0.3-0.6-0.5-0.9-0.8l-0.4-0.3c-3.7-2.8-8.3-4.3-13-4.3c-0.2,0-0.3,0-0.6,0l-0.1,0
			c-0.5,0-1,0-1.6,0.1c-0.3,0-0.5,0.1-0.8,0.1c-0.8,0.1-1.6,0.3-2.4,0.4c-3.8,1-7.1,2.9-9.8,5.6c0.6,0.3,1.2,0.7,1.8,1.1
			c2.4-2.2,5.3-3.8,8.5-4.7c0.7-0.2,1.4-0.3,2.1-0.4c0.2,0,0.5-0.1,0.7-0.1c0.5,0,0.9-0.1,1.4-0.1c0.1,0,0.2,0,0.3,0
			c0.1,0,0.2,0,0.3,0c4.2,0,8.4,1.4,11.8,3.9l0.3,0.3c0.3,0.2,0.6,0.4,0.8,0.7c0.2,0.2,0.4,0.4,0.7,0.6l0.1,0.1
			c0.1,0.1,0.3,0.3,0.4,0.4c0.3,0.3,0.6,0.7,1,1c0.1,0.1,0.1,0.2,0.2,0.2c0.7,0.9,1.4,1.9,1.9,2.8l0.1,0.1c0.4,0.7,0.7,1.4,1,2.1
			c0.1,0.3,0.2,0.6,0.3,0.9c0.2,0.4,0.3,0.9,0.4,1.3l0,0.2c0.1,0.3,0.2,0.6,0.2,0.9c0.1,0.5,0.2,1,0.3,1.7c0.1,0.5,0.1,1,0.1,1.6
			l0,0.3c0,0.2,0,0.4,0,0.6l0,0.2c0,0.1,0,0.2,0,0.2c0,0.4,0,0.8-0.1,1.2c0,0.4-0.1,0.9-0.1,1.3c-0.5,3.2-1.6,6.3-3.3,9.1
			c-0.3,0.5-0.7,0.9-1.1,1.3c-0.1,0.1-0.3,0.2-0.4,0.4c0.4,0.5,0.8,1.1,1.1,1.7c0.2-0.2,0.5-0.4,0.7-0.6c0.6-0.5,1-1.1,1.4-1.8
			c1.9-3,3.1-6.3,3.6-9.9c0.1-0.5,0.1-0.9,0.2-1.4c0-0.4,0.1-0.9,0.1-1.3l-1,0l1,0L195.3,144.6z"/>
		<path d="M217.2,136h-2.8c-2.9,0-5.5-1.8-6.5-4.5c-0.3-0.7-0.6-1.4-0.9-2.1c-1.2-2.6-0.6-5.8,1.4-7.8l2-2c0.6-0.6,0.9-1.4,0.9-2.3
			c0-0.9-0.3-1.7-0.9-2.3l-7.2-7.2c-1.2-1.2-3.3-1.2-4.6,0l-2,2c-1.3,1.3-3.1,2-4.9,2c-1,0-2-0.2-2.9-0.6c-0.7-0.3-1.4-0.6-2.2-0.9
			c-2.7-1-4.5-3.7-4.5-6.5v-2.8c0-1.8-1.4-3.2-3.2-3.2h-10.2c-1.8,0-3.2,1.4-3.2,3.2v2.8c0,2.9-1.8,5.5-4.5,6.5
			c-0.7,0.3-1.4,0.6-2.1,0.9c-0.9,0.4-1.9,0.6-2.9,0.6c-1.9,0-3.6-0.7-4.9-2l-2-2c-1.2-1.2-3.3-1.2-4.6,0l-7.2,7.2
			c-0.6,0.6-0.9,1.4-0.9,2.3s0.3,1.7,0.9,2.3l2,2c2,2.1,2.6,5.2,1.4,7.8c-0.3,0.7-0.6,1.4-0.9,2.2c0,0.1-0.1,0.2-0.1,0.3
			c0.9-1.2,2-2.1,3.3-2.8c0.9-3.1,0.1-6.6-2.2-9l-2-2c-0.2-0.2-0.3-0.5-0.3-0.8c0-0.3,0.1-0.6,0.3-0.8l7.2-7.2
			c0.5-0.5,1.2-0.5,1.7,0l2,2c1.7,1.7,4,2.6,6.4,2.6c1.3,0,2.6-0.3,3.7-0.8c0.7-0.3,1.3-0.6,2-0.8c3.5-1.3,5.8-4.7,5.8-8.4v-2.8
			c0-0.7,0.5-1.2,1.2-1.2h10.2c0.7,0,1.2,0.5,1.2,1.2v2.8c0,3.7,2.4,7.1,5.8,8.4c0.7,0.3,1.4,0.5,2,0.8c1.2,0.5,2.4,0.8,3.7,0.8
			c2.4,0,4.7-0.9,6.4-2.6l2-2c0.5-0.5,1.2-0.4,1.7,0l7.2,7.2c0.2,0.2,0.3,0.5,0.3,0.8c0,0.3-0.1,0.6-0.3,0.8l-2,2
			c-2.6,2.7-3.3,6.7-1.8,10.1c0.3,0.7,0.6,1.3,0.8,2c1.3,3.5,4.7,5.8,8.4,5.8h2.8c0.7,0,1.2,0.5,1.2,1.2v10.2c0,0.7-0.5,1.2-1.2,1.2
			h-2.8c-3.7,0-7.1,2.4-8.4,5.8c-0.3,0.7-0.5,1.4-0.8,2c-1.5,3.4-0.8,7.5,1.8,10.1l2,2c0.5,0.5,0.5,1.2,0,1.7l-7.2,7.2
			c-0.4,0.4-1.2,0.4-1.7,0l-2-2c-1.7-1.7-4-2.6-6.4-2.6c-0.8,0-1.5,0.1-2.3,0.3c-0.6,1.2-1.3,2.2-2.3,3.1c0.5-0.2,1.1-0.4,1.7-0.7
			c0.9-0.4,1.9-0.6,2.9-0.6c1.9,0,3.6,0.7,4.9,2l2,2c1.2,1.2,3.3,1.2,4.6,0l7.2-7.2c1.3-1.3,1.3-3.3,0-4.6l-2-2
			c-2-2.1-2.6-5.2-1.4-7.8c0.3-0.7,0.6-1.4,0.9-2.1c1-2.7,3.7-4.5,6.5-4.5h2.8c1.8,0,3.2-1.4,3.2-3.2v-10.2
			C220.4,137.4,219,136,217.2,136z"/>
	</g>
	<path class="st4" d="M180.6,162.5h-1.9c-2.3,0-4.3-1.4-5.2-3.6c-0.2-0.5-0.4-1-0.6-1.4c-0.9-2.1-0.5-4.6,1.1-6.2l1.4-1.4
		c0.3-0.3,0.4-0.7,0.4-1.1s-0.2-0.8-0.4-1.1l-5-5c-0.3-0.3-0.7-0.4-1.1-0.4c-0.4,0-0.8,0.2-1.1,0.4l-1.4,1.4c-1,1-2.4,1.6-3.9,1.6
		c-0.8,0-1.6-0.2-2.3-0.5c-0.5-0.2-1-0.4-1.4-0.6c-2.1-0.8-3.6-2.9-3.6-5.2v-1.9c0-0.8-0.7-1.5-1.5-1.5h-7c-0.8,0-1.5,0.7-1.5,1.5
		v1.9c0,2.3-1.4,4.3-3.6,5.2c-0.5,0.2-1,0.4-1.4,0.6c-0.7,0.3-1.5,0.5-2.3,0.5c-1.5,0-2.9-0.6-3.9-1.6l-1.4-1.4
		c-0.3-0.3-0.7-0.4-1.1-0.4c-0.4,0-0.8,0.2-1.1,0.4l-5,5c-0.3,0.3-0.4,0.7-0.4,1.1c0,0.4,0.2,0.8,0.4,1.1l1.4,1.4
		c1.6,1.6,2,4.1,1.1,6.2c-0.2,0.5-0.4,1-0.6,1.4c-0.8,2.1-2.9,3.6-5.2,3.6h-1.9c-0.8,0-1.5,0.7-1.5,1.5v7c0,0.8,0.7,1.5,1.5,1.5h1.9
		c2.3,0,4.3,1.4,5.2,3.6c0.2,0.5,0.4,1,0.6,1.4c0.9,2.1,0.5,4.6-1.1,6.2l-1.4,1.4c-0.6,0.6-0.6,1.6,0,2.1l5,5
		c0.3,0.3,0.7,0.4,1.1,0.4c0.4,0,0.8-0.2,1.1-0.4l1.4-1.4c1-1,2.4-1.6,3.9-1.6c0.8,0,1.6,0.2,2.3,0.5c0.5,0.2,1,0.4,1.4,0.6
		c2.1,0.8,3.6,2.9,3.6,5.2v1.9c0,0.8,0.7,1.5,1.5,1.5h7c0.8,0,1.5-0.7,1.5-1.5v-1.9c0-2.3,1.4-4.3,3.6-5.2c0.5-0.2,1-0.4,1.4-0.6
		c0.7-0.3,1.5-0.5,2.3-0.5c1.5,0,2.9,0.6,3.9,1.6l1.4,1.4c0.3,0.3,0.7,0.4,1.1,0.4c0.4,0,0.8-0.2,1.1-0.4l5-5c0.6-0.6,0.6-1.6,0-2.1
		l-1.4-1.4c-1.6-1.6-2-4.1-1.1-6.2c0.2-0.5,0.4-1,0.6-1.4c0.8-2.1,2.9-3.6,5.2-3.6h1.9c0.8,0,1.5-0.7,1.5-1.5v-7
		C182.2,163.2,181.5,162.5,180.6,162.5z M166.8,167.8c0,0.3,0,0.6,0,1c0,0.4-0.1,0.7-0.1,1c-0.4,2.6-1.3,5.1-2.7,7.3
		c-0.3,0.4-0.6,0.8-1,1.2c-1.4,1.3-2.9,2.4-4.6,3.3l-0.1,0h0c-0.3,0.1-0.5,0.3-0.8,0.4l-0.2,0.1c-0.2,0.1-0.3,0.2-0.5,0.2
		c-0.3,0.1-0.5,0.2-0.7,0.3l-0.1,0c-0.2,0.1-0.4,0.1-0.6,0.2c-0.3,0.1-0.6,0.2-0.9,0.2l-0.2,0c-0.1,0-0.2,0.1-0.4,0.1
		c-0.4,0.1-0.9,0.2-1.3,0.2c-0.1,0-0.2,0-0.2,0c-0.6,0.1-1.1,0.1-1.6,0.1c-0.2,0-0.3,0-0.5,0c-0.1,0-0.2,0-0.3,0l-0.2,0
		c-0.3,0-0.7,0-1-0.1c-0.6-0.1-1.3-0.2-1.9-0.4h0l-0.1,0c-5.7-1.5-10.1-5.9-11.6-11.6c-1.1-4.2-0.5-8.5,1.7-12.2
		c2.2-3.7,5.7-6.3,9.8-7.4c0.6-0.1,1.2-0.2,1.7-0.3c0.2,0,0.4-0.1,0.6-0.1c0.4,0,0.8-0.1,1.1-0.1c0.1,0,0.1,0,0.2,0
		c0.1,0,0.2,0,0.3,0c3.4,0,6.8,1.1,9.6,3.2l0.3,0.2c0.2,0.2,0.5,0.4,0.7,0.6c0.2,0.2,0.4,0.3,0.5,0.5l0.1,0.1
		c0.1,0.1,0.3,0.2,0.4,0.4c0.3,0.3,0.5,0.6,0.8,0.8c0.1,0.1,0.1,0.1,0.2,0.2c0.6,0.7,1.1,1.5,1.6,2.3l0,0.1c0.3,0.6,0.6,1.2,0.8,1.7
		c0.1,0.2,0.2,0.5,0.3,0.7c0.1,0.4,0.2,0.7,0.3,1.1l0,0.1c0.1,0.2,0.1,0.5,0.2,0.7c0.1,0.4,0.2,0.8,0.2,1.4c0.1,0.4,0.1,0.9,0.1,1.3
		l0,0.2c0,0.2,0,0.3,0,0.5C166.8,167.6,166.8,167.8,166.8,167.8z"/>
	<path class="st5" d="M180.6,162.5h-1.9c-2.3,0-4.3-1.4-5.2-3.6c-0.2-0.5-0.4-1-0.6-1.4c-0.9-2.1-0.5-4.6,1.1-6.2l1.4-1.4
		c0.3-0.3,0.4-0.7,0.4-1.1s-0.2-0.8-0.4-1.1l-5-5c-0.3-0.3-0.7-0.4-1.1-0.4c-0.4,0-0.8,0.2-1.1,0.4l-1.4,1.4c-1,1-2.4,1.6-3.9,1.6
		c0,0,0,0,0,0c4.4,3.9,15.3,16,5.9,33.7c-6.5,12.2-19.3,12.6-24.9,12.1c1,1,1.7,2.4,1.7,3.9v1.9c0,0.8,0.7,1.5,1.5,1.5h7
		c0.8,0,1.5-0.7,1.5-1.5v-1.9c0-2.3,1.4-4.3,3.6-5.2c0.5-0.2,1-0.4,1.4-0.6c0.7-0.3,1.5-0.5,2.3-0.5c1.5,0,2.9,0.6,3.9,1.6l1.4,1.4
		c0.3,0.3,0.7,0.4,1.1,0.4c0.4,0,0.8-0.2,1.1-0.4l5-5c0.6-0.6,0.6-1.6,0-2.1l-1.4-1.4c-1.6-1.6-2-4.1-1.1-6.2c0.2-0.5,0.4-1,0.6-1.4
		c0.8-2.1,2.9-3.6,5.2-3.6h1.9c0.8,0,1.5-0.7,1.5-1.5v-7c0-0.3-0.1-0.6-0.3-0.9l-0.9-0.6C180.9,162.5,180.8,162.5,180.6,162.5z"/>
	<g>
		<path d="M154.2,200h-7c-1.4,0-2.5-1.1-2.5-2.5v-1.9c0-1.9-1.2-3.5-2.9-4.2c-0.5-0.2-1-0.4-1.5-0.6c-1.7-0.8-3.7-0.4-5,0.9
			l-1.4,1.4c-1,1-2.6,1-3.6,0l-5-5c-0.5-0.5-0.7-1.1-0.7-1.8s0.3-1.3,0.7-1.8l1.4-1.4c1.3-1.3,1.7-3.3,0.9-5c-0.2-0.5-0.4-1-0.6-1.5
			c-0.7-1.7-2.4-2.9-4.2-2.9h-1.9c-1.4,0-2.5-1.1-2.5-2.5v-7c0-1.4,1.1-2.5,2.5-2.5h1.9c1.9,0,3.5-1.2,4.2-2.9
			c0.2-0.5,0.4-1,0.6-1.5c0.8-1.7,0.4-3.7-0.9-5l-1.4-1.4c-0.5-0.5-0.7-1.1-0.7-1.8c0-0.7,0.3-1.3,0.7-1.8l5-5c1-1,2.6-1,3.6,0
			l1.4,1.4c1.3,1.3,3.4,1.7,5,0.9c0.5-0.2,1-0.4,1.5-0.6c1.7-0.7,2.9-2.4,2.9-4.2v-1.9c0-1.4,1.1-2.5,2.5-2.5h7
			c1.4,0,2.5,1.1,2.5,2.5v1.9c0,1.9,1.2,3.5,2.9,4.2c0.5,0.2,1,0.4,1.5,0.6c1.7,0.8,3.7,0.4,5-0.9l1.4-1.4c1-1,2.6-1,3.6,0l5,5
			c0.5,0.5,0.7,1.1,0.7,1.8c0,0.7-0.3,1.3-0.7,1.8l-1.4,1.4c-1.3,1.3-1.7,3.3-0.9,5c0.2,0.5,0.4,1,0.6,1.5c0.7,1.7,2.4,2.9,4.2,2.9
			h1.9c1.4,0,2.5,1.1,2.5,2.5v7c0,1.4-1.1,2.5-2.5,2.5h-1.9c-1.9,0-3.5,1.2-4.2,2.9c-0.2,0.5-0.4,1-0.6,1.5c-0.8,1.7-0.4,3.7,0.9,5
			l1.4,1.4c1,1,1,2.6,0,3.6l-5,5c-1,1-2.6,1-3.6,0l-1.4-1.4c-1.3-1.3-3.4-1.7-5-0.9c-0.5,0.2-1,0.4-1.5,0.6
			c-1.7,0.7-2.9,2.4-2.9,4.2v1.9C156.8,198.9,155.6,200,154.2,200z M138.4,188.3c0.9,0,1.8,0.2,2.7,0.6c0.5,0.2,0.9,0.4,1.4,0.6
			c2.5,1,4.2,3.4,4.2,6.1v1.9c0,0.3,0.2,0.5,0.5,0.5h7c0.3,0,0.5-0.2,0.5-0.5v-1.9c0-2.7,1.7-5.1,4.2-6.1c0.5-0.2,0.9-0.4,1.4-0.6
			c0.9-0.4,1.8-0.6,2.7-0.6c1.7,0,3.4,0.7,4.6,1.9l1.4,1.4c0.2,0.2,0.5,0.2,0.7,0l5-5c0.2-0.2,0.2-0.5,0-0.7l-1.4-1.4
			c-1.9-1.9-2.4-4.9-1.3-7.3c0.2-0.5,0.4-0.9,0.6-1.4c1-2.5,3.4-4.2,6.1-4.2h1.9c0.3,0,0.5-0.2,0.5-0.5v-7c0-0.3-0.2-0.5-0.5-0.5
			h-1.9c-2.7,0-5.1-1.7-6.1-4.2c-0.2-0.5-0.4-0.9-0.6-1.4c-1.1-2.5-0.6-5.4,1.3-7.3l1.4-1.4c0.1-0.1,0.1-0.2,0.1-0.4
			c0-0.1-0.1-0.3-0.1-0.4l-5-5c-0.2-0.2-0.5-0.2-0.7,0l-1.4,1.4c-1.2,1.2-2.9,1.9-4.6,1.9c-0.9,0-1.9-0.2-2.7-0.6
			c-0.5-0.2-0.9-0.4-1.4-0.6c-2.5-1-4.2-3.4-4.2-6.1v-1.9c0-0.3-0.2-0.5-0.5-0.5h-7c-0.3,0-0.5,0.2-0.5,0.5v1.9
			c0,2.7-1.7,5.1-4.2,6.1c-0.5,0.2-0.9,0.4-1.4,0.6c-0.9,0.4-1.8,0.6-2.7,0.6c-1.7,0-3.4-0.7-4.6-1.9l-1.4-1.4
			c-0.2-0.2-0.5-0.2-0.7,0l-5,5c-0.1,0.1-0.1,0.2-0.1,0.4c0,0.1,0.1,0.3,0.1,0.4l1.4,1.4c1.9,1.9,2.4,4.9,1.3,7.3
			c-0.2,0.5-0.4,0.9-0.6,1.4c-1,2.5-3.4,4.2-6.1,4.2h-1.9c-0.3,0-0.5,0.2-0.5,0.5v7c0,0.3,0.2,0.5,0.5,0.5h1.9
			c2.7,0,5.1,1.7,6.1,4.2c0.2,0.5,0.4,0.9,0.6,1.4c1.1,2.5,0.6,5.4-1.3,7.3l-1.4,1.4c-0.2,0.2-0.2,0.5,0,0.7l5,5
			c0.2,0.2,0.5,0.2,0.7,0l1.4-1.4C135,188.9,136.6,188.3,138.4,188.3z"/>
	</g>
	<g>
		<path d="M150.7,184.7c-0.2,0-0.4,0-0.6,0l-0.5,0c-0.4,0-0.8,0-1.1-0.1c-0.6-0.1-1.3-0.2-1.9-0.3l-0.2,0
			c-6.1-1.6-10.8-6.3-12.3-12.3c-1.1-4.4-0.5-9,1.8-13c2.3-3.9,6-6.7,10.5-7.9c0.6-0.2,1.2-0.3,1.9-0.3c0.2,0,0.4-0.1,0.6-0.1
			c0.4,0,0.8-0.1,1.2-0.1l0.1,0c0.2,0,0.3,0,0.5,0c3.7,0,7.3,1.2,10.2,3.4l0.3,0.2c0.3,0.2,0.5,0.4,0.7,0.6c0.2,0.2,0.4,0.3,0.6,0.5
			c0.2,0.2,0.3,0.3,0.5,0.5c0.3,0.3,0.5,0.6,0.8,0.9c0.1,0.1,0.1,0.2,0.2,0.2c0.6,0.8,1.2,1.6,1.7,2.5l0.1,0.1
			c0.3,0.6,0.6,1.2,0.8,1.8c0.1,0.3,0.2,0.5,0.3,0.8c0.1,0.4,0.3,0.8,0.4,1.2l0,0.1c0.1,0.2,0.1,0.5,0.2,0.8
			c0.1,0.4,0.2,0.9,0.2,1.4c0.1,0.5,0.1,0.9,0.1,1.4l0,0.2c0,0.2,0,0.4,0,0.6c0,0,0,0.1,0,0.2l0,0.1c0,0.3,0,0.7-0.1,1
			c0,0.4-0.1,0.7-0.1,1.1c-0.4,2.8-1.4,5.4-2.8,7.7c-0.3,0.5-0.7,1-1.2,1.4c-1.4,1.4-3,2.5-4.8,3.5l-0.2,0.1
			c-0.2,0.1-0.5,0.2-0.7,0.3l-0.2,0.1c-0.2,0.1-0.4,0.2-0.6,0.3c-0.3,0.1-0.5,0.2-0.8,0.3l-0.1,0c-0.2,0.1-0.4,0.2-0.7,0.2
			c-0.3,0.1-0.7,0.2-1,0.3l-0.2,0c-0.1,0-0.3,0.1-0.4,0.1c-0.5,0.1-0.9,0.2-1.4,0.2c-0.1,0-0.2,0-0.3,0
			C151.8,184.6,151.2,184.7,150.7,184.7z M146.9,182.1l0.1,0c0.6,0.1,1.2,0.3,1.8,0.3c0.3,0,0.6,0.1,0.9,0.1l0.2,0
			c0.1,0,0.2,0,0.3,0c0.2,0,0.3,0,0.5,0c0.4,0,0.9,0,1.5-0.1l0.1,0c0.5-0.1,0.9-0.1,1.3-0.2c0.1,0,0.2,0,0.3-0.1l0.2,0
			c0.3-0.1,0.6-0.1,0.9-0.2c0.2-0.1,0.4-0.1,0.6-0.2l0.1,0c0.2-0.1,0.5-0.2,0.7-0.3c0.2-0.1,0.3-0.1,0.4-0.2l0.2-0.1
			c0.3-0.1,0.5-0.2,0.8-0.4l0.2-0.1c1.5-0.9,2.9-1.9,4.2-3c0.3-0.3,0.6-0.6,0.8-1c1.3-2.1,2.2-4.5,2.5-6.9c0-0.3,0.1-0.6,0.1-1
			c0-0.3,0-0.6,0-0.9l0,0c0,0,0-0.1,0-0.2l0-0.1c0-0.1,0-0.3,0-0.4l0-0.2c0-0.4,0-0.8-0.1-1.2c-0.1-0.5-0.1-0.9-0.2-1.3
			c0-0.2-0.1-0.4-0.2-0.7l0-0.1c-0.1-0.3-0.2-0.7-0.3-1c-0.1-0.2-0.2-0.5-0.3-0.7c-0.2-0.5-0.5-1-0.8-1.6l-0.1-0.1
			c-0.4-0.7-0.9-1.5-1.5-2.1c0,0-0.1-0.1-0.1-0.2c-0.3-0.3-0.5-0.6-0.7-0.8c-0.1-0.1-0.2-0.2-0.3-0.3c-0.2-0.2-0.4-0.4-0.6-0.5
			c-0.2-0.2-0.4-0.3-0.6-0.5l-0.3-0.2c-2.6-1.9-5.8-3-9-3c-0.1,0-0.2,0-0.2,0l-0.3,0c-0.4,0-0.7,0-1.1,0.1c-0.2,0-0.4,0-0.6,0.1
			c-0.6,0.1-1.1,0.2-1.6,0.3c-3.9,1-7.2,3.5-9.2,6.9c-2,3.5-2.6,7.5-1.6,11.4C137.5,176.6,141.6,180.7,146.9,182.1z"/>
	</g>
	<path d="M118.4,181.9H82.2v-24.5h31.5c0.8-0.8,1.7-1.5,2.7-2H80.2V184h37.5C117.8,183.3,118.1,182.6,118.4,181.9z"/>
</g>
</svg>
