<?xml version="1.0" encoding="utf-8"?>
<!-- Generator: Adobe Illustrator 24.3.0, SVG Export Plug-In . SVG Version: 6.00 Build 0)  -->
<svg version="1.1" id="Capa_1" xmlns="http://www.w3.org/2000/svg" xmlns:xlink="http://www.w3.org/1999/xlink" x="0px" y="0px"
	 viewBox="0 0 300 200" style="enable-background:new 0 0 300 200;" xml:space="preserve">
<style type="text/css">
	.st0{fill:#5F7993;}
	.st1{fill:#17B5C8;}
	.st2{fill:#11828F;}
	.st3{fill:#405162;}
	.st4{fill:#A6D100;}
	.st5{fill:#89AB00;}
	.st6{fill:#FFFFFF;}
	.st7{fill:none;stroke:#17B5C8;stroke-width:2;stroke-miterlimit:10;}
</style>
<g>
	<g>
		<g>
			<polygon class="st1" points="94.2,1.3 94.2,32 145.3,32 145.3,1.4 			"/>
		</g>
		<g>
			<path class="st2" d="M102,1.4c0,0-2.2,2.6-2.2,7.2s0,18.3,0,18.3s0.4,5,3.8,5.7h-9.5V1.3L102,1.4z"/>
		</g>
	</g>
	<g>
		<g>
			<polygon class="st0" points="174.6,59.6 174.6,90.4 205.9,90.4 205.9,59.7 			"/>
		</g>
		<g>
			<path class="st3" d="M182.4,59.7c0,0-2.2,2.6-2.2,7.2c0,4.6,0,18.3,0,18.3s0.4,5,3.8,5.7h-9.5V59.6L182.4,59.7z"/>
		</g>
	</g>
	<g>
		<g>
			<polygon class="st4" points="97.5,75.9 119.3,97.7 141.4,75.6 119.7,53.9 			"/>
		</g>
		<g>
			<path class="st5" d="M103.1,70.5c0,0,0.3,3.4,3.5,6.7s12.9,12.9,12.9,12.9s3.8,3.2,6.7,1.3l-6.7,6.7L97.4,76L103.1,70.5z"/>
		</g>
	</g>
	<g>
		<path class="st1" d="M99.8,194.6c0,0,0.2,2.8,1.8,4.5h36.6l-0.3-28.9h-36.7c-0.6,1.2-1.5,3.2-1.5,6.1
			C99.8,180.9,99.8,194.6,99.8,194.6z"/>
		<path class="st2" d="M95.2,171v27.3c0,0.4,0.4,0.8,0.8,0.8h5.7c-1.6-1.7-1.8-4.5-1.8-4.5s0-13.7,0-18.3c0-2.8,0.8-4.9,1.5-6.1
			h-5.3C95.5,170.2,95.2,170.5,95.2,171z"/>
	</g>
	<g>
		<g>
			<circle class="st4" cx="119.2" cy="133.2" r="16.2"/>
		</g>
	</g>
	<path class="st5" d="M116.6,118.1c-5.7-0.5-5.3,2.3-9.8,4.6c-2.4,2.8-3.9,6.5-3.9,10.5c0,1.7,0.3,3.3,0.7,4.9l5.5,7.9
		c0.2,0.2,0.4,0.3,0.7,0.5l6.8,1.4c-3.4-2.9-7.7-6.8-8.2-14.6C107.9,125.4,116.6,118.1,116.6,118.1z"/>
	<g>
		<path d="M146.3,33H93.5V-0.1h52.8V33z M95.5,31.1h48.8V1.9H95.5V31.1z"/>
	</g>
	<g>
		<path d="M119.6,98.2L96.6,75.2l22.9-22.9l22.9,22.9L119.6,98.2z M99.4,75.2l20.1,20.1l20.1-20.1l-20.1-20.1L99.4,75.2z"/>
	</g>
	<g>
		<rect x="118.5" y="32.4" width="2" height="22.1"/>
	</g>
	<g>
		<rect x="118.5" y="96.5" width="2" height="20.6"/>
	</g>
	<g>
		<rect x="118.5" y="148.5" width="2" height="20.6"/>
	</g>
	<g>
		<path d="M119.4,150.2c-9.4,0-17-7.6-17-17c0-9.4,7.6-17,17-17s17,7.6,17,17C136.4,142.6,128.8,150.2,119.4,150.2z M119.4,118.2
			c-8.3,0-15,6.7-15,15c0,8.3,6.7,15,15,15s15-6.7,15-15C134.4,125,127.7,118.2,119.4,118.2z"/>
	</g>
	<g>
		<path d="M139.2,199.9H94.2V169h45.1V199.9z M96.1,197.9h41.1V171H96.1V197.9z"/>
	</g>
	<g>
		<path d="M206.9,91.3H174V58.4h32.9V91.3z M176,89.4h28.9V60.4H176V89.4z"/>
	</g>
	<g>
		<rect x="141.1" y="74.3" width="33.9" height="2"/>
	</g>
</g>
</svg>
