<?xml version="1.0" encoding="UTF-8" standalone="no"?>
<!-- Created with Inkscape (http://www.inkscape.org/) -->

<svg
   xmlns:dc="http://purl.org/dc/elements/1.1/"
   xmlns:cc="http://creativecommons.org/ns#"
   xmlns:rdf="http://www.w3.org/1999/02/22-rdf-syntax-ns#"
   xmlns:svg="http://www.w3.org/2000/svg"
   xmlns="http://www.w3.org/2000/svg"
   xmlns:sodipodi="http://sodipodi.sourceforge.net/DTD/sodipodi-0.dtd"
   xmlns:inkscape="http://www.inkscape.org/namespaces/inkscape"
   width="300"
   height="200"
   viewBox="0 0 79.374998 52.916668"
   version="1.1"
   id="svg8"
   sodipodi:docname="workflow-engine.svg"
   inkscape:version="0.92.3 (2405546, 2018-03-11)">
  <defs
     id="defs2">
    <marker
       inkscape:stockid="Arrow1Lend"
       orient="auto"
       refY="0.0"
       refX="0.0"
       id="marker1325"
       style="overflow:visible;"
       inkscape:isstock="true">
      <path
         id="path1323"
         d="M 0.0,0.0 L 5.0,-5.0 L -12.5,0.0 L 5.0,5.0 L 0.0,0.0 z "
         style="fill-rule:evenodd;stroke:#000000;stroke-width:1pt;stroke-opacity:1;fill:#000000;fill-opacity:1"
         transform="scale(0.8) rotate(180) translate(12.5,0)" />
    </marker>
    <marker
       inkscape:stockid="Arrow1Lend"
       orient="auto"
       refY="0.0"
       refX="0.0"
       id="marker1319"
       style="overflow:visible;"
       inkscape:isstock="true">
      <path
         id="path1317"
         d="M 0.0,0.0 L 5.0,-5.0 L -12.5,0.0 L 5.0,5.0 L 0.0,0.0 z "
         style="fill-rule:evenodd;stroke:#000000;stroke-width:1pt;stroke-opacity:1;fill:#000000;fill-opacity:1"
         transform="scale(0.8) rotate(180) translate(12.5,0)" />
    </marker>
    <marker
       inkscape:stockid="Arrow1Lend"
       orient="auto"
       refY="0.0"
       refX="0.0"
       id="marker1303"
       style="overflow:visible;"
       inkscape:isstock="true">
      <path
         id="path1301"
         d="M 0.0,0.0 L 5.0,-5.0 L -12.5,0.0 L 5.0,5.0 L 0.0,0.0 z "
         style="fill-rule:evenodd;stroke:#000000;stroke-width:1pt;stroke-opacity:1;fill:#000000;fill-opacity:1"
         transform="scale(0.8) rotate(180) translate(12.5,0)" />
    </marker>
    <marker
       inkscape:stockid="Arrow1Lend"
       orient="auto"
       refY="0.0"
       refX="0.0"
       id="marker1297"
       style="overflow:visible;"
       inkscape:isstock="true">
      <path
         id="path1295"
         d="M 0.0,0.0 L 5.0,-5.0 L -12.5,0.0 L 5.0,5.0 L 0.0,0.0 z "
         style="fill-rule:evenodd;stroke:#000000;stroke-width:1pt;stroke-opacity:1;fill:#000000;fill-opacity:1"
         transform="scale(0.8) rotate(180) translate(12.5,0)" />
    </marker>
    <marker
       inkscape:stockid="Arrow1Lend"
       orient="auto"
       refY="0.0"
       refX="0.0"
       id="marker1291"
       style="overflow:visible;"
       inkscape:isstock="true">
      <path
         id="path1289"
         d="M 0.0,0.0 L 5.0,-5.0 L -12.5,0.0 L 5.0,5.0 L 0.0,0.0 z "
         style="fill-rule:evenodd;stroke:#000000;stroke-width:1pt;stroke-opacity:1;fill:#000000;fill-opacity:1"
         transform="scale(0.8) rotate(180) translate(12.5,0)" />
    </marker>
    <marker
       inkscape:stockid="Arrow1Lend"
       orient="auto"
       refY="0.0"
       refX="0.0"
       id="Arrow1Lend"
       style="overflow:visible;"
       inkscape:isstock="true">
      <path
         id="path1020"
         d="M 0.0,0.0 L 5.0,-5.0 L -12.5,0.0 L 5.0,5.0 L 0.0,0.0 z "
         style="fill-rule:evenodd;stroke:#000000;stroke-width:1pt;stroke-opacity:1;fill:#000000;fill-opacity:1"
         transform="scale(0.8) rotate(180) translate(12.5,0)" />
    </marker>
    <inkscape:perspective
       sodipodi:type="inkscape:persp3d"
       inkscape:vp_x="0 : 26.458334 : 1"
       inkscape:vp_y="0 : 1000 : 0"
       inkscape:vp_z="79.374998 : 26.458334 : 1"
       inkscape:persp3d-origin="39.687499 : 17.638889 : 1"
       id="perspective929" />
    <clipPath
       clipPathUnits="userSpaceOnUse"
       id="clipPath8857">
      <rect
         style="opacity:1;fill:#637792;fill-opacity:1;fill-rule:nonzero;stroke:none;stroke-width:0.60000002;stroke-linecap:round;stroke-linejoin:round;stroke-miterlimit:4;stroke-dasharray:none;stroke-opacity:1"
         id="rect8859"
         width="45.120911"
         height="26.552826"
         x="27.119791"
         y="255.56435" />
    </clipPath>
    <marker
       inkscape:stockid="Arrow1Lend"
       orient="auto"
       refY="0"
       refX="0"
       id="marker1291-5"
       style="overflow:visible"
       inkscape:isstock="true">
      <path
         inkscape:connector-curvature="0"
         id="path1289-6"
         d="M 0,0 5,-5 -12.5,0 5,5 Z"
         style="fill:#000000;fill-opacity:1;fill-rule:evenodd;stroke:#000000;stroke-width:1.00000003pt;stroke-opacity:1"
         transform="matrix(-0.8,0,0,-0.8,-10,0)" />
    </marker>
  </defs>
  <sodipodi:namedview
     id="base"
     pagecolor="#ffffff"
     bordercolor="#666666"
     borderopacity="1.0"
     inkscape:pageopacity="0.0"
     inkscape:pageshadow="2"
     inkscape:zoom="1.979899"
     inkscape:cx="225.42083"
     inkscape:cy="128.74251"
     inkscape:document-units="mm"
     inkscape:current-layer="layer1"
     showgrid="false"
     units="px"
     inkscape:measure-start="260.872,98.995"
     inkscape:measure-end="260.872,122.228"
     showguides="true"
     inkscape:guide-bbox="true"
     inkscape:window-width="1920"
     inkscape:window-height="1016"
     inkscape:window-x="0"
     inkscape:window-y="27"
     inkscape:window-maximized="1"
     inkscape:snap-global="false" />
  <metadata
     id="metadata5">
    <rdf:RDF>
      <cc:Work
         rdf:about="">
        <dc:format>image/svg+xml</dc:format>
        <dc:type
           rdf:resource="http://purl.org/dc/dcmitype/StillImage" />
        <dc:title></dc:title>
      </cc:Work>
    </rdf:RDF>
  </metadata>
  <g
     inkscape:label="Layer 1"
     inkscape:groupmode="layer"
     id="layer1"
     transform="translate(0,-244.08332)">
    <path
       style="opacity:1;fill:#22b9d8;fill-opacity:1;fill-rule:nonzero;stroke:#000000;stroke-width:0.60000002;stroke-miterlimit:4;stroke-dasharray:none;stroke-opacity:1"
       d="m 38.133195,245.64109 h 10.205357 c 3.108979,0.001 2.691941,4.58274 0,4.53571 H 38.133195 c -2.99229,-0.0315 -3.275815,-4.6617 0,-4.53571 z"
       id="rect987"
       inkscape:connector-curvature="0"
       sodipodi:nodetypes="ccccc" />
    <rect
       style="opacity:1;fill:#9ec73c;fill-opacity:1;fill-rule:nonzero;stroke:#000000;stroke-width:0.60000002;stroke-miterlimit:4;stroke-dasharray:none;stroke-opacity:1"
       id="rect990"
       width="7.2830944"
       height="7.2830944"
       x="211.16574"
       y="151.91534"
       transform="rotate(44.642077)" />
    <path
       style="opacity:1;fill:#637792;fill-opacity:1;fill-rule:nonzero;stroke:#000000;stroke-width:0.60000002;stroke-miterlimit:4;stroke-dasharray:none;stroke-opacity:1"
       d="m 74.635017,259.3317 c 1.34582,-0.0498 2.028456,-0.0615 1.904296,2.57248 0.06302,2.5669 -0.570729,2.59475 -1.920999,2.58918 h -9.512328 c -1.284797,-0.0111 -1.991518,-0.0223 -2.030376,-2.58918 0.0081,-2.1731 0.459815,-2.57361 2.141226,-2.58918 z"
       id="rect992"
       inkscape:connector-curvature="0"
       sodipodi:nodetypes="ccccccc" />
    <path
       style="opacity:1;fill:#9ec73c;fill-opacity:1;fill-rule:nonzero;stroke:#000000;stroke-width:0.60000002;stroke-miterlimit:4;stroke-dasharray:none;stroke-opacity:1"
       id="path996"
       sodipodi:type="arc"
       sodipodi:cx="43.698566"
       sodipodi:cy="278.29114"
       sodipodi:rx="3.0067821"
       sodipodi:ry="3.0067821"
       sodipodi:start="2.8258975"
       sodipodi:end="2.8219531"
       sodipodi:open="true"
       d="m 40.840377,279.22468 a 3.0067821,3.0067821 0 0 1 1.921834,-3.79081 3.0067821,3.0067821 0 0 1 3.792698,1.91809 3.0067821,3.0067821 0 0 1 -1.914354,3.79459 3.0067821,3.0067821 0 0 1 -3.796473,-1.91061" />
    <path
       style="opacity:1;fill:#22b9d8;fill-opacity:1;fill-rule:nonzero;stroke:#000000;stroke-width:0.60000002;stroke-miterlimit:4;stroke-dasharray:none;stroke-opacity:1"
       d="m 38.281771,291.39231 h 10.205358 c 3.108979,10e-4 2.691941,4.58274 0,4.53571 H 38.281771 c -2.99229,-0.0315 -3.275815,-4.6617 0,-4.53571 z"
       id="rect987-5"
       inkscape:connector-curvature="0"
       sodipodi:nodetypes="ccccc" />
    <path
       style="fill:none;fill-rule:evenodd;stroke:#000000;stroke-width:0.30000001;stroke-linecap:butt;stroke-linejoin:miter;stroke-miterlimit:4;stroke-dasharray:none;stroke-opacity:1;marker-end:url(#Arrow1Lend)"
       d="m 43.212367,250.1768 0.178591,6.40332"
       id="path1015"
       inkscape:connector-type="polyline"
       inkscape:connector-curvature="0"
       inkscape:connection-start="#rect987"
       inkscape:connection-end="#rect990" />
    <path
       style="fill:none;fill-rule:evenodd;stroke:#000000;stroke-width:0.30000001;stroke-linecap:butt;stroke-linejoin:miter;stroke-miterlimit:4;stroke-dasharray:none;stroke-opacity:1;marker-end:url(#marker1291)"
       d="m 48.595496,261.67495 14.480557,0.15659"
       id="path1287"
       inkscape:connector-type="polyline"
       inkscape:connector-curvature="0"
       inkscape:connection-start="#rect990"
       inkscape:connection-end="#rect992" />
    <path
       style="fill:none;fill-rule:evenodd;stroke:#000000;stroke-width:0.30000001;stroke-linecap:butt;stroke-linejoin:miter;stroke-miterlimit:4;stroke-dasharray:none;stroke-opacity:1;marker-end:url(#marker1303)"
       d="m 43.582931,266.75053 0.08551,8.53398"
       id="path1299"
       inkscape:connector-type="polyline"
       inkscape:connector-curvature="0"
       inkscape:connection-start="#rect990"
       inkscape:connection-end="#path996"
       sodipodi:nodetypes="cc" />
    <path
       style="display:inline;fill:none;fill-rule:evenodd;stroke:#000000;stroke-width:0.26458332px;stroke-linecap:butt;stroke-linejoin:miter;stroke-opacity:1"
       d="m 69.490076,264.72719 0.200453,13.96483"
       id="path1313"
       inkscape:connector-type="polyline"
       inkscape:connector-curvature="0" />
    <path
       style="fill:none;fill-rule:evenodd;stroke:#000000;stroke-width:0.30000001;stroke-linecap:butt;stroke-linejoin:miter;stroke-miterlimit:4;stroke-dasharray:none;stroke-opacity:1;marker-end:url(#marker1325)"
       d="m 43.631749,281.2979 0.06682,9.82216"
       id="path1321"
       inkscape:connector-type="polyline"
       inkscape:connector-curvature="0" />
    <path
       style="fill:none;fill-rule:evenodd;stroke:#000000;stroke-width:0.30000001;stroke-linecap:butt;stroke-linejoin:miter;stroke-miterlimit:4;stroke-dasharray:none;stroke-opacity:1;marker-end:url(#marker1291-5)"
       d="m 69.562351,278.56586 -21.526327,0.018"
       id="path1287-2"
       inkscape:connector-type="polyline"
       inkscape:connector-curvature="0" />
    <path
       style="fill:none;stroke:#ffffff;stroke-width:0.60000002;stroke-linecap:butt;stroke-linejoin:miter;stroke-miterlimit:4;stroke-dasharray:none;stroke-opacity:1"
       d="m 39.956795,261.58678 c 3.474503,-3.40769 3.541321,-3.34087 3.474503,-3.40769 -0.06682,-0.0668 1.202714,1.33635 1.202714,1.33635"
       id="path1348"
       inkscape:connector-curvature="0"
       sodipodi:nodetypes="ccc" />
    <path
       style="fill:none;stroke:#ffffff;stroke-width:0.60000002;stroke-linecap:butt;stroke-linejoin:miter;stroke-miterlimit:4;stroke-dasharray:none;stroke-opacity:1"
       d="m 37.578176,249.03588 c -1.250199,-1.25795 -0.238441,-2.41956 0.757799,-2.43913 -0.06682,-0.0668 4.864359,-0.0338 4.864359,-0.0338"
       id="path1348-9"
       inkscape:connector-curvature="0"
       sodipodi:nodetypes="ccc" />
    <path
       style="fill:none;stroke:#ffffff;stroke-width:0.60000002;stroke-linecap:butt;stroke-linejoin:miter;stroke-miterlimit:4;stroke-dasharray:none;stroke-opacity:1"
       d="m 37.647889,295.02334 c -1.250199,-1.25795 -0.238441,-2.41956 0.757799,-2.43913 -0.06682,-0.0668 4.864359,-0.0338 4.864359,-0.0338"
       id="path1348-9-1"
       inkscape:connector-curvature="0"
       sodipodi:nodetypes="ccc" />
    <path
       style="fill:none;stroke:#ffffff;stroke-width:0.60000002;stroke-linecap:butt;stroke-linejoin:miter;stroke-miterlimit:4;stroke-dasharray:none;stroke-opacity:1"
       d="m 42.301721,279.2901 c -0.706859,-0.87998 -0.318755,-1.79683 0.238082,-2.36826 0.556836,-0.57143 1.604314,-0.75675 2.289396,0.13156"
       id="path1348-9-2"
       inkscape:connector-curvature="0"
       sodipodi:nodetypes="czc" />
    <path
       style="fill:none;stroke:#ffffff;stroke-width:0.60000002;stroke-linecap:butt;stroke-linejoin:miter;stroke-miterlimit:4;stroke-dasharray:none;stroke-opacity:1"
       d="m 64.141515,262.17 c -0.04951,-1.71288 0.216774,-1.77299 1.626425,-1.80437 -0.06682,-0.0668 4.764134,0.033 4.764134,0.033"
       id="path1348-9-1-7"
       inkscape:connector-curvature="0"
       sodipodi:nodetypes="ccc" />
    <path
       style="opacity:1;fill:#637792;fill-opacity:1;fill-rule:nonzero;stroke:#00000e;stroke-width:0.60000002;stroke-linecap:round;stroke-linejoin:round;stroke-miterlimit:4;stroke-dasharray:none;stroke-opacity:1"
       d="m 17.789226,252.51635 v 3.80855 0 c -1.471784,0.35984 -2.013947,0.55041 -3.289205,1.27486 v 0 l -2.713529,-2.6727 -3.9382608,3.99872 2.7130118,2.6727 v 0 c -1.1765578,1.807 -1.3106298,2.20052 -1.8872228,4.20801 v 0 l -3.8085526,-0.0506 -0.0739,5.61258 3.8080356,0.0501 v 0 c 0.263178,1.41598 0.291361,1.87869 1.4670938,3.24424 v 0 l -2.9460728,2.41381 3.5568878,4.34185 2.946074,-2.4138 v 0 c 1.83599,1.25602 2.062416,1.41906 4.165637,1.74201 v 0 3.80855 H 23.4018 v -3.80855 0 c 1.998232,-0.5069 2.323696,-0.69279 3.956863,-1.70894 v 0 l 2.71353,2.6727 3.938778,-3.99872 -2.71353,-2.6727 v 0 c 0.742625,-1.45414 0.907066,-2.08546 1.254705,-3.70572 v 0 l 3.808036,0.0506 0.07441,-5.61257 -3.808549,-0.0501 v 0 c -0.408879,-1.69953 -0.663276,-2.36866 -1.621608,-3.86333 v 0 l 2.679941,-2.7063 -3.987871,-3.94963 -2.660304,2.68666 c -1.167217,-0.73869 -2.295292,-1.26747 -3.634402,-1.56373 v 0 -3.80855 z"
       id="path2220"
       inkscape:connector-curvature="0"
       sodipodi:nodetypes="cccccccccccccccccccccccccccccccccccccccccccccccc" />
    <path
       style="opacity:1;fill:#9ec73c;fill-opacity:1;fill-rule:nonzero;stroke:#00000e;stroke-width:0.60000002;stroke-linecap:round;stroke-linejoin:round;stroke-miterlimit:4;stroke-dasharray:none;stroke-opacity:1"
       d="m 20.127609,276.55351 c -4.490232,-0.26384 -8.112559,-4.1289 -7.819707,-8.57992 0.292854,-4.45101 4.266845,-7.83256 8.88144,-7.55739 4.614598,0.27517 8.206361,3.624 7.848949,8.55503 -0.357412,4.93103 -4.420451,7.84612 -8.910682,7.58228 z"
       id="path3744"
       inkscape:connector-curvature="0"
       sodipodi:nodetypes="zsszz" />
    <path
       style="opacity:1;fill:#ffffff;fill-opacity:1;fill-rule:nonzero;stroke:#00000e;stroke-width:0.60000002;stroke-linecap:round;stroke-linejoin:round;stroke-miterlimit:4;stroke-dasharray:none;stroke-opacity:1"
       d="m 20.394876,271.11841 c -1.414277,-0.0861 -2.55519,-1.34727 -2.462952,-2.79964 0.09224,-1.45238 1.343917,-2.55579 2.797362,-2.466 1.453447,0.0898 2.584735,1.18252 2.472162,2.79152 -0.112573,1.60901 -1.392296,2.56021 -2.806572,2.47412 z"
       id="path3744-0-9-3"
       inkscape:connector-curvature="0"
       sodipodi:nodetypes="zsszz" />
    <path
       style="opacity:1;fill:none;fill-opacity:1;fill-rule:nonzero;stroke:#00000e;stroke-width:0.60000002;stroke-linecap:round;stroke-linejoin:round;stroke-miterlimit:4;stroke-dasharray:none;stroke-opacity:1"
       d="m 25.591978,268.64701 c -0.213953,3.05803 -2.646155,4.86586 -5.334083,4.70224 -2.687932,-0.16364 -4.733736,-2.48824 -4.74783,-5.25409 -0.0067,-1.32062 0.506199,-2.26177 1.197983,-3.13674"
       id="path3744-0-9-3-6"
       inkscape:connector-curvature="0"
       sodipodi:nodetypes="czsc" />
    <path
       style="opacity:1;fill:none;fill-opacity:1;fill-rule:nonzero;stroke:#ffffff;stroke-width:0.73725146;stroke-linecap:round;stroke-linejoin:round;stroke-miterlimit:4;stroke-dasharray:none;stroke-opacity:1"
       d="m 10.599557,280.4632 -2.5668708,-3.23395 2.1872198,-1.85842"
       id="rect4221-1-7"
       inkscape:connector-curvature="0"
       sodipodi:nodetypes="ccc" />
    <path
       style="opacity:1;fill:none;fill-opacity:1;fill-rule:nonzero;stroke:#ffffff;stroke-width:0.72786558;stroke-linecap:round;stroke-linejoin:round;stroke-miterlimit:4;stroke-dasharray:none;stroke-opacity:1"
       d="m 5.5570976,270.622 0.09853,-4.18327"
       id="rect4221-8-9"
       inkscape:connector-curvature="0"
       sodipodi:nodetypes="cc" />
    <path
       style="opacity:1;fill:none;fill-opacity:1;fill-rule:nonzero;stroke:#ffffff;stroke-width:0.78411549;stroke-linecap:round;stroke-linejoin:round;stroke-miterlimit:4;stroke-dasharray:none;stroke-opacity:1"
       d="m 10.869887,260.92304 -1.9884968,-1.95729 3.0013458,-2.98883"
       id="rect4221-2"
       inkscape:connector-curvature="0"
       sodipodi:nodetypes="ccc" />
  </g>
</svg>
