<?xml version="1.0" encoding="UTF-8" standalone="no"?>
<svg
   xmlns:dc="http://purl.org/dc/elements/1.1/"
   xmlns:cc="http://creativecommons.org/ns#"
   xmlns:rdf="http://www.w3.org/1999/02/22-rdf-syntax-ns#"
   xmlns:svg="http://www.w3.org/2000/svg"
   xmlns="http://www.w3.org/2000/svg"
   xmlns:sodipodi="http://sodipodi.sourceforge.net/DTD/sodipodi-0.dtd"
   xmlns:inkscape="http://www.inkscape.org/namespaces/inkscape"
   height="32"
   id="Layer_1"
   version="1.1"
   viewBox="0 0 32 51.2"
   width="32"
   xml:space="preserve"
   sodipodi:docname="calendar.svg"
   inkscape:version="0.92.5 (2060ec1f9f, 2020-04-08)"><metadata
   id="metadata9"><rdf:RDF><cc:Work
       rdf:about=""><dc:format>image/svg+xml</dc:format><dc:type
         rdf:resource="http://purl.org/dc/dcmitype/StillImage" /><dc:title /></cc:Work></rdf:RDF></metadata><defs
   id="defs7" /><sodipodi:namedview
   pagecolor="#ffffff"
   bordercolor="#666666"
   borderopacity="1"
   objecttolerance="10"
   gridtolerance="10"
   guidetolerance="10"
   inkscape:pageopacity="0"
   inkscape:pageshadow="2"
   inkscape:window-width="1920"
   inkscape:window-height="1016"
   id="namedview5"
   showgrid="false"
   inkscape:zoom="19.625"
   inkscape:cx="6.6390316"
   inkscape:cy="12.233367"
   inkscape:window-x="0"
   inkscape:window-y="27"
   inkscape:window-maximized="1"
   inkscape:current-layer="Layer_1"
   inkscape:pagecheckerboard="true" />
  
<rect
   style="opacity:1;fill:#ffffff;fill-opacity:1;fill-rule:nonzero;stroke:#ffffff;stroke-width:3.16420937;stroke-linecap:butt;stroke-linejoin:round;stroke-miterlimit:4;stroke-dasharray:none;stroke-dashoffset:0;stroke-opacity:1"
   id="rect2587-6"
   width="40.704754"
   height="38.136658"
   x="-4.500442"
   y="7.638133" /><rect
   style="opacity:1;fill:#17b5c8;fill-opacity:1;fill-rule:nonzero;stroke:#22b9d8;stroke-width:2.77559447;stroke-linecap:butt;stroke-linejoin:round;stroke-miterlimit:4;stroke-dasharray:none;stroke-dashoffset:0;stroke-opacity:0.97244095"
   id="rect2587"
   width="36.485607"
   height="32.737671"
   x="-2.3685155"
   y="10.560964" /><rect
   style="opacity:1;fill:#ffffff;fill-opacity:1;fill-rule:nonzero;stroke:#ffffff;stroke-width:2.54091454;stroke-linecap:butt;stroke-linejoin:round;stroke-miterlimit:4;stroke-dasharray:none;stroke-dashoffset:0;stroke-opacity:1"
   id="rect2589"
   width="30.642466"
   height="23.500172"
   x="0.58841407"
   y="17.831556" /><rect
   style="opacity:1;fill:#17b5c8;fill-opacity:1;fill-rule:nonzero;stroke:#ffffff;stroke-width:2.22575974;stroke-linecap:butt;stroke-linejoin:round;stroke-miterlimit:4;stroke-dasharray:none;stroke-dashoffset:0;stroke-opacity:1"
   id="rect2591"
   width="5.04809"
   height="10.642325"
   x="4.3557038"
   y="3.1343393"
   ry="3.9309487" /><rect
   style="opacity:1;fill:#17b5c8;fill-opacity:1;fill-rule:nonzero;stroke:#ffffff;stroke-width:2.15503931;stroke-linecap:butt;stroke-linejoin:round;stroke-miterlimit:4;stroke-dasharray:none;stroke-dashoffset:0;stroke-opacity:1"
   id="rect2591-3"
   width="4.9254618"
   height="10.225169"
   x="23.382483"
   y="3.4684579"
   ry="3.7768638" /><g
   aria-label="31"
   style="font-style:normal;font-weight:normal;font-size:25.60000038px;line-height:1.25;font-family:sans-serif;letter-spacing:0px;word-spacing:0px;fill:#17b5c8;fill-opacity:1;stroke:none;stroke-width:1.60000002"
   id="text839"
   transform="matrix(0.86737326,0,0,0.86737326,0.82950654,5.5736333)"><path
     d="m 12.271497,27.603741 q 1.8875,0.4875 2.8625,1.7 0.9875,1.2 0.9875,3.0625 0,2.775 -2.125,4.225 -2.125,1.4375 -6.2000002,1.4375 -1.4375001,0 -2.8875001,-0.2375 -1.4375,-0.225 -2.85,-0.6875 v -3.7125 q 1.35,0.675 2.675,1.025 1.3375,0.3375 2.625,0.3375 1.9125001,0 2.9250003,-0.6625 1.025,-0.6625 1.025,-1.9 0,-1.275 -1.05,-1.925 -1.0375002,-0.6625 -3.0750003,-0.6625 h -1.925 v -3.1 h 2.025 q 1.8125001,0 2.7000001,-0.5625 0.8875002,-0.575 0.8875002,-1.737501 0,-1.075 -0.8625,-1.6625 -0.8625002,-0.5875 -2.4375003,-0.5875 -1.1625,0 -2.35,0.2625 -1.1875,0.2625 -2.3625,0.775 v -3.525 q 1.425,-0.4 2.825,-0.6 1.4,-0.2 2.7500001,-0.2 3.6375002,0 5.4375002,1.2 1.8125,1.1875 1.8125,3.5875 0,1.637501 -0.8625,2.687501 -0.8625,1.0375 -2.55,1.4625 z"
     style="font-style:normal;font-variant:normal;font-weight:bold;font-stretch:normal;font-family:sans-serif;-inkscape-font-specification:'sans-serif Bold';fill:#17b5c8;stroke-width:1.60000002"
     id="path841"
     inkscape:connector-curvature="0" /><path
     d="m 21.146498,34.341241 h 4.25 V 22.27874 l -4.3625,0.9 v -3.275 l 4.3375,-0.9 h 4.575 v 15.337501 h 4.25 v 3.325 h -13.05 z"
     style="font-style:normal;font-variant:normal;font-weight:bold;font-stretch:normal;font-family:sans-serif;-inkscape-font-specification:'sans-serif Bold';fill:#17b5c8;stroke-width:1.60000002"
     id="path843"
     inkscape:connector-curvature="0" /></g></svg>