<?xml version="1.0" encoding="UTF-8" standalone="no"?>
<svg
   xmlns:dc="http://purl.org/dc/elements/1.1/"
   xmlns:cc="http://creativecommons.org/ns#"
   xmlns:rdf="http://www.w3.org/1999/02/22-rdf-syntax-ns#"
   xmlns:svg="http://www.w3.org/2000/svg"
   xmlns="http://www.w3.org/2000/svg"
   xmlns:sodipodi="http://sodipodi.sourceforge.net/DTD/sodipodi-0.dtd"
   xmlns:inkscape="http://www.inkscape.org/namespaces/inkscape"
   height="32"
   id="Layer_1"
   version="1.1"
   viewBox="0 0 32 51.2"
   width="32"
   xml:space="preserve"
   sodipodi:docname="help.svg"
   inkscape:version="0.92.5 (2060ec1f9f, 2020-04-08)"><metadata
   id="metadata9"><rdf:RDF><cc:Work
       rdf:about=""><dc:format>image/svg+xml</dc:format><dc:type
         rdf:resource="http://purl.org/dc/dcmitype/StillImage" /><dc:title /></cc:Work></rdf:RDF></metadata><defs
   id="defs7" /><sodipodi:namedview
   pagecolor="#ffffff"
   bordercolor="#666666"
   borderopacity="1"
   objecttolerance="10"
   gridtolerance="10"
   guidetolerance="10"
   inkscape:pageopacity="0"
   inkscape:pageshadow="2"
   inkscape:window-width="1920"
   inkscape:window-height="1016"
   id="namedview5"
   showgrid="false"
   inkscape:zoom="9.8125"
   inkscape:cx="-2.2929938"
   inkscape:cy="10"
   inkscape:window-x="0"
   inkscape:window-y="27"
   inkscape:window-maximized="1"
   inkscape:current-layer="Layer_1" />
  
<path
   style="opacity:1;fill:#17b5c8;fill-opacity:1;fill-rule:nonzero;stroke:none;stroke-width:3.62834668;stroke-linecap:round;stroke-linejoin:round;stroke-miterlimit:4;stroke-dasharray:none;stroke-opacity:1"
   id="path1553"
   sodipodi:type="arc"
   sodipodi:cx="16.489172"
   sodipodi:cy="25.6"
   sodipodi:rx="25.763058"
   sodipodi:ry="25.763058"
   sodipodi:start="2.8258975"
   sodipodi:end="2.8219531"
   sodipodi:open="true"
   d="M -8.0006955,33.598846 A 25.763058,25.763058 0 0 1 8.4661806,1.1180325 25.763058,25.763058 0 0 1 40.963217,17.552871 25.763058,25.763058 0 0 1 24.560431,50.066098 25.763058,25.763058 0 0 1 -7.9689544,33.695382" /><g
   transform="matrix(6.0472442,0,0,6.0472442,-10.409825,-1743.91)"
   aria-label="?"
   style="font-style:normal;font-weight:normal;font-size:9.50300121px;line-height:1.25;font-family:sans-serif;letter-spacing:0px;word-spacing:0px;fill:#ffffff;fill-opacity:1;stroke:none;stroke-width:0.23757505"
   id="text1442"><path
     inkscape:connector-curvature="0"
     d="m 3.8392993,294.88595 h 0.9419478 v 1.17859 H 3.8392993 Z m 0.914107,-0.6821 H 3.8671401 v -0.71458 q 0,-0.46866 0.1299238,-0.77026 0.1299239,-0.30161 0.5475362,-0.70067 l 0.4176124,-0.41297 q 0.2644878,-0.24592 0.3804913,-0.46401 0.1206435,-0.21809 0.1206435,-0.44545 0,-0.41298 -0.306249,-0.66818 -0.301609,-0.25521 -0.8027438,-0.25521 -0.3665708,0 -0.7841832,0.1624 -0.4129722,0.16241 -0.8630655,0.4733 v -0.87235 q 0.4361729,-0.26449 0.8816261,-0.39441 0.4500933,-0.12992 0.9280274,-0.12992 0.8537853,0 1.3688405,0.45009 0.5196954,0.45009 0.5196954,1.18787 0,0.35265 -0.1670449,0.67282 -0.167045,0.31553 -0.5846573,0.71459 l -0.4083321,0.39905 q -0.2180865,0.21808 -0.3108892,0.34337 -0.088163,0.12064 -0.1252837,0.23664 -0.027841,0.0975 -0.041761,0.23665 -0.01392,0.13921 -0.01392,0.38049 z"
     style="stroke-width:0.23757505;fill:#ffffff;fill-opacity:1"
     id="path1498" /></g></svg>