<?xml version="1.0" encoding="UTF-8" standalone="no"?>
<svg
   xmlns:dc="http://purl.org/dc/elements/1.1/"
   xmlns:cc="http://creativecommons.org/ns#"
   xmlns:rdf="http://www.w3.org/1999/02/22-rdf-syntax-ns#"
   xmlns:svg="http://www.w3.org/2000/svg"
   xmlns="http://www.w3.org/2000/svg"
   xmlns:sodipodi="http://sodipodi.sourceforge.net/DTD/sodipodi-0.dtd"
   xmlns:inkscape="http://www.inkscape.org/namespaces/inkscape"
   height="32"
   id="Layer_1"
   version="1.1"
   viewBox="0 0 32 51.2"
   width="32"
   xml:space="preserve"
   sodipodi:docname="key.svg"
   inkscape:version="0.92.3 (2405546, 2018-03-11)"><metadata
   id="metadata9"><rdf:RDF><cc:Work
       rdf:about=""><dc:format>image/svg+xml</dc:format><dc:type
         rdf:resource="http://purl.org/dc/dcmitype/StillImage" /><dc:title></dc:title></cc:Work></rdf:RDF></metadata><defs
   id="defs7" /><sodipodi:namedview
   pagecolor="#ffffff"
   bordercolor="#666666"
   borderopacity="1"
   objecttolerance="10"
   gridtolerance="10"
   guidetolerance="10"
   inkscape:pageopacity="0"
   inkscape:pageshadow="2"
   inkscape:window-width="1920"
   inkscape:window-height="1016"
   id="namedview5"
   showgrid="false"
   inkscape:zoom="13.876971"
   inkscape:cx="22.511647"
   inkscape:cy="14.006"
   inkscape:window-x="0"
   inkscape:window-y="27"
   inkscape:window-maximized="1"
   inkscape:current-layer="Layer_1"
   inkscape:pagecheckerboard="true"
   inkscape:snap-global="true"
   showguides="true"
   inkscape:guide-bbox="true"><sodipodi:guide
     position="3.9994319,24.385725"
     orientation="0,1"
     id="guide3103"
     inkscape:locked="false" /><sodipodi:guide
     position="2.7023188,21.618551"
     orientation="0,1"
     id="guide3105"
     inkscape:locked="false" /></sodipodi:namedview>
  
<path
   style="fill:#9ec73c;stroke:#000000;stroke-width:1.60000002;stroke-linecap:butt;stroke-linejoin:miter;stroke-miterlimit:4;stroke-dasharray:none;stroke-opacity:1"
   d="M 23.725598,20.465822 H -3.1525276 l -5.2562501,5.521875 3.8593751,6.51875 3.1281249,-3.19375 3.0593751,3.19375 2.7281257,-3.19375 2.6593744,3.19375 2.6624992,-3.19375 2.4625013,3.19375 2.128124,-3.19375 3.459375,0.2 6.187501,0.06875 c 0,0 1.475459,10.627168 7.590163,10.555095 4.789192,-0.05645 7.091398,-3.909323 8.351128,-6.7569 C 41.12435,30.537191 41.218566,21.025495 40.089507,17.07248 39.155499,13.802367 37.063031,9.4452278 31.978813,9.4140861 26.087532,9.378001 23.725599,20.465822 23.725598,20.465822 Z m 8.959374,1.465625 c 1.607931,-6.38e-4 2.911928,1.251591 2.912501,2.796876 0.0012,1.546504 -1.303299,2.80064 -2.912501,2.8 -1.607979,-0.001 -2.910598,-1.254669 -2.909374,-2.8 5.71e-4,-1.544111 1.302664,-2.795855 2.909374,-2.796876 z"
   id="path3101"
   inkscape:connector-curvature="0"
   sodipodi:nodetypes="cccccccccccccsssscccccc" /><path
   style="fill:none;stroke:#000000;stroke-width:1.60000002px;stroke-linecap:round;stroke-linejoin:miter;stroke-opacity:1"
   d="M -0.72198187,23.200232 21.415413,23.257882"
   id="path3129"
   inkscape:connector-curvature="0" /></svg>