<?xml version="1.0" encoding="UTF-8" standalone="no"?>
<svg
   xmlns:dc="http://purl.org/dc/elements/1.1/"
   xmlns:cc="http://creativecommons.org/ns#"
   xmlns:rdf="http://www.w3.org/1999/02/22-rdf-syntax-ns#"
   xmlns:svg="http://www.w3.org/2000/svg"
   xmlns="http://www.w3.org/2000/svg"
   xmlns:sodipodi="http://sodipodi.sourceforge.net/DTD/sodipodi-0.dtd"
   xmlns:inkscape="http://www.inkscape.org/namespaces/inkscape"
   height="32"
   id="Layer_1"
   version="1.1"
   viewBox="0 0 32 51.2"
   width="32"
   xml:space="preserve"
   sodipodi:docname="pencil.svg"
   inkscape:version="0.92.5 (2060ec1f9f, 2020-04-08)"><metadata
   id="metadata9"><rdf:RDF><cc:Work
       rdf:about=""><dc:format>image/svg+xml</dc:format><dc:type
         rdf:resource="http://purl.org/dc/dcmitype/StillImage" /><dc:title /></cc:Work></rdf:RDF></metadata><defs
   id="defs7" /><sodipodi:namedview
   pagecolor="#ffffff"
   bordercolor="#666666"
   borderopacity="1"
   objecttolerance="10"
   gridtolerance="10"
   guidetolerance="10"
   inkscape:pageopacity="0"
   inkscape:pageshadow="2"
   inkscape:window-width="1920"
   inkscape:window-height="1016"
   id="namedview5"
   showgrid="false"
   inkscape:zoom="19.625001"
   inkscape:cx="15.612192"
   inkscape:cy="11.996395"
   inkscape:window-x="0"
   inkscape:window-y="27"
   inkscape:window-maximized="1"
   inkscape:current-layer="Layer_1"
   inkscape:pagecheckerboard="true"
   inkscape:snap-global="false" />
  
<path
   style="fill:#fffeff;fill-opacity:1;stroke:none;stroke-width:2.26237726px;stroke-linecap:butt;stroke-linejoin:miter;stroke-opacity:1"
   d="M -10.002357,54.88917 -4.7697772,30.988427 27.672262,-4.6311495 c 4.949837,1.2648957 16.05652,9.0980772 16.608555,18.9174585 L 10.002462,47.007014 Z"
   id="path820-7"
   inkscape:connector-curvature="0"
   sodipodi:nodetypes="cccccc" /><path
   style="fill:none;stroke:#17b5c8;stroke-width:1.8705821px;stroke-linecap:butt;stroke-linejoin:miter;stroke-opacity:1"
   d="M 2.5182084,35.900389 31.875622,4.4460139"
   id="path826"
   inkscape:connector-curvature="0" /><path
   style="fill:none;stroke:#17b5c8;stroke-width:1.8705821px;stroke-linecap:butt;stroke-linejoin:miter;stroke-opacity:1"
   d="M 6.3800182,39.356353 35.737433,7.9019793"
   id="path826-3"
   inkscape:connector-curvature="0" /><path
   style="fill:none;stroke:#17b5c8;stroke-width:1.8705821px;stroke-linecap:butt;stroke-linejoin:miter;stroke-opacity:1"
   d="M -4.1401415,48.376032 -2.0108198,34.708031 29.0561,1.6972274 c 3.094331,1.4758752 8.585257,5.1001705 9.314821,10.8398816 L 7.4884452,43.419586 Z"
   id="path820"
   inkscape:connector-curvature="0"
   sodipodi:nodetypes="cccccc" /><path
   style="fill:none;stroke:#17b5c8;stroke-width:1.8705821px;stroke-linecap:butt;stroke-linejoin:miter;stroke-opacity:1"
   d="m -2.0108198,34.708031 c 3.1597083,0.959249 8.8154563,3.295689 9.4992651,8.711556 v 0"
   id="path822"
   inkscape:connector-curvature="0"
   sodipodi:nodetypes="ccc" /><path
   style="opacity:1;fill:#17b5c8;fill-opacity:1;fill-rule:nonzero;stroke:#17b5c8;stroke-width:0.16341582;stroke-linecap:round;stroke-linejoin:round;stroke-miterlimit:4;stroke-dasharray:none;stroke-opacity:1"
   d="M 9.4544496,23.550775 C 9.2977784,23.38907 8.9663961,23.106796 8.7180445,22.923498 L 8.266496,22.590228 8.6538284,22.190624 C 8.9403338,21.895042 25.826412,3.7889628 26.315206,3.2532314 c 0.06397,-0.070117 0.220884,0.038719 0.711375,0.4934209 0.346114,0.3208592 0.662011,0.6445037 0.701992,0.7192099 0.06296,0.1176451 -1.129659,1.4239295 -8.908362,9.7573748 -4.93958,5.29185 -9.003521,9.621546 -9.0309797,9.621546 -0.027459,0 -0.1781106,-0.132303 -0.3347817,-0.294008 z"
   id="path2408"
   inkscape:connector-curvature="0"
   transform="matrix(1.6,0,0,1.6,-9.6,0)" /><path
   style="opacity:1;fill:#17b5c8;fill-opacity:1;fill-rule:nonzero;stroke:none;stroke-width:0.43230066;stroke-linecap:round;stroke-linejoin:miter;stroke-miterlimit:4;stroke-dasharray:none;stroke-opacity:1"
   d="m -1.2613767,35.457474 3.4011849,1.448683 c 1.567142,0.636936 2.362789,2.106176 3.017318,2.996197 0.543833,0.739497 2.0544429,3.319151 1.8695819,3.489125 -0.148603,0.136627 -5.7720029,2.133977 -9.9874434,3.631812 z"
   id="path824-2"
   inkscape:connector-curvature="0"
   sodipodi:nodetypes="ccsccc" /><path
   style="opacity:1;fill:#808080;fill-opacity:0.54724408;fill-rule:nonzero;stroke:none;stroke-width:0.43230066;stroke-linecap:round;stroke-linejoin:miter;stroke-miterlimit:4;stroke-dasharray:none;stroke-opacity:1"
   d="m -3.126542,35.193106 4.02303764,1.50923 c 1.56714266,0.636936 3.58571956,2.391526 4.24024816,3.281547 0.5438328,0.739497 1.7708339,2.207057 2.4466181,4.324326 l -12.836688,5.584768 z"
   id="path824"
   inkscape:connector-curvature="0"
   sodipodi:nodetypes="ccsccc" /></svg>