<?xml version="1.0" encoding="UTF-8" standalone="no"?>
<!-- Created with Inkscape (http://www.inkscape.org/) -->

<svg
   xmlns:dc="http://purl.org/dc/elements/1.1/"
   xmlns:cc="http://creativecommons.org/ns#"
   xmlns:rdf="http://www.w3.org/1999/02/22-rdf-syntax-ns#"
   xmlns:svg="http://www.w3.org/2000/svg"
   xmlns="http://www.w3.org/2000/svg"
   xmlns:sodipodi="http://sodipodi.sourceforge.net/DTD/sodipodi-0.dtd"
   xmlns:inkscape="http://www.inkscape.org/namespaces/inkscape"
   id="svg7384"
   height="16.024"
   width="16"
   version="1.1"
   sodipodi:docname="power.svg"
   inkscape:version="0.92.5 (2060ec1f9f, 2020-04-08)">
  <defs
     id="defs910" />
  <sodipodi:namedview
     pagecolor="#ffffff"
     bordercolor="#666666"
     borderopacity="1"
     objecttolerance="10"
     gridtolerance="10"
     guidetolerance="10"
     inkscape:pageopacity="0"
     inkscape:pageshadow="2"
     inkscape:window-width="1920"
     inkscape:window-height="1016"
     id="namedview908"
     showgrid="false"
     inkscape:zoom="52.608587"
     inkscape:cx="4.6070178"
     inkscape:cy="8.0120001"
     inkscape:window-x="0"
     inkscape:window-y="27"
     inkscape:window-maximized="1"
     inkscape:current-layer="svg7384"
     inkscape:pagecheckerboard="true" />
  <metadata
     id="metadata90">
    <rdf:RDF>
      <cc:Work
         rdf:about="">
        <dc:format>image/svg+xml</dc:format>
        <dc:type
           rdf:resource="http://purl.org/dc/dcmitype/StillImage" />
        <dc:title>Gnome Symbolic Icon Theme</dc:title>
      </cc:Work>
    </rdf:RDF>
  </metadata>
  <title
     id="title9167">Gnome Symbolic Icon Theme</title>
  <ellipse
     style="opacity:1;fill:#ffffff;fill-opacity:1;fill-rule:nonzero;stroke:none;stroke-width:2.14440203;stroke-linecap:round;stroke-linejoin:round;stroke-miterlimit:4;stroke-dasharray:none;stroke-opacity:1"
     id="path1469"
     cx="8.0120001"
     cy="8.0024967"
     rx="7.9739833"
     ry="7.9834871" />
  <path
     inkscape:connector-curvature="0"
     d="M 4.84,1.83 A 0.99998,1.0002 0 0 0 4.49187,1.96393 c -1.0534,0.60965 -1.9314,1.466 -2.544,2.5179 -1.9396,3.3304 -0.81232,7.6493 2.5173,9.5893 3.32962,1.94 7.6475,0.8125 9.587,-2.5179 1.9396,-3.3304 0.81232,-7.6493 -2.5173,-9.5893 a 1.0081091,1.0084091 0 1 0 -1.0176,1.7411 c 2.3957,1.3959 3.1898,4.4341 1.7942,6.8304 -1.3956,2.3963 -4.433,3.1905 -6.8288,1.7946 -2.3854,-1.3899 -3.1918,-4.4121 -1.821,-6.8036 l 0.0268,-0.0268 c 0.43759,-0.75138 1.0685,-1.3859 1.821,-1.8214 A 0.99998,1.0002 0 0 0 4.83998,1.83003 Z"
     style="color:#000000;text-indent:0;text-transform:none;fill:#17b5c8"
     id="path3869-2" />
  <path
     inkscape:connector-curvature="0"
     d="M 7.78,0.02 A 1.0001,1.0001 0 0 0 7,1.02 v 5 a 1.0001,1.0001 0 1 0 2,0 v -5 a 1.0001,1.0001 0 0 0 -1.2188,-1 z"
     style="color:#000000;text-indent:0;text-transform:none;fill:#000000"
     id="path4710" />
</svg>
