<?xml version="1.0" encoding="UTF-8" standalone="no"?>
<svg
   xmlns:dc="http://purl.org/dc/elements/1.1/"
   xmlns:cc="http://creativecommons.org/ns#"
   xmlns:rdf="http://www.w3.org/1999/02/22-rdf-syntax-ns#"
   xmlns:svg="http://www.w3.org/2000/svg"
   xmlns="http://www.w3.org/2000/svg"
   xmlns:sodipodi="http://sodipodi.sourceforge.net/DTD/sodipodi-0.dtd"
   xmlns:inkscape="http://www.inkscape.org/namespaces/inkscape"
   class="icon"
   style="width: 1em; height: 1em;vertical-align: middle;fill: currentColor;overflow: hidden;"
   viewBox="0 0 1024 1024"
   version="1.1"
   id="svg914"
   sodipodi:docname="profile.svg"
   inkscape:version="0.92.5 (2060ec1f9f, 2020-04-08)">
  <metadata
     id="metadata920">
    <rdf:RDF>
      <cc:Work
         rdf:about="">
        <dc:format>image/svg+xml</dc:format>
        <dc:type
           rdf:resource="http://purl.org/dc/dcmitype/StillImage" />
      </cc:Work>
    </rdf:RDF>
  </metadata>
  <defs
     id="defs918" />
  <sodipodi:namedview
     pagecolor="#ffffff"
     bordercolor="#666666"
     borderopacity="1"
     objecttolerance="10"
     gridtolerance="10"
     guidetolerance="10"
     inkscape:pageopacity="0"
     inkscape:pageshadow="2"
     inkscape:window-width="1920"
     inkscape:window-height="1016"
     id="namedview916"
     showgrid="false"
     inkscape:zoom="0.23046875"
     inkscape:cx="-726.77966"
     inkscape:cy="512"
     inkscape:window-x="0"
     inkscape:window-y="27"
     inkscape:window-maximized="1"
     inkscape:current-layer="svg914" />
  <ellipse
     style="opacity:1;fill:#ffffff;fill-opacity:1;fill-rule:nonzero;stroke:#ffffff;stroke-width:2;stroke-linecap:round;stroke-linejoin:round;stroke-miterlimit:4;stroke-dasharray:none;stroke-opacity:1"
     id="path1467"
     cx="507.66101"
     cy="505.49152"
     rx="516.33899"
     ry="518.50848" />
  <path
     d="M512 0q104 0 198.857143 40.571429t163.428571 109.142857 109.142857 163.428571 40.571429 198.857143q0 103.428571-40.285714 198.285714T874.857143 873.714286t-163.428572 109.428571-199.428571 40.857143-199.428571-40.571429-163.142858-109.428571-108.857142-163.428571T0 512t40.571429-198.857143 109.142857-163.428571T313.142857 40.571429 512 0z m353.714286 772q85.142857-117.142857 85.142857-260 0-89.142857-34.857143-170.285714t-93.714286-140-140-93.714286-170.285714-34.857143-170.285714 34.857143-140 93.714286-93.714286 140-34.857143 170.285714q0 142.857143 85.142857 260 37.714286-186.857143 174.857143-186.857143 74.857143 73.142857 178.857143 73.142857t178.857143-73.142857q137.142857 0 174.857143 186.857143z m-134.285715-369.714286q0-90.857143-64.285714-155.142857T512 182.857143 356.857143 247.142857 292.571429 402.285714t64.285714 155.142857T512 621.714286t155.142857-64.285715T731.428571 402.285714z"
     id="path912"
     style="fill:#17b5c8" />
</svg>
