<?xml version="1.0" encoding="UTF-8" standalone="no"?>
<!-- Created with Inkscape (http://www.inkscape.org/) -->

<svg
   xmlns:dc="http://purl.org/dc/elements/1.1/"
   xmlns:cc="http://creativecommons.org/ns#"
   xmlns:rdf="http://www.w3.org/1999/02/22-rdf-syntax-ns#"
   xmlns:svg="http://www.w3.org/2000/svg"
   xmlns="http://www.w3.org/2000/svg"
   xmlns:sodipodi="http://sodipodi.sourceforge.net/DTD/sodipodi-0.dtd"
   xmlns:inkscape="http://www.inkscape.org/namespaces/inkscape"
   width="32"
   height="32"
   viewBox="0 0 8.4666664 8.4666668"
   version="1.1"
   id="svg8"
   sodipodi:docname="question.svg"
   inkscape:version="0.92.5 (2060ec1f9f, 2020-04-08)">
  <defs
     id="defs2">
    <inkscape:perspective
       sodipodi:type="inkscape:persp3d"
       inkscape:vp_x="0 : 26.458334 : 1"
       inkscape:vp_y="0 : 999.99999 : 0"
       inkscape:vp_z="79.374997 : 26.458334 : 1"
       inkscape:persp3d-origin="39.687499 : 17.638889 : 1"
       id="perspective929" />
    <clipPath
       clipPathUnits="userSpaceOnUse"
       id="clipPath8857">
      <rect
         style="opacity:1;fill:#637792;fill-opacity:1;fill-rule:nonzero;stroke:none;stroke-width:0.60000002;stroke-linecap:round;stroke-linejoin:round;stroke-miterlimit:4;stroke-dasharray:none;stroke-opacity:1"
         id="rect8859"
         width="45.120911"
         height="26.552826"
         x="27.119791"
         y="255.56435" />
    </clipPath>
  </defs>
  <sodipodi:namedview
     id="base"
     pagecolor="#ffffff"
     bordercolor="#666666"
     borderopacity="1.0"
     inkscape:pageopacity="0.0"
     inkscape:pageshadow="2"
     inkscape:zoom="22.4"
     inkscape:cx="-4.1098056"
     inkscape:cy="17.370254"
     inkscape:document-units="mm"
     inkscape:current-layer="layer1"
     showgrid="false"
     units="px"
     inkscape:measure-start="260.872,98.995"
     inkscape:measure-end="260.872,122.228"
     showguides="true"
     inkscape:guide-bbox="true"
     inkscape:window-width="1920"
     inkscape:window-height="1016"
     inkscape:window-x="0"
     inkscape:window-y="27"
     inkscape:window-maximized="1"
     inkscape:snap-global="false"
     inkscape:pagecheckerboard="true" />
  <metadata
     id="metadata5">
    <rdf:RDF>
      <cc:Work
         rdf:about="">
        <dc:format>image/svg+xml</dc:format>
        <dc:type
           rdf:resource="http://purl.org/dc/dcmitype/StillImage" />
        <dc:title />
      </cc:Work>
    </rdf:RDF>
  </metadata>
  <g
     inkscape:label="Layer 1"
     inkscape:groupmode="layer"
     id="layer1"
     transform="translate(0,-288.53332)">
    <g
       aria-label="?"
       transform="scale(1.0270243,0.97368678)"
       style="font-style:normal;font-weight:normal;font-size:10.02133179px;line-height:1.25;font-family:sans-serif;letter-spacing:0px;word-spacing:0px;fill:#ffffff;fill-opacity:1;stroke:none;stroke-width:0.25053331"
       id="text1442-5">
      <path
         d="m 3.5108489,302.61344 1.3958588,-4e-5 0.034503,1.70386 -1.4073597,3e-5 z m 1.4125032,-0.16129 -1.4061456,-0.0121 -0.023002,-0.88701 c -0.00854,-0.32934 0.011167,-0.89137 0.1025076,-1.10341 0.09134,-0.21204 0.2378034,-0.49473 0.5313971,-0.77528 l 0.4748935,-0.4355 c 0.1859427,-0.17289 0.2276833,-0.19042 0.3092371,-0.34374 0.084816,-0.15332 0.078653,-0.18887 0.069719,-0.34844 -0.011501,-0.20541 -0.084647,-0.31898 -0.1849416,-0.43774 -0.1545351,-0.11877 -0.3792066,-0.17208 -0.6165096,-0.18421 -0.2574079,-0.0132 -0.3838494,0.10562 -0.6774431,0.21978 -0.2903315,0.11417 -0.8467327,0.42611 -1.1631614,0.64468 l -3e-7,-1.64779 c 0.2721394,-0.27086 0.6970533,-0.49441 1.01022,-0.58575 0.3164287,-0.0913 0.861162,-0.16127 1.1971637,-0.16127 0.6002361,0 1.1504093,0.34017 1.5125082,0.6566 0.3653611,0.31643 0.5250396,0.96448 0.5250396,1.48316 0,0.24792 -0.1047227,0.72705 -0.2221599,0.95214 -0.1174375,0.22183 -0.2884503,0.43662 -0.582044,0.71716 l -0.3385965,0.38442 c -0.1533211,0.15332 -0.2856051,0.26189 -0.3508482,0.34997 -0.1290384,0.15764 -0.1406788,0.32476 -0.1416529,0.49911 -0.00979,0.0979 0.009,0.23572 -0.026183,0.40125 z"
         style="fill:#ffffff;fill-opacity:1;stroke-width:0.25053331"
         id="path1468"
         inkscape:connector-curvature="0"
         sodipodi:nodetypes="cccccccsscccscsccccscscccccsc" />
    </g>
    <g
       aria-label="?"
       style="font-style:normal;font-weight:normal;font-size:9.50300121px;line-height:1.25;font-family:sans-serif;letter-spacing:0px;word-spacing:0px;fill:#17b5c8;fill-opacity:1;stroke:none;stroke-width:0.23757505"
       id="text1442">
      <path
         d="m 3.8392993,294.88595 h 0.9419478 v 1.17859 H 3.8392993 Z m 0.914107,-0.6821 H 3.8671401 v -0.71458 q 0,-0.46866 0.1299238,-0.77026 0.1299239,-0.30161 0.5475362,-0.70067 l 0.4176124,-0.41297 q 0.2644878,-0.24592 0.3804913,-0.46401 0.1206435,-0.21809 0.1206435,-0.44545 0,-0.41298 -0.306249,-0.66818 -0.301609,-0.25521 -0.8027438,-0.25521 -0.3665708,0 -0.7841832,0.1624 -0.4129722,0.16241 -0.8630655,0.4733 v -0.87235 q 0.4361729,-0.26449 0.8816261,-0.39441 0.4500933,-0.12992 0.9280274,-0.12992 0.8537853,0 1.3688405,0.45009 0.5196954,0.45009 0.5196954,1.18787 0,0.35265 -0.1670449,0.67282 -0.167045,0.31553 -0.5846573,0.71459 l -0.4083321,0.39905 q -0.2180865,0.21808 -0.3108892,0.34337 -0.088163,0.12064 -0.1252837,0.23664 -0.027841,0.0975 -0.041761,0.23665 -0.01392,0.13921 -0.01392,0.38049 z"
         style="stroke-width:0.23757505;fill:#17b5c8"
         id="path1498" />
    </g>
  </g>
</svg>
