<?xml version="1.0" encoding="UTF-8" standalone="no"?>
<!-- Created with Inkscape (http://www.inkscape.org/) -->

<svg
   xmlns:dc="http://purl.org/dc/elements/1.1/"
   xmlns:cc="http://creativecommons.org/ns#"
   xmlns:rdf="http://www.w3.org/1999/02/22-rdf-syntax-ns#"
   xmlns:svg="http://www.w3.org/2000/svg"
   xmlns="http://www.w3.org/2000/svg"
   xmlns:sodipodi="http://sodipodi.sourceforge.net/DTD/sodipodi-0.dtd"
   xmlns:inkscape="http://www.inkscape.org/namespaces/inkscape"
   width="32"
   height="32"
   viewBox="0 0 8.4666664 8.4666668"
   version="1.1"
   id="svg8"
   sodipodi:docname="refresh.svg"
   inkscape:version="0.92.5 (2060ec1f9f, 2020-04-08)">
  <defs
     id="defs2">
    <inkscape:perspective
       sodipodi:type="inkscape:persp3d"
       inkscape:vp_x="0 : 26.458334 : 1"
       inkscape:vp_y="0 : 999.99999 : 0"
       inkscape:vp_z="79.374997 : 26.458334 : 1"
       inkscape:persp3d-origin="39.687499 : 17.638889 : 1"
       id="perspective929" />
    <clipPath
       clipPathUnits="userSpaceOnUse"
       id="clipPath8857">
      <rect
         style="opacity:1;fill:#637792;fill-opacity:1;fill-rule:nonzero;stroke:none;stroke-width:0.60000002;stroke-linecap:round;stroke-linejoin:round;stroke-miterlimit:4;stroke-dasharray:none;stroke-opacity:1"
         id="rect8859"
         width="45.120911"
         height="26.552826"
         x="27.119791"
         y="255.56435" />
    </clipPath>
  </defs>
  <sodipodi:namedview
     id="base"
     pagecolor="#ffffff"
     bordercolor="#666666"
     borderopacity="1.0"
     inkscape:pageopacity="0.0"
     inkscape:pageshadow="2"
     inkscape:zoom="22.4"
     inkscape:cx="5.711623"
     inkscape:cy="17.370254"
     inkscape:document-units="mm"
     inkscape:current-layer="layer1"
     showgrid="false"
     units="px"
     inkscape:measure-start="260.872,98.995"
     inkscape:measure-end="260.872,122.228"
     showguides="true"
     inkscape:guide-bbox="true"
     inkscape:window-width="1920"
     inkscape:window-height="1016"
     inkscape:window-x="0"
     inkscape:window-y="27"
     inkscape:window-maximized="1"
     inkscape:snap-global="false"
     inkscape:pagecheckerboard="true" />
  <metadata
     id="metadata5">
    <rdf:RDF>
      <cc:Work
         rdf:about="">
        <dc:format>image/svg+xml</dc:format>
        <dc:type
           rdf:resource="http://purl.org/dc/dcmitype/StillImage" />
        <dc:title />
      </cc:Work>
    </rdf:RDF>
  </metadata>
  <g
     inkscape:label="Layer 1"
     inkscape:groupmode="layer"
     id="layer1"
     transform="translate(0,-288.53332)">
    <path
       style="fill:#ffffff;fill-opacity:1;stroke:none;stroke-width:0.26225689px;stroke-linecap:butt;stroke-linejoin:miter;stroke-opacity:1"
       d="m 6.1403435,293.56905 1.5924658,1.60413 c -0.7571082,1.03011 -1.7920149,1.84133 -3.4122018,1.82275 -1.6201869,-0.0186 -2.7246097,-0.55308 -3.59507728,-1.87365 -0.87046768,-1.32058 -0.7282996,-3.17267 -0.33309023,-4.14118 0.39520932,-0.96852 1.39551101,-1.91806 2.42351871,-2.2675 1.0280078,-0.34945 2.4016505,-0.21065 3.1241568,0.20288 0.7225062,0.41353 1.0812021,0.75812 1.3179423,1.00468 l 0.9447744,-0.59721 -0.4610646,3.53552 -3.3094004,-1.09428 0.8604629,-0.64394 c -0.3351741,-0.43042 -1.0737208,-0.35841 -1.4871308,-0.27041 -0.4134101,0.088 -0.9513501,0.46304 -1.3079201,1.02141 -0.3565699,0.55837 -0.2730742,1.35713 0.089606,1.85971 0.3626802,0.50258 0.7240088,0.78955 1.5281064,0.85273 0.9734604,0.006 1.4495666,-0.25774 2.0248519,-1.01564 z"
       id="path831-3"
       inkscape:connector-curvature="0"
       sodipodi:nodetypes="cczzzzzccccczzzcc" />
    <path
       style="fill:#17b5c8;fill-opacity:1;stroke:none;stroke-width:0.22416958px;stroke-linecap:butt;stroke-linejoin:miter;stroke-opacity:1"
       d="m 6.1927433,294.29601 0.7905981,0.78059 c -0.6596639,0.72513 -1.3349586,1.2073 -2.5819535,1.27096 -1.2469949,0.0636 -2.3739364,-0.4638 -3.1323697,-1.57118 -0.75843332,-1.10738 -0.63456311,-2.66048 -0.29021954,-3.47263 0.34434354,-0.81216 1.21590044,-1.60841 2.11159754,-1.90144 0.8956971,-0.29303 2.0925438,-0.17664 2.7220593,0.17013 0.6295154,0.34677 1.0449602,0.72488 1.2409389,1.02077 l 0.7305527,-0.54041 -0.3502651,2.24169 -2.1115975,-0.62047 0.7805906,-0.50037 c -1.0021496,-0.9255 -1.6147664,-0.92456 -2.2116731,-0.86066 -0.5969069,0.0639 -1.4772709,0.55667 -1.9114462,1.42109 -0.4341754,0.86442 -0.2996771,1.69272 0.1501136,2.36178 0.4497906,0.66906 0.8366547,1.03847 2.0415445,1.15087 0.8481702,0.005 1.5202866,-0.31517 2.0215294,-0.95072 z"
       id="path831"
       inkscape:connector-curvature="0"
       sodipodi:nodetypes="cczzzzzccccczzzcc" />
  </g>
</svg>
