<?xml version="1.0" encoding="UTF-8" standalone="no"?>
<svg
   xmlns:dc="http://purl.org/dc/elements/1.1/"
   xmlns:cc="http://creativecommons.org/ns#"
   xmlns:rdf="http://www.w3.org/1999/02/22-rdf-syntax-ns#"
   xmlns:svg="http://www.w3.org/2000/svg"
   xmlns="http://www.w3.org/2000/svg"
   xmlns:sodipodi="http://sodipodi.sourceforge.net/DTD/sodipodi-0.dtd"
   xmlns:inkscape="http://www.inkscape.org/namespaces/inkscape"
   height="32"
   id="Layer_1"
   version="1.1"
   viewBox="0 0 32 51.2"
   width="32"
   xml:space="preserve"
   sodipodi:docname="rule.svg"
   inkscape:version="0.92.5 (2060ec1f9f, 2020-04-08)"><metadata
   id="metadata9"><rdf:RDF><cc:Work
       rdf:about=""><dc:format>image/svg+xml</dc:format><dc:type
         rdf:resource="http://purl.org/dc/dcmitype/StillImage" /><dc:title /></cc:Work></rdf:RDF></metadata><defs
   id="defs7"><marker
     inkscape:stockid="Arrow1Lend"
     orient="auto"
     refY="0.0"
     refX="0.0"
     id="marker1991"
     style="overflow:visible;"
     inkscape:isstock="true"><path
       id="path1989"
       d="M 0.0,0.0 L 5.0,-5.0 L -12.5,0.0 L 5.0,5.0 L 0.0,0.0 z "
       style="fill-rule:evenodd;stroke:#22b9d8;stroke-width:1pt;stroke-opacity:1;fill:#22b9d8;fill-opacity:1"
       transform="scale(0.8) rotate(180) translate(12.5,0)" /></marker><marker
     inkscape:stockid="Arrow1Lend"
     orient="auto"
     refY="0.0"
     refX="0.0"
     id="Arrow1Lend"
     style="overflow:visible;"
     inkscape:isstock="true"><path
       id="path1728"
       d="M 0.0,0.0 L 5.0,-5.0 L -12.5,0.0 L 5.0,5.0 L 0.0,0.0 z "
       style="fill-rule:evenodd;stroke:#22b9d8;stroke-width:1pt;stroke-opacity:1;fill:#22b9d8;fill-opacity:1"
       transform="scale(0.8) rotate(180) translate(12.5,0)" /></marker></defs><sodipodi:namedview
   pagecolor="#ffffff"
   bordercolor="#666666"
   borderopacity="1"
   objecttolerance="10"
   gridtolerance="10"
   guidetolerance="10"
   inkscape:pageopacity="0"
   inkscape:pageshadow="2"
   inkscape:window-width="1920"
   inkscape:window-height="1016"
   id="namedview5"
   showgrid="false"
   inkscape:zoom="13.876971"
   inkscape:cx="6.5938344"
   inkscape:cy="9.7156308"
   inkscape:window-x="0"
   inkscape:window-y="27"
   inkscape:window-maximized="1"
   inkscape:current-layer="Layer_1"
   showguides="true"
   inkscape:guide-bbox="true"
   inkscape:pagecheckerboard="true"><sodipodi:guide
     position="-21.808917,56.580892"
     orientation="1,0"
     id="guide910"
     inkscape:locked="false" /></sodipodi:namedview>
  
<path
   sodipodi:nodetypes="ccccccccccccccccccccccccccccccccccccccccccccccc"
   inkscape:connector-curvature="0"
   id="path2220-7-9-3"
   d="m 37.346536,12.373053 -5.184219,1.54871 v 0 c -1.272226,-2.080509 -1.307585,-1.77863 -2.211463,-2.845076 v 0 L 32.499139,6.2733861 22.681013,1.1019216 19.705084,6.1281942 v 0 C 16.447164,5.2654935 17.932238,5.4966256 14.680862,5.6649133 v 0 L 13.343689,0.12005192 3.6685855,3.742941 4.9247396,9.2562433 C 3.5780248,10.65837 3.4384961,10.384451 2.6083348,11.902278 v 0 l -5.0134383,-3.6215426 -5.1779398,8.0889346 4.5417242,4.113308 v 0 c -0.9275749,3.493557 -1.2269189,3.006267 -0.643649,6.420419 v 0 l -4.5515154,1.819994 3.0314806,9.328186 5.03940224,-0.588985 v 0 c 1.75434766,2.815 0.80889261,1.662534 3.13041206,3.646179 v 0 l -1.0789296,4.745624 7.7296482,4.165113 2.787954,-4.13519 v 0 c 2.518871,0.379324 2.09163,0.473214 4.656526,0.157178 v 0 l 2.475034,4.38431 8.523786,-2.625109 -1.185412,-5.235983 v 0 c 2.300677,-1.526056 1.833488,-0.253211 3.555216,-2.518779 v 0 l 5.267869,1.809061 4.784457,-10.123884 -5.217091,-2.721734 c 0.501482,-2.189494 0.48247,-1.671429 0.244779,-3.892929 v 0 l 4.681586,-2.711926 z"
   style="opacity:1;fill:#ffffff;fill-opacity:1;fill-rule:nonzero;stroke:#ffffff;stroke-width:0.95630366;stroke-linecap:round;stroke-linejoin:round;stroke-miterlimit:4;stroke-dasharray:none;stroke-opacity:1" /><path
   sodipodi:nodetypes="cccccccccccccccccccccccccccccccccccccccccccccccc"
   inkscape:connector-curvature="0"
   id="path2220-7-9"
   d="m 35.773014,15.157536 -5.072972,1.199512 v 0 c -1.10924,-1.813974 -1.592446,-2.45552 -3.084224,-3.837719 v 0 L 29.335001,7.2758357 23.68999,4.2748078 20.743459,9.0592761 v 0 C 17.902909,8.3070962 17.337965,8.3075618 14.503123,8.45429 v 0 L 12.28171,3.2176696 6.2587577,5.4214137 7.2534578,10.932103 v 0 C 5.54815,11.936443 4.9654997,12.186878 3.7258882,14.395224 v 0 l -4.9240704,-2.303097 -3.0569371,5.494476 3.95988347,3.586352 v 0 c -0.80874387,3.045996 -0.91894667,3.425358 -0.41039951,6.402122 v 0 l -4.72238046,2.391058 1.939422,6.172856 5.2482912,-1.016171 v 0 c 1.5295987,2.45437 1.9116016,2.806676 3.9357104,4.536196 v 0 l -1.5438756,5.243468 5.3822744,2.726768 3.0339564,-4.51018 v 0 c 2.196178,0.330727 3.080271,0.261798 5.316578,-0.01372 v 0 l 2.30875,4.77765 5.672561,-1.836429 -0.731963,-5.419688 v 0 c 2.005938,-1.330553 2.754673,-1.980012 4.255829,-3.955339 v 0 l 5.095641,1.627566 2.713866,-5.710545 -4.448202,-3.076748 C 33.188061,27.602823 33.372539,25.842906 33.1653,23.906 v 0 l 4.634731,-2.666083 z"
   style="opacity:1;fill:#17b5c8;fill-opacity:1;fill-rule:nonzero;stroke:#22b9d8;stroke-width:0.83379155;stroke-linecap:round;stroke-linejoin:round;stroke-miterlimit:4;stroke-dasharray:none;stroke-opacity:1" /><ellipse
   style="opacity:1;fill:#ffffff;fill-opacity:1;fill-rule:nonzero;stroke:none;stroke-width:1.57244337;stroke-linecap:round;stroke-linejoin:round;stroke-miterlimit:4;stroke-dasharray:none;stroke-dashoffset:0;stroke-opacity:0.05118109"
   id="path1768"
   cx="16.312868"
   cy="25.657093"
   rx="8.924201"
   ry="9.332428" /></svg>