<svg id="Capa_1" data-name="Capa 1" xmlns="http://www.w3.org/2000/svg" viewBox="0 0 125.64 108.46"><defs><style>.cls-1{fill:#5f7993;}.cls-2{fill:#3a5368;}.cls-3{fill:#a6d100;}.cls-4{fill:#6cab00;}.cls-5{fill:#17b5c8;}.cls-6{fill:#02809d;}.cls-7{fill:none;}</style></defs><polygon class="cls-1" points="52.57 87.21 75.15 87.21 77.93 100.61 83.9 106.8 43.82 106.8 47.71 100.61 52.57 87.21"/><path class="cls-2" d="M51.16,93.27S70.07,89.6,73.74,106H83.9l-6-3.15L75.15,87.21l-24-.31Z"/><path class="cls-3" d="M.92,71H124.26s-.28,18.86-9,15.92L7.69,87.21.92,81.42Z"/><path class="cls-4" d="M102.32,71s.77,16.23-27.17,16.23h41.49l7.62-4.95V71Z"/><path class="cls-5" d="M29.32,27.87H96.87l4.24,6.31-1.27,4.61-4.31,1.57H29S25.41,37.28,25.35,37s-.93-5.37-.93-5.37Z"/><path class="cls-6" d="M28.4,34.12a5.49,5.49,0,0,1,4.13-5.32,5.43,5.43,0,0,0-1.35-.17,5.49,5.49,0,1,0,0,11,5.43,5.43,0,0,0,1.35-.18A5.48,5.48,0,0,1,28.4,34.12Z"/><path class="cls-6" d="M97,34.12a5.48,5.48,0,0,1-4.13,5.31,5.43,5.43,0,0,0,1.35.18,5.49,5.49,0,0,0,0-11,5.43,5.43,0,0,0-1.35.17A5.49,5.49,0,0,1,97,34.12Z"/><path class="cls-7" d="M41,29.21H30.85a5,5,0,1,0,0,10.1H94.79a5,5,0,0,0,0-10.1H84.6l-.22,0H41.26Z"/><path d="M88,41.77H38.74l-7.89,0a7.53,7.53,0,0,1,0-15.06H94.79a7.53,7.53,0,0,1,0,15.06ZM94.79,39a4.7,4.7,0,0,0,0-9.39H84.6l-.25,0H41.29l-.26,0H30.85a4.7,4.7,0,1,0,0,9.39H94.79Z"/><path class="cls-5" d="M29.32,46.25H96.87l4.24,6.31-1.27,4.61-4.31,1.57H29s-3.62-3.08-3.68-3.32-.93-5.37-.93-5.37Z"/><path class="cls-6" d="M28.4,52.5a5.49,5.49,0,0,1,4.13-5.32A5.43,5.43,0,0,0,31.18,47a5.49,5.49,0,1,0,0,11,5.43,5.43,0,0,0,1.35-.17A5.48,5.48,0,0,1,28.4,52.5Z"/><path class="cls-6" d="M97,52.5a5.48,5.48,0,0,1-4.13,5.31,5.43,5.43,0,0,0,1.35.17,5.49,5.49,0,1,0,0-11,5.43,5.43,0,0,0-1.35.17A5.49,5.49,0,0,1,97,52.5Z"/><path class="cls-7" d="M41,47.59H30.85a5,5,0,0,0,0,10.1H94.79a5,5,0,0,0,0-10.1H84.6l-.22,0H41.26Z"/><path d="M88,60.15H38.74l-7.89,0a7.53,7.53,0,0,1,0-15.06H94.79a7.53,7.53,0,0,1,0,15.06Zm6.75-2.81a4.7,4.7,0,0,0,0-9.39H84.6l-.25,0H41.29L41,48H30.85a4.7,4.7,0,1,0,0,9.39H94.79Z"/><circle cx="34.37" cy="34.26" r="1.84"/><circle cx="34.37" cy="52.64" r="1.84"/><circle cx="40.85" cy="52.64" r="1.84"/><path d="M116.44,0H9.2A9.21,9.21,0,0,0,0,9.2V79.63a9.21,9.21,0,0,0,9.2,9.2H49.42L46.87,99a8.09,8.09,0,0,1-7.36,5.75H24.78a1.84,1.84,0,0,0,0,3.68h76.07a1.84,1.84,0,0,0,0-3.68H86.13A8.09,8.09,0,0,1,78.77,99l-2.55-10.2h40.22a9.21,9.21,0,0,0,9.2-9.2V9.2A9.21,9.21,0,0,0,116.44,0ZM9.2,3.68H116.44a5.54,5.54,0,0,1,5.2,3.68H4A5.53,5.53,0,0,1,9.2,3.68Zm68.73,101.1H47.71a11,11,0,0,0,2.73-4.86l2.77-11.09H72.42L75.2,99.92A11,11,0,0,0,77.93,104.78Zm44-34.72H16.56a1.84,1.84,0,0,0,0,3.68H122v5.89a5.53,5.53,0,0,1-5.52,5.52H9.2a5.53,5.53,0,0,1-5.52-5.52V73.74H9.2a1.84,1.84,0,0,0,0-3.68H3.68V11H122Z"/></svg>