<svg id="Capa_1" data-name="Capa 1" xmlns="http://www.w3.org/2000/svg" viewBox="0 0 128 128.03"><defs><style>.cls-1{fill:#6cab00;}.cls-2{fill:#a6d100;}</style></defs><path class="cls-1" d="M109.16,63.19A44.82,44.82,0,0,0,64.34,18.37c-.88,0-1.75,0-2.62.09,21.43,4,37.74,24.24,37.74,48.66a51.37,51.37,0,0,1-14,35.59A44.82,44.82,0,0,0,109.16,63.19Z"/><path class="cls-2" d="M61.72,18.46A44.81,44.81,0,1,0,85.5,102.71a51.37,51.37,0,0,0,14-35.59C99.46,42.7,83.15,22.44,61.72,18.46Z"/><path d="M63.94,59.53a8,8,0,1,1,8-8,2.81,2.81,0,1,0,5.61,0,13.59,13.59,0,0,0-10.78-13.3v-3.6a2.81,2.81,0,0,0-5.61,0v3.6a13.59,13.59,0,0,0,2.81,26.88,8,8,0,1,1-8,8,2.81,2.81,0,1,0-5.62,0A13.58,13.58,0,0,0,61.13,86.39v5.33a2.81,2.81,0,1,0,5.61,0V86.39a13.58,13.58,0,0,0-2.8-26.86Z"/><path d="M109.38,19l-.23-.22A63.27,63.27,0,0,0,63.94,0a64.07,64.07,0,1,0,45.44,19ZM63.94,122.29a58.34,58.34,0,1,1,58.32-58.35A58.4,58.4,0,0,1,63.94,122.29Z"/><path d="M63.94,15a49,49,0,1,0,49,48.95A49,49,0,0,0,63.94,15Zm0,92.28a43.34,43.34,0,1,1,43.33-43.33A43.4,43.4,0,0,1,63.94,107.27Z"/></svg>