<svg id="Capa_1" data-name="Capa 1" xmlns="http://www.w3.org/2000/svg" viewBox="0 0 119.44 123.55"><defs><style>.cls-1{fill:#5f7993;}.cls-2{fill:#3a5368;}.cls-3{fill:#a6d100;}.cls-4{fill:#6cab00;}.cls-5{fill:#17b5c8;}.cls-6{fill:#02809d;}</style></defs><polygon class="cls-1" points="105.8 69.28 101.33 84.69 110.03 89.92 118.23 71.56 105.8 69.28"/><path class="cls-2" d="M115.29,78.15s-4.89,8-13.37,5.39v2.6l9.26,4.57Z"/><polygon class="cls-3" points="73.48 107.32 78.95 118.54 96.11 108.83 88.65 100.11 73.48 107.32"/><path class="cls-4" d="M78.76,106.37s-.65,9.78,13.7,4.73l-15.1,6.36-2-10.11Z"/><polygon class="cls-3" points="40.92 105.46 57.57 110.8 57.57 120.74 35.2 115.23 40.92 105.46"/><path class="cls-4" d="M42.56,107.35s-1.83,11,13,12.9l-20-5.73,5.37-9.06Z"/><path class="cls-5" d="M86.41,11.75,91.63,3.9,107.54,33H74.48l4.72-9.89S63.67,10.61,38.62,24a46.44,46.44,0,0,0-24.8,39s3.65,17.65,5.43,22.12S27,95.38,27,95.38l-7.75,7.48L8.1,90.66,2.38,61.81l6-25.34,4.23-5.23S21.17,18.63,35,11.75s31.17-4.12,37-3.63S86.41,11.75,86.41,11.75Z"/><path class="cls-6" d="M21.66,89.31s-20.2-2.51-13-51.6L2.38,60.21l2,17.62,13.21,24.61L27,95.38Z"/><path d="M109.3,93.24,99.12,87.72A2.42,2.42,0,0,1,98,86.28a2.46,2.46,0,0,1,.19-1.84,42.91,42.91,0,0,0,5-15.8,2.41,2.41,0,0,1,2.67-2.13l11.51,1.28a2.46,2.46,0,0,1,1.62.9,2.4,2.4,0,0,1,.51,1.77,59.45,59.45,0,0,1-6.84,21.81,2.44,2.44,0,0,1-1.44,1.16,2.3,2.3,0,0,1-.69.1A2.37,2.37,0,0,1,109.3,93.24Zm-1.72-21.67a47.38,47.38,0,0,1-4.09,13l6,3.22a54.75,54.75,0,0,0,4.87-15.5Z"/><path d="M76.89,120.48a2.39,2.39,0,0,1-1.21-1.4l-3.64-11a2.43,2.43,0,0,1,.14-1.85,2.36,2.36,0,0,1,1.39-1.2,43.17,43.17,0,0,0,14.07-7.81,2.43,2.43,0,0,1,3.4.32l7.39,8.92a2.41,2.41,0,0,1-.32,3.4,59.72,59.72,0,0,1-19.38,10.75,2.46,2.46,0,0,1-.76.12A2.42,2.42,0,0,1,76.89,120.48Zm11.93-18a47.28,47.28,0,0,1-11.46,6.36l2.13,6.43a54.5,54.5,0,0,0,13.65-7.58Z"/><path d="M56.5,123.54a59.37,59.37,0,0,1-22.14-5.61,2.37,2.37,0,0,1-1.24-1.36,2.42,2.42,0,0,1,.08-1.85l4.95-10.47A2.41,2.41,0,0,1,39.52,103a2.44,2.44,0,0,1,1.84.09,42.93,42.93,0,0,0,16.06,4.07,2.39,2.39,0,0,1,1.66.8,2.43,2.43,0,0,1,.62,1.74l-.65,11.57a2.42,2.42,0,0,1-2.41,2.28Zm-15-15.11-2.89,6.12a54.53,54.53,0,0,0,15.75,4l.37-6.76A47.56,47.56,0,0,1,41.51,108.43Z"/><path d="M17.88,105.46a2.46,2.46,0,0,1-1.69-.76A59.93,59.93,0,0,1,11.06,29,2.41,2.41,0,0,1,15,31.84,55.12,55.12,0,0,0,18.1,99.6L23,95A48.31,48.31,0,0,1,59.9,15.42a48.68,48.68,0,0,1,20.85,4.73,2.41,2.41,0,0,1,1,3.39l-4,6.87h26.75L91.21,7.24,87.6,13.49a2.41,2.41,0,0,1-3.16.95A55.28,55.28,0,0,0,59.9,8.67a54.59,54.59,0,0,0-31.82,10.1,2.41,2.41,0,1,1-2.79-3.93,59.33,59.33,0,0,1,34.61-11A60.19,60.19,0,0,1,84.54,9.15l4.58-7.94a2.41,2.41,0,0,1,4.18,0l17.56,30.4a2.41,2.41,0,0,1-2.09,3.62H73.66A2.41,2.41,0,0,1,71.57,34a2.38,2.38,0,0,1,0-2.42l4.71-8.16A43.5,43.5,0,0,0,16.41,63.74,43.3,43.3,0,0,0,28.16,93.47a2.42,2.42,0,0,1-.11,3.42l-8.45,7.92a2.42,2.42,0,0,1-1.65.65Z"/><path d="M17.54,24.8h0a2.41,2.41,0,1,1,1.71.71A2.41,2.41,0,0,1,17.54,24.8Z"/></svg>