<svg id="Capa_1" data-name="Capa 1" xmlns="http://www.w3.org/2000/svg" viewBox="0 0 99.22 119.58"><defs><style>.cls-1{fill:#5f7993;}.cls-2{fill:#3a5368;}.cls-3{fill:#17b5c8;}.cls-4{fill:#02809d;}.cls-5{fill:#a6d100;}.cls-6{fill:#6cab00;}</style></defs><path class="cls-1" d="M8.5,35.6S13.56,99.26,14.33,107s10,9.79,10,9.79,39.27,1.38,49.7,1.07,11-9.64,11-9.64l6.14-72.41Zm25.61,65.95c-.46,2-3.68,3.38-5.36,3.38s-3.53-3.38-3.53-3.38-4.45-47.08-4.14-49.84,6.47-3.38,6.47-3.38C31.72,51.55,34.57,99.57,34.11,101.55Zm20-40.33v43l-4.7,1.53L45,101.55V50.33l4.6-2,4.45.77Zm23.77-9.51-4.14,49.84-2.61,4.15-5.21-2V97.42l3.35-46.48,4.47-2.61S78.12,48.22,77.83,51.71Z"/><path class="cls-2" d="M14.25,36.42l6.29,70.06s1,10.66,23.08,11.38H25.18l-11.51-7.67L7.13,35.54Z"/><path class="cls-3" d="M1.75,33.87s1.38-15.29,15.8-16.22,68.41,0,68.41,0,11.66,5.69,11,18.11H4.82Z"/><path class="cls-4" d="M44.05,18.08S16.73,17.41,17,35.6H2.29S.82,26.86,5.9,22.47s7.1-4.88,15.16-5S44.05,18.08,44.05,18.08Z"/><path class="cls-5" d="M27.61,17.25S28.75,5.72,39,3.33a48,48,0,0,1,17.8-1S70.78,6,70.47,17.25H62.34s-.61-8.12-8.9-7.62-16.79.95-18,7.63Z"/><rect class="cls-6" x="27.66" y="13.2" width="9.17" height="3.51"/><rect class="cls-6" x="62.43" y="13.2" width="9.17" height="3.51"/><path d="M81.72,15.77h-9A18.17,18.17,0,0,0,54.83,0H43.89A18.15,18.15,0,0,0,26,15.77H17.5A17.51,17.51,0,0,0,0,33.26v0a4.08,4.08,0,0,0,4.08,4.08H6.76L12.12,105a15.78,15.78,0,0,0,15.75,14.55H71.34a15.76,15.76,0,0,0,10.74-4.2,15.6,15.6,0,0,0,5-10.34l5.35-67.66h2.69a4.08,4.08,0,0,0,4.08-4.08v0A17.51,17.51,0,0,0,81.72,15.77ZM43.89,3.5H54.83A14.66,14.66,0,0,1,69.22,15.77H64.47a10,10,0,0,0-9.65-7.6H43.89a10,10,0,0,0-9.64,7.6H29.49A14.66,14.66,0,0,1,43.89,3.5ZM60.8,15.77H37.91a6.45,6.45,0,0,1,6-4.09H54.82A6.44,6.44,0,0,1,60.8,15.77Zm22.8,89a12.3,12.3,0,0,1-12.26,11.3H27.87a12.32,12.32,0,0,1-12.26-11.31L10.28,37.38H88.94ZM95.71,33.3a.56.56,0,0,1-.57.57H4.08a.57.57,0,0,1-.58-.57v0a14,14,0,0,1,14-14H81.72a14,14,0,0,1,14,14Z"/><path d="M49.61,107a6,6,0,0,0,6-6V70.44a1.75,1.75,0,0,0-3.5,0V101a2.48,2.48,0,1,1-5,0V52.55a2.48,2.48,0,0,1,5,0v9.71a1.75,1.75,0,1,0,3.5,0V52.55a6,6,0,1,0-12,0V101a6,6,0,0,0,6,6Z"/><path d="M69.28,106.94a6,6,0,0,0,6.44-5.49l1-12.25a1.75,1.75,0,0,0-3.49-.28l-1,12.25a2.48,2.48,0,0,1-5-.39l3.84-48.43a2.48,2.48,0,1,1,4.95.4l-2.22,28a1.75,1.75,0,0,0,3.49.28l2.22-28a6,6,0,1,0-11.93-.94L63.79,100.5a6,6,0,0,0,5.49,6.44Z"/><path d="M22.36,87.13a1.75,1.75,0,1,0,3.49-.28l-2.7-34.1a2.48,2.48,0,1,1,5-.4l3.84,48.43a2.48,2.48,0,0,1-5,.39l-.48-6a1.73,1.73,0,0,0-1.88-1.6A1.76,1.76,0,0,0,23,95.46l.48,6a6,6,0,1,0,11.93-1L31.59,52.08A6,6,0,1,0,19.65,53Z"/></svg>