<svg id="Capa_1" data-name="Capa 1" xmlns="http://www.w3.org/2000/svg" viewBox="0 0 111.28 98.49"><defs><style>.cls-1{fill:#a6d100;}.cls-2{fill:#6cab00;}</style></defs><polygon class="cls-1" points="71.56 39.49 48.3 16.23 50.93 4.63 61.59 2.52 108.72 49.24 61.31 96.4 49.54 92.25 49.13 81.58 71.14 58.74 9.52 58.46 2.6 50.43 5.09 40.68 71.56 39.49"/><path class="cls-2" d="M8.42,49.24a8.87,8.87,0,0,1,6.43-8.52,9.18,9.18,0,0,0-2.42-.34,8.86,8.86,0,1,0,2.42,17.38A8.85,8.85,0,0,1,8.42,49.24Z"/><path class="cls-2" d="M55.09,9.57A8.86,8.86,0,0,1,65.67,8.1a8.86,8.86,0,1,0-12.05,12A8.87,8.87,0,0,1,55.09,9.57Z"/><path class="cls-2" d="M55.09,88.92a8.88,8.88,0,0,1-1.47-10.58,8.54,8.54,0,0,0-1.95,1.47A8.86,8.86,0,0,0,64.2,92.34a8.54,8.54,0,0,0,1.47-2A8.88,8.88,0,0,1,55.09,88.92Z"/><path d="M66.56,94.93l44.05-44.05a2.33,2.33,0,0,0,0-3.28l-44-44.05A12.16,12.16,0,0,0,49.37,20.74l16.9,16.91H11.59a11.59,11.59,0,0,0,0,23.18H66.27L49.37,77.74A12.16,12.16,0,1,0,66.56,94.93ZM52.65,91.65a7.7,7.7,0,0,1,0-10.63L73.51,60.16a2.33,2.33,0,0,0,.5-2.53,2.3,2.3,0,0,0-2.14-1.43H11.59a7,7,0,0,1,0-13.91H71.87A2.31,2.31,0,0,0,74,40.85a2.27,2.27,0,0,0,.18-.88,2.32,2.32,0,0,0-.68-1.64L52.65,17.46a7.7,7.7,0,0,1,0-10.63,7.53,7.53,0,0,1,10.63,0l42.41,42.41L63.28,91.65A7.53,7.53,0,0,1,52.65,91.65Z"/></svg>