<svg id="Capa_1" data-name="Capa 1" xmlns="http://www.w3.org/2000/svg" viewBox="0 0 114.41 101.94"><defs><style>.cls-1{fill:#1d1d1b;}.cls-2{fill:#3a5368;}.cls-3{fill:#5f7993;}.cls-4{fill:#02809d;}.cls-5{fill:#17b5c8;}.cls-6{fill:#6cab00;}.cls-7{fill:#a6d100;}</style></defs><polygon class="cls-1" points="92.85 80.63 92.85 55.19 21.56 55.19 21.56 80.63 16.89 80.63 16.89 50.52 55.43 50.52 55.43 25.07 60.1 25.07 60.1 50.52 97.52 50.52 97.52 80.63 92.85 80.63"/><path class="cls-2" d="M57.76,2.76a16.16,16.16,0,0,0-2,.13,16.45,16.45,0,0,1,0,32.67,16.16,16.16,0,0,0,2,.13,16.47,16.47,0,1,0,0-32.93Z"/><ellipse class="cls-3" cx="55.79" cy="19.22" rx="14.5" ry="16.34"/><path class="cls-4" d="M95.18,66.25a16,16,0,0,0-2,.13,16.46,16.46,0,0,1,0,32.68,18.27,18.27,0,0,0,2,.13,16.47,16.47,0,0,0,0-32.94Z"/><ellipse class="cls-5" cx="93.21" cy="82.72" rx="14.5" ry="16.34"/><path class="cls-6" d="M19.22,66.25a16.16,16.16,0,0,0-2,.13,16.46,16.46,0,0,1,0,32.68,18.44,18.44,0,0,0,2,.13,16.47,16.47,0,0,0,0-32.94Z"/><ellipse class="cls-7" cx="17.25" cy="82.72" rx="14.5" ry="16.34"/><path class="cls-1" d="M57.76,38.45l-.81,0-.76,0H56c-.53,0-1-.12-1.55-.21l-.12,0a19.18,19.18,0,0,1-4.66-1.48l-.09,0c-.45-.21-.89-.44-1.32-.68L48,35.79c-.39-.23-.77-.48-1.15-.74l-.35-.25c-.34-.24-.68-.5-1-.78a.57.57,0,0,1-.13-.1c-.22-.18-.41-.35-.61-.53l-1.09-1,0,0a19.43,19.43,0,0,1-3.89-6.16c-.11-.3-.22-.59-.32-.89s-.2-.63-.28-.91l0-.13c-.08-.27-.14-.54-.2-.8l0-.18c-.06-.26-.1-.52-.15-.77l0-.23c0-.25-.07-.49-.1-.74l0-.26c0-.26,0-.51-.06-.76l0-.25c0-.35,0-.69,0-1a19.23,19.23,0,0,1,38.45,0c0,.35,0,.69,0,1l0,.28c0,.24,0,.49-.06.74l0,.28c0,.28-.06.5-.09.71l0,.19c0,.33-.1.58-.15.81l0,.16c-.07.33-.13.58-.2.83l0,.16c-.08.28-.16.55-.25.8l0,.15c-.09.27-.19.54-.29.82s-.27.66-.4.94l-.05.11a19.64,19.64,0,0,1-3.38,5.06h0l-.21.24-.48.46-.47.44-.6.52-.18.14c-.35.28-.65.51-1,.73l-.39.27c-.35.25-.72.48-1.09.7l-.31.17c-.42.24-.84.46-1.27.66l-.12.06a19.2,19.2,0,0,1-4.62,1.45l-.13,0c-.25.05-.51.09-.76.12l-.78.09h-.12l-.81,0Zm0-34.32a15.09,15.09,0,0,0-10.41,26l.35.21.06,0c.31.27.63.54,1,.79l1.33,1c.17.1.37.22.57.32l.17.09c.33.17.67.34,1,.49l.1,0c.34.14.67.27,1,.38a15.25,15.25,0,0,0,2.37.6c.42.07.79.12,1.17.15h.1c.46,0,.84,0,1.21,0s.74,0,1.11,0h.21c.36,0,.73-.08,1.1-.14s.81-.15,1.19-.24.78-.21,1.13-.33a14.6,14.6,0,0,0,2.14-.9l.21-.1c.28-.15.56-.32.84-.49l.55-.36.42-.39c.4-.31.72-.58,1-.85l.8-.72,0,0A15.08,15.08,0,0,0,57.76,4.13Z"/><path class="cls-1" d="M95.18,101.94l-.81,0-.76,0h-.17c-.53,0-1-.12-1.55-.21l-.12,0a19.16,19.16,0,0,1-4.66-1.47l-.09,0c-.46-.22-.89-.45-1.32-.69l-.26-.15c-.39-.23-.78-.47-1.15-.73l-.35-.25c-.34-.25-.68-.51-1-.78l-.13-.1-.61-.53-1.09-1,.05,0a19.54,19.54,0,0,1-3.89-6.16c-.12-.31-.22-.6-.32-.9s-.2-.63-.28-.91l0-.12c-.08-.28-.14-.54-.2-.81l0-.18c-.06-.26-.1-.51-.15-.76l0-.24c0-.25-.07-.49-.1-.73l0-.26c0-.27,0-.52-.07-.77v-.25c0-.35,0-.69,0-1a19.23,19.23,0,1,1,38.45,0q0,.51,0,1l0,.29-.06.73,0,.29c0,.28-.06.49-.09.7l0,.19c-.06.34-.1.58-.15.82l0,.15c-.07.33-.13.58-.2.83l0,.16q-.12.42-.24.81l0,.14c-.09.27-.19.55-.3.82s-.26.66-.39,1l0,.1a19.09,19.09,0,0,1-3.39,5.06h0l-.22.24-.47.46-.47.44-.6.52-.18.14c-.36.29-.66.51-1,.73l-.39.28c-.35.24-.72.47-1.09.69l-.31.18c-.42.23-.84.45-1.27.66l-.13.05a18.93,18.93,0,0,1-4.62,1.45l-.12,0-.76.11q-.39.06-.78.09H96.8l-.81,0Zm0-34.32a15.09,15.09,0,0,0-10.41,26l.35.21.06,0c.31.28.63.54,1,.79l1.33,1L88,96l.17.09c.33.17.66.33,1,.48l.1,0a10.37,10.37,0,0,0,1,.38,14,14,0,0,0,2.37.6c.42.07.79.12,1.17.15H94c.46,0,.84,0,1.21,0s.74,0,1.11,0l.21,0c.36,0,.73-.07,1.1-.13s.81-.15,1.19-.25.78-.21,1.13-.33a15,15,0,0,0,2.14-.89l.21-.11q.42-.23.84-.48l.55-.37.41-.39c.41-.31.73-.57,1.05-.85l.8-.71,0,0A15.08,15.08,0,0,0,95.18,67.62Z"/><path class="cls-1" d="M19.22,101.94l-.81,0-.76,0h-.17c-.53,0-1-.12-1.55-.21l-.12,0a19.16,19.16,0,0,1-4.66-1.47l-.09,0q-.68-.33-1.32-.69l-.25-.15c-.4-.23-.78-.47-1.16-.73L8,98.3c-.34-.25-.69-.51-1-.78l-.13-.1-.61-.53-1.09-1,.05,0A19.54,19.54,0,0,1,1.3,89.68c-.11-.31-.22-.6-.32-.9s-.2-.63-.27-.91l0-.12c-.07-.28-.14-.54-.2-.81l0-.18C.37,86.5.33,86.25.28,86l0-.24c0-.25-.07-.49-.1-.73l0-.26c0-.27,0-.52-.06-.77l0-.25c0-.35,0-.69,0-1a19.23,19.23,0,1,1,38.45,0q0,.51,0,1l0,.29c0,.24,0,.48-.06.73l0,.29c0,.28-.06.49-.09.7l0,.19c-.05.34-.1.58-.15.82l0,.15c-.07.33-.13.58-.2.83l0,.16c-.08.28-.16.55-.25.81l-.05.14c-.09.27-.19.55-.29.82s-.27.66-.4,1l0,.1a19.3,19.3,0,0,1-3.38,5.06h0l-.21.24-.48.46-.47.44-.6.52-.18.14c-.35.29-.65.51-1,.73l-.38.28c-.36.24-.73.47-1.1.69l-.3.18c-.42.23-.85.45-1.28.66l-.12.05a19.2,19.2,0,0,1-4.62,1.45l-.13,0-.76.11q-.39.06-.78.09h-.12l-.81,0Zm0-34.32a15.09,15.09,0,0,0-10.41,26l.35.21.06,0c.31.28.63.54,1,.79l1.33,1,.57.32.17.09c.33.17.67.33,1,.48l.1,0a10.37,10.37,0,0,0,1,.38,14.2,14.2,0,0,0,2.37.6c.42.07.8.12,1.17.15H18c.45,0,.83,0,1.2,0s.74,0,1.11,0l.22,0c.35,0,.72-.07,1.09-.13s.81-.15,1.19-.25.78-.21,1.13-.33a14.57,14.57,0,0,0,2.14-.89l.21-.11q.42-.23.84-.48l.56-.37.41-.39c.4-.31.73-.57,1-.85l.8-.71.05,0A15.08,15.08,0,0,0,19.22,67.62Z"/></svg>