<svg id="Capa_1" data-name="Capa 1" xmlns="http://www.w3.org/2000/svg" viewBox="0 0 103.36 101.96"><defs><style>.cls-1{fill:#3a5368;}.cls-2{fill:#5f7993;}.cls-3{fill:#6cab00;}.cls-4{fill:#a6d100;}.cls-5{fill:#02809d;}.cls-6{fill:#17b5c8;}.cls-7{fill:none;stroke:#1d1d1b;stroke-miterlimit:2.5;stroke-width:4.5px;}</style></defs><rect class="cls-1" x="76.77" y="74.91" width="24.14" height="24.14"/><path class="cls-2" d="M78.27,97.35s18.58,1.71,20.71-20L76.4,75.46Z"/><rect class="cls-3" x="76.77" y="51.03" width="24.14" height="24.14"/><path class="cls-4" d="M78.27,73.48s18.58,1.71,20.71-20L76.4,51.58Z"/><rect class="cls-5" x="52.05" y="74.91" width="24.14" height="24.14"/><path class="cls-6" d="M53.55,97.35s18.59,1.71,20.72-20L51.68,75.46Z"/><path class="cls-7" d="M7.92,2.25H27a0,0,0,0,1,0,0V27a0,0,0,0,1,0,0H2.25a0,0,0,0,1,0,0v-19A5.67,5.67,0,0,1,7.92,2.25Z"/><rect class="cls-7" x="26.97" y="2.25" width="24.72" height="24.72"/><rect class="cls-7" x="51.68" y="2.25" width="24.72" height="24.72"/><path class="cls-7" d="M76.4,2.25h19a5.67,5.67,0,0,1,5.67,5.67V27a0,0,0,0,1,0,0H76.4a0,0,0,0,1,0,0V2.25A0,0,0,0,1,76.4,2.25Z"/><rect class="cls-7" x="2.25" y="26.5" width="24.72" height="24.72"/><rect class="cls-7" x="26.97" y="26.5" width="24.72" height="24.72"/><rect class="cls-7" x="51.68" y="26.5" width="24.72" height="24.72"/><rect class="cls-7" x="76.4" y="26.5" width="24.72" height="24.72"/><rect class="cls-7" x="2.25" y="50.74" width="24.72" height="24.72"/><rect class="cls-7" x="26.97" y="50.74" width="24.72" height="24.72"/><rect class="cls-7" x="51.68" y="50.74" width="24.72" height="24.72"/><rect class="cls-7" x="76.4" y="50.74" width="24.72" height="24.72"/><path class="cls-7" d="M2.25,75H27a0,0,0,0,1,0,0V99.71a0,0,0,0,1,0,0h-19A5.67,5.67,0,0,1,2.25,94V75A0,0,0,0,1,2.25,75Z"/><rect class="cls-7" x="26.97" y="74.99" width="24.72" height="24.72"/><rect class="cls-7" x="51.68" y="74.99" width="24.72" height="24.72"/><path class="cls-7" d="M76.4,75h24.72a0,0,0,0,1,0,0V94a5.67,5.67,0,0,1-5.67,5.67h-19a0,0,0,0,1,0,0V75A0,0,0,0,1,76.4,75Z"/></svg>