<svg id="Capa_1" data-name="Capa 1" xmlns="http://www.w3.org/2000/svg" viewBox="0 0 128 128"><defs><style>.cls-1{fill:#a6d100;}.cls-2{fill:#6cab00;}.cls-3{fill:#1d1d1b;}</style></defs><polygon class="cls-1" points="52.3 52.05 52.3 61.11 56.77 61.11 56.77 100.16 70.71 100.16 70.71 52.05 52.3 52.05"/><path class="cls-2" d="M60,51.83s7,4.65,7,12.17V88.19s-.56,10-10,10l-.56,2.57,14.16-.56.94-48.11Z"/><circle class="cls-1" cx="64" cy="34.81" r="6.71"/><path class="cls-3" d="M122.34,90.3h0c.43-1,.84-1.93,1.23-2.92l.09-.23c.35-.91.68-1.83,1-2.76,0-.14.1-.29.14-.43.29-.87.55-1.74.8-2.62,0-.21.12-.41.17-.62.22-.82.43-1.66.62-2.5.06-.26.12-.51.17-.77.18-.8.32-1.6.46-2.41.06-.3.12-.6.16-.9.13-.78.23-1.57.32-2.37,0-.32.09-.65.13-1,.08-.81.14-1.62.2-2.44,0-.31,0-.62.07-.94.06-1.12.09-2.26.09-3.4A64,64,0,0,0,0,64c0,1.14,0,2.27.09,3.4,0,.29.05.59.07.88,0,.84.11,1.67.2,2.49,0,.3.08.6.11.91.1.81.2,1.63.33,2.43,0,.27.1.53.14.8.15.84.3,1.68.48,2.51l.15.64c.2.88.41,1.76.64,2.63,0,.16.09.31.13.46.26.94.54,1.86.84,2.78l.09.26c.33,1,.68,2,1.05,2.93l0,0a64.23,64.23,0,0,0,16.43,24l0,0c.64.59,1.3,1.16,2,1.72l.07.06c.13.11.28.21.42.32,1.1.91,2.24,1.78,3.4,2.62l1.14.81q1.88,1.29,3.82,2.44l.86.49c1.43.82,2.88,1.58,4.38,2.28.11.06.22.1.33.15A63.44,63.44,0,0,0,52.61,127L53,127c1.69.29,3.39.52,5.12.68l.63,0c.83.07,1.67.12,2.51.16s1.79.07,2.7.07,1.79,0,2.68-.07,1.66-.09,2.49-.16l.65,0c.84-.07,1.68-.17,2.52-.28h0c.84-.11,1.67-.23,2.5-.37l.43-.08a62.93,62.93,0,0,0,15.26-4.79c.18-.08.36-.15.54-.24,1.43-.67,2.84-1.4,4.21-2.18l1-.59q1.89-1.09,3.68-2.32l1.28-.91c1-.74,2-1.5,3-2.29.22-.18.45-.33.66-.51l.15-.12c.65-.55,1.31-1.11,1.94-1.69l0,0A64.3,64.3,0,0,0,122.34,90.3Zm-19,18.06a2.68,2.68,0,0,1-.28-.18q-1.85,1.65-3.82,3.13l.31.16-.76.55c-.81.59-1.64,1.16-2.48,1.71l-1.16.74c-1.1.68-2.22,1.33-3.36,1.94l-.76.38a58.49,58.49,0,0,1-8.12,3.44l-.29.1c-1.46.48-2.94.91-4.43,1.28h0c-1.5.37-3,.68-4.57.93l-.12,0c-1.45.23-2.9.4-4.37.53l-.77.06c-1.45.11-2.9.18-4.36.18s-3-.08-4.41-.19l-.76,0c-1.47-.13-2.94-.31-4.4-.55l-.19,0a59.71,59.71,0,0,1-9.06-2.26l-.27-.09c-1.46-.5-2.91-1.05-4.33-1.66l0,0c-1.35-.58-2.67-1.22-4-1.9l-.51-.26c-1.19-.63-2.35-1.32-3.5-2l-1-.65c-1.06-.69-2.1-1.41-3.12-2.17l-.31-.24.23-.13.07,0q-2-1.48-3.78-3.12l-.27.18a59.35,59.35,0,1,1,79,.23Z"/><path d="M63.49,44.26a9.45,9.45,0,1,1,9.45-9.45A9.46,9.46,0,0,1,63.49,44.26Zm0-14.6a5.15,5.15,0,1,0,5.15,5.15A5.16,5.16,0,0,0,63.49,29.66Z"/><path d="M56.19,102.63A2.15,2.15,0,0,1,54,100.48V63.72H51.33a2.15,2.15,0,0,1-2.15-2.15V51.84a2.15,2.15,0,0,1,2.15-2.15H70.79a2.15,2.15,0,0,1,2.15,2.15v48.64a2.15,2.15,0,0,1-2.15,2.15ZM53.48,59.42h2.71a2.15,2.15,0,0,1,2.15,2.15V98.34h10.3V54H53.48Z"/></svg>