<svg id="Capa_1" data-name="Capa 1" xmlns="http://www.w3.org/2000/svg" viewBox="0 0 107.49 122.67"><defs><style>.cls-1{fill:#3a5368;}.cls-2{fill:#5f7993;}.cls-3{fill:#02809d;}.cls-4{fill:#17b5c8;}.cls-5{fill:#6cab00;}.cls-6{fill:#a6d100;}.cls-7{fill:#1d1d1b;}</style></defs><path class="cls-1" d="M63.77,90a14.1,14.1,0,0,0-1.73.11,14.4,14.4,0,0,1,0,28.59,14.09,14.09,0,0,0,1.73.12,14.41,14.41,0,1,0,0-28.82Z"/><ellipse class="cls-2" cx="62.04" cy="104.37" rx="12.68" ry="14.3"/><path class="cls-3" d="M29.93,73.49a16.2,16.2,0,0,0-1.72.11,14.4,14.4,0,0,1,0,28.6,16.2,16.2,0,0,0,1.72.11,14.41,14.41,0,0,0,0-28.82Z"/><ellipse class="cls-4" cx="28.21" cy="87.9" rx="12.68" ry="14.3"/><path class="cls-5" d="M16.74,41.12a11.75,11.75,0,0,0-1.58.11,13.18,13.18,0,0,1,0,26.17,11.75,11.75,0,0,0,1.58.11,13.2,13.2,0,0,0,0-26.39Z"/><ellipse class="cls-6" cx="15.16" cy="54.31" rx="11.61" ry="13.09"/><path class="cls-1" d="M31.79,11.92a11.84,11.84,0,0,0-1.47.09,12.25,12.25,0,0,1,0,24.32,14.15,14.15,0,0,0,1.47.09,12.25,12.25,0,0,0,0-24.5Z"/><ellipse class="cls-2" cx="30.32" cy="24.17" rx="10.79" ry="12.16"/><path class="cls-3" d="M61.64,3.36a10.39,10.39,0,0,0-1.37.09,11.4,11.4,0,0,1,0,22.64,12.44,12.44,0,0,0,1.37.08,11.41,11.41,0,1,0,0-22.81Z"/><ellipse class="cls-4" cx="60.27" cy="14.77" rx="10.04" ry="11.32"/><path class="cls-5" d="M87.93,17.39a9.26,9.26,0,0,0-1.19.08,9.94,9.94,0,0,1,0,19.73,11.53,11.53,0,0,0,1.19.07,9.94,9.94,0,0,0,0-19.88Z"/><ellipse class="cls-6" cx="86.74" cy="27.33" rx="8.75" ry="9.86"/><path class="cls-1" d="M95.31,44.21a8.76,8.76,0,0,0-1,.07,8.55,8.55,0,0,1,0,17,8.76,8.76,0,0,0,1,.07,8.56,8.56,0,0,0,0-17.11Z"/><ellipse class="cls-2" cx="94.28" cy="52.76" rx="7.53" ry="8.48"/><path class="cls-3" d="M83.54,66.53a6.84,6.84,0,0,0-.91.06,7.59,7.59,0,0,1,0,15.07,6.84,6.84,0,0,0,.91.06,7.6,7.6,0,1,0,0-15.19Z"/><ellipse class="cls-4" cx="82.63" cy="74.13" rx="6.69" ry="7.54"/><path class="cls-5" d="M60,67.51a6.84,6.84,0,0,0-.79,0,6.62,6.62,0,0,1,0,13.14,6.84,6.84,0,0,0,.79,0,6.62,6.62,0,1,0,0-13.24Z"/><ellipse class="cls-6" cx="59.21" cy="74.13" rx="5.83" ry="6.57"/><path class="cls-1" d="M45.88,55.17a5.12,5.12,0,0,0-.56,0,4.7,4.7,0,0,1,0,9.33,5.09,5.09,0,0,0,.56,0,4.7,4.7,0,0,0,0-9.4Z"/><ellipse class="cls-2" cx="45.32" cy="59.87" rx="4.14" ry="4.66"/><path class="cls-3" d="M53,41.12a3.15,3.15,0,0,0-.44,0,3.64,3.64,0,0,1,0,7.23l.44,0a3.64,3.64,0,0,0,0-7.28Z"/><ellipse class="cls-4" cx="52.52" cy="44.76" rx="3.2" ry="3.61"/><path class="cls-5" d="M68.25,41.12a3.11,3.11,0,0,0-.43,0,3.64,3.64,0,0,1,0,7.23l.43,0a3.64,3.64,0,1,0,0-7.28Z"/><ellipse class="cls-6" cx="67.82" cy="44.76" rx="3.2" ry="3.61"/><path class="cls-7" d="M63.77,122.67a18.3,18.3,0,1,1,18.3-18.3A18.32,18.32,0,0,1,63.77,122.67Zm0-32.6a14.3,14.3,0,1,0,14.3,14.3A14.31,14.31,0,0,0,63.77,90.07Z"/><path class="cls-7" d="M29.93,106.37a18.3,18.3,0,1,1,18.3-18.3A18.32,18.32,0,0,1,29.93,106.37Zm0-32.6a14.3,14.3,0,1,0,14.3,14.3A14.32,14.32,0,0,0,29.93,73.77Z"/><path class="cls-7" d="M16.89,71.14a16.89,16.89,0,1,1,16.9-16.89A16.91,16.91,0,0,1,16.89,71.14Zm0-29.78a12.89,12.89,0,1,0,12.9,12.89A12.9,12.9,0,0,0,16.89,41.36Z"/><path class="cls-7" d="M31.79,40.44A16.18,16.18,0,1,1,48,24.27,16.19,16.19,0,0,1,31.79,40.44Zm0-28.35A12.18,12.18,0,1,0,44,24.27,12.19,12.19,0,0,0,31.79,12.09Z"/><path class="cls-7" d="M61.59,29.54A14.77,14.77,0,1,1,76.36,14.77,14.79,14.79,0,0,1,61.59,29.54ZM61.59,4A10.77,10.77,0,1,0,72.36,14.77,10.78,10.78,0,0,0,61.59,4Z"/><path class="cls-7" d="M87.93,41A13.64,13.64,0,1,1,101.56,27.4,13.66,13.66,0,0,1,87.93,41Zm0-23.27a9.64,9.64,0,1,0,9.63,9.63A9.64,9.64,0,0,0,87.93,17.77Z"/><path class="cls-7" d="M95.3,65A12.18,12.18,0,1,1,107.49,52.8,12.2,12.2,0,0,1,95.3,65Zm0-20.36a8.18,8.18,0,1,0,8.19,8.18A8.19,8.19,0,0,0,95.3,44.62Z"/><path class="cls-7" d="M83.54,85.34A11.18,11.18,0,1,1,94.72,74.16,11.19,11.19,0,0,1,83.54,85.34Zm0-18.36a7.18,7.18,0,1,0,7.18,7.18A7.19,7.19,0,0,0,83.54,67Z"/><path class="cls-7" d="M60,84a10,10,0,0,1-.36-20H60a10,10,0,0,1,10,9.63h0A10,10,0,0,1,60.36,84Zm0-16h-.21A6,6,0,0,0,60,80h.22A6,6,0,0,0,60,68Z"/><path class="cls-7" d="M45.87,68.24a8.32,8.32,0,1,1,8.32-8.62h0a8.32,8.32,0,0,1-8,8.61Zm0-12.64h-.16a4.33,4.33,0,0,0-4.16,4.47A4.32,4.32,0,0,0,46,64.23a4.31,4.31,0,0,0,2.79-7.47A4.27,4.27,0,0,0,45.88,55.6Z"/><path class="cls-7" d="M53,52a7.23,7.23,0,1,1,7.23-7.49h0a7.24,7.24,0,0,1-7,7.49Zm0-10.46h-.12A3.23,3.23,0,0,0,53,48h.11a3.25,3.25,0,0,0,3.12-3.35h0A3.24,3.24,0,0,0,53,41.51Z"/><path class="cls-7" d="M68.25,50.9a6.86,6.86,0,1,1,.24,0Zm0-9.37h-.1a2.68,2.68,0,0,0-2.59,2.78,2.7,2.7,0,0,0,.85,1.87,2.62,2.62,0,0,0,1.93.72,2.68,2.68,0,0,0,1.73-4.65A2.63,2.63,0,0,0,68.26,41.53Z"/></svg>