<svg id="Capa_1" data-name="Capa 1" xmlns="http://www.w3.org/2000/svg" viewBox="0 0 107.86 107.86"><defs><style>.cls-1{fill:#5f7993;}.cls-2{fill:#3a5368;}.cls-3{fill:#a6d100;}.cls-4{fill:#6cab00;}.cls-5{fill:#17b5c8;}.cls-6{fill:#02809d;}</style></defs><rect class="cls-1" x="3.08" y="27.67" width="23.4" height="5.72"/><path class="cls-2" d="M9.23,28.27a4.47,4.47,0,0,0,0,5.12H4.14L3.08,27.67Z"/><rect class="cls-1" x="58.46" y="2.78" width="23.4" height="5.72"/><path class="cls-2" d="M64.61,3.38a4.47,4.47,0,0,0,0,5.12H59.52L58.46,2.78Z"/><polygon class="cls-3" points="6.9 50.64 13.73 52.27 15.94 45.24 24.38 47.06 23.87 99.28 17.45 106.61 7.72 103.72 4.69 95.16 5.39 50.07 6.9 50.64"/><path class="cls-4" d="M5,57.4s7.43,4.51,10.65,1.2,5.82-6.53,7-6V46.69l-6-1.45-2.91,7L5.39,50.64Z"/><path class="cls-5" d="M43.76,73.32l-9.44,19L38.64,102l10.24,4.62s40.27-1.21,42.38-1,13.36-7,13.36-7V88l-17-26.82L76,62.62l-3.89,8.53-2,7.74L60.8,83.11,48.58,80.47Z"/><path class="cls-6" d="M40.75,77.48s8,13.59,20.68,11C75.19,85.72,75.09,78.89,77,73.32s10.76-7.39,14.47-4.18l-1.71-7.93-14,1.94-4.7,12.24-6.39,7.89L53.9,81.9l-8.84-7.63Z"/><path d="M9.23,7.72a2.08,2.08,0,1,1,2.08-2.08A2.08,2.08,0,0,1,9.23,7.72Z"/><path d="M70,50.64a2.09,2.09,0,1,1,2.08-2.08A2.08,2.08,0,0,1,70,50.64Z"/><circle cx="23.53" cy="3.86" r="3.86"/><path d="M16.38,22A5.65,5.65,0,1,1,22,16.38,5.65,5.65,0,0,1,16.38,22Zm0-7.15a1.51,1.51,0,1,0,0,3,1.51,1.51,0,0,0,0-3Z"/><circle cx="64.66" cy="59.29" r="3.86"/><path d="M57.5,77.46a5.65,5.65,0,1,1,5.65-5.65,5.65,5.65,0,0,1-5.65,5.65Zm0-7.15A1.51,1.51,0,1,0,59,71.81,1.5,1.5,0,0,0,57.5,70.31Z"/><path d="M48.56,107.86A16.44,16.44,0,0,1,33,96.5a11.1,11.1,0,0,1,.87-8.64L59,40.89v-30a5.66,5.66,0,0,1-1.54-9.6A6,6,0,0,1,61.29,0H79A5.64,5.64,0,0,1,81,10.9v30L107.61,90.5a2.1,2.1,0,0,1,.25,1,16.43,16.43,0,0,1-16.38,16.38ZM37.23,90.32a5.72,5.72,0,0,0-.58,4,12.2,12.2,0,0,0,11.91,9.42H91.48A12.19,12.19,0,0,0,103,95.55a7.11,7.11,0,0,0-.45-5.69l-13.92-26a13.84,13.84,0,0,0-4.42-.73C78,63.15,73,67,73,71.81c0,7.06-6.75,12.8-15,12.8a16.07,16.07,0,0,1-12.24-5.33,13.25,13.25,0,0,1-1.45-2.12ZM47.06,72a7.46,7.46,0,0,0,1.83,4.64A11.91,11.91,0,0,0,58,80.47c6,0,10.91-3.89,10.91-8.66,0-7.06,6.87-12.8,15.31-12.8a17.15,17.15,0,0,1,1.9.1l-9-16.72a2.1,2.1,0,0,1-.25-1V11.3H63.15V41.41a2.09,2.09,0,0,1-.24,1Zm14-67.82a1.51,1.51,0,0,0,0,3H79a1.51,1.51,0,1,0,0-3Z"/><path d="M12.8,107.86a9.25,9.25,0,0,1-9.22-9.23V35.94A5.65,5.65,0,0,1,5.65,25H23.53A5.65,5.65,0,0,1,25.6,35.94V98.63a9.25,9.25,0,0,1-9.22,9.23ZM7.72,98.63a5.09,5.09,0,0,0,5.08,5.08h3.58a5.09,5.09,0,0,0,5.08-5.08V48.56a5.09,5.09,0,0,0-3.29-1.5,1.51,1.51,0,0,0-1.51,1.5A5.66,5.66,0,0,1,11,54.21a9,9,0,0,1-3.29-.74Zm0-50.07A5,5,0,0,0,11,50.07a1.52,1.52,0,0,0,1.51-1.51,5.65,5.65,0,0,1,5.65-5.64,9.06,9.06,0,0,1,3.29.74V36.33H7.72ZM5.65,29.18a1.51,1.51,0,1,0,0,3H23.53a1.51,1.51,0,0,0,0-3Z"/></svg>