<svg id="Capa_1" data-name="Capa 1" xmlns="http://www.w3.org/2000/svg" viewBox="0 0 119.71 119.71"><defs><style>.cls-1{fill:#a6d100;}.cls-2{fill:#6cab00;}.cls-3{fill:#17b5c8;}.cls-4{fill:#02809d;}</style></defs><path class="cls-1" d="M17.08,1.79V32.84l3.75,6.51H66.06l7.84-5.74L74,1.41ZM68,30.9a1.94,1.94,0,0,1-1.94,1.94H53.65a1.94,1.94,0,0,1-1.94-1.94V10.21a1.94,1.94,0,0,1,1.94-1.94H66.06A1.94,1.94,0,0,1,68,10.21Z"/><path class="cls-2" d="M34.14,2.52s-14.45,1.3-17.06,18L15.67,1.41Z"/><polygon class="cls-3" points="17.08 118.04 17.08 73.09 18.36 65.93 24.57 63.81 97.08 63.81 101.35 67.4 103.37 72.5 103.37 118.04 17.08 118.04"/><path class="cls-4" d="M103,69.41l-3.73-4.93-78.83-.67-3.31,6.8V118h8.16V78A6.16,6.16,0,0,1,31.4,71.8H103Z"/><path d="M116.72,35.38,84.33,3a10.12,10.12,0,0,0-7.22-3h-69A8.15,8.15,0,0,0,0,8.14V111.57a8.15,8.15,0,0,0,8.14,8.14H111.57a8.15,8.15,0,0,0,8.14-8.14v-69A10.14,10.14,0,0,0,116.72,35.38ZM18.36,3.88h54v27a6.35,6.35,0,0,1-6.34,6.33H24.69a6.34,6.34,0,0,1-6.33-6.33Zm83,112h-83V72.27a6.34,6.34,0,0,1,6.33-6.34H95a6.34,6.34,0,0,1,6.33,6.34Zm14.48-4.26a4.26,4.26,0,0,1-4.26,4.26h-6.34V72.27A10.22,10.22,0,0,0,95,62.05H24.69A10.22,10.22,0,0,0,14.48,72.27v43.56H8.14a4.26,4.26,0,0,1-4.26-4.26V8.14A4.26,4.26,0,0,1,8.14,3.88h6.34v27A10.22,10.22,0,0,0,24.69,41.11H66.06A10.22,10.22,0,0,0,76.27,30.9v-27h.84a6.31,6.31,0,0,1,4.48,1.85L114,38.12a6.33,6.33,0,0,1,1.85,4.48Z"/><path d="M53.65,32.84H66.06A1.94,1.94,0,0,0,68,30.9V10.21a1.94,1.94,0,0,0-1.94-1.94H53.65a1.94,1.94,0,0,0-1.94,1.94V30.9A1.94,1.94,0,0,0,53.65,32.84Zm1.94-20.69h8.53V29H55.59Z"/><path d="M88.81,80.67H51.58a1.94,1.94,0,0,0,0,3.88H88.81a1.94,1.94,0,0,0,0-3.88Z"/><path d="M30.9,84.55H43.31a1.94,1.94,0,0,0,0-3.88H30.9a1.94,1.94,0,1,0,0,3.88Z"/><path d="M88.81,97.22H30.9a1.94,1.94,0,1,0,0,3.87H88.81a1.94,1.94,0,1,0,0-3.87Z"/></svg>