<svg id="Capa_1" data-name="Capa 1" xmlns="http://www.w3.org/2000/svg" viewBox="0 0 71.37 121.44"><defs><style>.cls-1{fill:#5f7993;}.cls-2{fill:#3a5368;}</style></defs><polygon class="cls-1" points="43.1 2.75 23.75 4.61 5.97 19.4 2.14 35.83 7.32 44.03 15.42 43.03 19.47 37.63 19.92 27.09 34.55 18.73 44.9 21.2 51.65 29.27 51.65 40.33 41.72 51.58 32.05 54.38 26.9 62.83 28.25 83.13 36.8 85.31 44.67 77.23 44.45 67.33 59.75 58.55 69.65 39.88 68.45 24.8 58.28 9.01 43.1 2.75"/><path class="cls-2" d="M32.05,4.3s38,8.21,27.5,53.12l8.28-9.87.09-.6a50.86,50.86,0,0,0-8.46-36.23L58.28,9l-20-7.58A4.79,4.79,0,0,0,32.05,4.3Z"/><circle class="cls-1" cx="35.83" cy="110.8" r="6.25"/><path d="M35.67,88.07A10.66,10.66,0,0,1,25,77.42V64.58A14.79,14.79,0,0,1,37.76,49.94a14.44,14.44,0,0,0,12-17.48,14.13,14.13,0,0,0-10.8-10.8,14.4,14.4,0,0,0-17.62,14A10.65,10.65,0,1,1,0,35.71,35.69,35.69,0,1,1,47.57,69.34l-1.25.45v7.63A10.67,10.67,0,0,1,35.67,88.07ZM35.62,16.7a20.44,20.44,0,0,1,4.2.44A18.88,18.88,0,0,1,54.23,31.56,19,19,0,0,1,38.4,54.5a10.29,10.29,0,0,0-8.77,10.07V77.42a6,6,0,1,0,12.08,0V68a2.29,2.29,0,0,1,1.73-2.22A31.08,31.08,0,1,0,16.09,11.58,30.79,30.79,0,0,0,4.61,35.7a6,6,0,1,0,12.07,0,19,19,0,0,1,18.89-19Z"/><path d="M35.68,121.44A10.65,10.65,0,1,1,46.32,110.8,10.66,10.66,0,0,1,35.68,121.44Zm0-16.69a6,6,0,1,0,6,6A6,6,0,0,0,35.68,104.75Z"/></svg>