<svg id="Capa_1" data-name="Capa 1" xmlns="http://www.w3.org/2000/svg" viewBox="0 0 118.63 98.37"><defs><style>.cls-1{fill:#5f7993;}.cls-2{fill:#3a5368;}.cls-3{fill:#17b5c8;}.cls-4{fill:#02809d;}.cls-5{fill:#a6d100;}.cls-6{fill:#6cab00;}</style></defs><polygon class="cls-1" points="72.4 22.35 96.14 22.35 83.96 44.22 72.4 22.35"/><path class="cls-2" d="M73.93,24.83S92.49,24.16,89.1,35l6.15-11-2.4-3.08L72.4,22.35Z"/><path class="cls-3" d="M18.33,41.49l1,48.85-8.39,5.89L4.68,94.65,2.45,88.88l-1-47.43s4.05-5,4.37-5.06S13.07,35,13.07,35Z"/><path class="cls-4" d="M9.86,39.57A7.41,7.41,0,0,1,17.15,45a7.9,7.9,0,0,0,.2-1.83,7.41,7.41,0,0,0-14.82.3,7.85,7.85,0,0,0,.28,1.83A7.39,7.39,0,0,1,9.86,39.57Z"/><path class="cls-4" d="M10.93,91.55a7.39,7.39,0,0,1-7.28-5.43,7.4,7.4,0,1,0,14.61,1.53A7.28,7.28,0,0,0,18,85.83,7.4,7.4,0,0,1,10.93,91.55Z"/><path class="cls-3" d="M68.09,41.49l1,48.85L60.7,96.23l-6.26-1.58-2.23-5.77-1-47.43s4.06-5,4.37-5.06S62.83,35,62.83,35Z"/><path class="cls-4" d="M59.62,39.57A7.41,7.41,0,0,1,66.91,45a7.41,7.41,0,1,0-14.62-1.53,7.85,7.85,0,0,0,.28,1.83A7.39,7.39,0,0,1,59.62,39.57Z"/><path class="cls-4" d="M60.69,91.55a7.39,7.39,0,0,1-7.28-5.43A7.4,7.4,0,1,0,68,87.65a7.28,7.28,0,0,0-.27-1.82A7.4,7.4,0,0,1,60.69,91.55Z"/><path class="cls-5" d="M43.74,41.49l1,48.85-8.39,5.89-6.26-1.58-2.23-5.77-1-47.43s4.06-5,4.37-5.06S38.48,35,38.48,35Z"/><path class="cls-6" d="M35.27,39.57A7.41,7.41,0,0,1,42.56,45a7.41,7.41,0,1,0-14.62-1.53,7.85,7.85,0,0,0,.28,1.83A7.39,7.39,0,0,1,35.27,39.57Z"/><path class="cls-6" d="M36.34,91.55a7.39,7.39,0,0,1-7.28-5.43,7.4,7.4,0,1,0,14.61,1.53,7.28,7.28,0,0,0-.27-1.82A7.4,7.4,0,0,1,36.34,91.55Z"/><path class="cls-5" d="M116.15,41.49l1,48.85-8.39,5.89-6.26-1.58-2.23-5.77-1-47.43s4.06-5,4.38-5.06S110.89,35,110.89,35Z"/><path class="cls-6" d="M107.68,39.57A7.42,7.42,0,0,1,115,45a7.41,7.41,0,1,0-14.35.3A7.4,7.4,0,0,1,107.68,39.57Z"/><path class="cls-6" d="M108.75,91.55a7.42,7.42,0,0,1-7.29-5.43,7.41,7.41,0,1,0,14.62,1.53,7.28,7.28,0,0,0-.27-1.82A7.4,7.4,0,0,1,108.75,91.55Z"/><path d="M10.4,98.37A10.42,10.42,0,0,1,0,88V43.4a10.41,10.41,0,0,1,20.81,0V88A10.42,10.42,0,0,1,10.4,98.37Zm0-60.87a5.9,5.9,0,0,0-5.9,5.9V88a5.91,5.91,0,1,0,11.81,0V43.4A5.91,5.91,0,0,0,10.4,37.5Z"/><path d="M35,98.37A10.42,10.42,0,0,1,24.6,88V43.4a10.41,10.41,0,0,1,20.81,0V88A10.41,10.41,0,0,1,35,98.37ZM35,37.5a5.91,5.91,0,0,0-5.91,5.9V88a5.91,5.91,0,1,0,11.81,0V43.4A5.9,5.9,0,0,0,35,37.5Z"/><path d="M59.7,98.37A10.42,10.42,0,0,1,49.29,88V43.4a10.41,10.41,0,0,1,20.81,0V88A10.42,10.42,0,0,1,59.7,98.37Zm0-60.87a5.91,5.91,0,0,0-5.91,5.9V88A5.91,5.91,0,1,0,65.6,88V43.4A5.9,5.9,0,0,0,59.7,37.5Z"/><path d="M108.22,98.37A10.41,10.41,0,0,1,97.82,88V43.4a10.41,10.41,0,0,1,20.81,0V88A10.42,10.42,0,0,1,108.22,98.37Zm0-60.87a5.9,5.9,0,0,0-5.9,5.9V88a5.91,5.91,0,1,0,11.81,0V43.4A5.91,5.91,0,0,0,108.22,37.5Z"/><path d="M84,46.12a5,5,0,0,1-4.41-2.54L70,27.08a5.09,5.09,0,0,1,4.4-7.63h19a5.08,5.08,0,0,1,4.4,7.63l-9.52,16.5A5,5,0,0,1,84,46.12ZM74.43,24a.54.54,0,0,0-.5.29.56.56,0,0,0,0,.59l9.52,16.5a.56.56,0,0,0,.51.29.54.54,0,0,0,.5-.29L94,24.83a.56.56,0,0,0,0-.59.57.57,0,0,0-.51-.29Z"/><path d="M84,23.47a2.25,2.25,0,0,1-2.25-2.25v-19a2.25,2.25,0,0,1,4.5,0v19A2.25,2.25,0,0,1,84,23.47Z"/></svg>