<svg id="Capa_1" data-name="Capa 1" xmlns="http://www.w3.org/2000/svg" viewBox="0 0 122.9 122.9"><defs><style>.cls-1{fill:#5f7993;}.cls-2{fill:#a6d100;}.cls-3{fill:#6cab00;}.cls-4{fill:#3a5368;}.cls-5{fill:#17b5c8;}.cls-6{fill:#02809d;}</style></defs><path class="cls-1" d="M62.79,61.42c-.89,0-1.78.06-2.68.06C61,61.48,61.9,61.46,62.79,61.42Z"/><path class="cls-1" d="M61.48,61.45h0Z"/><path class="cls-1" d="M62.8,61.48c-.91,0-1.8,0-2.7-.06Q61.44,61.48,62.8,61.48Z"/><path class="cls-1" d="M61.11,61.53c-.82.07-1.66.12-2.49.16,1.91-.07,3.8-.24,5.66-.49-.84.11-1.67.21-2.52.29Z"/><polygon class="cls-2" points="62.65 2.84 50.26 7.73 46.44 16.75 44.91 107.25 58.6 119.63 72.27 115.5 78.39 102.97 77.31 12.47 62.65 2.84"/><rect class="cls-1" x="47.87" y="78.55" width="28.26" height="33.27"/><path class="cls-3" d="M61.15,10.63A14.36,14.36,0,0,1,75.06,21.46a14.37,14.37,0,1,0-27.82,0A14.36,14.36,0,0,1,61.15,10.63Z"/><path class="cls-4" d="M61.15,111.49a14.35,14.35,0,0,1-13.91-10.82,14.37,14.37,0,1,0,27.82,0A14.35,14.35,0,0,1,61.15,111.49Z"/><path class="cls-5" d="M14.79,44.72h94.78l11.08,16.51-3.32,12.08L106.05,77.4H14S4.55,69.33,4.4,68.72,2,54.66,2,54.66Z"/><path class="cls-6" d="M10.72,61.06A14.36,14.36,0,0,1,21.55,47.15,14.36,14.36,0,1,0,18,75.43,14.8,14.8,0,0,0,21.55,75,14.38,14.38,0,0,1,10.72,61.06Z"/><path class="cls-6" d="M111.58,61.06A14.38,14.38,0,0,1,100.76,75a14.67,14.67,0,0,0,3.54.45,14.37,14.37,0,1,0,0-28.74,14.19,14.19,0,0,0-3.54.46A14.35,14.35,0,0,1,111.58,61.06Z"/><path d="M61.45,122.9a18.8,18.8,0,0,1-18.78-18.78V80.23H18.78a18.78,18.78,0,0,1,0-37.56H42.67V18.78a18.78,18.78,0,0,1,37.56,0V42.67h23.89a18.78,18.78,0,0,1,0,37.56H80.23v23.89A18.8,18.8,0,0,1,61.45,122.9ZM18.78,48.23a13.22,13.22,0,0,0,0,26.44H45.45a2.79,2.79,0,0,1,2.78,2.78v26.67a13.22,13.22,0,0,0,26.44,0V77.45a2.79,2.79,0,0,1,2.78-2.78h26.67a13.22,13.22,0,0,0,0-26.44H77.45a2.79,2.79,0,0,1-2.78-2.78V18.78a13.22,13.22,0,1,0-26.44,0V45.45a2.79,2.79,0,0,1-2.78,2.78Z"/><rect x="39.45" y="42.67" width="47" height="5.5"/><rect x="39.45" y="74.65" width="47" height="5.5"/></svg>