<svg id="Capa_1" data-name="Capa 1" xmlns="http://www.w3.org/2000/svg" viewBox="0 0 113.57 22.36"><defs><style>.cls-1{fill:#3a5368;}.cls-2{fill:#5f7993;}.cls-3{fill:#1d1d1b;}.cls-4{fill:#02809d;}.cls-5{fill:#17b5c8;}.cls-6{fill:#6cab00;}.cls-7{fill:#a6d100;}</style></defs><path class="cls-1" d="M11.18,3.55a6.84,6.84,0,0,0-.91.06,7.59,7.59,0,0,1,0,15.08,9.08,9.08,0,0,0,.91,0,7.6,7.6,0,1,0,0-15.19Z"/><ellipse class="cls-2" cx="10.27" cy="11.15" rx="6.69" ry="7.54"/><path class="cls-3" d="M11.18,22.36A11.18,11.18,0,1,1,22.36,11.18,11.19,11.19,0,0,1,11.18,22.36ZM11.18,4a7.18,7.18,0,1,0,7.18,7.18A7.19,7.19,0,0,0,11.18,4Z"/><path class="cls-4" d="M41.58,3.55a7,7,0,0,0-.91.06,7.59,7.59,0,0,1,0,15.08c.3,0,.61,0,.91,0a7.6,7.6,0,1,0,0-15.19Z"/><ellipse class="cls-5" cx="40.67" cy="11.15" rx="6.69" ry="7.54"/><path class="cls-3" d="M41.58,22.36A11.18,11.18,0,1,1,52.77,11.18,11.19,11.19,0,0,1,41.58,22.36ZM41.58,4a7.18,7.18,0,1,0,7.19,7.18A7.19,7.19,0,0,0,41.58,4Z"/><path class="cls-6" d="M72,3.55a6.73,6.73,0,0,0-.91.06,7.6,7.6,0,0,1,0,15.08,8.92,8.92,0,0,0,.91,0A7.6,7.6,0,0,0,72,3.55Z"/><ellipse class="cls-7" cx="71.08" cy="11.15" rx="6.69" ry="7.54"/><path class="cls-3" d="M72,22.36A11.18,11.18,0,1,1,83.17,11.18,11.19,11.19,0,0,1,72,22.36ZM72,4a7.18,7.18,0,1,0,7.18,7.18A7.2,7.2,0,0,0,72,4Z"/><path class="cls-1" d="M102.39,3.55a6.84,6.84,0,0,0-.91.06,7.59,7.59,0,0,1,0,15.08,9.08,9.08,0,0,0,.91,0,7.6,7.6,0,1,0,0-15.19Z"/><ellipse class="cls-2" cx="101.48" cy="11.15" rx="6.69" ry="7.54"/><path class="cls-3" d="M102.39,22.36a11.18,11.18,0,1,1,11.18-11.18A11.19,11.19,0,0,1,102.39,22.36Zm0-18.36a7.18,7.18,0,1,0,7.18,7.18A7.19,7.19,0,0,0,102.39,4Z"/></svg>