<svg id="Capa_1" data-name="Capa 1" xmlns="http://www.w3.org/2000/svg" viewBox="0 0 128 128"><defs><style>.cls-1{fill:#17b5c8;}.cls-2{fill:#02809d;}.cls-3{fill:#1d1d1b;}</style></defs><polygon class="cls-1" points="65.8 26.63 52.43 30.52 42.79 47 48.39 53.54 54.3 49.49 57.72 40.09 70.47 38.92 75.29 46.85 72.8 52.45 61.76 60.38 59.04 74.99 65.18 80.75 70.47 68.46 82.57 58.2 85.39 42.34 75.29 30.36 65.8 26.63"/><path class="cls-2" d="M61.1,28s23.83,5.15,17.24,33.3l5.19-6.19,1.86-12.77L77.54,31,62.12,25.12Z"/><path class="cls-3" d="M122.34,90.3h0c.43-1,.84-1.93,1.23-2.92l.09-.23c.35-.91.68-1.83,1-2.76,0-.14.1-.29.14-.43.29-.87.55-1.74.8-2.62,0-.21.12-.41.17-.62.22-.82.43-1.66.62-2.5.06-.26.12-.51.17-.77.18-.8.32-1.6.46-2.41.06-.3.12-.6.16-.9.13-.78.23-1.57.32-2.37,0-.32.09-.65.13-1,.08-.81.14-1.62.2-2.44,0-.31,0-.62.07-.94.06-1.12.09-2.26.09-3.4A64,64,0,0,0,0,64c0,1.14,0,2.27.09,3.4,0,.29.05.59.07.88,0,.84.11,1.67.2,2.49,0,.3.08.6.11.91.1.81.2,1.63.33,2.43,0,.27.1.53.14.8.15.84.3,1.68.48,2.51l.15.64c.2.88.41,1.76.64,2.63,0,.16.09.31.13.46.26.94.54,1.86.84,2.78l.09.26c.33,1,.68,2,1.05,2.93l0,0a64.23,64.23,0,0,0,16.43,24l0,0c.64.59,1.3,1.16,2,1.72l.07.06c.13.11.28.21.42.32,1.1.91,2.24,1.78,3.4,2.62l1.14.81q1.88,1.29,3.82,2.44l.86.49c1.43.82,2.88,1.58,4.38,2.28.11.06.22.1.33.15A63.44,63.44,0,0,0,52.61,127L53,127c1.69.29,3.39.52,5.12.68l.63,0c.83.07,1.67.12,2.51.16s1.79.07,2.7.07,1.79,0,2.68-.07,1.66-.09,2.49-.16l.65,0c.84-.07,1.68-.17,2.52-.28h0c.84-.11,1.67-.23,2.5-.37l.43-.08a62.93,62.93,0,0,0,15.26-4.79c.18-.08.36-.15.54-.24,1.43-.67,2.84-1.4,4.21-2.18l1-.59q1.89-1.09,3.68-2.32l1.28-.91c1-.74,2-1.5,3-2.29.22-.18.45-.33.66-.51l.15-.12c.65-.55,1.31-1.11,1.94-1.69l0,0A64.3,64.3,0,0,0,122.34,90.3Zm-19,18.06a2.68,2.68,0,0,1-.28-.18q-1.85,1.65-3.82,3.13l.31.16-.76.55c-.81.59-1.64,1.16-2.48,1.71l-1.16.74c-1.1.68-2.22,1.33-3.36,1.94l-.76.38a58.49,58.49,0,0,1-8.12,3.44l-.29.1c-1.46.48-2.94.91-4.43,1.28h0c-1.5.37-3,.68-4.57.93l-.12,0c-1.45.23-2.9.4-4.37.53l-.77.06c-1.45.11-2.9.18-4.36.18s-3-.08-4.41-.19l-.76,0c-1.47-.13-2.94-.31-4.4-.55l-.19,0a59.71,59.71,0,0,1-9.06-2.26l-.27-.09c-1.46-.5-2.91-1.05-4.33-1.66l0,0c-1.35-.58-2.67-1.22-4-1.9l-.51-.26c-1.19-.63-2.35-1.32-3.5-2l-1-.65c-1.06-.69-2.1-1.41-3.12-2.17l-.31-.24.23-.13.07,0q-2-1.48-3.78-3.12l-.27.18a59.35,59.35,0,1,1,79,.23Z"/><path d="M64,82a7.57,7.57,0,0,1-7.56-7.56v-8a10.17,10.17,0,0,1,8.74-10.06A8.19,8.19,0,0,0,70.66,53a8.29,8.29,0,0,0,1.27-6.49A8.15,8.15,0,0,0,64,40.17a8.15,8.15,0,0,0-8.15,8.14,7.56,7.56,0,1,1-15.12,0A23.28,23.28,0,0,1,64,25a23.71,23.71,0,0,1,4.9.52,23.27,23.27,0,0,1,2.83,44.68l-.18.07v4.16A7.58,7.58,0,0,1,64,82Zm0-46.52a13.31,13.31,0,0,1,2.82.3,12.72,12.72,0,0,1,9.71,9.72A12.8,12.8,0,0,1,65.83,61a5.57,5.57,0,0,0-4.74,5.44v8a2.9,2.9,0,0,0,5.8,0V68.58a2.33,2.33,0,0,1,1.75-2.26A18.6,18.6,0,1,0,52.27,33.88,18.45,18.45,0,0,0,45.4,48.31a2.91,2.91,0,0,0,1.45,2.52,2.89,2.89,0,0,0,2.9,0,2.91,2.91,0,0,0,1.45-2.52,12.81,12.81,0,0,1,12.73-12.8Z"/><path d="M64,103a7.57,7.57,0,1,1,7.57-7.57A7.58,7.58,0,0,1,64,103ZM64,92.5a2.9,2.9,0,1,0,2.9,2.89A2.9,2.9,0,0,0,64,92.5Z"/><circle class="cls-1" cx="64.09" cy="95.39" r="3.92"/></svg>