<svg id="Capa_1" data-name="Capa 1" xmlns="http://www.w3.org/2000/svg" viewBox="0 0 125.19 125.18"><defs><style>.cls-1{fill:#02809d;}.cls-2{fill:#17b5c8;}.cls-3{fill:#a6d100;}.cls-4{fill:#6cab00;}</style></defs><path class="cls-1" d="M85.88,4.12A34.14,34.14,0,0,1,52.51,63.47,34.68,34.68,0,1,0,85.88,4.12Z"/><path class="cls-2" d="M101.11,32.54A34.1,34.1,0,0,0,85.88,4.12,34.68,34.68,0,0,0,52.51,63.47a34.15,34.15,0,0,0,48.6-30.93ZM86.43,17.37A7.59,7.59,0,1,1,78.85,25,7.58,7.58,0,0,1,86.43,17.37Z"/><path class="cls-3" d="M76.13,72.15s22.24-5.14,29-18.49S111.25,37,111.25,37l11.94,13.1-.94,67.9-4.68,4.68-37.13-1.17-4.31-4.91Z"/><path class="cls-4" d="M76.13,81s32.72-.11,42.17-35L111,39.57A52,52,0,0,1,100,60.3S89.71,70.51,76.13,72.15Z"/><path d="M124.47,47.66l-3.2-3.2V18.68a18.66,18.66,0,0,0-30-14.87,37,37,0,0,0-48,52.47l-14,14H23.38a2.44,2.44,0,0,0-2.44,2.44v4.49H16.45A2.44,2.44,0,0,0,14,79.66v4.49H9.52a2.44,2.44,0,0,0-2.44,2.44v4.49H2.59a2.48,2.48,0,0,0-1.73.71l-.14.15A2.45,2.45,0,0,0,0,93.67v15.86A2.44,2.44,0,0,0,2.45,112H18.61a2.42,2.42,0,0,0,1.72-.72l27-27a2.45,2.45,0,0,0-3.46-3.46L17.59,107.09H4.89V96H9.52A2.45,2.45,0,0,0,12,93.52V89h4.48a2.45,2.45,0,0,0,2.45-2.45V82.11h4.49a2.45,2.45,0,0,0,2.44-2.45V75.17h4.49A2.41,2.41,0,0,0,32,74.46L46.17,60.34A37.17,37.17,0,0,0,73.35,74v40.87a10.28,10.28,0,0,0,10.27,10.27h31.3a10.28,10.28,0,0,0,10.27-10.27V49.39A2.45,2.45,0,0,0,124.47,47.66ZM102.59,4.89a13.8,13.8,0,0,1,13.79,13.79V39.57L112,35.18l-.07-.06a36.87,36.87,0,0,0-10.78-24.27A37.44,37.44,0,0,0,96,6.57,13.69,13.69,0,0,1,102.59,4.89ZM88.8,25.63v-5.4a5.74,5.74,0,0,1,1.76,1.2,5.93,5.93,0,1,1-8.38,0,5.75,5.75,0,0,1,1.73-1.19v5.39a2.45,2.45,0,0,0,4.89,0ZM75,69.17A32.14,32.14,0,1,1,87.64,7.49,18.72,18.72,0,0,0,84.27,15a10.79,10.79,0,1,0,5,.18,13.68,13.68,0,0,1,2.8-5.4,32.3,32.3,0,0,1,5.63,4.51A32.13,32.13,0,0,1,75,69.17Zm45.34,45.74a5.39,5.39,0,0,1-5.38,5.38H83.62a5.39,5.39,0,0,1-5.38-5.38v-41a37,37,0,0,0,33.43-32.16l8.63,8.63Z"/><path d="M62.51,24.59a2.45,2.45,0,1,0-3.46-3.46,22.53,22.53,0,0,0,0,31.82,2.45,2.45,0,0,0,3.46-3.46A17.62,17.62,0,0,1,62.51,24.59Z"/><path d="M70.28,54l0,0a2.45,2.45,0,0,0-1.3,4.72,2.57,2.57,0,0,0,.67.09A2.44,2.44,0,0,0,70.28,54Z"/><path d="M109.66,107.09H88.88a2.45,2.45,0,1,0,0,4.89h20.78a2.45,2.45,0,1,0,0-4.89Z"/><path d="M53.57,74.56a2.45,2.45,0,0,0-4.17,1.73,2.45,2.45,0,0,0,4.89,0A2.46,2.46,0,0,0,53.57,74.56Z"/></svg>