<svg id="Capa_1" data-name="Capa 1" xmlns="http://www.w3.org/2000/svg" viewBox="0 0 96.67 122.51"><defs><style>.cls-1{fill:none;}.cls-2{fill:#a6d100;}.cls-3{fill:#6cab00;}.cls-4{fill:#02809d;}.cls-5{fill:#17b5c8;}</style></defs><path class="cls-1" d="M54.15,68.62a12,12,0,0,0-1-.65A12,12,0,0,1,54.15,68.62Z"/><polygon class="cls-1" points="56.52 99.53 54.92 84.41 54.92 84.41 56.52 99.53"/><path class="cls-1" d="M48.34,71.55a5.26,5.26,0,0,0-2.68,9.79,2.39,2.39,0,0,1,1.15,2.31L45.36,97.39h6.12L50,83.55a2.39,2.39,0,0,1,1.1-2.28,5.26,5.26,0,0,0-2.78-9.72Z"/><path class="cls-1" d="M42,69.06A9.81,9.81,0,0,1,43.55,68,9.81,9.81,0,0,0,42,69.06Z"/><path class="cls-1" d="M39.5,72a10.12,10.12,0,0,0-1,7,10.12,10.12,0,0,1,1-7Z"/><path class="cls-1" d="M40,71.19a11,11,0,0,1,1.23-1.48A11,11,0,0,0,40,71.19Z"/><path class="cls-1" d="M53.12,68a10.07,10.07,0,0,0-9.57,0,10.07,10.07,0,0,1,9.57,0Z"/><path class="cls-1" d="M40.32,99.53l1.59-15a10,10,0,0,1-2.38-2.93,10,10,0,0,0,2.38,2.93l-1.59,15a2.41,2.41,0,0,0,.6,1.85,2.7,2.7,0,0,0,.53.43,2.7,2.7,0,0,1-.53-.43A2.41,2.41,0,0,1,40.32,99.53Z"/><path class="cls-2" d="M57,11.43a21.32,21.32,0,0,1,12.6,19.44V43.39h4.79V30.87a26.09,26.09,0,0,0-52.17,0v2.2H27v-2.2a21.29,21.29,0,0,1,13-19.62,2.39,2.39,0,0,1,3.14,1.27l0,.1a13.55,13.55,0,0,1,2.75-.9,2.39,2.39,0,0,1,2.37-2.15h.26a2.4,2.4,0,0,1,2.34,2.1,10.65,10.65,0,0,1,2.93,1A2.4,2.4,0,0,1,57,11.43Z"/><rect class="cls-3" x="69.63" y="43.39" width="4.79" height="3.04"/><rect class="cls-3" x="19.86" y="25.11" width="9.74" height="3.99"/><path class="cls-4" d="M4.79,53.6v61.73a2.4,2.4,0,0,0,2.39,2.4h10.6a10.26,10.26,0,0,1-4.61-8.57V59.1a10.27,10.27,0,0,1,3.69-7.89H7.18A2.39,2.39,0,0,0,4.79,53.6Z"/><path class="cls-5" d="M51.09,48.81a2.39,2.39,0,0,1-2.4,2.4h-.06a2.39,2.39,0,0,1-2.39-2.4H42.83a2.39,2.39,0,0,1-2.39,2.4H16.86a10.27,10.27,0,0,0-3.69,7.89v50.06a10.26,10.26,0,0,0,4.61,8.57H89.49a2.4,2.4,0,0,0,2.39-2.4V53.6a2.39,2.39,0,0,0-2.39-2.39H57.07a2.39,2.39,0,0,1-2.39-2.4H51.09Zm7.3,28a10,10,0,0,1-2.69,6.85c-.25.26-.51.51-.78.74l1.6,15.13a2.41,2.41,0,0,1-.6,1.85,2.38,2.38,0,0,1-1.78.79H42.7a2.42,2.42,0,0,1-1.25-.36,2.7,2.7,0,0,1-.53-.43,2.41,2.41,0,0,1-.6-1.85l1.59-15a10,10,0,0,1-2.38-2.93,10.57,10.57,0,0,1-.7-1.53,9.82,9.82,0,0,1-.3-1.06,10.12,10.12,0,0,1,1-7c.15-.28.32-.56.5-.83a11,11,0,0,1,1.23-1.48,8.8,8.8,0,0,1,.72-.65A9.81,9.81,0,0,1,43.55,68a10.07,10.07,0,0,1,9.57,0,12,12,0,0,1,1,.65A10.05,10.05,0,0,1,58.39,76.81Z"/><path d="M48.34,14.36h.24A2.4,2.4,0,0,0,51,12c0-.11,0-.21,0-.32a12.61,12.61,0,0,0-5,.05,2,2,0,0,0,0,.24A2.39,2.39,0,0,0,48.34,14.36Z"/><path d="M50.94,11.67a2.4,2.4,0,0,0-2.34-2.1h-.26A2.39,2.39,0,0,0,46,11.72,12.61,12.61,0,0,1,50.94,11.67Z"/><path d="M89.49,46.42H79.2V30.87a30.87,30.87,0,1,0-61.73,0v2.2h3.38L22,19.31S34.07,2.94,48.34,2.94s25.3,13.65,25.3,13.65,2.11,17.64,3,26.8H77V48h0c0,.51,0,.8,0,.8H67.56V48h-.43V43.39h.4L67.4,26.83,56,13.23l-2.17-.6a2.39,2.39,0,0,0,1.2,3.16,16.57,16.57,0,0,1,9.78,15.08V46.42H57.07a2.39,2.39,0,0,0-2.39,2.39H93.57v70.63H3.14V48.81H42.83a2.39,2.39,0,0,0-2.39-2.39H29.63V48h-.12l0,.8-6.1-.8H19.71V46.42H7.18A7.19,7.19,0,0,0,0,53.6v61.73a7.19,7.19,0,0,0,7.18,7.18H89.49a7.19,7.19,0,0,0,7.18-7.18V53.6A7.19,7.19,0,0,0,89.49,46.42Z"/><path d="M30.75,21.07l-.55,12h1.62v-2.2a16.49,16.49,0,0,1,10.1-15.21,2.4,2.4,0,0,0,1.3-3h0Z"/><path d="M30.75,21.07l12.44-8.44h0l0-.1a2.39,2.39,0,0,0-3.14-1.27A21.29,21.29,0,0,0,27,30.87v2.2H30.2Z"/><polygon points="29.47 48.76 29.51 47.96 23.37 47.96 29.47 48.76"/><path d="M67.56,48.76H77s0-.29,0-.8H67.55Z"/><path d="M22.25,30.87a26.09,26.09,0,0,1,52.17,0V43.39h2.22c-.89-9.16-3-26.8-3-26.8S62.6,2.94,48.34,2.94,22,19.31,22,19.31l-1.1,13.76h1.4Z"/><path d="M69.63,30.87A21.32,21.32,0,0,0,57,11.43a2.4,2.4,0,0,0-3.16,1.2l2.17.6L67.4,26.83l.12,16.56h2.11Z"/><polygon points="19.71 46.42 19.71 47.48 19.79 46.42 19.71 46.42"/><polygon points="19.71 47.96 23.37 47.96 19.71 47.48 19.71 47.96"/><polygon points="29.51 47.96 29.63 47.96 29.63 46.42 29.58 46.42 29.51 47.96"/><polygon points="27.04 46.42 22.25 46.42 19.79 46.42 19.71 47.48 23.37 47.96 29.51 47.96 29.58 46.42 27.04 46.42"/><polygon points="67.12 43.39 67.12 47.96 67.55 47.96 67.52 43.39 67.12 43.39"/><path d="M77,48V43.39h-.4c.2,2,.35,3.66.39,4.57Z"/><path d="M74.42,46.42H69.63v-3H67.52l0,4.57H77c0-.91-.19-2.53-.39-4.57H74.42Z"/><path d="M7.18,117.73a2.4,2.4,0,0,1-2.39-2.4V53.6a2.39,2.39,0,0,1,2.39-2.39h9.68a10.21,10.21,0,0,1,6.59-2.4H3.14v70.63H23.45a10.19,10.19,0,0,1-5.67-1.71Z"/><path d="M57.07,51.21H89.49a2.39,2.39,0,0,1,2.39,2.39v61.73a2.4,2.4,0,0,1-2.39,2.4H17.78a10.19,10.19,0,0,0,5.67,1.71H93.57V48.81H54.68A2.39,2.39,0,0,0,57.07,51.21Z"/><path d="M40.44,51.21a2.39,2.39,0,0,0,2.39-2.4H23.45a10.21,10.21,0,0,0-6.59,2.4Z"/><path d="M48.69,46.42h-.06a2.39,2.39,0,0,0-2.39,2.39h4.85A2.39,2.39,0,0,0,48.69,46.42Z"/><path d="M48.63,51.21h.06a2.39,2.39,0,0,0,2.4-2.4H46.24A2.39,2.39,0,0,0,48.63,51.21Z"/><path d="M48.34,66.76A10,10,0,0,0,43.55,68,9.81,9.81,0,0,0,42,69.06a8.8,8.8,0,0,0-.72.65A11,11,0,0,0,40,71.19c-.18.27-.35.55-.5.83a10.12,10.12,0,0,0-1,7,9.82,9.82,0,0,0,.3,1.06,10.57,10.57,0,0,0,.7,1.53,10,10,0,0,0,2.38,2.93l-1.59,15a2.41,2.41,0,0,0,.6,1.85,2.7,2.7,0,0,0,.53.43,2.42,2.42,0,0,0,1.25.36H54.14a2.38,2.38,0,0,0,1.78-.79,2.41,2.41,0,0,0,.6-1.85L54.92,84.4h0c.27-.23.53-.48.78-.74a10,10,0,0,0-1.55-15,12,12,0,0,0-1-.65A10,10,0,0,0,48.34,66.76Zm2.78,14.51A2.39,2.39,0,0,0,50,83.55l1.46,13.84H45.36l1.45-13.74a2.39,2.39,0,0,0-1.15-2.31,5.27,5.27,0,1,1,5.46-.07Z"/><path d="M58.39,76.81a10,10,0,0,1-2.69,6.85,10,10,0,0,0-1.55-15A10.05,10.05,0,0,1,58.39,76.81Z"/><path d="M54.92,84.4c.27-.23.53-.48.78-.74-.25.26-.51.51-.78.74Z"/><path d="M39.53,81.6a10.57,10.57,0,0,1-.7-1.53A10.57,10.57,0,0,0,39.53,81.6Z"/><path d="M42.7,102.17a2.42,2.42,0,0,1-1.25-.36,2.42,2.42,0,0,0,1.25.36H54.14a2.38,2.38,0,0,0,1.78-.79,2.38,2.38,0,0,1-1.78.79Z"/><polygon points="29.58 46.42 29.63 46.42 29.63 45.3 29.58 46.42"/><rect x="17.47" y="28.58" width="14.52" height="4.48"/></svg>