<svg id="Capa_1" data-name="Capa 1" xmlns="http://www.w3.org/2000/svg" viewBox="0 0 99.79 103.25"><defs><style>.cls-1{fill:#17b5c8;}.cls-2{fill:#5f7993;}.cls-3{fill:#02809d;}.cls-4{fill:#a6d100;}.cls-5{fill:#6cab00;}</style></defs><rect class="cls-1" x="37.98" y="1.33" width="24.21" height="24.21"/><rect class="cls-2" x="37.98" y="39.52" width="24.21" height="24.21"/><rect class="cls-2" x="2.06" y="39.52" width="24.21" height="24.21"/><rect class="cls-2" x="73.01" y="39.52" width="24.21" height="24.21"/><path class="cls-3" d="M24.23,3.56c.55,0,1.1,0,1.64.06V1.33H2.46V24.74h0A21.76,21.76,0,0,1,24.23,3.56Z"/><path class="cls-1" d="M25.87,3.62c-.54,0-1.09-.06-1.64-.06A21.76,21.76,0,0,0,2.47,24.74h23.4Z"/><path class="cls-3" d="M94.6,23.1c0,.55,0,1.1-.07,1.64h2.29V1.33H73.41A21.77,21.77,0,0,1,94.6,23.1Z"/><path class="cls-1" d="M94.53,24.74c0-.54.07-1.09.07-1.64A21.77,21.77,0,0,0,73.41,1.34v23.4Z"/><rect class="cls-4" x="37.09" y="76.71" width="24.21" height="24.21" transform="translate(98.4 177.62) rotate(180)"/><path class="cls-5" d="M75.06,98.7c-.56,0-1.1,0-1.65-.07v2.29H96.82V77.51h0A21.76,21.76,0,0,1,75.06,98.7Z"/><path class="cls-4" d="M73.41,98.63c.55,0,1.09.07,1.65.07A21.76,21.76,0,0,0,96.81,77.51H73.41Z"/><path class="cls-5" d="M4.68,79.15c0-.55,0-1.09.07-1.64H2.46v23.41H25.87A21.77,21.77,0,0,1,4.68,79.15Z"/><path class="cls-4" d="M4.75,77.51c0,.55-.07,1.09-.07,1.64a21.77,21.77,0,0,0,21.19,21.76V77.51Z"/><path d="M0,2.83V25a2.83,2.83,0,0,0,2.83,2.83H25A2.83,2.83,0,0,0,27.78,25V2.83A2.83,2.83,0,0,0,25,0H2.83A2.83,2.83,0,0,0,0,2.83Zm21.39,21.4h-15a2.83,2.83,0,0,1-2.83-2.84v-15A2.82,2.82,0,0,1,6.39,3.56h15a2.83,2.83,0,0,1,2.84,2.83v15A2.84,2.84,0,0,1,21.39,24.23Z"/><path d="M36,2.83V25a2.83,2.83,0,0,0,2.83,2.83H61A2.84,2.84,0,0,0,63.79,25V2.83A2.84,2.84,0,0,0,61,0H38.84A2.83,2.83,0,0,0,36,2.83ZM57.4,24.23h-15a2.84,2.84,0,0,1-2.84-2.84v-15A2.83,2.83,0,0,1,42.4,3.56h15a2.83,2.83,0,0,1,2.83,2.83v15A2.84,2.84,0,0,1,57.4,24.23Z"/><path d="M72,2.83V25a2.84,2.84,0,0,0,2.84,2.83H97A2.83,2.83,0,0,0,99.79,25V2.83A2.83,2.83,0,0,0,97,0H74.85A2.84,2.84,0,0,0,72,2.83ZM93.4,24.23h-15a2.84,2.84,0,0,1-2.83-2.84v-15A2.83,2.83,0,0,1,78.4,3.56h15a2.83,2.83,0,0,1,2.84,2.83v15A2.84,2.84,0,0,1,93.4,24.23Z"/><path d="M0,40.57V62.68a2.84,2.84,0,0,0,2.83,2.84H25a2.84,2.84,0,0,0,2.83-2.84V40.57A2.84,2.84,0,0,0,25,37.73H2.83A2.84,2.84,0,0,0,0,40.57ZM21.39,62h-15a2.83,2.83,0,0,1-2.83-2.83v-15a2.83,2.83,0,0,1,2.83-2.83h15a2.84,2.84,0,0,1,2.84,2.83v15A2.84,2.84,0,0,1,21.39,62Z"/><path d="M36,40.57V62.68a2.83,2.83,0,0,0,2.83,2.84H61a2.84,2.84,0,0,0,2.84-2.84V40.57A2.84,2.84,0,0,0,61,37.73H38.84A2.83,2.83,0,0,0,36,40.57ZM57.4,62h-15a2.84,2.84,0,0,1-2.84-2.83v-15a2.84,2.84,0,0,1,2.84-2.83h15a2.83,2.83,0,0,1,2.83,2.83v15A2.83,2.83,0,0,1,57.4,62Z"/><path d="M72,40.57V62.68a2.84,2.84,0,0,0,2.84,2.84H97a2.83,2.83,0,0,0,2.83-2.84V40.57A2.83,2.83,0,0,0,97,37.73H74.85A2.84,2.84,0,0,0,72,40.57ZM93.4,62h-15a2.83,2.83,0,0,1-2.83-2.83v-15a2.83,2.83,0,0,1,2.83-2.83h15a2.84,2.84,0,0,1,2.84,2.83v15A2.84,2.84,0,0,1,93.4,62Z"/><path d="M0,78.3v22.12a2.83,2.83,0,0,0,2.83,2.83H25a2.83,2.83,0,0,0,2.83-2.83V78.3A2.83,2.83,0,0,0,25,75.47H2.83A2.83,2.83,0,0,0,0,78.3ZM21.39,99.7h-15a2.83,2.83,0,0,1-2.83-2.84v-15A2.83,2.83,0,0,1,6.39,79h15a2.84,2.84,0,0,1,2.84,2.84v15A2.84,2.84,0,0,1,21.39,99.7Z"/><path d="M36,78.3v22.12a2.83,2.83,0,0,0,2.83,2.83H61a2.84,2.84,0,0,0,2.84-2.83V78.3A2.84,2.84,0,0,0,61,75.47H38.84A2.83,2.83,0,0,0,36,78.3ZM57.4,99.7h-15a2.84,2.84,0,0,1-2.84-2.84v-15A2.84,2.84,0,0,1,42.4,79h15a2.84,2.84,0,0,1,2.83,2.84v15A2.84,2.84,0,0,1,57.4,99.7Z"/><path d="M72,78.3v22.12a2.84,2.84,0,0,0,2.84,2.83H97a2.83,2.83,0,0,0,2.83-2.83V78.3A2.83,2.83,0,0,0,97,75.47H74.85A2.84,2.84,0,0,0,72,78.3ZM93.4,99.7h-15a2.84,2.84,0,0,1-2.83-2.84v-15A2.84,2.84,0,0,1,78.4,79h15a2.84,2.84,0,0,1,2.84,2.84v15A2.84,2.84,0,0,1,93.4,99.7Z"/></svg>