<svg id="Capa_1" data-name="Capa 1" xmlns="http://www.w3.org/2000/svg" viewBox="0 0 124.17 121.73"><defs><style>.cls-1{fill:#5f7993;}.cls-2{fill:#3a5368;}.cls-3{fill:#02809d;}.cls-4{fill:#17b5c8;}.cls-5{fill:#a6d100;}.cls-6{fill:#6cab00;}</style></defs><path class="cls-1" d="M108.28,13.15S104.65,1.87,92.13,1.72,15,2.48,15,2.48,3.82,7.21,2.3,19.56s.76,84.17.76,84.17,7,6.52,11.59,5.4l.92-86.67s6.71-9.92,11.89-9.31Z"/><path class="cls-2" d="M15.87,93.21S4.44,85.69,3.25,48.78L1.78,100l14.09,9.3Z"/><ellipse class="cls-3" cx="92.4" cy="43.06" rx="8.71" ry="9.47"/><ellipse class="cls-4" cx="89.48" cy="43.06" rx="7.58" ry="9.47"/><polygon class="cls-5" points="15.87 93.21 45.76 43.96 55.03 43.96 78.24 85.89 83.58 86.81 103.4 74.15 121.09 89.09 121.09 113.19 110.72 119.75 20.29 118.37 15.11 110.44 15.87 93.21"/><path class="cls-6" d="M109.28,79.12s-4.35-3-24,19.43L78.09,86.66l12.65-4.12,11.14-9Z"/><path class="cls-6" d="M59.87,55.48S43.47,62,22.28,116.88l-5.8-5.33v-22L45.76,44l7.17-.9Z"/><path d="M92.13,30.56a12.5,12.5,0,1,0,12.5,12.5A12.52,12.52,0,0,0,92.13,30.56Zm0,20.15a7.65,7.65,0,1,1,7.65-7.65A7.66,7.66,0,0,1,92.13,50.71Z"/><path d="M92.22,108.2a2.82,2.82,0,0,0-.23-.42,2.69,2.69,0,0,0-.3-.37,2.2,2.2,0,0,0-.37-.3,2.1,2.1,0,0,0-.42-.22,2.35,2.35,0,0,0-.45-.14,2.53,2.53,0,0,0-1,0,2.59,2.59,0,0,0-.45.14,2.1,2.1,0,0,0-.42.22,2.29,2.29,0,0,0-.67.67,2.1,2.1,0,0,0-.22.42,2.35,2.35,0,0,0-.14.45,2.28,2.28,0,0,0,0,.95,2.35,2.35,0,0,0,.14.45,2.1,2.1,0,0,0,.22.42,2.2,2.2,0,0,0,.3.37l.18.16a1.33,1.33,0,0,0,.19.14,2.1,2.1,0,0,0,.42.22,2.32,2.32,0,0,0,1.4.14,2.35,2.35,0,0,0,.45-.14,2.1,2.1,0,0,0,.42-.22l.2-.14a1.29,1.29,0,0,0,.17-.16,2.2,2.2,0,0,0,.3-.37,2.82,2.82,0,0,0,.23-.42,3.36,3.36,0,0,0,.14-.45,2.56,2.56,0,0,0,0-.47,2.59,2.59,0,0,0,0-.48A3.36,3.36,0,0,0,92.22,108.2Z"/><path d="M54.05,12.22a2.38,2.38,0,0,0-.23-.41,2.29,2.29,0,0,0-.67-.67,2.13,2.13,0,0,0-.42-.23,3,3,0,0,0-.45-.14,2.48,2.48,0,0,0-.94,0,3.5,3.5,0,0,0-.46.14,2.13,2.13,0,0,0-.42.23,2.56,2.56,0,0,0-.37.3,2.2,2.2,0,0,0-.3.37,2.32,2.32,0,0,0-.22.41,2.44,2.44,0,0,0-.14.46,2.5,2.5,0,0,0,0,.47,2.41,2.41,0,0,0,.19.93,2.1,2.1,0,0,0,.22.42,2.69,2.69,0,0,0,.3.37,3.47,3.47,0,0,0,.37.3,2.1,2.1,0,0,0,.42.22,2.44,2.44,0,0,0,.46.14,2.23,2.23,0,0,0,.94,0,2.15,2.15,0,0,0,.45-.14,2.1,2.1,0,0,0,.42-.22,2.2,2.2,0,0,0,.37-.3,2.65,2.65,0,0,0,.53-.79,1.91,1.91,0,0,0,.13-.45,2,2,0,0,0,0-.48,1.88,1.88,0,0,0,0-.47A1.86,1.86,0,0,0,54.05,12.22Z"/><path d="M110.62,10.74A14,14,0,0,0,97.05,0H21A21,21,0,0,0,0,21V97.05A14,14,0,0,0,13.55,111a14,14,0,0,0,13.57,10.74h83.11a14,14,0,0,0,13.94-14V24.67A14,14,0,0,0,110.62,10.74Zm8.7,97a9.11,9.11,0,0,1-9.09,9.1H27.12a9.1,9.1,0,0,1-9.1-9.1V94.91L45.85,47.74a4.57,4.57,0,0,1,7.95.13l12,22,17.41,32a2.42,2.42,0,0,0,2.13,1.27,2.31,2.31,0,0,0,1.16-.3,2.42,2.42,0,0,0,1-3.29L81.8,89.15a10.06,10.06,0,0,0,6.87-2.3l10.9-9a4.59,4.59,0,0,1,6,.15l.57.52L111,82.92l8.32,7.63Zm0-23.81L111,76.34l-4.85-3.7a9.45,9.45,0,0,0-9.67,1.43l-10.91,9a5.19,5.19,0,0,1-7.88-1.51L70,67.55,65.77,59.7h0L58.06,45.55a9.43,9.43,0,0,0-16.39-.28L18,85.36V24.67a9.11,9.11,0,0,1,9.1-9.09h15a2.43,2.43,0,0,0,0-4.85h-15A14,14,0,0,0,13.17,24.67v81.44a9.1,9.1,0,0,1-8.32-9.06V21A16.13,16.13,0,0,1,21,4.85H97.05a9.12,9.12,0,0,1,8.51,5.88H61.51a2.43,2.43,0,1,0,0,4.85h44.64l4.85,0a9.11,9.11,0,0,1,8.32,9.06Z"/></svg>