<svg id="Capa_1" data-name="Capa 1" xmlns="http://www.w3.org/2000/svg" viewBox="0 0 128 128"><defs><style>.cls-1{fill:#02809d;}.cls-2{fill:none;}.cls-3{fill:#17b5c8;}.cls-4{fill:#1d1d1b;}</style></defs><circle class="cls-1" cx="64.15" cy="64" r="62.28"/><path class="cls-2" d="M110.67,64a62.28,62.28,0,0,1-42.95,59.2l.64,0,.77-.06c1.47-.13,2.92-.3,4.37-.53l.12,0c1.54-.25,3.07-.56,4.57-.93h0c1.49-.37,3-.8,4.43-1.28l.29-.1a58.49,58.49,0,0,0,8.12-3.44l.76-.38c1.14-.61,2.26-1.26,3.36-1.94l1.16-.74c.84-.55,1.67-1.12,2.48-1.71l.76-.55-.31-.16q2-1.49,3.82-3.13a2.68,2.68,0,0,0,.28.18A59.29,59.29,0,0,0,67.67,4.78,62.29,62.29,0,0,1,110.67,64Z"/><path class="cls-3" d="M4.65,64a59.19,59.19,0,0,0,19.73,44.13l.27-.18q1.83,1.64,3.78,3.12l-.07,0-.23.13.31.24c1,.76,2.06,1.48,3.12,2.17l1,.65c1.15.72,2.31,1.41,3.5,2l.51.26c1.3.68,2.62,1.32,4,1.9l0,0c1.42.61,2.87,1.16,4.33,1.66l.27.09a59.71,59.71,0,0,0,9.06,2.26l.19,0c1.46.24,2.93.42,4.4.55l.76,0c1.46.11,2.93.19,4.41.19,1.25,0,2.48-.06,3.72-.15a62.28,62.28,0,0,0,0-118.42c-1.21-.08-2.44-.13-3.67-.13A59.42,59.42,0,0,0,4.65,64Z"/><path class="cls-4" d="M64,0A64.38,64.38,0,0,0,49.21,1.74a62.18,62.18,0,0,1,18.46,3,59.29,59.29,0,0,1,35.69,103.58,2.68,2.68,0,0,1-.28-.18q-1.85,1.65-3.82,3.13l.31.16-.76.55c-.81.59-1.64,1.16-2.48,1.71l-1.16.74c-1.1.68-2.22,1.33-3.36,1.94l-.76.38a58.49,58.49,0,0,1-8.12,3.44l-.29.1c-1.46.48-2.94.91-4.43,1.28h0c-1.5.37-3,.68-4.57.93l-.12,0c-1.45.23-2.9.4-4.37.53l-.77.06-.64,0a62.19,62.19,0,0,1-18.46,3.06c1.11.26,2.22.5,3.35.7L53,127c1.69.29,3.39.52,5.12.68l.63,0c.83.07,1.67.12,2.51.16s1.79.07,2.7.07,1.79,0,2.68-.07,1.66-.09,2.49-.16l.65,0c.84-.07,1.68-.17,2.52-.28h0c.84-.11,1.67-.23,2.5-.37l.43-.08a62.93,62.93,0,0,0,15.26-4.79c.18-.08.36-.15.54-.24,1.43-.67,2.84-1.4,4.21-2.18l1-.59q1.89-1.09,3.68-2.32l1.28-.91c1-.74,2-1.5,3-2.29.22-.18.45-.33.66-.51l.15-.12c.65-.55,1.31-1.11,1.94-1.69l0,0a64.3,64.3,0,0,0,15.3-21h0c.43-1,.84-1.93,1.23-2.92l.09-.23c.35-.91.68-1.83,1-2.76,0-.14.1-.29.14-.43.29-.87.55-1.74.8-2.62,0-.21.12-.41.17-.62.22-.82.43-1.66.62-2.5.06-.26.12-.51.17-.77.18-.8.32-1.6.46-2.41.06-.3.12-.6.16-.9.13-.78.23-1.57.32-2.37,0-.32.09-.65.13-1,.08-.81.14-1.62.2-2.44,0-.31,0-.62.07-.94.06-1.12.09-2.26.09-3.4A64.07,64.07,0,0,0,64,0Z"/><path class="cls-4" d="M64,123.35c-1.48,0-3-.08-4.41-.19l-.76,0c-1.47-.13-2.94-.31-4.4-.55l-.19,0a59.71,59.71,0,0,1-9.06-2.26l-.27-.09c-1.46-.5-2.91-1.05-4.33-1.66l0,0c-1.35-.58-2.67-1.22-4-1.9l-.51-.26c-1.19-.63-2.35-1.32-3.5-2l-1-.65c-1.06-.69-2.1-1.41-3.12-2.17l-.31-.24.23-.13.07,0q-2-1.48-3.78-3.12l-.27.18A59.31,59.31,0,0,1,64,4.65c1.23,0,2.46,0,3.67.13a62.18,62.18,0,0,0-18.46-3A64.11,64.11,0,0,0,0,64c0,1.14,0,2.27.09,3.4,0,.29.05.59.07.88,0,.83.11,1.67.2,2.49,0,.3.08.6.11.91.1.81.2,1.63.33,2.43,0,.27.1.53.14.8.15.84.3,1.68.48,2.51l.15.64c.2.88.41,1.76.64,2.63,0,.16.09.31.13.46.26.94.54,1.86.84,2.78l.09.26c.33,1,.68,2,1.05,2.93l0,0a64.23,64.23,0,0,0,16.43,24l0,0c.64.59,1.3,1.16,2,1.72l.07.06c.13.11.28.21.42.32,1.1.91,2.24,1.78,3.4,2.62l1.14.81q1.88,1.29,3.82,2.44l.86.49c1.43.82,2.88,1.58,4.38,2.28.11.06.22.1.33.15a63.38,63.38,0,0,0,12.12,4.2,62.19,62.19,0,0,0,18.46-3.06C66.48,123.29,65.25,123.35,64,123.35Z"/></svg>