<svg id="Capa_1" data-name="Capa 1" xmlns="http://www.w3.org/2000/svg" viewBox="0 0 146.91 129.64"><defs><style>.cls-1{fill:#a6d100;}.cls-2{fill:#6cab00;}.cls-3{fill:#17b5c8;}.cls-4{fill:#02809d;}.cls-5{fill:#5f7993;}.cls-6{fill:#3a5368;}</style></defs><path class="cls-1" d="M54.56,98.81a1.73,1.73,0,0,1,0-3.45h6.91a1.72,1.72,0,0,1,1.72,1.72v26.61a1.73,1.73,0,1,1-3.45,0V100.54A1.72,1.72,0,0,0,58,98.81Z"/><path class="cls-2" d="M52,97.45h7.23a2.21,2.21,0,0,1,2.21,2.21v26.61L58,124.92l.56-24.4S52.2,98.92,52,97.45Z"/><path class="cls-3" d="M8.21,93.83a1.6,1.6,0,0,0,0,3.2h9.51v26.71a1.91,1.91,0,0,0,3.82,0V97h9.51a1.6,1.6,0,0,0,0-3.2Z"/><path class="cls-4" d="M5.31,95.14H16.43a3.15,3.15,0,0,1,3.15,3.16v27.34H16.71L16.83,99S5.31,97.84,5.31,95.14Z"/><path class="cls-5" d="M122.36,79.79a9.62,9.62,0,0,0,3.53.59c3.25,0,5.08-.92,7.33-6.38l9.49-22.78a4.17,4.17,0,0,0,.2-1.06,1.59,1.59,0,0,0-1.65-1.55c-.39,0-1.21,0-1.83,1.64l-7.53,20.9-7.79-21c-.53-1.47-1.14-1.59-1.82-1.59a1.67,1.67,0,0,0-1.81,1.7,3.7,3.7,0,0,0,.26,1l9.6,22.25-.65,1.54a4.44,4.44,0,0,1-4.51,2.7,7.08,7.08,0,0,1-2.21-.39,1.78,1.78,0,0,0-.68-.11,1.07,1.07,0,0,0-1.05,1.14C121.24,78.77,121.24,79.38,122.36,79.79Z"/><path class="cls-6" d="M120.81,47.46s9.49,21.23,9.86,26.12l-2.5-.9L119,48.61Z"/><path class="cls-3" d="M46.6,48.58a1.61,1.61,0,0,0,0,3.21h9.51V78.5a1.91,1.91,0,0,0,3.81,0V51.79h9.51a1.61,1.61,0,0,0,0-3.21Z"/><path class="cls-4" d="M43.74,50.6H54.86A3.16,3.16,0,0,1,58,53.75V81.1H55.14l.13-26.65S43.74,53.3,43.74,50.6Z"/><path class="cls-1" d="M10.29,79.79a9.66,9.66,0,0,0,3.53.59c3.25,0,5.09-.92,7.34-6.38l9.49-22.78a4.17,4.17,0,0,0,.2-1.06,1.59,1.59,0,0,0-1.66-1.55c-.39,0-1.21,0-1.83,1.64l-7.52,20.9-7.79-21c-.53-1.47-1.14-1.59-1.83-1.59a1.67,1.67,0,0,0-1.81,1.7,4.23,4.23,0,0,0,.27,1l9.6,22.24-.65,1.55a4.46,4.46,0,0,1-4.52,2.7,7.13,7.13,0,0,1-2.21-.39,1.78,1.78,0,0,0-.68-.11,1.06,1.06,0,0,0-1,1.14C9.18,78.77,9.18,79.38,10.29,79.79Z"/><path class="cls-2" d="M8.41,47.46s9.5,21.23,9.87,26.12l-2.5-.9L6.61,48.61Z"/><path class="cls-3" d="M131.6,21.71,138.67,31c.79,1,1.34,1.19,2,1.19a1.44,1.44,0,0,0,1.55-1.55,2.54,2.54,0,0,0-.79-1.65l-7.92-9.09,7.72-9a2,2,0,0,0,.58-1.34,1.44,1.44,0,0,0-1.6-1.34c-.34,0-.89.12-1.8,1.24l-6.69,8.74-6.6-8.8c-.79-1-1.34-1.18-2-1.18a1.44,1.44,0,0,0-1.55,1.55,2.5,2.5,0,0,0,.79,1.64L129.82,20l-8.08,9.54a1.85,1.85,0,0,0-.57,1.33,1.44,1.44,0,0,0,1.6,1.35c.33,0,.88-.13,1.8-1.24Z"/><path class="cls-4" d="M121.86,8.19,129.93,18a3.27,3.27,0,0,1-.08,4.25l-8.68,9.89-.69-3.64,6.9-8.71L119.9,9.4Z"/><path class="cls-1" d="M107.05,14.1V14a9.23,9.23,0,0,0-2.46-6.71c-2-2-5.06-3-8.94-3H83.32a1.88,1.88,0,0,0-1.9,1.91v28a1.91,1.91,0,1,0,3.81,0V24.43h9.21l8.21,10.4a2.73,2.73,0,0,0,2.29,1.27,1.65,1.65,0,0,0,1.7-1.6c0-.55-.18-.92-.84-1.76l-7.12-8.65,2.5-1C105.13,21.43,107.05,18.5,107.05,14.1Zm-11.9,7.43H85.23V7.33H95c5,0,8.14,2.71,8.14,7.08v.1C103.13,18.71,99.92,21.53,95.15,21.53Z"/><path class="cls-2" d="M86.54,4s-3.07-.59-3.31,7.43,0,25.8,0,25.8L79.3,36.1V2.41Z"/><path class="cls-5" d="M58.76,8A11.94,11.94,0,0,0,46.5,20.19v.1A11.84,11.84,0,0,0,58.66,32.34a11.48,11.48,0,0,0,8.29-3,1.27,1.27,0,0,0,.46-1,1.24,1.24,0,0,0-1.24-1.3,1.66,1.66,0,0,0-.89.31A9.7,9.7,0,0,1,59,29.7c-5.15,0-8.9-4-8.9-9.51v-.1c0-5.28,3.78-9.41,8.6-9.41a9.3,9.3,0,0,1,6.05,2.15,1.61,1.61,0,0,0,1,.34,1.46,1.46,0,0,0,1.5-1.45,1.42,1.42,0,0,0-.47-1.08A11.74,11.74,0,0,0,58.76,8Z"/><path class="cls-6" d="M54.56,8s-8.74,5.78-5.06,21.72L45,23l1.5-10.49,6.07-5.19Z"/><path class="cls-3" d="M34.86,33.88,22.47,5.9A2.74,2.74,0,0,0,19.78,4h-.45a2.83,2.83,0,0,0-2.74,1.91L4.2,33.88a2.69,2.69,0,0,0-.28.84,1.6,1.6,0,0,0,1.61,1.66,1.85,1.85,0,0,0,1.76-1.23l3-7H28.56l2.91,6.79c.57,1.31,1.32,1.48,1.91,1.48a1.71,1.71,0,0,0,1.7-1.76A2,2,0,0,0,34.86,33.88ZM17.52,21.21l1.91-4.56,1.91,4.56Z"/><path class="cls-4" d="M14.8,7.33s4.92-4,6.75,0S34.16,36.38,34.16,36.38l3-2.9L23.26,2.41H17.52Z"/><path d="M33.46,40.38a5.93,5.93,0,0,1-5.59-3.89L26,32.11H13l-2,4.62A5.81,5.81,0,0,1,5.6,40.38,5.57,5.57,0,0,1,0,34.72a6.15,6.15,0,0,1,.63-2.49L13,4.29A6.82,6.82,0,0,1,19.4,0h.46A6.79,6.79,0,0,1,26.2,4.28l12.38,28a5.68,5.68,0,0,1,.58,2.38A5.74,5.74,0,0,1,33.46,40.38ZM10.37,28.11H28.64l2.9,6.79c.57,1.31,1.33,1.48,1.92,1.48a1.71,1.71,0,0,0,1.7-1.76,2.09,2.09,0,0,0-.23-.74L22.55,5.9A2.74,2.74,0,0,0,19.86,4H19.4a2.84,2.84,0,0,0-2.74,1.91l-12.38,28a2.44,2.44,0,0,0-.28.84,1.59,1.59,0,0,0,1.6,1.66,1.86,1.86,0,0,0,1.77-1.23Zm17.06-2.9H11.57L19.5,6.32Zm-9.84-4h3.83L19.5,16.65Z"/><path d="M19.61,129.64a5.84,5.84,0,0,1-5.91-5.9V101H8.19a5.6,5.6,0,0,1,0-11.2H31A5.6,5.6,0,0,1,31,101H25.51v22.71A5.84,5.84,0,0,1,19.61,129.64ZM8.19,93.83a1.6,1.6,0,1,0,0,3.2H17.7v26.71a1.91,1.91,0,0,0,3.81,0V97H31a1.6,1.6,0,0,0,0-3.2Z"/><path d="M58,84.4a5.84,5.84,0,0,1-5.91-5.9V55.79H46.6a5.61,5.61,0,0,1,0-11.21H69.43a5.61,5.61,0,0,1,0,11.21H63.92V78.5A5.84,5.84,0,0,1,58,84.4ZM46.6,48.58a1.61,1.61,0,0,0,0,3.21h9.51V78.5a1.91,1.91,0,0,0,3.81,0V51.79h9.51a1.61,1.61,0,0,0,0-3.21Z"/><path d="M58.66,36.34A15.93,15.93,0,0,1,42.5,20.29v-.1A16,16,0,0,1,58.76,4,15.66,15.66,0,0,1,69.33,7.55a5.38,5.38,0,0,1,1.93,4.17,5.49,5.49,0,0,1-5.5,5.45A5.62,5.62,0,0,1,62.3,16a5.33,5.33,0,0,0-3.59-1.3c-2.62,0-4.6,2.32-4.6,5.41v.1c0,2.65,1.54,5.51,4.9,5.51a5.75,5.75,0,0,0,3.83-1.45,5.75,5.75,0,0,1,3.33-1.14,5.28,5.28,0,0,1,5.24,5.3,5.21,5.21,0,0,1-1.76,3.9A15.33,15.33,0,0,1,58.66,36.34ZM58.76,8A11.94,11.94,0,0,0,46.5,20.19v.1A11.84,11.84,0,0,0,58.66,32.34a11.48,11.48,0,0,0,8.29-3,1.27,1.27,0,0,0,.46-1,1.24,1.24,0,0,0-1.24-1.3,1.66,1.66,0,0,0-.89.31A9.7,9.7,0,0,1,59,29.7c-5.15,0-8.9-4-8.9-9.51v-.1c0-5.28,3.78-9.41,8.6-9.41a9.3,9.3,0,0,1,6.05,2.15,1.61,1.61,0,0,0,1,.34,1.46,1.46,0,0,0,1.5-1.45,1.42,1.42,0,0,0-.47-1.08A11.74,11.74,0,0,0,58.76,8Z"/><path d="M13.82,84.38a13.66,13.66,0,0,1-4.89-.83h0a5.26,5.26,0,0,1-3.75-5.08,5.09,5.09,0,0,1,5-5.14,5.68,5.68,0,0,1,1.9.3,3,3,0,0,0,1,.2,2.4,2.4,0,0,0,.66,0,1.34,1.34,0,0,0,.15-.21L5,52.88a7.66,7.66,0,0,1-.57-2.57,5.63,5.63,0,0,1,5.81-5.7c1.85,0,4.33.73,5.58,4.21l4,10.69,3.83-10.64c1-2.75,3-4.26,5.58-4.26a5.61,5.61,0,0,1,5.66,5.55,8,8,0,0,1-.52,2.62L24.85,75.54C22.6,81,20,84.38,13.82,84.38Zm-3.53-4.59a9.66,9.66,0,0,0,3.53.59c3.25,0,5.09-.92,7.34-6.38l9.49-22.78a4.17,4.17,0,0,0,.2-1.06,1.59,1.59,0,0,0-1.66-1.55c-.39,0-1.21,0-1.83,1.64l-7.52,20.9-7.79-21c-.53-1.47-1.14-1.59-1.83-1.59a1.67,1.67,0,0,0-1.81,1.7,4.23,4.23,0,0,0,.27,1l9.6,22.24-.65,1.55a4.46,4.46,0,0,1-4.52,2.7,7.13,7.13,0,0,1-2.21-.39,1.78,1.78,0,0,0-.68-.11,1.06,1.06,0,0,0-1,1.14C9.18,78.77,9.18,79.38,10.29,79.79Z"/><path d="M125.89,84.38a13.62,13.62,0,0,1-4.89-.83h0a5.27,5.27,0,0,1-3.75-5.08,5.09,5.09,0,0,1,5.05-5.14,5.78,5.78,0,0,1,1.9.3,3,3,0,0,0,1,.2,2.4,2.4,0,0,0,.66,0s0,0,.14-.21l-8.93-20.69a7.43,7.43,0,0,1-.57-2.57,5.63,5.63,0,0,1,5.81-5.7c1.85,0,4.32.73,5.58,4.21l4,10.69,3.84-10.64c1-2.75,3-4.26,5.58-4.26a5.6,5.6,0,0,1,5.65,5.55,8,8,0,0,1-.51,2.62l-9.48,22.76C134.67,81,132,84.38,125.89,84.38Zm-3.53-4.59a9.62,9.62,0,0,0,3.53.59c3.25,0,5.08-.92,7.33-6.38l9.49-22.78a4.17,4.17,0,0,0,.2-1.06,1.59,1.59,0,0,0-1.65-1.55c-.39,0-1.21,0-1.83,1.64l-7.53,20.9-7.79-21c-.53-1.47-1.14-1.59-1.82-1.59a1.67,1.67,0,0,0-1.81,1.7,3.7,3.7,0,0,0,.26,1l9.6,22.25-.65,1.54a4.44,4.44,0,0,1-4.51,2.7,7.08,7.08,0,0,1-2.21-.39,1.78,1.78,0,0,0-.68-.11,1.07,1.07,0,0,0-1.05,1.14C121.24,78.77,121.24,79.38,122.36,79.79Z"/><path d="M104.94,40.1a6.6,6.6,0,0,1-5.43-2.8l-7-8.87H89.23v5.76a5.91,5.91,0,1,1-11.81,0v-28A5.84,5.84,0,0,1,83.32.28H95.65c5,0,9,1.45,11.77,4.19A13.12,13.12,0,0,1,111.05,14v.1c0,5.09-2.06,9-6,11.45l3.85,4.68a6.59,6.59,0,0,1,1.72,4.27A5.66,5.66,0,0,1,104.94,40.1ZM85.23,24.43h9.21l8.21,10.4a2.73,2.73,0,0,0,2.29,1.27,1.65,1.65,0,0,0,1.7-1.6c0-.55-.18-.92-.84-1.76l-7.12-8.65,2.5-1c3.95-1.63,5.87-4.56,5.87-9V14a9.23,9.23,0,0,0-2.46-6.71c-2-2-5.06-3-8.94-3H83.32a1.88,1.88,0,0,0-1.9,1.91v28a1.91,1.91,0,1,0,3.81,0Zm9.92-2.9H85.23V7.33H95c5,0,8.14,2.71,8.14,7.08v.1C103.13,18.71,99.92,21.53,95.15,21.53Zm-5.92-4h5.92c1.48,0,4-.39,4-3v-.1c0-.85,0-3.08-4.14-3.08H89.23Z"/><path d="M140.68,36.19a6.44,6.44,0,0,1-5.17-2.73l-3.91-5.15-3.89,5.11a6.56,6.56,0,0,1-4.94,2.77,5.42,5.42,0,0,1-5.6-5.35,5.86,5.86,0,0,1,1.54-3.94l5.84-6.9-5.22-6a6.38,6.38,0,0,1-1.76-4.25,5.43,5.43,0,0,1,5.55-5.55,6.42,6.42,0,0,1,5.17,2.73l3.47,4.63L135.28,7a6.56,6.56,0,0,1,4.94-2.76,5.42,5.42,0,0,1,5.6,5.34,6.12,6.12,0,0,1-1.5,3.89l-5.52,6.45,5.67,6.52a6.38,6.38,0,0,1,1.76,4.25A5.43,5.43,0,0,1,140.68,36.19ZM131.6,21.71,138.67,31c.79,1,1.34,1.19,2,1.19a1.44,1.44,0,0,0,1.55-1.55,2.54,2.54,0,0,0-.79-1.65l-7.92-9.09,7.72-9a2,2,0,0,0,.58-1.34,1.44,1.44,0,0,0-1.6-1.34c-.34,0-.89.12-1.8,1.24l-6.69,8.74-6.6-8.8c-.79-1-1.34-1.18-2-1.18a1.44,1.44,0,0,0-1.55,1.55,2.5,2.5,0,0,0,.79,1.64L129.82,20l-8.08,9.54a1.85,1.85,0,0,0-.57,1.33,1.44,1.44,0,0,0,1.6,1.35c.33,0,.88-.13,1.8-1.24Z"/><path d="M61.47,128.87a5.18,5.18,0,0,0,5.17-5.18V97.08a5.18,5.18,0,0,0-5.17-5.17H54.56a5.18,5.18,0,0,0,0,10.35h1.73v21.43A5.18,5.18,0,0,0,61.47,128.87ZM54.56,98.81a1.73,1.73,0,0,1,0-3.45h6.91a1.72,1.72,0,0,1,1.72,1.72v26.61a1.73,1.73,0,1,1-3.45,0V100.54A1.72,1.72,0,0,0,58,98.81Z"/></svg>