<svg id="Capa_1" data-name="Capa 1" xmlns="http://www.w3.org/2000/svg" viewBox="0 0 123.06 123.06"><defs><style>.cls-1{fill:#17b5c8;}.cls-2{fill:#02809d;}.cls-3{fill:#a6d100;}.cls-4{fill:#6cab00;}</style></defs><path class="cls-1" d="M39.15,41.92,23.81,24.48l12.82-12L45.46,19l12.4-3.78V2H77.58v12.4L86.87,19l12.4-7.65,11.35,14.8-6.31,9.46,3.78,8.56,11.14,1.3L120.7,64.2,108.3,66s-4.62,5.73-4.62,6.36,7.15,14.92,7.15,14.92L98.64,99.09,89,91.32l-8-7.15L80.77,76,87.29,69l4.83-11.35L91.7,45.48,77.58,32,61,30.78l-9.88,5.68-6.72,7.35Z"/><path class="cls-2" d="M77.58,15.65s45.48,33.63,7.61,72.29l11.88,9.89,13.76-10.51-7.57-12.24,5-9,11.14-1.42,1.26-18.28-12-.86-6.43-13.24,7.7-5-1.27-5L98,11.36l-6.93,8.7Z"/><path class="cls-3" d="M79.75,89v-13l-8.51-3.15-1.79-6.1,3.22-6.3-11-10-5.26,4.08-5.67-2.64L48,44.18H34.56l-1.68,7.66-6.72,2.64L20.27,50.4,14,54.48l-3.79,6.94,3.36,6.52-1,5.67L10,75.08l-6.51.84-1,11.35,6.72,1.47,3.57,7.2-3.57,6.88,13.14,10.93,3.89-4.83,6.09,3.15,3.57,8.41H47.17L50,111.86l5.09-2.52,8.68,3.78L72.67,103l-4.9-7.09L71.24,90ZM41.11,97.83A15.9,15.9,0,1,1,57,81.94,15.88,15.88,0,0,1,41.11,97.83Z"/><path class="cls-4" d="M30.14,109.42s22.26,4.83,32.08-13.59c13.45-25.22-8.77-40.67-8.77-40.67l9.66-4.76,9.56,10-4.09,8.88,5,5,7.24,5.12-2,10L71.24,90.9,68.58,97l4.09,6-8.29,11s-7.48-3.9-8.38-4.29-6,2.13-6,2.13l-2,7.62-10.56,1.68-4.41-4.62Z"/><path d="M37,123.06a6.42,6.42,0,0,1-6.41-6.41V114.4a1.72,1.72,0,0,0-1.14-1.62c-.67-.27-1.32-.54-1.95-.83a1.72,1.72,0,0,0-.73-.16,1.7,1.7,0,0,0-1.23.51L24,113.9a6.41,6.41,0,0,1-9,0l-5.77-5.77a6.43,6.43,0,0,1,0-9l1.6-1.61a1.71,1.71,0,0,0,.35-2q-.43-1-.81-2a1.73,1.73,0,0,0-1.62-1.13H6.41A6.42,6.42,0,0,1,0,86V77.86a6.42,6.42,0,0,1,6.41-6.41H8.65a1.73,1.73,0,0,0,1.64-1.13c.26-.66.53-1.31.82-1.94a1.76,1.76,0,0,0-.35-2l-1.6-1.61a6.42,6.42,0,0,1,0-9.05L14.93,50A6.41,6.41,0,0,1,24,50l1.6,1.6a1.74,1.74,0,0,0,1.24.51,1.64,1.64,0,0,0,.72-.16q1-.44,1.95-.81a1.73,1.73,0,0,0,1.13-1.63V47.24A6.42,6.42,0,0,1,37,40.83H45.2a6.41,6.41,0,0,1,6.4,6.41v2.24a1.73,1.73,0,0,0,1.14,1.63c.67.27,1.31.54,1.95.83a1.84,1.84,0,0,0,.73.16,1.73,1.73,0,0,0,1.23-.51l1.6-1.6a6.42,6.42,0,0,1,9.06,0l5.77,5.77a6.43,6.43,0,0,1,0,9.05l-1.6,1.61a1.71,1.71,0,0,0-.35,2q.44,1,.81,1.95a1.73,1.73,0,0,0,1.62,1.13h2.25a6.42,6.42,0,0,1,6.41,6.41V86a6.42,6.42,0,0,1-6.41,6.41H73.57A1.71,1.71,0,0,0,72,93.57c-.27.67-.54,1.31-.83,2a1.72,1.72,0,0,0,.35,2l1.6,1.6a6.45,6.45,0,0,1,0,9.06l-5.77,5.77a6.42,6.42,0,0,1-9,0l-1.61-1.6a1.74,1.74,0,0,0-2-.35c-.64.29-1.28.56-1.94.81a1.74,1.74,0,0,0-1.14,1.62v2.25a6.41,6.41,0,0,1-6.4,6.41Zm-10.21-15.9a6.38,6.38,0,0,1,2.65.57c.55.25,1.11.48,1.67.69a6.48,6.48,0,0,1,4.13,6v2.25A1.76,1.76,0,0,0,37,118.41H45.2A1.76,1.76,0,0,0,47,116.65V114.4a6.44,6.44,0,0,1,4.12-6c.57-.22,1.12-.45,1.67-.7A6.45,6.45,0,0,1,59.92,109l1.6,1.6a1.71,1.71,0,0,0,1.24.52,1.75,1.75,0,0,0,1.25-.52l5.77-5.77a1.76,1.76,0,0,0,0-2.48l-1.6-1.6a6.46,6.46,0,0,1-1.28-7.17c.25-.55.48-1.11.69-1.67a6.47,6.47,0,0,1,6-4.13h2.25A1.76,1.76,0,0,0,77.58,86V77.86a1.76,1.76,0,0,0-1.76-1.76H73.57a6.47,6.47,0,0,1-6-4.12c-.22-.57-.45-1.13-.7-1.67a6.48,6.48,0,0,1,1.28-7.17l1.6-1.6a1.73,1.73,0,0,0,.52-1.25,1.71,1.71,0,0,0-.52-1.24L64,53.28a1.74,1.74,0,0,0-1.24-.51,1.78,1.78,0,0,0-1.25.51l-1.59,1.6a6.45,6.45,0,0,1-7.17,1.28c-.55-.25-1.11-.48-1.67-.7a6.45,6.45,0,0,1-4.13-6V47.24a1.76,1.76,0,0,0-1.76-1.76H37a1.76,1.76,0,0,0-1.76,1.76v2.24a6.46,6.46,0,0,1-4.14,6c-.56.22-1.11.45-1.66.7a6.45,6.45,0,0,1-7.17-1.28l-1.6-1.6a1.75,1.75,0,0,0-2.49,0L12.44,59a1.78,1.78,0,0,0-.51,1.25,1.74,1.74,0,0,0,.51,1.24l1.61,1.6a6.46,6.46,0,0,1,1.28,7.17c-.25.55-.48,1.11-.7,1.67a6.46,6.46,0,0,1-6,4.13H6.41a1.76,1.76,0,0,0-1.76,1.76V86a1.76,1.76,0,0,0,1.76,1.76H8.65a6.46,6.46,0,0,1,6,4.13c.21.56.45,1.12.7,1.67A6.46,6.46,0,0,1,14,100.76l-1.6,1.6a1.76,1.76,0,0,0,0,2.48l5.77,5.77a1.78,1.78,0,0,0,1.25.51,1.74,1.74,0,0,0,1.24-.51l1.6-1.6A6.38,6.38,0,0,1,26.82,107.16Z"/><path d="M41.15,100.61a5.88,5.88,0,0,1-.6,0l-.36,0H40c-.41,0-.81,0-1.21-.09a17.66,17.66,0,0,1-2.17-.41h0l-.07,0a18.67,18.67,0,0,1,0-36.15,20.29,20.29,0,0,1,2-.38l.7-.08c.45,0,.89-.07,1.33-.08l.25,0,.37,0A18.62,18.62,0,0,1,52.23,67l.33.24c.27.21.53.42.78.64l.62.57.07.06c.15.14.29.28.43.43.31.31.61.64.89,1a3,3,0,0,1,.19.23,17.62,17.62,0,0,1,1.87,2.71l0,.1a17.77,17.77,0,0,1,.94,2c.11.28.22.57.32.85s.27.84.39,1.27l0,.16c.08.28.16.56.22.84.09.45.18,1,.25,1.58s.1,1,.12,1.49l0,.27c0,.19,0,.37,0,.57s0,.29,0,.34c0,.38,0,.75-.06,1.13s-.08.81-.14,1.21a22,22,0,0,1-3.11,8.5,6.93,6.93,0,0,1-1.14,1.39A24.62,24.62,0,0,1,50,98.36l-.07,0h0c-.31.16-.62.31-.94.45l-.24.12-.61.27-.86.31-.13,0c-.24.08-.48.17-.73.24s-.74.2-1.1.29l-.19,0-.41.09q-.78.15-1.53.24l-.24,0A16.82,16.82,0,0,1,41.15,100.61Zm0-32.67a14.3,14.3,0,0,0-3.51.44,14,14,0,0,0,0,27.14,15.25,15.25,0,0,0,1.64.3l.24,0a13.34,13.34,0,0,0,1.41.09h.43c.32,0,.65,0,1,0L43,95.8l.22,0A14.83,14.83,0,0,0,47,94.65l.16-.07c.25-.12.5-.24.74-.37a14,14,0,0,0,7-9.8A13.81,13.81,0,0,0,55.07,83v-.12c0-.12,0-.24,0-.37a13,13,0,0,0,0-1.39s0-.36,0-.44A12.72,12.72,0,0,0,54.8,79c0-.11,0-.22-.08-.33l-.07-.25c-.1-.37-.21-.74-.34-1.11l-.06-.18c0-.14-.1-.28-.16-.42a14,14,0,0,0-.69-1.47l-.3-.49c-.18-.31-.38-.61-.58-.9l-.43-.57c-.21-.27-.44-.53-.67-.78l-.16-.17A3.33,3.33,0,0,0,51,72a13.32,13.32,0,0,0-1.12-1l-.42-.31c-.37-.28-.68-.48-1-.68L48,69.77A14.59,14.59,0,0,0,45,68.49l-.41-.11c-.42-.1-.85-.19-1.28-.26l-.45-.07A14.06,14.06,0,0,0,41.11,67.94Z"/><path d="M98,100.79a6.36,6.36,0,0,1-4.53-1.87l-6.71-6.7a2.32,2.32,0,0,1,1.62-4,2.28,2.28,0,0,1,1.67.71l6.71,6.69a1.76,1.76,0,0,0,2.48,0L107.88,87a1.76,1.76,0,0,0,0-2.48l-4.55-4.56a6.35,6.35,0,0,1-1.21-7.34,39.79,39.79,0,0,0,2.07-5,6.34,6.34,0,0,1,6-4.32h6.44a1.76,1.76,0,0,0,1.76-1.76V49.28a1.76,1.76,0,0,0-1.76-1.76h-6.42a6.37,6.37,0,0,1-6-4.32,37.58,37.58,0,0,0-2.06-5,6.36,6.36,0,0,1,1.2-7.35l4.56-4.56a1.76,1.76,0,0,0,0-2.48l-8.67-8.67a1.76,1.76,0,0,0-2.48,0l-4.57,4.55a6.37,6.37,0,0,1-7.33,1.21,38.58,38.58,0,0,0-5-2.07,6.33,6.33,0,0,1-4.32-6V6.41a1.76,1.76,0,0,0-1.76-1.76H61.53a1.76,1.76,0,0,0-1.76,1.76v6.42a6.33,6.33,0,0,1-4.32,6,38.58,38.58,0,0,0-5,2.07,6.35,6.35,0,0,1-7.34-1.2l-4.56-4.56a1.76,1.76,0,0,0-2.48,0l-8.67,8.67a1.76,1.76,0,0,0,0,2.48L34.13,33a2.32,2.32,0,0,1-3.29,3.28l-6.7-6.71a6.43,6.43,0,0,1,0-9.06l8.67-8.66a6.42,6.42,0,0,1,9.06,0l4.56,4.55a1.7,1.7,0,0,0,1.22.52,1.84,1.84,0,0,0,.76-.18A43,43,0,0,1,54,14.46a1.69,1.69,0,0,0,1.14-1.63V6.41A6.42,6.42,0,0,1,61.53,0H73.78a6.42,6.42,0,0,1,6.41,6.41v6.42a1.69,1.69,0,0,0,1.15,1.63,42.46,42.46,0,0,1,5.57,2.32,1.66,1.66,0,0,0,.75.18,1.73,1.73,0,0,0,1.23-.52l4.55-4.55a6.42,6.42,0,0,1,9.06,0l8.68,8.67a6.43,6.43,0,0,1,0,9.06l-4.55,4.56a1.7,1.7,0,0,0-.34,2,43,43,0,0,1,2.31,5.57,1.7,1.7,0,0,0,1.61,1.14h6.44a6.42,6.42,0,0,1,6.41,6.41V61.53a6.42,6.42,0,0,1-6.41,6.41h-6.42a1.7,1.7,0,0,0-1.63,1.15,43.77,43.77,0,0,1-2.32,5.58,1.69,1.69,0,0,0,.34,2l4.54,4.56a6.41,6.41,0,0,1,0,9.06l-8.66,8.66A6.36,6.36,0,0,1,98,100.79Z"/><path d="M85,75.08a2.28,2.28,0,0,1-1.67-.71,2.33,2.33,0,0,1,0-3.29l.21-.21A22.17,22.17,0,0,0,52,39.72a2.33,2.33,0,0,1-3.3-3.28A26.82,26.82,0,1,1,86.62,74.37a2.34,2.34,0,0,1-1.67.71Z"/></svg>