<svg id="Capa_1" data-name="Capa 1" xmlns="http://www.w3.org/2000/svg" viewBox="0 0 122.35 88.13"><defs><style>.cls-1{fill:#17b5c8;}.cls-2{fill:#02809d;}.cls-3{fill:#a6d100;}.cls-4{fill:#6cab00;}.cls-5{fill:#5f7993;}.cls-6{fill:#3a5368;}</style></defs><polygon class="cls-1" points="41.36 44.06 1.35 86.52 117.9 86.52 80.6 44.06 62.85 62.24 59.63 62.24 41.36 44.06"/><path class="cls-2" d="M37.69,48.84,53.32,64.48a11.27,11.27,0,0,0,15.92,0L85,48.76l-4.35-4.7L62.85,62.24H59.63L41.36,44.06Z"/><polygon class="cls-3" points="80.6 44.06 119.1 3.78 119.1 85.59 80.6 44.06"/><polygon class="cls-4" points="85.03 48.84 119.12 14.76 119.12 4.45 80.6 45.72 85.03 48.84"/><polygon class="cls-5" points="4.45 2.36 117.9 2.36 63.99 60.49 58.14 60.49 2.85 3.78 4.45 2.36"/><path class="cls-6" d="M83,1.6s26.17,5.4,8.7,28.5L119.1,3.78Z"/><path d="M5,88.13a5,5,0,0,1-3.67-1.61A5.06,5.06,0,0,1,0,83.11V5A5,5,0,0,1,5,0H117.33A5,5,0,0,1,121,1.61,5,5,0,0,1,122.35,5V83.11a5,5,0,0,1-5,5ZM24.89,60.07a2.23,2.23,0,0,1,1.61,3.77l-19,19.84H114.9L80,47.28,66.65,61.13a7.55,7.55,0,0,1-11,0L42.4,47.28,33.1,57a2.23,2.23,0,0,1-3.22-3.09l9.43-9.82L4.45,7.76V80.37L23.28,60.76A2.24,2.24,0,0,1,24.89,60.07ZM83,44.06,117.9,80.37V7.76Zm-24.13,14a3.11,3.11,0,0,0,4.53,0L114.9,4.45H7.45Z"/></svg>