<?xml version="1.0" encoding="UTF-8" standalone="no"?>
<!-- Created with Inkscape (http://www.inkscape.org/) -->

<svg
   xmlns:dc="http://purl.org/dc/elements/1.1/"
   xmlns:cc="http://creativecommons.org/ns#"
   xmlns:rdf="http://www.w3.org/1999/02/22-rdf-syntax-ns#"
   xmlns:svg="http://www.w3.org/2000/svg"
   xmlns="http://www.w3.org/2000/svg"
   xmlns:sodipodi="http://sodipodi.sourceforge.net/DTD/sodipodi-0.dtd"
   xmlns:inkscape="http://www.inkscape.org/namespaces/inkscape"
   width="300"
   height="200"
   viewBox="0 0 79.374998 52.916668"
   version="1.1"
   id="svg8"
   sodipodi:docname="accounts.svg"
   inkscape:version="0.92.3 (2405546, 2018-03-11)">
  <defs
     id="defs2">
    <inkscape:perspective
       sodipodi:type="inkscape:persp3d"
       inkscape:vp_x="0 : 26.458334 : 1"
       inkscape:vp_y="0 : 1000 : 0"
       inkscape:vp_z="79.374998 : 26.458334 : 1"
       inkscape:persp3d-origin="39.687499 : 17.638889 : 1"
       id="perspective929" />
    <clipPath
       clipPathUnits="userSpaceOnUse"
       id="clipPath8857">
      <rect
         style="opacity:1;fill:#637792;fill-opacity:1;fill-rule:nonzero;stroke:none;stroke-width:0.60000002;stroke-linecap:round;stroke-linejoin:round;stroke-miterlimit:4;stroke-dasharray:none;stroke-opacity:1"
         id="rect8859"
         width="45.120911"
         height="26.552826"
         x="27.119791"
         y="255.56435" />
    </clipPath>
  </defs>
  <sodipodi:namedview
     id="base"
     pagecolor="#ffffff"
     bordercolor="#666666"
     borderopacity="1.0"
     inkscape:pageopacity="0.0"
     inkscape:pageshadow="2"
     inkscape:zoom="1.2800001"
     inkscape:cx="126.64276"
     inkscape:cy="73.129512"
     inkscape:document-units="mm"
     inkscape:current-layer="layer1"
     showgrid="false"
     units="px"
     inkscape:measure-start="260.872,98.995"
     inkscape:measure-end="260.872,122.228"
     showguides="true"
     inkscape:guide-bbox="true"
     inkscape:window-width="1920"
     inkscape:window-height="1043"
     inkscape:window-x="0"
     inkscape:window-y="1080"
     inkscape:window-maximized="1"
     inkscape:snap-global="true" />
  <metadata
     id="metadata5">
    <rdf:RDF>
      <cc:Work
         rdf:about="">
        <dc:format>image/svg+xml</dc:format>
        <dc:type
           rdf:resource="http://purl.org/dc/dcmitype/StillImage" />
        <dc:title></dc:title>
      </cc:Work>
    </rdf:RDF>
  </metadata>
  <g
     inkscape:label="Layer 1"
     inkscape:groupmode="layer"
     id="layer1"
     transform="translate(0,-244.08332)">
    <rect
       style="opacity:1;fill:#637792;fill-opacity:1;fill-rule:nonzero;stroke:#000000;stroke-width:0.2;stroke-linecap:round;stroke-linejoin:round;stroke-miterlimit:4;stroke-dasharray:none;stroke-opacity:1"
       id="rect5355"
       width="69.763184"
       height="41.4445"
       x="3.9274085"
       y="248.63084" />
    <rect
       style="opacity:1;fill:#ffffff;fill-opacity:1;fill-rule:nonzero;stroke:#000000;stroke-width:0.2;stroke-linecap:round;stroke-linejoin:round;stroke-miterlimit:4;stroke-dasharray:none;stroke-opacity:1"
       id="rect5357"
       width="13.849282"
       height="15.502929"
       x="8.7162151"
       y="252.40387" />
    <g
       style="stroke:#000000;stroke-width:0.19799399;stroke-miterlimit:4;stroke-dasharray:none"
       id="g3763"
       transform="matrix(1.1674144,0,0,1.1674144,-3.2126171,-36.74689)">
      <g
         style="stroke:#000000;stroke-width:0.19799399;stroke-miterlimit:4;stroke-dasharray:none"
         id="g3739">
        <path
           style="opacity:1;fill:#9ec73c;fill-opacity:1;fill-rule:nonzero;stroke:#000000;stroke-width:0.19799399;stroke-linecap:round;stroke-linejoin:round;stroke-miterlimit:4;stroke-dasharray:none;stroke-opacity:1"
           id="path3703"
           sodipodi:type="arc"
           sodipodi:cx="15.694117"
           sodipodi:cy="251.56693"
           sodipodi:rx="2.6992078"
           sodipodi:ry="2.6992078"
           sodipodi:start="2.8258975"
           sodipodi:end="2.8219531"
           sodipodi:open="true"
           d="m 13.128302,252.40497 a 2.6992078,2.6992078 0 0 1 1.725242,-3.40303 2.6992078,2.6992078 0 0 1 3.40473,1.72188 2.6992078,2.6992078 0 0 1 -1.718528,3.40643 2.6992078,2.6992078 0 0 1 -3.408119,-1.71517" />
        <path
           style="opacity:1;fill:#9ec73c;fill-opacity:1;fill-rule:nonzero;stroke:#000000;stroke-width:0.19799399;stroke-linecap:round;stroke-linejoin:round;stroke-miterlimit:4;stroke-dasharray:none;stroke-opacity:1"
           d="m 12.10097,255.27751 1.62261,-0.33409 c 0.678082,0.72878 1.335218,0.71457 1.972912,0.77791 0.637695,0.0634 1.45622,-0.1525 1.968164,-0.77217 l 1.772458,0.30641 c 0.937521,0.23641 0.873374,0.72863 0.855195,3.40751 l -8.953024,-0.0277 c 0.01695,-2.85817 -0.214096,-3.08554 0.761685,-3.35789 z"
           id="rect3705"
           inkscape:connector-curvature="0"
           sodipodi:nodetypes="cczccccc" />
        <path
           style="opacity:1;fill:#ffffff;fill-opacity:1;fill-rule:nonzero;stroke:none;stroke-width:0.19799399;stroke-linecap:round;stroke-linejoin:round;stroke-miterlimit:4;stroke-dasharray:none;stroke-opacity:1"
           d="m 13.40368,252.43364 c -0.462515,-1.41607 0.305425,-2.66343 1.741308,-3.2216 l 0.207998,0.57992 c -1.295951,0.56558 -1.583435,1.31739 -1.419929,2.35896 l -0.526051,0.29283"
           id="path3703-5"
           inkscape:connector-curvature="0"
           sodipodi:nodetypes="ccccc" />
      </g>
    </g>
    <path
       style="opacity:1;fill:#22b9d8;fill-opacity:1;fill-rule:nonzero;stroke:#ffffff;stroke-width:0.6;stroke-linecap:round;stroke-linejoin:round;stroke-miterlimit:4;stroke-dasharray:none;stroke-opacity:1"
       d="m 26.768389,252.55819 h 41.4445 c 2.673986,0.007 2.482178,3.96706 0,3.95503 h -41.4445 c -1.970367,-0.0823 -2.017445,-3.98728 0,-3.95503 z"
       id="rect5359"
       inkscape:connector-curvature="0"
       sodipodi:nodetypes="ccccc" />
    <path
       style="opacity:1;fill:#22b9d8;fill-opacity:1;fill-rule:nonzero;stroke:#ffffff;stroke-width:0.3;stroke-linecap:round;stroke-linejoin:round;stroke-miterlimit:4;stroke-dasharray:none;stroke-opacity:1"
       d="M 26.657801,261.24988 H 50.77158 c 1.555815,0.003 1.444214,1.85926 0,1.85363 H 26.657801 c -1.146425,-0.0386 -1.173816,-1.86874 0,-1.85363 z"
       id="rect5359-9"
       inkscape:connector-curvature="0"
       sodipodi:nodetypes="ccccc" />
    <path
       style="opacity:1;fill:#22b9d8;fill-opacity:1;fill-rule:nonzero;stroke:#ffffff;stroke-width:0.30000001;stroke-linecap:round;stroke-linejoin:round;stroke-miterlimit:4;stroke-dasharray:none;stroke-opacity:1"
       d="m 10.32458,285.54947 h 24.113779 c 1.555814,0.003 1.444215,1.85926 0,1.85363 H 10.32458 c -1.1464253,-0.0386 -1.1738163,-1.86874 0,-1.85363 z"
       id="rect5359-9-4"
       inkscape:connector-curvature="0"
       sodipodi:nodetypes="ccccc" />
    <path
       style="opacity:1;fill:#22b9d8;fill-opacity:1;fill-rule:nonzero;stroke:#ffffff;stroke-width:0.25249192;stroke-linecap:round;stroke-linejoin:round;stroke-miterlimit:4;stroke-dasharray:none;stroke-opacity:1"
       d="m 52.472199,285.62255 h 17.081173 c 1.102072,0.003 1.02302,1.85926 0,1.85363 H 52.472199 c -0.812079,-0.0386 -0.831481,-1.86874 0,-1.85363 z"
       id="rect5359-9-7"
       inkscape:connector-curvature="0"
       sodipodi:nodetypes="ccccc" />
    <path
       style="opacity:1;fill:#22b9d8;fill-opacity:1;fill-rule:nonzero;stroke:#ffffff;stroke-width:0.26359162;stroke-linecap:round;stroke-linejoin:round;stroke-miterlimit:4;stroke-dasharray:none;stroke-opacity:1"
       d="m 26.350292,266.91369 h 18.615982 c 1.201098,0.003 1.114943,1.85926 0,1.85363 H 26.350292 c -0.885047,-0.0386 -0.906193,-1.86874 0,-1.85363 z"
       id="rect5359-9-8"
       inkscape:connector-curvature="0"
       sodipodi:nodetypes="ccccc" />
    <path
       sodipodi:type="star"
       style="opacity:1;fill:#9ec73c;fill-opacity:1;fill-rule:nonzero;stroke:#ffffff;stroke-width:0.6;stroke-linecap:round;stroke-linejoin:round;stroke-miterlimit:4;stroke-dasharray:none;stroke-opacity:1"
       id="path5404"
       sodipodi:sides="12"
       sodipodi:cx="61.64425"
       sodipodi:cy="274.67358"
       sodipodi:r1="6.2613363"
       sodipodi:r2="8.4612656"
       sodipodi:arg1="0.77487224"
       sodipodi:arg2="1.0366716"
       inkscape:flatsided="false"
       inkscape:rounded="0"
       inkscape:randomized="0"
       d="m 66.118039,279.05417 -0.166262,2.90215 -2.623405,-1.25214 -1.595062,2.4302 -1.645865,-2.39609 -2.596465,1.30709 -0.227317,-2.89801 -2.902148,-0.16626 1.25214,-2.6234 -2.430203,-1.59506 2.396088,-1.64587 -1.307087,-2.59647 2.898006,-0.22731 0.166262,-2.90215 2.623405,1.25214 1.595062,-2.4302 1.645865,2.39609 2.596465,-1.30709 0.227317,2.898 2.902148,0.16627 -1.25214,2.6234 2.430203,1.59506 -2.396088,1.64587 1.307087,2.59646 z" />
    <ellipse
       style="opacity:1;fill:#637792;fill-opacity:1;fill-rule:nonzero;stroke:#ffffff;stroke-width:0.54183668;stroke-linecap:round;stroke-linejoin:round;stroke-miterlimit:4;stroke-dasharray:none;stroke-opacity:1"
       id="path5415"
       cx="61.644249"
       cy="274.67358"
       rx="5.1755672"
       ry="5.0677428" />
  </g>
</svg>
