<?xml version="1.0" encoding="UTF-8" standalone="no"?>
<!-- Created with Inkscape (http://www.inkscape.org/) -->

<svg
   xmlns:dc="http://purl.org/dc/elements/1.1/"
   xmlns:cc="http://creativecommons.org/ns#"
   xmlns:rdf="http://www.w3.org/1999/02/22-rdf-syntax-ns#"
   xmlns:svg="http://www.w3.org/2000/svg"
   xmlns="http://www.w3.org/2000/svg"
   xmlns:sodipodi="http://sodipodi.sourceforge.net/DTD/sodipodi-0.dtd"
   xmlns:inkscape="http://www.inkscape.org/namespaces/inkscape"
   width="300"
   height="200"
   viewBox="0 0 79.374998 52.916668"
   version="1.1"
   id="svg8"
   sodipodi:docname="authentication.svg"
   inkscape:version="0.92.3 (2405546, 2018-03-11)">
  <defs
     id="defs2">
    <inkscape:perspective
       sodipodi:type="inkscape:persp3d"
       inkscape:vp_x="0 : 26.458334 : 1"
       inkscape:vp_y="0 : 1000 : 0"
       inkscape:vp_z="79.374998 : 26.458334 : 1"
       inkscape:persp3d-origin="39.687499 : 17.638889 : 1"
       id="perspective929" />
    <clipPath
       clipPathUnits="userSpaceOnUse"
       id="clipPath8857">
      <rect
         style="opacity:1;fill:#637792;fill-opacity:1;fill-rule:nonzero;stroke:none;stroke-width:0.60000002;stroke-linecap:round;stroke-linejoin:round;stroke-miterlimit:4;stroke-dasharray:none;stroke-opacity:1"
         id="rect8859"
         width="45.120911"
         height="26.552826"
         x="27.119791"
         y="255.56435" />
    </clipPath>
  </defs>
  <sodipodi:namedview
     id="base"
     pagecolor="#ffffff"
     bordercolor="#666666"
     borderopacity="1.0"
     inkscape:pageopacity="0.0"
     inkscape:pageshadow="2"
     inkscape:zoom="2.8"
     inkscape:cx="122.36785"
     inkscape:cy="86.60146"
     inkscape:document-units="mm"
     inkscape:current-layer="layer1"
     showgrid="false"
     units="px"
     inkscape:measure-start="260.872,98.995"
     inkscape:measure-end="260.872,122.228"
     showguides="true"
     inkscape:guide-bbox="true"
     inkscape:window-width="1920"
     inkscape:window-height="1043"
     inkscape:window-x="0"
     inkscape:window-y="1080"
     inkscape:window-maximized="1"
     inkscape:snap-global="false" />
  <metadata
     id="metadata5">
    <rdf:RDF>
      <cc:Work
         rdf:about="">
        <dc:format>image/svg+xml</dc:format>
        <dc:type
           rdf:resource="http://purl.org/dc/dcmitype/StillImage" />
        <dc:title></dc:title>
      </cc:Work>
    </rdf:RDF>
  </metadata>
  <g
     inkscape:label="Layer 1"
     inkscape:groupmode="layer"
     id="layer1"
     transform="translate(0,-244.08332)">
    <path
       style="color:#000000;font-style:normal;font-variant:normal;font-weight:normal;font-stretch:normal;font-size:medium;line-height:normal;font-family:sans-serif;font-variant-ligatures:normal;font-variant-position:normal;font-variant-caps:normal;font-variant-numeric:normal;font-variant-alternates:normal;font-feature-settings:normal;text-indent:0;text-align:start;text-decoration:none;text-decoration-line:none;text-decoration-style:solid;text-decoration-color:#000000;letter-spacing:normal;word-spacing:normal;text-transform:none;writing-mode:lr-tb;direction:ltr;text-orientation:mixed;dominant-baseline:auto;baseline-shift:baseline;text-anchor:start;white-space:normal;shape-padding:0;clip-rule:nonzero;display:inline;overflow:visible;visibility:visible;opacity:1;isolation:auto;mix-blend-mode:normal;color-interpolation:sRGB;color-interpolation-filters:linearRGB;solid-color:#000000;solid-opacity:1;vector-effect:none;fill:#22b9d8;fill-opacity:1;fill-rule:nonzero;stroke:#ffffff;stroke-width:0.6;stroke-linecap:round;stroke-linejoin:round;stroke-miterlimit:4;stroke-dasharray:none;stroke-dashoffset:0;stroke-opacity:1;color-rendering:auto;image-rendering:auto;shape-rendering:auto;text-rendering:auto;enable-background:accumulate"
       d="m 39.609375,268.18359 a 2.2327233,2.2327233 0 0 0 -2.154297,2.30664 c 0.146043,7.59256 -0.816338,13.18977 -1.886719,16.69141 a 2.2327233,2.2327233 0 1 0 4.269532,1.30469 c 1.238109,-4.05036 2.236084,-10.07304 2.082031,-18.08203 a 2.2327233,2.2327233 0 0 0 -2.310547,-2.22071 z"
       id="path3541"
       inkscape:connector-curvature="0" />
    <path
       style="color:#000000;font-style:normal;font-variant:normal;font-weight:normal;font-stretch:normal;font-size:medium;line-height:normal;font-family:sans-serif;font-variant-ligatures:normal;font-variant-position:normal;font-variant-caps:normal;font-variant-numeric:normal;font-variant-alternates:normal;font-feature-settings:normal;text-indent:0;text-align:start;text-decoration:none;text-decoration-line:none;text-decoration-style:solid;text-decoration-color:#000000;letter-spacing:normal;word-spacing:normal;text-transform:none;writing-mode:lr-tb;direction:ltr;text-orientation:mixed;dominant-baseline:auto;baseline-shift:baseline;text-anchor:start;white-space:normal;shape-padding:0;clip-rule:nonzero;display:inline;overflow:visible;visibility:visible;opacity:1;isolation:auto;mix-blend-mode:normal;color-interpolation:sRGB;color-interpolation-filters:linearRGB;solid-color:#000000;solid-opacity:1;vector-effect:none;fill:#9ec73c;fill-opacity:1;fill-rule:nonzero;stroke:#ffffff;stroke-width:0.6;stroke-linecap:round;stroke-linejoin:round;stroke-miterlimit:4;stroke-dasharray:none;stroke-dashoffset:0;stroke-opacity:1;color-rendering:auto;image-rendering:auto;shape-rendering:auto;text-rendering:auto;enable-background:accumulate"
       d="m 41.275391,261.10352 c -1.062062,-0.10838 -2.222202,-0.0387 -3.478516,0.1875 -3.268957,0.58853 -5.620148,2.48789 -6.613281,4.875 -0.993134,2.3871 -0.917983,4.94211 -0.751953,7.51757 0.19641,3.04674 -1.08966,5.3536 -1.335938,9.28711 a 2.2328868,2.2328868 0 1 0 4.457031,0.2793 c 0.181018,-2.89119 1.611495,-5.57905 1.335938,-9.85352 -0.15416,-2.39133 -0.06035,-4.36592 0.417969,-5.51562 0.478322,-1.1497 1.052771,-1.7941 3.28125,-2.19531 1.953286,-0.35167 2.741751,-0.17258 3.380859,0.1875 0.639108,0.36007 1.38021,1.20427 2.457031,2.71093 -0.06699,-0.0937 0.240254,0.58636 0.34375,1.58399 0.103497,0.99763 0.115033,2.31695 0.04687,3.73047 -0.136315,2.82703 -0.582792,6.05926 -1.033203,8.29883 a 2.2327233,2.2327233 0 1 0 4.376953,0.88085 c 0.499609,-2.48419 0.964611,-5.84106 1.115235,-8.96484 0.07531,-1.56189 0.07523,-3.05788 -0.06445,-4.4043 -0.139681,-1.34641 -0.308284,-2.53971 -1.152344,-3.7207 -1.131585,-1.58329 -2.18066,-3.03806 -3.898438,-4.00586 -0.858889,-0.4839 -1.822704,-0.77052 -2.884765,-0.8789 z"
       id="path3541-6"
       inkscape:connector-curvature="0" />
    <path
       style="color:#000000;font-style:normal;font-variant:normal;font-weight:normal;font-stretch:normal;font-size:medium;line-height:normal;font-family:sans-serif;font-variant-ligatures:normal;font-variant-position:normal;font-variant-caps:normal;font-variant-numeric:normal;font-variant-alternates:normal;font-feature-settings:normal;text-indent:0;text-align:start;text-decoration:none;text-decoration-line:none;text-decoration-style:solid;text-decoration-color:#000000;letter-spacing:normal;word-spacing:normal;text-transform:none;writing-mode:lr-tb;direction:ltr;text-orientation:mixed;dominant-baseline:auto;baseline-shift:baseline;text-anchor:start;white-space:normal;shape-padding:0;clip-rule:nonzero;display:inline;overflow:visible;visibility:visible;opacity:1;isolation:auto;mix-blend-mode:normal;color-interpolation:sRGB;color-interpolation-filters:linearRGB;solid-color:#000000;solid-opacity:1;vector-effect:none;fill:#22b9d8;fill-opacity:1;fill-rule:nonzero;stroke:#ffffff;stroke-width:0.6;stroke-linecap:round;stroke-linejoin:round;stroke-miterlimit:4;stroke-dasharray:none;stroke-dashoffset:0;stroke-opacity:1;color-rendering:auto;image-rendering:auto;shape-rendering:auto;text-rendering:auto;enable-background:accumulate"
       d="m 39.03125,254.03125 c -1.112755,0.0124 -2.275852,0.11936 -3.488281,0.33398 a 2.2327233,2.2327233 0 1 0 0.777343,4.39649 c 7.92585,-1.40301 12.274335,2.48564 14.615235,6.5039 0.14245,0.24453 0.834627,2.9651 0.992187,5.77149 0.157561,2.80639 0.02247,5.97133 -0.388672,8.01562 a 2.2327233,2.2327233 0 1 0 4.376954,0.88086 c 0.538881,-2.67946 0.643394,-6.03579 0.46875,-9.14648 -0.174645,-3.11069 -0.388818,-5.70456 -1.591797,-7.76953 -2.643244,-4.53726 -7.972432,-9.07332 -15.761719,-8.98633 z"
       id="path3541-6-1"
       inkscape:connector-curvature="0" />
    <path
       style="color:#000000;font-style:normal;font-variant:normal;font-weight:normal;font-stretch:normal;font-size:medium;line-height:normal;font-family:sans-serif;font-variant-ligatures:normal;font-variant-position:normal;font-variant-caps:normal;font-variant-numeric:normal;font-variant-alternates:normal;font-feature-settings:normal;text-indent:0;text-align:start;text-decoration:none;text-decoration-line:none;text-decoration-style:solid;text-decoration-color:#000000;letter-spacing:normal;word-spacing:normal;text-transform:none;writing-mode:lr-tb;direction:ltr;text-orientation:mixed;dominant-baseline:auto;baseline-shift:baseline;text-anchor:start;white-space:normal;shape-padding:0;clip-rule:nonzero;display:inline;overflow:visible;visibility:visible;opacity:1;isolation:auto;mix-blend-mode:normal;color-interpolation:sRGB;color-interpolation-filters:linearRGB;solid-color:#000000;solid-opacity:1;vector-effect:none;fill:#9ec73c;fill-opacity:1;fill-rule:nonzero;stroke:#ffffff;stroke-width:0.60000002;stroke-linecap:round;stroke-linejoin:round;stroke-miterlimit:4;stroke-dasharray:none;stroke-dashoffset:0;stroke-opacity:1;color-rendering:auto;image-rendering:auto;shape-rendering:auto;text-rendering:auto;enable-background:accumulate"
       d="m 36.609375,247.55664 c -2.839312,0.24572 -5.850448,0.76376 -8.302734,2.00781 -2.936596,1.48974 -6.003039,4.21097 -8.337891,7.78907 -2.334852,3.57809 -3.719926,7.98561 -3.78497,12.84105 -0.145659,3.00078 4.180075,2.82362 4.431641,-0.26144 0.03342,-3.47981 1.190353,-7.22654 3.09161,-10.14016 1.901257,-2.91362 4.574259,-5.20872 6.619141,-6.24609 1.493395,-0.75761 4.15599,-1.32558 6.667969,-1.54297 2.511978,-0.2174 5.002292,-0.10519 5.921875,0.0645 1.287149,0.23745 3.924371,1.09871 6.34375,2.38672 2.419379,1.288 4.632519,3.05474 5.544922,4.67969 1.428702,2.69364 5.448537,0.43664 3.892578,-2.18555 -1.633857,-2.90982 -4.498159,-4.92376 -7.337891,-6.43555 -2.839732,-1.51179 -5.643016,-2.46886 -7.632813,-2.83594 -1.737685,-0.32056 -4.277875,-0.36681 -7.117187,-0.12109 z"
       id="path3541-6-8"
       inkscape:connector-curvature="0"
       sodipodi:nodetypes="cscccsccccccsccc" />
    <path
       style="color:#000000;font-style:normal;font-variant:normal;font-weight:normal;font-stretch:normal;font-size:medium;line-height:normal;font-family:sans-serif;font-variant-ligatures:normal;font-variant-position:normal;font-variant-caps:normal;font-variant-numeric:normal;font-variant-alternates:normal;font-feature-settings:normal;text-indent:0;text-align:start;text-decoration:none;text-decoration-line:none;text-decoration-style:solid;text-decoration-color:#000000;letter-spacing:normal;word-spacing:normal;text-transform:none;writing-mode:lr-tb;direction:ltr;text-orientation:mixed;dominant-baseline:auto;baseline-shift:baseline;text-anchor:start;white-space:normal;shape-padding:0;clip-rule:nonzero;display:inline;overflow:visible;visibility:visible;opacity:1;isolation:auto;mix-blend-mode:normal;color-interpolation:sRGB;color-interpolation-filters:linearRGB;solid-color:#000000;solid-opacity:1;vector-effect:none;fill:#22b9d8;fill-opacity:1;fill-rule:nonzero;stroke:#ffffff;stroke-width:0.6;stroke-linecap:round;stroke-linejoin:round;stroke-miterlimit:4;stroke-dasharray:none;stroke-dashoffset:0;stroke-opacity:1;color-rendering:auto;image-rendering:auto;shape-rendering:auto;text-rendering:auto;enable-background:accumulate"
       d="m 60.150391,262.89258 a 2.2327233,2.2327233 0 0 0 -2.152344,2.87695 c 0.449035,1.57125 0.637222,3.67962 0.501953,4.6543 a 2.2332019,2.2332019 0 1 0 4.423828,0.61523 c 0.283341,-2.0416 -0.0258,-4.37204 -0.632812,-6.49609 a 2.2327233,2.2327233 0 0 0 -2.140625,-1.65039 z"
       id="path3541-7"
       inkscape:connector-curvature="0" />
    <path
       style="color:#000000;font-style:normal;font-variant:normal;font-weight:normal;font-stretch:normal;font-size:medium;line-height:normal;font-family:sans-serif;font-variant-ligatures:normal;font-variant-position:normal;font-variant-caps:normal;font-variant-numeric:normal;font-variant-alternates:normal;font-feature-settings:normal;text-indent:0;text-align:start;text-decoration:none;text-decoration-line:none;text-decoration-style:solid;text-decoration-color:#000000;letter-spacing:normal;word-spacing:normal;text-transform:none;writing-mode:lr-tb;direction:ltr;text-orientation:mixed;dominant-baseline:auto;baseline-shift:baseline;text-anchor:start;white-space:normal;shape-padding:0;clip-rule:nonzero;display:inline;overflow:visible;visibility:visible;opacity:1;isolation:auto;mix-blend-mode:normal;color-interpolation:sRGB;color-interpolation-filters:linearRGB;solid-color:#000000;solid-opacity:1;vector-effect:none;fill:#637792;fill-opacity:1;fill-rule:nonzero;stroke:#ffffff;stroke-width:0.6;stroke-linecap:round;stroke-linejoin:round;stroke-miterlimit:4;stroke-dasharray:none;stroke-dashoffset:0;stroke-opacity:1;color-rendering:auto;image-rendering:auto;shape-rendering:auto;text-rendering:auto;enable-background:accumulate"
       d="m 28.298828,259.02539 a 2.2327233,2.2327233 0 0 0 -1.873047,0.9082 c -2.79291,3.68714 -3.677693,8.18631 -3.40625,11.8125 0.238125,3.1811 0.277307,6.18417 -0.06641,7.3086 a 2.2327233,2.2327233 0 1 0 4.269531,1.30664 c 0.810531,-2.65158 0.491467,-5.72348 0.25,-8.94922 -0.19195,-2.56425 0.54294,-6.17953 2.513672,-8.78125 a 2.2327233,2.2327233 0 0 0 -1.6875,-3.60547 z"
       id="path3541-9"
       inkscape:connector-curvature="0" />
    <path
       style="color:#000000;font-style:normal;font-variant:normal;font-weight:normal;font-stretch:normal;font-size:medium;line-height:normal;font-family:sans-serif;font-variant-ligatures:normal;font-variant-position:normal;font-variant-caps:normal;font-variant-numeric:normal;font-variant-alternates:normal;font-feature-settings:normal;text-indent:0;text-align:start;text-decoration:none;text-decoration-line:none;text-decoration-style:solid;text-decoration-color:#000000;letter-spacing:normal;word-spacing:normal;text-transform:none;writing-mode:lr-tb;direction:ltr;text-orientation:mixed;dominant-baseline:auto;baseline-shift:baseline;text-anchor:start;white-space:normal;shape-padding:0;clip-rule:nonzero;display:inline;overflow:visible;visibility:visible;opacity:1;isolation:auto;mix-blend-mode:normal;color-interpolation:sRGB;color-interpolation-filters:linearRGB;solid-color:#000000;solid-opacity:1;vector-effect:none;fill:#637792;fill-opacity:1;fill-rule:nonzero;stroke:#ffffff;stroke-width:0.60000002;stroke-linecap:round;stroke-linejoin:round;stroke-miterlimit:4;stroke-dasharray:none;stroke-dashoffset:0;stroke-opacity:1;color-rendering:auto;image-rendering:auto;shape-rendering:auto;text-rendering:auto;enable-background:accumulate"
       d="m 18.79827,273.86328 c -1.061243,-0.0103 -2.077597,0.9168 -2.299572,1.95462 -0.691224,7.98923 0.262284,15.1966 2.544271,19.73679 1.320584,2.70605 5.37216,0.67134 3.990234,-2.00391 -1.710213,-3.4026 -2.711753,-9.48755 -1.992001,-16.92773 0.339449,-1.39709 -0.805263,-2.74614 -2.242932,-2.75977 z"
       id="path3541-2-0"
       inkscape:connector-curvature="0"
       sodipodi:nodetypes="cccccc" />
    <path
       style="color:#000000;font-style:normal;font-variant:normal;font-weight:normal;font-stretch:normal;font-size:medium;line-height:normal;font-family:sans-serif;font-variant-ligatures:normal;font-variant-position:normal;font-variant-caps:normal;font-variant-numeric:normal;font-variant-alternates:normal;font-feature-settings:normal;text-indent:0;text-align:start;text-decoration:none;text-decoration-line:none;text-decoration-style:solid;text-decoration-color:#000000;letter-spacing:normal;word-spacing:normal;text-transform:none;writing-mode:lr-tb;direction:ltr;text-orientation:mixed;dominant-baseline:auto;baseline-shift:baseline;text-anchor:start;white-space:normal;shape-padding:0;clip-rule:nonzero;display:inline;overflow:visible;visibility:visible;opacity:1;isolation:auto;mix-blend-mode:normal;color-interpolation:sRGB;color-interpolation-filters:linearRGB;solid-color:#000000;solid-opacity:1;vector-effect:none;fill:#22b9d8;fill-opacity:1;fill-rule:nonzero;stroke:#ffffff;stroke-width:0.6;stroke-linecap:round;stroke-linejoin:round;stroke-miterlimit:4;stroke-dasharray:none;stroke-dashoffset:0;stroke-opacity:1;color-rendering:auto;image-rendering:auto;shape-rendering:auto;text-rendering:auto;enable-background:accumulate"
       d="m 25.820312,283.68164 a 2.2327233,2.2327233 0 0 0 -2.208984,2.25195 c -0.01955,4.11644 0.467613,6.92383 1.591797,9.20899 1.124184,2.28515 2.738496,3.81446 4.546875,5.61328 a 2.2327233,2.2327233 0 1 0 3.148438,-3.16406 c -1.828137,-1.81847 -2.973088,-2.96571 -3.689454,-4.42188 -0.716365,-1.45617 -1.150664,-3.45552 -1.132812,-7.21484 a 2.2327233,2.2327233 0 0 0 -2.25586,-2.27344 z"
       id="path3541-23"
       inkscape:connector-curvature="0" />
    <path
       style="color:#000000;font-style:normal;font-variant:normal;font-weight:normal;font-stretch:normal;font-size:medium;line-height:normal;font-family:sans-serif;font-variant-ligatures:normal;font-variant-position:normal;font-variant-caps:normal;font-variant-numeric:normal;font-variant-alternates:normal;font-feature-settings:normal;text-indent:0;text-align:start;text-decoration:none;text-decoration-line:none;text-decoration-style:solid;text-decoration-color:#000000;letter-spacing:normal;word-spacing:normal;text-transform:none;writing-mode:lr-tb;direction:ltr;text-orientation:mixed;dominant-baseline:auto;baseline-shift:baseline;text-anchor:start;white-space:normal;shape-padding:0;clip-rule:nonzero;display:inline;overflow:visible;visibility:visible;opacity:1;isolation:auto;mix-blend-mode:normal;color-interpolation:sRGB;color-interpolation-filters:linearRGB;solid-color:#000000;solid-opacity:1;vector-effect:none;fill:#637792;fill-opacity:1;fill-rule:nonzero;stroke:#ffffff;stroke-width:0.6;stroke-linecap:round;stroke-linejoin:round;stroke-miterlimit:4;stroke-dasharray:none;stroke-dashoffset:0;stroke-opacity:1;color-rendering:auto;image-rendering:auto;shape-rendering:auto;text-rendering:auto;enable-background:accumulate"
       d="m 45.609375,287.85156 a 2.2327233,2.2327233 0 0 0 -2.191406,1.48828 c -0.788722,2.13851 -2.798813,3.46066 -4.708985,3.65625 -1.910171,0.1956 -3.481821,-0.40419 -4.322265,-2.77929 a 2.2327233,2.2327233 0 1 0 -4.208985,1.49023 c 1.464759,4.13942 5.408458,6.09683 8.986328,5.73047 3.577871,-0.36636 7.031122,-2.72364 8.44336,-6.55273 a 2.2327233,2.2327233 0 0 0 -1.998047,-3.03321 z"
       id="path3541-2-7"
       inkscape:connector-curvature="0" />
  </g>
</svg>
