<?xml version="1.0" encoding="UTF-8" standalone="no"?>
<!-- Created with Inkscape (http://www.inkscape.org/) -->

<svg
   xmlns:dc="http://purl.org/dc/elements/1.1/"
   xmlns:cc="http://creativecommons.org/ns#"
   xmlns:rdf="http://www.w3.org/1999/02/22-rdf-syntax-ns#"
   xmlns:svg="http://www.w3.org/2000/svg"
   xmlns="http://www.w3.org/2000/svg"
   xmlns:sodipodi="http://sodipodi.sourceforge.net/DTD/sodipodi-0.dtd"
   xmlns:inkscape="http://www.inkscape.org/namespaces/inkscape"
   width="300"
   height="200"
   viewBox="0 0 79.374998 52.916668"
   version="1.1"
   id="svg8"
   sodipodi:docname="authorizations.svg"
   inkscape:version="0.92.3 (2405546, 2018-03-11)">
  <defs
     id="defs2">
    <inkscape:perspective
       sodipodi:type="inkscape:persp3d"
       inkscape:vp_x="0 : 26.458334 : 1"
       inkscape:vp_y="0 : 1000 : 0"
       inkscape:vp_z="79.374998 : 26.458334 : 1"
       inkscape:persp3d-origin="39.687499 : 17.638889 : 1"
       id="perspective929" />
    <clipPath
       clipPathUnits="userSpaceOnUse"
       id="clipPath8857">
      <rect
         style="opacity:1;fill:#637792;fill-opacity:1;fill-rule:nonzero;stroke:none;stroke-width:0.60000002;stroke-linecap:round;stroke-linejoin:round;stroke-miterlimit:4;stroke-dasharray:none;stroke-opacity:1"
         id="rect8859"
         width="45.120911"
         height="26.552826"
         x="27.119791"
         y="255.56435" />
    </clipPath>
  </defs>
  <sodipodi:namedview
     id="base"
     pagecolor="#ffffff"
     bordercolor="#666666"
     borderopacity="1.0"
     inkscape:pageopacity="0.0"
     inkscape:pageshadow="2"
     inkscape:zoom="1.8101934"
     inkscape:cx="105.37981"
     inkscape:cy="87.746667"
     inkscape:document-units="mm"
     inkscape:current-layer="layer1"
     showgrid="false"
     units="px"
     inkscape:measure-start="260.872,98.995"
     inkscape:measure-end="260.872,122.228"
     showguides="true"
     inkscape:guide-bbox="true"
     inkscape:window-width="1920"
     inkscape:window-height="1016"
     inkscape:window-x="0"
     inkscape:window-y="27"
     inkscape:window-maximized="1"
     inkscape:snap-global="false" />
  <metadata
     id="metadata5">
    <rdf:RDF>
      <cc:Work
         rdf:about="">
        <dc:format>image/svg+xml</dc:format>
        <dc:type
           rdf:resource="http://purl.org/dc/dcmitype/StillImage" />
        <dc:title></dc:title>
      </cc:Work>
    </rdf:RDF>
  </metadata>
  <g
     inkscape:label="Layer 1"
     inkscape:groupmode="layer"
     id="layer1"
     transform="translate(0,-244.08332)">
    <rect
       style="opacity:1;fill:#22b9d8;fill-opacity:1;fill-rule:nonzero;stroke:#000000;stroke-width:0.58584255;stroke-linecap:round;stroke-linejoin:round;stroke-miterlimit:4;stroke-dasharray:none;stroke-opacity:1"
       id="rect855"
       width="28.436195"
       height="26.47249"
       x="27.794842"
       y="267.64069" />
    <path
       style="fill:#637792;stroke:#000000;stroke-width:0.60000002;stroke-linecap:butt;stroke-linejoin:miter;stroke-miterlimit:4;stroke-dasharray:none;stroke-opacity:1"
       d="m 27.801919,267.5961 c -0.01411,-3.98341 1.011563,-7.16226 2.790529,-9.35344 1.778966,-2.19118 3.425686,-3.57131 6.149493,-4.65087 2.723807,-1.07956 7.549682,-1.36468 10.180258,-0.10336 2.630576,1.26132 5.172115,2.83343 6.976317,5.73608 1.804201,2.90266 2.477016,5.63895 2.377115,8.47494 l -5.064289,-0.0517 c 0.03769,-2.33778 -0.477608,-4.4153 -2.118733,-6.66626 -1.641125,-2.25096 -4.211923,-3.36646 -6.769613,-3.56567 -2.55769,-0.19921 -5.271244,0.63918 -7.286377,2.99723 -2.015133,2.35805 -2.540148,4.65088 -2.377114,7.13135 z"
       id="path874"
       inkscape:connector-curvature="0"
       sodipodi:nodetypes="czzzzcczzzcc" />
    <path
       style="opacity:1;fill:#000000;fill-opacity:1;fill-rule:nonzero;stroke:#ffffff;stroke-width:0.60000002;stroke-linecap:round;stroke-linejoin:round;stroke-miterlimit:4;stroke-dasharray:none;stroke-opacity:1"
       d="m 40.359293,278.91325 c 0.582678,-0.4209 -1.856404,-1.50837 -1.939151,-3.63173 -0.08275,-2.12337 1.735341,-3.43504 4.011747,-3.34758 2.276407,0.0875 3.622025,1.8171 3.69892,3.38478 0.07689,1.56768 -0.476613,2.17031 -1.999137,3.59454 l 2.222087,7.6481 h -7.751464 z"
       id="rect876"
       inkscape:connector-curvature="0"
       sodipodi:nodetypes="czzzcccc" />
    <path
       style="opacity:1;fill:#ffffff;fill-opacity:1;fill-rule:nonzero;stroke:none;stroke-width:0.60000002;stroke-linecap:round;stroke-linejoin:round;stroke-miterlimit:4;stroke-dasharray:none;stroke-opacity:1"
       d="m 29.042152,268.83633 5.78776,0.0517 -4.082438,1.67948 -0.05168,7.3639 -1.550293,0.0517 z"
       id="rect879"
       inkscape:connector-curvature="0"
       sodipodi:nodetypes="cccccc" />
    <path
       style="fill:#ffffff;stroke:none;stroke-width:0.41262457;stroke-linecap:butt;stroke-linejoin:miter;stroke-miterlimit:4;stroke-dasharray:none;stroke-opacity:1"
       d="m 30.665231,260.16028 c 1.385864,-2.20016 1.227553,-1.80096 2.484164,-3.05663 1.256611,-1.25567 2.899012,-2.4603 5.632268,-3.01971 l 0.389484,1.61704 c -1.957,0.71246 -3.517414,1.44654 -4.50003,2.47422 -0.982616,1.02768 -1.025001,0.91574 -2.15633,2.72361 z"
       id="path874-6"
       inkscape:connector-curvature="0"
       sodipodi:nodetypes="czcczcc" />
  </g>
</svg>
