<?xml version="1.0" encoding="UTF-8" standalone="no"?>
<!-- Created with Inkscape (http://www.inkscape.org/) -->

<svg
   xmlns:dc="http://purl.org/dc/elements/1.1/"
   xmlns:cc="http://creativecommons.org/ns#"
   xmlns:rdf="http://www.w3.org/1999/02/22-rdf-syntax-ns#"
   xmlns:svg="http://www.w3.org/2000/svg"
   xmlns="http://www.w3.org/2000/svg"
   xmlns:sodipodi="http://sodipodi.sourceforge.net/DTD/sodipodi-0.dtd"
   xmlns:inkscape="http://www.inkscape.org/namespaces/inkscape"
   width="300"
   height="200"
   viewBox="0 0 79.374998 52.916668"
   version="1.1"
   id="svg1675"
   sodipodi:docname="gear.svg"
   inkscape:version="0.92.3 (2405546, 2018-03-11)">
  <defs
     id="defs1669" />
  <sodipodi:namedview
     id="base"
     pagecolor="#ffffff"
     bordercolor="#666666"
     borderopacity="1.0"
     inkscape:pageopacity="0.0"
     inkscape:pageshadow="2"
     inkscape:zoom="5.6"
     inkscape:cx="105.04261"
     inkscape:cy="116.57906"
     inkscape:document-units="mm"
     inkscape:current-layer="layer1"
     showgrid="false"
     units="px"
     showguides="true"
     inkscape:guide-bbox="true"
     inkscape:window-width="1920"
     inkscape:window-height="1043"
     inkscape:window-x="0"
     inkscape:window-y="1080"
     inkscape:window-maximized="1"
     inkscape:snap-global="false">
    <sodipodi:guide
       position="22.784727,32.139162"
       orientation="1,0"
       id="guide3591"
       inkscape:locked="false" />
    <sodipodi:guide
       position="8.7406994,29.340402"
       orientation="0,1"
       id="guide3593"
       inkscape:locked="false" />
  </sodipodi:namedview>
  <metadata
     id="metadata1672">
    <rdf:RDF>
      <cc:Work
         rdf:about="">
        <dc:format>image/svg+xml</dc:format>
        <dc:type
           rdf:resource="http://purl.org/dc/dcmitype/StillImage" />
        <dc:title></dc:title>
      </cc:Work>
    </rdf:RDF>
  </metadata>
  <g
     inkscape:label="Layer 1"
     inkscape:groupmode="layer"
     id="layer1"
     transform="translate(0,-244.08332)">
    <path
       style="opacity:1;fill:#22b9d8;fill-opacity:1;fill-rule:nonzero;stroke:#00000e;stroke-width:2.26771657;stroke-linecap:round;stroke-linejoin:round;stroke-miterlimit:4;stroke-dasharray:none;stroke-opacity:1"
       d="m 75.509766,48.224609 v 14.394532 0 C 69.94712,63.979153 67.897997,64.69943 63.078125,67.4375 v 0 L 52.822266,57.335938 37.9375,72.449219 48.191406,82.550781 v 0 c -4.446834,6.829601 -4.953563,8.316918 -7.132812,15.904297 v 0 l -14.394532,-0.191406 -0.279296,21.212888 14.392578,0.18946 v 0 c 0.994687,5.35176 1.101208,7.10058 5.544922,12.26171 v 0 l -11.134766,9.12305 13.443359,16.41016 11.134766,-9.12305 v 0 c 6.939176,4.74718 7.79496,5.3634 15.744141,6.58399 v 0 14.39453 h 21.21289 v -14.39453 0 c 7.552374,-1.91586 8.782474,-2.61843 14.955074,-6.45899 v 0 l 10.25586,10.10156 14.88672,-15.11328 -10.25586,-10.10156 v 0 c 2.80677,-5.49593 3.42828,-7.88205 4.74219,-14.00586 v 0 l 14.39258,0.19141 0.28125,-21.212894 -14.39453,-0.189454 v 0 c -1.54537,-6.423425 -2.50687,-8.952405 -6.12891,-14.601562 v 0 L 135.58594,73.302734 120.51367,58.375 110.45898,68.529297 c -4.41153,-2.791921 -8.67512,-4.790438 -13.736324,-5.910156 v 0 -14.394532 z"
       transform="matrix(0.26458333,0,0,0.26458333,0,244.08332)"
       id="path2220"
       inkscape:connector-curvature="0"
       sodipodi:nodetypes="cccccccccccccccccccccccccccccccccccccccccccccccc" />
    <path
       style="opacity:1;fill:#9ec73c;fill-opacity:1;fill-rule:nonzero;stroke:#00000e;stroke-width:0.6;stroke-linecap:round;stroke-linejoin:round;stroke-miterlimit:4;stroke-dasharray:none;stroke-opacity:1"
       d="m 22.317008,280.8799 c -4.490232,-0.26384 -8.112559,-4.1289 -7.819707,-8.57992 0.292854,-4.45101 4.266845,-7.83256 8.88144,-7.55739 4.614598,0.27517 8.206361,3.624 7.848949,8.55503 -0.357412,4.93103 -4.42045,7.84612 -8.910682,7.58228 z"
       id="path3744"
       inkscape:connector-curvature="0"
       sodipodi:nodetypes="zsszz" />
    <path
       style="opacity:1;fill:#637792;fill-opacity:1;fill-rule:nonzero;stroke:#00000e;stroke-width:0.6;stroke-linecap:round;stroke-linejoin:round;stroke-miterlimit:4;stroke-dasharray:none;stroke-opacity:1"
       d="m 65.428818,254.30301 -3.6041,1.23106 v 0 c -0.816258,-1.27646 -1.171845,-1.72792 -2.269615,-2.70055 v 0 l 1.652121,-3.43178 -5.057062,-2.43431 -1.652279,3.43129 v 0 c -2.090303,-0.52931 -2.506035,-0.52899 -4.592136,-0.42573 v 0 l -1.183181,-3.62046 -5.335173,1.74426 1.183487,3.61981 v 0 c -1.254899,0.70674 -1.683659,0.88298 -2.595864,2.43699 v 0 l -3.236512,-2.00769 -2.959053,4.7694 3.236502,2.00769 v 0 c -0.595135,2.14342 -0.676233,2.41039 -0.302008,4.5051 v 0 l -3.6041,1.23106 1.814192,5.31129 3.6041,-1.23107 v 0 c 1.125601,1.72711 1.406705,1.97502 2.896205,3.19206 v 0 l -1.652111,3.43178 5.05722,2.4348 1.652111,-3.43177 v 0 c 1.616123,0.23272 2.266706,0.18427 3.912357,-0.0105 v 0 l 1.183014,3.61997 5.335338,-1.74378 -1.183654,-3.6203 v 0 c 1.476131,-0.93628 2.02711,-1.3933 3.131776,-2.78332 v 0 l 3.427276,1.6613 2.448579,-5.05046 -3.402344,-1.64907 c 0.321758,-1.34333 0.457507,-2.58177 0.305013,-3.94476 v 0 l 3.6041,-1.23106 z"
       id="path2220-7"
       inkscape:connector-curvature="0"
       sodipodi:nodetypes="cccccccccccccccccccccccccccccccccccccccccccccccc" />
    <path
       style="opacity:1;fill:#9ec73c;fill-opacity:1;fill-rule:nonzero;stroke:#00000e;stroke-width:0.6;stroke-linecap:round;stroke-linejoin:round;stroke-miterlimit:4;stroke-dasharray:none;stroke-opacity:1"
       d="m 50.699635,270.45691 c -4.490232,-0.26384 -8.112559,-4.1289 -7.819707,-8.57992 0.292854,-4.45101 4.266845,-7.83256 8.88144,-7.55739 4.614598,0.27517 8.206361,3.624 7.848949,8.55503 -0.357412,4.93103 -4.42045,7.84612 -8.910682,7.58228 z"
       id="path3744-0"
       inkscape:connector-curvature="0"
       sodipodi:nodetypes="zsszz" />
    <path
       style="opacity:1;fill:#fffffd;fill-opacity:1;fill-rule:nonzero;stroke:#00000e;stroke-width:0.60000002;stroke-linecap:round;stroke-linejoin:round;stroke-miterlimit:4;stroke-dasharray:none;stroke-opacity:1"
       d="m 51.011941,265.00008 c -1.414277,-0.0861 -2.55519,-1.34727 -2.462952,-2.79964 0.09224,-1.45238 1.343916,-2.55579 2.797362,-2.466 1.453447,0.0898 2.584734,1.18252 2.472161,2.79152 -0.112573,1.60901 -1.392296,2.56021 -2.806571,2.47412 z"
       id="path3744-0-9"
       inkscape:connector-curvature="0"
       sodipodi:nodetypes="zsszz" />
    <path
       style="opacity:1;fill:#ffffff;fill-opacity:1;fill-rule:nonzero;stroke:#00000e;stroke-width:0.6;stroke-linecap:round;stroke-linejoin:round;stroke-miterlimit:4;stroke-dasharray:none;stroke-opacity:1"
       d="m 22.584276,275.4448 c -1.414277,-0.0861 -2.55519,-1.34727 -2.462952,-2.79964 0.09224,-1.45238 1.343916,-2.55579 2.797362,-2.466 1.453447,0.0898 2.584734,1.18252 2.472161,2.79152 -0.112573,1.60901 -1.392296,2.56021 -2.806571,2.47412 z"
       id="path3744-0-9-3"
       inkscape:connector-curvature="0"
       sodipodi:nodetypes="zsszz" />
    <path
       style="opacity:1;fill:none;fill-opacity:1;fill-rule:nonzero;stroke:#00000e;stroke-width:0.60000002;stroke-linecap:round;stroke-linejoin:round;stroke-miterlimit:4;stroke-dasharray:none;stroke-opacity:1"
       d="m 27.781377,272.9734 c -0.213952,3.05803 -2.646155,4.86586 -5.334083,4.70224 -2.687932,-0.16364 -4.733735,-2.48824 -4.747829,-5.25409 -0.0067,-1.32062 0.506199,-2.26177 1.197983,-3.13674"
       id="path3744-0-9-3-6"
       inkscape:connector-curvature="0"
       sodipodi:nodetypes="czsc" />
    <path
       style="opacity:1;fill:none;fill-opacity:1;fill-rule:nonzero;stroke:#00000e;stroke-width:0.60000002;stroke-linecap:round;stroke-linejoin:round;stroke-miterlimit:4;stroke-dasharray:none;stroke-opacity:1"
       d="m 49.007033,267.13911 c -2.795959,-1.25696 -3.652521,-4.16387 -2.570626,-6.62989 1.081916,-2.46601 3.97004,-3.58307 6.57056,-2.64104 1.24167,0.44982 1.947763,1.25621 2.529966,2.20762"
       id="path3744-0-9-3-6-6"
       inkscape:connector-curvature="0"
       sodipodi:nodetypes="czsc" />
    <path
       style="opacity:1;fill:none;fill-opacity:1;fill-rule:nonzero;stroke:#ffffff;stroke-width:0.72988111;stroke-linecap:round;stroke-linejoin:round;stroke-miterlimit:4;stroke-dasharray:none;stroke-opacity:1"
       d="m 37.291695,268.98173 -1.219218,-3.90149 2.68228,-0.93763"
       id="rect4221-1"
       inkscape:connector-curvature="0"
       sodipodi:nodetypes="ccc" />
    <path
       style="opacity:1;fill:none;fill-opacity:1;fill-rule:nonzero;stroke:#ffffff;stroke-width:0.73725146;stroke-linecap:round;stroke-linejoin:round;stroke-miterlimit:4;stroke-dasharray:none;stroke-opacity:1"
       d="m 12.788956,284.78959 -2.566871,-3.23395 2.18722,-1.85842"
       id="rect4221-1-7"
       inkscape:connector-curvature="0"
       sodipodi:nodetypes="ccc" />
    <path
       style="opacity:1;fill:none;fill-opacity:1;fill-rule:nonzero;stroke:#ffffff;stroke-width:0.72786558;stroke-linecap:round;stroke-linejoin:round;stroke-miterlimit:4;stroke-dasharray:none;stroke-opacity:1"
       d="m 36.771008,256.59164 2.188533,-3.56649"
       id="rect4221-8"
       inkscape:connector-curvature="0"
       sodipodi:nodetypes="cc" />
    <path
       style="opacity:1;fill:none;fill-opacity:1;fill-rule:nonzero;stroke:#ffffff;stroke-width:0.72786558;stroke-linecap:round;stroke-linejoin:round;stroke-miterlimit:4;stroke-dasharray:none;stroke-opacity:1"
       d="m 7.7464961,274.94839 0.098525,-4.18327"
       id="rect4221-8-9"
       inkscape:connector-curvature="0"
       sodipodi:nodetypes="cc" />
    <path
       style="opacity:1;fill:none;fill-opacity:1;fill-rule:nonzero;stroke:#ffffff;stroke-width:0.78411549;stroke-linecap:round;stroke-linejoin:round;stroke-miterlimit:4;stroke-dasharray:none;stroke-opacity:1"
       d="m 45.164177,251.25054 -0.96053,-2.61963 3.991186,-1.41832"
       id="rect4221"
       inkscape:connector-curvature="0"
       sodipodi:nodetypes="ccc" />
    <path
       style="opacity:1;fill:none;fill-opacity:1;fill-rule:nonzero;stroke:#ffffff;stroke-width:0.78411549;stroke-linecap:round;stroke-linejoin:round;stroke-miterlimit:4;stroke-dasharray:none;stroke-opacity:1"
       d="m 13.059286,265.24943 -1.988497,-1.95729 3.001346,-2.98883"
       id="rect4221-2"
       inkscape:connector-curvature="0"
       sodipodi:nodetypes="ccc" />
  </g>
</svg>
