<?xml version="1.0" encoding="UTF-8" standalone="no"?>
<!-- Created with Inkscape (http://www.inkscape.org/) -->

<svg
   xmlns:dc="http://purl.org/dc/elements/1.1/"
   xmlns:cc="http://creativecommons.org/ns#"
   xmlns:rdf="http://www.w3.org/1999/02/22-rdf-syntax-ns#"
   xmlns:svg="http://www.w3.org/2000/svg"
   xmlns="http://www.w3.org/2000/svg"
   xmlns:sodipodi="http://sodipodi.sourceforge.net/DTD/sodipodi-0.dtd"
   xmlns:inkscape="http://www.inkscape.org/namespaces/inkscape"
   width="300"
   height="200"
   viewBox="0 0 79.374998 52.916668"
   version="1.1"
   id="svg8"
   sodipodi:docname="launcher.svg"
   inkscape:version="0.92.3 (2405546, 2018-03-11)">
  <defs
     id="defs2">
    <inkscape:perspective
       sodipodi:type="inkscape:persp3d"
       inkscape:vp_x="0 : 26.458334 : 1"
       inkscape:vp_y="0 : 1000 : 0"
       inkscape:vp_z="79.374998 : 26.458334 : 1"
       inkscape:persp3d-origin="39.687499 : 17.638889 : 1"
       id="perspective929" />
    <clipPath
       clipPathUnits="userSpaceOnUse"
       id="clipPath8857">
      <rect
         style="opacity:1;fill:#637792;fill-opacity:1;fill-rule:nonzero;stroke:none;stroke-width:0.60000002;stroke-linecap:round;stroke-linejoin:round;stroke-miterlimit:4;stroke-dasharray:none;stroke-opacity:1"
         id="rect8859"
         width="45.120911"
         height="26.552826"
         x="27.119791"
         y="255.56435" />
    </clipPath>
  </defs>
  <sodipodi:namedview
     id="base"
     pagecolor="#ffffff"
     bordercolor="#666666"
     borderopacity="1.0"
     inkscape:pageopacity="0.0"
     inkscape:pageshadow="2"
     inkscape:zoom="1.8101934"
     inkscape:cx="271.86397"
     inkscape:cy="146.53573"
     inkscape:document-units="mm"
     inkscape:current-layer="g2744"
     showgrid="false"
     units="px"
     inkscape:measure-start="260.872,98.995"
     inkscape:measure-end="260.872,122.228"
     showguides="true"
     inkscape:guide-bbox="true"
     inkscape:window-width="1920"
     inkscape:window-height="1043"
     inkscape:window-x="0"
     inkscape:window-y="1080"
     inkscape:window-maximized="1"
     inkscape:snap-global="false"
     inkscape:pagecheckerboard="true" />
  <metadata
     id="metadata5">
    <rdf:RDF>
      <cc:Work
         rdf:about="">
        <dc:format>image/svg+xml</dc:format>
        <dc:type
           rdf:resource="http://purl.org/dc/dcmitype/StillImage" />
        <dc:title></dc:title>
      </cc:Work>
    </rdf:RDF>
  </metadata>
  <g
     inkscape:label="Layer 1"
     inkscape:groupmode="layer"
     id="layer1"
     transform="translate(0,-244.08332)">
    <rect
       style="opacity:1;fill:#ffffff;fill-opacity:1;fill-rule:nonzero;stroke:none;stroke-width:1.10852516;stroke-linecap:butt;stroke-linejoin:miter;stroke-miterlimit:4;stroke-dasharray:none;stroke-dashoffset:0;stroke-opacity:1"
       id="rect2090"
       width="34.80999"
       height="34.542217"
       x="9.799448"
       y="258.70102"
       ry="0" />
    <path
       style="opacity:1;fill:#22b9d8;fill-opacity:1;fill-rule:nonzero;stroke:#ffffff;stroke-width:0;stroke-linecap:butt;stroke-linejoin:round;stroke-miterlimit:4;stroke-dasharray:none;stroke-dashoffset:0;stroke-opacity:1"
       d="m 9.6248244,258.60759 21.5106466,0.11029 10.934005,-0.18449 -3.441563,4.11637 -29.0309326,0.25989 0.156789,29.69236 30.8887916,0.26133 0.338954,-27.29146 3.640706,-4.15943 0.06469,11.04522 -0.03493,20.29714 c -0.004,2.3629 -1.665018,4.26524 -3.733225,4.26524 H 9.6248094 c -2.068205,0 -3.733219,-1.90227 -3.733219,-4.26524 v -29.88136 c 0,-2.36292 1.665063,-4.24952 3.733219,-4.26523 z"
       id="rect922"
       inkscape:connector-curvature="0"
       sodipodi:nodetypes="ccccccccccssssssc" />
    <path
       style="opacity:1;fill:none;fill-opacity:1;fill-rule:nonzero;stroke:#ffffff;stroke-width:0.8035503;stroke-linecap:butt;stroke-linejoin:miter;stroke-miterlimit:4;stroke-dasharray:none;stroke-dashoffset:0;stroke-opacity:1"
       id="path2088"
       sodipodi:type="arc"
       sodipodi:cx="9.9615536"
       sodipodi:cy="263.15329"
       sodipodi:rx="2.9264722"
       sodipodi:ry="3.2423735"
       sodipodi:start="3.1383114"
       sodipodi:end="4.7124"
       sodipodi:open="true"
       d="m 7.0350971,263.16393 a 2.9264722,3.2423735 0 0 1 0.8537473,-2.29959 2.9264722,3.2423735 0 0 1 2.0727414,-0.95342" />
    <path
       style="opacity:1;fill:#637792;fill-opacity:1;fill-rule:nonzero;stroke:none;stroke-width:2.68682671;stroke-linecap:butt;stroke-linejoin:miter;stroke-miterlimit:4;stroke-dasharray:none;stroke-dashoffset:0;stroke-opacity:1"
       d="m 30.63166,253.83358 21.973152,-3.09802 -4.35869,22.10386 -3.811257,-7.86953 -8.37707,8.16273 -6.328563,-5.90366 8.320593,-8.40257 z"
       id="rect922-3"
       inkscape:connector-curvature="0"
       sodipodi:nodetypes="cccccccc" />
    <path
       style="opacity:1;fill:#ffffff;fill-opacity:1;fill-rule:nonzero;stroke:none;stroke-width:2.68682671;stroke-linecap:butt;stroke-linejoin:miter;stroke-miterlimit:4;stroke-dasharray:none;stroke-dashoffset:0;stroke-opacity:1"
       d="m 33.665418,254.33944 17.688844,-2.83028 -1.59174,1.3964 -13.361689,2.03791 2.446938,3.14358 z"
       id="rect922-3-3"
       inkscape:connector-curvature="0"
       sodipodi:nodetypes="cccccc" />
    <g
       transform="matrix(0.74812527,0,0,0.74812527,45.613956,243.83372)"
       id="g2744">
      <path
         sodipodi:nodetypes="cccccc"
         inkscape:connector-curvature="0"
         id="path820-7"
         d="M -4.7155643,49.413563 -2.6928229,34.009451 28.427518,1.2220853 C 33.377355,2.486981 36.49862,4.3564697 38.561167,12.665339 L 8.3031358,43.98599 Z"
         style="fill:#fffeff;fill-opacity:1;stroke:none;stroke-width:2.26237726px;stroke-linecap:butt;stroke-linejoin:miter;stroke-opacity:1" />
      <path
         inkscape:connector-curvature="0"
         id="path826"
         d="M 2.5182084,35.900389 32.428219,4.0315665"
         style="fill:none;stroke:#9ec73c;stroke-width:1.8705821px;stroke-linecap:butt;stroke-linejoin:miter;stroke-opacity:1"
         sodipodi:nodetypes="cc" />
      <path
         inkscape:connector-curvature="0"
         id="path826-3"
         d="M 6.3800182,39.356353 35.737433,7.9019793"
         style="fill:none;stroke:#9ec73c;stroke-width:1.8705821px;stroke-linecap:butt;stroke-linejoin:miter;stroke-opacity:1" />
      <path
         sodipodi:nodetypes="cccccc"
         inkscape:connector-curvature="0"
         id="path820"
         d="M -4.1401415,48.376032 -2.0108198,34.708031 29.0561,1.6972274 c 3.094331,1.4758752 8.585257,5.1001705 9.314821,10.8398816 L 7.4884452,43.419586 Z"
         style="fill:none;stroke:#9ec73c;stroke-width:1.8705821px;stroke-linecap:butt;stroke-linejoin:miter;stroke-opacity:1" />
      <path
         sodipodi:nodetypes="ccc"
         inkscape:connector-curvature="0"
         id="path822"
         d="m -2.0108198,34.708031 c 3.1597083,0.959249 8.8154563,3.295689 9.4992651,8.711556 v 0"
         style="fill:none;stroke:#9ec73c;stroke-width:1.8705821px;stroke-linecap:butt;stroke-linejoin:miter;stroke-opacity:1" />
      <path
         transform="matrix(1.6,0,0,1.6,-9.6,0)"
         inkscape:connector-curvature="0"
         id="path2408"
         d="M 9.4544496,23.550775 C 9.2977784,23.38907 8.9663961,23.106796 8.7180445,22.923498 L 8.266496,22.590228 8.6538284,22.190624 C 8.9403338,21.895042 25.826412,3.7889628 26.315206,3.2532314 c 0.06397,-0.070117 0.220884,0.038719 0.711375,0.4934209 0.346114,0.3208592 0.662011,0.6445037 0.701992,0.7192099 0.06296,0.1176451 -1.129659,1.4239295 -8.908362,9.7573748 -4.93958,5.29185 -9.003521,9.621546 -9.0309797,9.621546 -0.027459,0 -0.1781106,-0.132303 -0.3347817,-0.294008 z"
         style="opacity:1;fill:#ffffff;fill-opacity:1;fill-rule:nonzero;stroke:none;stroke-width:0.16341582;stroke-linecap:round;stroke-linejoin:round;stroke-miterlimit:4;stroke-dasharray:none;stroke-opacity:1" />
      <path
         sodipodi:nodetypes="ccsccc"
         inkscape:connector-curvature="0"
         id="path824-2"
         d="m -1.2613767,35.457474 3.4011849,1.448683 c 1.567142,0.636936 2.362789,2.106176 3.017318,2.996197 0.543833,0.739497 2.0544429,3.319151 1.8695819,3.489125 -0.148603,0.136627 -5.7720029,2.133977 -9.9874434,3.631812 z"
         style="opacity:1;fill:#9ec73c;fill-opacity:0.45275592;fill-rule:nonzero;stroke:#9ec73c;stroke-width:0.43230066;stroke-linecap:round;stroke-linejoin:miter;stroke-miterlimit:4;stroke-dasharray:none;stroke-opacity:1" />
      <path
         sodipodi:nodetypes="ccsccc"
         inkscape:connector-curvature="0"
         id="path824"
         d="m -3.126542,35.193106 4.02303764,1.50923 c 1.56714266,0.636936 3.58571956,2.391526 4.24024816,3.281547 0.5438328,0.739497 1.7708339,2.207057 2.4466181,4.324326 l -12.836688,5.584768 z"
         style="opacity:1;fill:#9ec73c;fill-opacity:0.54724408;fill-rule:nonzero;stroke:none;stroke-width:0.43230066;stroke-linecap:round;stroke-linejoin:miter;stroke-miterlimit:4;stroke-dasharray:none;stroke-opacity:1" />
    </g>
  </g>
</svg>
