<?xml version="1.0" encoding="UTF-8" standalone="no"?>
<!-- Created with Inkscape (http://www.inkscape.org/) -->

<svg
   xmlns:dc="http://purl.org/dc/elements/1.1/"
   xmlns:cc="http://creativecommons.org/ns#"
   xmlns:rdf="http://www.w3.org/1999/02/22-rdf-syntax-ns#"
   xmlns:svg="http://www.w3.org/2000/svg"
   xmlns="http://www.w3.org/2000/svg"
   xmlns:sodipodi="http://sodipodi.sourceforge.net/DTD/sodipodi-0.dtd"
   xmlns:inkscape="http://www.inkscape.org/namespaces/inkscape"
   width="300"
   height="200"
   viewBox="0 0 79.374998 52.916668"
   version="1.1"
   id="svg8"
   sodipodi:docname="password-policy.svg"
   inkscape:version="0.92.3 (2405546, 2018-03-11)">
  <defs
     id="defs2">
    <inkscape:perspective
       sodipodi:type="inkscape:persp3d"
       inkscape:vp_x="0 : 26.458334 : 1"
       inkscape:vp_y="0 : 1000 : 0"
       inkscape:vp_z="79.374998 : 26.458334 : 1"
       inkscape:persp3d-origin="39.687499 : 17.638889 : 1"
       id="perspective929" />
    <clipPath
       clipPathUnits="userSpaceOnUse"
       id="clipPath8857">
      <rect
         style="opacity:1;fill:#637792;fill-opacity:1;fill-rule:nonzero;stroke:none;stroke-width:0.60000002;stroke-linecap:round;stroke-linejoin:round;stroke-miterlimit:4;stroke-dasharray:none;stroke-opacity:1"
         id="rect8859"
         width="45.120911"
         height="26.552826"
         x="27.119791"
         y="255.56435" />
    </clipPath>
  </defs>
  <sodipodi:namedview
     id="base"
     pagecolor="#ffffff"
     bordercolor="#666666"
     borderopacity="1.0"
     inkscape:pageopacity="0.0"
     inkscape:pageshadow="2"
     inkscape:zoom="2.5600001"
     inkscape:cx="209.55019"
     inkscape:cy="121.7588"
     inkscape:document-units="mm"
     inkscape:current-layer="layer1"
     showgrid="false"
     units="px"
     inkscape:measure-start="260.872,98.995"
     inkscape:measure-end="260.872,122.228"
     showguides="true"
     inkscape:guide-bbox="true"
     inkscape:window-width="1920"
     inkscape:window-height="1016"
     inkscape:window-x="0"
     inkscape:window-y="27"
     inkscape:window-maximized="1"
     inkscape:snap-global="false">
    <sodipodi:guide
       position="66.540715,27.58827"
       orientation="1,0"
       id="guide3889"
       inkscape:locked="false" />
    <sodipodi:guide
       position="47.557793,16.315447"
       orientation="0,1"
       id="guide3891"
       inkscape:locked="false" />
  </sodipodi:namedview>
  <metadata
     id="metadata5">
    <rdf:RDF>
      <cc:Work
         rdf:about="">
        <dc:format>image/svg+xml</dc:format>
        <dc:type
           rdf:resource="http://purl.org/dc/dcmitype/StillImage" />
        <dc:title></dc:title>
      </cc:Work>
    </rdf:RDF>
  </metadata>
  <g
     inkscape:label="Layer 1"
     inkscape:groupmode="layer"
     id="layer1"
     transform="translate(0,-244.08332)">
    <rect
       style="opacity:1;fill:#22b9d8;fill-opacity:1;fill-rule:nonzero;stroke:#000000;stroke-width:0.40624368;stroke-linecap:round;stroke-linejoin:round;stroke-miterlimit:4;stroke-dasharray:none;stroke-opacity:1"
       id="rect855"
       width="19.718651"
       height="18.356949"
       x="3.1496105"
       y="267.33987" />
    <path
       style="fill:#22b9d8;stroke:#000000;stroke-width:0.41606095;stroke-linecap:butt;stroke-linejoin:miter;stroke-miterlimit:4;stroke-dasharray:none;stroke-opacity:1"
       d="m 3.1545182,267.30895 c -0.00978,-2.76224 0.7014531,-4.96656 1.9350502,-6.486 1.2335972,-1.51944 2.3754903,-2.47647 4.2642732,-3.22508 1.8887824,-0.7486 5.2352134,-0.94631 7.0593464,-0.0717 1.824133,0.87464 3.586525,1.9648 4.837622,3.9776 1.251096,2.0128 1.717649,3.91024 1.648374,5.87682 l -3.511755,-0.0359 c 0.02614,-1.6211 -0.33119,-3.06173 -1.469203,-4.62262 -1.138013,-1.5609 -2.920695,-2.33442 -4.694286,-2.47256 -1.773592,-0.13814 -3.6552647,0.44323 -5.0526283,2.07838 -1.3973635,1.63516 -1.7614273,3.22508 -1.6483738,4.94513 z"
       id="path874"
       inkscape:connector-curvature="0"
       sodipodi:nodetypes="czzzzcczzzcc" />
    <path
       style="opacity:1;fill:#000000;fill-opacity:1;fill-rule:nonzero;stroke:#ffffff;stroke-width:0.41606095;stroke-linecap:round;stroke-linejoin:round;stroke-miterlimit:4;stroke-dasharray:none;stroke-opacity:1"
       d="m 11.86224,275.15666 c 0.404049,-0.29187 -1.287296,-1.04596 -1.344675,-2.51837 -0.05738,-1.47242 1.203346,-2.38198 2.781885,-2.32133 1.57854,0.0607 2.511639,1.26004 2.56496,2.34712 0.05332,1.08709 -0.3305,1.50497 -1.386271,2.49258 l 1.540873,5.30346 h -5.375136 z"
       id="rect876"
       inkscape:connector-curvature="0"
       sodipodi:nodetypes="czzzcccc" />
    <path
       style="opacity:1;fill:#ffffff;fill-opacity:1;fill-rule:nonzero;stroke:none;stroke-width:0.41606095;stroke-linecap:round;stroke-linejoin:round;stroke-miterlimit:4;stroke-dasharray:none;stroke-opacity:1"
       d="m 4.0145391,268.16897 4.0134348,0.0358 -2.830905,1.16461 -0.035837,5.10638 -1.0750272,0.0358 z"
       id="rect879"
       inkscape:connector-curvature="0"
       sodipodi:nodetypes="cccccc" />
    <path
       style="fill:#ffffff;stroke:none;stroke-width:0.28612828;stroke-linecap:butt;stroke-linejoin:miter;stroke-miterlimit:4;stroke-dasharray:none;stroke-opacity:1"
       d="m 5.1400387,262.15269 c 0.9610065,-1.52567 0.8512281,-1.24885 1.722606,-2.11957 0.871378,-0.87073 2.0102762,-1.70606 3.9056113,-2.09397 l 0.270082,1.12131 c -1.3570523,0.49404 -2.4390979,1.00308 -3.1204781,1.71571 -0.6813802,0.71263 -0.7107715,0.635 -1.4952745,1.88864 z"
       id="path874-6"
       inkscape:connector-curvature="0"
       sodipodi:nodetypes="czcczcc" />
    <rect
       style="opacity:1;fill:#9ec73c;fill-opacity:1;fill-rule:nonzero;stroke:#000000;stroke-width:0.43133587;stroke-linecap:round;stroke-linejoin:round;stroke-miterlimit:4;stroke-dasharray:none;stroke-opacity:1"
       id="rect855-5"
       width="26.258137"
       height="15.540741"
       x="27.40299"
       y="267.32071" />
    <path
       style="fill:#9ec73c;stroke:#000000;stroke-width:0.44175953;stroke-linecap:butt;stroke-linejoin:miter;stroke-miterlimit:4;stroke-dasharray:none;stroke-opacity:1"
       d="m 27.409525,267.29454 c -0.01303,-2.33847 0.934082,-4.20462 2.576789,-5.49096 1.642707,-1.28634 3.163297,-2.09655 5.678475,-2.73031 2.515178,-0.63375 6.971417,-0.80113 9.400505,-0.0607 2.429088,0.74046 4.775959,1.66337 6.441969,3.36738 1.666009,1.70401 2.28729,3.31036 2.195041,4.97523 l -4.676392,-0.0303 c 0.0348,-1.3724 -0.441026,-2.59201 -1.956449,-3.91344 -1.515424,-1.32144 -3.889313,-1.97629 -6.251098,-2.09324 -2.361784,-0.11695 -4.867495,0.37523 -6.728279,1.75953 -1.860785,1.3843 -2.345587,2.73031 -2.19504,4.18648 z"
       id="path874-3"
       inkscape:connector-curvature="0"
       sodipodi:nodetypes="czzzzcczzzcc" />
    <path
       style="opacity:1;fill:#000000;fill-opacity:1;fill-rule:nonzero;stroke:#ffffff;stroke-width:0.44175953;stroke-linecap:round;stroke-linejoin:round;stroke-miterlimit:4;stroke-dasharray:none;stroke-opacity:1"
       d="m 39.170734,273.9383 c -0.857216,-0.29877 -1.879876,-0.88549 -1.956285,-2.13202 -0.07641,-1.24653 1.602423,-2.01655 3.704469,-1.9652 2.102046,0.0514 3.344597,1.06673 3.415602,1.98704 0.071,0.92031 -0.440107,1.27409 -1.846013,2.11019 l 0.121496,3.78637 1.471027,0 -0.01288,2.95986 -6.176052,0.009 0.0011,-2.92325 1.277536,-0.0457 z"
       id="rect876-2"
       inkscape:connector-curvature="0"
       sodipodi:nodetypes="czzzcccccccc" />
    <path
       style="opacity:1;fill:#ffffff;fill-opacity:1;fill-rule:nonzero;stroke:none;stroke-width:0.44175953;stroke-linecap:round;stroke-linejoin:round;stroke-miterlimit:4;stroke-dasharray:none;stroke-opacity:1"
       d="m 28.554762,268.02262 5.344449,0.0303 -3.769745,0.98594 -0.04772,4.323 -1.431548,0.0303 z"
       id="rect879-4"
       inkscape:connector-curvature="0"
       sodipodi:nodetypes="cccccc" />
    <path
       style="fill:#ffffff;stroke:none;stroke-width:0.30380139;stroke-linecap:butt;stroke-linejoin:miter;stroke-miterlimit:4;stroke-dasharray:none;stroke-opacity:1"
       d="m 30.053522,262.92932 c 1.279715,-1.29161 1.133529,-1.05726 2.293891,-1.7944 1.160361,-0.73714 2.676963,-1.44432 5.200866,-1.77273 l 0.359652,0.94929 c -1.807104,0.41825 -3.247999,0.84919 -4.155352,1.4525 -0.907353,0.6033 -0.946491,0.53758 -1.991167,1.5989 z"
       id="path874-6-8"
       inkscape:connector-curvature="0"
       sodipodi:nodetypes="czcczcc" />
    <rect
       style="opacity:1;fill:#637792;fill-opacity:1;fill-rule:nonzero;stroke:#000000;stroke-width:0.43268695;stroke-linecap:round;stroke-linejoin:round;stroke-miterlimit:4;stroke-dasharray:none;stroke-opacity:1"
       id="rect855-59"
       width="18.524853"
       height="22.16651"
       x="58.391171"
       y="267.56482" />
    <path
       style="fill:#637792;stroke:#000000;stroke-width:0.44314325;stroke-linecap:butt;stroke-linejoin:miter;stroke-miterlimit:4;stroke-dasharray:none;stroke-opacity:1"
       d="m 58.39578,267.52748 c -0.0092,-3.33547 0.658986,-5.99725 1.8179,-7.83202 1.158913,-1.83476 2.231674,-2.9904 4.006107,-3.89436 1.774433,-0.90396 4.918265,-1.14271 6.631962,-0.0865 1.713697,1.05615 3.369391,2.37255 4.544744,4.80306 1.175353,2.43051 1.613661,4.72172 1.54858,7.09641 l -3.299148,-0.0433 c 0.02455,-1.95752 -0.311139,-3.69711 -1.380255,-5.58193 -1.069117,-1.88482 -2.743871,-2.81888 -4.410087,-2.98568 -1.666215,-0.16681 -3.433969,0.53521 -4.746734,2.5097 -1.312765,1.97449 -1.654787,3.89437 -1.548578,5.97137 z"
       id="path874-2"
       inkscape:connector-curvature="0"
       sodipodi:nodetypes="czzzzcczzzcc" />
    <path
       style="opacity:1;fill:#000000;fill-opacity:1;fill-rule:nonzero;stroke:#ffffff;stroke-width:0.44314325;stroke-linecap:round;stroke-linejoin:round;stroke-miterlimit:4;stroke-dasharray:none;stroke-opacity:1"
       d="m 66.576323,282.19259 c 0.379587,-0.35244 -1.209357,-1.26302 -1.263267,-3.041 -0.02696,-0.88899 0.686646,-2.23091 1.351595,-2.46115 l -0.135802,-3.26602 2.530436,0.0374 c -0.0039,1.20901 -0.0079,2.51023 -0.01179,3.25438 0.49158,0.58514 1.17748,0.8097 1.288698,2.46655 0.08798,1.3107 -0.310491,1.81729 -1.302344,3.00986 l 0.02818,2.85962 -2.484772,-0.0365 z"
       id="rect876-6"
       inkscape:connector-curvature="0"
       sodipodi:nodetypes="csccccscccc" />
    <path
       style="opacity:1;fill:#ffffff;fill-opacity:1;fill-rule:nonzero;stroke:none;stroke-width:0.44314325;stroke-linecap:round;stroke-linejoin:round;stroke-miterlimit:4;stroke-dasharray:none;stroke-opacity:1"
       d="m 59.203734,268.56598 3.770455,0.0433 -2.659517,1.4063 -0.03367,6.1661 -1.009944,0.0433 z"
       id="rect879-7"
       inkscape:connector-curvature="0"
       sodipodi:nodetypes="cccccc" />
    <path
       style="fill:#ffffff;stroke:none;stroke-width:0.30475298;stroke-linecap:butt;stroke-linejoin:miter;stroke-miterlimit:4;stroke-dasharray:none;stroke-opacity:1"
       d="m 60.261094,261.30116 c 0.902826,-1.84228 0.799694,-1.50801 1.618317,-2.55944 0.818623,-1.05142 1.888571,-2.06011 3.669159,-2.52853 l 0.253731,1.35402 c -1.274894,0.59657 -2.291431,1.21125 -2.931559,2.07177 -0.640129,0.86051 -0.66774,0.76678 -1.404748,2.28059 z"
       id="path874-6-5"
       inkscape:connector-curvature="0"
       sodipodi:nodetypes="czcczcc" />
  </g>
</svg>
