<?xml version="1.0" encoding="UTF-8" standalone="no"?>
<!-- Created with Inkscape (http://www.inkscape.org/) -->

<svg
   xmlns:dc="http://purl.org/dc/elements/1.1/"
   xmlns:cc="http://creativecommons.org/ns#"
   xmlns:rdf="http://www.w3.org/1999/02/22-rdf-syntax-ns#"
   xmlns:svg="http://www.w3.org/2000/svg"
   xmlns="http://www.w3.org/2000/svg"
   xmlns:sodipodi="http://sodipodi.sourceforge.net/DTD/sodipodi-0.dtd"
   xmlns:inkscape="http://www.inkscape.org/namespaces/inkscape"
   width="300"
   height="200"
   viewBox="0 0 79.374998 52.916668"
   version="1.1"
   id="svg8"
   sodipodi:docname="user-types.svg"
   inkscape:version="0.92.3 (2405546, 2018-03-11)">
  <defs
     id="defs2">
    <inkscape:perspective
       sodipodi:type="inkscape:persp3d"
       inkscape:vp_x="0 : 26.458334 : 1"
       inkscape:vp_y="0 : 1000 : 0"
       inkscape:vp_z="79.374998 : 26.458334 : 1"
       inkscape:persp3d-origin="39.687499 : 17.638889 : 1"
       id="perspective929" />
    <clipPath
       clipPathUnits="userSpaceOnUse"
       id="clipPath8857">
      <rect
         style="opacity:1;fill:#637792;fill-opacity:1;fill-rule:nonzero;stroke:none;stroke-width:0.60000002;stroke-linecap:round;stroke-linejoin:round;stroke-miterlimit:4;stroke-dasharray:none;stroke-opacity:1"
         id="rect8859"
         width="45.120911"
         height="26.552826"
         x="27.119791"
         y="255.56435" />
    </clipPath>
  </defs>
  <sodipodi:namedview
     id="base"
     pagecolor="#ffffff"
     bordercolor="#666666"
     borderopacity="1.0"
     inkscape:pageopacity="0.0"
     inkscape:pageshadow="2"
     inkscape:zoom="1.28"
     inkscape:cx="183.50481"
     inkscape:cy="103.37167"
     inkscape:document-units="mm"
     inkscape:current-layer="layer1"
     showgrid="false"
     units="px"
     inkscape:measure-start="260.872,98.995"
     inkscape:measure-end="260.872,122.228"
     showguides="true"
     inkscape:guide-bbox="true"
     inkscape:window-width="1920"
     inkscape:window-height="1016"
     inkscape:window-x="0"
     inkscape:window-y="27"
     inkscape:window-maximized="1"
     inkscape:snap-global="false" />
  <metadata
     id="metadata5">
    <rdf:RDF>
      <cc:Work
         rdf:about="">
        <dc:format>image/svg+xml</dc:format>
        <dc:type
           rdf:resource="http://purl.org/dc/dcmitype/StillImage" />
        <dc:title></dc:title>
      </cc:Work>
    </rdf:RDF>
  </metadata>
  <g
     inkscape:label="Layer 1"
     inkscape:groupmode="layer"
     id="layer1"
     transform="translate(0,-244.08332)">
    <path
       style="opacity:1;fill:#22b9d8;fill-opacity:1;fill-rule:nonzero;stroke:#000000;stroke-width:0.60000002;stroke-linecap:round;stroke-linejoin:round;stroke-miterlimit:4;stroke-dasharray:none;stroke-opacity:1"
       d="m 58.61137,272.15228 16.286159,-0.14616 -7.910536,13.03359 z"
       id="rect2211"
       inkscape:connector-curvature="0"
       sodipodi:nodetypes="cccc" />
    <rect
       style="opacity:1;fill:#637792;fill-opacity:1;fill-rule:nonzero;stroke:#000000;stroke-width:0.6;stroke-linecap:round;stroke-linejoin:round;stroke-miterlimit:4;stroke-dasharray:none;stroke-opacity:1"
       id="rect2202"
       width="13.434143"
       height="12.118675"
       x="36.474102"
       y="258.05399" />
    <g
       style="stroke:#000000;stroke-width:0.274487;stroke-miterlimit:4;stroke-dasharray:none"
       id="g3763"
       transform="matrix(2.1858959,0,0,2.1858959,-18.123438,-296.27242)">
      <g
         style="stroke:#000000;stroke-width:0.274487;stroke-miterlimit:4;stroke-dasharray:none"
         id="g3739">
        <path
           style="opacity:1;fill:#9ec73c;fill-opacity:1;fill-rule:nonzero;stroke:#000000;stroke-width:0.274487;stroke-linecap:round;stroke-linejoin:round;stroke-miterlimit:4;stroke-dasharray:none;stroke-opacity:1"
           id="path3703"
           sodipodi:type="arc"
           sodipodi:cx="15.694117"
           sodipodi:cy="251.56693"
           sodipodi:rx="2.6992078"
           sodipodi:ry="2.6992078"
           sodipodi:start="2.8258975"
           sodipodi:end="2.8219531"
           sodipodi:open="true"
           d="m 13.128302,252.40497 a 2.6992078,2.6992078 0 0 1 1.725242,-3.40303 2.6992078,2.6992078 0 0 1 3.40473,1.72188 2.6992078,2.6992078 0 0 1 -1.718528,3.40643 2.6992078,2.6992078 0 0 1 -3.408119,-1.71517" />
        <path
           style="opacity:1;fill:#9ec73c;fill-opacity:1;fill-rule:nonzero;stroke:#000000;stroke-width:0.274487;stroke-linecap:round;stroke-linejoin:round;stroke-miterlimit:4;stroke-dasharray:none;stroke-opacity:1"
           d="m 12.10097,255.27751 1.62261,-0.33409 c 0.678082,0.72878 1.335218,0.71457 1.972912,0.77791 0.637695,0.0634 1.45622,-0.1525 1.968164,-0.77217 l 1.772458,0.30641 c 0.937521,0.23641 0.873374,0.72863 0.855195,3.40751 l -8.953024,-0.0277 c 0.01695,-2.85817 -0.214096,-3.08554 0.761685,-3.35789 z"
           id="rect3705"
           inkscape:connector-curvature="0"
           sodipodi:nodetypes="cczccccc" />
        <path
           style="opacity:1;fill:#ffffff;fill-opacity:1;fill-rule:nonzero;stroke:none;stroke-width:0.274487;stroke-linecap:round;stroke-linejoin:round;stroke-miterlimit:4;stroke-dasharray:none;stroke-opacity:1"
           d="m 13.40368,252.43364 c -0.462515,-1.41607 0.305425,-2.66343 1.741308,-3.2216 l 0.207998,0.57992 c -1.295951,0.56558 -1.583435,1.31739 -1.419929,2.35896 l -0.526051,0.29283"
           id="path3703-5"
           inkscape:connector-curvature="0"
           sodipodi:nodetypes="ccccc" />
      </g>
    </g>
    <path
       style="opacity:1;fill:#637792;fill-opacity:1;fill-rule:nonzero;stroke:#000000;stroke-width:0.6;stroke-linecap:round;stroke-linejoin:round;stroke-miterlimit:4;stroke-dasharray:none;stroke-opacity:1"
       d="m 35.148937,273.41186 3.546857,-0.73028 c 1.482217,1.59303 2.918647,1.56197 4.31258,1.70043 1.393935,0.13858 3.183145,-0.33335 4.302202,-1.68789 l 3.874408,0.66978 c 2.049324,0.51677 1.909105,1.59271 1.869368,7.44847 l -19.570379,-0.0605 c 0.03705,-6.24767 -0.467991,-6.74467 1.664964,-7.34 z"
       id="rect3705-5"
       inkscape:connector-curvature="0"
       sodipodi:nodetypes="cczccccc" />
    <path
       style="opacity:1;fill:#ffffff;fill-opacity:1;fill-rule:nonzero;stroke:none;stroke-width:0.60000002;stroke-linecap:round;stroke-linejoin:round;stroke-miterlimit:4;stroke-dasharray:none;stroke-opacity:1"
       d="m 37.376409,261.45938 c -0.132511,-2.73365 2.166243,-2.66972 5.304934,-2.70126 l 0.09293,1.62937 c -4.021372,-0.004 -4.133017,0.0891 -4.033992,3.7095 l -1.408276,-0.0834"
       id="path3703-5-3"
       inkscape:connector-curvature="0"
       sodipodi:nodetypes="ccccc" />
    <path
       style="opacity:1;fill:#22b9d8;fill-opacity:1;fill-rule:nonzero;stroke:#000000;stroke-width:0.59999996;stroke-linecap:round;stroke-linejoin:round;stroke-miterlimit:4;stroke-dasharray:none;stroke-opacity:1"
       d="m 58.827346,286.12805 3.546856,-0.73028 c 1.482217,1.59303 2.918648,1.56197 4.312581,1.70043 1.393934,0.13858 3.183145,-0.33335 4.302201,-1.68789 l 3.874409,0.66978 c 2.049323,0.51677 1.909104,1.59271 1.869367,7.44847 l -19.570378,-0.0606 c 0.03705,-6.24767 -0.467992,-6.74467 1.664964,-7.34 z"
       id="rect3705-1"
       inkscape:connector-curvature="0"
       sodipodi:nodetypes="cczccccc" />
    <path
       style="opacity:1;fill:#ffffff;fill-opacity:1;fill-rule:nonzero;stroke:none;stroke-width:0.60000002;stroke-linecap:round;stroke-linejoin:round;stroke-miterlimit:4;stroke-dasharray:none;stroke-opacity:1"
       d="m 60.420193,273.10562 6.648521,-0.0141 -0.113776,1.52602 c -3.504607,0.0993 -4.08134,-0.16929 -3.258845,1.48741 l -1.304923,0.43336"
       id="path3703-5-3-7"
       inkscape:connector-curvature="0"
       sodipodi:nodetypes="ccccc" />
  </g>
</svg>
