<?xml version="1.0" encoding="UTF-8" standalone="no"?>
<!-- Created with Inkscape (http://www.inkscape.org/) -->

<svg
   xmlns:dc="http://purl.org/dc/elements/1.1/"
   xmlns:cc="http://creativecommons.org/ns#"
   xmlns:rdf="http://www.w3.org/1999/02/22-rdf-syntax-ns#"
   xmlns:svg="http://www.w3.org/2000/svg"
   xmlns="http://www.w3.org/2000/svg"
   xmlns:sodipodi="http://sodipodi.sourceforge.net/DTD/sodipodi-0.dtd"
   xmlns:inkscape="http://www.inkscape.org/namespaces/inkscape"
   version="1.1"
   id="svg2979"
   width="206"
   height="206"
   viewBox="0 0 206 206"
   sodipodi:docname="logo.svg"
   inkscape:version="0.92.5 (2060ec1f9f, 2020-04-08)">
  <metadata
     id="metadata2985">
    <rdf:RDF>
      <cc:Work
         rdf:about="">
        <dc:format>image/svg+xml</dc:format>
        <dc:type
           rdf:resource="http://purl.org/dc/dcmitype/StillImage" />
        <dc:title></dc:title>
      </cc:Work>
    </rdf:RDF>
  </metadata>
  <defs
     id="defs2983" />
  <sodipodi:namedview
     pagecolor="#ffffff"
     bordercolor="#666666"
     borderopacity="1"
     objecttolerance="10"
     gridtolerance="10"
     guidetolerance="10"
     inkscape:pageopacity="0"
     inkscape:pageshadow="2"
     inkscape:window-width="1920"
     inkscape:window-height="1043"
     id="namedview2981"
     showgrid="true"
     showguides="true"
     inkscape:guide-bbox="true"
     inkscape:snap-global="false"
     inkscape:zoom="2.1059999"
     inkscape:cx="111.22165"
     inkscape:cy="101.35897"
     inkscape:window-x="0"
     inkscape:window-y="1080"
     inkscape:window-maximized="1"
     inkscape:current-layer="svg2979">
    <inkscape:grid
       type="xygrid"
       id="grid7263" />
    <sodipodi:guide
       position="9.9999999,77.397914"
       orientation="0,1"
       id="guide7265"
       inkscape:locked="false" />
  </sodipodi:namedview>
  <text
     xml:space="preserve"
     style="font-style:normal;font-variant:normal;font-weight:bold;font-stretch:normal;font-size:64px;line-height:1.25;font-family:'Liberation Sans';-inkscape-font-specification:'Liberation Sans Bold';letter-spacing:0px;word-spacing:0px;fill:#000000;fill-opacity:1;stroke:none"
     x="13.295347"
     y="91.80246"
     id="text7241"><tspan
       sodipodi:role="line"
       id="tspan7239"
       x="13.295347"
       y="149.45074" /></text>
  <path
     inkscape:connector-curvature="0"
     id="path7247"
     style="font-style:normal;font-variant:normal;font-weight:normal;font-stretch:normal;font-size:96px;line-height:1.25;font-family:'Avenir LT Std';-inkscape-font-specification:'Avenir LT Std';letter-spacing:0px;word-spacing:0px;fill:#637792;fill-opacity:1;stroke:none"
     d="m -0.49958597,122.22061 c 4.41599997,6.336 9.88799997,8.352 17.47199997,8.352 8.928,0 17.952,-3.936 17.952,-14.112 0,-9.024 -6.72,-11.904 -14.688,-13.44 -5.952,-1.152 -11.328,-2.784 -11.328,-6.528004 0,-4.224003 4.704,-6.240003 8.832,-6.240003 4.416,0 7.584,2.208 9.504,5.376003 l 6.24,-4.128003 c -3.072,-5.76 -8.928,-8.16 -15.264,-8.16 -8.352,0 -16.8,4.512 -16.8,13.248003 0,9.312004 7.296,11.136004 15.84,13.056004 4.8,1.056 9.6,2.304 9.6,7.104 0,4.896 -5.184,6.912 -9.888,6.912 -5.28,0 -8.544,-2.4 -11.52,-6.048 z" />
  <path
     inkscape:connector-curvature="0"
     id="path7249"
     style="font-style:normal;font-variant:normal;font-weight:normal;font-stretch:normal;font-size:96px;line-height:1.25;font-family:'Avenir LT Std';-inkscape-font-specification:'Avenir LT Std';letter-spacing:0px;word-spacing:0px;fill:#637792;fill-opacity:1;stroke:none"
     d="m 38.997617,107.19403 c 0,14.016 10.176,23.616 24,23.616 13.823998,0 23.999998,-9.6 23.999998,-23.616 0,-14.016007 -10.176,-23.616007 -23.999998,-23.616007 -13.824,0 -24,9.6 -24,23.616007 z m 8.064,0 c 0,-9.408004 6.24,-16.704007 15.936,-16.704007 9.695997,0 15.935998,7.296003 15.935998,16.704007 0,9.408 -6.240001,16.704 -15.935998,16.704 -9.696,0 -15.936,-7.296 -15.936,-16.704 z" />
  <path
     inkscape:connector-curvature="0"
     id="path7251"
     style="font-style:normal;font-variant:normal;font-weight:normal;font-stretch:normal;font-size:96px;line-height:1.25;font-family:'Avenir LT Std';-inkscape-font-specification:'Avenir LT Std';letter-spacing:0px;word-spacing:0px;fill:#637792;fill-opacity:1;stroke:none"
     d="m 97.207975,130.84511 c 0.20464,6.40682 -1.83409,10.11417 -4.46523,10.26828 l -7.07683,0.11871 0.1644,7.24121 7.52432,0.0593 c 4.69488,0.12705 11.432595,-3.71221 11.341345,-17.68755 V 92.253053 h 13.31817 v -6.336 h -13.31817 v -8.448 c 0,-6.23279 4.4428,-7.26716 8.77625,-7.26716 1.728,0 3.456,0.384 5.088,0.96 l 1.056,-6.72 c -1.44,-0.768 -3.84014,-1.17516 -5.76,-1.152 -9.84054,0.11871 -16.648255,1.60316 -16.648255,12.54716 v 10.08 h -9.792 v 6.336 h 9.792 z"
     sodipodi:nodetypes="ccccccccccssccssccccc" />
  <path
     inkscape:connector-curvature="0"
     id="path7253"
     style="font-style:normal;font-variant:normal;font-weight:normal;font-stretch:normal;font-size:96px;line-height:1.25;font-family:'Avenir LT Std';-inkscape-font-specification:'Avenir LT Std';letter-spacing:0px;word-spacing:0px;fill:#22b9d8;fill-opacity:1;stroke:none"
     d="M 143.39032,85.917113 H 125.3954 v -8.448 c 0,-7.776 0.288,-13.44 8.064,-13.44 1.728,0 2.53601,-0.0315 4.18285,-0.005 l 0.047,-6.912907 c -2.07806,0.0036 -1.92583,0.0054 -3.84583,0.0054 -12.096,0 -15.936,7.776007 -15.936,18.720007 v 10.08 6.336 38.592007 h 7.488 V 92.252613 h 17.65916 z"
     sodipodi:nodetypes="ccssccssccccccc" />
  <path
     inkscape:connector-curvature="0"
     id="path7255"
     style="font-style:normal;font-variant:normal;font-weight:normal;font-stretch:normal;font-size:96px;line-height:1.25;font-family:'Avenir LT Std';-inkscape-font-specification:'Avenir LT Std';letter-spacing:0px;word-spacing:0px;fill:#9ec73c;fill-opacity:1;stroke:none"
     d="m 197.74011,131.08253 h 7.488 V 58.506523 h -7.488 v 34.176 h -0.192 c -4.128,-4.8 -9.6,-7.68 -16.128,-7.68 -14.112,0 -23.616,9.984 -23.616,23.616007 0,13.44 9.888,23.616 22.464,23.616 8.064,0 14.496,-4.032 17.28,-9.12 h 0.192 z m 0,-22.464 c 0,9.408 -6.24,16.704 -15.936,16.704 -9.696,0 -15.936,-7.296 -15.936,-16.704 0,-9.408004 6.24,-16.704007 15.936,-16.704007 9.696,0 15.936,7.296003 15.936,16.704007 z" />
  <rect
     style="opacity:1;fill:#9ec73c;fill-opacity:1;fill-rule:nonzero;stroke:none;stroke-width:1.88976383;stroke-linecap:round;stroke-linejoin:round;stroke-miterlimit:4;stroke-dasharray:none;stroke-dashoffset:0;stroke-opacity:0.98425197"
     id="rect7267"
     width="8.3095932"
     height="8.3095932"
     x="142.68758"
     y="57.245861" />
  <rect
     style="opacity:1;fill:#637792;fill-opacity:1;fill-rule:nonzero;stroke:none;stroke-width:1.88976383;stroke-linecap:round;stroke-linejoin:round;stroke-miterlimit:4;stroke-dasharray:none;stroke-dashoffset:0;stroke-opacity:0.98425197"
     id="rect7267-8"
     width="8.3095932"
     height="8.3095932"
     x="72.530869"
     y="140.57919" />
  <path
     inkscape:connector-curvature="0"
     id="path7253-7"
     style="font-style:normal;font-variant:normal;font-weight:normal;font-stretch:normal;font-size:96px;line-height:1.25;font-family:'Avenir LT Std';-inkscape-font-specification:'Avenir LT Std';letter-spacing:0px;word-spacing:0px;fill:#9ec73c;fill-opacity:1;stroke:none"
     d="m 143.18935,130.78405 h 7.488 V 85.856043 h -7.488 z"
     sodipodi:nodetypes="ccccc" />
</svg>
